<svg width="20" height="20" viewBox="0 0 20 20" fill="none" xmlns="http://www.w3.org/2000/svg">
<rect x="1.5" y="1.5" width="17" height="17" rx="8.5" stroke="black"/>
<path d="M5 7.5C5 7.22386 5.22386 7 5.5 7H14.5C14.7761 7 15 7.22386 15 7.5C15 7.77614 14.7761 8 14.5 8H5.5C5.22386 8 5 7.77614 5 7.5Z" fill="black"/>
<path d="M5.90909 10.5C5.90909 10.2239 6.13295 10 6.40909 10H13.4091C13.6852 10 13.9091 10.2239 13.9091 10.5C13.9091 10.7761 13.6852 11 13.4091 11H6.40909C6.13295 11 5.90909 10.7761 5.90909 10.5Z" fill="black"/>
<path d="M6.81818 13.5C6.81818 13.2239 7.04204 13 7.31818 13H12.3182C12.5943 13 12.8182 13.2239 12.8182 13.5C12.8182 13.7761 12.5943 14 12.3182 14H7.31818C7.04204 14 6.81818 13.7761 6.81818 13.5Z" fill="black"/>
</svg>
