<svg width="22" height="22" viewBox="0 0 22 22" fill="none" xmlns="http://www.w3.org/2000/svg"> <path d="M10.9902 21.0469C16.5273 21.0469 21.0977 16.4766 21.0977 10.9492C21.0977 5.42188 16.5176 0.851562 10.9805 0.851562C5.45312 0.851562 0.892578 5.42188 0.892578 10.9492C0.892578 16.4766 5.46289 21.0469 10.9902 21.0469ZM10.9902 19.0352C6.50781 19.0352 2.92383 15.4316 2.92383 10.9492C2.92383 6.4668 6.50781 2.87305 10.9805 2.87305C15.4629 2.87305 19.0664 6.4668 19.0762 10.9492C19.0859 15.4316 15.4727 19.0352 10.9902 19.0352ZM10.1406 15.1484C10.5312 15.1484 10.8242 14.8457 10.8242 14.4551V12.5996H10.9609C12.8555 12.5996 14.0176 13.1465 14.8281 14.6699C15.0234 15.0312 15.2773 15.1191 15.541 15.1191C15.8926 15.1191 16.1758 14.7871 16.1758 14.1621C16.1758 10.4121 14.5156 8.13672 10.9609 8.13672H10.8242V6.27148C10.8242 5.89062 10.5312 5.56836 10.1309 5.56836C9.85742 5.56836 9.67188 5.68555 9.37891 5.95898L5.29688 9.75781C5.0918 9.94336 5.01367 10.1582 5.01367 10.3535C5.01367 10.5488 5.0918 10.7734 5.29688 10.959L9.37891 14.7773C9.64258 15.0215 9.86719 15.1484 10.1406 15.1484Z" fill="#828282"/> </svg>
