<svg width="20" height="20" viewBox="0 0 20 20" fill="none" xmlns="http://www.w3.org/2000/svg">
<path d="M5.9043 16.8457H13.0889C14.374 16.8457 15.085 16.1689 15.085 14.877V10.6797H15.1328C15.7344 10.5498 16.0693 10.0645 16.0693 9.36719V7.56934C16.0693 6.73535 15.6045 6.20898 14.7705 6.20898H13.3896C13.752 5.84668 13.9639 5.35449 13.9639 4.78711C13.9639 3.46094 12.918 2.51758 11.5918 2.51758C10.6348 2.51758 9.8418 3.04395 9.49316 3.95996C9.14453 3.04395 8.3584 2.51758 7.39453 2.51758C6.0752 2.51758 5.02246 3.46094 5.02246 4.78711C5.02246 5.35449 5.23438 5.84668 5.60352 6.20898H4.22266C3.42285 6.20898 2.92383 6.73535 2.92383 7.56934V9.36719C2.92383 10.0645 3.25195 10.5498 3.85352 10.6797H3.90137V14.877C3.90137 16.1689 4.6123 16.8457 5.9043 16.8457ZM8.93262 6.20898H7.86621C6.79297 6.20898 6.16406 5.60059 6.16406 4.84863C6.16406 4.09668 6.71094 3.65918 7.46289 3.65918C8.27637 3.65918 8.93262 4.27441 8.93262 5.28613V6.20898ZM10.0537 6.20898V5.28613C10.0537 4.27441 10.71 3.65918 11.5234 3.65918C12.2754 3.65918 12.8223 4.09668 12.8223 4.84863C12.8223 5.60059 12.2002 6.20898 11.1201 6.20898H10.0537ZM8.88477 9.69531H4.50293C4.16113 9.69531 4.02441 9.55176 4.02441 9.20996V7.71973C4.02441 7.37793 4.16113 7.24121 4.50293 7.24121H8.88477V9.69531ZM10.1016 9.69531V7.24121H14.4971C14.8389 7.24121 14.9688 7.37793 14.9688 7.71973V9.20996C14.9688 9.55176 14.8389 9.69531 14.4971 9.69531H10.1016ZM8.88477 15.8203H5.89062C5.32324 15.8203 5.00195 15.499 5.00195 14.9316V10.7275H8.88477V15.8203ZM10.1016 15.8203V10.7275H13.9844V14.9316C13.9844 15.499 13.6631 15.8203 13.0957 15.8203H10.1016Z" fill="#0C0C0C"/>
</svg>
