<svg width="20" height="20" viewBox="0 0 20 20" fill="none" xmlns="http://www.w3.org/2000/svg">
<path d="M14.5176 8.41699C14.8662 8.41699 15.0713 8.19824 15.0713 7.93164V7.84961C15.0713 7.45996 15.2969 7.2207 15.7686 6.90625C16.4316 6.46875 16.9033 6.07227 16.9033 5.25195C16.9033 4.11719 15.8916 3.50195 14.7295 3.50195C13.5605 3.50195 12.7881 4.0625 12.5967 4.69141C12.5625 4.80078 12.542 4.91699 12.542 5.02637C12.542 5.33398 12.7812 5.49805 13.0068 5.49805C13.3965 5.49805 13.458 5.29297 13.6768 5.0332C13.9023 4.65723 14.2305 4.43164 14.6885 4.43164C15.3105 4.43164 15.7139 4.78711 15.7139 5.30664C15.7139 5.77148 15.4268 5.99707 14.832 6.41406C14.3398 6.75586 13.9775 7.11816 13.9775 7.78809V7.87695C13.9775 8.23242 14.1689 8.41699 14.5176 8.41699ZM7.85254 9.99609C9.31543 9.99609 10.5869 8.68359 10.5869 6.97461C10.5869 5.28613 9.31543 4.03516 7.85254 4.03516C6.38965 4.03516 5.11816 5.31348 5.11816 6.98828C5.11816 8.68359 6.38281 9.99609 7.85254 9.99609ZM14.5039 10.4541C14.9004 10.4541 15.2422 10.1396 15.2422 9.74316C15.2422 9.34668 14.9072 9.03223 14.5039 9.03223C14.1006 9.03223 13.7656 9.35352 13.7656 9.74316C13.7656 10.1328 14.1074 10.4541 14.5039 10.4541ZM3.55273 16.3262H12.1387C13.2188 16.3262 13.6016 16.0186 13.6016 15.417C13.6016 13.6533 11.3936 11.2197 7.8457 11.2197C4.30469 11.2197 2.09668 13.6533 2.09668 15.417C2.09668 16.0186 2.47949 16.3262 3.55273 16.3262Z" fill="#0C0C0C"/>
</svg>
