<svg width="20" height="20" viewBox="0 0 20 20" fill="none" xmlns="http://www.w3.org/2000/svg">
<path d="M6.36914 16.6064H12.6309C13.6562 16.6064 14.1621 16.0938 14.1621 14.9795V10.2695C14.1621 9.29883 13.7725 8.78613 12.9795 8.67676V7.02246C12.9795 4.44531 11.291 3.20117 9.5 3.20117C7.70898 3.20117 6.02051 4.44531 6.02051 7.02246V8.67676C5.22754 8.78613 4.83789 9.29883 4.83789 10.2695V14.9795C4.83789 16.0938 5.34375 16.6064 6.36914 16.6064ZM7.12109 6.87891C7.12109 5.16309 8.22168 4.25391 9.5 4.25391C10.7783 4.25391 11.8789 5.16309 11.8789 6.87891V8.65625H7.12109V6.87891ZM6.41016 15.5811C6.0957 15.5811 5.93848 15.4375 5.93848 15.0547V10.2012C5.93848 9.81836 6.0957 9.68164 6.41016 9.68164H12.5967C12.9111 9.68164 13.0615 9.81836 13.0615 10.2012V15.0547C13.0615 15.4375 12.9111 15.5811 12.5967 15.5811H6.41016Z" fill="#0C0C0C"/>
</svg>
