<svg width="24" height="24" viewBox="0 0 24 24" fill="none" xmlns="http://www.w3.org/2000/svg">
<g id="active">
<path id="&#244;&#128;&#150;&#134;" d="M6.73298 16.6979C7.33208 16.6979 7.89401 16.5864 8.41876 16.3633C8.94352 16.1359 9.40487 15.8233 9.80281 15.4253C10.2008 15.0274 10.5112 14.566 10.7343 14.0413C10.9617 13.5121 11.0754 12.948 11.0754 12.3489C11.0754 11.7498 10.9617 11.1879 10.7343 10.6631C10.5112 10.1384 10.2008 9.67704 9.80281 9.2791C9.40487 8.87678 8.94352 8.56411 8.41876 8.34109C7.89401 8.1137 7.33208 8 6.73298 8C6.12951 8 5.56321 8.1137 5.03408 8.34109C4.50932 8.56411 4.04797 8.87678 3.65003 9.2791C3.25209 9.67704 2.93942 10.1384 2.71202 10.6631C2.489 11.1879 2.37749 11.7498 2.37749 12.3489C2.37749 12.948 2.489 13.5121 2.71202 14.0413C2.93942 14.566 3.25209 15.0274 3.65003 15.4253C4.04797 15.8233 4.50932 16.1359 5.03408 16.3633C5.56321 16.5864 6.12951 16.6979 6.73298 16.6979ZM6.73298 15.1761C6.33941 15.1761 5.96989 15.1039 5.62443 14.9596C5.28334 14.8153 4.98379 14.6141 4.72578 14.3561C4.46777 14.0938 4.26443 13.792 4.11575 13.4509C3.97144 13.1055 3.89929 12.7381 3.89929 12.3489C3.89929 11.9597 3.97144 11.5946 4.11575 11.2535C4.26443 10.9124 4.46777 10.6129 4.72578 10.3549C4.98379 10.0925 5.28334 9.88913 5.62443 9.74482C5.96989 9.59614 6.33941 9.5218 6.73298 9.5218C7.1178 9.5218 7.48076 9.59614 7.82185 9.74482C8.16294 9.88913 8.46249 10.0925 8.7205 10.3549C8.98288 10.6129 9.18622 10.9124 9.33053 11.2535C9.47921 11.5946 9.55355 11.9597 9.55355 12.3489C9.55355 12.7381 9.47921 13.1055 9.33053 13.4509C9.18622 13.792 8.98288 14.0916 8.7205 14.3496C8.46249 14.6076 8.16294 14.8109 7.82185 14.9596C7.48076 15.1039 7.1178 15.1761 6.73298 15.1761ZM17.2806 16.6979C17.8841 16.6979 18.4482 16.5864 18.973 16.3633C19.4977 16.1359 19.9591 15.8233 20.357 15.4253C20.7549 15.0274 21.0654 14.566 21.2885 14.0413C21.5158 13.5121 21.6295 12.948 21.6295 12.3489C21.6295 11.7498 21.5158 11.1879 21.2885 10.6631C21.0654 10.1384 20.7549 9.67704 20.357 9.2791C19.9591 8.87678 19.4977 8.56411 18.973 8.34109C18.4482 8.1137 17.8841 8 17.2806 8C16.6815 8 16.1196 8.1137 15.5948 8.34109C15.0701 8.56411 14.6065 8.87678 14.2042 9.2791C13.8063 9.67704 13.4936 10.1384 13.2662 10.6631C13.0432 11.1879 12.9317 11.7498 12.9317 12.3489C12.9317 12.948 13.0432 13.5121 13.2662 14.0413C13.4936 14.566 13.8063 15.0274 14.2042 15.4253C14.6065 15.8233 15.0701 16.1359 15.5948 16.3633C16.1196 16.5864 16.6815 16.6979 17.2806 16.6979ZM17.2806 15.1761C16.8914 15.1761 16.5263 15.1039 16.1852 14.9596C15.8441 14.8109 15.5424 14.6076 15.28 14.3496C15.022 14.0916 14.8186 13.792 14.6699 13.4509C14.5256 13.1055 14.4535 12.7381 14.4535 12.3489C14.4535 11.9597 14.5256 11.5946 14.6699 11.2535C14.8186 10.9124 15.022 10.6129 15.28 10.3549C15.5424 10.0925 15.8441 9.88913 16.1852 9.74482C16.5263 9.59614 16.8914 9.5218 17.2806 9.5218C17.6742 9.5218 18.0415 9.59614 18.3826 9.74482C18.7237 9.88913 19.0232 10.0925 19.2813 10.3549C19.5436 10.6129 19.747 10.9124 19.8913 11.2535C20.0356 11.5946 20.1077 11.9597 20.1077 12.3489C20.1077 12.7381 20.0356 13.1055 19.8913 13.4509C19.747 13.792 19.5436 14.0938 19.2813 14.3561C19.0232 14.6141 18.7237 14.8153 18.3826 14.9596C18.0415 15.1039 17.6742 15.1761 17.2806 15.1761ZM2.84977 11.3453H1.52476C1.17492 11.3453 1 11.5203 1 11.8701V12.4408C1 12.795 1.17492 12.9721 1.52476 12.9721H2.84977V11.3453ZM21.1507 12.9721H22.4888C22.8343 12.9721 23.007 12.795 23.007 12.4408V11.8701C23.007 11.5203 22.8343 11.3453 22.4888 11.3453H21.1507V12.9721ZM10.6818 12.7753C10.8611 12.6529 11.0688 12.5654 11.3049 12.5129C11.5454 12.4561 11.7794 12.4276 12.0068 12.4276C12.2298 12.4276 12.4616 12.4561 12.7021 12.5129C12.9426 12.5654 13.1525 12.6529 13.3318 12.7753V11.2797C13.1307 11.1748 12.9098 11.1004 12.6693 11.0567C12.4288 11.013 12.208 10.9911 12.0068 10.9911C11.8013 10.9911 11.5782 11.013 11.3377 11.0567C11.0972 11.1004 10.8786 11.1748 10.6818 11.2797V12.7753Z" fill="#38383D"/>
</g>
</svg>
