<svg width="24" height="24" viewBox="0 0 24 24" fill="none" xmlns="http://www.w3.org/2000/svg">
<g id="alarm">
<path id="path" d="M12 22C10.75 22 9.57933 21.7627 8.488 21.288C7.396 20.8127 6.446 20.1707 5.638 19.362C4.82933 18.554 4.18733 17.604 3.712 16.512C3.23733 15.4207 3 14.25 3 13C3 11.75 3.23733 10.579 3.712 9.487C4.18733 8.39567 4.82933 7.44567 5.638 6.637C6.446 5.829 7.396 5.18767 8.488 4.713C9.57933 4.23767 10.75 4 12 4C13.25 4 14.421 4.23767 15.513 4.713C16.6043 5.18767 17.5543 5.829 18.363 6.637C19.171 7.44567 19.8127 8.39567 20.288 9.487C20.7627 10.579 21 11.75 21 13C21 14.25 20.7627 15.4207 20.288 16.512C19.8127 17.604 19.171 18.554 18.363 19.362C17.5543 20.1707 16.6043 20.8127 15.513 21.288C14.421 21.7627 13.25 22 12 22ZM11 9V12.975C11 13.1083 11.025 13.2373 11.075 13.362C11.125 13.4873 11.2 13.6 11.3 13.7L14.125 16.525C14.3083 16.7083 14.5333 16.8 14.8 16.8C15.0667 16.8 15.3 16.7 15.5 16.5C15.6833 16.3167 15.775 16.0833 15.775 15.8C15.775 15.5167 15.6833 15.2833 15.5 15.1L13 12.6V8.975C13 8.69167 12.9043 8.45833 12.713 8.275C12.521 8.09167 12.2833 8 12 8C11.7167 8 11.4793 8.09567 11.288 8.287C11.096 8.479 11 8.71667 11 9ZM3.425 7.325C3.24167 7.50833 3.01667 7.6 2.75 7.6C2.48333 7.6 2.25 7.5 2.05 7.3C1.86667 7.11667 1.775 6.88333 1.775 6.6C1.775 6.31667 1.86667 6.08333 2.05 5.9L4.925 3.025C5.10834 2.84167 5.33333 2.75 5.6 2.75C5.86667 2.75 6.1 2.85 6.3 3.05C6.48334 3.23333 6.575 3.46667 6.575 3.75C6.575 4.03333 6.48334 4.26667 6.3 4.45L3.425 7.325ZM20.55 7.3L17.675 4.425C17.4917 4.24167 17.4 4.01667 17.4 3.75C17.4 3.48333 17.5 3.25 17.7 3.05C17.8833 2.86667 18.1167 2.775 18.4 2.775C18.6833 2.775 18.9167 2.86667 19.1 3.05L21.975 5.925C22.1583 6.10833 22.25 6.33333 22.25 6.6C22.25 6.86667 22.15 7.1 21.95 7.3C21.7667 7.48333 21.5333 7.575 21.25 7.575C20.9667 7.575 20.7333 7.48333 20.55 7.3Z" fill="black"/>
</g>
</svg>
