<svg width="24" height="24" viewBox="0 0 24 24" fill="none" xmlns="http://www.w3.org/2000/svg">
<g id="arrow-back">
<path id="path" d="M10.875 19.3L4.275 12.7C4.175 12.6 4.104 12.4917 4.062 12.375C4.02067 12.2583 4 12.1333 4 12C4 11.8667 4.02067 11.7417 4.062 11.625C4.104 11.5083 4.175 11.4 4.275 11.3L10.875 4.70001C11.0583 4.51667 11.2873 4.42067 11.562 4.41201C11.8373 4.40401 12.075 4.50001 12.275 4.70001C12.475 4.88334 12.5793 5.11234 12.588 5.38701C12.596 5.66234 12.5 5.90001 12.3 6.10001L7.4 11H18.575C18.8583 11 19.096 11.0957 19.288 11.287C19.4793 11.479 19.575 11.7167 19.575 12C19.575 12.2833 19.4793 12.5207 19.288 12.712C19.096 12.904 18.8583 13 18.575 13H7.4L12.3 17.9C12.4833 18.0833 12.5793 18.3167 12.588 18.6C12.596 18.8833 12.5 19.1167 12.3 19.3C12.1167 19.5 11.8833 19.6 11.6 19.6C11.3167 19.6 11.075 19.5 10.875 19.3Z" fill="#1C1B1F"/>
</g>
</svg>
