<svg width="24" height="24" viewBox="0 0 24 24" fill="none" xmlns="http://www.w3.org/2000/svg">
<g id="click-target">
<path id="path" d="M11.7 18C10.1 17.9167 8.75 17.3 7.65 16.15C6.55 15 6 13.6167 6 12C6 10.3333 6.58333 8.91667 7.75 7.75C8.91667 6.58333 10.3333 6 12 6C13.6167 6 15 6.55 16.15 7.65C17.3 8.75 17.9167 10.1 18 11.7L15.9 11.075C15.6833 10.175 15.2167 9.43767 14.5 8.863C13.7833 8.28767 12.95 8 12 8C10.9 8 9.95833 8.39167 9.175 9.175C8.39167 9.95833 8 10.9 8 12C8 12.95 8.28767 13.7833 8.863 14.5C9.43767 15.2167 10.175 15.6833 11.075 15.9L11.7 18ZM12.9 21.95C12.75 21.9833 12.6 22 12.45 22H12C10.6167 22 9.31667 21.7373 8.1 21.212C6.88333 20.6873 5.825 19.975 4.925 19.075C4.025 18.175 3.31267 17.1167 2.788 15.9C2.26267 14.6833 2 13.3833 2 12C2 10.6167 2.26267 9.31667 2.788 8.1C3.31267 6.88333 4.025 5.825 4.925 4.925C5.825 4.025 6.88333 3.31233 8.1 2.787C9.31667 2.26233 10.6167 2 12 2C13.3833 2 14.6833 2.26233 15.9 2.787C17.1167 3.31233 18.175 4.025 19.075 4.925C19.975 5.825 20.6873 6.88333 21.212 8.1C21.7373 9.31667 22 10.6167 22 12V12.45C22 12.6 21.9833 12.75 21.95 12.9L20 12.3V12C20 9.76667 19.225 7.875 17.675 6.325C16.125 4.775 14.2333 4 12 4C9.76667 4 7.875 4.775 6.325 6.325C4.775 7.875 4 9.76667 4 12C4 14.2333 4.775 16.125 6.325 17.675C7.875 19.225 9.76667 20 12 20H12.3L12.9 21.95ZM20.525 22.5L16.25 18.225L15 22L12 12L22 15L18.225 16.25L22.5 20.525L20.525 22.5Z" fill="black"/>
</g>
</svg>
