<svg width="24" height="24" viewBox="0 0 24 24" fill="none" xmlns="http://www.w3.org/2000/svg">
<g id="comment-plus">
<path id="&#244;&#128;&#140;&#183; Add comment" d="M7.4342 22C7.64309 22 7.83706 21.951 8.01611 21.8531C8.20113 21.7552 8.41898 21.5931 8.66965 21.3667L12.0537 18.2735L17.6132 18.2827C18.5264 18.2827 19.3113 18.1022 19.9678 17.7412C20.6243 17.374 21.1256 16.8539 21.4718 16.1808C21.8239 15.5077 22 14.7061 22 13.776V6.50665C22 5.57656 21.8239 4.77497 21.4718 4.10188C21.1256 3.42879 20.6243 2.91173 19.9678 2.55071C19.3113 2.18357 18.5264 2 17.6132 2H6.38675C5.47359 2 4.68875 2.18357 4.03223 2.55071C3.38168 2.91173 2.88033 3.42879 2.5282 4.10188C2.17607 4.77497 2 5.57656 2 6.50665V13.776C2 14.7061 2.17905 15.5077 2.53715 16.1808C2.90122 16.8539 3.39958 17.371 4.03223 17.732C4.67084 18.093 5.40495 18.2735 6.23456 18.2735H6.48523V20.9169C6.48523 21.2474 6.56879 21.5105 6.7359 21.7063C6.90898 21.9021 7.14175 22 7.4342 22ZM7.6222 10.1413C7.6222 9.82316 7.72068 9.5631 7.91764 9.36117C8.12056 9.15313 8.37123 9.04911 8.66965 9.04911H10.9615V6.6994C10.9615 6.39345 11.06 6.13951 11.2569 5.93759C11.4539 5.72954 11.7046 5.62552 12.009 5.62552C12.3133 5.62552 12.564 5.72954 12.761 5.93759C12.9639 6.13951 13.0654 6.39345 13.0654 6.6994V9.04911H15.3662C15.6646 9.04911 15.9123 9.15313 16.1092 9.36117C16.3062 9.5631 16.4047 9.82316 16.4047 10.1413C16.4047 10.4473 16.3062 10.7043 16.1092 10.9123C15.9123 11.1143 15.6646 11.2152 15.3662 11.2152H13.0654V13.5649C13.0654 13.8709 12.9639 14.1248 12.761 14.3268C12.564 14.5287 12.3133 14.6296 12.009 14.6296C11.7046 14.6296 11.4539 14.5287 11.2569 14.3268C11.06 14.1248 10.9615 13.8709 10.9615 13.5649V11.2152H8.66965C8.37123 11.2152 8.12056 11.1143 7.91764 10.9123C7.72068 10.7043 7.6222 10.4473 7.6222 10.1413Z" fill="black"/>
</g>
</svg>
