<svg width="24" height="24" viewBox="0 0 24 24" fill="none" xmlns="http://www.w3.org/2000/svg">
<g id="comment">
<path id="Vector" fill-rule="evenodd" clip-rule="evenodd" d="M4.5 4.14293C4.40528 4.14293 4.31444 4.18057 4.24746 4.24754C4.18048 4.31453 4.14286 4.40537 4.14286 4.50009V15.2148C4.14286 15.4119 4.30286 15.5719 4.5 15.5719H7.35714C7.6413 15.5719 7.91382 15.6848 8.11476 15.8858C8.31569 16.0867 8.42857 16.3593 8.42857 16.6434V19.7721L12.3142 15.8863C12.515 15.6853 12.7873 15.5722 13.0714 15.5719H19.5C19.5948 15.5719 19.6856 15.5343 19.7525 15.4673C19.8195 15.4003 19.8572 15.3095 19.8572 15.2148V4.50009C19.8572 4.40537 19.8195 4.31453 19.7525 4.24754C19.6856 4.18057 19.5948 4.14293 19.5 4.14293H4.5ZM2 4.50009C2 3.12004 3.12 2 4.5 2H19.5C20.88 2 22 3.12004 22 4.50009V15.2148C22 15.8778 21.7366 16.5138 21.2678 16.9826C20.7989 17.4514 20.1631 17.7148 19.5 17.7148H13.5142L9.83857 21.3907C9.54748 21.6817 9.17667 21.8798 8.77301 21.9601C8.36935 22.0403 7.95096 21.9991 7.57072 21.8416C7.19047 21.6841 6.86545 21.4174 6.63673 21.0753C6.40801 20.7331 6.28586 20.3308 6.28572 19.9193V17.7148H4.5C3.83696 17.7148 3.20107 17.4514 2.73223 16.9826C2.26339 16.5138 2 15.8778 2 15.2148V4.50009Z" fill="black"/>
</g>
</svg>
