<svg width="24" height="24" viewBox="0 0 24 24" fill="none" xmlns="http://www.w3.org/2000/svg">
<g id="comment-timeline">
<path id="path" d="M7.8864 21C8.25669 21 8.55456 20.8438 9.00537 20.4325L12.0724 17.6599H17.0313C19.4945 17.6684 21 16.1052 21 13.6125V7.04755C21 4.55484 19.4945 3 17.0313 3H6.96064C4.50536 3 3 4.54663 3 7.04755V13.6125C3 16.1134 4.61001 17.6599 6.80769 17.6599H7.02505V20.0211C7.02505 20.6216 7.34703 21 7.8864 21ZM7.78174 9.12522C7.46779 9.12522 7.19409 8.8373 7.19409 8.5C7.19409 8.17093 7.45976 7.88299 7.78174 7.88299H16.1699C16.508 7.88299 16.7737 8.17093 16.7737 8.5C16.7737 8.8373 16.508 9.12522 16.1699 9.12522H7.78174ZM7.78174 12.5C7.46779 12.5 7.19409 12.2121 7.19409 11.8748C7.19409 11.5457 7.45976 11.2578 7.78174 11.2578H13.28C13.61 11.2578 13.8757 11.5375 13.8757 11.8748C13.8757 12.2121 13.61 12.5 13.28 12.5H7.78174Z" fill="black"/>
</g>
</svg>
