<svg width="24" height="24" viewBox="0 0 24 24" fill="none" xmlns="http://www.w3.org/2000/svg">
<g id="comment-viewer">
<path id="path" fill-rule="evenodd" clip-rule="evenodd" d="M9.00537 20.4325C8.55456 20.8438 8.25669 21 7.8864 21C7.34703 21 7.02505 20.6216 7.02505 20.0211V17.6599H6.80769C4.61001 17.6599 3 16.1134 3 13.6125V7.04755C3 4.54663 4.50536 3 6.96064 3H17.0313C19.4945 3 21 4.55484 21 7.04755V13.6125C21 16.1052 19.4945 17.6684 17.0313 17.6599H12.0724L9.00537 20.4325ZM8 11C8.55228 11 9 10.5523 9 10C9 9.44772 8.55228 9 8 9C7.44772 9 7 9.44772 7 10C7 10.5523 7.44772 11 8 11ZM12 11C12.5523 11 13 10.5523 13 10C13 9.44772 12.5523 9 12 9C11.4477 9 11 9.44772 11 10C11 10.5523 11.4477 11 12 11ZM17 10C17 10.5523 16.5523 11 16 11C15.4477 11 15 10.5523 15 10C15 9.44772 15.4477 9 16 9C16.5523 9 17 9.44772 17 10Z" fill="black"/>
</g>
</svg>
