<svg width="24" height="24" viewBox="0 0 24 24" fill="none" xmlns="http://www.w3.org/2000/svg">
<g id="company">
<path id="Vector" d="M12.4328 6.46395V2.14395H1.63278V21.584H23.2328V6.46395H12.4328ZM5.95278 19.424H3.79278V17.264H5.95278V19.424ZM5.95278 15.104H3.79278V12.944H5.95278V15.104ZM5.95278 10.784H3.79278V8.62395H5.95278V10.784ZM5.95278 6.46395H3.79278V4.30395H5.95278V6.46395ZM10.2728 19.424H8.11278V17.264H10.2728V19.424ZM10.2728 15.104H8.11278V12.944H10.2728V15.104ZM10.2728 10.784H8.11278V8.62395H10.2728V10.784ZM10.2728 6.46395H8.11278V4.30395H10.2728V6.46395ZM21.0728 19.424H12.4328V17.264H14.5928V15.104H12.4328V12.944H14.5928V10.784H12.4328V8.62395H21.0728V19.424ZM18.9128 10.784H16.7528V12.944H18.9128V10.784ZM18.9128 15.104H16.7528V17.264H18.9128V15.104Z" fill="black"/>
</g>
</svg>
