<svg width="24" height="24" viewBox="0 0 24 24" fill="none" xmlns="http://www.w3.org/2000/svg">
<g id="dock-left">
<path id="Vector" d="M4.97578 19.902H19.1672C20.0312 19.902 20.6766 19.6886 21.1031 19.2622C21.5297 18.841 21.7429 18.2066 21.7429 17.359V7.34297C21.7429 6.49532 21.5297 5.86093 21.1031 5.43984C20.6766 5.01328 20.0312 4.8 19.1672 4.8H4.97578C4.11719 4.8 3.47188 5.01328 3.03984 5.43984C2.61328 5.86093 2.4 6.49532 2.4 7.34297V17.359C2.4 18.2066 2.61328 18.841 3.03984 19.2622C3.47188 19.6886 4.11719 19.902 4.97578 19.902ZM4.99219 18.5813C4.58203 18.5813 4.26759 18.4746 4.04883 18.2614C3.83008 18.0426 3.72071 17.7199 3.72071 17.2933V7.4086C3.72071 6.98204 3.83008 6.66212 4.04883 6.44883C4.26759 6.23008 4.58203 6.12071 4.99219 6.12071H19.1508C19.5554 6.12071 19.8672 6.23008 20.086 6.44883C20.3101 6.66212 20.4223 6.98204 20.4223 7.4086V17.2933C20.4223 17.7199 20.3101 18.0426 20.086 18.2614C19.8672 18.4746 19.5554 18.5813 19.1508 18.5813H4.99219ZM4.84453 16.4813C4.84453 16.7711 4.93204 17.0063 5.10703 17.1868C5.2875 17.3617 5.51992 17.4492 5.80429 17.4492H11.1363C11.4207 17.4492 11.6504 17.3617 11.8254 17.1868C12.0059 17.0063 12.0961 16.7711 12.0961 16.4813V8.20429C12.0961 7.91446 12.0059 7.6793 11.8254 7.49883C11.6504 7.31836 11.4207 7.22813 11.1363 7.22813H5.80429C5.51992 7.22813 5.2875 7.31836 5.10703 7.49883C4.93204 7.6793 4.84453 7.91446 4.84453 8.20429V16.4813Z" fill="black"/>
</g>
</svg>
