<svg width="24" height="24" viewBox="0 0 24 24" fill="none" xmlns="http://www.w3.org/2000/svg">
<g id="dock-bottom">
<path id="Vector" d="M5.55837 17.4664H18.5856C19.0669 17.4664 19.3075 17.2202 19.3075 16.728V13.0774C19.3075 12.5852 19.0669 12.3391 18.5856 12.3391H5.55837C5.08256 12.3391 4.84466 12.5852 4.84466 13.0774V16.728C4.84466 17.2202 5.08256 17.4664 5.55837 17.4664ZM4.97591 19.9027H19.1681C20.0322 19.9027 20.6776 19.6895 21.1042 19.2629C21.5308 18.8418 21.744 18.2101 21.744 17.3678V7.3431C21.744 6.50087 21.5308 5.86647 21.1042 5.43988C20.6776 5.01329 20.0322 4.8 19.1681 4.8H4.97591C4.11728 4.8 3.47193 5.01329 3.03987 5.43988C2.61328 5.86099 2.39999 6.49541 2.39999 7.3431V17.3678C2.39999 18.2101 2.61328 18.8418 3.03987 19.2629C3.47193 19.6895 4.11728 19.9027 4.97591 19.9027ZM4.99232 18.582C4.58215 18.582 4.26767 18.4753 4.04891 18.2621C3.83015 18.0433 3.72076 17.7206 3.72076 17.294V7.41694C3.72076 6.99035 3.83015 6.66768 4.04891 6.44892C4.26767 6.23016 4.58215 6.12077 4.99232 6.12077H19.1516C19.5564 6.12077 19.8682 6.23016 20.0869 6.44892C20.3111 6.66768 20.4233 6.99035 20.4233 7.41694V17.294C20.4233 17.7206 20.3111 18.0433 20.0869 18.2621C19.8682 18.4753 19.5564 18.582 19.1516 18.582H4.99232Z" fill="black"/>
</g>
</svg>
