<svg width="24" height="24" viewBox="0 0 24 24" fill="none" xmlns="http://www.w3.org/2000/svg">
<g id="dock-bottom-right">
<path id="Vector" d="M19.3067 13.3148C19.3067 13.0195 19.2164 12.7843 19.036 12.6094C18.8609 12.4289 18.6312 12.3386 18.3469 12.3386H13.0313C12.7469 12.3386 12.5144 12.4289 12.334 12.6094C12.159 12.7843 12.0715 13.0195 12.0715 13.3148V16.4567C12.0715 16.752 12.159 16.9898 12.334 17.1703C12.5144 17.3453 12.7469 17.4328 13.0313 17.4328H18.3469C18.6312 17.4328 18.8609 17.3453 19.036 17.1703C19.2164 16.9898 19.3067 16.752 19.3067 16.4567V13.3148ZM4.97578 19.902H19.1672C20.0312 19.902 20.6766 19.6886 21.1031 19.2622C21.5297 18.841 21.7429 18.2066 21.7429 17.359V7.34297C21.7429 6.49532 21.5297 5.86093 21.1031 5.43984C20.6766 5.01328 20.0312 4.8 19.1672 4.8H4.97578C4.11719 4.8 3.47188 5.01328 3.03984 5.43984C2.61328 5.86093 2.4 6.49532 2.4 7.34297V17.359C2.4 18.2066 2.61328 18.841 3.03984 19.2622C3.47188 19.6886 4.11719 19.902 4.97578 19.902ZM4.99219 18.5813C4.58203 18.5813 4.26759 18.4746 4.04883 18.2614C3.83008 18.0426 3.72071 17.7199 3.72071 17.2933V7.4086C3.72071 6.98204 3.83008 6.66212 4.04883 6.44883C4.26759 6.23008 4.58203 6.12071 4.99219 6.12071H19.1508C19.5554 6.12071 19.8672 6.23008 20.086 6.44883C20.3101 6.66212 20.4223 6.98204 20.4223 7.4086V17.2933C20.4223 17.7199 20.3101 18.0426 20.086 18.2614C19.8672 18.4746 19.5554 18.5813 19.1508 18.5813H4.99219Z" fill="black"/>
</g>
</svg>
