<svg width="24" height="24" viewBox="0 0 24 24" fill="none" xmlns="http://www.w3.org/2000/svg">
<g id="docs">
<path id="Vector" d="M6.20232 6.96H4.52232V18.72C4.52232 19.644 5.27832 20.4 6.20232 20.4H17.9623V18.72H6.20232V6.96ZM19.6423 3.6H9.56232C8.63832 3.6 7.88232 4.356 7.88232 5.28V15.36C7.88232 16.284 8.63832 17.04 9.56232 17.04H19.6423C20.5663 17.04 21.3223 16.284 21.3223 15.36V5.28C21.3223 4.356 20.5663 3.6 19.6423 3.6ZM18.8023 11.16H10.4023V9.48H18.8023V11.16ZM15.4423 14.52H10.4023V12.84H15.4423V14.52ZM18.8023 7.8H10.4023V6.12H18.8023V7.8Z" fill="black"/>
</g>
</svg>
