<svg width="24" height="24" viewBox="0 0 24 24" fill="none" xmlns="http://www.w3.org/2000/svg">
<g id="drawer">
<path id="path" d="M4.76909 19.7619H19.2224C20.1398 19.7619 20.8321 19.5283 21.2993 19.0611C21.7664 18.5997 22 17.9186 22 17.0181V6.74375C22 5.83761 21.7664 5.15378 21.2993 4.69226C20.8321 4.23075 20.1398 3.99998 19.2224 3.99998H4.76909C3.85732 3.99998 3.16786 4.23075 2.70072 4.69226C2.23358 5.15378 2 5.83761 2 6.74375V17.0181C2 17.9186 2.23358 18.5997 2.70072 19.0611C3.16786 19.5283 3.85732 19.7619 4.76909 19.7619ZM4.87041 18.0988C4.47643 18.0988 4.17532 17.9974 3.96707 17.7948C3.76445 17.5922 3.66315 17.2854 3.66315 16.8746V6.87883C3.66315 6.4736 3.76445 6.16968 3.96707 5.96706C4.17532 5.76444 4.47643 5.66313 4.87041 5.66313H19.1295C19.518 5.66313 19.8162 5.76444 20.0245 5.96706C20.2327 6.16968 20.3368 6.4736 20.3368 6.87883V16.8746C20.3368 17.2854 20.2327 17.5922 20.0245 17.7948C19.8162 17.9974 19.518 18.0988 19.1295 18.0988H4.87041ZM8.71168 18.3689H10.2904V5.37609H8.71168V18.3689ZM7.05698 8.75304C7.20894 8.75304 7.33839 8.69676 7.44533 8.58419C7.5579 8.47163 7.61418 8.3478 7.61418 8.21273C7.61418 8.06639 7.5579 7.93976 7.44533 7.83283C7.33839 7.72588 7.20894 7.67242 7.05698 7.67242H5.32629C5.17996 7.67242 5.05052 7.72588 4.93795 7.83283C4.83101 7.93976 4.77754 8.06639 4.77754 8.21273C4.77754 8.3478 4.83101 8.47163 4.93795 8.58419C5.05052 8.69676 5.17996 8.75304 5.32629 8.75304H7.05698ZM7.05698 11.0156C7.20894 11.0156 7.33839 10.9621 7.44533 10.8552C7.5579 10.7426 7.61418 10.6132 7.61418 10.4668C7.61418 10.3261 7.5579 10.2023 7.44533 10.0954C7.33839 9.98843 7.20894 9.93497 7.05698 9.93497H5.32629C5.17996 9.93497 5.05052 9.98843 4.93795 10.0954C4.83101 10.2023 4.77754 10.3261 4.77754 10.4668C4.77754 10.6132 4.83101 10.7426 4.93795 10.8552C5.05052 10.9621 5.17996 11.0156 5.32629 11.0156H7.05698ZM7.05698 13.2697C7.20894 13.2697 7.33839 13.2163 7.44533 13.1093C7.5579 13.0024 7.61418 12.8786 7.61418 12.7378C7.61418 12.5916 7.5579 12.4649 7.44533 12.3579C7.33839 12.2509 7.20894 12.1976 7.05698 12.1976H5.32629C5.17996 12.1976 5.05052 12.2509 4.93795 12.3579C4.83101 12.4649 4.77754 12.5916 4.77754 12.7378C4.77754 12.8786 4.83101 13.0024 4.93795 13.1093C5.05052 13.2163 5.17996 13.2697 5.32629 13.2697H7.05698Z" fill="black"/>
</g>
</svg>
