<svg width="24" height="24" viewBox="0 0 24 24" fill="none" xmlns="http://www.w3.org/2000/svg">
<g id="expand-less">
<path id="&#244;&#128;&#134;&#136;" d="M11.9935 8C11.8319 8.00437 11.6812 8.03712 11.5415 8.09825C11.4017 8.15939 11.2664 8.25546 11.1354 8.38646L6.29476 13.345C6.09825 13.5415 6 13.7817 6 14.0655C6 14.262 6.04803 14.4389 6.14411 14.5961C6.23581 14.7576 6.36026 14.8843 6.51747 14.976C6.67467 15.0721 6.84935 15.1201 7.04148 15.1201C7.32969 15.1201 7.58515 15.0087 7.80786 14.786L12.2555 10.1943L11.7249 10.1943L16.1856 14.786C16.4083 15.0087 16.6659 15.1201 16.9585 15.1201C17.1507 15.1201 17.3253 15.0721 17.4825 14.976C17.6397 14.8843 17.7664 14.7576 17.8624 14.5961C17.9541 14.4389 18 14.262 18 14.0655C18 13.9258 17.976 13.7948 17.9279 13.6725C17.8755 13.5546 17.8013 13.4454 17.7052 13.345L12.8581 8.38646C12.5961 8.12882 12.3079 8 11.9935 8Z" fill="black"/>
</g>
</svg>
