<svg width="24" height="24" viewBox="0 0 24 24" fill="none" xmlns="http://www.w3.org/2000/svg">
<g id="expand-more">
<path id="&#244;&#128;&#134;&#136;" d="M12.0066 15.1201C12.1681 15.1157 12.3188 15.083 12.4585 15.0218C12.5983 14.9607 12.7336 14.8646 12.8646 14.7336L17.7052 9.77511C17.9017 9.5786 18 9.33843 18 9.05459C18 8.85808 17.952 8.68122 17.8559 8.52402C17.7642 8.36245 17.6397 8.23581 17.4825 8.1441C17.3253 8.04803 17.1507 8 16.9585 8C16.6703 8 16.4148 8.11135 16.1921 8.33406L11.7445 12.9258H12.2751L7.81441 8.33406C7.5917 8.11135 7.33406 8 7.04148 8C6.84934 8 6.67467 8.04803 6.51747 8.1441C6.36026 8.23581 6.23362 8.36245 6.13755 8.52402C6.04585 8.68122 6 8.85808 6 9.05459C6 9.19432 6.02402 9.32533 6.07205 9.4476C6.12445 9.5655 6.19869 9.67467 6.29476 9.77511L11.1419 14.7336C11.4039 14.9913 11.6921 15.1201 12.0066 15.1201Z" fill="black"/>
</g>
</svg>
