<svg width="24" height="24" viewBox="0 0 24 24" fill="none" xmlns="http://www.w3.org/2000/svg">
<g id="experimental">
<path id="Vector" d="M15.2 8.8H8.79999V15.2H15.2V8.8ZM13.0667 13.0667H10.9333V10.9333H13.0667V13.0667ZM21.6 10.9333V8.8H19.4667V6.66667C19.4667 5.49333 18.5067 4.53333 17.3333 4.53333H15.2V2.4H13.0667V4.53333H10.9333V2.4H8.79999V4.53333H6.66666C5.49333 4.53333 4.53333 5.49333 4.53333 6.66667V8.8H2.39999V10.9333H4.53333V13.0667H2.39999V15.2H4.53333V17.3333C4.53333 18.5067 5.49333 19.4667 6.66666 19.4667H8.79999V21.6H10.9333V19.4667H13.0667V21.6H15.2V19.4667H17.3333C18.5067 19.4667 19.4667 18.5067 19.4667 17.3333V15.2H21.6V13.0667H19.4667V10.9333H21.6ZM17.3333 17.3333H6.66666V6.66667H17.3333V17.3333Z" fill="black"/>
</g>
</svg>
