<svg width="24" height="24" viewBox="0 0 24 24" fill="none" xmlns="http://www.w3.org/2000/svg">
<g id="fork-right">
<path id="path" d="M10 21C9.71667 21 9.47933 20.904 9.288 20.712C9.096 20.5207 9 20.2833 9 20V6.8L8.1 7.7C7.91667 7.88333 7.68333 7.975 7.4 7.975C7.11667 7.975 6.88333 7.88333 6.7 7.7C6.51667 7.51667 6.425 7.28333 6.425 7C6.425 6.71667 6.51667 6.48333 6.7 6.3L9.3 3.7C9.4 3.6 9.50833 3.529 9.625 3.487C9.74167 3.44567 9.86667 3.425 10 3.425C10.1333 3.425 10.2583 3.44567 10.375 3.487C10.4917 3.529 10.6 3.6 10.7 3.7L13.3 6.3C13.4833 6.48333 13.575 6.71667 13.575 7C13.575 7.28333 13.4833 7.51667 13.3 7.7C13.1167 7.88333 12.8833 7.975 12.6 7.975C12.3167 7.975 12.0833 7.88333 11.9 7.7L11 6.8V13.35C11.5833 12.8333 12.2417 12.4623 12.975 12.237C13.7083 12.0123 14.4417 11.9 15.175 11.9C15.3583 11.9 15.5377 11.9083 15.713 11.925C15.8877 11.9417 16.05 11.9667 16.2 12L15.3 11.1C15.1167 10.9167 15.025 10.6833 15.025 10.4C15.025 10.1167 15.1167 9.88333 15.3 9.7C15.4833 9.51667 15.7167 9.425 16 9.425C16.2833 9.425 16.5167 9.51667 16.7 9.7L19.3 12.3C19.4 12.4 19.471 12.5083 19.513 12.625C19.5543 12.7417 19.575 12.8667 19.575 13C19.575 13.1333 19.5543 13.2583 19.513 13.375C19.471 13.4917 19.4 13.6 19.3 13.7L16.7 16.3C16.5167 16.4833 16.2833 16.575 16 16.575C15.7167 16.575 15.4833 16.4833 15.3 16.3C15.1167 16.1167 15.025 15.8833 15.025 15.6C15.025 15.3167 15.1167 15.0833 15.3 14.9L16.2 14C16.0167 13.9667 15.8293 13.9373 15.638 13.912C15.446 13.8873 15.2583 13.875 15.075 13.875C14.175 13.875 13.346 14.129 12.588 14.637C11.8293 15.1457 11.3 15.9333 11 17V20C11 20.2833 10.9043 20.5207 10.713 20.712C10.521 20.904 10.2833 21 10 21Z" fill="black"/>
</g>
</svg>
