<svg width="24" height="24" viewBox="0 0 24 24" fill="none" xmlns="http://www.w3.org/2000/svg">
<g id="globe">
<path id="&#244;&#128;&#181;&#178;" d="M12.3094 19.2375C12.5469 19.2375 12.85 19.0906 13.2188 18.7969C13.5938 18.4969 13.9844 18.1125 14.3906 17.6437C14.7969 17.1687 15.1781 16.6625 15.5344 16.125C15.8969 15.5875 16.1906 15.075 16.4156 14.5875C16.6406 14.0937 16.7531 13.6906 16.7531 13.3781C16.7531 13.1469 16.6438 12.8812 16.425 12.5812C16.2125 12.2812 15.9438 11.9906 15.6188 11.7094C15.2938 11.4219 14.9563 11.1844 14.6063 10.9969C14.2625 10.8094 13.9594 10.7156 13.6969 10.7156C13.5406 10.7156 13.3625 10.7719 13.1625 10.8844C12.9625 10.9906 12.7594 11.1 12.5531 11.2125C12.3469 11.3187 12.1531 11.3719 11.9719 11.3719C11.8469 11.3719 11.6875 11.3187 11.4938 11.2125C11.3063 11.1 11.1188 10.9625 10.9313 10.8C10.75 10.6375 10.5969 10.4719 10.4719 10.3031C10.3469 10.1344 10.2844 9.99375 10.2844 9.88125C10.2844 9.75 10.3281 9.65312 10.4156 9.59062C10.5094 9.52187 10.6188 9.4875 10.7438 9.4875C10.8938 9.4875 11.0688 9.55 11.2688 9.675C11.475 9.79375 11.6938 9.91562 11.925 10.0406C12.1625 10.1594 12.4063 10.2187 12.6563 10.2187C12.9563 10.2187 13.1781 10.1344 13.3219 9.96562C13.4719 9.79062 13.5469 9.56875 13.5469 9.3C13.5469 9.11875 13.5063 8.9375 13.425 8.75625C13.3438 8.575 13.2469 8.38437 13.1344 8.18437C13.3719 8.06562 13.6531 7.925 13.9781 7.7625C14.3031 7.59375 14.6344 7.40312 14.9719 7.19062C15.3156 6.97187 15.6313 6.73125 15.9188 6.46875C16.2063 6.20625 16.4313 5.92187 16.5938 5.61562C16.2938 5.06562 15.7188 4.625 14.8688 4.29375C14.0188 3.95625 13.0375 3.7875 11.925 3.7875C11.1188 3.7875 10.3375 3.89687 9.58125 4.11562C8.83125 4.33437 8.15625 4.62812 7.55625 4.99687C6.9625 5.36562 6.48125 5.775 6.1125 6.225C5.75 6.66875 5.55313 7.125 5.52188 7.59375C5.49688 8.05625 5.62813 8.525 5.91563 9C6.20313 9.46875 6.65938 9.975 7.28438 10.5187L8.63438 11.6812C8.85313 11.875 9.02188 12.0312 9.14063 12.15C9.25938 12.2625 9.31875 12.3781 9.31875 12.4969C9.31875 12.6281 9.27813 12.7531 9.19688 12.8719C9.12188 12.9844 9.04375 13.1031 8.9625 13.2281C8.8875 13.3531 8.85 13.5031 8.85 13.6781C8.85 14.1406 9.08438 14.5469 9.55313 14.8969C10.0656 15.2781 10.4531 15.5656 10.7156 15.7594C10.9844 15.9469 11.1656 16.0937 11.2594 16.2C11.3594 16.3 11.4094 16.4062 11.4094 16.5187C11.4156 16.825 11.3594 17.1062 11.2406 17.3625C11.1219 17.6125 11.0625 17.8781 11.0625 18.1594C11.0625 18.4156 11.1969 18.6594 11.4656 18.8906C11.7344 19.1219 12.0156 19.2375 12.3094 19.2375ZM11.9906 22.3312C13.3531 22.3312 14.6313 22.0719 15.825 21.5531C17.0188 21.0406 18.0688 20.3281 18.975 19.4156C19.8875 18.5094 20.6031 17.4594 21.1219 16.2656C21.6406 15.0719 21.9 13.7937 21.9 12.4312C21.9 11.075 21.6406 9.8 21.1219 8.60625C20.6031 7.4125 19.8875 6.35937 18.975 5.44687C18.0688 4.53437 17.0156 3.82187 15.8156 3.30937C14.6219 2.79063 13.3469 2.53125 11.9906 2.53125C10.6344 2.53125 9.35625 2.79063 8.15625 3.30937C6.9625 3.82187 5.90938 4.53437 4.99688 5.44687C4.09063 6.35937 3.37813 7.4125 2.85938 8.60625C2.34688 9.8 2.09063 11.075 2.09063 12.4312C2.09063 13.7937 2.34688 15.0719 2.85938 16.2656C3.37813 17.4594 4.09375 18.5094 5.00625 19.4156C5.91875 20.3281 6.97188 21.0406 8.16563 21.5531C9.35938 22.0719 10.6344 22.3312 11.9906 22.3312ZM11.9906 20.4281C10.8969 20.4281 9.86563 20.2187 8.89688 19.8C7.93438 19.3812 7.08438 18.8062 6.34688 18.075C5.61563 17.3375 5.04063 16.4875 4.62188 15.525C4.20938 14.5562 4.00313 13.525 4.00313 12.4312C4.00313 11.3375 4.20938 10.3094 4.62188 9.34687C5.04063 8.37812 5.61563 7.52812 6.34688 6.79687C7.08438 6.05937 7.93438 5.48125 8.89688 5.0625C9.86563 4.64375 10.8969 4.43437 11.9906 4.43437C13.0844 4.43437 14.1125 4.64375 15.075 5.0625C16.0438 5.48125 16.8969 6.05937 17.6344 6.79687C18.3719 7.52812 18.9469 8.37812 19.3594 9.34687C19.7781 10.3094 19.9875 11.3375 19.9875 12.4312C19.9875 13.525 19.7781 14.5562 19.3594 15.525C18.9469 16.4875 18.3719 17.3375 17.6344 18.075C16.8969 18.8062 16.0469 19.3812 15.0844 19.8C14.1219 20.2187 13.0906 20.4281 11.9906 20.4281Z" fill="black"/>
</g>
</svg>
