<svg width="24" height="24" viewBox="0 0 24 24" fill="none" xmlns="http://www.w3.org/2000/svg">
<g id="group">
<path id="Vector" d="M11.6583 20H16.4075H21.1567C21.7812 20 22.218 19.906 22.4668 19.7181C22.7206 19.5354 22.8476 19.2687 22.8476 18.9183C22.8476 18.4359 22.6978 15.6945 22.3982 15.1512C22.0986 14.6079 21.667 14.1026 21.1033 13.6354C20.5447 13.1632 19.8694 12.7798 19.0772 12.4853C18.285 12.1856 17.3938 12.0359 16.4037 12.0359C15.4185 12.0359 14.5299 12.1856 13.7377 12.4853C12.9455 12.7798 12.2677 13.1632 11.704 13.6354C11.1454 14.1026 10.7163 14.6079 10.4167 15.1512C10.1222 15.6945 9.97495 18.4359 9.97495 18.9183C9.97495 19.2687 10.0994 19.5354 10.3482 19.7181C10.597 19.906 11.0337 20 11.6583 20ZM16.4113 10.6876C16.9647 10.6876 17.4726 10.5379 17.9347 10.2383C18.4019 9.93868 18.7751 9.53498 19.0544 9.02719C19.3388 8.51431 19.4809 7.93796 19.4809 7.29814C19.4809 6.67863 19.3388 6.12005 19.0544 5.62241C18.7751 5.11969 18.4019 4.72361 17.9347 4.43416C17.4726 4.14472 16.9647 4 16.4113 4C15.8628 4 15.3551 4.14726 14.8879 4.44178C14.4207 4.7363 14.0449 5.13492 13.7606 5.63764C13.4812 6.13528 13.3416 6.69386 13.3416 7.31337C13.3416 7.94812 13.4812 8.51939 13.7606 9.02719C14.0398 9.53498 14.4105 9.93868 14.8726 10.2383C15.3398 10.5379 15.8527 10.6876 16.4113 10.6876ZM3.40914 20H9.11424C8.91112 19.7105 8.80956 19.3601 8.80956 18.9488C8.80956 18.5426 8.89334 15.885 9.06092 15.433C9.23356 14.9811 9.4773 14.5418 9.79215 14.1153C10.107 13.6836 10.4802 13.2978 10.9118 12.9575C10.4904 12.6884 10.0054 12.465 9.45699 12.2873C8.91365 12.1044 8.29668 12.013 7.60607 12.013C6.75298 12.013 5.98113 12.1527 5.29053 12.432C4.60499 12.7112 4.01596 13.0794 3.52339 13.5365C3.03591 13.9884 2.66014 14.4835 2.39608 15.0218C2.13203 15.5549 2 18.309 2 18.8269C2 19.1976 2.10664 19.4845 2.31991 19.6877C2.53319 19.8958 2.89626 20 3.40914 20ZM7.60607 10.8629C8.08848 10.8629 8.53281 10.7333 8.93904 10.4744C9.34528 10.2103 9.67027 9.85489 9.91401 9.40803C10.1578 8.96117 10.2796 8.46353 10.2796 7.91511C10.2796 7.36669 10.1578 6.87666 9.91401 6.44504C9.67027 6.00834 9.34275 5.66557 8.93142 5.41675C8.52519 5.16286 8.08341 5.0359 7.60607 5.0359C7.12875 5.0359 6.68696 5.1654 6.28073 5.42437C5.87449 5.67826 5.54696 6.02357 5.29814 6.46027C5.04932 6.89698 4.92745 7.38446 4.93253 7.92272C4.93253 8.47115 5.05439 8.96879 5.29814 9.41565C5.54188 9.85743 5.86687 10.2103 6.27311 10.4744C6.67935 10.7333 7.12367 10.8629 7.60607 10.8629Z" fill="black"/>
</g>
</svg>
