<svg width="24" height="24" viewBox="0 0 24 24" fill="none" xmlns="http://www.w3.org/2000/svg">
<g id="input">
<path id="path" d="M3.40277 4.36646C3.90895 3.87785 4.70198 3.87785 5.19129 4.36646L12.1935 11.1256C12.4305 11.3547 12.5636 11.6651 12.5636 11.9888C12.5636 12.3125 12.4305 12.623 12.1935 12.8521L5.19129 19.6112C5.07543 19.7312 4.93573 19.8275 4.7805 19.8943C4.62527 19.961 4.4577 19.9969 4.28779 19.9998C4.11787 20.0027 3.94909 19.9725 3.79152 19.9111C3.63395 19.8497 3.49081 19.7582 3.37064 19.6422C3.25048 19.5262 3.15575 19.3881 3.0921 19.236C3.02846 19.0838 2.9972 18.9209 3.0002 18.7569C3.00319 18.5929 3.04039 18.4311 3.10955 18.2813C3.17872 18.1315 3.27844 17.9966 3.40277 17.8848L9.51073 11.9888L3.40277 6.0929C3.16579 5.86386 3.03268 5.55339 3.03268 5.22968C3.03268 4.90597 3.16579 4.5955 3.40277 4.36646ZM11.8392 4.36646C12.3454 3.87785 13.1384 3.87785 13.6277 4.36646L20.6299 11.1256C20.8669 11.3547 21 11.6651 21 11.9888C21 12.3125 20.8669 12.623 20.6299 12.8521L13.6277 19.6112C13.5118 19.7312 13.3721 19.8275 13.2169 19.8943C13.0617 19.961 12.8941 19.9969 12.7242 19.9998C12.5543 20.0027 12.3855 19.9725 12.2279 19.9111C12.0704 19.8497 11.9272 19.7582 11.8071 19.6422C11.6869 19.5262 11.5922 19.3881 11.5285 19.236C11.4649 19.0838 11.4336 18.9209 11.4366 18.7569C11.4396 18.5929 11.4768 18.4311 11.546 18.2813C11.6151 18.1315 11.7148 17.9966 11.8392 17.8848L17.9471 11.9888L11.8392 6.0929C11.6022 5.86386 11.4691 5.55339 11.4691 5.22968C11.4691 4.90597 11.6022 4.5955 11.8392 4.36646Z" fill="black"/>
</g>
</svg>
