<svg width="24" height="24" viewBox="0 0 24 24" fill="none" xmlns="http://www.w3.org/2000/svg">
<g id="jump-to-definition">
<path id="Vector (Stroke)" fill-rule="evenodd" clip-rule="evenodd" d="M7.4828 6.21967C7.77569 5.92678 8.25056 5.92678 8.54346 6.21967L12.0738 9.75L8.54346 13.2803C8.25056 13.5732 7.77569 13.5732 7.4828 13.2803C7.1899 12.9874 7.1899 12.5126 7.4828 12.2197L9.20247 10.5H5.77213C5.26062 10.5 4.69488 10.7638 4.23807 11.2277C3.78134 11.6916 3.51384 12.275 3.50553 12.7979M3.50407 12.8343C3.50378 12.847 3.50345 12.8678 3.50312 12.8985C3.50245 12.9611 3.50187 13.0547 3.5014 13.1805C3.50047 13.4316 3.5 13.805 3.5 14.3012C3.5 15.2933 3.50187 16.7732 3.50562 18.7411C3.50641 19.1553 3.17127 19.4917 2.75705 19.4925C2.34284 19.4933 2.00642 19.1581 2.00563 18.7439C2.00188 16.7758 2 15.2947 2 14.3012C2 13.8046 2.00047 13.4289 2.00141 13.175C2.00188 13.0482 2.00248 12.9503 2.00321 12.8823C2.00357 12.8487 2.00399 12.8199 2.00451 12.7977C2.00477 12.787 2.00513 12.7741 2.0057 12.7613C2.0057 12.7613 2.00595 12.7559 2.00614 12.7523C2.02852 11.7728 2.50807 10.8469 3.16918 10.1754C3.83512 9.49898 4.76563 9 5.77213 9H9.20247L7.4828 7.28033C7.1899 6.98744 7.1899 6.51256 7.4828 6.21967M13.2631 6.75C13.2631 6.33579 13.5989 6 14.0131 6H21.5131C21.9273 6 22.2631 6.33579 22.2631 6.75C22.2631 7.16421 21.9273 7.5 21.5131 7.5H14.0131C13.5989 7.5 13.2631 7.16421 13.2631 6.75ZM14.7631 9.75C14.7631 9.33579 15.0989 9 15.5131 9H21.5131C21.9273 9 22.2631 9.33579 22.2631 9.75C22.2631 10.1642 21.9273 10.5 21.5131 10.5H15.5131C15.0989 10.5 14.7631 10.1642 14.7631 9.75ZM13.2631 12.75C13.2631 12.3358 13.5989 12 14.0131 12H21.5131C21.9273 12 22.2631 12.3358 22.2631 12.75C22.2631 13.1642 21.9273 13.5 21.5131 13.5H14.0131C13.5989 13.5 13.2631 13.1642 13.2631 12.75Z" fill="black"/>
</g>
</svg>
