<svg width="24" height="24" viewBox="0 0 24 24" fill="none" xmlns="http://www.w3.org/2000/svg">
<g id="keyboard">
<path id="path" d="M20.44 6.16V16.96H3.16V6.16H20.44ZM20.44 4H3.16C1.972 4 1.0108 4.972 1.0108 6.16L1 16.96C1 18.148 1.972 19.12 3.16 19.12H20.44C21.628 19.12 22.6 18.148 22.6 16.96V6.16C22.6 4.972 21.628 4 20.44 4ZM10.72 7.24H12.88V9.4H10.72V7.24ZM10.72 10.48H12.88V12.64H10.72V10.48ZM7.48 7.24H9.64V9.4H7.48V7.24ZM7.48 10.48H9.64V12.64H7.48V10.48ZM4.24 10.48H6.4V12.64H4.24V10.48ZM4.24 7.24H6.4V9.4H4.24V7.24ZM7.48 13.72H16.12V15.88H7.48V13.72ZM13.96 10.48H16.12V12.64H13.96V10.48ZM13.96 7.24H16.12V9.4H13.96V7.24ZM17.2 10.48H19.36V12.64H17.2V10.48ZM17.2 7.24H19.36V9.4H17.2V7.24Z" fill="black"/>
</g>
</svg>
