<svg width="24" height="24" viewBox="0 0 24 24" fill="none" xmlns="http://www.w3.org/2000/svg">
<g id="link">
<path id="Vector" d="M3.252 12.23C3.252 10.3832 4.7532 8.88199 6.6 8.88199H10.92V6.82999H6.6C3.6192 6.82999 1.2 9.24919 1.2 12.23C1.2 15.2108 3.6192 17.63 6.6 17.63H10.92V15.578H6.6C4.7532 15.578 3.252 14.0768 3.252 12.23ZM7.68 13.31H16.32V11.15H7.68V13.31ZM17.4 6.82999H13.08V8.88199H17.4C19.2468 8.88199 20.748 10.3832 20.748 12.23C20.748 14.0768 19.2468 15.578 17.4 15.578H13.08V17.63H17.4C20.3808 17.63 22.8 15.2108 22.8 12.23C22.8 9.24919 20.3808 6.82999 17.4 6.82999Z" fill="black"/>
</g>
</svg>
