<svg width="24" height="24" viewBox="0 0 24 24" fill="none" xmlns="http://www.w3.org/2000/svg">
<g id="lock">
<path id="&#244;&#128;&#142;&#161;" d="M6.99219 21.7227H16.6244C17.2951 21.7227 17.7932 21.55 18.1186 21.2047C18.4506 20.866 18.6166 20.3348 18.6166 19.6109V12.1701C18.6166 11.4529 18.4506 10.925 18.1186 10.5863C17.7932 10.241 17.2951 10.0684 16.6244 10.0684L7.15156 10.0883C6.49414 10.0883 5.96953 10.2576 5.57773 10.5963C5.19258 10.935 5 11.4596 5 12.1701V19.6109C5 20.3348 5.16602 20.866 5.49805 21.2047C5.83008 21.55 6.32812 21.7227 6.99219 21.7227ZM6.64355 10.7756H8.53613V7.42871C8.53613 6.64512 8.68555 5.9877 8.98438 5.45645C9.2832 4.91855 9.68164 4.51348 10.1797 4.24121C10.6777 3.9623 11.2223 3.82285 11.8133 3.82285C12.4043 3.82285 12.9455 3.9623 13.4369 4.24121C13.935 4.51348 14.3334 4.91855 14.6322 5.45645C14.9311 5.9877 15.0805 6.64512 15.0805 7.42871V10.7756H16.973V7.61797C16.973 6.675 16.8303 5.85156 16.5447 5.14766C16.2592 4.44375 15.8707 3.85938 15.3793 3.39453C14.8945 2.92969 14.3434 2.58105 13.7258 2.34863C13.1082 2.11621 12.4707 2 11.8133 2C11.1492 2 10.5084 2.11621 9.89082 2.34863C9.27988 2.58105 8.72871 2.92969 8.2373 3.39453C7.75254 3.85938 7.36406 4.44375 7.07188 5.14766C6.78633 5.85156 6.64355 6.675 6.64355 7.61797V10.7756Z" fill="black"/>
</g>
</svg>
