<svg width="24" height="24" viewBox="0 0 24 24" fill="none" xmlns="http://www.w3.org/2000/svg">
<g id="pause">
<path id="path" d="M9 15H11V9H9V15ZM13 15H15V9H13V15ZM12 22C10.6167 22 9.31667 21.7373 8.1 21.212C6.88333 20.6873 5.825 19.975 4.925 19.075C4.025 18.175 3.31267 17.1167 2.788 15.9C2.26267 14.6833 2 13.3833 2 12C2 11.2833 2.075 10.579 2.225 9.887C2.375 9.19567 2.59167 8.525 2.875 7.875L4.425 9.425C4.29167 9.85833 4.18767 10.2873 4.113 10.712C4.03767 11.1373 4 11.5667 4 12C4 14.2333 4.775 16.125 6.325 17.675C7.875 19.225 9.76667 20 12 20C14.2333 20 16.125 19.225 17.675 17.675C19.225 16.125 20 14.2333 20 12C20 9.76667 19.225 7.875 17.675 6.325C16.125 4.775 14.2333 4 12 4C11.55 4 11.1127 4.03733 10.688 4.112C10.2627 4.18733 9.84167 4.29167 9.425 4.425L7.9 2.9C8.56667 2.6 9.23333 2.375 9.9 2.225C10.5667 2.075 11.2667 2 12 2C13.3833 2 14.6833 2.26233 15.9 2.787C17.1167 3.31233 18.175 4.025 19.075 4.925C19.975 5.825 20.6873 6.88333 21.212 8.1C21.7373 9.31667 22 10.6167 22 12C22 13.3833 21.7373 14.6833 21.212 15.9C20.6873 17.1167 19.975 18.175 19.075 19.075C18.175 19.975 17.1167 20.6873 15.9 21.212C14.6833 21.7373 13.3833 22 12 22ZM5.5 7C5.08333 7 4.72933 6.854 4.438 6.562C4.146 6.27067 4 5.91667 4 5.5C4 5.08333 4.146 4.72933 4.438 4.438C4.72933 4.146 5.08333 4 5.5 4C5.91667 4 6.27067 4.146 6.562 4.438C6.854 4.72933 7 5.08333 7 5.5C7 5.91667 6.854 6.27067 6.562 6.562C6.27067 6.854 5.91667 7 5.5 7ZM6 12C6 10.3333 6.58333 8.91667 7.75 7.75C8.91667 6.58333 10.3333 6 12 6C13.6667 6 15.0833 6.58333 16.25 7.75C17.4167 8.91667 18 10.3333 18 12C18 13.6667 17.4167 15.0833 16.25 16.25C15.0833 17.4167 13.6667 18 12 18C10.3333 18 8.91667 17.4167 7.75 16.25C6.58333 15.0833 6 13.6667 6 12Z" fill="black"/>
</g>
</svg>
