<svg width="24" height="24" viewBox="0 0 24 24" fill="none" xmlns="http://www.w3.org/2000/svg">
<g id="piechart">
<path id="path" fill-rule="evenodd" clip-rule="evenodd" d="M19.5072 12.0411C19.5111 13.3857 19.1609 14.7075 18.492 15.8739L16.2772 14.6036C16.7232 13.8261 16.9566 12.9448 16.954 12.0484C16.9514 11.1521 16.713 10.2722 16.2626 9.49721C15.8122 8.72222 15.1657 8.07944 14.3881 7.63349C13.6106 7.18753 12.7293 6.95411 11.833 6.95667L11.8257 4.40347C13.1702 4.39962 14.4921 4.74976 15.6584 5.41869C16.8247 6.08763 17.7944 7.05179 18.47 8.21427C19.1457 9.37675 19.5034 10.6966 19.5072 12.0411ZM8.03648 18.7076C6.87015 18.0387 5.90045 17.0745 5.22484 15.912L7.43232 14.6291C7.88272 15.4041 8.52919 16.0469 9.30675 16.4928C10.0843 16.9388 10.9655 17.1722 11.8619 17.1696C12.7583 17.1671 13.6382 16.9286 14.4131 16.4782C15.1881 16.0278 15.8309 15.3813 16.2769 14.6038L18.4917 15.874C17.8227 17.0404 16.8586 18.0101 15.6961 18.6857C14.5336 19.3613 13.2138 19.719 11.8692 19.7228C10.5247 19.7267 9.20281 19.3765 8.03648 18.7076Z" fill="#38383D"/>
</g>
</svg>
