<svg width="24" height="24" viewBox="0 0 24 24" fill="none" xmlns="http://www.w3.org/2000/svg">
<g id="questionmark-circle">
<path id="Vector" d="M11.6844 21.3688C13.0094 21.3688 14.2562 21.1157 15.425 20.6094C16.5937 20.1094 17.625 19.4125 18.5187 18.5188C19.4125 17.625 20.1125 16.5937 20.6187 15.425C21.125 14.2562 21.3781 13.0093 21.3781 11.6844C21.3781 10.3594 21.125 9.11251 20.6187 7.94376C20.1125 6.775 19.4125 5.74688 18.5187 4.85938C17.625 3.96562 16.5937 3.26563 15.425 2.75938C14.2562 2.25313 13.0063 2 11.675 2C10.35 2 9.10312 2.25313 7.93437 2.75938C6.77187 3.26563 5.74375 3.96562 4.85 4.85938C3.96249 5.74688 3.26562 6.775 2.75937 7.94376C2.25312 9.11251 2 10.3594 2 11.6844C2 13.0093 2.25312 14.2562 2.75937 15.425C3.26562 16.5937 3.96249 17.625 4.85 18.5188C5.74375 19.4125 6.77499 20.1094 7.94374 20.6094C9.1125 21.1157 10.3594 21.3688 11.6844 21.3688ZM11.6844 19.4562C10.6094 19.4562 9.6 19.2563 8.65624 18.8562C7.71874 18.4562 6.89374 17.9 6.18124 17.1875C5.475 16.475 4.92187 15.65 4.52187 14.7125C4.12186 13.775 3.92187 12.7656 3.92187 11.6844C3.92187 10.6094 4.12186 9.60313 4.52187 8.66563C4.92187 7.72188 5.475 6.89376 6.18124 6.18126C6.88749 5.46876 7.70937 4.91251 8.64687 4.5125C9.59062 4.1125 10.6 3.9125 11.675 3.9125C12.7562 3.9125 13.7657 4.1125 14.7031 4.5125C15.6407 4.91251 16.4657 5.46876 17.1781 6.18126C17.8969 6.89376 18.4562 7.72188 18.8563 8.66563C19.2563 9.60313 19.4563 10.6094 19.4563 11.6844C19.4563 12.7656 19.2563 13.775 18.8563 14.7125C18.4562 15.65 17.9 16.475 17.1875 17.1875C16.4813 17.9 15.6563 18.4562 14.7125 18.8562C13.775 19.2563 12.7656 19.4562 11.6844 19.4562ZM11.4781 13.55C11.7344 13.55 11.9375 13.4844 12.0875 13.3531C12.2437 13.2218 12.3281 13.0625 12.3407 12.875C12.3469 12.8562 12.35 12.8375 12.35 12.8188C12.35 12.7938 12.35 12.775 12.35 12.7625C12.3625 12.5188 12.45 12.3062 12.6125 12.125C12.7749 11.9437 13.0125 11.7532 13.325 11.5531C13.7813 11.2469 14.1469 10.9344 14.4218 10.6156C14.7031 10.2969 14.8437 9.86251 14.8437 9.3125C14.8437 8.79375 14.7031 8.35312 14.4218 7.99063C14.1407 7.62813 13.7657 7.35001 13.2968 7.15626C12.8343 6.9625 12.3281 6.86563 11.7781 6.86563C10.9719 6.86563 10.3062 7.025 9.78124 7.34376C9.2625 7.6625 8.93125 8.04063 8.78749 8.47813C8.75624 8.55938 8.73124 8.64063 8.71249 8.72187C8.7 8.79687 8.69374 8.87812 8.69374 8.96563C8.69374 9.19063 8.76874 9.36876 8.91874 9.5C9.06874 9.63126 9.24062 9.69687 9.43437 9.69687C9.60312 9.69687 9.74686 9.6625 9.86562 9.59376C9.99062 9.52501 10.0969 9.43125 10.1844 9.3125L10.3344 9.11563C10.4406 8.94687 10.5594 8.80626 10.6906 8.69376C10.8281 8.575 10.975 8.48438 11.1312 8.42187C11.2937 8.35938 11.4687 8.32813 11.6562 8.32813C12.0375 8.32813 12.3438 8.43126 12.575 8.6375C12.8125 8.8375 12.9312 9.09687 12.9312 9.41563C12.9312 9.70938 12.8312 9.95313 12.6312 10.1469C12.4375 10.3406 12.1406 10.575 11.7407 10.85C11.4031 11.0813 11.125 11.3312 10.9062 11.6C10.6937 11.8687 10.5875 12.2188 10.5875 12.65C10.5875 12.6625 10.5875 12.6781 10.5875 12.6968C10.5875 12.7157 10.5875 12.7344 10.5875 12.7531C10.5875 13.2844 10.8844 13.55 11.4781 13.55ZM11.4594 16.4281C11.7656 16.4281 12.0249 16.3313 12.2375 16.1375C12.45 15.9438 12.5563 15.6968 12.5563 15.3968C12.5563 15.0968 12.45 14.85 12.2375 14.6562C12.0249 14.4625 11.7656 14.3657 11.4594 14.3657C11.1531 14.3657 10.8937 14.4656 10.6812 14.6657C10.4687 14.8594 10.3625 15.1031 10.3625 15.3968C10.3625 15.6906 10.4687 15.9374 10.6812 16.1375C10.9 16.3313 11.1594 16.4281 11.4594 16.4281Z" fill="#38383D"/>
</g>
</svg>
