<svg width="24" height="24" viewBox="0 0 24 24" fill="none" xmlns="http://www.w3.org/2000/svg">
<g id="replay-logo">
<path id="path" fill-rule="evenodd" clip-rule="evenodd" d="M12.2284 5.46018L5.14689 1.33631C4.99333 1.24696 4.81916 1.19995 4.64188 1.2C4.46458 1.20002 4.29043 1.24711 4.1369 1.33651C3.98339 1.42591 3.85587 1.5545 3.76721 1.70934C3.67853 1.86417 3.63183 2.03982 3.63176 2.21864V10.4663C3.63181 10.6451 3.67853 10.8207 3.76719 10.9756C3.85585 11.1304 3.98337 11.259 4.1369 11.3484C4.29043 11.4379 4.46458 11.4849 4.64186 11.485C4.81916 11.485 4.99333 11.438 5.14689 11.3486L12.2284 7.22481C12.382 7.13541 12.5095 7.00679 12.5982 6.85191C12.6868 6.69703 12.7335 6.52134 12.7335 6.3425C12.7335 6.16367 12.6868 5.98797 12.5982 5.8331C12.5095 5.6782 12.382 5.5496 12.2284 5.46018ZM12.1967 16.9431L5.11512 12.8193C4.96157 12.73 4.78739 12.6829 4.6101 12.683C4.43282 12.683 4.25867 12.7301 4.10513 12.8195C3.9516 12.9089 3.82409 13.0375 3.73543 13.1924C3.64677 13.3472 3.60004 13.5228 3.6 13.7016V21.9492C3.60004 22.128 3.64677 22.3037 3.73543 22.4585C3.82409 22.6135 3.9516 22.7421 4.10513 22.8314C4.25867 22.9208 4.43282 22.9678 4.6101 22.968C4.78739 22.968 4.96157 22.921 5.11512 22.8316L12.1967 18.7079C12.3502 18.6183 12.4778 18.4897 12.5664 18.3349C12.6551 18.1801 12.7018 18.0043 12.7018 17.8254C12.7018 17.6465 12.6551 17.4709 12.5664 17.3161C12.4778 17.1613 12.3502 17.0325 12.1967 16.9431ZM15.2133 7.07787L22.295 11.2017C22.4485 11.2911 22.576 11.4197 22.6647 11.5746C22.7534 11.7295 22.8 11.9052 22.8 12.084C22.8 12.2629 22.7534 12.4385 22.6647 12.5934C22.576 12.7483 22.4485 12.8769 22.295 12.9663L15.2133 17.0901C15.0598 17.1795 14.8857 17.2265 14.7083 17.2265C14.5312 17.2265 14.3571 17.1793 14.2034 17.0899C14.0499 17.0006 13.9224 16.872 13.8337 16.7172C13.7451 16.5624 13.6983 16.3865 13.6983 16.2079V7.96019C13.6983 7.78138 13.7451 7.60573 13.8337 7.45089C13.9224 7.29606 14.0499 7.16746 14.2034 7.07806C14.3571 6.98867 14.5312 6.94157 14.7083 6.94153C14.8857 6.94151 15.0598 6.98851 15.2133 7.07787Z" fill="#38383D"/>
</g>
</svg>
