<svg width="24" height="24" viewBox="0 0 24 24" fill="none" xmlns="http://www.w3.org/2000/svg">
<g id="research">
<path id="path" d="M5 21V19H10V17C8.61667 17 7.43767 16.5123 6.463 15.537C5.48767 14.5623 5 13.3833 5 12C5 10.9833 5.27933 10.0583 5.838 9.22499C6.396 8.39166 7.15 7.78332 8.1 7.39999C8.23333 6.83332 8.52933 6.37499 8.988 6.02499C9.446 5.67499 9.96667 5.49999 10.55 5.49999L10 3.94999L10.95 3.59999L10.6 2.69999L12.5 1.99999L12.8 2.94999L13.75 2.59999L16.5 10.1L15.55 10.45L15.9 11.4L14 12.1L13.7 11.15L12.75 11.5L12.15 9.84999C11.9 10.0833 11.6127 10.2583 11.288 10.375C10.9627 10.4917 10.6333 10.5333 10.3 10.5C9.93333 10.4667 9.59167 10.354 9.275 10.162C8.95833 9.97065 8.68333 9.73332 8.45 9.44999C8 9.71666 7.646 10.075 7.388 10.525C7.12933 10.975 7 11.4667 7 12C7 12.8333 7.29167 13.5417 7.875 14.125C8.45833 14.7083 9.16667 15 10 15H18V17H13V19H19V21H5ZM13.65 9.54999L14.55 9.19999L12.85 4.49999L11.9 4.84999L13.65 9.54999ZM10.5 8.99999C10.7833 8.99999 11.021 8.90399 11.213 8.71199C11.4043 8.52066 11.5 8.28332 11.5 7.99999C11.5 7.71666 11.4043 7.47899 11.213 7.28699C11.021 7.09566 10.7833 6.99999 10.5 6.99999C10.2167 6.99999 9.97933 7.09566 9.788 7.28699C9.596 7.47899 9.5 7.71666 9.5 7.99999C9.5 8.28332 9.596 8.52066 9.788 8.71199C9.97933 8.90399 10.2167 8.99999 10.5 8.99999Z" fill="black"/>
</g>
</svg>
