<svg width="24" height="24" viewBox="0 0 24 24" fill="none" xmlns="http://www.w3.org/2000/svg">
<g id="resolved">
<path id="&#244;&#128;&#178;&#174;" d="M14.9818 7.39297C15.1393 7.39297 15.2231 7.31172 15.2332 7.14922C15.2891 6.70742 15.3449 6.36211 15.4008 6.11328C15.4617 5.86445 15.5557 5.67656 15.6826 5.54961C15.8147 5.42266 16.0076 5.32617 16.2615 5.26016C16.5205 5.18906 16.8734 5.11797 17.3203 5.04687C17.493 5.02656 17.5793 4.94531 17.5793 4.80312C17.5793 4.66094 17.5031 4.57969 17.3508 4.55937C16.8988 4.47305 16.5434 4.39687 16.2844 4.33086C16.0254 4.25977 15.8273 4.16328 15.6902 4.04141C15.5582 3.91445 15.4617 3.7291 15.4008 3.48535C15.3449 3.2416 15.2891 2.89883 15.2332 2.45703C15.218 2.29961 15.1342 2.2209 14.9818 2.2209C14.8346 2.2209 14.7559 2.29707 14.7457 2.44941C14.6848 2.89629 14.6238 3.24922 14.5629 3.5082C14.502 3.76211 14.408 3.95508 14.2811 4.08711C14.1541 4.21406 13.9586 4.30801 13.6945 4.36895C13.4356 4.42988 13.0775 4.49336 12.6205 4.55937C12.5545 4.56445 12.4986 4.58984 12.4529 4.63555C12.4123 4.68125 12.392 4.73711 12.392 4.80312C12.392 4.94531 12.4682 5.02656 12.6205 5.04687C13.0775 5.13828 13.4356 5.21953 13.6945 5.29062C13.9586 5.36172 14.1541 5.46074 14.2811 5.5877C14.408 5.70957 14.502 5.89492 14.5629 6.14375C14.6238 6.3875 14.6848 6.72773 14.7457 7.16445C14.7508 7.23047 14.7762 7.28633 14.8219 7.33203C14.8676 7.37266 14.9209 7.39297 14.9818 7.39297ZM9.69551 5.35156C9.79708 5.35156 9.85801 5.29824 9.87833 5.1916C9.94434 4.8209 10.0053 4.5543 10.0611 4.3918C10.1221 4.2293 10.2338 4.11758 10.3963 4.05664C10.5588 3.9957 10.8279 3.92969 11.2037 3.85859C11.3205 3.8332 11.3789 3.77227 11.3789 3.67578C11.3789 3.57422 11.3231 3.51074 11.2113 3.48535C10.927 3.42949 10.7061 3.37871 10.5486 3.33301C10.3912 3.2873 10.2744 3.22637 10.1982 3.1502C10.1221 3.06895 10.0637 2.95215 10.0231 2.7998C9.98243 2.64746 9.93419 2.43418 9.87833 2.15996C9.85801 2.05332 9.79708 2 9.69551 2C9.59395 2 9.53301 2.05332 9.5127 2.15996C9.45684 2.43418 9.4086 2.65 9.36797 2.80742C9.32735 2.95977 9.26641 3.07656 9.18516 3.15781C9.10899 3.23906 8.99219 3.30254 8.83477 3.34824C8.68243 3.38887 8.46407 3.43457 8.17969 3.48535C8.06797 3.51074 8.01212 3.57422 8.01212 3.67578C8.01212 3.77227 8.06797 3.8332 8.17969 3.85859C8.46407 3.91445 8.68497 3.96523 8.84239 4.01094C8.99981 4.05664 9.11661 4.11758 9.19278 4.19375C9.26895 4.26992 9.32735 4.38672 9.36797 4.54414C9.41368 4.70156 9.46192 4.91738 9.5127 5.1916C9.53301 5.29824 9.59395 5.35156 9.69551 5.35156ZM5.22422 22.673C5.3461 22.673 5.41719 22.607 5.43751 22.475C5.50352 22.1043 5.56446 21.8123 5.62032 21.599C5.67618 21.3908 5.75489 21.2309 5.85645 21.1191C5.96309 21.0125 6.12305 20.9287 6.33633 20.8678C6.55469 20.8068 6.85938 20.7408 7.2504 20.6697C7.38243 20.6393 7.44844 20.5656 7.44844 20.4488C7.44844 20.332 7.38497 20.2609 7.25801 20.2355C6.867 20.1594 6.56485 20.0883 6.35157 20.0223C6.13829 19.9562 5.97833 19.8699 5.87169 19.7633C5.76504 19.6566 5.68379 19.4992 5.62794 19.291C5.57715 19.0828 5.51368 18.7934 5.43751 18.4227C5.41719 18.2906 5.3461 18.2246 5.22422 18.2246C5.11251 18.2246 5.03887 18.2906 5.00333 18.4227C4.93223 18.7934 4.86876 19.0828 4.8129 19.291C4.76212 19.5043 4.6834 19.6643 4.57676 19.7709C4.4752 19.8826 4.31778 19.9689 4.1045 20.0299C3.89122 20.0959 3.58907 20.1645 3.19805 20.2355C3.06602 20.2559 3.00001 20.327 3.00001 20.4488C3.00001 20.5656 3.06602 20.6393 3.19805 20.6697C3.58907 20.7459 3.89122 20.8145 4.1045 20.8754C4.32286 20.9414 4.48536 21.0277 4.592 21.1344C4.69864 21.2461 4.77735 21.4061 4.82813 21.6143C4.87891 21.8225 4.93731 22.1119 5.00333 22.4826C5.03887 22.6096 5.11251 22.673 5.22422 22.673ZM17.2898 20.4031C18.2852 19.4129 18.8615 18.3059 19.0189 17.082C19.1814 15.8582 18.925 14.5379 18.2496 13.1211L16.5205 9.46484C16.3936 9.1957 16.2412 8.97227 16.0635 8.79453C15.7588 8.48984 15.4033 8.34004 14.9971 8.34512C14.5959 8.34512 14.2455 8.5 13.9459 8.80977C13.7529 8.99766 13.6285 9.22871 13.5727 9.50293C13.5168 9.77207 13.5473 10.059 13.6641 10.3637L14.083 11.3691C14.0982 11.3996 14.0957 11.425 14.0754 11.4453C14.05 11.4707 14.0221 11.4682 13.9916 11.4377L9.84786 7.29394C9.50762 6.95371 9.13438 6.78359 8.72813 6.78359C8.32188 6.78359 7.95626 6.94863 7.63126 7.27871C7.52461 7.38027 7.44083 7.49453 7.37989 7.62148C7.31895 7.74336 7.28594 7.87031 7.28086 8.00234C6.95079 7.78398 6.61817 7.6875 6.28301 7.71289C5.94786 7.73828 5.64063 7.89062 5.36133 8.16992C5.09219 8.43906 4.94239 8.74375 4.91192 9.08398C4.88653 9.42422 4.97794 9.7543 5.18614 10.0742C4.93223 10.0895 4.70879 10.1936 4.51583 10.3865C4.20606 10.6963 4.05372 11.0441 4.05879 11.4301C4.06895 11.816 4.23145 12.1689 4.54629 12.4889L5.05665 12.9916C4.92462 12.9967 4.79258 13.0297 4.66055 13.0906C4.5336 13.1465 4.41934 13.2277 4.31778 13.3344C4.00801 13.6391 3.85821 13.9945 3.86837 14.4008C3.87852 14.802 4.04864 15.1625 4.37872 15.4824L9.09376 20.1975C9.95704 21.0658 10.8686 21.6473 11.8283 21.9418C12.7932 22.2414 13.7453 22.2592 14.6848 21.9951C15.6242 21.7361 16.4926 21.2055 17.2898 20.4031ZM16.3529 19.5271C15.7131 20.1721 15.0275 20.5936 14.2963 20.7916C13.565 20.9896 12.8211 20.9617 12.0645 20.7078C11.3129 20.4539 10.5791 19.9664 9.86309 19.2453L5.33848 14.7283C5.23692 14.6217 5.1836 14.5074 5.17852 14.3855C5.17852 14.2586 5.22676 14.1443 5.32325 14.0428C5.42481 13.9463 5.53907 13.898 5.66602 13.898C5.79805 13.898 5.91485 13.9488 6.01641 14.0504L8.78145 16.8307C8.89825 16.9424 9.03282 16.9957 9.18516 16.9906C9.33751 16.9805 9.467 16.9246 9.57364 16.823C9.68028 16.7113 9.73614 16.5793 9.74122 16.427C9.75137 16.2746 9.69805 16.14 9.58126 16.0232L5.42989 11.8643C5.32325 11.7627 5.26739 11.651 5.26231 11.5291C5.26231 11.4021 5.31055 11.2879 5.40704 11.1863C5.5086 11.0898 5.62286 11.0416 5.74981 11.0416C5.88184 11.0416 6.00118 11.0924 6.10782 11.1939L9.97735 15.0711C10.0891 15.1879 10.2211 15.2437 10.3734 15.2387C10.5309 15.2285 10.6629 15.1701 10.7695 15.0635C10.8762 14.9568 10.932 14.8273 10.9371 14.675C10.9473 14.5227 10.8965 14.3881 10.7848 14.2713L6.22208 9.70859C6.11544 9.60703 6.06211 9.49277 6.06211 9.36582C6.06211 9.23887 6.11036 9.12461 6.20684 9.02305C6.30333 8.92148 6.41504 8.87324 6.542 8.87832C6.67403 8.8834 6.79083 8.93672 6.89239 9.03828L11.3941 13.54C11.5008 13.6467 11.6303 13.7 11.7826 13.7C11.935 13.6949 12.067 13.6391 12.1787 13.5324C12.2904 13.4207 12.3488 13.2887 12.3539 13.1363C12.359 12.9789 12.3031 12.8469 12.1863 12.7402L8.37774 8.91641C8.2711 8.81484 8.21524 8.70059 8.21016 8.57363C8.21016 8.44668 8.26094 8.33496 8.36251 8.23848C8.46407 8.13691 8.57833 8.08867 8.70528 8.09375C8.83223 8.09375 8.94649 8.14453 9.04805 8.24609L14.4182 13.6162C14.5705 13.7686 14.7305 13.8422 14.8981 13.8371C15.0707 13.832 15.2205 13.766 15.3475 13.6391C15.4541 13.5324 15.5252 13.4055 15.5607 13.2582C15.5963 13.1059 15.5734 12.9281 15.4922 12.725L14.54 10.2113C14.4791 10.059 14.4715 9.92441 14.5172 9.80762C14.568 9.69082 14.6518 9.60449 14.7686 9.54863C14.8955 9.49277 15.0123 9.49277 15.1189 9.54863C15.2307 9.59941 15.3246 9.70605 15.4008 9.86855L17.1604 13.6391C17.7494 14.8883 17.9576 15.9877 17.785 16.9373C17.6123 17.8869 17.135 18.7502 16.3529 19.5271ZM9.84024 6.66934C9.7336 6.7709 9.64981 6.88262 9.58887 7.00449C9.53301 7.12637 9.49747 7.25332 9.48223 7.38535L10.5563 8.37559C10.4547 8.25879 10.4014 8.13184 10.3963 7.99473C10.3963 7.85762 10.4471 7.73828 10.5486 7.63672C10.6553 7.53008 10.7746 7.4793 10.9066 7.48437C11.0387 7.48945 11.158 7.54785 11.2647 7.65957L13.7402 10.1275L14.5096 9.14492L12.0492 6.68457C11.709 6.34434 11.3383 6.17676 10.9371 6.18184C10.5359 6.18184 10.1703 6.34434 9.84024 6.66934ZM19.3998 19.8395C20.3951 18.8441 20.974 17.7371 21.1365 16.5184C21.299 15.2945 21.0426 13.9717 20.3672 12.5498L18.6305 8.88594C18.4629 8.53555 18.242 8.26387 17.9678 8.0709C17.6936 7.87285 17.3889 7.77383 17.0537 7.77383C16.9318 7.77383 16.7897 7.79668 16.6272 7.84238C16.4697 7.88809 16.3148 7.9668 16.1625 8.07852C16.0152 8.18516 15.8934 8.32988 15.7969 8.51269C15.7004 8.69551 15.6522 8.92148 15.6522 9.19062C15.6522 9.27695 15.6547 9.35566 15.6598 9.42676L16.6576 9.77715C16.6119 9.67559 16.5891 9.57402 16.5891 9.47246C16.5891 9.36074 16.6322 9.25918 16.7186 9.16777C16.8049 9.07637 16.9217 9.03066 17.069 9.03066C17.2772 9.03066 17.4371 9.14746 17.5488 9.38105L19.2779 13.0678C19.8568 14.3119 20.06 15.4113 19.8873 16.366C19.7197 17.3156 19.2449 18.1764 18.4629 18.9482C17.7926 19.6186 17.0816 20.0426 16.3301 20.2203L14.9514 21.5076C15.7334 21.6143 16.5053 21.5279 17.267 21.2486C18.0287 20.9693 18.7397 20.4996 19.3998 19.8395Z" fill="#38383D"/>
</g>
</svg>
