<svg width="24" height="24" viewBox="0 0 24 24" fill="none" xmlns="http://www.w3.org/2000/svg">
<g id="reverse-step-over">
<path id="path" fill-rule="evenodd" clip-rule="evenodd" d="M4.05512 10.3658C4.05491 10.3665 4.05471 10.3673 4.0545 10.368H4.056L4.05512 10.3658ZM12.903 3.75C8.75031 3.75 5.10892 6.5839 4.05512 10.3658L2.196 5.721C2.1608 5.62761 2.10731 5.54219 2.03868 5.46973C1.97004 5.39728 1.88763 5.33925 1.79628 5.29906C1.70493 5.25886 1.60647 5.2373 1.50669 5.23563C1.40689 5.23397 1.30778 5.25225 1.21514 5.28938C1.1225 5.32652 1.03821 5.38177 0.967197 5.45189C0.896187 5.52202 0.839886 5.60562 0.801596 5.69779C0.763306 5.78995 0.743795 5.88883 0.744207 5.98864C0.744621 6.08844 0.76495 6.18715 0.804003 6.279L3.804 13.779C3.81299 13.801 3.823 13.8225 3.834 13.8435C3.86107 13.9434 3.9085 14.0366 3.97333 14.1172C4.03816 14.1979 4.11897 14.2642 4.21069 14.3121C4.3024 14.36 4.40304 14.3884 4.50627 14.3955C4.60949 14.4027 4.71308 14.3884 4.8105 14.3535L11.5035 11.9565C11.6909 11.8893 11.8439 11.7504 11.9288 11.5703C12.0138 11.3903 12.0237 11.1839 11.9565 10.9965C11.8893 10.8091 11.7504 10.6561 11.5703 10.5712C11.3903 10.4862 11.1839 10.4763 10.9965 10.5435L5.25 12.603V12.597C5.25 8.604 8.778 5.25 12.903 5.25C14.8515 5.25 16.7203 6.02406 18.0981 7.40189C19.4759 8.77972 20.25 10.6485 20.25 12.597C20.25 12.7959 20.329 12.9867 20.4697 13.1273C20.6103 13.268 20.8011 13.347 21 13.347C21.1989 13.347 21.3897 13.268 21.5303 13.1273C21.671 12.9867 21.75 12.7959 21.75 12.597C21.75 10.2506 20.8179 8.00036 19.1588 6.34123C17.4996 4.68209 15.2494 3.75 12.903 3.75ZM12 18C12 18.8284 12.6716 19.5 13.5 19.5C14.3284 19.5 15 18.8284 15 18C15 17.1716 14.3284 16.5 13.5 16.5C12.6716 16.5 12 17.1716 12 18Z" fill="black"/>
</g>
</svg>
