<svg width="24" height="24" viewBox="0 0 24 24" fill="none" xmlns="http://www.w3.org/2000/svg">
<g id="settings">
<path id="path" d="M9.25 22L8.85 18.8C8.63333 18.7167 8.42933 18.6167 8.238 18.5C8.046 18.3833 7.85833 18.2583 7.675 18.125L4.7 19.375L1.95 14.625L4.525 12.675C4.50833 12.5583 4.5 12.4457 4.5 12.337V11.662C4.5 11.554 4.50833 11.4417 4.525 11.325L1.95 9.375L4.7 4.625L7.675 5.875C7.85833 5.74167 8.05 5.61667 8.25 5.5C8.45 5.38333 8.65 5.28333 8.85 5.2L9.25 2H14.75L15.15 5.2C15.3667 5.28333 15.571 5.38333 15.763 5.5C15.9543 5.61667 16.1417 5.74167 16.325 5.875L19.3 4.625L22.05 9.375L19.475 11.325C19.4917 11.4417 19.5 11.554 19.5 11.662V12.337C19.5 12.4457 19.4833 12.5583 19.45 12.675L22.025 14.625L19.275 19.375L16.325 18.125C16.1417 18.2583 15.95 18.3833 15.75 18.5C15.55 18.6167 15.35 18.7167 15.15 18.8L14.75 22H9.25ZM12.05 15.5C13.0167 15.5 13.8417 15.1583 14.525 14.475C15.2083 13.7917 15.55 12.9667 15.55 12C15.55 11.0333 15.2083 10.2083 14.525 9.525C13.8417 8.84167 13.0167 8.5 12.05 8.5C11.0667 8.5 10.2373 8.84167 9.562 9.525C8.88733 10.2083 8.55 11.0333 8.55 12C8.55 12.9667 8.88733 13.7917 9.562 14.475C10.2373 15.1583 11.0667 15.5 12.05 15.5Z" fill="black"/>
</g>
</svg>
