<svg width="24" height="24" viewBox="0 0 24 24" fill="none" xmlns="http://www.w3.org/2000/svg">
<g id="shield-check">
<path id="&#244;&#128;&#158;&#155;" d="M12.3961 23.6553C12.5 23.6553 12.6187 23.633 12.7523 23.5885C12.8934 23.5514 13.0381 23.4957 13.1865 23.4215C14.7896 22.5457 16.1404 21.7627 17.2389 21.0725C18.3447 20.3822 19.2316 19.7105 19.8996 19.0574C20.575 18.3969 21.0611 17.6881 21.358 16.9311C21.6549 16.1666 21.8033 15.276 21.8033 14.2592V5.84277C21.8033 5.18223 21.6734 4.6998 21.4137 4.39551C21.1539 4.09121 20.7457 3.82031 20.1891 3.58281C19.9441 3.47891 19.599 3.34531 19.1537 3.18203C18.7084 3.01133 18.2148 2.82949 17.673 2.63652C17.1387 2.44355 16.6006 2.2543 16.0588 2.06875C15.5244 1.87578 15.0346 1.70137 14.5893 1.54551C14.1514 1.38965 13.81 1.2709 13.565 1.18926C13.3869 1.1373 13.1939 1.09277 12.9861 1.05566C12.7857 1.01855 12.5891 1 12.3961 1C12.2105 1 12.0176 1.02227 11.8172 1.0668C11.6168 1.10391 11.4238 1.14473 11.2383 1.18926C10.9934 1.25605 10.6482 1.36738 10.2029 1.52324C9.76504 1.67168 9.27891 1.84238 8.74453 2.03535C8.21016 2.22832 7.67207 2.425 7.13027 2.62539C6.58848 2.81836 6.09492 3.0002 5.64961 3.1709C5.2043 3.3416 4.85918 3.47891 4.61426 3.58281C4.06504 3.81289 3.65684 4.08379 3.38965 4.39551C3.12988 4.6998 3 5.18223 3 5.84277V14.2592C3 15.276 3.14844 16.1666 3.44531 16.9311C3.74961 17.6881 4.23574 18.3932 4.90371 19.0463C5.5791 19.6994 6.46602 20.3711 7.56445 21.0613C8.67031 21.759 10.0211 22.5457 11.6168 23.4215C11.7652 23.4957 11.9062 23.5514 12.0398 23.5885C12.1809 23.633 12.2996 23.6553 12.3961 23.6553ZM12.3961 21.3063C12.3219 21.3063 12.2365 21.2877 12.14 21.2506C12.0436 21.2135 11.9174 21.1467 11.7615 21.0502C10.4924 20.2783 9.42734 19.6178 8.56641 19.0686C7.71289 18.5193 7.03008 18.0035 6.51797 17.5211C6.01328 17.0312 5.64961 16.5006 5.42695 15.9291C5.2043 15.3576 5.09297 14.6637 5.09297 13.8473V6.19902C5.09297 6.00605 5.11895 5.86133 5.1709 5.76484C5.22285 5.66836 5.32676 5.59043 5.48262 5.53105C5.80918 5.39746 6.1877 5.25273 6.61816 5.09688C7.05605 4.93359 7.5125 4.7666 7.9875 4.5959C8.46992 4.4252 8.94492 4.2582 9.4125 4.09492C9.8875 3.93164 10.3328 3.77578 10.7484 3.62734C11.1641 3.47891 11.5203 3.34531 11.8172 3.22656C11.9434 3.18203 12.051 3.14863 12.14 3.12637C12.2365 3.1041 12.3219 3.09297 12.3961 3.09297C12.4777 3.09297 12.5631 3.1041 12.6521 3.12637C12.7486 3.14863 12.86 3.18203 12.9861 3.22656C13.283 3.34531 13.6393 3.48262 14.0549 3.63848C14.4705 3.78691 14.9121 3.94648 15.3797 4.11719C15.8473 4.28789 16.3186 4.45859 16.7936 4.6293C17.276 4.8 17.7324 4.96328 18.1629 5.11914C18.6008 5.275 18.9904 5.4123 19.3318 5.53105C19.4803 5.58301 19.5805 5.66094 19.6324 5.76484C19.6844 5.86133 19.7104 6.00605 19.7104 6.19902V13.8473C19.7104 14.6711 19.599 15.3725 19.3764 15.9514C19.1537 16.5229 18.7826 17.0535 18.2631 17.5434C17.751 18.0332 17.0645 18.5527 16.2035 19.102C15.35 19.6438 14.2961 20.2932 13.0418 21.0502C12.8859 21.1467 12.7598 21.2135 12.6633 21.2506C12.5668 21.2877 12.4777 21.3063 12.3961 21.3063ZM11.216 17.0201C11.6316 17.0201 11.9582 16.8309 12.1957 16.4523L17.1721 8.67051C17.2463 8.55918 17.3094 8.44043 17.3613 8.31426C17.4207 8.18066 17.4504 8.05078 17.4504 7.92461C17.4504 7.65 17.3465 7.42734 17.1387 7.25664C16.9309 7.08594 16.6971 7.00059 16.4373 7.00059C16.0885 7.00059 15.799 7.18984 15.5689 7.56836L11.1715 14.6154L9.10078 11.9881C8.96719 11.81 8.82988 11.6875 8.68887 11.6207C8.55527 11.5465 8.40312 11.5094 8.23242 11.5094C7.96523 11.5094 7.73516 11.6096 7.54219 11.81C7.35664 12.0029 7.26387 12.2367 7.26387 12.5113C7.26387 12.7637 7.36035 13.0123 7.55332 13.2572L10.1807 16.4635C10.3365 16.649 10.4961 16.79 10.6594 16.8865C10.8227 16.9756 11.0082 17.0201 11.216 17.0201Z" fill="black"/>
</g>
</svg>
