<svg width="24" height="24" viewBox="0 0 24 24" fill="none" xmlns="http://www.w3.org/2000/svg">
<g id="step-in">
<path id="path" fill-rule="evenodd" clip-rule="evenodd" d="M2.25 21.063H8.3925C8.59141 21.063 8.78218 20.984 8.92283 20.8433C9.06348 20.7027 9.1425 20.5119 9.1425 20.313C9.1425 20.1141 9.06348 19.9233 8.92283 19.7826C8.78218 19.642 8.59141 19.563 8.3925 19.563H2.25C2.05109 19.563 1.86032 19.642 1.71967 19.7826C1.57902 19.9233 1.5 20.1141 1.5 20.313C1.5 20.5119 1.57902 20.7027 1.71967 20.8433C1.86032 20.984 2.05109 21.063 2.25 21.063ZM11.9745 2.99998C12.0751 2.99655 12.1754 3.01342 12.2694 3.04958C12.3633 3.08573 12.449 3.14043 12.5214 3.21042C12.5938 3.28041 12.6513 3.36425 12.6906 3.45695C12.7298 3.54965 12.7501 3.6493 12.75 3.74998V14.9745L17.454 9.98548C17.5905 9.84067 17.7788 9.756 17.9777 9.75009C18.1766 9.74418 18.3697 9.81752 18.5145 9.95398C18.6593 10.0904 18.744 10.2788 18.7499 10.4777C18.7558 10.6766 18.6825 10.8697 18.546 11.0145L12.546 17.379C12.4756 17.4537 12.3905 17.5132 12.2961 17.5536C12.2016 17.5941 12.0999 17.6147 11.9972 17.6141C11.8945 17.6135 11.793 17.5918 11.699 17.5504C11.605 17.5089 11.5206 17.4485 11.451 17.373L5.4525 11.0145C5.31605 10.8697 5.24271 10.6766 5.24861 10.4777C5.25452 10.2788 5.33919 10.0904 5.484 9.95398C5.62881 9.81752 5.82189 9.74418 6.02077 9.75009C6.21966 9.756 6.40805 9.84067 6.5445 9.98548L11.25 14.9745V4.49998H2.304C1.86 4.49998 1.5 4.16398 1.5 3.74998C1.5 3.33598 1.86 2.99998 2.304 2.99998H11.9745ZM15.75 21.063H21.8925C22.0914 21.063 22.2822 20.984 22.4228 20.8433C22.5635 20.7027 22.6425 20.5119 22.6425 20.313C22.6425 20.1141 22.5635 19.9233 22.4228 19.7826C22.2822 19.642 22.0914 19.563 21.8925 19.563H15.75C15.5511 19.563 15.3603 19.642 15.2197 19.7826C15.079 19.9233 15 20.1141 15 20.313C15 20.5119 15.079 20.7027 15.2197 20.8433C15.3603 20.984 15.5511 21.063 15.75 21.063Z" fill="black"/>
</g>
</svg>
