<svg width="24" height="24" viewBox="0 0 24 24" fill="none" xmlns="http://www.w3.org/2000/svg">
<g id="step-over">
<path id="path" fill-rule="evenodd" clip-rule="evenodd" d="M19.9449 10.3658C19.9451 10.3665 19.9453 10.3673 19.9455 10.368H19.944L19.9449 10.3658ZM11.097 3.75C15.2497 3.75 18.8911 6.5839 19.9449 10.3658L21.804 5.721C21.8392 5.62761 21.8927 5.54219 21.9613 5.46973C22.03 5.39728 22.1124 5.33925 22.2037 5.29906C22.2951 5.25886 22.3935 5.2373 22.4933 5.23563C22.5931 5.23397 22.6922 5.25225 22.7849 5.28938C22.8775 5.32652 22.9618 5.38177 23.0328 5.45189C23.1038 5.52202 23.1601 5.60562 23.1984 5.69779C23.2367 5.78995 23.2562 5.88883 23.2558 5.98864C23.2554 6.08844 23.2351 6.18715 23.196 6.279L20.196 13.779C20.187 13.801 20.177 13.8225 20.166 13.8435C20.1389 13.9434 20.0915 14.0366 20.0267 14.1172C19.9618 14.1979 19.881 14.2642 19.7893 14.3121C19.6976 14.36 19.597 14.3884 19.4937 14.3955C19.3905 14.4027 19.2869 14.3884 19.1895 14.3535L12.4965 11.9565C12.3091 11.8893 12.1561 11.7504 12.0712 11.5703C11.9862 11.3903 11.9763 11.1839 12.0435 10.9965C12.1107 10.8091 12.2496 10.6561 12.4297 10.5712C12.6097 10.4862 12.8161 10.4763 13.0035 10.5435L18.75 12.603V12.597C18.75 8.604 15.222 5.25 11.097 5.25C9.14845 5.25 7.27972 6.02406 5.90189 7.40189C4.52406 8.77972 3.75 10.6485 3.75 12.597C3.75 12.7959 3.67098 12.9867 3.53033 13.1273C3.38968 13.268 3.19891 13.347 3 13.347C2.80109 13.347 2.61032 13.268 2.46967 13.1273C2.32902 12.9867 2.25 12.7959 2.25 12.597C2.25 10.2506 3.18209 8.00036 4.84123 6.34123C6.50036 4.68209 8.75063 3.75 11.097 3.75ZM12 18C12 18.8284 11.3284 19.5 10.5 19.5C9.67157 19.5 9 18.8284 9 18C9 17.1716 9.67157 16.5 10.5 16.5C11.3284 16.5 12 17.1716 12 18Z" fill="black"/>
</g>
</svg>
