<svg width="24" height="24" viewBox="0 0 24 24" fill="none" xmlns="http://www.w3.org/2000/svg">
<g id="step-out">
<path id="path" fill-rule="evenodd" clip-rule="evenodd" d="M7.5 20.25H1.5C1.30109 20.25 1.11032 20.329 0.96967 20.4697C0.829018 20.6104 0.75 20.8011 0.75 21C0.75 21.1989 0.829018 21.3897 0.96967 21.5304C1.11032 21.671 1.30109 21.75 1.5 21.75H7.5C7.69891 21.75 7.88968 21.671 8.03033 21.5304C8.17098 21.3897 8.25 21.1989 8.25 21C8.25 20.8011 8.17098 20.6104 8.03033 20.4697C7.88968 20.329 7.69891 20.25 7.5 20.25ZM18 20.25H12C11.8011 20.25 11.6103 20.329 11.4697 20.4697C11.329 20.6104 11.25 20.8011 11.25 21C11.25 21.1989 11.329 21.3897 11.4697 21.5304C11.6103 21.671 11.8011 21.75 12 21.75H18C18.1989 21.75 18.3897 21.671 18.5303 21.5304C18.671 21.3897 18.75 21.1989 18.75 21C18.75 20.8011 18.671 20.6104 18.5303 20.4697C18.3897 20.329 18.1989 20.25 18 20.25ZM9.165 7.51803C9.21412 7.50614 9.26447 7.50009 9.315 7.50003H19.9395L14.469 2.03103C14.3993 1.9613 14.344 1.87852 14.3062 1.78741C14.2685 1.6963 14.2491 1.59865 14.2491 1.50003C14.2491 1.40142 14.2685 1.30377 14.3062 1.21266C14.344 1.12155 14.3993 1.03876 14.469 0.969032C14.5387 0.8993 14.6215 0.843986 14.7126 0.806247C14.8037 0.768508 14.9014 0.749084 15 0.749084C15.0986 0.749084 15.1963 0.768508 15.2874 0.806247C15.3785 0.843986 15.4613 0.8993 15.531 0.969032L22.281 7.71903C22.3512 7.7885 22.4069 7.87119 22.445 7.96234C22.483 8.05349 22.5026 8.15127 22.5026 8.25003C22.5026 8.34879 22.483 8.44658 22.445 8.53772C22.4069 8.62887 22.3512 8.71157 22.281 8.78103L15.531 15.531C15.4613 15.6008 15.3785 15.6561 15.2874 15.6938C15.1963 15.7316 15.0986 15.751 15 15.751C14.9014 15.751 14.8037 15.7316 14.7126 15.6938C14.6215 15.6561 14.5387 15.6008 14.469 15.531C14.3993 15.4613 14.344 15.3785 14.3062 15.2874C14.2685 15.1963 14.2491 15.0986 14.2491 15C14.2491 14.9014 14.2685 14.8038 14.3062 14.7127C14.344 14.6215 14.3993 14.5388 14.469 14.469L19.9395 9.00003H9.75V17.25C9.75 17.4489 9.67098 17.6397 9.53033 17.7804C9.38968 17.921 9.19891 18 9 18C8.80109 18 8.61032 17.921 8.46967 17.7804C8.32902 17.6397 8.25 17.4489 8.25 17.25V8.25003C8.24994 8.13749 8.27521 8.02638 8.32394 7.92493C8.37267 7.82349 8.4436 7.73431 8.53148 7.664C8.61936 7.5937 8.72193 7.54408 8.8316 7.51881C8.94127 7.49354 9.05522 7.49327 9.165 7.51803Z" fill="black"/>
</g>
</svg>
