<svg width="24" height="24" viewBox="0 0 24 24" fill="none" xmlns="http://www.w3.org/2000/svg">
<g id="support">
<path id="path" d="M12 2.00001C6.47999 2.00001 1.99999 6.48001 1.99999 12C1.99999 17.52 6.47999 22 12 22C17.52 22 22 17.52 22 12C22 6.48001 17.52 2.00001 12 2.00001ZM19.46 9.12001L16.68 10.27C16.17 8.91001 15.1 7.83001 13.73 7.33001L14.88 4.55001C16.98 5.35001 18.65 7.02001 19.46 9.12001ZM12 15C10.34 15 8.99999 13.66 8.99999 12C8.99999 10.34 10.34 9.00001 12 9.00001C13.66 9.00001 15 10.34 15 12C15 13.66 13.66 15 12 15ZM9.12999 4.54001L10.3 7.32001C8.91999 7.82001 7.82999 8.91001 7.31999 10.29L4.53999 9.13001C5.34999 7.02001 7.01999 5.35001 9.12999 4.54001ZM4.53999 14.87L7.31999 13.72C7.82999 15.1 8.90999 16.18 10.29 16.68L9.11999 19.46C7.01999 18.65 5.34999 16.98 4.53999 14.87ZM14.88 19.46L13.73 16.68C15.1 16.17 16.18 15.09 16.68 13.71L19.46 14.88C18.65 16.98 16.98 18.65 14.88 19.46Z" fill="black"/>
</g>
</svg>
