<svg width="24" height="24" viewBox="0 0 24 24" fill="none" xmlns="http://www.w3.org/2000/svg">
<g id="unresolved">
<path id="&#244;&#128;&#138;&#129;" d="M20.2699 10.1467C20.2699 9.47637 20.1684 8.84668 19.9652 8.25762C19.7672 7.66855 19.4904 7.15059 19.135 6.70371C18.7795 6.25684 18.3631 5.90645 17.8857 5.65254C17.4135 5.39863 16.9031 5.27168 16.3547 5.27168H13.841C13.3281 5.00762 12.7695 4.80449 12.1652 4.6623C11.566 4.51504 10.9287 4.44141 10.2533 4.44141H9.19453C8.69687 4.44141 8.24238 4.45664 7.83105 4.48711C7.4248 4.51758 7.08457 4.56836 6.81035 4.63945C6.25176 4.77656 5.80742 5.03047 5.47734 5.40117C5.15234 5.77187 4.98984 6.20352 4.98984 6.69609C4.98984 6.86875 5.01523 7.03887 5.06602 7.20645C4.80703 7.40957 4.60391 7.65586 4.45664 7.94531C4.31445 8.22969 4.24336 8.53691 4.24336 8.86699C4.24336 9.17676 4.29922 9.46113 4.41094 9.72012C4.23828 9.90293 4.10371 10.1238 4.00723 10.3828C3.91074 10.6367 3.8625 10.9033 3.8625 11.1826C3.8625 11.3654 3.88281 11.5482 3.92344 11.7311C3.96406 11.9088 4.025 12.0687 4.10625 12.2109C3.87773 12.5461 3.76348 12.9549 3.76348 13.4373C3.76348 13.8436 3.85742 14.2092 4.04531 14.5342C4.2332 14.8592 4.48711 15.1182 4.80703 15.3111C5.13203 15.499 5.49258 15.593 5.88867 15.593H8.72988C8.81113 15.593 8.87461 15.6133 8.92031 15.6539C8.96602 15.6895 8.98887 15.7402 8.98887 15.8062C8.97871 16.0094 8.90762 16.2709 8.77559 16.5908C8.64863 16.9057 8.50137 17.2561 8.33379 17.642C8.17129 18.0279 8.02656 18.4266 7.89961 18.8379C7.77773 19.2492 7.7168 19.6479 7.7168 20.0338C7.7168 20.4096 7.79805 20.7447 7.96055 21.0393C8.12305 21.3389 8.34648 21.5725 8.63086 21.74C8.91523 21.9076 9.24023 21.9914 9.60586 21.9914C10.007 21.9914 10.3523 21.8797 10.6418 21.6562C10.9363 21.4328 11.2131 21.0748 11.4721 20.5822C11.7107 20.1252 11.9621 19.6783 12.2262 19.2416C12.4902 18.8049 12.7771 18.3656 13.0869 17.9238C13.3967 17.477 13.7318 17.0199 14.0924 16.5527C14.4529 16.0805 14.8465 15.5828 15.273 15.0598H16.6441C17.157 15.0598 17.6318 14.9328 18.0686 14.6789C18.5104 14.425 18.8963 14.0746 19.2264 13.6277C19.5564 13.1758 19.8129 12.6527 19.9957 12.0586C20.1785 11.4645 20.2699 10.8271 20.2699 10.1467ZM15.5473 10.2076C15.5473 10.7459 15.5016 11.2334 15.4102 11.6701C15.3187 12.1018 15.1715 12.5232 14.9684 12.9346C14.7652 13.3459 14.491 13.7826 14.1457 14.2447C13.7648 14.7576 13.3434 15.3086 12.8812 15.8977C12.4242 16.4816 11.9646 17.1088 11.5025 17.7791C11.0455 18.4494 10.6266 19.168 10.2457 19.9348C10.1238 20.1785 10.0146 20.341 9.91816 20.4223C9.82168 20.5035 9.7125 20.5441 9.59062 20.5441C9.44336 20.5441 9.32402 20.4934 9.23262 20.3918C9.14629 20.2902 9.10312 20.1455 9.10312 19.9576C9.10312 19.6732 9.1666 19.3508 9.29355 18.9902C9.42559 18.6297 9.57539 18.2564 9.74297 17.8705C9.91562 17.4795 10.0654 17.0986 10.1924 16.7279C10.3244 16.3521 10.3904 16.0094 10.3904 15.6996C10.3904 15.2426 10.2254 14.8795 9.89531 14.6104C9.57031 14.3412 9.15898 14.2066 8.66133 14.2066H5.92676C5.70332 14.2066 5.51797 14.133 5.3707 13.9857C5.22344 13.8334 5.1498 13.643 5.1498 13.4145C5.1498 13.1352 5.27422 12.8736 5.52305 12.6299C5.61445 12.5334 5.66523 12.4242 5.67539 12.3023C5.69062 12.1754 5.65508 12.0611 5.56875 11.9596C5.45703 11.8072 5.37578 11.6727 5.325 11.5559C5.27422 11.4391 5.24883 11.3146 5.24883 11.1826C5.24883 11.0252 5.28691 10.8805 5.36309 10.7484C5.43926 10.6113 5.55605 10.4844 5.71348 10.3676C5.83535 10.2762 5.9166 10.1619 5.95723 10.0248C5.99785 9.88262 5.98008 9.73535 5.90391 9.58301C5.82266 9.43066 5.76172 9.30625 5.72109 9.20977C5.68047 9.1082 5.66016 8.99648 5.66016 8.87461C5.66016 8.52422 5.89883 8.22207 6.37617 7.96816C6.49805 7.90215 6.57422 7.81074 6.60469 7.69395C6.64023 7.57715 6.63262 7.46035 6.58184 7.34355C6.50059 7.14551 6.4498 7.01094 6.42949 6.93984C6.40918 6.86875 6.39902 6.79004 6.39902 6.70371C6.39902 6.54121 6.45996 6.39648 6.58184 6.26953C6.70879 6.14258 6.89922 6.04863 7.15312 5.9877C7.38164 5.92676 7.67109 5.88359 8.02148 5.8582C8.37695 5.83281 8.79082 5.82266 9.26309 5.82773L10.2457 5.83535C11.302 5.84551 12.2262 6.03848 13.0184 6.41426C13.8105 6.78496 14.4301 7.29785 14.877 7.95293C15.3238 8.60293 15.5473 9.35449 15.5473 10.2076ZM18.8988 10.1467C18.8988 10.7916 18.7998 11.3781 18.6018 11.9062C18.4037 12.4344 18.1422 12.8584 17.8172 13.1783C17.4922 13.4982 17.1393 13.6658 16.7584 13.6811C16.6518 13.6811 16.5477 13.6811 16.4461 13.6811C16.3496 13.6811 16.2506 13.6836 16.149 13.6887C16.4182 13.1605 16.6162 12.6146 16.7432 12.051C16.8701 11.4822 16.9336 10.8678 16.9336 10.2076C16.9336 9.50684 16.8143 8.8543 16.5756 8.25C16.3369 7.64062 15.9967 7.09473 15.5549 6.6123C15.6971 6.6123 15.8418 6.6123 15.9891 6.6123C16.1363 6.6123 16.2836 6.6123 16.4309 6.6123C16.8727 6.62754 17.2789 6.79766 17.6496 7.12266C18.0254 7.44258 18.3275 7.8666 18.5561 8.39473C18.7846 8.92285 18.8988 9.50684 18.8988 10.1467Z" fill="black"/>
</g>
</svg>
