<svg width="22" height="22" viewBox="0 0 22 22" fill="none" xmlns="http://www.w3.org/2000/svg">
<g id="video-off">
<path id="path" d="M22 15.9204L17.8782 11.7986V13.5246L6.363 2.00937H15.8173C16.3841 2.00937 16.8694 2.21133 17.2733 2.61527C17.6766 3.01852 17.8782 3.50351 17.8782 4.07026V8.70726L22 4.58548V15.9204ZM20.5059 21.9485L0 1.44262L1.44262 0L21.9485 20.5059L20.5059 21.9485ZM3.45199 2.00937L17.8782 16.4356C17.8782 17.0023 17.6766 17.4877 17.2733 17.8916C16.8694 18.2949 16.3841 18.4965 15.8173 18.4965H3.45199C2.88525 18.4965 2.40025 18.2949 1.997 17.8916C1.59307 17.4877 1.3911 17.0023 1.3911 16.4356V4.07026C1.3911 3.50351 1.59307 3.01852 1.997 2.61527C2.40025 2.21133 2.88525 2.00937 3.45199 2.00937Z" fill="black"/>
</g>
</svg>
