<svg width="24" height="24" viewBox="0 0 24 24" fill="none" xmlns="http://www.w3.org/2000/svg">
<g id="warning">
<path id="&#244;&#128;&#135;&#190;" d="M4.84648 21.2081H19.1535C19.7259 21.2081 20.2237 21.0775 20.6468 20.8161C21.0761 20.5548 21.4089 20.2064 21.6454 19.7709C21.8818 19.3416 22 18.8687 22 18.3523C22 18.1159 21.9689 17.8794 21.9067 17.643C21.8445 17.4066 21.7511 17.1764 21.6267 16.9524L14.4592 4.43723C14.1854 3.95815 13.8277 3.6004 13.3859 3.36397C12.9504 3.12132 12.49 2.99999 12.0047 2.99999C11.5194 2.99999 11.0527 3.12132 10.6048 3.36397C10.163 3.60662 9.80837 3.96437 9.54083 4.43723L2.37331 16.9617C2.12444 17.3973 2 17.8608 2 18.3523C2 18.8687 2.11821 19.3416 2.35464 19.7709C2.59107 20.2064 2.92394 20.5548 3.35324 20.8161C3.78255 21.0775 4.28029 21.2081 4.84648 21.2081ZM5.27578 18.9309C5.03935 18.9309 4.84959 18.85 4.70649 18.6883C4.56961 18.5203 4.50117 18.3305 4.50117 18.119C4.50117 18.0568 4.50739 17.9914 4.51983 17.923C4.53228 17.8483 4.55405 17.7768 4.58516 17.7083L11.3234 5.86513C11.398 5.7407 11.4976 5.65048 11.622 5.59449C11.7465 5.53227 11.874 5.50116 12.0047 5.50116C12.1353 5.50116 12.2598 5.53227 12.378 5.59449C12.5024 5.65048 12.5988 5.74381 12.6673 5.87447L19.4148 17.727C19.4771 17.8514 19.5082 17.9821 19.5082 18.119C19.5082 18.3305 19.4366 18.5203 19.2935 18.6883C19.1504 18.85 18.9606 18.9309 18.7242 18.9309H5.27578ZM12.0233 14.4606C12.6517 14.4606 12.9784 14.137 13.0033 13.49L13.1526 9.64488C13.1713 9.31513 13.0717 9.04759 12.8539 8.84227C12.6424 8.63073 12.3593 8.52496 12.0047 8.52496C11.6562 8.52496 11.3732 8.63073 11.1554 8.84227C10.9438 9.04759 10.8474 9.31202 10.8661 9.63555L11.0061 13.4993C11.0372 14.1401 11.3763 14.4606 12.0233 14.4606ZM12.0233 17.6617C12.3718 17.6617 12.6642 17.559 12.9006 17.3537C13.137 17.1484 13.2552 16.8777 13.2552 16.5418C13.2552 16.2058 13.137 15.9351 12.9006 15.7298C12.6642 15.5245 12.3718 15.4218 12.0233 15.4218C11.6687 15.4218 11.37 15.5245 11.1274 15.7298C10.891 15.9351 10.7727 16.2058 10.7727 16.5418C10.7727 16.8777 10.891 17.1484 11.1274 17.3537C11.37 17.559 11.6687 17.6617 12.0233 17.6617Z" fill="#38383D"/>
</g>
</svg>
