<svg width="30" height="33" viewBox="0 0 30 33" fill="none" xmlns="http://www.w3.org/2000/svg">
<path d="M12.9908 6.39849L7.64023 3.3016L2.28967 0.204906C2.05761 0.0706468 1.79438 -2.05073e-05 1.52644 4.46401e-09C1.25851 2.05162e-05 0.995306 0.0707268 0.763271 0.205022C0.531236 0.339317 0.338545 0.53247 0.204562 0.765065C0.07058 0.997661 3.89326e-05 1.26151 4.89996e-09 1.53009V13.9177C-2.14628e-05 14.1863 0.0704974 14.4502 0.204465 14.6828C0.338433 14.9154 0.531118 15.1086 0.763174 15.2429C0.995229 15.3772 1.25847 15.4479 1.52642 15.4479C1.79438 15.4479 2.05762 15.3772 2.28967 15.2428L7.64023 12.1462L12.9908 9.04926C13.2229 8.915 13.4157 8.72183 13.5498 8.48916C13.6838 8.2565 13.7544 7.99256 13.7544 7.72387C13.7544 7.45519 13.6838 7.19125 13.5498 6.95858C13.4157 6.72592 13.2229 6.53275 12.9908 6.39849V6.39849Z" fill="#F02D5E"/>
<path d="M12.9908 23.6443L7.6402 20.5476L2.28945 17.4509C2.05743 17.3166 1.79423 17.2459 1.5263 17.2458C1.25837 17.2458 0.995141 17.3165 0.763101 17.4508C0.531062 17.5851 0.338399 17.7782 0.204441 18.0109C0.0704836 18.2435 -2.68595e-05 18.5073 7.67524e-09 18.7759V31.1635C-1.3235e-06 31.4321 0.0705077 31.6959 0.204465 31.9285C0.338423 32.1611 0.5311 32.3543 0.763125 32.4886C0.995151 32.6229 1.25835 32.6936 1.52628 32.6936C1.7942 32.6936 2.05741 32.623 2.28945 32.4887L7.6402 29.392L12.9908 26.2953C13.2229 26.161 13.4157 25.9678 13.5498 25.7351C13.6838 25.5025 13.7544 25.2385 13.7544 24.9698C13.7544 24.7011 13.6838 24.4372 13.5498 24.2045C13.4157 23.9718 13.2229 23.7786 12.9908 23.6443Z" fill="#F02D5E"/>
<path d="M28.2506 15.0216L22.9 11.9247L17.5494 8.82798C17.3174 8.69365 17.0542 8.62293 16.7862 8.62292C16.5183 8.62292 16.255 8.69362 16.023 8.82792C15.7909 8.96223 15.5982 9.15541 15.4642 9.38804C15.3303 9.62067 15.2597 9.88455 15.2598 10.1532V22.5407C15.2598 22.8093 15.3304 23.0732 15.4644 23.3058C15.5983 23.5383 15.791 23.7315 16.0231 23.8658C16.2551 24.0001 16.5183 24.0708 16.7862 24.0708C17.0542 24.0708 17.3174 24.0002 17.5494 23.8659L22.9 20.769L28.2506 17.6723C28.4827 17.5381 28.6755 17.3449 28.8096 17.1122C28.9436 16.8796 29.0142 16.6156 29.0142 16.3469C29.0142 16.0783 28.9436 15.8143 28.8096 15.5817C28.6755 15.349 28.4827 15.1558 28.2506 15.0216V15.0216Z" fill="#F02D5E"/>
</svg>
