<svg width="24" height="17" viewBox="0 0 24 17" fill="none" xmlns="http://www.w3.org/2000/svg">
<path fill-rule="evenodd" clip-rule="evenodd" d="M21.0878 8.38688L15.0334 14.7346L15.0334 2.03918L21.0878 8.38688ZM22.535 7.0065C23.272 7.7792 23.272 8.99455 22.535 9.76725L16.4807 16.1149C15.2351 17.4209 13.0334 16.5393 13.0334 14.7346V2.03918C13.0334 0.234473 15.2351 -0.647135 16.4807 0.658807L22.535 7.0065ZM2.26172 8.39111L8.31604 2.04342L8.31604 14.7388L2.26172 8.39111ZM0.814456 9.77149C0.0774726 8.99879 0.0774732 7.78344 0.814457 7.01074L6.86878 0.663045C8.11436 -0.642897 10.316 0.238712 10.316 2.04342V14.7388C10.316 16.5435 8.11436 17.4251 6.86878 16.1192L0.814456 9.77149Z" fill="url(#paint0_linear)"/>
<defs>
<linearGradient id="paint0_linear" x1="2.29976" y1="1.22856" x2="14.6682" y2="20.1917" gradientUnits="userSpaceOnUse">
<stop stop-color="#236EFF"/>
<stop offset="1" stop-color="#71E5FF"/>
</linearGradient>
</defs>
</svg>
