<svg width="15" height="15" viewBox="0 0 15 15" fill="none" xmlns="http://www.w3.org/2000/svg">
<path d="M5.75342 11.4731C5.91064 11.4731 6.03711 11.4082 6.22852 11.2373L7.53076 10.0854H9.63623C10.6821 10.0889 11.3213 9.43945 11.3213 8.40381V5.67627C11.3213 4.64062 10.6821 3.99463 9.63623 3.99463H5.36035C4.31787 3.99463 3.67871 4.63721 3.67871 5.67627V8.40381C3.67871 9.44287 4.3623 10.0854 5.29541 10.0854H5.3877V11.0664C5.3877 11.3159 5.52441 11.4731 5.75342 11.4731ZM5.70898 6.18555C5.57568 6.18555 5.45947 6.06592 5.45947 5.9292C5.45947 5.78906 5.57227 5.67285 5.70898 5.67285H9.27051C9.41406 5.67285 9.52686 5.78906 9.52686 5.9292C9.52686 6.06592 9.41406 6.18555 9.27051 6.18555H5.70898ZM5.70898 7.28271C5.57568 7.28271 5.45947 7.16309 5.45947 7.02295C5.45947 6.88623 5.57227 6.7666 5.70898 6.7666H9.27051C9.41406 6.7666 9.52686 6.88623 9.52686 7.02295C9.52686 7.16309 9.41406 7.28271 9.27051 7.28271H5.70898ZM5.70898 8.37988C5.57568 8.37988 5.45947 8.26025 5.45947 8.12012C5.45947 7.9834 5.57227 7.86377 5.70898 7.86377H8.04346C8.18359 7.86377 8.29639 7.97998 8.29639 8.12012C8.29639 8.26025 8.18359 8.37988 8.04346 8.37988H5.70898Z" fill="#FEFEFF"/>
</svg>
