<svg width="19" height="16" viewBox="0 0 19 16" fill="none" xmlns="http://www.w3.org/2000/svg">
<path d="M0 14C0 15.1046 0.895431 16 2 16H17C18.1046 16 19 15.1046 19 14V6C19 4.89543 18.1046 4 17 4H12.35H6.65H2C0.895432 4 0 4.89543 0 6V14Z" fill="#F9F9FA"/>
<path d="M9.5 0L5 6L14 6L9.5 0Z" fill="#F9F9FA"/>
<path fill-rule="evenodd" clip-rule="evenodd" d="M2 13C2 14.1046 2.89543 15 4 15H15C16.1046 15 17 14.1046 17 13V8C17 6.89543 16.1046 6 15 6H11.75H9.85714L11.2857 8H14C14.5523 8 15 8.44771 15 9V12C15 12.5523 14.5523 13 14 13H5C4.44772 13 4 12.5523 4 12V9C4 8.44772 4.44772 8 5 8H7.71429L9.14286 6H7.25H4C2.89543 6 2 6.89543 2 8V13Z" fill="#737373"/>
<mask id="mask0" mask-type="alpha" maskUnits="userSpaceOnUse" x="5" y="2" width="9" height="4">
<rect width="9" height="4" transform="matrix(1 0 0 -1 5 6)" fill="#C4C4C4"/>
</mask>
<g mask="url(#mask0)">
<path d="M8.68627 4.91876L9.5 3.77953L10.3137 4.91876L12.8137 8.41876L13.9432 10H12H7H5.05681L6.18627 8.41876L8.68627 4.91876Z" stroke="#737373" stroke-width="2"/>
</g>
<circle r="0.5" transform="matrix(1 0 0 -1 6.5 10.5)" fill="#737373"/>
<circle r="0.5" transform="matrix(1 0 0 -1 9.5 10.5)" fill="#737373"/>
<circle r="0.5" transform="matrix(1 0 0 -1 12.5 10.5)" fill="#737373"/>
</svg>
