<svg width="15" height="13" viewBox="0 0 15 13" fill="none" xmlns="http://www.w3.org/2000/svg">
<path fill-rule="evenodd" clip-rule="evenodd" d="M2 13C0.895431 13 0 12.1046 0 11V6C0 4.89543 0.89543 4 2 4H5.25H9.75H13C14.1046 4 15 4.89543 15 6V11C15 12.1046 14.1046 13 13 13H2ZM4.5 8C4.77614 8 5 8.22386 5 8.5C5 8.77614 4.77614 9 4.5 9C4.22386 9 4 8.77614 4 8.5C4 8.22386 4.22386 8 4.5 8ZM8 8.5C8 8.22386 7.77614 8 7.5 8C7.22386 8 7 8.22386 7 8.5C7 8.77614 7.22386 9 7.5 9C7.77614 9 8 8.77614 8 8.5ZM10.5 8C10.7761 8 11 8.22386 11 8.5C11 8.77614 10.7761 9 10.5 9C10.2239 9 10 8.77614 10 8.5C10 8.22386 10.2239 8 10.5 8Z" fill="#5BA1F8"/>
<path d="M7.5 0L5 4V7L10 7V4L7.5 0Z" fill="#5BA1F8"/>
</svg>
