<svg width="19" height="16" viewBox="0 0 19 16" fill="none" xmlns="http://www.w3.org/2000/svg">
<path d="M0 14C0 15.1046 0.895431 16 2 16H17C18.1046 16 19 15.1046 19 14V6C19 4.89543 18.1046 4 17 4H12.35H6.65H2C0.895432 4 0 4.89543 0 6V14Z" fill="#F9F9FA"/>
<path d="M9.5 0L5 6L14 6L9.5 0Z" fill="#F9F9FA"/>
<path fill-rule="evenodd" clip-rule="evenodd" d="M4 15C2.89543 15 2 14.1046 2 13V8C2 6.89543 2.89543 6 4 6H7.25H11.75H15C16.1046 6 17 6.89543 17 8V13C17 14.1046 16.1046 15 15 15H4ZM6.5 10C6.77614 10 7 10.2239 7 10.5C7 10.7761 6.77614 11 6.5 11C6.22386 11 6 10.7761 6 10.5C6 10.2239 6.22386 10 6.5 10ZM10 10.5C10 10.2239 9.77614 10 9.5 10C9.22386 10 9 10.2239 9 10.5C9 10.7761 9.22386 11 9.5 11C9.77614 11 10 10.7761 10 10.5ZM12.5 10C12.7761 10 13 10.2239 13 10.5C13 10.7761 12.7761 11 12.5 11C12.2239 11 12 10.7761 12 10.5C12 10.2239 12.2239 10 12.5 10Z" fill="#5BA1F8"/>
<path d="M9.5 2L7 6V9H12V6L9.5 2Z" fill="#5BA1F8"/>
</svg>
