<svg width="20" height="20" viewBox="0 0 20 20" fill="none" xmlns="http://www.w3.org/2000/svg">
<path d="M4.14648 16.585H15.9727C16.6927 16.585 17.2305 16.4072 17.5859 16.0518C17.9414 15.7008 18.1191 15.1722 18.1191 14.4658V6.11914C18.1191 5.41276 17.9414 4.88411 17.5859 4.5332C17.2305 4.17773 16.6927 4 15.9727 4H4.14648C3.43099 4 2.89323 4.17773 2.5332 4.5332C2.17773 4.88411 2 5.41276 2 6.11914V14.4658C2 15.1722 2.17773 15.7008 2.5332 16.0518C2.89323 16.4072 3.43099 16.585 4.14648 16.585ZM4.16016 15.4844C3.81836 15.4844 3.55632 15.3955 3.37402 15.2178C3.19173 15.0355 3.10059 14.7666 3.10059 14.4111V6.17383C3.10059 5.81836 3.19173 5.55176 3.37402 5.37402C3.55632 5.19173 3.81836 5.10059 4.16016 5.10059H15.959C16.2962 5.10059 16.556 5.19173 16.7383 5.37402C16.9251 5.55176 17.0186 5.81836 17.0186 6.17383V14.4111C17.0186 14.7666 16.9251 15.0355 16.7383 15.2178C16.556 15.3955 16.2962 15.4844 15.959 15.4844H4.16016ZM4.03711 13.7344C4.03711 13.9759 4.11003 14.1719 4.25586 14.3223C4.40625 14.4681 4.59993 14.541 4.83691 14.541H9.28027C9.51725 14.541 9.70866 14.4681 9.85449 14.3223C10.0049 14.1719 10.0801 13.9759 10.0801 13.7344V6.83691C10.0801 6.59538 10.0049 6.39941 9.85449 6.24902C9.70866 6.09863 9.51725 6.02344 9.28027 6.02344H4.83691C4.59993 6.02344 4.40625 6.09863 4.25586 6.24902C4.11003 6.39941 4.03711 6.59538 4.03711 6.83691V13.7344Z" fill="#38383D"/>
</svg>
