<svg width="20" height="20" viewBox="0 0 20 20" fill="none" xmlns="http://www.w3.org/2000/svg">
<path d="M16.0889 11.0957C16.0889 10.8496 16.0137 10.6536 15.8633 10.5078C15.7174 10.3574 15.526 10.2822 15.2891 10.2822H10.8594C10.6224 10.2822 10.4287 10.3574 10.2783 10.5078C10.1325 10.6536 10.0596 10.8496 10.0596 11.0957V13.7139C10.0596 13.96 10.1325 14.1582 10.2783 14.3086C10.4287 14.4544 10.6224 14.5273 10.8594 14.5273H15.2891C15.526 14.5273 15.7174 14.4544 15.8633 14.3086C16.0137 14.1582 16.0889 13.96 16.0889 13.7139V11.0957ZM4.14648 16.585H15.9727C16.6927 16.585 17.2305 16.4072 17.5859 16.0518C17.9414 15.7008 18.1191 15.1722 18.1191 14.4658V6.11914C18.1191 5.41276 17.9414 4.88411 17.5859 4.5332C17.2305 4.17773 16.6927 4 15.9727 4H4.14648C3.43099 4 2.89323 4.17773 2.5332 4.5332C2.17773 4.88411 2 5.41276 2 6.11914V14.4658C2 15.1722 2.17773 15.7008 2.5332 16.0518C2.89323 16.4072 3.43099 16.585 4.14648 16.585ZM4.16016 15.4844C3.81836 15.4844 3.55632 15.3955 3.37402 15.2178C3.19173 15.0355 3.10059 14.7666 3.10059 14.4111V6.17383C3.10059 5.81836 3.19173 5.55176 3.37402 5.37402C3.55632 5.19173 3.81836 5.10059 4.16016 5.10059H15.959C16.2962 5.10059 16.556 5.19173 16.7383 5.37402C16.9251 5.55176 17.0186 5.81836 17.0186 6.17383V14.4111C17.0186 14.7666 16.9251 15.0355 16.7383 15.2178C16.556 15.3955 16.2962 15.4844 15.959 15.4844H4.16016Z" fill="#38383D"/>
</svg>
