<svg width="24" height="24" viewBox="0 0 24 24" fill="none" xmlns="http://www.w3.org/2000/svg">
<path d="M12.4961 3.56445C12.4961 3.26562 12.2388 3 11.9399 3C11.6328 3 11.3755 3.26562 11.3755 3.56445V5.83057C11.3755 6.1377 11.6328 6.39502 11.9399 6.39502C12.2388 6.39502 12.4961 6.1377 12.4961 5.83057V3.56445ZM7.17529 7.98047C7.39111 8.19629 7.74805 8.19629 7.96387 7.98047C8.17969 7.76465 8.17969 7.40771 7.96387 7.19189L6.37012 5.58984C6.1626 5.37402 5.79736 5.36572 5.58154 5.58154C5.36572 5.79736 5.36572 6.1543 5.58154 6.37012L7.17529 7.98047ZM15.8413 7.2417C15.6255 7.45752 15.6255 7.81445 15.8413 8.03027C16.0571 8.24609 16.4224 8.24609 16.6382 8.03027L18.2402 6.42822C18.4561 6.2124 18.4561 5.85547 18.2402 5.63965C18.0244 5.42383 17.6675 5.42383 17.4517 5.63965L15.8413 7.2417ZM11.2593 17.3604C11.251 17.6426 11.583 17.7339 11.7656 17.5513L13.0605 16.2397L14.5464 19.8921C14.6045 20.0332 14.7539 20.0996 14.8867 20.0415L15.6006 19.7593C15.7334 19.7012 15.7915 19.5435 15.7251 19.4106L14.1895 15.8247L16.0654 15.8081C16.3311 15.7998 16.4639 15.5342 16.2812 15.3267L11.7407 10.5205C11.5581 10.3379 11.2676 10.4458 11.2593 10.7114V17.3604ZM3.56445 11.3755C3.25732 11.3755 3 11.6411 3 11.9399C3 12.2388 3.25732 12.5044 3.56445 12.5044H5.83057C6.1377 12.5044 6.39502 12.2388 6.39502 11.9399C6.39502 11.6411 6.1377 11.3755 5.83057 11.3755H3.56445ZM20.3154 12.5044C20.6143 12.5044 20.8716 12.2388 20.8716 11.9399C20.8716 11.6411 20.6143 11.3755 20.3154 11.3755H18.041C17.7422 11.3755 17.4849 11.6411 17.4849 11.9399C17.4849 12.2388 17.7422 12.5044 18.041 12.5044H20.3154ZM5.63135 17.4517C5.41553 17.6592 5.41553 18.0244 5.62305 18.2402C5.83057 18.4561 6.2041 18.4561 6.41992 18.2402L8.02197 16.6465C8.23779 16.4307 8.23779 16.0737 8.02197 15.8579C7.81445 15.6421 7.44922 15.6421 7.2334 15.8579L5.63135 17.4517Z" fill="black"/>
</svg>
