<svg width="20" height="20" viewBox="0 0 20 20" fill="none" xmlns="http://www.w3.org/2000/svg">
<path d="M10.1084 16.8457C12.9863 16.8457 14.9072 15.8271 14.9072 14.3232C14.9072 12.9766 13.7588 12.6758 13.7588 11.8828C13.7588 10.7891 17.7305 10.5703 17.7305 7.76074C17.7305 4.98535 14.8662 3.15332 10.6143 3.15332C5.0293 3.15332 1.2627 5.94238 1.2627 10.1191C1.2627 14.1387 4.83789 16.8457 10.1084 16.8457ZM10.1084 15.6768C5.48047 15.6768 2.43164 13.4482 2.43164 10.1191C2.43164 6.63281 5.67188 4.32227 10.6143 4.32227C14.2031 4.32227 16.5615 5.7168 16.5615 7.76074C16.5615 10.1465 12.5625 9.8252 12.5625 11.8896C12.5625 13.0586 13.7383 13.4277 13.7383 14.2344C13.7383 15.1025 12.3096 15.6768 10.1084 15.6768ZM10.6758 7.76074C11.3184 7.76074 11.8242 7.24805 11.8242 6.60547C11.8242 5.96973 11.3184 5.45703 10.6758 5.45703C10.0469 5.45703 9.52051 5.96973 9.52051 6.60547C9.52051 7.24805 10.0469 7.76074 10.6758 7.76074ZM7.2168 8.86816C8.00293 8.86816 8.64551 8.23242 8.64551 7.42578C8.64551 6.63965 7.99609 6.01074 7.2168 6.01074C6.41016 6.01074 5.76758 6.63965 5.76758 7.42578C5.76758 8.23242 6.41016 8.86816 7.2168 8.86816ZM13.7998 8.19824C14.3125 8.19824 14.7227 7.78125 14.7227 7.26172C14.7227 6.74902 14.3125 6.33203 13.7998 6.33203C13.2803 6.33203 12.8564 6.74902 12.8564 7.26172C12.8564 7.78125 13.2803 8.19824 13.7998 8.19824ZM4.71484 11.0557C5.34375 11.0557 5.84961 10.5361 5.84961 9.90723C5.84961 9.27832 5.35059 8.77246 4.71484 8.77246C4.09277 8.77246 3.58008 9.27832 3.58008 9.90723C3.58008 10.5361 4.09277 11.0557 4.71484 11.0557ZM9.54785 14.0635C10.5869 14.0635 11.4414 13.209 11.4414 12.1631C11.4414 11.1309 10.5869 10.2764 9.54785 10.2764C8.50879 10.2764 7.6543 11.1309 7.6543 12.1631C7.6543 13.209 8.50879 14.0635 9.54785 14.0635ZM9.54785 13.2705C8.93945 13.2705 8.44727 12.7783 8.44727 12.1631C8.44727 11.4863 8.9668 11.083 9.53418 11.0762C10.1152 11.0693 10.6484 11.4658 10.6484 12.1631C10.6484 12.7783 10.1631 13.2705 9.54785 13.2705Z" fill="#0C0C0C"/>
</svg>
