<svg width="20" height="20" viewBox="0 0 20 20" fill="none" xmlns="http://www.w3.org/2000/svg">
<path d="M1.46094 16.1143C1.46094 16.873 1.89844 17.3584 2.5957 17.3584H16.4111C17.1016 17.3584 17.5391 16.873 17.5391 16.1143V7.3916C17.5391 6.63281 17.1016 6.14746 16.4111 6.14746H12.3438V4.02832C12.3438 3.26953 11.9062 2.78418 11.2158 2.78418H2.5957C1.89844 2.78418 1.46094 3.26953 1.46094 4.02832V16.1143ZM2.56152 15.8613V4.28125C2.56152 4.00781 2.68457 3.88477 2.95801 3.88477H10.8535C11.1201 3.88477 11.2432 4.00781 11.2432 4.28125V15.8613C11.2432 16.1279 11.1201 16.2578 10.8535 16.2578H9.28125V14.2412C9.28125 13.6533 9.02148 13.3799 8.46094 13.3799H5.34375C4.7832 13.3799 4.52344 13.6533 4.52344 14.2412V16.2578H2.95801C2.68457 16.2578 2.56152 16.1279 2.56152 15.8613ZM4.63281 6.87207H5.96582C6.12988 6.87207 6.24609 6.7627 6.24609 6.5918V5.2998C6.24609 5.13574 6.12988 5.01953 5.96582 5.01953H4.63281C4.46875 5.01953 4.36621 5.13574 4.36621 5.2998V6.5918C4.36621 6.7627 4.46875 6.87207 4.63281 6.87207ZM7.83887 6.87207H9.16504C9.3291 6.87207 9.44531 6.7627 9.44531 6.5918V5.2998C9.44531 5.13574 9.3291 5.01953 9.16504 5.01953H7.83887C7.66797 5.01953 7.56543 5.13574 7.56543 5.2998V6.5918C7.56543 6.7627 7.66797 6.87207 7.83887 6.87207ZM12.3438 16.1143V7.24805H16.0488C16.3154 7.24805 16.4385 7.37793 16.4385 7.64453V15.8613C16.4385 16.1279 16.3154 16.2578 16.0488 16.2578H12.3369C12.3438 16.21 12.3438 16.1621 12.3438 16.1143ZM4.63281 9.5791H5.96582C6.12988 9.5791 6.24609 9.46973 6.24609 9.29883V8.00684C6.24609 7.84277 6.12988 7.72656 5.96582 7.72656H4.63281C4.46875 7.72656 4.36621 7.84277 4.36621 8.00684V9.29883C4.36621 9.46973 4.46875 9.5791 4.63281 9.5791ZM7.83887 9.5791H9.16504C9.3291 9.5791 9.44531 9.46973 9.44531 9.29883V8.00684C9.44531 7.84277 9.3291 7.72656 9.16504 7.72656H7.83887C7.66797 7.72656 7.56543 7.84277 7.56543 8.00684V9.29883C7.56543 9.46973 7.66797 9.5791 7.83887 9.5791ZM13.8408 9.90723H14.9414C15.0781 9.90723 15.1738 9.81152 15.1738 9.6748V8.6084C15.1738 8.47168 15.0781 8.37598 14.9414 8.37598H13.8408C13.6973 8.37598 13.6152 8.47168 13.6152 8.6084V9.6748C13.6152 9.81152 13.6973 9.90723 13.8408 9.90723ZM4.63281 12.2861H5.96582C6.12988 12.2861 6.24609 12.1699 6.24609 12.0059V10.7139C6.24609 10.543 6.12988 10.4336 5.96582 10.4336H4.63281C4.46875 10.4336 4.36621 10.543 4.36621 10.7139V12.0059C4.36621 12.1699 4.46875 12.2861 4.63281 12.2861ZM7.83887 12.2861H9.16504C9.3291 12.2861 9.44531 12.1699 9.44531 12.0059V10.7139C9.44531 10.543 9.3291 10.4336 9.16504 10.4336H7.83887C7.66797 10.4336 7.56543 10.543 7.56543 10.7139V12.0059C7.56543 12.1699 7.66797 12.2861 7.83887 12.2861ZM13.8408 12.5186H14.9414C15.0781 12.5186 15.1738 12.4229 15.1738 12.2861V11.2197C15.1738 11.083 15.0781 10.9873 14.9414 10.9873H13.8408C13.6973 10.9873 13.6152 11.083 13.6152 11.2197V12.2861C13.6152 12.4229 13.6973 12.5186 13.8408 12.5186ZM13.8408 15.1299H14.9414C15.0781 15.1299 15.1738 15.0342 15.1738 14.8975V13.8311C15.1738 13.6943 15.0781 13.5986 14.9414 13.5986H13.8408C13.6973 13.5986 13.6152 13.6943 13.6152 13.8311V14.8975C13.6152 15.0342 13.6973 15.1299 13.8408 15.1299ZM5.41895 14.4941C5.41895 14.3506 5.49414 14.2754 5.6377 14.2754H8.16699C8.31738 14.2754 8.38574 14.3506 8.38574 14.4941V16.2578H5.41895V14.4941Z" fill="#0C0C0C"/>
</svg>
