<svg width="16" height="16" viewBox="0 0 16 16" fill="none" xmlns="http://www.w3.org/2000/svg">
<g clip-path="url(#clip0_9888_94732)">
<path d="M5.93213 7.38623V9.2876L5.07812 9.29297C4.71289 9.29297 4.38167 9.3807 4.08447 9.55615C3.78727 9.73161 3.54915 9.96794 3.37012 10.2651C3.19108 10.5588 3.10156 10.8864 3.10156 11.248C3.10156 11.6133 3.19108 11.9445 3.37012 12.2417C3.54915 12.5425 3.78727 12.7824 4.08447 12.9614C4.38167 13.1405 4.71289 13.23 5.07812 13.23C5.43978 13.23 5.76921 13.1405 6.06641 12.9614C6.36719 12.7824 6.60531 12.5425 6.78076 12.2417C6.9598 11.9445 7.04932 11.6133 7.04932 11.248V10.4102H8.95068V11.248C8.95068 11.6133 9.03841 11.9445 9.21387 12.2417C9.3929 12.5425 9.63102 12.7824 9.92822 12.9614C10.2254 13.1405 10.5566 13.23 10.9219 13.23C11.2871 13.23 11.6183 13.1405 11.9155 12.9614C12.2127 12.7824 12.4491 12.5425 12.6245 12.2417C12.8035 11.9445 12.8931 11.6133 12.8931 11.248C12.8931 10.8864 12.8035 10.5588 12.6245 10.2651C12.4491 9.96794 12.2127 9.73161 11.9155 9.55615C11.6183 9.3807 11.2871 9.29297 10.9219 9.29297L10.0679 9.2876V7.38623H10.9219C11.2871 7.38265 11.6183 7.29492 11.9155 7.12305C12.2127 6.94759 12.4491 6.71126 12.6245 6.41406C12.8035 6.11686 12.8931 5.78743 12.8931 5.42578C12.8931 5.06413 12.8035 4.73291 12.6245 4.43213C12.4491 4.13135 12.2127 3.89323 11.9155 3.71777C11.6183 3.53874 11.2871 3.44922 10.9219 3.44922C10.5566 3.44922 10.2254 3.53874 9.92822 3.71777C9.63102 3.89323 9.3929 4.13135 9.21387 4.43213C9.03841 4.73291 8.95068 5.06413 8.95068 5.42578V6.26367H7.04932V5.42578C7.04932 5.06413 6.9598 4.73291 6.78076 4.43213C6.60531 4.13135 6.36719 3.89323 6.06641 3.71777C5.76921 3.53874 5.43978 3.44922 5.07812 3.44922C4.71289 3.44922 4.38167 3.53874 4.08447 3.71777C3.78727 3.89323 3.54915 4.13135 3.37012 4.43213C3.19108 4.73291 3.10156 5.06413 3.10156 5.42578C3.10156 5.78743 3.19108 6.11686 3.37012 6.41406C3.54915 6.71126 3.78727 6.94759 4.08447 7.12305C4.38167 7.29492 4.71289 7.38265 5.07812 7.38623H5.93213ZM5.10498 6.27979C4.94385 6.27979 4.79704 6.24219 4.66455 6.16699C4.53564 6.08822 4.4318 5.98438 4.35303 5.85547C4.27425 5.72656 4.23486 5.58333 4.23486 5.42578C4.23486 5.27181 4.27246 5.13037 4.34766 5.00146C4.42643 4.87256 4.52848 4.77051 4.65381 4.69531C4.78271 4.61654 4.92415 4.57715 5.07812 4.57715C5.2321 4.57715 5.37174 4.61654 5.49707 4.69531C5.62598 4.77051 5.72982 4.87614 5.80859 5.01221C5.88737 5.14469 5.92676 5.29329 5.92676 5.45801V6.27979H5.10498ZM10.8896 6.27979H10.0679V5.45801C10.0679 5.29329 10.1073 5.14469 10.186 5.01221C10.2648 4.87614 10.3687 4.77051 10.4976 4.69531C10.6265 4.61654 10.7679 4.57715 10.9219 4.57715C11.0758 4.57715 11.2155 4.61654 11.3408 4.69531C11.4697 4.77051 11.5718 4.87256 11.647 5.00146C11.7257 5.13037 11.7651 5.27181 11.7651 5.42578C11.7651 5.58333 11.7257 5.72656 11.647 5.85547C11.5682 5.98438 11.4626 6.08822 11.3301 6.16699C11.2012 6.24219 11.0544 6.27979 10.8896 6.27979ZM7.05469 9.29297V7.38086H8.94531V9.29297H7.05469ZM5.10498 10.394H5.92676V11.2158C5.92676 11.3805 5.88737 11.5291 5.80859 11.6616C5.72982 11.7941 5.62598 11.8997 5.49707 11.9785C5.37174 12.0573 5.2321 12.0967 5.07812 12.0967C4.92415 12.0967 4.78271 12.0591 4.65381 11.9839C4.52848 11.9051 4.42643 11.8031 4.34766 11.6777C4.27246 11.5488 4.23486 11.4038 4.23486 11.2427C4.23486 11.0887 4.27425 10.9473 4.35303 10.8184C4.4318 10.6895 4.53564 10.5874 4.66455 10.5122C4.79704 10.4334 4.94385 10.394 5.10498 10.394ZM10.8896 10.394C11.0544 10.394 11.2012 10.4334 11.3301 10.5122C11.4626 10.5874 11.5682 10.6895 11.647 10.8184C11.7257 10.9473 11.7651 11.0887 11.7651 11.2427C11.7651 11.4038 11.7257 11.5488 11.647 11.6777C11.5718 11.8031 11.4697 11.9051 11.3408 11.9839C11.2155 12.0591 11.0758 12.0967 10.9219 12.0967C10.7679 12.0967 10.6265 12.0573 10.4976 11.9785C10.3687 11.8997 10.2648 11.7941 10.186 11.6616C10.1073 11.5291 10.0679 11.3805 10.0679 11.2158V10.394H10.8896Z" fill="#01ACFD"/>
</g>
<defs>
<clipPath id="clip0_9888_94732">
<rect width="16" height="16" fill="white"/>
</clipPath>
</defs>
</svg>
