<svg width="24" height="24" viewBox="0 0 24 24" fill="none" xmlns="http://www.w3.org/2000/svg">
<rect x="2.5" y="2.5" width="19" height="19" rx="3.5" fill="#F4F4F4" stroke="#D6D6D6"/>
<g clip-path="url(#clip0_591_4311)">
<path d="M9.93383 11.1621V12.8379H9.17212C8.80818 12.8421 8.47387 12.9331 8.16919 13.1108C7.86873 13.2843 7.62752 13.5213 7.44556 13.8218C7.26782 14.118 7.17896 14.4502 7.17896 14.8184C7.17896 15.1823 7.26782 15.5166 7.44556 15.8213C7.62752 16.1217 7.86873 16.363 8.16919 16.5449C8.47387 16.7269 8.8103 16.8179 9.17846 16.8179C9.5424 16.8179 9.87459 16.7269 10.175 16.5449C10.4755 16.363 10.7146 16.1217 10.8923 15.8213C11.0743 15.5166 11.1653 15.1823 11.1653 14.8184V14.0757H12.8347V14.8184C12.8347 15.1823 12.9257 15.5166 13.1077 15.8213C13.2896 16.1217 13.5308 16.363 13.8313 16.5449C14.1318 16.7269 14.4639 16.8179 14.8279 16.8179C15.196 16.8179 15.5304 16.7269 15.8308 16.5449C16.1355 16.363 16.3767 16.1217 16.5544 15.8213C16.7322 15.5166 16.821 15.1823 16.821 14.8184C16.821 14.4502 16.7322 14.118 16.5544 13.8218C16.3767 13.5213 16.1355 13.2843 15.8308 13.1108C15.5304 12.9331 15.196 12.8421 14.8279 12.8379H14.0725V11.1621H14.8279C15.196 11.1579 15.5304 11.069 15.8308 10.8955C16.1355 10.7178 16.3767 10.4808 16.5544 10.1846C16.7322 9.88412 16.821 9.54981 16.821 9.18164C16.821 8.81348 16.7322 8.47917 16.5544 8.17871C16.3767 7.87826 16.1355 7.63704 15.8308 7.45508C15.5304 7.27311 15.196 7.18213 14.8279 7.18213C14.4639 7.18213 14.1318 7.27311 13.8313 7.45508C13.5308 7.63704 13.2896 7.88037 13.1077 8.18506C12.9257 8.48552 12.8347 8.81771 12.8347 9.18164V9.92432H11.1653V9.18164C11.1653 8.81771 11.0743 8.48552 10.8923 8.18506C10.7146 7.88037 10.4755 7.63704 10.175 7.45508C9.87459 7.27311 9.5424 7.18213 9.17846 7.18213C8.8103 7.18213 8.47387 7.27311 8.16919 7.45508C7.86873 7.63704 7.62752 7.87826 7.44556 8.17871C7.26782 8.47917 7.17896 8.81348 7.17896 9.18164C7.17896 9.54981 7.26782 9.88412 7.44556 10.1846C7.62752 10.4808 7.86873 10.7178 8.16919 10.8955C8.47387 11.069 8.80818 11.1579 9.17212 11.1621H9.93383ZM9.2102 9.93701C8.99015 9.93701 8.80395 9.86296 8.65161 9.71485C8.5035 9.56673 8.42944 9.389 8.42944 9.18164C8.42944 8.97429 8.50138 8.79867 8.64526 8.65479C8.79337 8.50668 8.97111 8.43262 9.17846 8.43262C9.38159 8.43262 9.55721 8.50879 9.70532 8.66114C9.85343 8.81348 9.92749 8.99968 9.92749 9.21973V9.93701H9.2102ZM14.7898 9.93701H14.0789V9.21973C14.0789 8.99968 14.1529 8.81348 14.301 8.66114C14.4491 8.50879 14.6248 8.43262 14.8279 8.43262C15.0352 8.43262 15.2109 8.50668 15.3547 8.65479C15.5028 8.79867 15.5769 8.97429 15.5769 9.18164C15.5769 9.389 15.5007 9.56673 15.3484 9.71485C15.196 9.86296 15.0098 9.93701 14.7898 9.93701ZM11.1716 12.8442V11.1558H12.8347V12.8442H11.1716ZM9.2102 14.0566H9.92749V14.7803C9.92749 15.0003 9.85343 15.1865 9.70532 15.3389C9.55721 15.487 9.38159 15.561 9.17846 15.561C8.97111 15.561 8.79337 15.4891 8.64526 15.3452C8.50138 15.1971 8.42944 15.0194 8.42944 14.812C8.42944 14.6047 8.5035 14.4269 8.65161 14.2788C8.80395 14.1307 8.99015 14.0566 9.2102 14.0566ZM14.7898 14.0566C15.0098 14.0566 15.196 14.1307 15.3484 14.2788C15.5007 14.4269 15.5769 14.6047 15.5769 14.812C15.5769 15.0194 15.5028 15.1971 15.3547 15.3452C15.2109 15.4891 15.0352 15.561 14.8279 15.561C14.6248 15.561 14.4491 15.487 14.301 15.3389C14.1529 15.1865 14.0789 15.0003 14.0789 14.7803V14.0566H14.7898Z" fill="#888888"/>
</g>
<defs>
<clipPath id="clip0_591_4311">
<rect width="10" height="10" fill="white" transform="translate(7 7)"/>
</clipPath>
</defs>
</svg>
