<svg width="24" height="24" viewBox="0 0 24 24" fill="none" xmlns="http://www.w3.org/2000/svg">
<g filter="url(#filter0_d_591_4311)">
<rect x="2" y="2" width="20" height="20" rx="4" fill="#F4F4F4"/>
<rect x="2.5" y="2.5" width="19" height="19" rx="3.5" stroke="#EBEBEB"/>
</g>
<path d="M9.70936 11.685V13.3608H8.94764C8.58371 13.365 8.2494 13.456 7.94471 13.6337C7.64425 13.8072 7.40304 14.0442 7.22108 14.3447C7.04334 14.6409 6.95448 14.9731 6.95448 15.3412C6.95448 15.7052 7.04334 16.0395 7.22108 16.3442C7.40304 16.6446 7.64425 16.8858 7.94471 17.0678C8.2494 17.2498 8.58582 17.3408 8.95399 17.3408C9.31792 17.3408 9.65011 17.2498 9.95057 17.0678C10.251 16.8858 10.4901 16.6446 10.6679 16.3442C10.8498 16.0395 10.9408 15.7052 10.9408 15.3412V14.5986H12.6102V15.3412C12.6102 15.7052 12.7012 16.0395 12.8832 16.3442C13.0652 16.6446 13.3064 16.8858 13.6068 17.0678C13.9073 17.2498 14.2395 17.3408 14.6034 17.3408C14.9716 17.3408 15.3059 17.2498 15.6063 17.0678C15.911 16.8858 16.1522 16.6446 16.33 16.3442C16.5077 16.0395 16.5966 15.7052 16.5966 15.3412C16.5966 14.9731 16.5077 14.6409 16.33 14.3447C16.1522 14.0442 15.911 13.8072 15.6063 13.6337C15.3059 13.456 14.9716 13.365 14.6034 13.3608H13.848V11.685H14.6034C14.9716 11.6808 15.3059 11.5919 15.6063 11.4184C15.911 11.2407 16.1522 11.0037 16.33 10.7075C16.5077 10.407 16.5966 10.0727 16.5966 9.70453C16.5966 9.33636 16.5077 9.00205 16.33 8.7016C16.1522 8.40114 15.911 8.15993 15.6063 7.97797C15.3059 7.796 14.9716 7.70502 14.6034 7.70502C14.2395 7.70502 13.9073 7.796 13.6068 7.97797C13.3064 8.15993 13.0652 8.40326 12.8832 8.70795C12.7012 9.0084 12.6102 9.3406 12.6102 9.70453V10.4472H10.9408V9.70453C10.9408 9.3406 10.8498 9.0084 10.6679 8.70795C10.4901 8.40326 10.251 8.15993 9.95057 7.97797C9.65011 7.796 9.31792 7.70502 8.95399 7.70502C8.58582 7.70502 8.2494 7.796 7.94471 7.97797C7.64425 8.15993 7.40304 8.40114 7.22108 8.7016C7.04334 9.00205 6.95448 9.33636 6.95448 9.70453C6.95448 10.0727 7.04334 10.407 7.22108 10.7075C7.40304 11.0037 7.64425 11.2407 7.94471 11.4184C8.2494 11.5919 8.58371 11.6808 8.94764 11.685H9.70936ZM8.98573 10.4599C8.76567 10.4599 8.57948 10.3858 8.42713 10.2377C8.27902 10.0896 8.20496 9.91189 8.20496 9.70453C8.20496 9.49717 8.2769 9.32155 8.42078 9.17767C8.5689 9.02956 8.74663 8.95551 8.95399 8.95551C9.15711 8.95551 9.33273 9.03168 9.48084 9.18402C9.62895 9.33636 9.70301 9.52256 9.70301 9.74261V10.4599H8.98573ZM14.5653 10.4599H13.8544V9.74261C13.8544 9.52256 13.9284 9.33636 14.0765 9.18402C14.2247 9.03168 14.4003 8.95551 14.6034 8.95551C14.8108 8.95551 14.9864 9.02956 15.1303 9.17767C15.2784 9.32155 15.3524 9.49717 15.3524 9.70453C15.3524 9.91189 15.2763 10.0896 15.1239 10.2377C14.9716 10.3858 14.7854 10.4599 14.5653 10.4599ZM10.9472 13.3671V11.6786H12.6102V13.3671H10.9472ZM8.98573 14.5795H9.70301V15.3032C9.70301 15.5232 9.62895 15.7094 9.48084 15.8618C9.33273 16.0099 9.15711 16.0839 8.95399 16.0839C8.74663 16.0839 8.5689 16.012 8.42078 15.8681C8.2769 15.72 8.20496 15.5423 8.20496 15.3349C8.20496 15.1275 8.27902 14.9498 8.42713 14.8017C8.57948 14.6536 8.76567 14.5795 8.98573 14.5795ZM14.5653 14.5795C14.7854 14.5795 14.9716 14.6536 15.1239 14.8017C15.2763 14.9498 15.3524 15.1275 15.3524 15.3349C15.3524 15.5423 15.2784 15.72 15.1303 15.8681C14.9864 16.012 14.8108 16.0839 14.6034 16.0839C14.4003 16.0839 14.2247 16.0099 14.0765 15.8618C13.9284 15.7094 13.8544 15.5232 13.8544 15.3032V14.5795H14.5653Z" fill="#888888"/>
<defs>
<filter id="filter0_d_591_4311" x="1" y="2" width="22" height="22" filterUnits="userSpaceOnUse" color-interpolation-filters="sRGB">
<feFlood flood-opacity="0" result="BackgroundImageFix"/>
<feColorMatrix in="SourceAlpha" type="matrix" values="0 0 0 0 0 0 0 0 0 0 0 0 0 0 0 0 0 0 127 0" result="hardAlpha"/>
<feOffset dy="1"/>
<feGaussianBlur stdDeviation="0.5"/>
<feComposite in2="hardAlpha" operator="out"/>
<feColorMatrix type="matrix" values="0 0 0 0 0 0 0 0 0 0 0 0 0 0 0 0 0 0 0.25 0"/>
<feBlend mode="normal" in2="BackgroundImageFix" result="effect1_dropShadow_591_4311"/>
<feBlend mode="normal" in="SourceGraphic" in2="effect1_dropShadow_591_4311" result="shape"/>
</filter>
</defs>
</svg>
