<svg width="24" height="24" viewBox="0 0 24 24" fill="none" xmlns="http://www.w3.org/2000/svg">
<rect x="2.5" y="3.5" width="19" height="19" rx="3.5" fill="#F4F4F4" stroke="#D6D6D6"/>
<path d="M9.70936 12.685V14.3608H8.94764C8.58371 14.365 8.2494 14.456 7.94471 14.6337C7.64425 14.8072 7.40304 15.0442 7.22108 15.3447C7.04334 15.6409 6.95448 15.9731 6.95448 16.3412C6.95448 16.7052 7.04334 17.0395 7.22108 17.3442C7.40304 17.6446 7.64425 17.8858 7.94471 18.0678C8.2494 18.2498 8.58582 18.3408 8.95399 18.3408C9.31792 18.3408 9.65011 18.2498 9.95057 18.0678C10.251 17.8858 10.4901 17.6446 10.6679 17.3442C10.8498 17.0395 10.9408 16.7052 10.9408 16.3412V15.5986H12.6102V16.3412C12.6102 16.7052 12.7012 17.0395 12.8832 17.3442C13.0652 17.6446 13.3064 17.8858 13.6068 18.0678C13.9073 18.2498 14.2395 18.3408 14.6034 18.3408C14.9716 18.3408 15.3059 18.2498 15.6063 18.0678C15.911 17.8858 16.1522 17.6446 16.33 17.3442C16.5077 17.0395 16.5966 16.7052 16.5966 16.3412C16.5966 15.9731 16.5077 15.6409 16.33 15.3447C16.1522 15.0442 15.911 14.8072 15.6063 14.6337C15.3059 14.456 14.9716 14.365 14.6034 14.3608H13.848V12.685H14.6034C14.9716 12.6808 15.3059 12.5919 15.6063 12.4184C15.911 12.2407 16.1522 12.0037 16.33 11.7075C16.5077 11.407 16.5966 11.0727 16.5966 10.7045C16.5966 10.3364 16.5077 10.0021 16.33 9.7016C16.1522 9.40114 15.911 9.15993 15.6063 8.97797C15.3059 8.796 14.9716 8.70502 14.6034 8.70502C14.2395 8.70502 13.9073 8.796 13.6068 8.97797C13.3064 9.15993 13.0652 9.40326 12.8832 9.70795C12.7012 10.0084 12.6102 10.3406 12.6102 10.7045V11.4472H10.9408V10.7045C10.9408 10.3406 10.8498 10.0084 10.6679 9.70795C10.4901 9.40326 10.251 9.15993 9.95057 8.97797C9.65011 8.796 9.31792 8.70502 8.95399 8.70502C8.58582 8.70502 8.2494 8.796 7.94471 8.97797C7.64425 9.15993 7.40304 9.40114 7.22108 9.7016C7.04334 10.0021 6.95448 10.3364 6.95448 10.7045C6.95448 11.0727 7.04334 11.407 7.22108 11.7075C7.40304 12.0037 7.64425 12.2407 7.94471 12.4184C8.2494 12.5919 8.58371 12.6808 8.94764 12.685H9.70936ZM8.98573 11.4599C8.76567 11.4599 8.57948 11.3858 8.42713 11.2377C8.27902 11.0896 8.20496 10.9119 8.20496 10.7045C8.20496 10.4972 8.2769 10.3216 8.42078 10.1777C8.5689 10.0296 8.74663 9.95551 8.95399 9.95551C9.15711 9.95551 9.33273 10.0317 9.48084 10.184C9.62895 10.3364 9.70301 10.5226 9.70301 10.7426V11.4599H8.98573ZM14.5653 11.4599H13.8544V10.7426C13.8544 10.5226 13.9284 10.3364 14.0765 10.184C14.2247 10.0317 14.4003 9.95551 14.6034 9.95551C14.8108 9.95551 14.9864 10.0296 15.1303 10.1777C15.2784 10.3216 15.3524 10.4972 15.3524 10.7045C15.3524 10.9119 15.2763 11.0896 15.1239 11.2377C14.9716 11.3858 14.7854 11.4599 14.5653 11.4599ZM10.9472 14.3671V12.6786H12.6102V14.3671H10.9472ZM8.98573 15.5795H9.70301V16.3032C9.70301 16.5232 9.62895 16.7094 9.48084 16.8618C9.33273 17.0099 9.15711 17.0839 8.95399 17.0839C8.74663 17.0839 8.5689 17.012 8.42078 16.8681C8.2769 16.72 8.20496 16.5423 8.20496 16.3349C8.20496 16.1275 8.27902 15.9498 8.42713 15.8017C8.57948 15.6536 8.76567 15.5795 8.98573 15.5795ZM14.5653 15.5795C14.7854 15.5795 14.9716 15.6536 15.1239 15.8017C15.2763 15.9498 15.3524 16.1275 15.3524 16.3349C15.3524 16.5423 15.2784 16.72 15.1303 16.8681C14.9864 17.012 14.8108 17.0839 14.6034 17.0839C14.4003 17.0839 14.2247 17.0099 14.0765 16.8618C13.9284 16.7094 13.8544 16.5232 13.8544 16.3032V15.5795H14.5653Z" fill="#888888"/>
</svg>
