<svg width="20" height="20" viewBox="0 0 20 20" fill="none" xmlns="http://www.w3.org/2000/svg">
<path d="M0.015625 16.8828C0.015625 17.5234 0.174479 18.0052 0.492188 18.3281C0.815104 18.6562 1.29688 18.8203 1.9375 18.8203H12.8516C13.4922 18.8203 13.9714 18.6562 14.2891 18.3281C14.612 18.0052 14.7734 17.5234 14.7734 16.8828V3.39844C14.7734 2.7526 14.612 2.26823 14.2891 1.94532C13.9714 1.6172 13.4922 1.45312 12.8516 1.45312H11.2188C10.5729 1.45312 10.0885 1.6172 9.76562 1.94532C9.44792 2.26823 9.28906 2.7526 9.28906 3.39844V6.48438C9.1276 6.44792 8.95833 6.4297 8.78125 6.4297H5.5C5.32292 6.4297 5.15104 6.44792 4.98438 6.48438V5.60157C4.98438 4.95574 4.82552 4.47135 4.50781 4.14844C4.1901 3.82031 3.70833 3.65626 3.0625 3.65626H1.9375C1.29688 3.65626 0.815104 3.82031 0.492188 4.14844C0.174479 4.47135 0.015625 4.95574 0.015625 5.60157V16.8828ZM1.48438 16.6875V5.78907C1.48438 5.57553 1.53906 5.41146 1.64844 5.29688C1.76302 5.18229 1.93229 5.12501 2.15625 5.12501H2.84375C3.07292 5.12501 3.23958 5.18229 3.34375 5.29688C3.45312 5.41146 3.50781 5.57553 3.50781 5.78907V17.3438H2.15625C1.93229 17.3438 1.76302 17.2891 1.64844 17.1797C1.53906 17.0703 1.48438 16.9062 1.48438 16.6875ZM4.98438 17.3438V8.5547C4.98438 8.34116 5.03906 8.17969 5.14844 8.07031C5.26302 7.95573 5.43229 7.89845 5.65625 7.89845H8.625C8.85417 7.89845 9.02083 7.95573 9.125 8.07031C9.23438 8.17969 9.28906 8.34116 9.28906 8.5547V17.3438H4.98438ZM10.7656 17.3438V3.58594C10.7656 3.3724 10.8203 3.20834 10.9297 3.09376C11.0443 2.97918 11.2135 2.92189 11.4375 2.92189H12.6328C12.8568 2.92189 13.0234 2.97918 13.1328 3.09376C13.2474 3.20834 13.3047 3.3724 13.3047 3.58594V16.6875C13.3047 16.9062 13.2474 17.0703 13.1328 17.1797C13.0234 17.2891 12.8568 17.3438 12.6328 17.3438H10.7656ZM5.63281 9.35938C5.63281 9.5 5.67969 9.61979 5.77344 9.71875C5.8724 9.81771 5.99479 9.8672 6.14062 9.8672H8.16406C8.3099 9.8672 8.42969 9.81771 8.52344 9.71875C8.6224 9.61979 8.67188 9.5 8.67188 9.35938C8.67188 9.21875 8.6224 9.10156 8.52344 9.00781C8.42969 8.90885 8.3099 8.85938 8.16406 8.85938H6.14062C5.98958 8.85938 5.86719 8.90885 5.77344 9.00781C5.67969 9.10156 5.63281 9.21875 5.63281 9.35938ZM5.63281 15.8828C5.63281 16.0234 5.67969 16.1432 5.77344 16.2422C5.86719 16.3411 5.98958 16.3906 6.14062 16.3906H8.16406C8.3099 16.3906 8.42969 16.3411 8.52344 16.2422C8.6224 16.1432 8.67188 16.0234 8.67188 15.8828C8.67188 15.7422 8.6224 15.625 8.52344 15.5312C8.42969 15.4323 8.3099 15.3828 8.16406 15.3828H6.14062C5.99479 15.3828 5.8724 15.4323 5.77344 15.5312C5.67969 15.625 5.63281 15.7422 5.63281 15.8828ZM15.2031 17.1328C15.276 17.7682 15.487 18.2318 15.8359 18.5234C16.1849 18.8203 16.6797 18.9271 17.3203 18.8438L18.2656 18.7266C18.9062 18.6484 19.3646 18.4323 19.6406 18.0781C19.9219 17.7292 20.0286 17.237 19.9609 16.6016L18.6875 5.19532C18.6198 4.5547 18.4089 4.08855 18.0547 3.79689C17.7057 3.50001 17.2109 3.39324 16.5703 3.47657L15.625 3.59376C14.9792 3.67709 14.5156 3.89323 14.2344 4.24219C13.9531 4.59115 13.8516 5.08595 13.9297 5.72657L15.2031 17.1328ZM16.6406 16.7734L15.4141 5.75782C15.388 5.54428 15.4219 5.37761 15.5156 5.25782C15.6146 5.13282 15.7786 5.05469 16.0078 5.02344L16.5078 4.96094C16.7318 4.92969 16.9062 4.96616 17.0312 5.07032C17.1562 5.17449 17.2292 5.33074 17.25 5.53907L18.4766 16.5625C18.5026 16.776 18.4661 16.9427 18.3672 17.0625C18.2734 17.1875 18.1146 17.263 17.8906 17.2891L17.375 17.3594C17.1562 17.3906 16.9844 17.3542 16.8594 17.25C16.7344 17.151 16.6615 16.9922 16.6406 16.7734Z" fill="#383838"/>
</svg>
