<svg width="20" height="20" viewBox="0 0 20 20" fill="none" xmlns="http://www.w3.org/2000/svg">
<path d="M9.99219 18.4297C11.0964 18.4297 12.1354 18.2188 13.1094 17.7969C14.0833 17.3802 14.9427 16.7995 15.6875 16.0547C16.4323 15.3099 17.0156 14.4505 17.4375 13.4766C17.8594 12.5026 18.0703 11.4635 18.0703 10.3594C18.0703 9.25521 17.8594 8.21615 17.4375 7.24219C17.0156 6.26823 16.4323 5.41146 15.6875 4.67188C14.9427 3.92708 14.0833 3.34375 13.1094 2.92188C12.1354 2.5 11.0938 2.28906 9.98438 2.28906C8.88021 2.28906 7.84115 2.5 6.86719 2.92188C5.89844 3.34375 5.04167 3.92708 4.29688 4.67188C3.55729 5.41146 2.97656 6.26823 2.55469 7.24219C2.13281 8.21615 1.92188 9.25521 1.92188 10.3594C1.92188 11.4635 2.13281 12.5026 2.55469 13.4766C2.97656 14.4505 3.55729 15.3099 4.29688 16.0547C5.04167 16.7995 5.90104 17.3802 6.875 17.7969C7.84896 18.2188 8.88802 18.4297 9.99219 18.4297ZM9.99219 16.8359C9.09635 16.8359 8.25521 16.6693 7.46875 16.3359C6.6875 16.0026 6 15.5391 5.40625 14.9453C4.81771 14.3516 4.35677 13.6641 4.02344 12.8828C3.6901 12.1016 3.52344 11.2604 3.52344 10.3594C3.52344 9.46354 3.6901 8.625 4.02344 7.84375C4.35677 7.05729 4.81771 6.36719 5.40625 5.77344C5.99479 5.17969 6.67969 4.71615 7.46094 4.38281C8.2474 4.04948 9.08854 3.88281 9.98438 3.88281C10.8854 3.88281 11.7266 4.04948 12.5078 4.38281C13.2891 4.71615 13.9766 5.17969 14.5703 5.77344C15.1693 6.36719 15.6354 7.05729 15.9688 7.84375C16.3021 8.625 16.4688 9.46354 16.4688 10.3594C16.4688 11.2604 16.3021 12.1016 15.9688 12.8828C15.6354 13.6641 15.1719 14.3516 14.5781 14.9453C13.9896 15.5391 13.3021 16.0026 12.5156 16.3359C11.7344 16.6693 10.8932 16.8359 9.99219 16.8359ZM9.82031 11.9141C10.0339 11.9141 10.2031 11.8594 10.3281 11.75C10.4583 11.6406 10.5286 11.5078 10.5391 11.3516C10.5443 11.3359 10.5469 11.3203 10.5469 11.3047C10.5469 11.2839 10.5469 11.2682 10.5469 11.2578C10.5573 11.0547 10.6302 10.8776 10.7656 10.7266C10.901 10.5755 11.099 10.4167 11.3594 10.25C11.7396 9.99479 12.0443 9.73438 12.2734 9.46875C12.5078 9.20312 12.625 8.84115 12.625 8.38281C12.625 7.95052 12.5078 7.58333 12.2734 7.28125C12.0391 6.97917 11.7266 6.7474 11.3359 6.58594C10.9505 6.42448 10.5286 6.34375 10.0703 6.34375C9.39844 6.34375 8.84375 6.47656 8.40625 6.74219C7.97396 7.00781 7.69792 7.32292 7.57812 7.6875C7.55208 7.75521 7.53125 7.82292 7.51562 7.89062C7.50521 7.95312 7.5 8.02083 7.5 8.09375C7.5 8.28125 7.5625 8.42969 7.6875 8.53906C7.8125 8.64844 7.95573 8.70312 8.11719 8.70312C8.25781 8.70312 8.3776 8.67448 8.47656 8.61719C8.58073 8.5599 8.66927 8.48177 8.74219 8.38281L8.86719 8.21875C8.95573 8.07812 9.05469 7.96094 9.16406 7.86719C9.27865 7.76823 9.40104 7.69271 9.53125 7.64062C9.66667 7.58854 9.8125 7.5625 9.96875 7.5625C10.2865 7.5625 10.5417 7.64844 10.7344 7.82031C10.9323 7.98698 11.0312 8.20312 11.0312 8.46875C11.0312 8.71354 10.9479 8.91667 10.7812 9.07812C10.6198 9.23958 10.3724 9.4349 10.0391 9.66406C9.75781 9.85677 9.52604 10.0651 9.34375 10.2891C9.16667 10.513 9.07812 10.8047 9.07812 11.1641C9.07812 11.1745 9.07812 11.1875 9.07812 11.2031C9.07812 11.2188 9.07812 11.2344 9.07812 11.25C9.07812 11.6927 9.32552 11.9141 9.82031 11.9141ZM9.80469 14.3125C10.0599 14.3125 10.276 14.2318 10.4531 14.0703C10.6302 13.9089 10.7188 13.7031 10.7188 13.4531C10.7188 13.2031 10.6302 12.9974 10.4531 12.8359C10.276 12.6745 10.0599 12.5938 9.80469 12.5938C9.54948 12.5938 9.33333 12.6771 9.15625 12.8438C8.97917 13.0052 8.89062 13.2083 8.89062 13.4531C8.89062 13.6979 8.97917 13.9036 9.15625 14.0703C9.33854 14.2318 9.55469 14.3125 9.80469 14.3125Z" fill="#383838"/>
</svg>
