<svg width="16" height="16" viewBox="0 0 16 16" fill="none" xmlns="http://www.w3.org/2000/svg">
<path d="M4.24902 14.2979H12.0557C12.7848 14.2979 13.3408 14.1064 13.7236 13.7236C14.1064 13.3408 14.2979 12.7871 14.2979 12.0625V4.22852C14.2979 3.50846 14.1064 2.95703 13.7236 2.57422C13.3408 2.19141 12.7848 2 12.0557 2H4.24902C3.51986 2 2.96159 2.19141 2.57422 2.57422C2.19141 2.95247 2 3.50391 2 4.22852V12.0625C2 12.7917 2.19141 13.3454 2.57422 13.7236C2.96159 14.1064 3.51986 14.2979 4.24902 14.2979ZM4.40625 12.7188C4.13737 12.7188 3.93229 12.6504 3.79102 12.5137C3.64974 12.377 3.5791 12.1673 3.5791 11.8848V4.41309C3.5791 4.13053 3.64974 3.9209 3.79102 3.78418C3.93229 3.64746 4.13737 3.5791 4.40625 3.5791H11.8984C12.1628 3.5791 12.3656 3.64746 12.5068 3.78418C12.6527 3.9209 12.7256 4.13053 12.7256 4.41309V11.8848C12.7256 12.1673 12.6527 12.377 12.5068 12.5137C12.3656 12.6504 12.1628 12.7188 11.8984 12.7188H4.40625ZM6.46387 11.0508C6.68717 11.0508 6.86263 10.9824 6.99023 10.8457C7.1224 10.7044 7.18848 10.5107 7.18848 10.2646V9.39648L7.83105 8.69922L9.30762 10.6885C9.40332 10.8161 9.49902 10.9095 9.59473 10.9688C9.69043 11.0234 9.80436 11.0508 9.93652 11.0508C10.137 11.0508 10.3034 10.987 10.4355 10.8594C10.5723 10.7318 10.6406 10.5723 10.6406 10.3809C10.6406 10.2897 10.6247 10.2054 10.5928 10.1279C10.5654 10.0459 10.5176 9.95703 10.4492 9.86133L8.9043 7.81738L10.3262 6.2793C10.4036 6.18815 10.4583 6.10612 10.4902 6.0332C10.5221 5.95573 10.5381 5.86686 10.5381 5.7666C10.5381 5.59798 10.472 5.45671 10.3398 5.34277C10.2122 5.22428 10.055 5.16504 9.86816 5.16504C9.74512 5.16504 9.63802 5.1901 9.54688 5.24023C9.46029 5.29036 9.36686 5.37467 9.2666 5.49316L7.24316 7.72852H7.18848V5.97852C7.18848 5.72331 7.12467 5.52507 6.99707 5.38379C6.86947 5.23796 6.69173 5.16504 6.46387 5.16504C6.23145 5.16504 6.05143 5.23568 5.92383 5.37695C5.79622 5.51823 5.73242 5.71875 5.73242 5.97852V10.2373C5.73242 10.4925 5.79622 10.693 5.92383 10.8389C6.05143 10.9801 6.23145 11.0508 6.46387 11.0508Z" fill="#01ACFD"/>
</svg>
