<svg width="20" height="19" viewBox="0 0 20 19" fill="none" xmlns="http://www.w3.org/2000/svg">
<path d="M14.5743 5.23809C14.4663 5.12999 14.3435 5.07593 14.2065 5.07566C14.1774 5.07566 14.1345 5.08297 14.0765 5.09733L10.251 6.04405C10.0563 6.09224 9.88693 5.90296 9.95643 5.71476L11.6425 1.14902C11.6786 1.07692 11.6968 1.01209 11.6968 0.954316C11.6968 0.831786 11.6497 0.725472 11.5561 0.635298C11.4624 0.545011 11.3469 0.5 11.21 0.5H8.5C8.38463 0.5 7.93144 0.516191 7.5 1C7.1409 1.40269 7.02876 1.89914 7 2L5.01178 9.77048C4.97568 9.9434 5.02254 10.0841 5.15239 10.1924C5.24608 10.2719 5.35778 10.3113 5.48762 10.3113C5.54536 10.3113 5.58863 10.3079 5.61746 10.3006L9.60807 9.30784C9.79047 9.26246 9.95583 9.42705 9.91131 9.60966L7.87825 17.9485C7.84945 18.0638 7.86563 18.172 7.92701 18.2729C7.98835 18.374 8.08034 18.4424 8.20287 18.4785C8.27497 18.4928 8.32559 18.5 8.35439 18.5C8.56353 18.5 8.71486 18.41 8.8087 18.2296L14.65 5.714C14.7294 5.54097 14.7043 5.38225 14.5743 5.23809Z" fill="black"/>
</svg>
