<svg width="320" height="120" viewBox="0 0 320 120" fill="none" xmlns="http://www.w3.org/2000/svg">
<path d="M43.5542 36.1985L30.5579 28.6335L17.5615 21.069C16.9979 20.741 16.3585 20.5684 15.7077 20.5684C15.0569 20.5685 14.4176 20.7412 13.854 21.0693C13.2904 21.3973 12.8223 21.8691 12.4969 22.4373C12.1714 23.0055 12.0001 23.65 12 24.3061V54.5661C11.9999 55.2222 12.1712 55.8668 12.4966 56.4351C12.822 57.0034 13.2901 57.4752 13.8537 57.8033C14.4174 58.1314 15.0568 58.3041 15.7076 58.3041C16.3585 58.3041 16.9979 58.1313 17.5615 57.8032L30.5579 50.2387L43.5542 42.6737C44.1181 42.3457 44.5864 41.8739 44.912 41.3055C45.2376 40.7372 45.4091 40.0924 45.4091 39.4361C45.4091 38.7798 45.2376 38.135 44.912 37.5667C44.5864 36.9983 44.1181 36.5264 43.5542 36.1985V36.1985Z" fill="#F02D5E"/>
<path d="M43.5542 78.3262L30.5578 70.7617L17.561 63.1972C16.9974 62.8691 16.3581 62.6963 15.7073 62.6962C15.0565 62.6962 14.4172 62.8688 13.8535 63.1969C13.2899 63.5249 12.822 63.9968 12.4966 64.565C12.1712 65.1332 11.9999 65.7778 12 66.4339V96.6938C12 97.3499 12.1713 97.9945 12.4966 98.5626C12.822 99.1308 13.29 99.6027 13.8536 99.9307C14.4172 100.259 15.0565 100.432 15.7073 100.432C16.3581 100.432 16.9974 100.259 17.561 99.931L30.5578 92.3665L43.5542 84.802C44.1181 84.4739 44.5864 84.002 44.912 83.4336C45.2376 82.8652 45.409 82.2204 45.409 81.5641C45.409 80.9077 45.2376 80.2629 44.912 79.6946C44.5864 79.1262 44.1181 78.6543 43.5542 78.3262Z" fill="#F02D5E"/>
<path d="M80.6198 57.2627L67.6234 49.6978L54.6271 42.1332C54.0635 41.8051 53.4241 41.6324 52.7732 41.6324C52.1224 41.6323 51.483 41.805 50.9193 42.1331C50.3557 42.4612 49.8876 42.9331 49.5622 43.5013C49.2368 44.0696 49.0655 44.7142 49.0656 45.3704V75.6303C49.0656 76.2864 49.237 76.931 49.5625 77.4991C49.8879 78.0673 50.356 78.5391 50.9196 78.8672C51.4832 79.1952 52.1225 79.368 52.7733 79.368C53.4241 79.3681 54.0634 79.1955 54.6271 78.8675L67.6234 71.3025L80.6198 63.738C81.1837 63.41 81.652 62.9381 81.9776 62.3698C82.3032 61.8014 82.4746 61.1567 82.4746 60.5004C82.4746 59.844 82.3032 59.1993 81.9776 58.6309C81.652 58.0626 81.1837 57.5907 80.6198 57.2627V57.2627Z" fill="#F02D5E"/>
<path d="M122.146 79.1439V35.2888H140.845C150.454 35.2888 156.492 40.0674 156.492 48.3802C156.492 55.6455 152.077 60.0309 144.415 60.4236V60.9473C147.597 61.9949 149.48 63.9584 151.103 66.969L157.595 79.1439H149.48L143.31 67.8199C141.297 64.024 139.479 62.2565 134.285 62.2565H129.159V79.1444L122.146 79.1439ZM129.158 56.4304H141.689C147.339 56.4304 149.48 54.3359 149.48 49.0341C149.48 43.8633 147.337 41.6377 141.689 41.6377H129.159L129.158 56.4304Z" fill="white"/>
<path d="M159.348 62.8446C159.348 52.7653 165.321 45.9567 174.93 45.9567C183.631 45.9567 189.731 51.1934 189.731 60.0956C189.732 61.5879 189.601 63.0773 189.342 64.5465H165.904C166.164 70.5031 168.304 73.5142 175.058 73.5142C180.447 73.5142 182.524 71.6812 182.524 68.7357V68.2124H189.472V68.8012C189.472 75.4772 183.693 79.798 174.993 79.798C164.347 79.7985 159.348 72.9889 159.348 62.8446ZM165.971 59.8345H183.046C183.306 54.2701 180.319 51.9143 174.801 51.9143C168.697 51.9168 166.362 54.7944 165.971 59.8345Z" fill="white"/>
<path d="M195.056 90.4678V46.6122H201.419V51.9796H201.743C203.237 48.1831 206.938 45.9574 212.521 45.9574C221.611 45.9574 226.61 52.5694 226.61 62.9103C226.61 73.1872 221.741 79.7982 212.976 79.7982C207.197 79.7982 203.625 77.1138 202.198 74.1017H202.003V90.4658L195.056 90.4678ZM210.833 73.7765C217.001 73.7765 219.598 70.896 219.598 62.9103C219.598 54.8601 217.066 51.9796 210.833 51.9796C205.12 51.9796 202.003 54.5319 202.003 59.9657V65.7908C202.003 71.2247 205.12 73.7765 210.833 73.7765Z" fill="white"/>
<path d="M232.192 79.1439V35.2889H239.204V79.1439H232.192Z" fill="white"/>
<path d="M244.333 71.0924C244.333 65.7251 248.229 62.9101 255.111 61.9291L266.409 60.2272V58.4593C266.409 53.6162 264.201 52.176 259.137 52.176C254.008 52.176 251.994 53.8123 251.994 58.1326V59.1141H245.244V58.4588C245.244 51.1935 250.894 45.9567 259.528 45.9567C268.552 45.9567 273.097 51.4556 273.097 59.3753V79.1431H266.605V74.038H266.28C264.397 77.1131 260.696 79.7985 254.593 79.7985C248.813 79.7985 244.333 76.7874 244.333 71.0924ZM256.864 74.1675C261.409 74.1675 266.409 72.3356 266.409 65.7896V65.2008L256.15 66.7711C252.45 67.2954 251.149 68.1464 251.149 70.5682C251.151 73.1215 252.774 74.1685 256.864 74.1685V74.1675Z" fill="white"/>
<path d="M278.613 89.682V83.9225H283.028C285.819 83.9225 286.793 83.4638 287.832 81.042L289.066 78.2925L275.365 46.6124H283.091L289.583 62.3872L292.505 69.4569H293.025L295.687 62.3872L301.595 46.6124H309.323L294.065 83.006C291.665 88.7656 288.547 90.2713 283.483 90.2713C281.842 90.2774 280.206 90.0795 278.613 89.682V89.682Z" fill="white"/>
</svg>
