<svg width="25" height="24" viewBox="0 0 25 24" fill="none" xmlns="http://www.w3.org/2000/svg">
<g filter="url(#filter0_d_591_4347)">
<rect x="3" y="2" width="20" height="20" rx="4" fill="#F4F4F4"/>
<rect x="3.5" y="2.5" width="19" height="19" rx="3.5" stroke="#EBEBEB"/>
</g>
<path d="M10.3948 15.5V8.22727H13.2641C13.8157 8.22727 14.2857 8.33262 14.6739 8.54332C15.0622 8.75166 15.3581 9.04167 15.5617 9.41335C15.7677 9.78267 15.8707 10.2088 15.8707 10.6918C15.8707 11.1747 15.7665 11.6009 15.5582 11.9702C15.3498 12.3395 15.048 12.6271 14.6526 12.8331C14.2596 13.0391 13.7838 13.142 13.2251 13.142H11.3962V11.9098H12.9765C13.2724 11.9098 13.5162 11.8589 13.708 11.7571C13.9021 11.6529 14.0465 11.5097 14.1412 11.3274C14.2383 11.1428 14.2868 10.9309 14.2868 10.6918C14.2868 10.4503 14.2383 10.2396 14.1412 10.0597C14.0465 9.87737 13.9021 9.73651 13.708 9.63707C13.5139 9.53527 13.2677 9.48438 12.9694 9.48438H11.9324V15.5H10.3948Z" fill="#888888"/>
<defs>
<filter id="filter0_d_591_4347" x="2" y="2" width="22" height="22" filterUnits="userSpaceOnUse" color-interpolation-filters="sRGB">
<feFlood flood-opacity="0" result="BackgroundImageFix"/>
<feColorMatrix in="SourceAlpha" type="matrix" values="0 0 0 0 0 0 0 0 0 0 0 0 0 0 0 0 0 0 127 0" result="hardAlpha"/>
<feOffset dy="1"/>
<feGaussianBlur stdDeviation="0.5"/>
<feComposite in2="hardAlpha" operator="out"/>
<feColorMatrix type="matrix" values="0 0 0 0 0 0 0 0 0 0 0 0 0 0 0 0 0 0 0.25 0"/>
<feBlend mode="normal" in2="BackgroundImageFix" result="effect1_dropShadow_591_4347"/>
<feBlend mode="normal" in="SourceGraphic" in2="effect1_dropShadow_591_4347" result="shape"/>
</filter>
</defs>
</svg>
