<svg width="25" height="24" viewBox="0 0 25 24" fill="none" xmlns="http://www.w3.org/2000/svg">
<rect x="3.32092" y="2.5" width="19" height="19" rx="3.5" fill="#F4F4F4" stroke="#D6D6D6"/>
<path d="M9.5354 16.3636V7.63635H12.9786C13.6405 7.63635 14.2044 7.76277 14.6703 8.01562C15.1363 8.26562 15.4914 8.61363 15.7357 9.05965C15.9828 9.50283 16.1064 10.0142 16.1064 10.5937C16.1064 11.1733 15.9814 11.6846 15.7314 12.1278C15.4814 12.571 15.1192 12.9162 14.6448 13.1633C14.1732 13.4105 13.6022 13.5341 12.9317 13.5341H10.7371V12.0554H12.6334C12.9885 12.0554 13.2811 11.9943 13.5113 11.8721C13.7442 11.7471 13.9175 11.5753 14.0311 11.3565C14.1476 11.1349 14.2059 10.8807 14.2059 10.5937C14.2059 10.304 14.1476 10.0511 14.0311 9.83522C13.9175 9.61647 13.7442 9.44744 13.5113 9.32812C13.2783 9.20596 12.9828 9.14488 12.6249 9.14488H11.3806V16.3636H9.5354Z" fill="#888888"/>
</svg>
