<svg width="25" height="24" viewBox="0 0 25 24" fill="none" xmlns="http://www.w3.org/2000/svg">
<rect x="3.5" y="3.5" width="19" height="19" rx="3.5" fill="#F4F4F4" stroke="#D6D6D6"/>
<path d="M10.3948 16.5V9.22727H13.2641C13.8157 9.22727 14.2857 9.33262 14.6739 9.54332C15.0622 9.75166 15.3581 10.0417 15.5617 10.4134C15.7677 10.7827 15.8707 11.2088 15.8707 11.6918C15.8707 12.1747 15.7665 12.6009 15.5582 12.9702C15.3498 13.3395 15.048 13.6271 14.6526 13.8331C14.2596 14.0391 13.7838 14.142 13.2251 14.142H11.3962V12.9098H12.9765C13.2724 12.9098 13.5162 12.8589 13.708 12.7571C13.9021 12.6529 14.0465 12.5097 14.1412 12.3274C14.2383 12.1428 14.2868 11.9309 14.2868 11.6918C14.2868 11.4503 14.2383 11.2396 14.1412 11.0597C14.0465 10.8774 13.9021 10.7365 13.708 10.6371C13.5139 10.5353 13.2677 10.4844 12.9694 10.4844H11.9324V16.5H10.3948Z" fill="#888888"/>
</svg>
