<svg width="24" height="24" viewBox="0 0 24 24" fill="none" xmlns="http://www.w3.org/2000/svg">
<path d="M6.48242 8.4209H13.918C14.0762 8.4209 14.2051 8.36816 14.3047 8.2627C14.4102 8.15723 14.4629 8.02832 14.4629 7.87598C14.4629 7.72363 14.4102 7.59766 14.3047 7.49805C14.2051 7.39258 14.0762 7.33984 13.918 7.33984H6.48242C6.32422 7.33984 6.19238 7.39258 6.08691 7.49805C5.9873 7.59766 5.9375 7.72363 5.9375 7.87598C5.9375 8.02832 5.9873 8.15723 6.08691 8.2627C6.19238 8.36816 6.32422 8.4209 6.48242 8.4209ZM6.48242 16.8145H13.918C14.0762 16.8145 14.2051 16.7646 14.3047 16.665C14.4102 16.5654 14.4629 16.4395 14.4629 16.2871C14.4629 16.1289 14.4102 15.9971 14.3047 15.8916C14.2051 15.7861 14.0762 15.7334 13.918 15.7334H6.48242C6.32422 15.7334 6.19238 15.7861 6.08691 15.8916C5.9873 15.9971 5.9375 16.1289 5.9375 16.2871C5.9375 16.4395 5.9873 16.5654 6.08691 16.665C6.19238 16.7646 6.32422 16.8145 6.48242 16.8145ZM4.75977 20.1807H19.9648C20.8906 20.1807 21.582 19.9521 22.0391 19.4951C22.4961 19.0439 22.7246 18.3643 22.7246 17.4561V6.72461C22.7246 5.81641 22.4961 5.13672 22.0391 4.68555C21.582 4.22852 20.8906 4 19.9648 4H4.75977C3.83984 4 3.14844 4.22852 2.68555 4.68555C2.22852 5.13672 2 5.81641 2 6.72461V17.4561C2 18.3643 2.22852 19.0439 2.68555 19.4951C3.14844 19.9521 3.83984 20.1807 4.75977 20.1807ZM4.77734 18.7656C4.33789 18.7656 4.00098 18.6514 3.7666 18.4229C3.53223 18.1885 3.41504 17.8428 3.41504 17.3857V6.79492C3.41504 6.33789 3.53223 5.99512 3.7666 5.7666C4.00098 5.53223 4.33789 5.41504 4.77734 5.41504H19.9473C20.3809 5.41504 20.7148 5.53223 20.9492 5.7666C21.1895 5.99512 21.3096 6.33789 21.3096 6.79492V17.3857C21.3096 17.8428 21.1895 18.1885 20.9492 18.4229C20.7148 18.6514 20.3809 18.7656 19.9473 18.7656H4.77734ZM5.7002 14.1514H19.0332C19.3965 14.1514 19.6807 14.0459 19.8857 13.835C20.0908 13.6182 20.1934 13.3281 20.1934 12.9648V11.1807C20.1934 10.8174 20.0908 10.5303 19.8857 10.3193C19.6807 10.1025 19.3965 9.99414 19.0332 9.99414H5.7002C5.33691 9.99414 5.05273 10.1025 4.84766 10.3193C4.64258 10.5303 4.54004 10.8174 4.54004 11.1807V12.9648C4.54004 13.3281 4.64258 13.6182 4.84766 13.835C5.05273 14.0459 5.33691 14.1514 5.7002 14.1514ZM6.49121 12.6221C6.32715 12.6221 6.19238 12.5693 6.08691 12.4639C5.9873 12.3584 5.9375 12.2266 5.9375 12.0684C5.9375 11.9219 5.9873 11.7988 6.08691 11.6992C6.19238 11.5938 6.32715 11.541 6.49121 11.541H10.8154C10.9736 11.541 11.1025 11.5938 11.2021 11.6992C11.3076 11.7988 11.3604 11.9219 11.3604 12.0684C11.3604 12.2266 11.3076 12.3584 11.2021 12.4639C11.1025 12.5693 10.9736 12.6221 10.8154 12.6221H6.49121Z" fill="#38383D"/>
</svg>
