<svg width="20" height="20" viewBox="0 0 20 20" fill="none" xmlns="http://www.w3.org/2000/svg">
<path d="M15.5556 0H4.44444C1.98984 0 0 1.98984 0 4.44444V15.5556C0 18.0101 1.98984 20 4.44444 20H15.5556C18.0101 20 20 18.0101 20 15.5556V4.44444C20 1.98984 18.0101 0 15.5556 0Z" fill="#FF0000"/>
<path d="M15.5556 0H4.44444C1.98984 0 0 1.98984 0 4.44444V15.5556C0 18.0101 1.98984 20 4.44444 20H15.5556C18.0101 20 20 18.0101 20 15.5556V4.44444C20 1.98984 18.0101 0 15.5556 0Z" fill="#383838"/>
<path d="M10.129 6.63381L6.50003 4.52054C6.42134 4.47476 6.33209 4.45067 6.24124 4.45069C6.15039 4.4507 6.06114 4.47483 5.98247 4.52064C5.9038 4.56646 5.83846 4.63236 5.79302 4.7117C5.74758 4.79104 5.72364 4.88106 5.72361 4.97269V9.19918C5.72363 9.29081 5.74758 9.38082 5.79301 9.46017C5.83844 9.53952 5.90379 9.60541 5.98247 9.65123C6.06114 9.69706 6.15039 9.72118 6.24123 9.7212C6.33209 9.72122 6.42134 9.69712 6.50003 9.65133L10.129 7.53809C10.2077 7.49228 10.273 7.42637 10.3184 7.347C10.3639 7.26763 10.3878 7.1776 10.3878 7.08596C10.3878 6.99431 10.3639 6.90428 10.3184 6.82491C10.273 6.74553 10.2077 6.67963 10.129 6.63381Z" fill="white"/>
<path d="M10.1127 12.5182L6.48376 10.405C6.40507 10.3592 6.31581 10.3351 6.22496 10.3351C6.13411 10.3351 6.04487 10.3593 5.96619 10.4051C5.88751 10.4509 5.82217 10.5168 5.77673 10.5961C5.7313 10.6755 5.70736 10.7655 5.70733 10.8571V15.0836C5.70736 15.1752 5.7313 15.2652 5.77673 15.3446C5.82217 15.424 5.88751 15.4899 5.96619 15.5357C6.04487 15.5814 6.13411 15.6056 6.22496 15.6057C6.31581 15.6057 6.40507 15.5816 6.48376 15.5358L10.1127 13.4226C10.1914 13.3767 10.2567 13.3108 10.3022 13.2314C10.3476 13.1521 10.3715 13.062 10.3715 12.9703C10.3715 12.8787 10.3476 12.7887 10.3022 12.7093C10.2567 12.63 10.1914 12.564 10.1127 12.5182Z" fill="white"/>
<path d="M15.2876 9.57603L11.6586 7.46279C11.5799 7.417 11.4907 7.39291 11.3998 7.39292C11.309 7.39294 11.2198 7.41708 11.141 7.46289C11.0624 7.5087 10.997 7.5746 10.9516 7.65394C10.9062 7.73329 10.8822 7.8233 10.8822 7.91493V12.1414C10.8822 12.233 10.9062 12.3231 10.9516 12.4024C10.997 12.4818 11.0624 12.5477 11.141 12.5934C11.2198 12.6392 11.309 12.6634 11.3998 12.6634C11.4907 12.6634 11.5799 12.6393 11.6586 12.5936L15.2876 10.4803C15.3662 10.4345 15.4316 10.3686 15.477 10.2892C15.5224 10.2099 15.5463 10.1198 15.5463 10.0282C15.5463 9.93652 15.5224 9.8465 15.477 9.76713C15.4316 9.68776 15.3662 9.62186 15.2876 9.57603Z" fill="white"/>
</svg>
