<svg width="20" height="20" viewBox="0 0 20 20" fill="none" xmlns="http://www.w3.org/2000/svg">
<path d="M10.1904 4.55015L4.28907 1.1136C4.16111 1.03914 4.01596 0.999964 3.86824 1C3.72049 1.00002 3.57536 1.03926 3.44742 1.11376C3.31949 1.18826 3.21323 1.29542 3.13934 1.42445C3.06544 1.55348 3.02652 1.69985 3.02647 1.84887V8.72191C3.02651 8.87092 3.06544 9.01729 3.13933 9.14632C3.21321 9.27537 3.31947 9.38251 3.44742 9.45703C3.57536 9.53154 3.72049 9.57077 3.86822 9.57081C4.01596 9.57084 4.16111 9.53165 4.28907 9.45719L10.1904 6.02067C10.3183 5.94618 10.4246 5.83899 10.4985 5.70993C10.5724 5.58086 10.6113 5.43445 10.6113 5.28542C10.6113 5.13639 10.5724 4.98998 10.4985 4.86092C10.4246 4.73183 10.3183 4.62467 10.1904 4.55015Z" fill="#383838"/>
<path d="M10.1639 14.1193L4.2626 10.6828C4.13464 10.6083 3.9895 10.5691 3.84175 10.5691C3.69402 10.5692 3.54889 10.6084 3.42095 10.6829C3.293 10.7574 3.18674 10.8646 3.11286 10.9936C3.03897 11.1227 3.00004 11.269 3 11.418V18.291C3.00004 18.44 3.03897 18.5864 3.11286 18.7154C3.18674 18.8446 3.293 18.9517 3.42095 19.0262C3.54889 19.1006 3.69402 19.1398 3.84175 19.14C3.9895 19.14 4.13464 19.1008 4.2626 19.0264L10.1639 15.5899C10.2919 15.5153 10.3982 15.4081 10.472 15.2791C10.5459 15.1501 10.5848 15.0036 10.5848 14.8545C10.5848 14.7054 10.5459 14.5591 10.472 14.4301C10.3982 14.301 10.2919 14.1937 10.1639 14.1193Z" fill="#383838"/>
<path d="M18.5792 9.33474L12.6778 5.89822C12.5498 5.82376 12.4047 5.78459 12.2569 5.7846C12.1093 5.78464 11.9642 5.82388 11.8361 5.89838C11.7083 5.97288 11.602 6.08004 11.5281 6.20907C11.4542 6.3381 11.4153 6.48448 11.4152 6.63349V13.5066C11.4153 13.6555 11.4542 13.802 11.5281 13.931C11.602 14.06 11.7083 14.1672 11.8361 14.2416C11.9642 14.316 12.1093 14.3554 12.2569 14.3554C12.4047 14.3554 12.5498 14.3162 12.6778 14.2418L18.5792 10.8053C18.7071 10.7307 18.8134 10.6236 18.8873 10.4945C18.9612 10.3654 19 10.219 19 10.07C19 9.92096 18.9612 9.77457 18.8873 9.6455C18.8134 9.51642 18.7071 9.40925 18.5792 9.33474Z" fill="#383838"/>
</svg>
