<svg width="20" height="20" viewBox="0 0 20 20" fill="none" xmlns="http://www.w3.org/2000/svg">
<path d="M15.5556 0H4.44444C1.98984 0 0 1.98984 0 4.44444V15.5556C0 18.0101 1.98984 20 4.44444 20H15.5556C18.0101 20 20 18.0101 20 15.5556V4.44444C20 1.98984 18.0101 0 15.5556 0Z" fill="#383838"/>
<path d="M10.129 6.63381L6.50005 4.52054C6.42137 4.47475 6.33211 4.45066 6.24127 4.45068C6.15041 4.45069 6.06117 4.47483 5.98249 4.52064C5.90382 4.56645 5.83848 4.63235 5.79304 4.71169C5.7476 4.79104 5.72367 4.88105 5.72363 4.97268V9.19917C5.72366 9.29081 5.7476 9.38082 5.79303 9.46016C5.83847 9.53952 5.90381 9.60541 5.98249 9.65123C6.06117 9.69705 6.15041 9.72117 6.24125 9.72119C6.33211 9.72122 6.42137 9.69712 6.50005 9.65133L10.129 7.53808C10.2077 7.49227 10.273 7.42636 10.3185 7.34699C10.3639 7.26763 10.3878 7.17759 10.3878 7.08595C10.3878 6.99431 10.3639 6.90427 10.3185 6.82491C10.273 6.74553 10.2077 6.67963 10.129 6.63381Z" fill="#F9F9F9"/>
<path d="M10.1126 12.5182L6.4837 10.4049C6.40501 10.3592 6.31575 10.3351 6.2249 10.3351C6.13405 10.3351 6.04481 10.3592 5.96613 10.405C5.88745 10.4509 5.82211 10.5168 5.77668 10.5961C5.73124 10.6755 5.7073 10.7655 5.70728 10.8571V15.0835C5.7073 15.1752 5.73124 15.2652 5.77668 15.3445C5.82211 15.424 5.88745 15.4899 5.96613 15.5356C6.04481 15.5814 6.13405 15.6055 6.2249 15.6056C6.31575 15.6056 6.40501 15.5815 6.4837 15.5357L10.1126 13.4225C10.1913 13.3766 10.2567 13.3107 10.3021 13.2314C10.3475 13.1521 10.3715 13.062 10.3715 12.9703C10.3715 12.8786 10.3475 12.7886 10.3021 12.7093C10.2567 12.63 10.1913 12.564 10.1126 12.5182Z" fill="#F9F9F9"/>
<path d="M15.2876 9.57606L11.6586 7.46281C11.5799 7.41702 11.4907 7.39293 11.3998 7.39294C11.309 7.39297 11.2198 7.4171 11.141 7.46291C11.0624 7.50872 10.9971 7.57462 10.9516 7.65397C10.9062 7.73331 10.8822 7.82332 10.8822 7.91496V12.1415C10.8822 12.233 10.9062 12.3231 10.9516 12.4025C10.9971 12.4818 11.0624 12.5477 11.141 12.5935C11.2198 12.6392 11.309 12.6635 11.3998 12.6635C11.4907 12.6635 11.5799 12.6394 11.6586 12.5936L15.2876 10.4803C15.3662 10.4345 15.4316 10.3686 15.477 10.2892C15.5225 10.2099 15.5464 10.1198 15.5464 10.0282C15.5464 9.93655 15.5225 9.84652 15.477 9.76716C15.4316 9.68778 15.3662 9.62188 15.2876 9.57606Z" fill="#F9F9F9"/>
</svg>
