<svg width="24" height="24" viewBox="0 0 24 24" fill="none" xmlns="http://www.w3.org/2000/svg">
<g filter="url(#filter0_d_591_4341)">
<rect x="2" y="2" width="20" height="20" rx="4" fill="#F4F4F4"/>
<rect x="2.5" y="2.5" width="19" height="19" rx="3.5" stroke="#EBEBEB"/>
</g>
<path d="M10.563 16.8264H13.4326C13.7812 16.8264 14.0508 16.7297 14.2412 16.5364C14.4316 16.343 14.5269 16.0764 14.5269 15.7366V13.9041H16.1616C16.3813 13.9041 16.5615 13.8455 16.7021 13.7283C16.8457 13.6082 16.9175 13.447 16.9175 13.2449C16.9175 13.1218 16.8896 13.012 16.834 12.9153C16.7783 12.8186 16.6934 12.7117 16.5791 12.5945L12.624 8.60425C12.5273 8.50757 12.4263 8.43433 12.3208 8.38452C12.2183 8.33472 12.1099 8.30981 11.9956 8.30981C11.8843 8.30981 11.7759 8.33472 11.6704 8.38452C11.5679 8.43433 11.4683 8.50757 11.3716 8.60425L7.4165 12.5945C7.29932 12.7175 7.21289 12.8259 7.15723 12.9197C7.10449 13.0105 7.07812 13.1189 7.07812 13.2449C7.07812 13.447 7.14844 13.6082 7.28906 13.7283C7.42969 13.8455 7.60986 13.9041 7.82959 13.9041H9.46875V15.7366C9.46875 16.0764 9.5625 16.343 9.75 16.5364C9.94043 16.7297 10.2114 16.8264 10.563 16.8264ZM10.897 15.6707C10.8267 15.6707 10.7695 15.6501 10.7256 15.6091C10.6846 15.5652 10.6641 15.5081 10.6641 15.4377V13.0471C10.6641 12.9504 10.6172 12.9021 10.5234 12.9021H8.7876C8.76416 12.9021 8.75244 12.8933 8.75244 12.8757C8.75244 12.864 8.7583 12.8523 8.77002 12.8406L11.9341 9.67212C11.9429 9.66333 11.9531 9.65747 11.9648 9.65454C11.9766 9.64868 11.9868 9.64575 11.9956 9.64575C12.0073 9.64575 12.019 9.64868 12.0308 9.65454C12.0425 9.65747 12.0527 9.66333 12.0615 9.67212L15.2212 12.8406C15.2358 12.8523 15.2432 12.864 15.2432 12.8757C15.2432 12.8933 15.2314 12.9021 15.208 12.9021H13.4722C13.3784 12.9021 13.3315 12.9504 13.3315 13.0471V15.4377C13.3315 15.5051 13.3081 15.5608 13.2612 15.6047C13.2173 15.6487 13.1631 15.6707 13.0986 15.6707H10.897Z" fill="#888888"/>
<defs>
<filter id="filter0_d_591_4341" x="1" y="2" width="22" height="22" filterUnits="userSpaceOnUse" color-interpolation-filters="sRGB">
<feFlood flood-opacity="0" result="BackgroundImageFix"/>
<feColorMatrix in="SourceAlpha" type="matrix" values="0 0 0 0 0 0 0 0 0 0 0 0 0 0 0 0 0 0 127 0" result="hardAlpha"/>
<feOffset dy="1"/>
<feGaussianBlur stdDeviation="0.5"/>
<feComposite in2="hardAlpha" operator="out"/>
<feColorMatrix type="matrix" values="0 0 0 0 0 0 0 0 0 0 0 0 0 0 0 0 0 0 0.25 0"/>
<feBlend mode="normal" in2="BackgroundImageFix" result="effect1_dropShadow_591_4341"/>
<feBlend mode="normal" in="SourceGraphic" in2="effect1_dropShadow_591_4341" result="shape"/>
</filter>
</defs>
</svg>
