<svg width="24" height="24" viewBox="0 0 24 24" fill="none" xmlns="http://www.w3.org/2000/svg">
<rect x="2.5" y="3.5" width="19" height="19" rx="3.5" fill="#F4F4F4" stroke="#D6D6D6"/>
<path d="M10.563 17.8264H13.4326C13.7812 17.8264 14.0508 17.7297 14.2412 17.5364C14.4316 17.343 14.5269 17.0764 14.5269 16.7366V14.9041H16.1616C16.3813 14.9041 16.5615 14.8455 16.7021 14.7283C16.8457 14.6082 16.9175 14.447 16.9175 14.2449C16.9175 14.1218 16.8896 14.012 16.834 13.9153C16.7783 13.8186 16.6934 13.7117 16.5791 13.5945L12.624 9.60425C12.5273 9.50757 12.4263 9.43433 12.3208 9.38452C12.2183 9.33472 12.1099 9.30981 11.9956 9.30981C11.8843 9.30981 11.7759 9.33472 11.6704 9.38452C11.5679 9.43433 11.4683 9.50757 11.3716 9.60425L7.4165 13.5945C7.29932 13.7175 7.21289 13.8259 7.15723 13.9197C7.10449 14.0105 7.07812 14.1189 7.07812 14.2449C7.07812 14.447 7.14844 14.6082 7.28906 14.7283C7.42969 14.8455 7.60986 14.9041 7.82959 14.9041H9.46875V16.7366C9.46875 17.0764 9.5625 17.343 9.75 17.5364C9.94043 17.7297 10.2114 17.8264 10.563 17.8264ZM10.897 16.6707C10.8267 16.6707 10.7695 16.6501 10.7256 16.6091C10.6846 16.5652 10.6641 16.5081 10.6641 16.4377V14.0471C10.6641 13.9504 10.6172 13.9021 10.5234 13.9021H8.7876C8.76416 13.9021 8.75244 13.8933 8.75244 13.8757C8.75244 13.864 8.7583 13.8523 8.77002 13.8406L11.9341 10.6721C11.9429 10.6633 11.9531 10.6575 11.9648 10.6545C11.9766 10.6487 11.9868 10.6458 11.9956 10.6458C12.0073 10.6458 12.019 10.6487 12.0308 10.6545C12.0425 10.6575 12.0527 10.6633 12.0615 10.6721L15.2212 13.8406C15.2358 13.8523 15.2432 13.864 15.2432 13.8757C15.2432 13.8933 15.2314 13.9021 15.208 13.9021H13.4722C13.3784 13.9021 13.3315 13.9504 13.3315 14.0471V16.4377C13.3315 16.5051 13.3081 16.5608 13.2612 16.6047C13.2173 16.6487 13.1631 16.6707 13.0986 16.6707H10.897Z" fill="#888888"/>
</svg>
