<svg width="24" height="24" viewBox="0 0 24 24" fill="none" xmlns="http://www.w3.org/2000/svg">
<rect x="2.5" y="2.5" width="19" height="19" rx="3.5" fill="#F4F4F4" stroke="#D6D6D6"/>
<path d="M10.5652 16.2583H13.4348C13.7834 16.2583 14.053 16.1616 14.2434 15.9683C14.4338 15.7749 14.529 15.5083 14.529 15.1685V13.3359H16.1638C16.3835 13.3359 16.5637 13.2773 16.7043 13.1602C16.8479 13.04 16.9197 12.8789 16.9197 12.6768C16.9197 12.5537 16.8918 12.4438 16.8362 12.3472C16.7805 12.2505 16.6956 12.1436 16.5813 12.0264L12.6262 8.03613C12.5295 7.93945 12.4285 7.86621 12.323 7.81641C12.2205 7.7666 12.1121 7.7417 11.9978 7.7417C11.8865 7.7417 11.7781 7.7666 11.6726 7.81641C11.5701 7.86621 11.4705 7.93945 11.3738 8.03613L7.4187 12.0264C7.30151 12.1494 7.21509 12.2578 7.15942 12.3516C7.10669 12.4424 7.08032 12.5508 7.08032 12.6768C7.08032 12.8789 7.15064 13.04 7.29126 13.1602C7.43189 13.2773 7.61206 13.3359 7.83179 13.3359H9.47095V15.1685C9.47095 15.5083 9.5647 15.7749 9.7522 15.9683C9.94263 16.1616 10.2136 16.2583 10.5652 16.2583ZM10.8992 15.1025C10.8289 15.1025 10.7717 15.082 10.7278 15.041C10.6868 14.9971 10.6663 14.9399 10.6663 14.8696V12.479C10.6663 12.3823 10.6194 12.334 10.5256 12.334H8.7898C8.76636 12.334 8.75464 12.3252 8.75464 12.3076C8.75464 12.2959 8.7605 12.2842 8.77222 12.2725L11.9363 9.10401C11.9451 9.09522 11.9553 9.08936 11.967 9.08643C11.9788 9.08057 11.989 9.07764 11.9978 9.07764C12.0095 9.07764 12.0212 9.08057 12.033 9.08643C12.0447 9.08936 12.0549 9.09522 12.0637 9.10401L15.2234 12.2725C15.238 12.2842 15.2454 12.2959 15.2454 12.3076C15.2454 12.3252 15.2336 12.334 15.2102 12.334H13.4744C13.3806 12.334 13.3337 12.3823 13.3337 12.479V14.8696C13.3337 14.937 13.3103 14.9927 13.2634 15.0366C13.2195 15.0806 13.1653 15.1025 13.1008 15.1025H10.8992Z" fill="#888888"/>
</svg>
