<svg width="20" height="20" viewBox="0 0 20 20" fill="none" xmlns="http://www.w3.org/2000/svg">
<path d="M5.28906 13.6543C5.82422 13.6543 6.32617 13.5547 6.79492 13.3555C7.26367 13.1523 7.67578 12.873 8.03125 12.5176C8.38672 12.1621 8.66406 11.75 8.86328 11.2812C9.06641 10.8086 9.16797 10.3047 9.16797 9.76953C9.16797 9.23438 9.06641 8.73242 8.86328 8.26367C8.66406 7.79492 8.38672 7.38281 8.03125 7.02734C7.67578 6.66797 7.26367 6.38867 6.79492 6.18945C6.32617 5.98633 5.82422 5.88477 5.28906 5.88477C4.75 5.88477 4.24414 5.98633 3.77148 6.18945C3.30273 6.38867 2.89062 6.66797 2.53516 7.02734C2.17969 7.38281 1.90039 7.79492 1.69727 8.26367C1.49805 8.73242 1.39844 9.23438 1.39844 9.76953C1.39844 10.3047 1.49805 10.8086 1.69727 11.2812C1.90039 11.75 2.17969 12.1621 2.53516 12.5176C2.89062 12.873 3.30273 13.1523 3.77148 13.3555C4.24414 13.5547 4.75 13.6543 5.28906 13.6543ZM5.28906 12.2949C4.9375 12.2949 4.60742 12.2305 4.29883 12.1016C3.99414 11.9727 3.72656 11.793 3.49609 11.5625C3.26562 11.3281 3.08398 11.0586 2.95117 10.7539C2.82227 10.4453 2.75781 10.1172 2.75781 9.76953C2.75781 9.42188 2.82227 9.0957 2.95117 8.79102C3.08398 8.48633 3.26562 8.21875 3.49609 7.98828C3.72656 7.75391 3.99414 7.57227 4.29883 7.44336C4.60742 7.31055 4.9375 7.24414 5.28906 7.24414C5.63281 7.24414 5.95703 7.31055 6.26172 7.44336C6.56641 7.57227 6.83398 7.75391 7.06445 7.98828C7.29883 8.21875 7.48047 8.48633 7.60938 8.79102C7.74219 9.0957 7.80859 9.42188 7.80859 9.76953C7.80859 10.1172 7.74219 10.4453 7.60938 10.7539C7.48047 11.0586 7.29883 11.3262 7.06445 11.5566C6.83398 11.7871 6.56641 11.9688 6.26172 12.1016C5.95703 12.2305 5.63281 12.2949 5.28906 12.2949ZM14.7109 13.6543C15.25 13.6543 15.7539 13.5547 16.2227 13.3555C16.6914 13.1523 17.1035 12.873 17.459 12.5176C17.8145 12.1621 18.0918 11.75 18.291 11.2812C18.4941 10.8086 18.5957 10.3047 18.5957 9.76953C18.5957 9.23438 18.4941 8.73242 18.291 8.26367C18.0918 7.79492 17.8145 7.38281 17.459 7.02734C17.1035 6.66797 16.6914 6.38867 16.2227 6.18945C15.7539 5.98633 15.25 5.88477 14.7109 5.88477C14.1758 5.88477 13.6738 5.98633 13.2051 6.18945C12.7363 6.38867 12.3223 6.66797 11.9629 7.02734C11.6074 7.38281 11.3281 7.79492 11.125 8.26367C10.9258 8.73242 10.8262 9.23438 10.8262 9.76953C10.8262 10.3047 10.9258 10.8086 11.125 11.2812C11.3281 11.75 11.6074 12.1621 11.9629 12.5176C12.3223 12.873 12.7363 13.1523 13.2051 13.3555C13.6738 13.5547 14.1758 13.6543 14.7109 13.6543ZM14.7109 12.2949C14.3633 12.2949 14.0371 12.2305 13.7324 12.1016C13.4277 11.9688 13.1582 11.7871 12.9238 11.5566C12.6934 11.3262 12.5117 11.0586 12.3789 10.7539C12.25 10.4453 12.1855 10.1172 12.1855 9.76953C12.1855 9.42188 12.25 9.0957 12.3789 8.79102C12.5117 8.48633 12.6934 8.21875 12.9238 7.98828C13.1582 7.75391 13.4277 7.57227 13.7324 7.44336C14.0371 7.31055 14.3633 7.24414 14.7109 7.24414C15.0625 7.24414 15.3906 7.31055 15.6953 7.44336C16 7.57227 16.2676 7.75391 16.498 7.98828C16.7324 8.21875 16.9141 8.48633 17.043 8.79102C17.1719 9.0957 17.2363 9.42188 17.2363 9.76953C17.2363 10.1172 17.1719 10.4453 17.043 10.7539C16.9141 11.0586 16.7324 11.3281 16.498 11.5625C16.2676 11.793 16 11.9727 15.6953 12.1016C15.3906 12.2305 15.0625 12.2949 14.7109 12.2949ZM1.82031 8.87305H0.636719C0.324219 8.87305 0.167969 9.0293 0.167969 9.3418V9.85156C0.167969 10.168 0.324219 10.3262 0.636719 10.3262H1.82031V8.87305ZM18.168 10.3262H19.3633C19.6719 10.3262 19.8262 10.168 19.8262 9.85156V9.3418C19.8262 9.0293 19.6719 8.87305 19.3633 8.87305H18.168V10.3262ZM8.81641 10.1504C8.97656 10.041 9.16211 9.96289 9.37305 9.91602C9.58789 9.86523 9.79688 9.83984 10 9.83984C10.1992 9.83984 10.4062 9.86523 10.6211 9.91602C10.8359 9.96289 11.0234 10.041 11.1836 10.1504V8.81445C11.0039 8.7207 10.8066 8.6543 10.5918 8.61523C10.377 8.57617 10.1797 8.55664 10 8.55664C9.81641 8.55664 9.61719 8.57617 9.40234 8.61523C9.1875 8.6543 8.99219 8.7207 8.81641 8.81445V10.1504Z" fill="#38383D"/>
</svg>
