<svg width="14" height="14" viewBox="0 0 14 14" fill="none" xmlns="http://www.w3.org/2000/svg">
<g clip-path="url(#clip0_14361_147616)">
<path d="M3.5422 13.1484H11.1112C11.8267 13.1484 12.3748 12.958 12.7556 12.5773C13.1363 12.2007 13.3267 11.6568 13.3267 10.9455V3.35136C13.3267 2.64006 13.1363 2.09614 12.7556 1.71956C12.3748 1.33882 11.8267 1.14844 11.1112 1.14844H3.5422C2.82672 1.14844 2.2786 1.33882 1.89785 1.71956C1.5171 2.09614 1.32672 2.64006 1.32672 3.35136V10.9455C1.32672 11.6568 1.5171 12.2007 1.89785 12.5773C2.2786 12.958 2.82672 13.1484 3.5422 13.1484ZM3.71793 11.5291C3.46688 11.5291 3.27442 11.4663 3.14053 11.3409C3.01082 11.2154 2.94596 11.0187 2.94596 10.7509V3.54592C2.94596 3.27813 3.01082 3.08149 3.14053 2.95596C3.27442 2.83044 3.46688 2.76768 3.71793 2.76768H10.9355C11.1865 2.76768 11.3769 2.83044 11.5066 2.95596C11.6405 3.08149 11.7075 3.27813 11.7075 3.54592V10.7509C11.7075 11.0187 11.6405 11.2154 11.5066 11.3409C11.3769 11.4663 11.1865 11.5291 10.9355 11.5291H3.71793ZM7.17608 8.3095C7.37274 8.3095 7.53383 8.26556 7.65935 8.1777C7.78905 8.08565 7.86437 7.97058 7.88528 7.83252C7.88947 7.82414 7.89156 7.81369 7.89156 7.80113C7.89575 7.78439 7.89784 7.77184 7.89784 7.76347C7.92294 7.62122 7.99408 7.49569 8.11123 7.38691C8.22839 7.27394 8.37692 7.16096 8.55684 7.04799C8.87482 6.84298 9.1175 6.63587 9.28486 6.42666C9.45223 6.21745 9.53591 5.93922 9.53591 5.59194C9.53591 5.24466 9.43758 4.9434 9.24094 4.68817C9.04846 4.43295 8.78905 4.23629 8.4627 4.09822C8.14051 3.96014 7.77859 3.89111 7.37692 3.89111C6.84135 3.89111 6.39156 3.99361 6.02755 4.19864C5.66772 4.39947 5.42922 4.65051 5.31207 4.95177C5.28696 5.01035 5.26813 5.06893 5.25558 5.12751C5.24304 5.18608 5.23676 5.24675 5.23676 5.30951C5.23676 5.48105 5.29324 5.62332 5.40621 5.73628C5.52336 5.84508 5.66772 5.89947 5.83927 5.89947C5.96478 5.89947 6.07567 5.87645 6.1719 5.83042C6.26814 5.78441 6.35182 5.71536 6.42295 5.62332L6.49198 5.5229C6.55893 5.42248 6.63006 5.34089 6.70537 5.27813C6.78487 5.21537 6.86855 5.16935 6.95642 5.14005C7.04429 5.10658 7.13843 5.08985 7.23885 5.08985C7.43968 5.08985 7.60495 5.14633 7.73466 5.2593C7.86436 5.37227 7.92922 5.51244 7.92922 5.6798C7.92922 5.85553 7.86436 6.00197 7.73466 6.11913C7.60495 6.23209 7.41458 6.37436 7.16353 6.5459C6.94177 6.70071 6.76185 6.86181 6.62379 7.02917C6.48571 7.19654 6.41667 7.40365 6.41667 7.6505C6.41667 7.65888 6.41667 7.66724 6.41667 7.67561C6.41667 7.6798 6.41667 7.68607 6.41667 7.69444C6.41667 8.10448 6.66981 8.3095 7.17608 8.3095ZM7.1698 10.3241C7.4083 10.3241 7.60705 10.2551 7.76604 10.117C7.92503 9.97894 8.00453 9.79694 8.00453 9.571C8.00453 9.34506 7.92503 9.16305 7.76604 9.02498C7.60705 8.8869 7.4083 8.81787 7.1698 8.81787C6.93549 8.81787 6.73676 8.8869 6.57357 9.02498C6.41458 9.16305 6.33508 9.34506 6.33508 9.571C6.33508 9.79275 6.41458 9.97477 6.57357 10.117C6.73676 10.2551 6.93549 10.3241 7.1698 10.3241Z" fill="black"/>
</g>
<defs>
<clipPath id="clip0_14361_147616">
<rect width="13" height="13" fill="white" transform="translate(0.964172 0.191406)"/>
</clipPath>
</defs>
</svg>
