<svg width="20" height="20" viewBox="0 0 20 20" fill="none" xmlns="http://www.w3.org/2000/svg">
<path d="M5.87793 16.6064H14.1221C14.9014 16.6064 15.4984 16.3991 15.9131 15.9844C16.3278 15.5742 16.5352 14.9818 16.5352 14.207V5.93555C16.5352 5.16081 16.3278 4.56836 15.9131 4.1582C15.4984 3.74349 14.9014 3.53613 14.1221 3.53613H5.87793C5.09863 3.53613 4.50163 3.74349 4.08691 4.1582C3.6722 4.56836 3.46484 5.16081 3.46484 5.93555V14.207C3.46484 14.9818 3.6722 15.5742 4.08691 15.9844C4.50163 16.3991 5.09863 16.6064 5.87793 16.6064ZM6.06934 14.8428C5.7959 14.8428 5.58626 14.7744 5.44043 14.6377C5.29915 14.501 5.22852 14.2868 5.22852 13.9951V6.14746C5.22852 5.85579 5.29915 5.6416 5.44043 5.50488C5.58626 5.36816 5.7959 5.2998 6.06934 5.2998H13.9307C14.2041 5.2998 14.4115 5.36816 14.5527 5.50488C14.6986 5.6416 14.7715 5.85579 14.7715 6.14746V13.9951C14.7715 14.2868 14.6986 14.501 14.5527 14.6377C14.4115 14.7744 14.2041 14.8428 13.9307 14.8428H6.06934ZM9.28906 13.3184C9.58529 13.3184 9.81771 13.1885 9.98633 12.9287L12.9258 8.39648C12.9805 8.31445 13.0238 8.23014 13.0557 8.14355C13.0876 8.05697 13.1035 7.97266 13.1035 7.89062C13.1035 7.6901 13.0283 7.52832 12.8779 7.40527C12.7275 7.27767 12.5566 7.21387 12.3652 7.21387C12.11 7.21387 11.8981 7.35059 11.7295 7.62402L9.27539 11.5752L8.14062 10.1738C8.05404 10.0645 7.96289 9.98698 7.86719 9.94141C7.77604 9.89128 7.67122 9.86621 7.55273 9.86621C7.35677 9.86621 7.18815 9.93685 7.04688 10.0781C6.9056 10.2194 6.83496 10.388 6.83496 10.584C6.83496 10.7617 6.9056 10.9372 7.04688 11.1104L8.57129 12.9424C8.67611 13.0609 8.78548 13.1543 8.89941 13.2227C9.0179 13.2865 9.14779 13.3184 9.28906 13.3184Z" fill="black"/>
</svg>
