<svg width="20" height="20" viewBox="0 0 20 20" fill="none" xmlns="http://www.w3.org/2000/svg">
<path d="M10.0073 14.1743C10.1759 14.1698 10.3332 14.1356 10.479 14.0718C10.6248 14.008 10.7661 13.9077 10.9028 13.771L15.9546 8.59619C16.1597 8.39111 16.2622 8.14046 16.2622 7.84424C16.2622 7.63916 16.2121 7.45459 16.1118 7.29053C16.0161 7.12191 15.8862 6.98975 15.7222 6.89404C15.5581 6.79378 15.3758 6.74365 15.1753 6.74365C14.8745 6.74365 14.6079 6.85986 14.3755 7.09229L9.73388 11.8843H10.2876L5.63232 7.09229C5.39989 6.85986 5.13101 6.74365 4.82568 6.74365C4.62515 6.74365 4.44286 6.79378 4.2788 6.89404C4.11474 6.98975 3.98258 7.12191 3.88232 7.29053C3.78661 7.45459 3.73876 7.63916 3.73876 7.84424C3.73876 7.99007 3.76383 8.12679 3.81396 8.25439C3.86864 8.37744 3.94612 8.49137 4.04638 8.59619L9.10497 13.771C9.37841 14.0399 9.67919 14.1743 10.0073 14.1743Z" fill="black"/>
</svg>
