<svg width="13" height="13" viewBox="0 0 13 13" fill="none" xmlns="http://www.w3.org/2000/svg">
<path d="M3.01088 12.6914H10.9175C11.5997 12.6914 12.1103 12.522 12.4492 12.183C12.7925 11.8484 12.9642 11.3443 12.9642 10.6708V2.71206C12.9642 2.03851 12.7925 1.53443 12.4492 1.19983C12.1103 0.86088 11.5997 0.691406 10.9175 0.691406H3.01088C2.32865 0.691406 1.81588 0.86088 1.47259 1.19983C1.13365 1.53443 0.964172 2.03851 0.964172 2.71206V10.6708C0.964172 11.3443 1.13365 11.8484 1.47259 12.183C1.81588 12.522 2.32865 12.6914 3.01088 12.6914ZM3.02392 11.642C2.69801 11.642 2.44814 11.5573 2.27433 11.3878C2.10051 11.214 2.0136 10.9576 2.0136 10.6186V2.7642C2.0136 2.42525 2.10051 2.17104 2.27433 2.00156C2.44814 1.82774 2.69801 1.74084 3.02392 1.74084H10.9044C11.226 1.74084 11.4737 1.82774 11.6475 2.00156C11.8257 2.17104 11.9147 2.42525 11.9147 2.7642V10.6186C11.9147 10.9576 11.8257 11.214 11.6475 11.3878C11.4737 11.5573 11.226 11.642 10.9044 11.642H3.02392ZM5.07064 8.39593C5.06629 8.52195 5.12061 8.60234 5.23359 8.6371C5.34657 8.67187 5.44434 8.65014 5.52691 8.57192L6.51768 7.57464L7.63229 10.3253C7.65836 10.3862 7.69964 10.4296 7.75613 10.4557C7.81697 10.4818 7.87563 10.4839 7.93212 10.4622L8.58394 10.2015C8.64043 10.1754 8.67737 10.1319 8.69475 10.0711C8.71648 10.0103 8.71431 9.94944 8.68824 9.8886L7.51496 7.17703L8.92289 7.11836C9.04456 7.11402 9.12713 7.06404 9.17058 6.96844C9.21838 6.87284 9.19882 6.77942 9.11192 6.68815L5.54646 3.02493C5.4639 2.94236 5.37265 2.92064 5.2727 2.95974C5.1771 2.9945 5.1293 3.07272 5.1293 3.1944L5.07064 8.39593Z" fill="black"/>
</svg>
