<svg viewBox="0 0 11 12" fill="none" xmlns="http://www.w3.org/2000/svg">
  <path d="M2.25342 7.98486H7.76416C8.14502 7.98486 8.49805 7.91748 8.82324 7.78271C9.14844 7.64795 9.43115 7.46191 9.67139 7.22461C9.91455 6.98438 10.1021 6.70605 10.2339 6.38965C10.3687 6.07031 10.436 5.729 10.436 5.36572C10.436 4.99365 10.3672 4.64941 10.2295 4.33301C10.0947 4.01367 9.9043 3.73535 9.6582 3.49805C9.41211 3.26074 9.12354 3.07617 8.79248 2.94434C8.46436 2.8125 8.10693 2.74658 7.72021 2.74658C7.54736 2.40674 7.32178 2.10352 7.04346 1.83691C6.76807 1.57031 6.44287 1.36084 6.06787 1.2085C5.69287 1.05322 5.26367 0.975586 4.78027 0.975586C4.34668 0.975586 3.93945 1.05176 3.55859 1.2041C3.18066 1.35352 2.84375 1.56299 2.54785 1.83252C2.25195 2.09912 2.01025 2.41113 1.82275 2.76855C1.63525 3.12305 1.5166 3.50537 1.4668 3.91553C1.18848 4.00635 0.939453 4.14551 0.719727 4.33301C0.5 4.51758 0.325684 4.7417 0.196777 5.00537C0.0708008 5.26904 0.0078125 5.56494 0.0078125 5.89307C0.0078125 6.28271 0.0986328 6.63574 0.280273 6.95215C0.464844 7.26855 0.724121 7.52051 1.05811 7.70801C1.39502 7.89258 1.79346 7.98486 2.25342 7.98486ZM2.271 6.95215C1.99854 6.95215 1.77148 6.90674 1.58984 6.81592C1.4082 6.7251 1.27051 6.60205 1.17676 6.44678C1.08594 6.2915 1.04053 6.11426 1.04053 5.91504C1.04053 5.66016 1.12256 5.43604 1.28662 5.24268C1.45068 5.04639 1.71143 4.90137 2.06885 4.80762C2.20654 4.77246 2.30029 4.71973 2.3501 4.64941C2.40283 4.5791 2.43799 4.4751 2.45557 4.3374C2.49658 3.97412 2.58447 3.64893 2.71924 3.36182C2.85693 3.07471 3.02979 2.83154 3.23779 2.63232C3.4458 2.43018 3.68018 2.27637 3.94092 2.1709C4.20459 2.06543 4.48438 2.0127 4.78027 2.0127C5.23438 2.0127 5.6416 2.13721 6.00195 2.38623C6.36523 2.63232 6.66699 2.98828 6.90723 3.4541C6.96289 3.57129 7.03027 3.65332 7.10938 3.7002C7.18848 3.74414 7.2998 3.76611 7.44336 3.76611C7.87988 3.76611 8.24316 3.83936 8.5332 3.98584C8.82324 4.13232 9.04004 4.32861 9.18359 4.57471C9.33008 4.81787 9.40332 5.08887 9.40332 5.3877C9.40332 5.68066 9.33301 5.9458 9.19238 6.18311C9.05469 6.41748 8.86279 6.60498 8.6167 6.74561C8.37061 6.8833 8.08643 6.95215 7.76416 6.95215H2.271ZM6.45459 9.59766H5.36475L5.33838 9.85693L5.87012 8.8418C5.89648 8.79199 5.90088 8.75098 5.8833 8.71875C5.86572 8.68652 5.83203 8.67041 5.78223 8.67041H4.61328C4.55176 8.67041 4.50635 8.68213 4.47705 8.70557C4.44775 8.72607 4.42285 8.75977 4.40234 8.80664L3.77393 10.2393C3.75049 10.2949 3.74902 10.3389 3.76953 10.3711C3.79004 10.4033 3.82959 10.4194 3.88818 10.4194H4.79785L4.82422 10.103L4.10791 11.8433C4.08154 11.9077 4.0918 11.9502 4.13867 11.9707C4.18262 11.9883 4.22803 11.9736 4.2749 11.9268L6.5249 9.82178C6.57471 9.7749 6.59229 9.7251 6.57764 9.67236C6.56299 9.62256 6.52197 9.59766 6.45459 9.59766Z" fill="currentColor"/>
</svg>
