<svg width="20" height="20" viewBox="0 0 20 20" fill="none" xmlns="http://www.w3.org/2000/svg">
<path d="M1.07031 9.76953C1.07031 9.90234 1.09961 10.0352 1.1582 10.168C1.2168 10.2969 1.30469 10.4141 1.42188 10.5195L4.99609 13.7422C5.20703 13.9336 5.43945 14.0254 5.69336 14.0176C5.95117 14.0098 6.16992 13.9043 6.34961 13.7012C6.5332 13.498 6.61523 13.2695 6.5957 13.0156C6.58008 12.7578 6.46875 12.5352 6.26172 12.3477L3.4082 9.76953L6.26172 7.18555C6.46875 6.99805 6.58008 6.77734 6.5957 6.52344C6.61523 6.26562 6.5332 6.03516 6.34961 5.83203C6.16992 5.63281 5.95117 5.5293 5.69336 5.52148C5.43945 5.50977 5.20703 5.59961 4.99609 5.79102L1.42188 9.01367C1.30469 9.11914 1.2168 9.23828 1.1582 9.37109C1.09961 9.50391 1.07031 9.63672 1.07031 9.76953ZM8.31836 15.5352C8.58398 15.6133 8.82812 15.5879 9.05078 15.459C9.27344 15.334 9.42578 15.1348 9.50781 14.8613L12.3262 5.1875C12.4082 4.92578 12.3887 4.68359 12.2676 4.46094C12.1504 4.23828 11.959 4.08984 11.6934 4.01562C11.4277 3.94141 11.1836 3.96484 10.9609 4.08594C10.7422 4.20703 10.5918 4.4082 10.5098 4.68945L7.69727 14.334C7.61523 14.6074 7.63086 14.8574 7.74414 15.084C7.85742 15.3105 8.04883 15.4609 8.31836 15.5352ZM18.9238 9.76953C18.9238 9.63672 18.8945 9.50391 18.8359 9.37109C18.7773 9.23828 18.6895 9.11914 18.5723 9.01367L15.0039 5.79102C14.7891 5.59961 14.5527 5.50977 14.2949 5.52148C14.041 5.5293 13.8242 5.63281 13.6445 5.83203C13.4609 6.03516 13.377 6.26562 13.3926 6.52344C13.4121 6.77734 13.5254 6.99805 13.7324 7.18555L16.5859 9.76953L13.7324 12.3477C13.5254 12.5352 13.4121 12.7578 13.3926 13.0156C13.377 13.2695 13.4609 13.498 13.6445 13.7012C13.8242 13.9043 14.041 14.0098 14.2949 14.0176C14.5527 14.0254 14.7891 13.9336 15.0039 13.7422L18.5723 10.5195C18.6895 10.4141 18.7773 10.2969 18.8359 10.168C18.8945 10.0352 18.9238 9.90234 18.9238 9.76953Z" fill="black"/>
</svg>
