<svg width="24" height="24" viewBox="0 0 24 24" fill="none" xmlns="http://www.w3.org/2000/svg">
<path d="M8.71875 8.54102H10.2305V7.23438C10.2305 6.99609 10.2891 6.81641 10.4062 6.69531C10.5273 6.57031 10.7109 6.50781 10.957 6.50781H13.1777V8.95703C13.1777 9.35938 13.2891 9.67383 13.5117 9.90039C13.7383 10.123 14.0527 10.2344 14.4551 10.2344H16.7637V14.8047C16.7637 15.043 16.7031 15.2246 16.582 15.3496C16.4648 15.4707 16.2812 15.5312 16.0312 15.5312H15.0352V17.043H16.2188C16.8828 17.043 17.3906 16.8652 17.7422 16.5098C18.0977 16.1543 18.2754 15.6426 18.2754 14.9746V10.5332C18.2754 10.1035 18.2227 9.74023 18.1172 9.44336C18.0117 9.14258 17.834 8.86328 17.584 8.60547L14.7305 5.6875C14.4922 5.44531 14.2227 5.26953 13.9219 5.16016C13.625 5.05078 13.2852 4.99609 12.9023 4.99609H10.7754C10.1113 4.99609 9.60156 5.17383 9.24609 5.5293C8.89453 5.88477 8.71875 6.39648 8.71875 7.06445V8.54102ZM14.3262 8.80469V7.01758L16.3711 9.08594H14.6074C14.5098 9.08594 14.4375 9.06445 14.3906 9.02148C14.3477 8.97461 14.3262 8.90234 14.3262 8.80469ZM5.71875 18.1211C5.71875 18.793 5.89453 19.3047 6.24609 19.6562C6.60156 20.0117 7.11133 20.1895 7.77539 20.1895H13.2188C13.8828 20.1895 14.3906 20.0117 14.7422 19.6562C15.0977 19.3008 15.2754 18.7891 15.2754 18.1211V13.7324C15.2754 13.4473 15.2578 13.2031 15.2227 13C15.1875 12.793 15.123 12.6055 15.0293 12.4375C14.9355 12.2656 14.8008 12.0898 14.625 11.9102L11.543 8.79883C11.2852 8.5332 11.0234 8.35938 10.7578 8.27734C10.4961 8.19141 10.168 8.14844 9.77344 8.14844H7.77539C7.11133 8.14844 6.60156 8.32617 6.24609 8.68164C5.89453 9.03711 5.71875 9.54883 5.71875 10.2168V18.1211ZM7.23047 17.957V10.3809C7.23047 10.1465 7.28906 9.96875 7.40625 9.84766C7.52734 9.72266 7.71289 9.66016 7.96289 9.66016H9.54492V12.5254C9.54492 13.0371 9.66797 13.416 9.91406 13.6621C10.1602 13.9043 10.5371 14.0254 11.0449 14.0254H13.7637V17.957C13.7637 18.1914 13.7031 18.3691 13.582 18.4902C13.4648 18.6152 13.2832 18.6777 13.0371 18.6777H7.95703C7.71094 18.6777 7.52734 18.6152 7.40625 18.4902C7.28906 18.3691 7.23047 18.1914 7.23047 17.957ZM11.1621 12.7891C11.0332 12.7891 10.9375 12.7598 10.875 12.7012C10.8164 12.6387 10.7871 12.543 10.7871 12.4141V9.90039L13.6406 12.7891H11.1621Z" fill="black"/>
</svg>
