<svg width="20" height="20" viewBox="0 0 20 20" fill="none" xmlns="http://www.w3.org/2000/svg">
<path d="M12.3037 11.0352H7.61426C7.47754 11.0352 7.36589 11.0785 7.2793 11.165C7.19271 11.2516 7.14941 11.3587 7.14941 11.4863C7.14941 11.6139 7.19271 11.7233 7.2793 11.8145C7.36589 11.901 7.47754 11.9443 7.61426 11.9443H12.3037C12.4313 11.9443 12.5384 11.901 12.625 11.8145C12.7116 11.7233 12.7549 11.6139 12.7549 11.4863C12.7549 11.3587 12.7116 11.2516 12.625 11.165C12.5384 11.0785 12.4313 11.0352 12.3037 11.0352ZM12.3037 13.168H7.61426C7.47754 13.168 7.36589 13.2135 7.2793 13.3047C7.19271 13.3913 7.14941 13.5007 7.14941 13.6328C7.14941 13.7559 7.19271 13.8607 7.2793 13.9473C7.36589 14.0339 7.47754 14.0771 7.61426 14.0771H12.3037C12.4313 14.0771 12.5384 14.0339 12.625 13.9473C12.7116 13.8607 12.7549 13.7559 12.7549 13.6328C12.7549 13.5007 12.7116 13.3913 12.625 13.3047C12.5384 13.2135 12.4313 13.168 12.3037 13.168ZM6.33594 17.5908H13.6572C14.4365 17.5908 15.0312 17.3835 15.4414 16.9688C15.8516 16.554 16.0566 15.957 16.0566 15.1777V8.98438C16.0566 8.62435 16.0339 8.31673 15.9883 8.06152C15.9427 7.80632 15.8584 7.57389 15.7354 7.36426C15.6169 7.15007 15.446 6.92676 15.2227 6.69434L11.9414 3.38574C11.7227 3.15788 11.5062 2.9847 11.292 2.86621C11.0824 2.74316 10.8499 2.65885 10.5947 2.61328C10.3441 2.56771 10.0524 2.54492 9.71973 2.54492H6.33594C5.5612 2.54492 4.96647 2.75228 4.55176 3.16699C4.1416 3.58171 3.93652 4.17871 3.93652 4.95801V15.1777C3.93652 15.957 4.1416 16.554 4.55176 16.9688C4.96647 17.3835 5.5612 17.5908 6.33594 17.5908ZM6.54785 15.8271C6.26074 15.8271 6.04655 15.7542 5.90527 15.6084C5.76855 15.4671 5.7002 15.2575 5.7002 14.9795V5.15625C5.7002 4.88281 5.76855 4.67318 5.90527 4.52734C6.04655 4.38151 6.26302 4.30859 6.55469 4.30859H9.24121V7.6582C9.24121 8.25065 9.38249 8.69043 9.66504 8.97754C9.95215 9.26465 10.3919 9.4082 10.9844 9.4082H14.293V14.9795C14.293 15.2575 14.2246 15.4671 14.0879 15.6084C13.9512 15.7542 13.737 15.8271 13.4453 15.8271H6.54785ZM11.1211 7.95898C10.9707 7.95898 10.859 7.9248 10.7861 7.85645C10.7178 7.78353 10.6836 7.67188 10.6836 7.52148V4.44531L14.1562 7.95898H11.1211Z" fill="black"/>
</svg>
