<svg width="20" height="20" viewBox="0 0 20 20" fill="none" xmlns="http://www.w3.org/2000/svg">
<path d="M4.63198 14.5553H15.488C15.8891 14.5553 16.0896 14.3502 16.0896 13.94V10.8978C16.0896 10.4877 15.8891 10.2826 15.488 10.2826H4.63198C4.23547 10.2826 4.03722 10.4877 4.03722 10.8978V13.94C4.03722 14.3502 4.23547 14.5553 4.63198 14.5553ZM4.1466 16.5856H15.9734C16.6935 16.5856 17.2313 16.4079 17.5868 16.0524C17.9423 15.7015 18.12 15.1751 18.12 14.4732V6.11925C18.12 5.41739 17.9423 4.88872 17.5868 4.53323C17.2313 4.17774 16.6935 4 15.9734 4H4.1466C3.43107 4 2.89328 4.17774 2.53323 4.53323C2.17774 4.88416 2 5.41284 2 6.11925V14.4732C2 15.1751 2.17774 15.7015 2.53323 16.0524C2.89328 16.4079 3.43107 16.5856 4.1466 16.5856ZM4.16027 15.485C3.81846 15.485 3.5564 15.3961 3.3741 15.2184C3.1918 15.0361 3.10064 14.7672 3.10064 14.4117V6.18078C3.10064 5.82529 3.1918 5.5564 3.3741 5.3741C3.5564 5.1918 3.81846 5.10064 4.16027 5.10064H15.9597C16.297 5.10064 16.5568 5.1918 16.7391 5.3741C16.9259 5.5564 17.0194 5.82529 17.0194 6.18078V14.4117C17.0194 14.7672 16.9259 15.0361 16.7391 15.2184C16.5568 15.3961 16.297 15.485 15.9597 15.485H4.16027Z" fill="#38383D"/>
</svg>
