<svg width="20" height="20" viewBox="0 0 20 20" fill="none" xmlns="http://www.w3.org/2000/svg">
<path d="M3.72314 17.5601H16.2622C17.0581 17.5601 17.6587 17.3574 18.064 16.9521C18.4692 16.5518 18.6719 15.9609 18.6719 15.1797V6.26611C18.6719 5.47998 18.4692 4.88672 18.064 4.48633C17.6587 4.08594 17.0581 3.88574 16.2622 3.88574H3.72314C2.93213 3.88574 2.33398 4.08594 1.92871 4.48633C1.52344 4.88672 1.3208 5.47998 1.3208 6.26611V15.1797C1.3208 15.9609 1.52344 16.5518 1.92871 16.9521C2.33398 17.3574 2.93213 17.5601 3.72314 17.5601ZM3.81104 16.1172C3.46924 16.1172 3.20801 16.0293 3.02734 15.8535C2.85156 15.6777 2.76367 15.4116 2.76367 15.0552V6.3833C2.76367 6.03174 2.85156 5.76807 3.02734 5.59229C3.20801 5.4165 3.46924 5.32861 3.81104 5.32861H16.1816C16.5186 5.32861 16.7773 5.4165 16.958 5.59229C17.1387 5.76807 17.229 6.03174 17.229 6.3833V15.0552C17.229 15.4116 17.1387 15.6777 16.958 15.8535C16.7773 16.0293 16.5186 16.1172 16.1816 16.1172H3.81104ZM7.14355 16.3516H8.51318V5.07959H7.14355V16.3516ZM5.70801 8.00928C5.83984 8.00928 5.95215 7.96045 6.04492 7.86279C6.14258 7.76514 6.19141 7.65771 6.19141 7.54053C6.19141 7.41357 6.14258 7.30371 6.04492 7.21094C5.95215 7.11816 5.83984 7.07178 5.70801 7.07178H4.20654C4.07959 7.07178 3.96729 7.11816 3.86963 7.21094C3.77686 7.30371 3.73047 7.41357 3.73047 7.54053C3.73047 7.65771 3.77686 7.76514 3.86963 7.86279C3.96729 7.96045 4.07959 8.00928 4.20654 8.00928H5.70801ZM5.70801 9.97217C5.83984 9.97217 5.95215 9.92578 6.04492 9.83301C6.14258 9.73535 6.19141 9.62305 6.19141 9.49609C6.19141 9.37402 6.14258 9.2666 6.04492 9.17383C5.95215 9.08105 5.83984 9.03467 5.70801 9.03467H4.20654C4.07959 9.03467 3.96729 9.08105 3.86963 9.17383C3.77686 9.2666 3.73047 9.37402 3.73047 9.49609C3.73047 9.62305 3.77686 9.73535 3.86963 9.83301C3.96729 9.92578 4.07959 9.97217 4.20654 9.97217H5.70801ZM5.70801 11.9277C5.83984 11.9277 5.95215 11.8814 6.04492 11.7886C6.14258 11.6958 6.19141 11.5884 6.19141 11.4663C6.19141 11.3394 6.14258 11.2295 6.04492 11.1367C5.95215 11.0439 5.83984 10.9976 5.70801 10.9976H4.20654C4.07959 10.9976 3.96729 11.0439 3.86963 11.1367C3.77686 11.2295 3.73047 11.3394 3.73047 11.4663C3.73047 11.5884 3.77686 11.6958 3.86963 11.7886C3.96729 11.8814 4.07959 11.9277 4.20654 11.9277H5.70801Z" fill="#38383D"/>
</svg>
