<svg width="20" height="20" viewBox="0 0 20 20" fill="none" xmlns="http://www.w3.org/2000/svg">
<path d="M14.24 16.2H3.76V5.8H8.1C8.59706 5.8 9 5.39706 9 4.9V4.9C9 4.40294 8.59706 4 8.1 4H3.55556C2.69222 4 2 4.7 2 5.55556V16.4444C2 17.3 2.69222 18 3.55556 18H14.4444C15.3 18 16 17.3 16 16.4444V11.88C16 11.394 15.606 11 15.12 11V11C14.634 11 14.24 11.394 14.24 11.88V16.2Z" fill="#38383D"/>
<path d="M15.0757 3.71513H11.997C11.5234 3.71513 11.1395 3.33118 11.1395 2.85756C11.1395 2.38394 11.5234 2 11.997 2H17.1424C17.6161 2 18 2.38394 18 2.85756V8.00295C18 8.47657 17.6161 8.86052 17.1424 8.86052C16.6688 8.86052 16.2849 8.47657 16.2849 8.00295V4.9243L8.45959 12.7496C8.12569 13.0835 7.58433 13.0835 7.25043 12.7496C6.91652 12.4157 6.91652 11.8743 7.25043 11.5404L15.0757 3.71513Z" fill="#38383D"/>
</svg>
