<svg width="20" height="20" viewBox="0 0 20 20" fill="none" xmlns="http://www.w3.org/2000/svg">
<path d="M10 19.8374C11.3267 19.8374 12.574 19.5835 13.7419 19.0757C14.9163 18.5679 15.9509 17.8665 16.8459 16.9714C17.741 16.0764 18.4424 15.0449 18.9502 13.877C19.458 12.7026 19.7119 11.4521 19.7119 10.1255C19.7119 8.79883 19.458 7.55151 18.9502 6.38354C18.4424 5.20923 17.741 4.17456 16.8459 3.27954C15.9509 2.38452 14.9163 1.68311 13.7419 1.17529C12.5676 0.66748 11.3171 0.413574 9.99048 0.413574C8.66382 0.413574 7.41333 0.66748 6.23901 1.17529C5.07104 1.68311 4.03955 2.38452 3.14453 3.27954C2.25586 4.17456 1.55762 5.20923 1.0498 6.38354C0.541992 7.55151 0.288086 8.79883 0.288086 10.1255C0.288086 11.4521 0.541992 12.7026 1.0498 13.877C1.55762 15.0449 2.25903 16.0764 3.15405 16.9714C4.04907 17.8665 5.08057 18.5679 6.24854 19.0757C7.42285 19.5835 8.67334 19.8374 10 19.8374ZM4.66797 8.16406C4.45215 8.16406 4.27124 8.10059 4.12524 7.97363C3.9856 7.84668 3.91577 7.68164 3.91577 7.47852C3.91577 7.26904 3.9856 7.10083 4.12524 6.97388C4.27124 6.84058 4.45215 6.77393 4.66797 6.77393H15.3701C15.5859 6.77393 15.7637 6.84058 15.9033 6.97388C16.0493 7.10083 16.1223 7.26904 16.1223 7.47852C16.1223 7.68164 16.0493 7.84668 15.9033 7.97363C15.7637 8.10059 15.5859 8.16406 15.3701 8.16406H4.66797ZM6.12476 11.4204C5.90259 11.4204 5.72168 11.3569 5.58203 11.23C5.44238 11.103 5.37256 10.9348 5.37256 10.7253C5.37256 10.5159 5.44238 10.3477 5.58203 10.2207C5.72168 10.0874 5.90259 10.0208 6.12476 10.0208H13.9133C14.1355 10.0208 14.3164 10.0874 14.4561 10.2207C14.5957 10.3477 14.6655 10.5159 14.6655 10.7253C14.6655 10.9348 14.5957 11.103 14.4561 11.23C14.3164 11.3569 14.1355 11.4204 13.9133 11.4204H6.12476ZM7.64819 14.6768C7.42603 14.6768 7.24512 14.6133 7.10547 14.4863C6.96582 14.3594 6.896 14.1912 6.896 13.9817C6.896 13.7722 6.96582 13.604 7.10547 13.4771C7.24512 13.3501 7.42603 13.2866 7.64819 13.2866H12.3994C12.6152 13.2866 12.793 13.3501 12.9326 13.4771C13.0723 13.604 13.1421 13.7722 13.1421 13.9817C13.1421 14.1912 13.0723 14.3594 12.9326 14.4863C12.793 14.6133 12.6152 14.6768 12.3994 14.6768H7.64819Z" fill="black"/>
</svg>