<svg width="22" height="20" viewBox="0 0 22 20" fill="none" xmlns="http://www.w3.org/2000/svg">
<path d="M6.58203 16.1719H15.4121C16.0254 16.1719 16.4844 16.0195 16.7891 15.7148C17.0977 15.4141 17.252 14.9609 17.252 14.3555V7.20117C17.252 6.5957 17.0977 6.14258 16.7891 5.8418C16.4844 5.53711 16.0254 5.38477 15.4121 5.38477H6.58203C5.97266 5.38477 5.51367 5.53711 5.20508 5.8418C4.90039 6.14258 4.74805 6.5957 4.74805 7.20117V14.3555C4.74805 14.9609 4.90039 15.4141 5.20508 15.7148C5.51367 16.0195 5.97266 16.1719 6.58203 16.1719ZM5.82617 12.6504V8.90625C5.82617 8.80859 5.86133 8.72656 5.93164 8.66016C6.00195 8.58984 6.08594 8.55469 6.18359 8.55469C6.27734 8.55469 6.35938 8.58984 6.42969 8.66016C6.5 8.72656 6.53516 8.80859 6.53516 8.90625V12.6504C6.53516 12.748 6.5 12.832 6.42969 12.9023C6.35938 12.9688 6.27734 13.002 6.18359 13.002C6.08594 13.002 6.00195 12.9688 5.93164 12.9023C5.86133 12.832 5.82617 12.748 5.82617 12.6504ZM7.61914 15.2285V6.32812H14.3809V15.2285H7.61914ZM15.459 12.6504V8.90625C15.459 8.80859 15.4941 8.72656 15.5645 8.66016C15.6348 8.58984 15.7188 8.55469 15.8164 8.55469C15.9141 8.55469 15.9961 8.58984 16.0625 8.66016C16.1328 8.72656 16.168 8.80859 16.168 8.90625V12.6504C16.168 12.748 16.1328 12.832 16.0625 12.9023C15.9961 12.9688 15.9141 13.002 15.8164 13.002C15.7188 13.002 15.6348 12.9688 15.5645 12.9023C15.4941 12.832 15.459 12.748 15.459 12.6504ZM1.90625 12.5742L3.49414 11.2793C3.6543 11.1465 3.73242 10.9863 3.72852 10.7988C3.72461 10.6113 3.64648 10.4512 3.49414 10.3184L1.90625 8.99414C1.76562 8.88086 1.625 8.82617 1.48438 8.83008C1.34375 8.83008 1.22461 8.88086 1.12695 8.98242C1.0332 9.08008 0.986328 9.21875 0.986328 9.39844V12.1816C0.986328 12.3535 1.03516 12.4883 1.13281 12.5859C1.23047 12.6836 1.34961 12.7344 1.49023 12.7383C1.63477 12.7383 1.77344 12.6836 1.90625 12.5742ZM20.0879 12.5742C20.2207 12.6836 20.3574 12.7383 20.498 12.7383C20.6426 12.7344 20.7637 12.6836 20.8613 12.5859C20.959 12.4883 21.0078 12.3535 21.0078 12.1816V9.39844C21.0078 9.21875 20.959 9.08008 20.8613 8.98242C20.7676 8.88086 20.6504 8.83008 20.5098 8.83008C20.3691 8.82617 20.2285 8.88086 20.0879 8.99414L18.5 10.3184C18.3477 10.4512 18.2695 10.6113 18.2656 10.7988C18.2617 10.9863 18.3398 11.1465 18.5 11.2793L20.0879 12.5742Z" fill="white"/>
</svg>
