<svg width="12" height="12" viewBox="0 0 12 12" fill="none" xmlns="http://www.w3.org/2000/svg">
<path d="M2.04671 12H9.95328C10.6355 12 11.1461 11.8306 11.4851 11.4916C11.8284 11.157 12 10.6529 12 9.97937V2.02065C12 1.3471 11.8284 0.84302 11.4851 0.508421C11.1461 0.169474 10.6355 0 9.95328 0H2.04671C1.36447 0 0.851711 0.169474 0.508419 0.508421C0.169473 0.84302 0 1.3471 0 2.02065V9.97937C0 10.6529 0.169473 11.157 0.508419 11.4916C0.851711 11.8306 1.36447 12 2.04671 12ZM2.05975 10.9506C1.73384 10.9506 1.48397 10.8659 1.31015 10.6964C1.13634 10.5226 1.04943 10.2662 1.04943 9.92723V2.07279C1.04943 1.73384 1.13634 1.47964 1.31015 1.31016C1.48397 1.13634 1.73384 1.04943 2.05975 1.04943H9.94025C10.2618 1.04943 10.5095 1.13634 10.6833 1.31016C10.8615 1.47964 10.9506 1.73384 10.9506 2.07279V9.92723C10.9506 10.2662 10.8615 10.5226 10.6833 10.6964C10.5095 10.8659 10.2618 10.9506 9.94025 10.9506H2.05975Z" fill="black"/>
<path d="M5.22857 3C5.81963 3 6.38647 3.2348 6.80441 3.65273C7.22235 4.07067 7.45714 4.63752 7.45714 5.22857C7.45714 5.78057 7.25486 6.288 6.92229 6.67886L7.01486 6.77143H7.28571L9 8.48571L8.48571 9L6.77143 7.28571V7.01486L6.67886 6.92229C6.288 7.25486 5.78057 7.45714 5.22857 7.45714C4.63752 7.45714 4.07067 7.22235 3.65273 6.80441C3.2348 6.38647 3 5.81963 3 5.22857C3 4.63752 3.2348 4.07067 3.65273 3.65273C4.07067 3.2348 4.63752 3 5.22857 3ZM5.22857 3.68571C4.37143 3.68571 3.68571 4.37143 3.68571 5.22857C3.68571 6.08571 4.37143 6.77143 5.22857 6.77143C6.08571 6.77143 6.77143 6.08571 6.77143 5.22857C6.77143 4.37143 6.08571 3.68571 5.22857 3.68571Z" fill="black"/>
</svg>
