<svg width="20" height="20" viewBox="0 0 20 20" fill="none" xmlns="http://www.w3.org/2000/svg">
<path d="M10.2578 16.0312C10.4557 16.0312 10.7083 15.9089 11.0156 15.6641C11.3281 15.4141 11.6536 15.0938 11.9922 14.7031C12.3307 14.3073 12.6484 13.8854 12.9453 13.4375C13.2474 12.9896 13.4922 12.5625 13.6797 12.1562C13.8672 11.7448 13.9609 11.4089 13.9609 11.1484C13.9609 10.9557 13.8698 10.7344 13.6875 10.4844C13.5104 10.2344 13.2865 9.99219 13.0156 9.75781C12.7448 9.51823 12.4635 9.32031 12.1719 9.16406C11.8854 9.00781 11.6328 8.92969 11.4141 8.92969C11.2839 8.92969 11.1354 8.97656 10.9688 9.07031C10.8021 9.15885 10.6328 9.25 10.4609 9.34375C10.2891 9.43229 10.1276 9.47656 9.97656 9.47656C9.8724 9.47656 9.73958 9.43229 9.57812 9.34375C9.42188 9.25 9.26562 9.13542 9.10938 9C8.95833 8.86458 8.83073 8.72656 8.72656 8.58594C8.6224 8.44531 8.57031 8.32812 8.57031 8.23438C8.57031 8.125 8.60677 8.04427 8.67969 7.99219C8.75781 7.9349 8.84896 7.90625 8.95312 7.90625C9.07812 7.90625 9.22396 7.95833 9.39062 8.0625C9.5625 8.16146 9.74479 8.26302 9.9375 8.36719C10.1354 8.46615 10.3385 8.51562 10.5469 8.51562C10.7969 8.51562 10.9818 8.44531 11.1016 8.30469C11.2266 8.15885 11.2891 7.97396 11.2891 7.75C11.2891 7.59896 11.2552 7.44792 11.1875 7.29688C11.1198 7.14583 11.0391 6.98698 10.9453 6.82031C11.1432 6.72135 11.3776 6.60417 11.6484 6.46875C11.9193 6.32812 12.1953 6.16927 12.4766 5.99219C12.763 5.8099 13.026 5.60938 13.2656 5.39062C13.5052 5.17188 13.6927 4.9349 13.8281 4.67969C13.5781 4.22135 13.099 3.85417 12.3906 3.57812C11.6823 3.29688 10.8646 3.15625 9.9375 3.15625C9.26562 3.15625 8.61458 3.2474 7.98438 3.42969C7.35938 3.61198 6.79688 3.85677 6.29688 4.16406C5.80208 4.47135 5.40104 4.8125 5.09375 5.1875C4.79167 5.55729 4.6276 5.9375 4.60156 6.32812C4.58073 6.71354 4.6901 7.10417 4.92969 7.5C5.16927 7.89062 5.54948 8.3125 6.07031 8.76562L7.19531 9.73438C7.3776 9.89583 7.51823 10.026 7.61719 10.125C7.71615 10.2188 7.76562 10.3151 7.76562 10.4141C7.76562 10.5234 7.73177 10.6276 7.66406 10.7266C7.60156 10.8203 7.53646 10.9193 7.46875 11.0234C7.40625 11.1276 7.375 11.2526 7.375 11.3984C7.375 11.7839 7.57031 12.1224 7.96094 12.4141C8.38802 12.7318 8.71094 12.9714 8.92969 13.1328C9.15365 13.2891 9.30469 13.4115 9.38281 13.5C9.46615 13.5833 9.50781 13.6719 9.50781 13.7656C9.51302 14.0208 9.46615 14.2552 9.36719 14.4688C9.26823 14.6771 9.21875 14.8984 9.21875 15.1328C9.21875 15.3464 9.33073 15.5495 9.55469 15.7422C9.77865 15.9349 10.013 16.0312 10.2578 16.0312ZM9.99219 18.6094C11.1276 18.6094 12.1927 18.3932 13.1875 17.9609C14.1823 17.5339 15.0573 16.9401 15.8125 16.1797C16.5729 15.4245 17.1693 14.5495 17.6016 13.5547C18.0339 12.5599 18.25 11.4948 18.25 10.3594C18.25 9.22917 18.0339 8.16667 17.6016 7.17188C17.1693 6.17708 16.5729 5.29948 15.8125 4.53906C15.0573 3.77865 14.1797 3.1849 13.1797 2.75781C12.1849 2.32552 11.1224 2.10938 9.99219 2.10938C8.86198 2.10938 7.79688 2.32552 6.79688 2.75781C5.80208 3.1849 4.92448 3.77865 4.16406 4.53906C3.40885 5.29948 2.8151 6.17708 2.38281 7.17188C1.95573 8.16667 1.74219 9.22917 1.74219 10.3594C1.74219 11.4948 1.95573 12.5599 2.38281 13.5547C2.8151 14.5495 3.41146 15.4245 4.17188 16.1797C4.93229 16.9401 5.8099 17.5339 6.80469 17.9609C7.79948 18.3932 8.86198 18.6094 9.99219 18.6094ZM9.99219 17.0234C9.08073 17.0234 8.22135 16.849 7.41406 16.5C6.61198 16.151 5.90365 15.6719 5.28906 15.0625C4.67969 14.4479 4.20052 13.7396 3.85156 12.9375C3.50781 12.1302 3.33594 11.2708 3.33594 10.3594C3.33594 9.44792 3.50781 8.59115 3.85156 7.78906C4.20052 6.98177 4.67969 6.27344 5.28906 5.66406C5.90365 5.04948 6.61198 4.56771 7.41406 4.21875C8.22135 3.86979 9.08073 3.69531 9.99219 3.69531C10.9036 3.69531 11.7604 3.86979 12.5625 4.21875C13.3698 4.56771 14.0807 5.04948 14.6953 5.66406C15.3099 6.27344 15.7891 6.98177 16.1328 7.78906C16.4818 8.59115 16.6562 9.44792 16.6562 10.3594C16.6562 11.2708 16.4818 12.1302 16.1328 12.9375C15.7891 13.7396 15.3099 14.4479 14.6953 15.0625C14.0807 15.6719 13.3724 16.151 12.5703 16.5C11.7682 16.849 10.9089 17.0234 9.99219 17.0234Z" fill="#38383D"/>
</svg>
