<svg width="24" height="25" viewBox="0 0 24 25" fill="none" xmlns="http://www.w3.org/2000/svg">
<path d="M12.3488 20.0625C12.6126 20.0625 12.9492 19.8993 13.3587 19.5729C13.7752 19.2396 14.209 18.8125 14.6602 18.2917C15.1114 17.7639 15.5348 17.2014 15.9304 16.6042C16.333 16.0069 16.6593 15.4375 16.9091 14.8958C17.159 14.3472 17.284 13.8993 17.284 13.5521C17.284 13.2951 17.1625 13 16.9195 12.6667C16.6835 12.3333 16.3851 12.0104 16.0241 11.6979C15.6632 11.3785 15.2884 11.1146 14.8997 10.9063C14.5179 10.6979 14.1813 10.5938 13.8897 10.5938C13.7162 10.5938 13.5184 10.6563 13.2963 10.7813C13.0741 10.8993 12.8486 11.0208 12.6195 11.1458C12.3904 11.2639 12.1753 11.3229 11.974 11.3229C11.8351 11.3229 11.6581 11.2639 11.443 11.1458C11.2347 11.0208 11.0265 10.8681 10.8183 10.6875C10.617 10.5069 10.4469 10.3229 10.3081 10.1354C10.1693 9.94792 10.0999 9.79167 10.0999 9.66667C10.0999 9.52083 10.1484 9.41319 10.2456 9.34375C10.3497 9.26736 10.4712 9.22917 10.61 9.22917C10.7766 9.22917 10.971 9.29861 11.1931 9.4375C11.4221 9.56944 11.6651 9.70486 11.9219 9.84375C12.1857 9.97569 12.4564 10.0417 12.734 10.0417C13.0672 10.0417 13.3136 9.94792 13.4733 9.76042C13.6398 9.56597 13.7231 9.31944 13.7231 9.02083C13.7231 8.81944 13.678 8.61806 13.5878 8.41667C13.4976 8.21528 13.39 8.00347 13.265 7.78125C13.5288 7.64931 13.8411 7.49306 14.2021 7.3125C14.563 7.125 14.9309 6.91319 15.3057 6.67708C15.6875 6.43403 16.038 6.16667 16.3573 5.875C16.6766 5.58333 16.9265 5.26736 17.107 4.92708C16.7738 4.31597 16.1352 3.82639 15.1912 3.45833C14.2472 3.08333 13.1574 2.89583 11.9219 2.89583C11.0265 2.89583 10.1589 3.01736 9.31898 3.26042C8.48604 3.50347 7.73639 3.82986 7.07004 4.23958C6.41063 4.64931 5.87616 5.10417 5.46663 5.60417C5.06405 6.09722 4.8454 6.60417 4.8107 7.125C4.78293 7.63889 4.9287 8.15972 5.24799 8.6875C5.56728 9.20833 6.07399 9.77083 6.7681 10.375L8.26739 11.6667C8.51033 11.8819 8.69774 12.0556 8.82963 12.1875C8.96151 12.3125 9.02745 12.441 9.02745 12.5729C9.02745 12.7188 8.98233 12.8576 8.8921 12.9896C8.8088 13.1146 8.72204 13.2465 8.6318 13.3854C8.54851 13.5243 8.50686 13.691 8.50686 13.8854C8.50686 14.3993 8.76716 14.8507 9.28774 15.2396C9.85692 15.6632 10.2873 15.9826 10.5788 16.1979C10.8773 16.4063 11.0786 16.5694 11.1827 16.6875C11.2937 16.7986 11.3493 16.9167 11.3493 17.0417C11.3562 17.3819 11.2937 17.6944 11.1619 17.9792C11.03 18.2569 10.964 18.5521 10.964 18.8646C10.964 19.1493 11.1133 19.4201 11.4117 19.6771C11.7102 19.934 12.0226 20.0625 12.3488 20.0625ZM11.9948 23.5C13.508 23.5 14.9274 23.2118 16.2532 22.6354C17.579 22.066 18.7451 21.2743 19.7515 20.2604C20.7649 19.2535 21.5597 18.0868 22.1358 16.7604C22.7119 15.434 23 14.0139 23 12.5C23 10.9931 22.7119 9.57639 22.1358 8.25C21.5597 6.92361 20.7649 5.75347 19.7515 4.73958C18.7451 3.72569 17.5755 2.93403 16.2428 2.36458C14.917 1.78819 13.501 1.5 11.9948 1.5C10.4886 1.5 9.0691 1.78819 7.73639 2.36458C6.41063 2.93403 5.24105 3.72569 4.22764 4.73958C3.22117 5.75347 2.42988 6.92361 1.85376 8.25C1.28459 9.57639 1 10.9931 1 12.5C1 14.0139 1.28459 15.434 1.85376 16.7604C2.42988 18.0868 3.22464 19.2535 4.23805 20.2604C5.25146 21.2743 6.42104 22.066 7.74681 22.6354C9.07257 23.2118 10.4886 23.5 11.9948 23.5ZM11.9948 21.3854C10.7801 21.3854 9.6348 21.1528 8.55892 20.6875C7.48998 20.2222 6.54598 19.5833 5.72693 18.7708C4.91481 17.9514 4.27623 17.0069 3.81117 15.9375C3.35305 14.8611 3.12399 13.7153 3.12399 12.5C3.12399 11.2847 3.35305 10.1424 3.81117 9.07292C4.27623 7.99653 4.91481 7.05208 5.72693 6.23958C6.54598 5.42014 7.48998 4.77778 8.55892 4.3125C9.6348 3.84722 10.7801 3.61458 11.9948 3.61458C13.2095 3.61458 14.3513 3.84722 15.4203 4.3125C16.4961 4.77778 17.4436 5.42014 18.2627 6.23958C19.0817 7.05208 19.7203 7.99653 20.1784 9.07292C20.6435 10.1424 20.876 11.2847 20.876 12.5C20.876 13.7153 20.6435 14.8611 20.1784 15.9375C19.7203 17.0069 19.0817 17.9514 18.2627 18.7708C17.4436 19.5833 16.4996 20.2222 15.4307 20.6875C14.3617 21.1528 13.2164 21.3854 11.9948 21.3854Z" fill="black"/>
</svg>
