<svg width="24" height="25" viewBox="0 0 24 25" fill="none" xmlns="http://www.w3.org/2000/svg">
<path d="M12.3171 19.375C12.5569 19.375 12.8629 19.2266 13.2352 18.9299C13.6138 18.6269 14.0082 18.2386 14.4184 17.7652C14.8285 17.2854 15.2134 16.774 15.5731 16.2311C15.9391 15.6881 16.2357 15.1705 16.4628 14.678C16.69 14.1793 16.8036 13.7721 16.8036 13.4564C16.8036 13.2229 16.6932 12.9545 16.4723 12.6515C16.2578 12.3485 15.9864 12.0549 15.6583 11.7708C15.3302 11.4804 14.9894 11.2405 14.6361 11.0511C14.289 10.8617 13.983 10.767 13.7179 10.767C13.5602 10.767 13.3803 10.8239 13.1784 10.9375C12.9765 11.0448 12.7714 11.1553 12.5632 11.2689C12.3549 11.3763 12.1593 11.4299 11.9763 11.4299C11.8501 11.4299 11.6892 11.3763 11.4936 11.2689C11.3043 11.1553 11.115 11.0164 10.9257 10.8523C10.7427 10.6881 10.5881 10.5208 10.4619 10.3504C10.3357 10.1799 10.2726 10.0379 10.2726 9.92424C10.2726 9.79167 10.3168 9.69381 10.4051 9.63068C10.4998 9.56124 10.6102 9.52652 10.7364 9.52652C10.8878 9.52652 11.0645 9.58965 11.2664 9.71591C11.4747 9.83586 11.6955 9.95896 11.929 10.0852C12.1688 10.2052 12.4149 10.2652 12.6673 10.2652C12.9702 10.2652 13.1942 10.1799 13.3393 10.0095C13.4908 9.8327 13.5665 9.60859 13.5665 9.33712C13.5665 9.15404 13.5255 8.97096 13.4434 8.78788C13.3614 8.6048 13.2636 8.41225 13.15 8.21023C13.3898 8.09028 13.6738 7.94823 14.0019 7.78409C14.33 7.61364 14.6645 7.42109 15.0052 7.20644C15.3523 6.98548 15.6709 6.74242 15.9612 6.47727C16.2515 6.21212 16.4786 5.92487 16.6427 5.61553C16.3398 5.05997 15.7593 4.6149 14.9011 4.2803C14.0429 3.93939 13.0522 3.76894 11.929 3.76894C11.115 3.76894 10.3262 3.87942 9.56271 4.10038C8.80549 4.32134 8.12399 4.61806 7.51822 4.99053C6.91876 5.36301 6.43288 5.77652 6.06058 6.23106C5.69459 6.67929 5.49582 7.14015 5.46427 7.61364C5.43903 8.08081 5.57154 8.55429 5.86181 9.03409C6.15207 9.50758 6.61272 10.0189 7.24373 10.5682L8.60672 11.7424C8.82758 11.9381 8.99795 12.096 9.11784 12.2159C9.23773 12.3295 9.29768 12.4463 9.29768 12.5663C9.29768 12.6989 9.25667 12.8251 9.17463 12.9451C9.09891 13.0587 9.02004 13.1787 8.938 13.3049C8.86228 13.4312 8.82442 13.5827 8.82442 13.7595C8.82442 14.2266 9.06105 14.637 9.53431 14.9905C10.0517 15.3756 10.443 15.666 10.708 15.8617C10.9793 16.0511 11.1623 16.1995 11.257 16.3068C11.3579 16.4078 11.4084 16.5152 11.4084 16.6288C11.4147 16.9381 11.3579 17.2222 11.2381 17.4811C11.1182 17.7336 11.0582 18.0019 11.0582 18.286C11.0582 18.5448 11.1939 18.791 11.4652 19.0246C11.7366 19.2582 12.0205 19.375 12.3171 19.375ZM11.9953 22.5C13.3709 22.5 14.6613 22.238 15.8665 21.714C17.0718 21.1963 18.1319 20.4766 19.0469 19.5549C19.9681 18.6395 20.6906 17.5789 21.2144 16.3731C21.7381 15.1673 22 13.8763 22 12.5C22 11.1301 21.7381 9.84217 21.2144 8.63636C20.6906 7.43056 19.9681 6.36679 19.0469 5.44508C18.1319 4.52336 17.0686 3.80366 15.8571 3.28598C14.6518 2.76199 13.3646 2.5 11.9953 2.5C10.626 2.5 9.33554 2.76199 8.12399 3.28598C6.91876 3.80366 5.8555 4.52336 4.93422 5.44508C4.01925 6.36679 3.29989 7.43056 2.77615 8.63636C2.25872 9.84217 2 11.1301 2 12.5C2 13.8763 2.25872 15.1673 2.77615 16.3731C3.29989 17.5789 4.0224 18.6395 4.94368 19.5549C5.86496 20.4766 6.92822 21.1963 8.13346 21.714C9.3387 22.238 10.626 22.5 11.9953 22.5ZM11.9953 20.5777C10.891 20.5777 9.84982 20.3662 8.87175 19.9432C7.89998 19.5202 7.0418 18.9394 6.29721 18.2008C5.55892 17.4558 4.97839 16.5972 4.55561 15.625C4.13914 14.6465 3.9309 13.6048 3.9309 12.5C3.9309 11.3952 4.13914 10.3567 4.55561 9.38447C4.97839 8.40593 5.55892 7.54735 6.29721 6.80871C7.0418 6.06376 7.89998 5.4798 8.87175 5.05682C9.84982 4.63384 10.891 4.42235 11.9953 4.42235C13.0995 4.42235 14.1376 4.63384 15.1093 5.05682C16.0874 5.4798 16.9487 6.06376 17.6933 6.80871C18.4379 7.54735 19.0185 8.40593 19.4349 9.38447C19.8577 10.3567 20.0691 11.3952 20.0691 12.5C20.0691 13.6048 19.8577 14.6465 19.4349 15.625C19.0185 16.5972 18.4379 17.4558 17.6933 18.2008C16.9487 18.9394 16.0906 19.5202 15.1188 19.9432C14.147 20.3662 13.1059 20.5777 11.9953 20.5777Z" fill="black"/>
</svg>
