<svg width="24" height="25" viewBox="0 0 24 25" fill="none" xmlns="http://www.w3.org/2000/svg">
<path fill-rule="evenodd" clip-rule="evenodd" d="M12 23.5C18.0751 23.5 23 18.5751 23 12.5C23 6.42487 18.0751 1.5 12 1.5C5.92487 1.5 1 6.42487 1 12.5C1 18.5751 5.92487 23.5 12 23.5ZM17.9901 17.2231H11.4749C11.0465 17.2231 10.747 17.1587 10.5763 17.0298C10.4056 16.9045 10.3203 16.7216 10.3203 16.4813C10.3203 16.1503 10.4213 15.7985 10.6233 15.4258C10.8288 15.0531 11.1231 14.7066 11.5063 14.3861C11.8929 14.0622 12.3579 13.7992 12.9013 13.5972C13.4446 13.3917 14.0542 13.2889 14.7299 13.2889C15.4091 13.2889 16.0205 13.3917 16.5638 13.5972C17.1072 13.7992 17.5704 14.0622 17.9535 14.3861C18.3402 14.7066 18.6363 15.0531 18.8417 15.4258C19.0473 15.7985 19.15 16.1503 19.15 16.4813C19.15 16.7216 19.063 16.9045 18.8888 17.0298C18.7182 17.1587 18.4186 17.2231 17.9901 17.2231ZM15.7801 12.0559C15.4632 12.2614 15.1148 12.3642 14.7352 12.3642C14.352 12.3642 14.0002 12.2614 13.6798 12.0559C13.3628 11.8504 13.1085 11.5735 12.9169 11.2252C12.7254 10.8769 12.6296 10.485 12.6296 10.0496C12.6296 9.62467 12.7254 9.24152 12.9169 8.90018C13.112 8.55534 13.3698 8.28192 13.6902 8.0799C14.0107 7.87787 14.359 7.77686 14.7352 7.77686C15.1148 7.77686 15.4632 7.87613 15.7801 8.07467C16.1005 8.27321 16.3565 8.54489 16.5482 8.88973C16.7432 9.23107 16.8407 9.61422 16.8407 10.0392C16.8407 10.478 16.7432 10.8734 16.5482 11.2252C16.3565 11.5735 16.1005 11.8504 15.7801 12.0559ZM9.72987 17.2231H5.81657C5.46477 17.2231 5.21573 17.1517 5.06944 17.009C4.92315 16.8696 4.85 16.6728 4.85 16.4185C4.85 16.0632 4.94056 15.7027 5.12169 15.337C5.30281 14.9678 5.56056 14.6282 5.89494 14.3182C6.23281 14.0047 6.63685 13.7522 7.10708 13.5606C7.58078 13.369 8.11022 13.2732 8.69539 13.2732C9.16909 13.2732 9.5923 13.336 9.96499 13.4613C10.3412 13.5833 10.6738 13.7365 10.9629 13.9211C10.6668 14.1545 10.4108 14.4192 10.1949 14.7153C9.97892 15.0079 9.81173 15.3092 9.69331 15.6191C9.57836 15.9291 9.52089 16.2235 9.52089 16.5021C9.52089 16.7843 9.59055 17.0246 9.72987 17.2231ZM9.60971 12.2179C9.33106 12.3955 9.02628 12.4843 8.69539 12.4843C8.36448 12.4843 8.05971 12.3955 7.78106 12.2179C7.50241 12.0367 7.27949 11.7947 7.1123 11.4916C6.94511 11.1851 6.86152 10.8438 6.86152 10.4676C6.85803 10.0984 6.94162 9.76399 7.1123 9.46444C7.28297 9.16489 7.50764 8.92804 7.78629 8.75389C8.06494 8.57625 8.36797 8.48742 8.69539 8.48742C9.0228 8.48742 9.32583 8.5745 9.60448 8.74866C9.88661 8.91933 10.1113 9.15444 10.2785 9.45399C10.4457 9.75006 10.5293 10.0862 10.5293 10.4624C10.5293 10.8385 10.4457 11.1799 10.2785 11.4864C10.1113 11.7929 9.88836 12.0367 9.60971 12.2179Z" fill="#242424"/>
</svg>
