<svg width="24" height="25" viewBox="0 0 24 25" fill="none" xmlns="http://www.w3.org/2000/svg">
<path d="M11.5227 16.7938H17.4455C17.835 16.7938 18.1074 16.7352 18.2626 16.618C18.4209 16.504 18.5 16.3378 18.5 16.1193C18.5 15.8185 18.4066 15.4987 18.2198 15.1599C18.033 14.821 17.7638 14.506 17.4123 14.2147C17.064 13.9202 16.6429 13.6811 16.1489 13.4974C15.655 13.3106 15.0992 13.2172 14.4818 13.2172C13.8675 13.2172 13.3133 13.3106 12.8193 13.4974C12.3254 13.6811 11.9026 13.9202 11.5512 14.2147C11.2028 14.506 10.9353 14.821 10.7485 15.1599C10.5648 15.4987 10.473 15.8185 10.473 16.1193C10.473 16.3378 10.5506 16.504 10.7057 16.618C10.8609 16.7352 11.1332 16.7938 11.5227 16.7938ZM14.4865 12.3765C14.8316 12.3765 15.1483 12.2831 15.4364 12.0963C15.7278 11.9094 15.9605 11.6577 16.1347 11.3411C16.312 11.0212 16.4007 10.6619 16.4007 10.2629C16.4007 9.87656 16.312 9.52825 16.1347 9.21793C15.9605 8.90445 15.7278 8.65746 15.4364 8.47697C15.1483 8.29648 14.8316 8.20624 14.4865 8.20624C14.1445 8.20624 13.8279 8.29807 13.5366 8.48172C13.2452 8.66538 13.0109 8.91395 12.8336 9.22743C12.6594 9.53775 12.5724 9.88606 12.5724 10.2724C12.5724 10.6682 12.6594 11.0244 12.8336 11.3411C13.0077 11.6577 13.2389 11.9094 13.5271 12.0963C13.8183 12.2831 14.1382 12.3765 14.4865 12.3765ZM6.3787 16.7938H9.93625C9.80959 16.6132 9.74626 16.3948 9.74626 16.1383C9.74626 15.885 9.79851 15.6174 9.90301 15.3356C10.0107 15.0538 10.1627 14.7799 10.359 14.5139C10.5553 14.2447 10.788 14.0041 11.0572 13.7919C10.7944 13.6241 10.492 13.4848 10.15 13.3739C9.81118 13.26 9.42645 13.203 8.99581 13.203C8.46384 13.203 7.98253 13.29 7.55189 13.4642C7.12441 13.6383 6.7571 13.8679 6.44995 14.1529C6.14596 14.4347 5.91164 14.7435 5.74699 15.0791C5.58233 15.4116 5.5 15.7393 5.5 16.0623C5.5 16.2934 5.5665 16.4724 5.69949 16.5991C5.83248 16.7288 6.05889 16.7938 6.3787 16.7938ZM8.99581 12.4857C9.29662 12.4857 9.57369 12.405 9.82701 12.2435C10.0803 12.0789 10.283 11.8572 10.435 11.5786C10.587 11.2999 10.663 10.9896 10.663 10.6476C10.663 10.3056 10.587 10.0001 10.435 9.7309C10.283 9.45858 10.0787 9.24484 9.82226 9.08969C9.56894 8.93136 9.29345 8.8522 8.99581 8.8522C8.69815 8.8522 8.42267 8.93295 8.16935 9.09444C7.91603 9.25276 7.71179 9.46808 7.55664 9.7404C7.40148 10.0127 7.32548 10.3167 7.32865 10.6524C7.32865 10.9943 7.40465 11.3046 7.55664 11.5833C7.70863 11.8588 7.91128 12.0789 8.1646 12.2435C8.41792 12.405 8.69498 12.4857 8.99581 12.4857Z" fill="#FBFBFB"/>
<path fill-rule="evenodd" clip-rule="evenodd" d="M12 22.5C17.5228 22.5 22 18.0228 22 12.5C22 6.97717 17.5228 2.5 12 2.5C6.47717 2.5 2 6.97717 2 12.5C2 18.0228 6.47717 22.5 12 22.5ZM17.4456 16.7938H11.5226C11.1332 16.7938 10.8608 16.7352 10.7057 16.618C10.5505 16.504 10.473 16.3378 10.473 16.1193C10.473 15.8185 10.5648 15.4987 10.7485 15.1599C10.9353 14.821 11.2028 14.506 11.5511 14.2147C11.9026 13.9202 12.3254 13.6811 12.8193 13.4974C13.3133 13.3106 13.8674 13.2172 14.4818 13.2172C15.0992 13.2172 15.655 13.3106 16.1489 13.4974C16.6429 13.6811 17.064 13.9202 17.4123 14.2147C17.7638 14.506 18.033 14.821 18.2198 15.1599C18.4066 15.4987 18.5 15.8185 18.5 16.1193C18.5 16.3378 18.4209 16.504 18.2626 16.618C18.1074 16.7352 17.835 16.7938 17.4456 16.7938ZM15.4364 12.0963C15.1483 12.2831 14.8316 12.3765 14.4865 12.3765C14.1382 12.3765 13.8184 12.2831 13.5271 12.0963C13.2389 11.9094 13.0078 11.6577 12.8336 11.3411C12.6594 11.0244 12.5723 10.6682 12.5723 10.2724C12.5723 9.88605 12.6594 9.53772 12.8336 9.22742C13.0109 8.91394 13.2452 8.66541 13.5366 8.48175C13.8279 8.2981 14.1445 8.20624 14.4865 8.20624C14.8316 8.20624 15.1483 8.29651 15.4364 8.47699C15.7278 8.65747 15.9605 8.90442 16.1347 9.21796C16.312 9.52826 16.4006 9.87659 16.4006 10.2629C16.4006 10.6619 16.312 11.0212 16.1347 11.3411C15.9605 11.6577 15.7278 11.9094 15.4364 12.0963ZM9.93628 16.7938H6.37872C6.0589 16.7938 5.83246 16.7288 5.69946 16.5991C5.56647 16.4724 5.5 16.2935 5.5 16.0623C5.5 15.7393 5.58234 15.4116 5.74701 15.0791C5.91162 14.7435 6.14594 14.4348 6.44995 14.1529C6.75708 13.8679 7.12439 13.6384 7.55188 13.4642C7.98254 13.29 8.46381 13.2029 8.99579 13.2029C9.42645 13.2029 9.81116 13.2599 10.15 13.374C10.4919 13.4848 10.7944 13.6241 11.0572 13.7919C10.788 14.0041 10.5553 14.2448 10.359 14.5139C10.1627 14.7798 10.0107 15.0538 9.90302 15.3356C9.79852 15.6174 9.74628 15.8849 9.74628 16.1383C9.74628 16.3948 9.80957 16.6132 9.93628 16.7938ZM9.82703 12.2435C9.57367 12.405 9.29663 12.4858 8.99579 12.4858C8.69501 12.4858 8.41791 12.405 8.16461 12.2435C7.91125 12.0789 7.70862 11.8588 7.55664 11.5833C7.40466 11.3046 7.32867 10.9943 7.32867 10.6523C7.3255 10.3167 7.40149 10.0127 7.55664 9.74042C7.71179 9.46808 7.91602 9.25275 8.16937 9.09442C8.42267 8.93292 8.69818 8.85223 8.99579 8.85223C9.29346 8.85223 9.56897 8.93134 9.82227 9.08972C10.0787 9.24487 10.283 9.45856 10.435 9.7309C10.587 10.0001 10.663 10.3056 10.663 10.6476C10.663 10.9896 10.587 11.2999 10.435 11.5786C10.283 11.8572 10.0803 12.0789 9.82703 12.2435Z" fill="#242424"/>
</svg>
