<svg width="20" height="20" viewBox="0 0 20 20" fill="none" xmlns="http://www.w3.org/2000/svg">
<path d="M8.66797 17.3594H12.9302H17.1924C17.7529 17.3594 18.1449 17.275 18.3682 17.1064C18.596 16.9424 18.71 16.7031 18.71 16.3886C18.71 15.9557 18.5755 13.4954 18.3066 13.0078C18.0378 12.5202 17.6504 12.0667 17.1445 11.6474C16.6432 11.2236 16.0371 10.8795 15.3262 10.6152C14.6152 10.3463 13.8154 10.2119 12.9268 10.2119C12.0426 10.2119 11.2451 10.3463 10.5342 10.6152C9.8232 10.8795 9.21485 11.2236 8.70899 11.6474C8.20768 12.0667 7.82259 12.5202 7.55371 13.0078C7.28939 13.4954 7.15723 15.9557 7.15723 16.3886C7.15723 16.7031 7.26888 16.9424 7.49219 17.1064C7.7155 17.275 8.10742 17.3594 8.66797 17.3594ZM12.9336 9.00192C13.4303 9.00192 13.8861 8.86751 14.3008 8.59863C14.7201 8.32975 15.055 7.96744 15.3057 7.51172C15.5609 7.05143 15.6885 6.53418 15.6885 5.95996C15.6885 5.40397 15.5609 4.90267 15.3057 4.45605C15.055 4.00488 14.7201 3.64941 14.3008 3.38964C13.8861 3.12988 13.4303 3 12.9336 3C12.4414 3 11.9857 3.13216 11.5664 3.39648C11.1471 3.6608 10.8099 4.01855 10.5547 4.46972C10.304 4.91634 10.1787 5.41764 10.1787 5.97363C10.1787 6.54329 10.304 7.05599 10.5547 7.51172C10.8053 7.96744 11.138 8.32975 11.5527 8.59863C11.972 8.86751 12.4323 9.00192 12.9336 9.00192ZM1.26465 17.3594H6.38477C6.20248 17.0996 6.11133 16.7851 6.11133 16.416C6.11133 16.0514 6.18652 13.6663 6.33692 13.2607C6.49186 12.8551 6.71061 12.4609 6.99317 12.0781C7.27572 11.6907 7.61068 11.3444 7.99805 11.039C7.61979 10.7975 7.18457 10.597 6.69238 10.4375C6.20475 10.2734 5.65104 10.1914 5.03125 10.1914C4.26563 10.1914 3.57292 10.3167 2.95313 10.5674C2.33789 10.818 1.80925 11.1484 1.36719 11.5586C0.929688 11.9642 0.592448 12.4085 0.355468 12.8916C0.118489 13.3701 0 15.8418 0 16.3066C0 16.6393 0.095703 16.8968 0.287109 17.0791C0.478518 17.2659 0.804358 17.3594 1.26465 17.3594ZM5.03125 9.15922C5.46419 9.15922 5.86296 9.04292 6.22754 8.81054C6.59212 8.57356 6.88379 8.25455 7.10254 7.85351C7.32129 7.45247 7.43067 7.00586 7.43067 6.51367C7.43067 6.02148 7.32129 5.5817 7.10254 5.19433C6.88379 4.80241 6.58985 4.49479 6.2207 4.27148C5.85612 4.04362 5.45964 3.92968 5.03125 3.92968C4.60287 3.92968 4.20638 4.0459 3.8418 4.27832C3.47722 4.50618 3.18327 4.81608 2.95996 5.208C2.73666 5.59993 2.62728 6.03743 2.63184 6.5205C2.63184 7.01269 2.74121 7.45931 2.95996 7.86035C3.17871 8.25683 3.47038 8.57356 3.83496 8.81054C4.19955 9.04292 4.59831 9.15922 5.03125 9.15922Z" fill="#38383D"/>
</svg>
