<svg width="20" height="20" viewBox="0 0 20 20" fill="none" xmlns="http://www.w3.org/2000/svg">
<path d="M17.4307 13.7764L13.4043 10.0029C13.2493 9.86621 13.0853 9.76367 12.9121 9.69531C12.7389 9.62695 12.5635 9.59277 12.3857 9.59277C12.1989 9.59277 12.0212 9.62695 11.8525 9.69531C11.6839 9.75911 11.5221 9.85938 11.3672 9.99609L8.28418 12.751L7.02637 11.6162C6.88509 11.4932 6.7347 11.3997 6.5752 11.3359C6.42025 11.2676 6.26302 11.2334 6.10352 11.2334C5.93945 11.2334 5.78678 11.2653 5.64551 11.3291C5.50879 11.3883 5.36979 11.4818 5.22852 11.6094L2.69238 13.8516C2.7015 14.5033 2.88379 15 3.23926 15.3418C3.59473 15.6882 4.10514 15.8613 4.77051 15.8613H15.1885C15.9951 15.8613 16.5898 15.6813 16.9727 15.3213C17.36 14.9658 17.5127 14.4508 17.4307 13.7764ZM7.49805 10.2969C7.80339 10.2969 8.08366 10.2217 8.33887 10.0713C8.59408 9.9209 8.79688 9.7181 8.94727 9.46289C9.10221 9.20312 9.17969 8.91829 9.17969 8.6084C9.17969 8.30306 9.10221 8.02279 8.94727 7.76758C8.79688 7.50781 8.59408 7.30273 8.33887 7.15234C8.08366 6.9974 7.80339 6.91992 7.49805 6.91992C7.18815 6.91992 6.90332 6.9974 6.64355 7.15234C6.38835 7.30273 6.18327 7.50781 6.02832 7.76758C5.87793 8.02279 5.80273 8.30306 5.80273 8.6084C5.80273 8.91829 5.87793 9.20312 6.02832 9.46289C6.18327 9.7181 6.38835 9.9209 6.64355 10.0713C6.90332 10.2217 7.18815 10.2969 7.49805 10.2969ZM4.25098 16.6064H15.7422C16.526 16.6064 17.123 16.3991 17.5332 15.9844C17.9479 15.5742 18.1553 14.9818 18.1553 14.207V5.93555C18.1553 5.16081 17.9479 4.56836 17.5332 4.1582C17.123 3.74349 16.526 3.53613 15.7422 3.53613H4.25098C3.47168 3.53613 2.87467 3.74121 2.45996 4.15137C2.04525 4.56152 1.83789 5.15625 1.83789 5.93555V14.207C1.83789 14.9818 2.04525 15.5742 2.45996 15.9844C2.87467 16.3991 3.47168 16.6064 4.25098 16.6064ZM4.44238 14.8428C4.16895 14.8428 3.95931 14.7744 3.81348 14.6377C3.6722 14.4964 3.60156 14.2799 3.60156 13.9883V6.14746C3.60156 5.85579 3.6722 5.6416 3.81348 5.50488C3.95931 5.36816 4.16895 5.2998 4.44238 5.2998H15.5508C15.8242 5.2998 16.0316 5.36816 16.1729 5.50488C16.3187 5.6416 16.3916 5.85579 16.3916 6.14746V13.9883C16.3916 14.2799 16.3187 14.4964 16.1729 14.6377C16.0316 14.7744 15.8242 14.8428 15.5508 14.8428H4.44238Z" fill="black"/>
</svg>
