<svg width="25" height="25" viewBox="0 0 25 25" fill="none" xmlns="http://www.w3.org/2000/svg">
<path d="M5.23113 23.5H19.5011C20.7738 23.5 21.7361 23.174 22.3881 22.522C23.0401 21.8779 23.3661 20.9272 23.3661 19.6703V5.32967C23.3661 4.06491 23.0401 3.11044 22.3881 2.46625C21.7361 1.82209 20.7738 1.5 19.5011 1.5H5.23113C3.95848 1.5 2.99616 1.82209 2.34413 2.46625C1.6921 3.11044 1.36609 4.06491 1.36609 5.32967V19.6703C1.36609 20.9272 1.6921 21.8779 2.34413 22.522C2.99616 23.174 3.95848 23.5 5.23113 23.5ZM12.1363 14.9333C11.3508 14.9333 10.958 14.5798 10.958 13.8728C10.958 13.8492 10.958 13.8257 10.958 13.8021C10.958 13.7785 10.958 13.7589 10.958 13.7432C10.958 13.1776 11.0994 12.7219 11.3822 12.3763C11.6728 12.0228 12.0342 11.6928 12.4663 11.3865C12.9848 11.0251 13.3736 10.7226 13.6328 10.4791C13.8921 10.2277 14.0217 9.90565 14.0217 9.51287C14.0217 9.09651 13.8685 8.75871 13.5621 8.49947C13.2558 8.24024 12.8591 8.11061 12.372 8.11061C12.1285 8.11061 11.9006 8.1499 11.6885 8.22845C11.4843 8.30701 11.2958 8.42091 11.1229 8.57018C10.9501 8.71944 10.7891 8.90405 10.6398 9.12401L10.4631 9.38325C10.3374 9.54036 10.196 9.66605 10.0388 9.76033C9.88173 9.84674 9.68925 9.88994 9.46144 9.88994C9.21005 9.88994 8.98224 9.80353 8.77799 9.63069C8.58159 9.45788 8.48339 9.22613 8.48339 8.93547C8.48339 8.82548 8.49518 8.71552 8.51875 8.60553C8.54232 8.49554 8.56981 8.3895 8.60124 8.28738C8.80549 7.70604 9.24541 7.21113 9.92101 6.80262C10.5966 6.39414 11.4647 6.18989 12.5252 6.18989C13.2558 6.18989 13.9235 6.31558 14.5284 6.56697C15.1333 6.81835 15.6203 7.18364 15.9896 7.66284C16.3667 8.13418 16.5552 8.71157 16.5552 9.39504C16.5552 10.1099 16.3706 10.6794 16.0014 11.1037C15.64 11.52 15.1569 11.9207 14.552 12.3056C14.1513 12.5648 13.845 12.8123 13.6328 13.0479C13.4207 13.2836 13.3029 13.5625 13.2793 13.8846C13.2793 13.9003 13.2793 13.9239 13.2793 13.9553C13.2793 13.9789 13.2793 14.0024 13.2793 14.026C13.2636 14.2852 13.1536 14.5013 12.9494 14.6741C12.7451 14.8469 12.4741 14.9333 12.1363 14.9333ZM12.1128 18.6805C11.72 18.6805 11.3822 18.5548 11.0994 18.3034C10.8166 18.0442 10.6752 17.7221 10.6752 17.3372C10.6752 16.9523 10.8126 16.6302 11.0876 16.3709C11.3704 16.1117 11.7121 15.9821 12.1128 15.9821C12.5134 15.9821 12.8512 16.1117 13.1262 16.3709C13.409 16.6302 13.5504 16.9523 13.5504 17.3372C13.5504 17.7221 13.409 18.0442 13.1262 18.3034C12.8433 18.5548 12.5055 18.6805 12.1128 18.6805Z" fill="#38383D"/>
</svg>
