<svg width="20" height="21" viewBox="0 0 20 21" fill="none" xmlns="http://www.w3.org/2000/svg">
<path d="M9.99316 17.7832C10.9867 17.7832 11.9186 17.5941 12.7891 17.2158C13.6595 16.8421 14.4251 16.3226 15.0859 15.6572C15.7513 14.9964 16.2731 14.2308 16.6514 13.3604C17.0296 12.4899 17.2188 11.5579 17.2188 10.5645C17.2188 9.57552 17.0296 8.64583 16.6514 7.77539C16.2731 6.90495 15.7513 6.13704 15.0859 5.47168C14.4251 4.80632 13.6572 4.28678 12.7822 3.91309C11.9118 3.53483 10.9821 3.3457 9.99316 3.3457C9.00423 3.3457 8.07227 3.53483 7.19727 3.91309C6.32682 4.28678 5.55892 4.80632 4.89355 5.47168C4.23275 6.13704 3.71322 6.90495 3.33496 7.77539C2.96126 8.64583 2.77441 9.57552 2.77441 10.5645C2.77441 11.5579 2.96126 12.4899 3.33496 13.3604C3.71322 14.2308 4.23503 14.9964 4.90039 15.6572C5.56576 16.3226 6.33366 16.8421 7.2041 17.2158C8.07454 17.5941 9.00423 17.7832 9.99316 17.7832ZM9.99316 15.9854C9.24577 15.9854 8.54395 15.8441 7.8877 15.5615C7.23145 15.2835 6.65495 14.8984 6.1582 14.4062C5.66146 13.9095 5.27409 13.333 4.99609 12.6768C4.7181 12.0205 4.5791 11.3164 4.5791 10.5645C4.5791 9.8125 4.7181 9.11068 4.99609 8.45898C5.27409 7.80273 5.66146 7.22624 6.1582 6.72949C6.65495 6.23275 7.22917 5.84538 7.88086 5.56738C8.53711 5.28483 9.24121 5.14355 9.99316 5.14355C10.7451 5.14355 11.4469 5.28483 12.0986 5.56738C12.7549 5.84538 13.3314 6.23275 13.8281 6.72949C14.3249 7.22624 14.7145 7.80273 14.9971 8.45898C15.2796 9.11068 15.4209 9.8125 15.4209 10.5645C15.4209 11.3164 15.2796 12.0205 14.9971 12.6768C14.7191 13.333 14.3317 13.9095 13.835 14.4062C13.3382 14.8984 12.7617 15.2835 12.1055 15.5615C11.4492 15.8441 10.7451 15.9854 9.99316 15.9854ZM7.13574 13.8936H12.8438C13.0169 13.8936 13.1445 13.8411 13.2266 13.7363C13.3132 13.6315 13.3564 13.5016 13.3564 13.3467C13.3564 13.1644 13.2904 12.932 13.1582 12.6494C13.026 12.3623 12.8232 12.0775 12.5498 11.7949C12.2764 11.5078 11.9277 11.2686 11.5039 11.0771C11.0801 10.8812 10.5765 10.7832 9.99316 10.7832C9.40983 10.7832 8.90625 10.8812 8.48242 11.0771C8.05859 11.2686 7.70996 11.5078 7.43652 11.7949C7.16309 12.0775 6.95801 12.3623 6.82129 12.6494C6.68913 12.932 6.62305 13.1644 6.62305 13.3467C6.62305 13.5016 6.66634 13.6315 6.75293 13.7363C6.83952 13.8411 6.96712 13.8936 7.13574 13.8936ZM9.99316 10.2773C10.3031 10.2819 10.5856 10.2044 10.8408 10.0449C11.1006 9.88086 11.3057 9.65983 11.4561 9.38184C11.611 9.09928 11.6885 8.78027 11.6885 8.4248C11.6885 8.09668 11.611 7.7959 11.4561 7.52246C11.3057 7.24447 11.1006 7.02344 10.8408 6.85938C10.5856 6.69531 10.3031 6.61328 9.99316 6.61328C9.67871 6.61328 9.3916 6.69531 9.13184 6.85938C8.87663 7.02344 8.67155 7.24447 8.5166 7.52246C8.36621 7.7959 8.29102 8.09668 8.29102 8.4248C8.29102 8.78027 8.36621 9.09701 8.5166 9.375C8.67155 9.65299 8.87663 9.87402 9.13184 10.0381C9.3916 10.1976 9.67871 10.2773 9.99316 10.2773Z" fill="black"/>
</svg>
