<svg width="24" height="25" viewBox="0 0 24 25" fill="none" xmlns="http://www.w3.org/2000/svg">
<g clip-path="url(#clip0_1112_5402)">
<path fill-rule="evenodd" clip-rule="evenodd" d="M12 24.5C18.6274 24.5 24 19.1274 24 12.5C24 5.87258 18.6274 0.5 12 0.5C5.37258 0.5 0 5.87258 0 12.5C0 19.1274 5.37258 24.5 12 24.5ZM11.5321 11.124L12.5457 10.1103C12.8036 10.1685 13.0361 10.2539 13.2432 10.3665C13.4503 10.4755 13.6229 10.599 13.7609 10.737C14.2296 11.2021 14.5402 11.7162 14.6929 12.2793C14.849 12.8424 14.849 13.4055 14.6929 13.9686C14.5402 14.5318 14.2314 15.044 13.7664 15.5054L11.8154 17.4564C11.354 17.9178 10.8418 18.2266 10.2787 18.3828C9.71917 18.5391 9.15786 18.5391 8.59474 18.3828C8.03161 18.2302 7.51573 17.9178 7.04706 17.4455C6.58203 16.9805 6.27141 16.4663 6.11518 15.9033C5.95896 15.3401 5.95714 14.777 6.10973 14.2139C6.26596 13.6508 6.57658 13.1385 7.04161 12.6771L8.5457 11.1894C8.46577 11.4582 8.44215 11.7398 8.47485 12.034C8.51118 12.3283 8.58202 12.5954 8.68738 12.8351L7.98438 13.5327C7.69374 13.827 7.49938 14.1485 7.40128 14.4973C7.30683 14.8424 7.30864 15.1912 7.40673 15.5436C7.50483 15.8924 7.701 16.2139 7.99529 16.5082C8.28593 16.7988 8.60564 16.9913 8.95441 17.0858C9.30318 17.1839 9.65196 17.1839 10.0007 17.0858C10.3495 16.9913 10.6692 16.7988 10.9599 16.5082L12.8236 14.6498C13.1143 14.3592 13.3068 14.0395 13.4013 13.6907C13.4994 13.3419 13.4994 12.9932 13.4013 12.6444C13.3032 12.292 13.107 11.9705 12.8127 11.6798C12.6674 11.5309 12.4839 11.4092 12.2623 11.3147C12.0443 11.2166 11.8009 11.153 11.5321 11.124ZM12.4639 13.876L11.4558 14.8842C11.1978 14.8297 10.9653 14.7479 10.7582 14.6389C10.5511 14.5263 10.3786 14.3992 10.2405 14.2575C9.77185 13.7924 9.45941 13.2784 9.30318 12.7152C9.1506 12.1521 9.1506 11.5908 9.30318 11.0313C9.45941 10.4682 9.77003 9.95412 10.2351 9.48909L12.1806 7.54359C12.6456 7.07856 13.1579 6.76975 13.7173 6.61717C14.2805 6.46094 14.8418 6.46094 15.4013 6.61717C15.9643 6.76975 16.4821 7.08038 16.9544 7.54904C17.4194 8.01771 17.7301 8.5336 17.8862 9.09673C18.0425 9.65985 18.0425 10.223 17.8862 10.7861C17.7337 11.3456 17.4249 11.856 16.9599 12.3174L15.4558 13.8106C15.5357 13.5381 15.5574 13.2566 15.5212 12.9659C15.4884 12.6716 15.4194 12.4028 15.314 12.1594L16.0116 11.4618C16.3022 11.1712 16.4949 10.8515 16.5893 10.5027C16.6874 10.1539 16.6874 9.80517 16.5893 9.4564C16.4911 9.10763 16.2968 8.7861 16.0062 8.49182C15.7119 8.20118 15.3904 8.00681 15.0416 7.90871C14.6965 7.81062 14.3495 7.81062 14.0007 7.90871C13.6519 8.00318 13.3304 8.19754 13.0361 8.49182L11.1778 10.3501C10.8872 10.6408 10.6928 10.9605 10.5947 11.3092C10.4966 11.6544 10.4966 12.0032 10.5947 12.3556C10.6928 12.7043 10.889 13.0259 11.1833 13.3201C11.3322 13.4655 11.5157 13.5872 11.7337 13.6853C11.9517 13.7797 12.1951 13.8433 12.4639 13.876Z" fill="#01ACFD"/>
</g>
<defs>
<clipPath id="clip0_1112_5402">
<rect width="24" height="24" fill="white" transform="translate(0 0.5)"/>
</clipPath>
</defs>
</svg>
