<svg width="24" height="25" viewBox="0 0 24 25" fill="none" xmlns="http://www.w3.org/2000/svg">
<path fill-rule="evenodd" clip-rule="evenodd" d="M12 23.5C18.0751 23.5 23 18.5751 23 12.5C23 6.42487 18.0751 1.5 12 1.5C5.92487 1.5 1 6.42487 1 12.5C1 18.5751 5.92487 23.5 12 23.5ZM11.5323 11.124L12.5454 10.1103C12.8031 10.1685 13.0355 10.2539 13.2425 10.3665C13.4495 10.4755 13.6219 10.599 13.7599 10.737C14.2283 11.2021 14.5388 11.7162 14.6913 12.2793C14.8474 12.8424 14.8474 13.4055 14.6913 13.9686C14.5388 14.5318 14.2301 15.044 13.7654 15.5054L11.8155 17.4564C11.3544 17.9178 10.8424 18.2266 10.2796 18.3828C9.72043 18.5391 9.15944 18.5391 8.59663 18.3828C8.03383 18.2302 7.51823 17.9178 7.04983 17.4455C6.58506 16.9805 6.27461 16.4663 6.11848 15.9033C5.96234 15.3401 5.96053 14.777 6.11303 14.2139C6.26917 13.6508 6.57961 13.1385 7.04438 12.6771L8.54762 11.1894C8.46773 11.4582 8.44413 11.7398 8.47682 12.034C8.51312 12.3283 8.58393 12.5954 8.68922 12.8351L7.98663 13.5327C7.69615 13.827 7.50189 14.1485 7.40385 14.4973C7.30945 14.8424 7.31126 15.1912 7.4093 15.5436C7.50734 15.8924 7.7034 16.2139 7.99752 16.5082C8.288 16.7988 8.60753 16.9913 8.9561 17.0858C9.30468 17.1839 9.65326 17.1839 10.0018 17.0858C10.3504 16.9913 10.6699 16.7988 10.9604 16.5082L12.8231 14.6498C13.1136 14.3592 13.306 14.0395 13.4004 13.6907C13.4985 13.3419 13.4985 12.9932 13.4004 12.6444C13.3024 12.292 13.1063 11.9705 12.8122 11.6798C12.667 11.5309 12.4836 11.4092 12.2621 11.3147C12.0443 11.2166 11.801 11.153 11.5323 11.124ZM12.4637 13.876L11.456 14.8842C11.1982 14.8297 10.9659 14.7479 10.7589 14.6389C10.5519 14.5263 10.3795 14.3992 10.2415 14.2575C9.77308 13.7924 9.46081 13.2784 9.30468 12.7152C9.15218 12.1521 9.15218 11.5908 9.30468 11.0313C9.46081 10.4682 9.77126 9.95412 10.236 9.48909L12.1804 7.54359C12.6452 7.07856 13.1572 6.76975 13.7163 6.61717C14.2792 6.46094 14.8401 6.46094 15.3993 6.61717C15.9621 6.76975 16.4796 7.08038 16.9516 7.54904C17.4163 8.01771 17.7268 8.5336 17.8829 9.09673C18.039 9.65985 18.039 10.223 17.8829 10.7861C17.7304 11.3456 17.4218 11.856 16.9571 12.3174L15.4538 13.8106C15.5337 13.5381 15.5554 13.2566 15.5192 12.9659C15.4864 12.6716 15.4175 12.4028 15.3122 12.1594L16.0093 11.4618C16.2998 11.1712 16.4923 10.8515 16.5866 10.5027C16.6847 10.1539 16.6847 9.80517 16.5866 9.4564C16.4886 9.10763 16.2944 8.7861 16.0039 8.49182C15.7098 8.20118 15.3885 8.00681 15.0399 7.90871C14.6949 7.81062 14.3481 7.81062 13.9996 7.90871C13.651 8.00318 13.3296 8.19754 13.0355 8.49182L11.1783 10.3501C10.8878 10.6408 10.6935 10.9605 10.5955 11.3092C10.4975 11.6544 10.4975 12.0032 10.5955 12.3556C10.6935 12.7043 10.8896 13.0259 11.1837 13.3201C11.3326 13.4655 11.516 13.5872 11.7338 13.6853C11.9517 13.7797 12.195 13.8433 12.4637 13.876Z" fill="#01ACFD"/>
</svg>
