<svg width="20" height="20" viewBox="0 0 20 20" fill="none" xmlns="http://www.w3.org/2000/svg">
<path d="M7.21094 6.72852C7.38867 6.72852 7.53906 6.66699 7.66211 6.54395C7.78516 6.41634 7.84668 6.26367 7.84668 6.08594C7.84668 5.91276 7.78516 5.76465 7.66211 5.6416C7.53906 5.514 7.38867 5.4502 7.21094 5.4502C7.0332 5.4502 6.88053 5.514 6.75293 5.6416C6.62988 5.76465 6.56836 5.91276 6.56836 6.08594C6.56836 6.25911 6.62988 6.40951 6.75293 6.53711C6.88053 6.66471 7.0332 6.72852 7.21094 6.72852ZM7.21094 8.66992C7.38867 8.66992 7.53906 8.6084 7.66211 8.48535C7.78516 8.3623 7.84668 8.21191 7.84668 8.03418C7.84668 7.85645 7.78516 7.70833 7.66211 7.58984C7.53906 7.4668 7.38867 7.40527 7.21094 7.40527C7.02865 7.40527 6.87598 7.4668 6.75293 7.58984C6.62988 7.71289 6.56836 7.861 6.56836 8.03418C6.56836 8.21191 6.62988 8.3623 6.75293 8.48535C6.87598 8.6084 7.02865 8.66992 7.21094 8.66992ZM7.21094 10.7207C7.38867 10.7207 7.53906 10.6592 7.66211 10.5361C7.78516 10.4085 7.84668 10.2559 7.84668 10.0781C7.84668 9.90039 7.78516 9.75 7.66211 9.62695C7.53906 9.50391 7.38867 9.44238 7.21094 9.44238C7.0332 9.44238 6.88053 9.50618 6.75293 9.63379C6.62988 9.75684 6.56836 9.90495 6.56836 10.0781C6.56836 10.2513 6.62988 10.4017 6.75293 10.5293C6.88053 10.6569 7.0332 10.7207 7.21094 10.7207ZM9.00195 6.57129H12.9531C13.0807 6.57129 13.1924 6.52344 13.2881 6.42773C13.3838 6.33203 13.4316 6.2181 13.4316 6.08594C13.4316 5.95833 13.3838 5.84668 13.2881 5.75098C13.1969 5.65527 13.0853 5.60742 12.9531 5.60742H9.00195C8.86979 5.60742 8.75586 5.65527 8.66016 5.75098C8.56901 5.84668 8.52344 5.95833 8.52344 6.08594C8.52344 6.2181 8.56901 6.33203 8.66016 6.42773C8.75586 6.52344 8.86979 6.57129 9.00195 6.57129ZM9.00195 8.5127H12.9531C13.0853 8.5127 13.1969 8.46712 13.2881 8.37598C13.3838 8.28027 13.4316 8.16634 13.4316 8.03418C13.4316 7.90202 13.3838 7.79036 13.2881 7.69922C13.1969 7.60807 13.0853 7.5625 12.9531 7.5625H9.00195C8.86979 7.5625 8.75586 7.60807 8.66016 7.69922C8.56901 7.79036 8.52344 7.90202 8.52344 8.03418C8.52344 8.16634 8.56901 8.28027 8.66016 8.37598C8.75586 8.46712 8.86979 8.5127 9.00195 8.5127ZM9.00195 10.5566H12.9531C13.0807 10.5566 13.1924 10.5111 13.2881 10.4199C13.3838 10.3242 13.4316 10.2103 13.4316 10.0781C13.4316 9.94596 13.3838 9.83431 13.2881 9.74316C13.1969 9.65202 13.0853 9.60645 12.9531 9.60645H9.00195C8.86979 9.60645 8.75586 9.65202 8.66016 9.74316C8.56901 9.83431 8.52344 9.94596 8.52344 10.0781C8.52344 10.2103 8.56901 10.3242 8.66016 10.4199C8.75586 10.5111 8.86979 10.5566 9.00195 10.5566ZM3.93652 15.1777C3.93652 15.957 4.1416 16.554 4.55176 16.9688C4.96647 17.3835 5.5612 17.5908 6.33594 17.5908H13.6572C14.4365 17.5908 15.0312 17.3835 15.4414 16.9688C15.8516 16.554 16.0566 15.957 16.0566 15.1777V4.95801C16.0566 4.17871 15.8516 3.58171 15.4414 3.16699C15.0312 2.75228 14.4365 2.54492 13.6572 2.54492H6.33594C5.5612 2.54492 4.96647 2.75228 4.55176 3.16699C4.1416 3.58171 3.93652 4.17871 3.93652 4.95801V15.1777ZM5.7002 14.9795V5.15625C5.7002 4.87826 5.76855 4.66862 5.90527 4.52734C6.04655 4.38151 6.26302 4.30859 6.55469 4.30859H13.4453C13.737 4.30859 13.9512 4.38151 14.0879 4.52734C14.2246 4.66862 14.293 4.87826 14.293 5.15625V14.9795C14.293 15.2575 14.2246 15.4671 14.0879 15.6084C13.9512 15.7542 13.737 15.8271 13.4453 15.8271H6.55469C6.26302 15.8271 6.04655 15.7542 5.90527 15.6084C5.76855 15.4671 5.7002 15.2575 5.7002 14.9795Z" fill="black"/>
</svg>
