<svg width="24" height="25" viewBox="0 0 24 25" fill="none" xmlns="http://www.w3.org/2000/svg">
<path fill-rule="evenodd" clip-rule="evenodd" d="M12 23.5C18.0751 23.5 23 18.5751 23 12.5C23 6.42487 18.0751 1.5 12 1.5C5.92487 1.5 1 6.42487 1 12.5C1 18.5751 5.92487 23.5 12 23.5ZM14.9846 18.6111H9.01544C8.60392 18.6111 8.29527 18.5041 8.08951 18.2901C7.88375 18.0803 7.78087 17.751 7.78087 17.3025V12.6914C7.78087 12.251 7.90021 11.9259 8.1389 11.7161C8.31551 11.5634 8.53568 11.4663 8.79939 11.4246V9.87039C8.79939 9.28602 8.88787 8.77573 9.06482 8.33952C9.24589 7.90331 9.48663 7.54117 9.78704 7.2531C10.0916 6.96504 10.4331 6.74899 10.8117 6.60495C11.1945 6.46092 11.5916 6.3889 12.0031 6.3889C12.4105 6.3889 12.8056 6.46092 13.1883 6.60495C13.571 6.74899 13.9126 6.96504 14.213 7.2531C14.5175 7.54117 14.7582 7.90331 14.9352 8.33952C15.1121 8.77573 15.2006 9.28602 15.2006 9.87039V11.3995C15.5089 11.4313 15.7455 11.5348 15.9105 11.7099C16.1163 11.9198 16.2191 12.2469 16.2191 12.6914V17.3025C16.2191 17.751 16.1163 18.0803 15.9105 18.2901C15.7089 18.5041 15.4002 18.6111 14.9846 18.6111ZM14.0278 11.3909L9.97223 11.3994V9.7531C9.97223 9.2675 10.0648 8.8601 10.25 8.53088C10.4352 8.19755 10.6821 7.94652 10.9907 7.77779C11.2994 7.60495 11.6368 7.51853 12.0031 7.51853C12.3693 7.51853 12.7047 7.60495 13.0093 7.77779C13.3179 7.94652 13.5648 8.19755 13.75 8.53088C13.9352 8.8601 14.0278 9.2675 14.0278 9.7531V11.3909Z" fill="#38383D"/>
</svg>
