<svg width="20" height="20" viewBox="0 0 20 20" fill="none" xmlns="http://www.w3.org/2000/svg">
<path d="M5.98242 18.9922H14.0093C14.5682 18.9922 14.9832 18.8483 15.2544 18.5605C15.5311 18.2783 15.6694 17.8356 15.6694 17.2324V11.0317C15.6694 10.4341 15.5311 9.99414 15.2544 9.71191C14.9832 9.42415 14.5682 9.28027 14.0093 9.28027L6.11523 9.29688C5.56738 9.29688 5.13021 9.43799 4.80371 9.72021C4.48275 10.0024 4.32227 10.4396 4.32227 11.0317V17.2324C4.32227 17.8356 4.46061 18.2783 4.7373 18.5605C5.014 18.8483 5.42904 18.9922 5.98242 18.9922ZM5.69189 9.86963H7.26904V7.08057C7.26904 6.42757 7.39355 5.87972 7.64258 5.43701C7.8916 4.98877 8.22363 4.6512 8.63867 4.42432C9.05371 4.19189 9.50749 4.07568 10 4.07568C10.4925 4.07568 10.9435 4.19189 11.353 4.42432C11.7681 4.6512 12.1001 4.98877 12.3491 5.43701C12.5981 5.87972 12.7227 6.42757 12.7227 7.08057V9.86963H14.2998V7.23828C14.2998 6.45247 14.1808 5.76628 13.9429 5.17969C13.7049 4.5931 13.3812 4.10612 12.9717 3.71875C12.5677 3.33138 12.1084 3.04085 11.5938 2.84717C11.0791 2.65348 10.5479 2.55664 10 2.55664C9.44661 2.55664 8.9126 2.65348 8.39795 2.84717C7.88883 3.04085 7.42952 3.33138 7.02002 3.71875C6.61605 4.10612 6.29232 4.5931 6.04883 5.17969C5.81087 5.76628 5.69189 6.45247 5.69189 7.23828V9.86963Z" fill="#38383D"/>
</svg>
