<svg width="24" height="25" viewBox="0 0 24 25" fill="none" xmlns="http://www.w3.org/2000/svg">
<circle cx="12" cy="12.5" r="10" fill="#38383D"/>
<path d="M9.28675 18.0556H14.7132C15.0911 18.0556 15.3717 17.9583 15.555 17.7637C15.742 17.5729 15.8356 17.2737 15.8356 16.8659V12.674C15.8356 12.2699 15.742 11.9725 15.555 11.7817C15.3717 11.5872 15.0911 11.4899 14.7132 11.4899L9.37653 11.5011C9.00616 11.5011 8.71062 11.5965 8.48989 11.7873C8.27291 11.9781 8.16441 12.2737 8.16441 12.674V16.8659C8.16441 17.2737 8.25794 17.5729 8.445 17.7637C8.63205 17.9583 8.91264 18.0556 9.28675 18.0556ZM9.09034 11.8883H10.1566V10.0028C10.1566 9.56135 10.2407 9.19098 10.4091 8.89169C10.5774 8.58866 10.8019 8.36045 11.0825 8.20707C11.3631 8.04994 11.6698 7.97138 12.0028 7.97138C12.3358 7.97138 12.6407 8.04994 12.9175 8.20707C13.1981 8.36045 13.4226 8.58866 13.5909 8.89169C13.7593 9.19098 13.8434 9.56135 13.8434 10.0028V11.8883H14.9096V10.1094C14.9096 9.57819 14.8292 9.11429 14.6683 8.71773C14.5075 8.32117 14.2886 7.99195 14.0118 7.73008C13.7387 7.4682 13.4282 7.27179 13.0802 7.14085C12.7323 7.00991 12.3732 6.94444 12.0028 6.94444C11.6287 6.94444 11.2677 7.00991 10.9197 7.14085C10.5756 7.27179 10.265 7.4682 9.98821 7.73008C9.71511 7.99195 9.49625 8.32117 9.33164 8.71773C9.17077 9.11429 9.09034 9.57819 9.09034 10.1094V11.8883Z" fill="#FBFBFB"/>
</svg>
