<svg width="20" height="20" viewBox="0 0 20 20" fill="none" xmlns="http://www.w3.org/2000/svg">
<path d="M4.25098 16.2646H15.7422C16.526 16.2646 17.123 16.0573 17.5332 15.6426C17.9479 15.2324 18.1553 14.64 18.1553 13.8652V9.79785C18.1553 9.47884 18.1393 9.20996 18.1074 8.99121C18.0755 8.7679 18.0186 8.56966 17.9365 8.39648C17.8545 8.22331 17.7383 8.04329 17.5879 7.85645L15.5303 5.34082C15.2295 4.97168 14.9652 4.68001 14.7373 4.46582C14.5094 4.25163 14.2588 4.10124 13.9854 4.01465C13.7165 3.9235 13.3701 3.87793 12.9463 3.87793H7.05371C6.62533 3.87793 6.27669 3.9235 6.00781 4.01465C5.73893 4.10124 5.49056 4.25163 5.2627 4.46582C5.03483 4.68001 4.77051 4.97168 4.46973 5.34082L2.40527 7.85645C2.25944 8.04329 2.14323 8.22331 2.05664 8.39648C1.97461 8.56966 1.91764 8.7679 1.88574 8.99121C1.85384 9.20996 1.83789 9.47884 1.83789 9.79785V13.8652C1.83789 14.64 2.04525 15.2324 2.45996 15.6426C2.87467 16.0573 3.47168 16.2646 4.25098 16.2646ZM4.39453 14.501C4.12109 14.501 3.91146 14.4326 3.76562 14.2959C3.62435 14.1592 3.55371 13.945 3.55371 13.6533V10.5361H7.2793C7.37956 10.9144 7.55729 11.2539 7.8125 11.5547C8.06771 11.8509 8.38216 12.0856 8.75586 12.2588C9.12956 12.4274 9.54427 12.5117 10 12.5117C10.4557 12.5117 10.8704 12.4251 11.2441 12.252C11.6178 12.0788 11.93 11.8441 12.1807 11.5479C12.4359 11.2516 12.6136 10.9144 12.7139 10.5361H16.4395V13.6533C16.4395 13.945 16.3665 14.1592 16.2207 14.2959C16.0794 14.4326 15.8721 14.501 15.5986 14.501H4.39453ZM10 10.8984C9.71745 10.8984 9.47591 10.8301 9.27539 10.6934C9.07487 10.5521 8.91992 10.3766 8.81055 10.167C8.70573 9.95736 8.65332 9.74316 8.65332 9.52441V9.50391C8.65332 9.38086 8.6123 9.27148 8.53027 9.17578C8.44824 9.08008 8.3138 9.03223 8.12695 9.03223H3.91602C3.80664 9.03223 3.74056 8.99349 3.71777 8.91602C3.69499 8.83854 3.71094 8.76562 3.76562 8.69727L6.13086 5.76465C6.25846 5.60514 6.39746 5.48665 6.54785 5.40918C6.7028 5.32715 6.88053 5.28613 7.08105 5.28613H12.9121C13.1172 5.28613 13.2949 5.32715 13.4453 5.40918C13.6003 5.48665 13.7415 5.60514 13.8691 5.76465L16.2344 8.69727C16.2891 8.76562 16.3027 8.83854 16.2754 8.91602C16.2526 8.99349 16.1888 9.03223 16.084 9.03223H11.8662C11.6839 9.03223 11.5518 9.08008 11.4697 9.17578C11.3877 9.27148 11.3467 9.38086 11.3467 9.50391V9.52441C11.3467 9.74316 11.292 9.95736 11.1826 10.167C11.0778 10.3766 10.9251 10.5521 10.7246 10.6934C10.5241 10.8301 10.2826 10.8984 10 10.8984ZM12.7891 6.16797H7.21094C7.11523 6.16797 7.0332 6.20215 6.96484 6.27051C6.90104 6.33431 6.86914 6.41406 6.86914 6.50977C6.86914 6.60547 6.90104 6.6875 6.96484 6.75586C7.0332 6.81966 7.11523 6.85156 7.21094 6.85156H12.7891C12.8848 6.85156 12.9645 6.81966 13.0283 6.75586C13.0921 6.6875 13.124 6.60547 13.124 6.50977C13.124 6.41406 13.0921 6.33431 13.0283 6.27051C12.9645 6.20215 12.8848 6.16797 12.7891 6.16797ZM13.6436 7.58301H6.34961C6.24935 7.58301 6.16504 7.62174 6.09668 7.69922C6.02832 7.77214 5.99414 7.85645 5.99414 7.95215C5.99414 8.04785 6.02832 8.13216 6.09668 8.20508C6.16504 8.27344 6.24935 8.30762 6.34961 8.30762H13.6436C13.7438 8.30762 13.8281 8.27344 13.8965 8.20508C13.9694 8.13216 14.0059 8.04785 14.0059 7.95215C14.0059 7.85645 13.9694 7.77214 13.8965 7.69922C13.8281 7.62174 13.7438 7.58301 13.6436 7.58301Z" fill="black"/>
</svg>
