<svg width="20" height="20" viewBox="0 0 20 20" fill="none" xmlns="http://www.w3.org/2000/svg">
<path d="M10.5742 17.4336C11.6634 17.4336 12.6159 17.3105 13.4316 17.0645C14.2474 16.8184 14.8831 16.4743 15.3389 16.0322C15.7946 15.5947 16.0225 15.0843 16.0225 14.501C16.0225 14.1318 15.9655 13.8288 15.8516 13.5918C15.7376 13.3503 15.6077 13.1429 15.4619 12.9697C15.3161 12.7965 15.1862 12.6302 15.0723 12.4707C14.9583 12.3112 14.9014 12.1266 14.9014 11.917C14.9014 11.7301 14.9971 11.5615 15.1885 11.4111C15.3799 11.2607 15.626 11.1126 15.9268 10.9668C16.2275 10.821 16.5465 10.6592 16.8838 10.4814C17.221 10.3037 17.54 10.0895 17.8408 9.83887C18.1462 9.58366 18.3945 9.27832 18.5859 8.92285C18.7773 8.56283 18.873 8.12988 18.873 7.62402C18.873 6.87207 18.6862 6.18848 18.3125 5.57324C17.9434 4.95345 17.4147 4.42253 16.7266 3.98047C16.043 3.53841 15.2227 3.19889 14.2656 2.96191C13.3132 2.72493 12.2536 2.60645 11.0869 2.60645C9.59668 2.60645 8.24089 2.78874 7.01953 3.15332C5.80273 3.5179 4.75456 4.03516 3.875 4.70508C2.99544 5.37044 2.31641 6.16341 1.83789 7.08398C1.36393 8 1.12695 9.01172 1.12695 10.1191C1.12695 11.2129 1.35254 12.2087 1.80371 13.1064C2.25488 13.9997 2.89746 14.7699 3.73145 15.417C4.56999 16.0641 5.56576 16.5609 6.71875 16.9072C7.8763 17.2581 9.16146 17.4336 10.5742 17.4336ZM10.5742 15.5264C9.43945 15.5264 8.40951 15.3965 7.48438 15.1367C6.55924 14.8815 5.764 14.5169 5.09863 14.043C4.43327 13.5645 3.92057 12.9948 3.56055 12.334C3.20508 11.6686 3.02734 10.9303 3.02734 10.1191C3.02734 9.27604 3.21875 8.51042 3.60156 7.82227C3.98438 7.13411 4.52897 6.54395 5.23535 6.05176C5.94629 5.55501 6.79622 5.17448 7.78516 4.91016C8.77409 4.64128 9.87467 4.50684 11.0869 4.50684C12.2673 4.50684 13.2995 4.63672 14.1836 4.89648C15.0677 5.15625 15.7536 5.52083 16.2412 5.99023C16.7288 6.45964 16.9727 7.00423 16.9727 7.62402C16.9727 7.99316 16.877 8.30534 16.6855 8.56055C16.4941 8.8112 16.2458 9.02995 15.9404 9.2168C15.6396 9.40365 15.3184 9.5791 14.9766 9.74316C14.6393 9.90723 14.318 10.0804 14.0127 10.2627C13.7119 10.4404 13.4658 10.6478 13.2744 10.8848C13.083 11.1217 12.9873 11.4134 12.9873 11.7598C12.9873 12.0651 13.042 12.3203 13.1514 12.5254C13.2653 12.7259 13.3929 12.9059 13.5342 13.0654C13.68 13.2249 13.8076 13.3867 13.917 13.5508C14.0309 13.7103 14.0879 13.904 14.0879 14.1318C14.0879 14.5511 13.7666 14.8883 13.124 15.1436C12.4814 15.3988 11.6315 15.5264 10.5742 15.5264ZM9.94531 14.043C10.3281 14.043 10.6699 13.9564 10.9707 13.7832C11.2715 13.61 11.5085 13.373 11.6816 13.0723C11.8548 12.7715 11.9414 12.4297 11.9414 12.0469C11.9414 11.6868 11.8503 11.3564 11.668 11.0557C11.4902 10.7503 11.2487 10.5088 10.9434 10.3311C10.6426 10.1488 10.3099 10.0576 9.94531 10.0576C9.58073 10.0576 9.24805 10.1488 8.94727 10.3311C8.64648 10.5088 8.40495 10.7503 8.22266 11.0557C8.04492 11.3564 7.95605 11.6868 7.95605 12.0469C7.95605 12.416 8.04492 12.751 8.22266 13.0518C8.40495 13.3525 8.64648 13.5941 8.94727 13.7764C9.24805 13.9541 9.58073 14.043 9.94531 14.043ZM9.94531 12.9697C9.77214 12.9697 9.61491 12.9287 9.47363 12.8467C9.33691 12.7646 9.22754 12.653 9.14551 12.5117C9.06348 12.3704 9.02246 12.2132 9.02246 12.04C9.02246 11.8486 9.06576 11.6868 9.15234 11.5547C9.23893 11.418 9.35059 11.3154 9.4873 11.2471C9.62402 11.1742 9.76986 11.1354 9.9248 11.1309C10.0843 11.1309 10.237 11.165 10.3828 11.2334C10.5286 11.3018 10.6449 11.4043 10.7314 11.541C10.8226 11.6777 10.8682 11.8441 10.8682 12.04C10.8682 12.2132 10.8271 12.3704 10.7451 12.5117C10.6631 12.653 10.5514 12.7646 10.4102 12.8467C10.2734 12.9287 10.1185 12.9697 9.94531 12.9697ZM5.33105 11.0078C5.64095 11.0078 5.90527 10.8962 6.12402 10.6729C6.34277 10.4495 6.45215 10.1852 6.45215 9.87988C6.45215 9.56999 6.34277 9.30566 6.12402 9.08691C5.90527 8.86816 5.64095 8.75879 5.33105 8.75879C5.02572 8.75879 4.76139 8.86816 4.53809 9.08691C4.31934 9.30566 4.20996 9.56999 4.20996 9.87988C4.20996 10.1852 4.31934 10.4495 4.53809 10.6729C4.76139 10.8962 5.02572 11.0078 5.33105 11.0078ZM7.72363 8.88867C8.10645 8.88867 8.43229 8.75651 8.70117 8.49219C8.97461 8.22331 9.11133 7.8929 9.11133 7.50098C9.11133 7.12272 8.97461 6.80143 8.70117 6.53711C8.43229 6.26823 8.10645 6.13379 7.72363 6.13379C7.34082 6.13379 7.0127 6.26823 6.73926 6.53711C6.47038 6.80143 6.33594 7.12272 6.33594 7.50098C6.33594 7.8929 6.47038 8.22331 6.73926 8.49219C7.0127 8.75651 7.34082 8.88867 7.72363 8.88867ZM11.0527 7.84277C11.3672 7.84277 11.6338 7.7334 11.8525 7.51465C12.0713 7.29134 12.1807 7.02474 12.1807 6.71484C12.1807 6.40039 12.0713 6.13379 11.8525 5.91504C11.6338 5.69629 11.3672 5.58691 11.0527 5.58691C10.7474 5.58691 10.4831 5.69629 10.2598 5.91504C10.0365 6.13379 9.9248 6.40039 9.9248 6.71484C9.9248 7.02474 10.0365 7.29134 10.2598 7.51465C10.4831 7.7334 10.7474 7.84277 11.0527 7.84277ZM14.0469 8.25977C14.2975 8.25977 14.5117 8.1709 14.6895 7.99316C14.8717 7.81543 14.9629 7.59896 14.9629 7.34375C14.9629 7.08854 14.8717 6.87207 14.6895 6.69434C14.5117 6.51204 14.2975 6.4209 14.0469 6.4209C13.7917 6.4209 13.5729 6.51204 13.3906 6.69434C13.2129 6.87207 13.124 7.08854 13.124 7.34375C13.124 7.59896 13.2129 7.81543 13.3906 7.99316C13.5729 8.1709 13.7917 8.25977 14.0469 8.25977Z" fill="black"/>
</svg>
