<svg width="20" height="20" viewBox="0 0 20 20" fill="none" xmlns="http://www.w3.org/2000/svg">
<path d="M9.61035 12.7373C9.90202 12.7373 10.1367 12.6644 10.3145 12.5186C10.4922 12.3682 10.6038 12.1608 10.6494 11.8965C10.654 11.8691 10.6562 11.8418 10.6562 11.8145C10.6608 11.7826 10.6654 11.7552 10.6699 11.7324C10.6973 11.4909 10.7565 11.2858 10.8477 11.1172C10.9434 10.944 11.0938 10.7708 11.2988 10.5977C11.5085 10.4245 11.8024 10.2194 12.1807 9.98242C12.805 9.59505 13.279 9.16667 13.6025 8.69727C13.9307 8.22331 14.0947 7.66276 14.0947 7.01562C14.0947 6.30924 13.917 5.70312 13.5615 5.19727C13.2061 4.68685 12.7161 4.2972 12.0918 4.02832C11.472 3.75488 10.7611 3.61816 9.95898 3.61816C9.36198 3.61816 8.81283 3.69792 8.31152 3.85742C7.81022 4.01237 7.37272 4.23568 6.99902 4.52734C6.62988 4.81445 6.34733 5.15625 6.15137 5.55273C6.06934 5.7168 6.00781 5.88086 5.9668 6.04492C5.92578 6.20898 5.90527 6.37077 5.90527 6.53027C5.90527 6.84017 5.9987 7.09082 6.18555 7.28223C6.37695 7.47363 6.63672 7.56934 6.96484 7.56934C7.21549 7.56934 7.43652 7.50781 7.62793 7.38477C7.81934 7.25716 7.96289 7.08171 8.05859 6.8584C8.16341 6.5485 8.30013 6.29785 8.46875 6.10645C8.64193 5.91048 8.84473 5.76921 9.07715 5.68262C9.30957 5.59603 9.56706 5.55273 9.84961 5.55273C10.1868 5.55273 10.4899 5.61426 10.7588 5.7373C11.0277 5.86035 11.2419 6.03581 11.4014 6.26367C11.5609 6.48698 11.6406 6.74674 11.6406 7.04297C11.6406 7.33008 11.5882 7.58073 11.4834 7.79492C11.3786 8.00456 11.2145 8.2028 10.9912 8.38965C10.7725 8.5765 10.4899 8.7793 10.1436 8.99805C9.81543 9.20768 9.52832 9.43099 9.28223 9.66797C9.03613 9.90039 8.84473 10.1579 8.70801 10.4404C8.57129 10.7184 8.50293 11.0352 8.50293 11.3906C8.50293 11.4316 8.50293 11.4727 8.50293 11.5137C8.50293 11.5547 8.50293 11.598 8.50293 11.6436C8.50293 11.9671 8.60319 12.2314 8.80371 12.4365C9.00423 12.637 9.27311 12.7373 9.61035 12.7373ZM9.6377 16.6611C9.8929 16.6611 10.1253 16.6019 10.335 16.4834C10.5446 16.3649 10.7109 16.2031 10.834 15.998C10.9616 15.7975 11.0254 15.5742 11.0254 15.3281C11.0254 15.082 10.9616 14.8587 10.834 14.6582C10.7109 14.4577 10.5446 14.2982 10.335 14.1797C10.1253 14.0612 9.8929 14.002 9.6377 14.002C9.38249 14.002 9.15007 14.0612 8.94043 14.1797C8.73535 14.2982 8.56901 14.4577 8.44141 14.6582C8.31836 14.8587 8.25684 15.082 8.25684 15.3281C8.25684 15.5742 8.31836 15.7975 8.44141 15.998C8.56901 16.2031 8.73535 16.3649 8.94043 16.4834C9.15007 16.6019 9.38249 16.6611 9.6377 16.6611Z" fill="black"/>
</svg>
