<svg width="20" height="20" viewBox="0 0 20 20" fill="none" xmlns="http://www.w3.org/2000/svg">
<path d="M3.7793 10.5293C3.7793 11.3952 3.94108 12.2041 4.26465 12.9561C4.58822 13.708 5.03255 14.3711 5.59766 14.9453C6.16732 15.515 6.82812 15.9593 7.58008 16.2783C8.33659 16.6019 9.14551 16.7637 10.0068 16.7637C10.8636 16.7637 11.668 16.6019 12.4199 16.2783C13.1719 15.9593 13.8327 15.515 14.4023 14.9453C14.9766 14.3711 15.4232 13.708 15.7422 12.9561C16.0612 12.2041 16.2207 11.3952 16.2207 10.5293C16.2207 10.265 16.1364 10.0485 15.9678 9.87988C15.8037 9.71126 15.5918 9.62695 15.332 9.62695C15.0768 9.62695 14.8695 9.71126 14.71 9.87988C14.5505 10.0485 14.4707 10.265 14.4707 10.5293C14.4707 11.1491 14.3545 11.7301 14.1221 12.2725C13.8896 12.8102 13.5684 13.2842 13.1582 13.6943C12.7526 14.1045 12.2786 14.4258 11.7363 14.6582C11.1986 14.8861 10.6221 15 10.0068 15C9.38704 15 8.80599 14.8861 8.26367 14.6582C7.72591 14.4258 7.25195 14.1045 6.8418 13.6943C6.4362 13.2842 6.11719 12.8102 5.88477 12.2725C5.6569 11.7301 5.54297 11.1491 5.54297 10.5293C5.54297 9.90039 5.65462 9.31478 5.87793 8.77246C6.10579 8.22559 6.42025 7.74707 6.82129 7.33691C7.22233 6.92676 7.68945 6.60775 8.22266 6.37988C8.75586 6.14746 9.33008 6.03125 9.94531 6.03125C10.1048 6.03125 10.2575 6.03809 10.4033 6.05176C10.5537 6.06543 10.6927 6.08366 10.8203 6.10645L9.28223 7.62402C9.20931 7.7015 9.15007 7.78581 9.10449 7.87695C9.05892 7.9681 9.03613 8.0752 9.03613 8.19824C9.03613 8.43522 9.11816 8.63802 9.28223 8.80664C9.45085 8.9707 9.65365 9.05273 9.89062 9.05273C10.1322 9.05273 10.3304 8.97298 10.4854 8.81348L13.2744 5.99023C13.3656 5.89909 13.4339 5.80111 13.4795 5.69629C13.5251 5.58691 13.5479 5.4707 13.5479 5.34766C13.5479 5.10612 13.4567 4.89421 13.2744 4.71191L10.4854 1.875C10.3258 1.70638 10.1276 1.62207 9.89062 1.62207C9.65365 1.62207 9.45085 1.70638 9.28223 1.875C9.11816 2.04362 9.03613 2.25098 9.03613 2.49707C9.03613 2.61556 9.05664 2.72038 9.09766 2.81152C9.14323 2.90267 9.20247 2.98698 9.27539 3.06445L10.6357 4.4043C10.5309 4.38607 10.4193 4.3724 10.3008 4.36328C10.1868 4.34961 10.0684 4.34277 9.94531 4.34277C9.08854 4.34277 8.28646 4.50228 7.53906 4.82129C6.79167 5.1403 6.13542 5.58236 5.57031 6.14746C5.00977 6.70801 4.56999 7.36426 4.25098 8.11621C3.93652 8.86361 3.7793 9.66797 3.7793 10.5293Z" fill="black"/>
</svg>
