<svg width="20" height="20" viewBox="0 0 20 20" fill="none" xmlns="http://www.w3.org/2000/svg">
<path d="M12.4121 5.78955C12.5433 5.78955 12.6131 5.72184 12.6216 5.58643C12.6681 5.21826 12.7147 4.9305 12.7612 4.72314C12.812 4.51579 12.8903 4.35921 12.9961 4.25342C13.1061 4.14762 13.2669 4.06722 13.4785 4.01221C13.6943 3.95296 13.9884 3.89372 14.3608 3.83447C14.5047 3.81755 14.5767 3.74984 14.5767 3.63135C14.5767 3.51286 14.5132 3.44515 14.3862 3.42822C14.0096 3.35628 13.7134 3.29281 13.4976 3.23779C13.2817 3.17855 13.1167 3.09814 13.0024 2.99658C12.8924 2.89079 12.812 2.73633 12.7612 2.5332C12.7147 2.33008 12.6681 2.04443 12.6216 1.67627C12.6089 1.54508 12.5391 1.47949 12.4121 1.47949C12.2894 1.47949 12.2238 1.54297 12.2153 1.66992C12.1646 2.04232 12.1138 2.33643 12.063 2.55225C12.0122 2.76383 11.9339 2.92464 11.8281 3.03467C11.7223 3.14046 11.5594 3.21875 11.3394 3.26953C11.1235 3.32031 10.8252 3.37321 10.4443 3.42822C10.3893 3.43245 10.3428 3.45361 10.3047 3.4917C10.2708 3.52979 10.2539 3.57633 10.2539 3.63135C10.2539 3.74984 10.3174 3.81755 10.4443 3.83447C10.8252 3.91064 11.1235 3.97835 11.3394 4.0376C11.5594 4.09684 11.7223 4.17936 11.8281 4.28516C11.9339 4.38672 12.0122 4.54118 12.063 4.74854C12.1138 4.95166 12.1646 5.23519 12.2153 5.59912C12.2196 5.65413 12.2407 5.70068 12.2788 5.73877C12.3169 5.77262 12.3613 5.78955 12.4121 5.78955ZM8.00684 4.08838C8.09147 4.08838 8.14225 4.04395 8.15918 3.95508C8.21419 3.64616 8.26497 3.42399 8.31152 3.28857C8.3623 3.15316 8.4554 3.06006 8.59082 3.00928C8.72624 2.9585 8.95052 2.90348 9.26367 2.84424C9.361 2.82308 9.40967 2.7723 9.40967 2.69189C9.40967 2.60726 9.36312 2.55436 9.27002 2.5332C9.03304 2.48665 8.84896 2.44434 8.71777 2.40625C8.58659 2.36816 8.48926 2.31738 8.42578 2.25391C8.3623 2.1862 8.31364 2.08887 8.27979 1.96191C8.24593 1.83496 8.20573 1.65723 8.15918 1.42871C8.14225 1.33984 8.09147 1.29541 8.00684 1.29541C7.9222 1.29541 7.87142 1.33984 7.85449 1.42871C7.80794 1.65723 7.76774 1.83708 7.73389 1.96826C7.70003 2.09521 7.64925 2.19255 7.58154 2.26025C7.51807 2.32796 7.42074 2.38086 7.28955 2.41895C7.1626 2.4528 6.98063 2.49089 6.74365 2.5332C6.65055 2.55436 6.604 2.60726 6.604 2.69189C6.604 2.7723 6.65055 2.82308 6.74365 2.84424C6.98063 2.89079 7.16471 2.93311 7.2959 2.97119C7.42708 3.00928 7.52441 3.06006 7.58789 3.12354C7.65137 3.18701 7.70003 3.28434 7.73389 3.41553C7.77197 3.54671 7.81217 3.72656 7.85449 3.95508C7.87142 4.04395 7.9222 4.08838 8.00684 4.08838ZM4.28076 18.5229C4.38232 18.5229 4.44157 18.4679 4.4585 18.3579C4.51351 18.049 4.56429 17.8057 4.61084 17.6279C4.65739 17.4544 4.72298 17.3211 4.80762 17.228C4.89648 17.1392 5.02979 17.0693 5.20752 17.0186C5.38949 16.9678 5.64339 16.9128 5.96924 16.8535C6.07926 16.8281 6.13428 16.7668 6.13428 16.6694C6.13428 16.5721 6.08138 16.5129 5.97559 16.4917C5.64974 16.4282 5.39795 16.369 5.22021 16.314C5.04248 16.259 4.90918 16.187 4.82031 16.0981C4.73145 16.0093 4.66374 15.8781 4.61719 15.7046C4.57487 15.5311 4.52197 15.2899 4.4585 14.981C4.44157 14.8709 4.38232 14.8159 4.28076 14.8159C4.18766 14.8159 4.1263 14.8709 4.09668 14.981C4.03743 15.2899 3.98454 15.5311 3.93799 15.7046C3.89567 15.8823 3.83008 16.0156 3.74121 16.1045C3.65658 16.1976 3.52539 16.2695 3.34766 16.3203C3.16992 16.3753 2.91813 16.4325 2.59229 16.4917C2.48226 16.5086 2.42725 16.5679 2.42725 16.6694C2.42725 16.7668 2.48226 16.8281 2.59229 16.8535C2.91813 16.917 3.16992 16.9741 3.34766 17.0249C3.52962 17.0799 3.66504 17.1519 3.75391 17.2407C3.84277 17.3338 3.90837 17.4671 3.95068 17.6406C3.993 17.8141 4.04167 18.0553 4.09668 18.3643C4.1263 18.4701 4.18766 18.5229 4.28076 18.5229ZM14.3354 16.6313C15.1649 15.8062 15.6452 14.8836 15.7764 13.8638C15.9118 12.8439 15.6981 11.7437 15.1353 10.563L13.6943 7.51611C13.5885 7.29183 13.4616 7.10563 13.3135 6.95752C13.0596 6.70361 12.7633 6.57878 12.4248 6.58301C12.0905 6.58301 11.7985 6.71208 11.5488 6.97021C11.388 7.12679 11.2843 7.31934 11.2378 7.54785C11.1912 7.77214 11.2166 8.01123 11.314 8.26514L11.6631 9.10303C11.6758 9.12842 11.6737 9.14958 11.6567 9.1665C11.6356 9.18766 11.6123 9.18555 11.5869 9.16016L8.13379 5.70703C7.85026 5.4235 7.53923 5.28174 7.20068 5.28174C6.86214 5.28174 6.55745 5.41927 6.28662 5.69434C6.19775 5.77897 6.12793 5.87419 6.07715 5.97998C6.02637 6.08154 5.99886 6.18734 5.99463 6.29736C5.71956 6.1154 5.44238 6.03499 5.16309 6.05615C4.88379 6.07731 4.62777 6.20426 4.39502 6.43701C4.17074 6.6613 4.0459 6.9152 4.02051 7.19873C3.99935 7.48226 4.07552 7.75732 4.24902 8.02393C4.03743 8.03662 3.85124 8.12337 3.69043 8.28418C3.43229 8.54232 3.30534 8.83219 3.30957 9.15381C3.31803 9.47542 3.45345 9.76953 3.71582 10.0361L4.14111 10.4551C4.03109 10.4593 3.92106 10.4868 3.81104 10.5376C3.70524 10.5841 3.61003 10.6519 3.52539 10.7407C3.26725 10.9946 3.14242 11.2909 3.15088 11.6294C3.15934 11.9637 3.30111 12.2642 3.57617 12.5308L7.50537 16.46C8.22477 17.1836 8.98438 17.6681 9.78418 17.9136C10.5882 18.1632 11.3817 18.1781 12.1646 17.958C12.9474 17.7422 13.6711 17.3 14.3354 16.6313ZM13.5547 15.9014C13.0215 16.4388 12.4502 16.79 11.8408 16.9551C11.2314 17.1201 10.6115 17.0968 9.98096 16.8853C9.35465 16.6737 8.74316 16.2674 8.14648 15.6665L4.37598 11.9023C4.29134 11.8135 4.24691 11.7183 4.24268 11.6167C4.24268 11.5109 4.28288 11.4157 4.36328 11.3311C4.44792 11.2507 4.54313 11.2104 4.64893 11.2104C4.75895 11.2104 4.85628 11.2528 4.94092 11.3374L7.24512 13.6543C7.34245 13.7474 7.45459 13.7918 7.58154 13.7876C7.7085 13.7791 7.81641 13.7326 7.90527 13.6479C7.99414 13.5549 8.04069 13.4448 8.04492 13.3179C8.05339 13.1909 8.00895 13.0788 7.91162 12.9814L4.45215 9.51562C4.36328 9.43099 4.31673 9.33789 4.3125 9.23633C4.3125 9.13053 4.3527 9.03532 4.43311 8.95068C4.51774 8.87028 4.61296 8.83008 4.71875 8.83008C4.82878 8.83008 4.92822 8.8724 5.01709 8.95703L8.2417 12.188C8.3348 12.2853 8.44482 12.3319 8.57178 12.3276C8.70296 12.3192 8.81299 12.2705 8.90186 12.1816C8.99072 12.0928 9.03727 11.9849 9.0415 11.8579C9.04997 11.731 9.00765 11.6188 8.91455 11.5215L5.1123 7.71924C5.02344 7.6346 4.979 7.53939 4.979 7.43359C4.979 7.3278 5.01921 7.23258 5.09961 7.14795C5.18001 7.06331 5.27311 7.02311 5.37891 7.02734C5.48893 7.03158 5.58626 7.07601 5.6709 7.16064L9.42236 10.9121C9.51123 11.001 9.61914 11.0454 9.74609 11.0454C9.87305 11.0412 9.98307 10.9946 10.0762 10.9058C10.1693 10.8127 10.2179 10.7026 10.2222 10.5757C10.2264 10.4445 10.1799 10.3345 10.0825 10.2456L6.90869 7.05908C6.81982 6.97445 6.77327 6.87923 6.76904 6.77344C6.76904 6.66764 6.81136 6.57454 6.896 6.49414C6.98063 6.40951 7.07585 6.3693 7.18164 6.37354C7.28743 6.37354 7.38265 6.41585 7.46729 6.50049L11.9424 10.9756C12.0693 11.1025 12.2026 11.1639 12.3423 11.1597C12.4862 11.1554 12.611 11.1004 12.7168 10.9946C12.8057 10.9058 12.8649 10.8 12.8945 10.6772C12.9242 10.5503 12.9051 10.4022 12.8374 10.2329L12.0439 8.13818C11.9932 8.01123 11.9868 7.89909 12.0249 7.80176C12.0672 7.70443 12.137 7.63249 12.2344 7.58594C12.3402 7.53939 12.4375 7.53939 12.5264 7.58594C12.6195 7.62826 12.6978 7.71712 12.7612 7.85254L14.2275 10.9946C14.7184 12.0356 14.8919 12.9518 14.748 13.7432C14.6042 14.5345 14.2064 15.2539 13.5547 15.9014ZM8.12744 5.18652C8.03857 5.27116 7.96875 5.36426 7.91797 5.46582C7.87142 5.56738 7.8418 5.67318 7.8291 5.7832L8.72412 6.6084C8.63949 6.51107 8.59505 6.40527 8.59082 6.29102C8.59082 6.17676 8.63314 6.07731 8.71777 5.99268C8.80664 5.90381 8.90609 5.86149 9.01611 5.86572C9.12614 5.86995 9.22559 5.91862 9.31445 6.01172L11.3774 8.06836L12.0186 7.24951L9.96826 5.19922C9.68473 4.91569 9.37581 4.77604 9.0415 4.78027C8.70719 4.78027 8.40251 4.91569 8.12744 5.18652ZM16.0938 16.1616C16.9232 15.3322 17.4056 14.4097 17.541 13.394C17.6764 12.3742 17.4627 11.2718 16.8999 10.0869L15.4526 7.03369C15.313 6.7417 15.1289 6.5153 14.9004 6.35449C14.6719 6.18945 14.418 6.10693 14.1387 6.10693C14.0371 6.10693 13.9186 6.12598 13.7832 6.16406C13.652 6.20215 13.5229 6.26774 13.396 6.36084C13.2733 6.44971 13.1717 6.57031 13.0913 6.72266C13.0109 6.875 12.9707 7.06331 12.9707 7.2876C12.9707 7.35954 12.9728 7.42513 12.9771 7.48438L13.8086 7.77637C13.7705 7.69173 13.7515 7.6071 13.7515 7.52246C13.7515 7.42936 13.7874 7.34473 13.8594 7.26855C13.9313 7.19238 14.0286 7.1543 14.1514 7.1543C14.3249 7.1543 14.4582 7.25163 14.5513 7.44629L15.9922 10.5186C16.4746 11.5553 16.6439 12.4715 16.5 13.2671C16.3604 14.0584 15.9647 14.7757 15.313 15.4189C14.7544 15.9775 14.1619 16.3309 13.5356 16.479L12.3867 17.5518C13.0384 17.6406 13.6816 17.5687 14.3164 17.3359C14.9512 17.1032 15.5436 16.7118 16.0938 16.1616Z" fill="#38383D"/>
</svg>
