<svg width="24" height="24" viewBox="0 0 24 24" fill="none" xmlns="http://www.w3.org/2000/svg">
<g clip-path="url(#clip0_639_4302)">
<path d="M6.69846 18.9445H17.2946C18.0305 18.9445 18.5813 18.7617 18.9469 18.3961C19.3172 18.0352 19.5024 17.4914 19.5024 16.7648V8.17969C19.5024 7.45313 19.3172 6.90938 18.9469 6.54844C18.5813 6.18282 18.0305 6 17.2946 6H6.69846C5.96721 6 5.41643 6.18282 5.04612 6.54844C4.68049 6.90938 4.49768 7.45313 4.49768 8.17969V16.7648C4.49768 17.4914 4.68049 18.0352 5.04612 18.3961C5.41643 18.7617 5.96721 18.9445 6.69846 18.9445ZM5.79143 14.7188V10.2258C5.79143 10.1086 5.83362 10.0102 5.91799 9.93047C6.00237 9.8461 6.10315 9.80391 6.22034 9.80391C6.33284 9.80391 6.43127 9.8461 6.51565 9.93047C6.60002 10.0102 6.64221 10.1086 6.64221 10.2258V14.7188C6.64221 14.8359 6.60002 14.9367 6.51565 15.0211C6.43127 15.1008 6.33284 15.1406 6.22034 15.1406C6.10315 15.1406 6.00237 15.1008 5.91799 15.0211C5.83362 14.9367 5.79143 14.8359 5.79143 14.7188ZM7.94299 17.8125V7.13204H16.0571V17.8125H7.94299ZM17.3508 14.7188V10.2258C17.3508 10.1086 17.393 10.0102 17.4774 9.93047C17.5617 9.8461 17.6625 9.80391 17.7797 9.80391C17.8969 9.80391 17.9953 9.8461 18.075 9.93047C18.1594 10.0102 18.2016 10.1086 18.2016 10.2258V14.7188C18.2016 14.8359 18.1594 14.9367 18.075 15.0211C17.9953 15.1008 17.8969 15.1406 17.7797 15.1406C17.6625 15.1406 17.5617 15.1008 17.4774 15.0211C17.393 14.9367 17.3508 14.8359 17.3508 14.7188ZM22.9055 14.6273C23.0649 14.7586 23.2289 14.8242 23.3977 14.8242C23.5711 14.8195 23.7164 14.7586 23.8336 14.6414C23.9508 14.5242 24.0094 14.3625 24.0094 14.1563V10.8164C24.0094 10.6008 23.9508 10.4344 23.8336 10.3172C23.7211 10.1953 23.5805 10.1344 23.4117 10.1344C23.243 10.1297 23.0742 10.1953 22.9055 10.3313L21 11.9203C20.8172 12.0797 20.7235 12.2719 20.7188 12.4969C20.7141 12.7219 20.8078 12.9141 21 13.0734L22.9055 14.6273Z" fill="black"/>
</g>
<defs>
<clipPath id="clip0_639_4302">
<rect width="24" height="24" fill="white"/>
</clipPath>
</defs>
</svg>
