<svg width="24" height="24" viewBox="0 0 24 24" fill="none" xmlns="http://www.w3.org/2000/svg">
<g clip-path="url(#clip0_639_4296)">
<path d="M6.69843 18.9445H17.2945C18.0305 18.9445 18.5812 18.7617 18.9469 18.3961C19.3172 18.0352 19.5023 17.4914 19.5023 16.7648V8.17969C19.5023 7.45313 19.3172 6.90938 18.9469 6.54844C18.5812 6.18282 18.0305 6 17.2945 6H6.69843C5.96718 6 5.41639 6.18282 5.04608 6.54844C4.68046 6.90938 4.49764 7.45313 4.49764 8.17969V16.7648C4.49764 17.4914 4.68046 18.0352 5.04608 18.3961C5.41639 18.7617 5.96718 18.9445 6.69843 18.9445ZM5.79139 14.7188V10.2258C5.79139 10.1086 5.83358 10.0102 5.91796 9.93047C6.00233 9.8461 6.10311 9.80391 6.2203 9.80391C6.3328 9.80391 6.43124 9.8461 6.51561 9.93047C6.59999 10.0102 6.64218 10.1086 6.64218 10.2258V14.7188C6.64218 14.8359 6.59999 14.9367 6.51561 15.0211C6.43124 15.1008 6.3328 15.1406 6.2203 15.1406C6.10311 15.1406 6.00233 15.1008 5.91796 15.0211C5.83358 14.9367 5.79139 14.8359 5.79139 14.7188ZM7.94296 17.8125V7.13204H16.057V17.8125H7.94296ZM17.3508 14.7188V10.2258C17.3508 10.1086 17.393 10.0102 17.4773 9.93047C17.5617 9.8461 17.6625 9.80391 17.7797 9.80391C17.8969 9.80391 17.9953 9.8461 18.075 9.93047C18.1594 10.0102 18.2016 10.1086 18.2016 10.2258V14.7188C18.2016 14.8359 18.1594 14.9367 18.075 15.0211C17.9953 15.1008 17.8969 15.1406 17.7797 15.1406C17.6625 15.1406 17.5617 15.1008 17.4773 15.0211C17.393 14.9367 17.3508 14.8359 17.3508 14.7188ZM1.08749 14.6273L2.99296 13.0734C3.18514 12.9141 3.27889 12.7219 3.27421 12.4969C3.26952 12.2719 3.17577 12.0797 2.99296 11.9203L1.08749 10.3313C0.918738 10.1953 0.749988 10.1297 0.581238 10.1344C0.412488 10.1344 0.269519 10.1953 0.152332 10.3172C0.0398315 10.4344 -0.0164185 10.6008 -0.0164185 10.8164V14.1563C-0.0164185 14.3625 0.0421753 14.5242 0.159363 14.6414C0.27655 14.7586 0.419519 14.8195 0.588269 14.8242C0.761707 14.8242 0.928113 14.7586 1.08749 14.6273Z" fill="black"/>
</g>
<defs>
<clipPath id="clip0_639_4296">
<rect width="24" height="24" fill="white"/>
</clipPath>
</defs>
</svg>
