<svg width="20" height="20" viewBox="0 0 20 20" fill="none" xmlns="http://www.w3.org/2000/svg">
<path d="M9.21094 18.8359H10.7969C11.1198 18.8359 11.3984 18.7448 11.6328 18.5625C11.8672 18.3802 12.0208 18.1328 12.0938 17.8203L12.4141 16.4375L12.6172 16.3672L13.8203 17.1016C14.0911 17.2734 14.375 17.3385 14.6719 17.2969C14.974 17.2604 15.2396 17.1276 15.4688 16.8984L16.5625 15.8125C16.7917 15.5781 16.9245 15.3125 16.9609 15.0156C17.0026 14.7188 16.9375 14.4349 16.7656 14.1641L16.0156 12.9688L16.0938 12.7734L17.4688 12.4531C17.776 12.375 18.0208 12.2188 18.2031 11.9844C18.3906 11.7448 18.4844 11.4661 18.4844 11.1484V9.60938C18.4844 9.29167 18.3906 9.01302 18.2031 8.77344C18.0208 8.53385 17.776 8.3776 17.4688 8.30469L16.1094 7.97656L16.0234 7.76562L16.7734 6.57031C16.9453 6.30469 17.0104 6.02344 16.9688 5.72656C16.9323 5.42969 16.7995 5.16406 16.5703 4.92969L15.4766 3.83594C15.2526 3.60677 14.9896 3.47396 14.6875 3.4375C14.3906 3.39583 14.1068 3.45833 13.8359 3.625L12.6328 4.36719L12.4141 4.28125L12.0938 2.89844C12.0208 2.59115 11.8672 2.34635 11.6328 2.16406C11.3984 1.97656 11.1198 1.88281 10.7969 1.88281H9.21094C8.88802 1.88281 8.60677 1.97656 8.36719 2.16406C8.13281 2.34635 7.97917 2.59115 7.90625 2.89844L7.58594 4.28125L7.36719 4.36719L6.16406 3.625C5.89323 3.45833 5.60938 3.39583 5.3125 3.4375C5.01562 3.47396 4.7526 3.60677 4.52344 3.83594L3.42969 4.92969C3.19531 5.16406 3.0599 5.42969 3.02344 5.72656C2.98698 6.02344 3.05469 6.30469 3.22656 6.57031L3.97656 7.76562L3.89844 7.97656L2.53125 8.30469C2.21875 8.38281 1.97135 8.54167 1.78906 8.78125C1.60677 9.01562 1.51562 9.29167 1.51562 9.60938V11.1484C1.51562 11.4661 1.60677 11.7448 1.78906 11.9844C1.97656 12.224 2.22396 12.3802 2.53125 12.4531L3.91406 12.7734L3.98438 12.9688L3.23438 14.1641C3.0625 14.4349 2.99479 14.7188 3.03125 15.0156C3.06771 15.3125 3.20312 15.5781 3.4375 15.8125L4.53125 16.8984C4.76042 17.1276 5.02344 17.2604 5.32031 17.2969C5.6224 17.3385 5.90885 17.2734 6.17969 17.1016L7.375 16.3672L7.58594 16.4375L7.90625 17.8203C7.97917 18.1328 8.13281 18.3802 8.36719 18.5625C8.60677 18.7448 8.88802 18.8359 9.21094 18.8359ZM9.40625 17.4219C9.27604 17.4219 9.20052 17.362 9.17969 17.2422L8.71875 15.3203C8.47396 15.263 8.23438 15.1875 8 15.0938C7.77083 14.9948 7.5599 14.8854 7.36719 14.7656L5.67969 15.8047C5.58594 15.8672 5.49219 15.8542 5.39844 15.7656L4.5625 14.9375C4.48438 14.8594 4.47656 14.7656 4.53906 14.6562L5.57812 12.9766C5.47396 12.7839 5.3724 12.5755 5.27344 12.3516C5.17448 12.1224 5.09375 11.8828 5.03125 11.6328L3.10938 11.1797C2.98958 11.1589 2.92969 11.0859 2.92969 10.9609V9.78906C2.92969 9.66927 2.98958 9.59635 3.10938 9.57031L5.03125 9.10938C5.08854 8.84896 5.16927 8.60156 5.27344 8.36719C5.3776 8.13281 5.47396 7.93229 5.5625 7.76562L4.53125 6.08594C4.46354 5.97656 4.47135 5.8776 4.55469 5.78906L5.39062 4.96875C5.47917 4.89062 5.57552 4.88021 5.67969 4.9375L7.35938 5.95312C7.53646 5.84896 7.74479 5.7474 7.98438 5.64844C8.22917 5.54427 8.47656 5.46094 8.72656 5.39844L9.17969 3.47656C9.20052 3.35677 9.27604 3.29688 9.40625 3.29688H10.6016C10.7266 3.29688 10.7969 3.35677 10.8125 3.47656L11.2812 5.41406C11.5365 5.47656 11.776 5.55729 12 5.65625C12.2292 5.75 12.4401 5.85156 12.6328 5.96094L14.3125 4.9375C14.4219 4.88021 14.5208 4.89323 14.6094 4.97656L15.4375 5.78906C15.526 5.8776 15.5339 5.97656 15.4609 6.08594L14.4297 7.76562C14.5234 7.93229 14.6198 8.13281 14.7188 8.36719C14.8229 8.60156 14.9062 8.84896 14.9688 9.10938L16.8906 9.57031C17.0104 9.59635 17.0703 9.66927 17.0703 9.78906V10.9609C17.0703 11.0859 17.0104 11.1589 16.8906 11.1797L14.9609 11.6406C14.9036 11.8854 14.8255 12.1224 14.7266 12.3516C14.6328 12.5807 14.5312 12.7891 14.4219 12.9766L15.4531 14.6484C15.5208 14.763 15.513 14.8568 15.4297 14.9297L14.6016 15.7656C14.5078 15.8542 14.4115 15.8646 14.3125 15.7969L12.6328 14.7656C12.4401 14.8854 12.2318 14.9948 12.0078 15.0938C11.7839 15.1875 11.5417 15.263 11.2812 15.3203L10.8125 17.2422C10.7969 17.362 10.7266 17.4219 10.6016 17.4219H9.40625ZM10 13.3281C10.5469 13.3281 11.0443 13.1953 11.4922 12.9297C11.9401 12.6641 12.2969 12.3047 12.5625 11.8516C12.8281 11.3984 12.9609 10.901 12.9609 10.3594C12.9609 9.81771 12.8281 9.32292 12.5625 8.875C12.2969 8.42708 11.9401 8.07031 11.4922 7.80469C11.0443 7.53906 10.5469 7.40625 10 7.40625C9.45833 7.40625 8.96094 7.53906 8.50781 7.80469C8.0599 8.07031 7.70052 8.42708 7.42969 8.875C7.16406 9.32292 7.03125 9.81771 7.03125 10.3594C7.03125 10.9062 7.16406 11.4036 7.42969 11.8516C7.70052 12.2995 8.0599 12.6589 8.50781 12.9297C8.96094 13.1953 9.45833 13.3281 10 13.3281ZM10 11.9844C9.70312 11.9844 9.43229 11.9115 9.1875 11.7656C8.94271 11.6198 8.7474 11.4245 8.60156 11.1797C8.45573 10.9349 8.38281 10.6615 8.38281 10.3594C8.38281 10.0625 8.45573 9.79427 8.60156 9.55469C8.7474 9.3099 8.94271 9.11458 9.1875 8.96875C9.43229 8.82292 9.70312 8.75 10 8.75C10.2917 8.75 10.5599 8.82292 10.8047 8.96875C11.0495 9.11458 11.2422 9.3099 11.3828 9.55469C11.5286 9.79427 11.6016 10.0625 11.6016 10.3594C11.6016 10.6562 11.5286 10.9271 11.3828 11.1719C11.2422 11.4167 11.0495 11.6146 10.8047 11.7656C10.5599 11.9115 10.2917 11.9844 10 11.9844Z" fill="#383838"/>
</svg>
