<svg width="25" height="25" viewBox="0 0 25 25" fill="none" xmlns="http://www.w3.org/2000/svg">
<path fill-rule="evenodd" clip-rule="evenodd" d="M12.4017 23.5C18.4768 23.5 23.4017 18.5751 23.4017 12.5C23.4017 6.42487 18.4768 1.5 12.4017 1.5C6.32654 1.5 1.40167 6.42487 1.40167 12.5C1.40167 18.5751 6.32654 23.5 12.4017 23.5ZM12.6287 19.7901C12.5422 19.8189 12.4653 19.8333 12.3981 19.8333C12.3356 19.8333 12.2587 19.8189 12.1674 19.7901C12.0809 19.7661 11.9897 19.73 11.8936 19.682C10.8605 19.115 9.98605 18.6057 9.27013 18.1541C8.55902 17.7072 7.98485 17.2724 7.54761 16.8495C7.11518 16.4267 6.80046 15.9703 6.60347 15.4802C6.41128 14.9853 6.31518 14.4087 6.31518 13.7505V8.3018C6.31518 7.87417 6.39926 7.56186 6.56743 7.36486C6.7404 7.16306 7.00467 6.98769 7.36022 6.83874C7.51878 6.77147 7.74221 6.68258 8.03049 6.57207C8.31878 6.46156 8.6383 6.34384 8.98905 6.21892C9.3398 6.08919 9.68815 5.96186 10.0341 5.83694C10.38 5.71201 10.6948 5.6015 10.9782 5.50541C11.2665 5.4045 11.49 5.33243 11.6485 5.28919C11.7686 5.26036 11.8936 5.23393 12.0233 5.20991C12.153 5.18108 12.2779 5.16667 12.3981 5.16667C12.523 5.16667 12.6503 5.17868 12.78 5.2027C12.9146 5.22673 13.0395 5.25556 13.1548 5.28919C13.3134 5.34204 13.5344 5.41892 13.8179 5.51982C14.1062 5.62072 14.4233 5.73363 14.7692 5.85856C15.12 5.97868 15.4683 6.1012 15.8143 6.22613C16.165 6.35105 16.4845 6.46877 16.7728 6.57928C17.0611 6.68498 17.2845 6.77147 17.4431 6.83874C17.8035 6.99249 18.0677 7.16787 18.2359 7.36486C18.4041 7.56186 18.4882 7.87417 18.4882 8.3018V13.7505C18.4882 14.4087 18.3921 14.9853 18.1999 15.4802C18.0077 15.9703 17.693 16.4291 17.2557 16.8568C16.8233 17.2796 16.2491 17.7144 15.5332 18.1613C14.8221 18.6081 13.9476 19.115 12.9098 19.682C12.8137 19.73 12.72 19.7661 12.6287 19.7901ZM12.2323 18.2766C12.2948 18.3006 12.35 18.3126 12.3981 18.3126C12.4509 18.3126 12.5086 18.3006 12.571 18.2766C12.6335 18.2526 12.7152 18.2093 12.8161 18.1468C13.6281 17.6568 14.3104 17.2363 14.8629 16.8856C15.4203 16.53 15.8647 16.1937 16.1963 15.8766C16.5326 15.5595 16.7728 15.2159 16.917 14.8459C17.0611 14.4712 17.1332 14.0171 17.1332 13.4838V8.53243C17.1332 8.40751 17.1164 8.31381 17.0827 8.25135C17.0491 8.18408 16.9842 8.13363 16.8882 8.1C16.6671 8.02312 16.4149 7.93423 16.1314 7.83333C15.8527 7.73243 15.5572 7.62673 15.2449 7.51622C14.9374 7.40571 14.6323 7.2952 14.3296 7.18468C14.0269 7.07417 13.741 6.97087 13.4719 6.87477C13.2029 6.77387 12.9722 6.68498 12.78 6.60811C12.6984 6.57928 12.6263 6.55766 12.5638 6.54324C12.5062 6.52883 12.4509 6.52162 12.3981 6.52162C12.35 6.52162 12.2948 6.52883 12.2323 6.54324C12.1746 6.55766 12.105 6.57928 12.0233 6.60811C11.8311 6.68498 11.6005 6.77147 11.3314 6.86757C11.0623 6.96366 10.774 7.06456 10.4665 7.17027C10.1638 7.27598 9.85632 7.38408 9.54401 7.49459C9.2365 7.60511 8.941 7.71321 8.65752 7.81892C8.37884 7.91982 8.1338 8.01351 7.92239 8.1C7.82148 8.13844 7.75422 8.18889 7.72058 8.25135C7.68695 8.31381 7.67013 8.40751 7.67013 8.53243V13.4838C7.67013 14.0123 7.74221 14.4616 7.88635 14.8315C8.03049 15.2015 8.26593 15.545 8.59266 15.8622C8.92419 16.1745 9.36623 16.5084 9.91878 16.864C10.4761 17.2195 11.1656 17.6471 11.9873 18.1468C12.0882 18.2093 12.1698 18.2526 12.2323 18.2766ZM12.2683 15.1703C12.1146 15.4153 11.9032 15.5378 11.6341 15.5378C11.4996 15.5378 11.3794 15.509 11.2737 15.4514C11.168 15.3889 11.0647 15.2976 10.9638 15.1775L9.26293 13.1018C9.138 12.9432 9.07554 12.7823 9.07554 12.6189C9.07554 12.4411 9.1356 12.2898 9.25572 12.1649C9.38064 12.0351 9.52959 11.9703 9.70257 11.9703C9.81308 11.9703 9.91158 11.9943 9.99806 12.0423C10.0894 12.0856 10.1782 12.1649 10.2647 12.2802L11.6053 13.9811L14.4521 9.41892C14.6011 9.17387 14.7885 9.05135 15.0143 9.05135C15.1824 9.05135 15.3338 9.10661 15.4683 9.21712C15.6029 9.32763 15.6701 9.47177 15.6701 9.64955C15.6701 9.73123 15.6509 9.81532 15.6125 9.9018C15.5788 9.98348 15.538 10.0604 15.49 10.1324L12.2683 15.1703Z" fill="#F8B22B"/>
</svg>
