<svg width="25" height="25" viewBox="0 0 25 25" fill="none" xmlns="http://www.w3.org/2000/svg">
<g clip-path="url(#clip0_1112_5401)">
<path fill-rule="evenodd" clip-rule="evenodd" d="M12.4017 24.5C19.0291 24.5 24.4017 19.1274 24.4017 12.5C24.4017 5.87258 19.0291 0.5 12.4017 0.5C5.77426 0.5 0.401672 5.87258 0.401672 12.5C0.401672 19.1274 5.77426 24.5 12.4017 24.5ZM12.6493 20.4528C12.555 20.4843 12.4711 20.5 12.3977 20.5C12.3296 20.5 12.2457 20.4843 12.1461 20.4528C12.0518 20.4266 11.9522 20.3873 11.8474 20.3349C10.7204 19.7164 9.76645 19.1608 8.98545 18.6681C8.20969 18.1806 7.58332 17.7062 7.10633 17.245C6.63459 16.7837 6.29126 16.2858 6.07636 15.7511C5.86669 15.2112 5.76186 14.5822 5.76186 13.8641V7.92015C5.76186 7.45364 5.85359 7.11294 6.03705 6.89803C6.22574 6.67789 6.51403 6.48657 6.90191 6.32408C7.07488 6.2507 7.31862 6.15373 7.63311 6.03317C7.94761 5.91261 8.29618 5.78419 8.67881 5.64791C9.06145 5.50639 9.44147 5.36749 9.81886 5.2312C10.1963 5.09492 10.5396 4.97437 10.8488 4.86953C11.1633 4.75946 11.4071 4.68084 11.58 4.63366C11.7111 4.60221 11.8474 4.57338 11.9889 4.54717C12.1304 4.51572 12.2667 4.5 12.3977 4.5C12.534 4.5 12.6729 4.5131 12.8144 4.53931C12.9612 4.56552 13.0975 4.59697 13.2233 4.63366C13.3963 4.69132 13.6374 4.77518 13.9466 4.88526C14.2611 4.99533 14.6071 5.11851 14.9845 5.25479C15.3671 5.38583 15.7471 5.51949 16.1245 5.65577C16.5072 5.79206 16.8557 5.92048 17.1702 6.04103C17.4847 6.15635 17.7284 6.2507 17.9014 6.32408C18.2945 6.49181 18.5828 6.68313 18.7663 6.89803C18.9497 7.11294 19.0415 7.45364 19.0415 7.92015V13.8641C19.0415 14.5822 18.9366 15.2112 18.727 15.7511C18.5173 16.2858 18.174 16.7863 17.697 17.2528C17.2253 17.7141 16.5989 18.1885 15.8179 18.6759C15.0421 19.1634 14.0882 19.7164 12.956 20.3349C12.8511 20.3873 12.7489 20.4266 12.6493 20.4528ZM12.2169 18.8017C12.285 18.8279 12.3453 18.841 12.3977 18.841C12.4554 18.841 12.5183 18.8279 12.5864 18.8017C12.6546 18.7755 12.7437 18.7283 12.8538 18.6602C13.7396 18.1256 14.4839 17.6669 15.0867 17.2843C15.6947 16.8964 16.1796 16.5295 16.5412 16.1835C16.9081 15.8376 17.1702 15.4628 17.3275 15.0592C17.4847 14.6504 17.5633 14.155 17.5633 13.5732V8.17174C17.5633 8.03546 17.545 7.93325 17.5083 7.86511C17.4716 7.79173 17.4008 7.73669 17.296 7.7C17.0549 7.61613 16.7797 7.51916 16.4705 7.40909C16.1664 7.29902 15.8441 7.1837 15.5034 7.06315C15.1679 6.94259 14.8351 6.82203 14.5049 6.70147C14.1746 6.58092 13.8628 6.46822 13.5692 6.36339C13.2757 6.25332 13.0241 6.15635 12.8144 6.07248C12.7253 6.04103 12.6467 6.01744 12.5786 6.00172C12.5157 5.986 12.4554 5.97813 12.3977 5.97813C12.3453 5.97813 12.285 5.986 12.2169 6.00172C12.154 6.01744 12.078 6.04103 11.9889 6.07248C11.7792 6.15635 11.5276 6.2507 11.2341 6.35553C10.9406 6.46036 10.6261 6.57043 10.2906 6.68575C9.96039 6.80106 9.62492 6.919 9.28422 7.03956C8.94876 7.16012 8.6264 7.27805 8.31714 7.39337C8.01313 7.50344 7.74581 7.60565 7.51518 7.7C7.4051 7.74193 7.33172 7.79697 7.29503 7.86511C7.25834 7.93325 7.23999 8.03546 7.23999 8.17174V13.5732C7.23999 14.1498 7.31862 14.6399 7.47587 15.0435C7.63311 15.4471 7.88995 15.8219 8.24638 16.1678C8.60805 16.5085 9.09028 16.8728 9.69307 17.2607C10.3011 17.6486 11.0533 18.1151 11.9496 18.6602C12.0597 18.7283 12.1488 18.7755 12.2169 18.8017ZM12.2562 15.413C12.0885 15.6803 11.8578 15.814 11.5643 15.814C11.4176 15.814 11.2865 15.7826 11.1712 15.7197C11.0559 15.6515 10.9432 15.5519 10.8331 15.4209L8.97759 13.1565C8.8413 12.9835 8.77316 12.8079 8.77316 12.6297C8.77316 12.4358 8.83868 12.2707 8.96972 12.1344C9.10601 11.9929 9.2685 11.9221 9.45719 11.9221C9.57775 11.9221 9.6852 11.9483 9.77955 12.0007C9.87914 12.0479 9.97611 12.1344 10.0705 12.2602L11.5329 14.1157L14.6385 9.13882C14.801 8.8715 15.0054 8.73784 15.2518 8.73784C15.4352 8.73784 15.6004 8.79812 15.7471 8.91867C15.8939 9.03923 15.9673 9.19648 15.9673 9.39042C15.9673 9.47953 15.9463 9.57125 15.9044 9.6656C15.8677 9.75471 15.8231 9.83858 15.7707 9.9172L12.2562 15.413Z" fill="#F39A32"/>
</g>
<defs>
<clipPath id="clip0_1112_5401">
<rect width="24" height="24" fill="white" transform="translate(0.401672 0.5)"/>
</clipPath>
</defs>
</svg>
