<svg width="20" height="20" viewBox="0 0 20 20" fill="none" xmlns="http://www.w3.org/2000/svg">
<path d="M9.93506 19.978C10.0216 19.978 10.1206 19.9595 10.2319 19.9224C10.3494 19.8914 10.4701 19.8451 10.5938 19.7832C11.9297 19.0534 13.0553 18.4009 13.9707 17.8257C14.8923 17.2505 15.6313 16.6908 16.188 16.1465C16.7508 15.596 17.1559 15.0054 17.4033 14.3745C17.6507 13.7375 17.7744 12.9953 17.7744 12.1479V5.13428C17.7744 4.58382 17.6662 4.1818 17.4497 3.92822C17.2332 3.67464 16.8931 3.44889 16.4292 3.25098C16.2251 3.16439 15.9375 3.05306 15.5664 2.91699C15.1953 2.77474 14.784 2.62321 14.3325 2.4624C13.8872 2.3016 13.4388 2.14388 12.9873 1.98926C12.542 1.82845 12.1338 1.68311 11.7627 1.55322C11.3978 1.42334 11.1133 1.32438 10.9092 1.25635C10.7607 1.21305 10.5999 1.17594 10.4268 1.14502C10.2598 1.1141 10.0959 1.09863 9.93506 1.09863C9.78044 1.09863 9.61963 1.11719 9.45264 1.1543C9.28564 1.18522 9.12484 1.21924 8.97021 1.25635C8.76611 1.31201 8.47852 1.40479 8.10742 1.53467C7.74251 1.65837 7.3374 1.80062 6.89209 1.96143C6.44678 2.12223 5.99837 2.28613 5.54688 2.45312C5.09538 2.61393 4.68408 2.76546 4.31299 2.90771C3.94189 3.04997 3.6543 3.16439 3.4502 3.25098C2.99251 3.44271 2.65234 3.66846 2.42969 3.92822C2.21322 4.1818 2.10498 4.58382 2.10498 5.13428V12.1479C2.10498 12.9953 2.22868 13.7375 2.47607 14.3745C2.72965 15.0054 3.13477 15.5929 3.69141 16.1372C4.25423 16.6815 4.99333 17.2412 5.90869 17.8164C6.83024 18.3978 7.95589 19.0534 9.28564 19.7832C9.40934 19.8451 9.52686 19.8914 9.63818 19.9224C9.7557 19.9595 9.85465 19.978 9.93506 19.978ZM9.93506 18.0205C9.87321 18.0205 9.80208 18.005 9.72168 17.9741C9.64128 17.9432 9.53613 17.8875 9.40625 17.8071C8.34863 17.1639 7.4611 16.6134 6.74365 16.1558C6.03239 15.6981 5.46338 15.2682 5.03662 14.8662C4.61605 14.458 4.31299 14.0158 4.12744 13.5396C3.94189 13.0633 3.84912 12.485 3.84912 11.8047V5.43115C3.84912 5.27035 3.87077 5.14974 3.91406 5.06934C3.95736 4.98893 4.04395 4.92399 4.17383 4.87451C4.44596 4.76318 4.76139 4.64258 5.12012 4.5127C5.48503 4.37663 5.8654 4.23747 6.26123 4.09521C6.66325 3.95296 7.05908 3.8138 7.44873 3.67773C7.84456 3.54167 8.21566 3.41178 8.56201 3.28809C8.90837 3.16439 9.20524 3.05306 9.45264 2.9541C9.55778 2.91699 9.64746 2.88916 9.72168 2.87061C9.80208 2.85205 9.87321 2.84277 9.93506 2.84277C10.0031 2.84277 10.0742 2.85205 10.1484 2.87061C10.2288 2.88916 10.3216 2.91699 10.4268 2.9541C10.6742 3.05306 10.971 3.16748 11.3174 3.29736C11.6637 3.42106 12.0317 3.55404 12.4214 3.69629C12.811 3.83854 13.2038 3.98079 13.5996 4.12305C14.0016 4.2653 14.382 4.40137 14.7407 4.53125C15.1056 4.66113 15.4303 4.77555 15.7148 4.87451C15.8385 4.91781 15.922 4.98275 15.9653 5.06934C16.0086 5.14974 16.0303 5.27035 16.0303 5.43115V11.8047C16.0303 12.4912 15.9375 13.0757 15.752 13.5581C15.5664 14.0343 15.2572 14.4766 14.8242 14.8848C14.3975 15.293 13.8254 15.7259 13.1079 16.1836C12.3966 16.6351 11.5184 17.1763 10.4731 17.8071C10.3433 17.8875 10.2381 17.9432 10.1577 17.9741C10.0773 18.005 10.0031 18.0205 9.93506 18.0205ZM8.95166 14.4487C9.29801 14.4487 9.57015 14.291 9.76807 13.9756L13.915 7.49072C13.9769 7.39795 14.0295 7.29899 14.0728 7.19385C14.1222 7.08252 14.147 6.97428 14.147 6.86914C14.147 6.6403 14.0604 6.45475 13.8872 6.3125C13.714 6.17025 13.5192 6.09912 13.3027 6.09912C13.012 6.09912 12.7708 6.25684 12.5791 6.57227L8.91455 12.4448L7.18896 10.2554C7.07764 10.1069 6.96322 10.0049 6.8457 9.94922C6.73438 9.88737 6.60758 9.85645 6.46533 9.85645C6.24268 9.85645 6.05094 9.93994 5.89014 10.1069C5.73551 10.2677 5.6582 10.4626 5.6582 10.6914C5.6582 10.9017 5.73861 11.1089 5.89941 11.313L8.08887 13.9849C8.21875 14.1395 8.35173 14.257 8.48779 14.3374C8.62386 14.4116 8.77848 14.4487 8.95166 14.4487Z" fill="#38383D"/>
</svg>
