<svg width="20" height="21" viewBox="0 0 20 21" fill="none" xmlns="http://www.w3.org/2000/svg">
<path d="M9.99316 17.79C10.9867 17.79 11.9186 17.6009 12.7891 17.2227C13.6595 16.849 14.4251 16.3294 15.0859 15.6641C15.7513 15.0033 16.2731 14.2376 16.6514 13.3672C17.0296 12.4967 17.2188 11.5648 17.2188 10.5713C17.2188 9.58236 17.0296 8.65267 16.6514 7.78223C16.2731 6.91178 15.7513 6.14388 15.0859 5.47852C14.4251 4.81315 13.6572 4.29362 12.7822 3.91992C11.9118 3.54167 10.9821 3.35254 9.99316 3.35254C9.00423 3.35254 8.07227 3.54167 7.19727 3.91992C6.32682 4.29362 5.55892 4.81315 4.89355 5.47852C4.23275 6.14388 3.71322 6.91178 3.33496 7.78223C2.96126 8.65267 2.77441 9.58236 2.77441 10.5713C2.77441 11.5648 2.96126 12.4967 3.33496 13.3672C3.71322 14.2376 4.23503 15.0033 4.90039 15.6641C5.56576 16.3294 6.33366 16.849 7.2041 17.2227C8.07454 17.6009 9.00423 17.79 9.99316 17.79ZM9.70605 13.2988C9.41895 13.2988 9.21842 13.2533 9.10449 13.1621C8.99512 13.071 8.94043 12.9456 8.94043 12.7861C8.94043 12.5081 9.05436 12.2165 9.28223 11.9111C9.51009 11.6058 9.83138 11.346 10.2461 11.1318C10.6608 10.9176 11.153 10.8105 11.7227 10.8105C12.2832 10.8105 12.7708 10.9176 13.1855 11.1318C13.6003 11.346 13.9193 11.6058 14.1426 11.9111C14.3704 12.2165 14.4844 12.5081 14.4844 12.7861C14.4844 12.9456 14.4297 13.071 14.3203 13.1621C14.2109 13.2533 14.0081 13.2988 13.7119 13.2988H9.70605ZM11.7227 10.2432C11.3535 10.2432 11.0391 10.1019 10.7793 9.81934C10.5195 9.53223 10.3896 9.18587 10.3896 8.78027C10.3851 8.38379 10.515 8.04655 10.7793 7.76855C11.0436 7.486 11.3581 7.34473 11.7227 7.34473C12.0827 7.34473 12.3926 7.48372 12.6523 7.76172C12.9167 8.03971 13.0488 8.37923 13.0488 8.78027C13.0488 9.18587 12.9189 9.53223 12.6592 9.81934C12.3994 10.1019 12.0872 10.2432 11.7227 10.2432ZM6.15137 13.2988C5.91439 13.2988 5.74805 13.2487 5.65234 13.1484C5.55664 13.0436 5.50879 12.8978 5.50879 12.7109C5.50879 12.4284 5.60905 12.1413 5.80957 11.8496C6.01465 11.5534 6.2972 11.305 6.65723 11.1045C7.02181 10.904 7.44336 10.8037 7.92188 10.8037C8.19987 10.8037 8.45508 10.8402 8.6875 10.9131C8.91992 10.9814 9.125 11.0703 9.30273 11.1797C9.04297 11.3893 8.83561 11.6263 8.68066 11.8906C8.52572 12.1549 8.43457 12.4124 8.40723 12.6631C8.37988 12.9137 8.42546 13.1257 8.54395 13.2988H6.15137ZM7.92188 10.3115C7.60286 10.3115 7.32943 10.1885 7.10156 9.94238C6.8737 9.69629 6.75977 9.39551 6.75977 9.04004C6.75977 8.69824 6.8737 8.4043 7.10156 8.1582C7.33398 7.91211 7.60742 7.78906 7.92188 7.78906C8.24089 7.78906 8.51432 7.91211 8.74219 8.1582C8.97461 8.39974 9.09082 8.69141 9.09082 9.0332C9.09082 9.38867 8.97461 9.69173 8.74219 9.94238C8.51432 10.1885 8.24089 10.3115 7.92188 10.3115Z" fill="black"/>
</svg>
