<svg width="20" height="21" viewBox="0 0 20 21" fill="none" xmlns="http://www.w3.org/2000/svg">
<path d="M4.44922 17.0176H15.6533C16.3779 17.0176 16.943 16.8102 17.3486 16.3955C17.7542 15.9854 17.957 15.3929 17.957 14.6182V7.57031C17.957 6.80013 17.7474 6.20768 17.3281 5.79297C16.9134 5.37826 16.3187 5.1709 15.5439 5.1709H9.54199C9.27767 5.1709 9.0498 5.13672 8.8584 5.06836C8.67155 5 8.47103 4.88151 8.25684 4.71289L7.9082 4.43945C7.73047 4.30273 7.56413 4.19564 7.40918 4.11816C7.25423 4.03613 7.08333 3.97917 6.89648 3.94727C6.71419 3.91081 6.49316 3.89258 6.2334 3.89258H4.31934C3.61296 3.89258 3.05469 4.09993 2.64453 4.51465C2.23893 4.9248 2.03613 5.51497 2.03613 6.28516V14.6182C2.03613 15.3929 2.24349 15.9854 2.6582 16.3955C3.07292 16.8102 3.66992 17.0176 4.44922 17.0176ZM4.64062 15.2539C4.36719 15.2539 4.15755 15.1855 4.01172 15.0488C3.87044 14.9121 3.7998 14.6979 3.7998 14.4062V6.49707C3.7998 6.22819 3.875 6.02083 4.02539 5.875C4.17578 5.72917 4.3877 5.65625 4.66113 5.65625H5.75488C6.01921 5.65625 6.24251 5.69043 6.4248 5.75879C6.61165 5.82715 6.81445 5.94564 7.0332 6.11426L7.375 6.39453C7.55273 6.53125 7.71908 6.64062 7.87402 6.72266C8.03353 6.80013 8.20671 6.8571 8.39355 6.89355C8.5804 6.92546 8.80371 6.94141 9.06348 6.94141H15.3457C15.6191 6.94141 15.8288 7.00977 15.9746 7.14648C16.1204 7.2832 16.1934 7.4974 16.1934 7.78906V14.4062C16.1934 14.6979 16.1204 14.9121 15.9746 15.0488C15.8288 15.1855 15.6191 15.2539 15.3457 15.2539H4.64062ZM3.1709 9.64844H16.8496V8.20605H3.1709V9.64844Z" fill="black"/>
</svg>
