<svg width="24" height="24" viewBox="0 0 24 24" fill="none" xmlns="http://www.w3.org/2000/svg">
<path d="M12.0051 21.93C6.54435 21.93 2.00513 17.3907 2.00513 11.9299C2.00513 6.45935 6.53455 1.92993 11.9953 1.92993C17.466 1.92993 22.0051 6.45935 22.0051 11.9299C22.0051 17.3907 17.4757 21.93 12.0051 21.93ZM10.9071 16.7241C11.2404 16.7241 11.5247 16.5672 11.7306 16.2437L16.3385 8.98877C16.4561 8.78288 16.5836 8.5574 16.5836 8.34171C16.5836 7.88092 16.1816 7.58681 15.7502 7.58681C15.4954 7.58681 15.2405 7.74367 15.0542 8.03779L10.8679 14.7633L8.87769 12.1947C8.63259 11.8711 8.4169 11.7829 8.13259 11.7829C7.69142 11.7829 7.34827 12.1456 7.34827 12.5868C7.34827 12.8123 7.4365 13.028 7.58358 13.2241L10.0444 16.2437C10.2993 16.5868 10.5738 16.7241 10.9071 16.7241Z" fill="black"/>
</svg>
