<svg width="24" height="24" viewBox="0 0 24 24" fill="none" xmlns="http://www.w3.org/2000/svg">
<path d="M12 22C13.366 22 14.6503 21.7386 15.8529 21.2157C17.0621 20.6928 18.1274 19.9706 19.049 19.049C19.9706 18.1275 20.6928 17.0654 21.2157 15.8627C21.7386 14.6536 22 13.366 22 12C22 10.634 21.7386 9.34967 21.2157 8.14707C20.6928 6.93792 19.9706 5.87256 19.049 4.95098C18.1274 4.02942 17.0621 3.30719 15.8529 2.78432C14.6438 2.26144 13.3562 2 11.9902 2C10.6242 2 9.3366 2.26144 8.12745 2.78432C6.92484 3.30719 5.86273 4.02942 4.94118 4.95098C4.02614 5.87256 3.3072 6.93792 2.78431 8.14707C2.26144 9.34967 2 10.634 2 12C2 13.366 2.26144 14.6536 2.78431 15.8627C3.3072 17.0654 4.02942 18.1275 4.95097 19.049C5.87255 19.9706 6.93463 20.6928 8.13726 21.2157C9.34641 21.7386 10.634 22 12 22ZM12 20.3333C10.8431 20.3333 9.76143 20.1177 8.7549 19.6863C7.74837 19.2549 6.86275 18.6601 6.09803 17.902C5.33987 17.1373 4.7451 16.2516 4.31373 15.2451C3.88889 14.2386 3.67646 13.1569 3.67646 12C3.67646 10.8431 3.88889 9.76144 4.31373 8.75491C4.7451 7.74837 5.33987 6.86274 6.09803 6.09804C6.85622 5.33334 7.73857 4.73857 8.74511 4.31373C9.75164 3.88236 10.8333 3.66667 11.9902 3.66667C13.1471 3.66667 14.2288 3.88236 15.2353 4.31373C16.2484 4.73857 17.134 5.33334 17.8922 6.09804C18.6569 6.86274 19.2549 7.74837 19.6863 8.75491C20.1176 9.76144 20.3333 10.8431 20.3333 12C20.3333 13.1569 20.1176 14.2386 19.6863 15.2451C19.2614 16.2516 18.6667 17.1373 17.902 17.902C17.1373 18.6601 16.2516 19.2549 15.2451 19.6863C14.2386 20.1177 13.1569 20.3333 12 20.3333ZM10.9216 16.6471C11.2549 16.6471 11.5196 16.4967 11.7157 16.1961L16.1961 9.13727C16.2549 9.04575 16.3072 8.94773 16.3529 8.84314C16.4052 8.73204 16.4314 8.62092 16.4314 8.50982C16.4314 8.29413 16.3497 8.12092 16.1863 7.99021C16.0229 7.85948 15.8399 7.79413 15.6373 7.79413C15.3628 7.79413 15.134 7.94117 14.951 8.2353L10.8823 14.7647L8.95098 12.2647C8.83334 12.1079 8.71568 12.0033 8.59804 11.951C8.48692 11.8922 8.36275 11.8628 8.2255 11.8628C8.01635 11.8628 7.8366 11.9412 7.68628 12.098C7.54247 12.2484 7.47059 12.4314 7.47059 12.6471C7.47059 12.8497 7.54575 13.0523 7.69607 13.2549L10.0882 16.1961C10.2124 16.3529 10.3399 16.4673 10.4706 16.5392C10.6078 16.6111 10.7582 16.6471 10.9216 16.6471Z" fill="black"/>
</svg>
