<svg width="16" height="16" viewBox="0 0 16 16" fill="none" xmlns="http://www.w3.org/2000/svg">
<path d="M2.19652 15.306C1.7502 15.306 1.36154 15.2058 1.03056 15.0052C0.704593 14.8096 0.451341 14.5438 0.270804 14.2078C0.0902679 13.8768 0 13.5107 0 13.1095C0 12.7233 0.100297 12.3548 0.300893 12.0037L6.11567 1.86359C6.32128 1.49751 6.59209 1.22169 6.92809 1.03614C7.2691 0.850588 7.62767 0.757812 8.00379 0.757812C8.37488 0.757812 8.72843 0.850588 9.06443 1.03614C9.40043 1.22169 9.67374 1.49751 9.88437 1.86359L15.6991 12.0037C15.7994 12.1793 15.8747 12.3623 15.9248 12.5529C15.975 12.7384 16 12.924 16 13.1095C16 13.5107 15.9098 13.8768 15.7292 14.2078C15.5487 14.5438 15.293 14.8096 14.962 15.0052C14.636 15.2058 14.2498 15.306 13.8035 15.306H2.19652ZM8.0113 10.0479C8.49273 10.0479 8.74348 9.79717 8.76353 9.29568L8.8839 5.73761C8.89392 5.49188 8.81369 5.28877 8.64318 5.1283C8.47769 4.96281 8.26455 4.88007 8.00379 4.88007C7.73799 4.88007 7.52236 4.9603 7.35685 5.12078C7.19136 5.28125 7.11364 5.48687 7.12367 5.73761L7.2365 9.29568C7.25656 9.79717 7.51483 10.0479 8.0113 10.0479ZM8.0113 12.6958C8.2821 12.6958 8.51279 12.6131 8.70336 12.4476C8.89392 12.277 8.98921 12.0589 8.98921 11.7931C8.98921 11.5324 8.89392 11.3167 8.70336 11.1462C8.51279 10.9757 8.2821 10.8904 8.0113 10.8904C7.73548 10.8904 7.5023 10.9757 7.31173 11.1462C7.12116 11.3167 7.02587 11.5324 7.02587 11.7931C7.02587 12.0589 7.12116 12.277 7.31173 12.4476C7.5073 12.6131 7.7405 12.6958 8.0113 12.6958Z" fill="#F3BD41"/>
</svg>
