<svg width="24" height="24" viewBox="0 0 24 24" fill="none" xmlns="http://www.w3.org/2000/svg">
<path d="M12 22C13.366 22 14.6503 21.7386 15.8529 21.2157C17.0621 20.6928 18.1274 19.9706 19.049 19.049C19.9706 18.1275 20.6928 17.0654 21.2157 15.8628C21.7386 14.6536 22 13.366 22 12C22 10.634 21.7386 9.34969 21.2157 8.14705C20.6928 6.93791 19.9706 5.87255 19.049 4.95099C18.1274 4.02941 17.0621 3.30719 15.8529 2.78431C14.6438 2.26144 13.3562 2 11.9902 2C10.6242 2 9.3366 2.26144 8.12745 2.78431C6.92484 3.30719 5.86273 4.02941 4.94118 4.95099C4.02614 5.87255 3.3072 6.93791 2.78431 8.14705C2.26144 9.34969 2 10.634 2 12C2 13.366 2.26144 14.6536 2.78431 15.8628C3.3072 17.0654 4.02942 18.1275 4.95097 19.049C5.87255 19.9706 6.93463 20.6928 8.13726 21.2157C9.34641 21.7386 10.634 22 12 22ZM8.9902 16.6373C8.78105 16.6373 8.60458 16.5686 8.4608 16.4314C8.31699 16.2941 8.24511 16.1275 8.24511 15.9314C8.24511 15.7484 8.30392 15.5719 8.42158 15.402L10.9902 11.853L8.56864 8.5196C8.42483 8.32352 8.35295 8.12744 8.35295 7.93137C8.35295 7.72222 8.43137 7.54575 8.58823 7.40197C8.74511 7.25165 8.93137 7.17646 9.14705 7.17646C9.31698 7.17646 9.45751 7.21243 9.56863 7.28431C9.68627 7.34967 9.80393 7.46405 9.92157 7.62745L12.0686 10.7451H12.1177L14.2353 7.63726C14.3399 7.46733 14.4477 7.34967 14.5588 7.28431C14.6765 7.21243 14.8137 7.17646 14.9706 7.17646C15.1863 7.17646 15.366 7.24511 15.5098 7.38236C15.6601 7.5196 15.7353 7.68953 15.7353 7.89215C15.7353 8.08171 15.6699 8.26144 15.5392 8.43137L12.9902 11.902L15.5196 15.3628C15.6503 15.5261 15.7157 15.7026 15.7157 15.8922C15.7157 16.1144 15.6405 16.2941 15.4902 16.4314C15.3399 16.5686 15.1471 16.6373 14.9118 16.6373C14.7549 16.6373 14.6209 16.6046 14.5098 16.5392C14.4052 16.4673 14.2876 16.3431 14.1569 16.1667L11.9804 13.0588H11.9412L9.7549 16.1667C9.62418 16.3431 9.50655 16.4673 9.40196 16.5392C9.2974 16.6046 9.16013 16.6373 8.9902 16.6373Z" fill="black"/>
</svg>
