<svg width="16" height="17" viewBox="0 0 16 17" fill="none" xmlns="http://www.w3.org/2000/svg">
<path d="M5.67765 16.1328C5.34589 16.1328 5.05685 16.0936 4.81054 16.015C4.56424 15.9417 4.34055 15.8319 4.13948 15.6853C3.94345 15.5387 3.75494 15.3608 3.57398 15.1515L0.68615 11.7677C0.500151 11.5531 0.356895 11.3569 0.256362 11.1789C0.160854 10.9957 0.0929942 10.8021 0.0527807 10.598C0.0175936 10.3938 0 10.1478 0 9.85999V6.41347C0 6.12561 0.0175936 5.87962 0.0527807 5.67549C0.0929942 5.46614 0.160854 5.27249 0.256362 5.09454C0.356895 4.91135 0.500151 4.71508 0.68615 4.50573L3.57398 1.12202C3.75494 0.907429 3.94345 0.729476 4.13948 0.588161C4.34055 0.441612 4.56424 0.329084 4.81054 0.250575C5.05685 0.172067 5.34589 0.132812 5.67765 0.132812H10.3223C10.649 0.132812 10.9356 0.172067 11.1819 0.250575C11.4332 0.323849 11.6569 0.433762 11.8529 0.580311C12.0541 0.726859 12.245 0.907429 12.426 1.12202L15.261 4.50573C15.447 4.72555 15.5928 4.92705 15.6984 5.11024C15.8089 5.28819 15.8869 5.47923 15.9321 5.68335C15.9774 5.88224 16 6.12561 16 6.41347V9.85999C16 10.1478 15.9798 10.3938 15.9396 10.598C15.9044 10.8021 15.8366 10.9957 15.7361 11.1789C15.6356 11.3569 15.4972 11.5531 15.3213 11.7677L12.426 15.1515C12.245 15.3608 12.0541 15.5387 11.8529 15.6853C11.6569 15.8319 11.4332 15.9417 11.1819 16.015C10.9356 16.0936 10.649 16.1328 10.3223 16.1328H5.67765ZM5.56455 11.4773C5.79578 11.4773 5.9893 11.3988 6.14513 11.2417L8.00752 9.29474L9.87744 11.2417C10.0232 11.3988 10.2092 11.4773 10.4354 11.4773C10.6566 11.4773 10.8426 11.3988 10.9934 11.2417C11.1442 11.0847 11.2196 10.8911 11.2196 10.6608C11.2196 10.4357 11.1417 10.2473 10.9858 10.0955L9.10837 8.14066L10.9934 6.1858C11.1442 6.02355 11.2196 5.83513 11.2196 5.62054C11.2196 5.39025 11.1442 5.19921 10.9934 5.04743C10.8476 4.89042 10.6666 4.8119 10.4505 4.8119C10.2293 4.8119 10.0433 4.89042 9.89252 5.04743L8.00752 7.00229L6.13004 5.05528C5.97422 4.89826 5.78573 4.81976 5.56455 4.81976C5.3484 4.81976 5.16492 4.89826 5.01413 5.05528C4.86836 5.20706 4.79546 5.3981 4.79546 5.6284C4.79546 5.84298 4.87087 6.02879 5.02167 6.1858L6.90667 8.14066L5.02167 10.1034C4.87087 10.2604 4.79546 10.4462 4.79546 10.6608C4.79546 10.8911 4.86836 11.0847 5.01413 11.2417C5.16492 11.3988 5.3484 11.4773 5.56455 11.4773Z" fill="#007AFF"/>
<path d="M5.67765 16.1328C5.34589 16.1328 5.05685 16.0936 4.81054 16.015C4.56424 15.9417 4.34055 15.8319 4.13948 15.6853C3.94345 15.5387 3.75494 15.3608 3.57398 15.1515L0.68615 11.7677C0.500151 11.5531 0.356895 11.3569 0.256362 11.1789C0.160854 10.9957 0.0929942 10.8021 0.0527807 10.598C0.0175936 10.3938 0 10.1478 0 9.85999V6.41347C0 6.12561 0.0175936 5.87962 0.0527807 5.67549C0.0929942 5.46614 0.160854 5.27249 0.256362 5.09454C0.356895 4.91135 0.500151 4.71508 0.68615 4.50573L3.57398 1.12202C3.75494 0.907429 3.94345 0.729476 4.13948 0.588161C4.34055 0.441612 4.56424 0.329084 4.81054 0.250575C5.05685 0.172067 5.34589 0.132812 5.67765 0.132812H10.3223C10.649 0.132812 10.9356 0.172067 11.1819 0.250575C11.4332 0.323849 11.6569 0.433762 11.8529 0.580311C12.0541 0.726859 12.245 0.907429 12.426 1.12202L15.261 4.50573C15.447 4.72555 15.5928 4.92705 15.6984 5.11024C15.8089 5.28819 15.8869 5.47923 15.9321 5.68335C15.9774 5.88224 16 6.12561 16 6.41347V9.85999C16 10.1478 15.9798 10.3938 15.9396 10.598C15.9044 10.8021 15.8366 10.9957 15.7361 11.1789C15.6356 11.3569 15.4972 11.5531 15.3213 11.7677L12.426 15.1515C12.245 15.3608 12.0541 15.5387 11.8529 15.6853C11.6569 15.8319 11.4332 15.9417 11.1819 16.015C10.9356 16.0936 10.649 16.1328 10.3223 16.1328H5.67765ZM5.56455 11.4773C5.79578 11.4773 5.9893 11.3988 6.14513 11.2417L8.00752 9.29474L9.87744 11.2417C10.0232 11.3988 10.2092 11.4773 10.4354 11.4773C10.6566 11.4773 10.8426 11.3988 10.9934 11.2417C11.1442 11.0847 11.2196 10.8911 11.2196 10.6608C11.2196 10.4357 11.1417 10.2473 10.9858 10.0955L9.10837 8.14066L10.9934 6.1858C11.1442 6.02355 11.2196 5.83513 11.2196 5.62054C11.2196 5.39025 11.1442 5.19921 10.9934 5.04743C10.8476 4.89042 10.6666 4.8119 10.4505 4.8119C10.2293 4.8119 10.0433 4.89042 9.89252 5.04743L8.00752 7.00229L6.13004 5.05528C5.97422 4.89826 5.78573 4.81976 5.56455 4.81976C5.3484 4.81976 5.16492 4.89826 5.01413 5.05528C4.86836 5.20706 4.79546 5.3981 4.79546 5.6284C4.79546 5.84298 4.87087 6.02879 5.02167 6.1858L6.90667 8.14066L5.02167 10.1034C4.87087 10.2604 4.79546 10.4462 4.79546 10.6608C4.79546 10.8911 4.86836 11.0847 5.01413 11.2417C5.16492 11.3988 5.3484 11.4773 5.56455 11.4773Z" fill="url(#paint0_linear_20732_15435)"/>
<path d="M5.67765 16.1328C5.34589 16.1328 5.05685 16.0936 4.81054 16.015C4.56424 15.9417 4.34055 15.8319 4.13948 15.6853C3.94345 15.5387 3.75494 15.3608 3.57398 15.1515L0.68615 11.7677C0.500151 11.5531 0.356895 11.3569 0.256362 11.1789C0.160854 10.9957 0.0929942 10.8021 0.0527807 10.598C0.0175936 10.3938 0 10.1478 0 9.85999V6.41347C0 6.12561 0.0175936 5.87962 0.0527807 5.67549C0.0929942 5.46614 0.160854 5.27249 0.256362 5.09454C0.356895 4.91135 0.500151 4.71508 0.68615 4.50573L3.57398 1.12202C3.75494 0.907429 3.94345 0.729476 4.13948 0.588161C4.34055 0.441612 4.56424 0.329084 4.81054 0.250575C5.05685 0.172067 5.34589 0.132812 5.67765 0.132812H10.3223C10.649 0.132812 10.9356 0.172067 11.1819 0.250575C11.4332 0.323849 11.6569 0.433762 11.8529 0.580311C12.0541 0.726859 12.245 0.907429 12.426 1.12202L15.261 4.50573C15.447 4.72555 15.5928 4.92705 15.6984 5.11024C15.8089 5.28819 15.8869 5.47923 15.9321 5.68335C15.9774 5.88224 16 6.12561 16 6.41347V9.85999C16 10.1478 15.9798 10.3938 15.9396 10.598C15.9044 10.8021 15.8366 10.9957 15.7361 11.1789C15.6356 11.3569 15.4972 11.5531 15.3213 11.7677L12.426 15.1515C12.245 15.3608 12.0541 15.5387 11.8529 15.6853C11.6569 15.8319 11.4332 15.9417 11.1819 16.015C10.9356 16.0936 10.649 16.1328 10.3223 16.1328H5.67765ZM5.56455 11.4773C5.79578 11.4773 5.9893 11.3988 6.14513 11.2417L8.00752 9.29474L9.87744 11.2417C10.0232 11.3988 10.2092 11.4773 10.4354 11.4773C10.6566 11.4773 10.8426 11.3988 10.9934 11.2417C11.1442 11.0847 11.2196 10.8911 11.2196 10.6608C11.2196 10.4357 11.1417 10.2473 10.9858 10.0955L9.10837 8.14066L10.9934 6.1858C11.1442 6.02355 11.2196 5.83513 11.2196 5.62054C11.2196 5.39025 11.1442 5.19921 10.9934 5.04743C10.8476 4.89042 10.6666 4.8119 10.4505 4.8119C10.2293 4.8119 10.0433 4.89042 9.89252 5.04743L8.00752 7.00229L6.13004 5.05528C5.97422 4.89826 5.78573 4.81976 5.56455 4.81976C5.3484 4.81976 5.16492 4.89826 5.01413 5.05528C4.86836 5.20706 4.79546 5.3981 4.79546 5.6284C4.79546 5.84298 4.87087 6.02879 5.02167 6.1858L6.90667 8.14066L5.02167 10.1034C4.87087 10.2604 4.79546 10.4462 4.79546 10.6608C4.79546 10.8911 4.86836 11.0847 5.01413 11.2417C5.16492 11.3988 5.3484 11.4773 5.56455 11.4773Z" fill="#F13462"/>
<defs>
<linearGradient id="paint0_linear_20732_15435" x1="5.28406" y1="-4.31163" x2="39.4686" y2="28.373" gradientUnits="userSpaceOnUse">
<stop stop-color="#01ACFD"/>
<stop offset="0.493054" stop-color="#F155FF"/>
<stop offset="0.739583" stop-color="#F477F8"/>
<stop offset="1" stop-color="#F33685"/>
</linearGradient>
</defs>
</svg>
