<svg width="20" height="20" viewBox="0 0 20 20" fill="none" xmlns="http://www.w3.org/2000/svg">
<path d="M1.53027 16.5723L2.84961 17.8916C3.20508 18.2516 3.58789 18.418 3.99805 18.3906C4.41276 18.3678 4.80469 18.1514 5.17383 17.7412L13.0557 9.01855L12.0303 7.98633L4.16895 16.4561C4.08236 16.5518 3.99577 16.6042 3.90918 16.6133C3.82259 16.627 3.72689 16.5791 3.62207 16.4697L2.95215 15.7998C2.84277 15.6904 2.79264 15.5947 2.80176 15.5127C2.81543 15.4307 2.87012 15.3441 2.96582 15.2529L11.3535 7.31641L10.3281 6.29102L1.67383 14.248C1.27279 14.6126 1.05859 15 1.03125 15.4102C1.00846 15.8249 1.1748 16.2122 1.53027 16.5723ZM6.45215 3.1123C6.27897 3.28092 6.18099 3.47233 6.1582 3.68652C6.13997 3.90072 6.17871 4.09212 6.27441 4.26074C6.37467 4.44303 6.52734 4.58203 6.73242 4.67773C6.94206 4.77344 7.18815 4.78711 7.4707 4.71875C7.98112 4.58659 8.47559 4.53418 8.9541 4.56152C9.43717 4.58887 9.89746 4.7347 10.335 4.99902L9.98633 5.87402C9.85417 6.20215 9.81315 6.49837 9.86328 6.7627C9.91797 7.02702 10.0592 7.27539 10.2871 7.50781L11.8047 9.03906C12.0599 9.29427 12.2969 9.45378 12.5156 9.51758C12.7344 9.58138 12.9805 9.58366 13.2539 9.52441L13.8418 9.4082L14.1494 9.72266L14.1221 10.0508C14.0993 10.2422 14.1243 10.4268 14.1973 10.6045C14.2747 10.7822 14.4092 10.9645 14.6006 11.1514L15.1475 11.6846C15.3662 11.9033 15.6055 12.0173 15.8652 12.0264C16.125 12.0309 16.3597 11.9284 16.5693 11.7188L18.6543 9.63379C18.8639 9.42415 18.9665 9.18945 18.9619 8.92969C18.9574 8.66536 18.8457 8.42383 18.627 8.20508L18.0801 7.66504C17.8978 7.47363 17.7178 7.34147 17.54 7.26855C17.3623 7.19108 17.18 7.16146 16.9932 7.17969L16.6582 7.21387L16.3506 6.91992L16.4873 6.30469C16.5465 6.02669 16.5352 5.77832 16.4531 5.55957C16.3711 5.33626 16.1934 5.08789 15.9199 4.81445L14.4844 3.38574C13.8828 2.77962 13.2288 2.32389 12.5225 2.01855C11.8161 1.70866 11.1006 1.5446 10.376 1.52637C9.65137 1.50358 8.95182 1.62663 8.27734 1.89551C7.60742 2.15983 6.99902 2.56543 6.45215 3.1123ZM8.09961 3.47461C8.50065 3.22396 8.92676 3.05534 9.37793 2.96875C9.8291 2.88216 10.2826 2.87305 10.7383 2.94141C11.194 3.00977 11.6338 3.15104 12.0576 3.36523C12.486 3.57943 12.8779 3.86426 13.2334 4.21973L14.8604 5.83984C14.9424 5.92188 14.9925 6.00391 15.0107 6.08594C15.0335 6.16797 15.0335 6.26823 15.0107 6.38672L14.8193 7.3916L16.002 8.56055L16.6787 8.52637C16.7516 8.52181 16.8063 8.52865 16.8428 8.54688C16.8792 8.56055 16.9248 8.59245 16.9795 8.64258L17.2256 8.88867L15.7969 10.3105L15.5576 10.0713C15.5029 10.0166 15.4665 9.97103 15.4482 9.93457C15.4346 9.89355 15.43 9.83659 15.4346 9.76367L15.4756 9.08691L14.2998 7.91797L13.2812 8.08203C13.1628 8.10026 13.0648 8.10026 12.9873 8.08203C12.9144 8.0638 12.8346 8.01367 12.748 7.93164L11.5586 6.74219C11.472 6.6556 11.4173 6.57129 11.3945 6.48926C11.3717 6.40267 11.3831 6.30013 11.4287 6.18164L12.0508 4.69824C11.4993 4.15592 10.8796 3.78906 10.1914 3.59766C9.50781 3.40169 8.82422 3.3903 8.14062 3.56348C8.10417 3.57259 8.0791 3.56576 8.06543 3.54297C8.05632 3.52018 8.06771 3.4974 8.09961 3.47461Z" fill="black"/>
</svg>
