<svg width="20" height="20" viewBox="0 0 20 20" fill="none" xmlns="http://www.w3.org/2000/svg">
<path d="M6.8418 17.2832H13.1514C13.7347 17.2832 14.1973 17.126 14.5391 16.8115C14.8854 16.4971 15.07 16.0459 15.0928 15.458L15.5439 5.77148H16.1865C16.4053 5.77148 16.5876 5.70085 16.7334 5.55957C16.8792 5.41829 16.9521 5.23828 16.9521 5.01953C16.9521 4.80078 16.877 4.62305 16.7266 4.48633C16.5807 4.34505 16.4007 4.27441 16.1865 4.27441H3.81348C3.59473 4.27441 3.41016 4.34505 3.25977 4.48633C3.11393 4.6276 3.04102 4.80534 3.04102 5.01953C3.04102 5.23828 3.11393 5.41829 3.25977 5.55957C3.41016 5.70085 3.59473 5.77148 3.81348 5.77148H4.45605L4.90039 15.4648C4.92773 16.0527 5.1123 16.5016 5.4541 16.8115C5.7959 17.126 6.25846 17.2832 6.8418 17.2832ZM7.04688 15.7588C6.86914 15.7588 6.72559 15.6995 6.61621 15.5811C6.51139 15.4626 6.45443 15.3031 6.44531 15.1025L6.00098 5.77148H13.9717L13.5479 15.1025C13.5433 15.3076 13.4863 15.4671 13.377 15.5811C13.2676 15.6995 13.1217 15.7588 12.9395 15.7588H7.04688ZM8.00391 14.7676C8.16797 14.7676 8.30013 14.7174 8.40039 14.6172C8.50065 14.5169 8.5485 14.387 8.54395 14.2275L8.33887 7.32324C8.33887 7.16829 8.28646 7.04297 8.18164 6.94727C8.08138 6.84701 7.94922 6.79688 7.78516 6.79688C7.62109 6.79688 7.48893 6.84701 7.38867 6.94727C7.29297 7.04297 7.2474 7.17057 7.25195 7.33008L7.4502 14.2412C7.45475 14.4007 7.50716 14.5283 7.60742 14.624C7.71224 14.7197 7.8444 14.7676 8.00391 14.7676ZM10 14.7676C10.1641 14.7676 10.2962 14.7197 10.3965 14.624C10.4967 14.5283 10.5469 14.4007 10.5469 14.2412V7.32324C10.5469 7.16829 10.4967 7.04297 10.3965 6.94727C10.2962 6.84701 10.1641 6.79688 10 6.79688C9.83594 6.79688 9.7015 6.84701 9.59668 6.94727C9.49642 7.04297 9.44629 7.16829 9.44629 7.32324V14.2412C9.44629 14.4007 9.49642 14.5283 9.59668 14.624C9.7015 14.7197 9.83594 14.7676 10 14.7676ZM11.9961 14.7676C12.151 14.7676 12.2786 14.7197 12.3789 14.624C12.4837 14.5283 12.5384 14.4007 12.543 14.2412L12.7412 7.33008C12.7458 7.17057 12.7002 7.04297 12.6045 6.94727C12.5088 6.84701 12.3766 6.79688 12.208 6.79688C12.0439 6.79688 11.9118 6.84701 11.8115 6.94727C11.7113 7.04297 11.6589 7.17057 11.6543 7.33008L11.4492 14.2275C11.4447 14.387 11.4925 14.5169 11.5928 14.6172C11.693 14.7174 11.8275 14.7676 11.9961 14.7676ZM6.70508 4.67773H8.27734V3.33789C8.27734 3.19206 8.3252 3.07812 8.4209 2.99609C8.5166 2.90951 8.64648 2.86621 8.81055 2.86621H11.1758C11.3398 2.86621 11.4697 2.90951 11.5654 2.99609C11.6611 3.07812 11.709 3.19206 11.709 3.33789V4.67773H13.2812V3.2832C13.2812 2.71354 13.1081 2.27376 12.7617 1.96387C12.4199 1.65397 11.93 1.49902 11.292 1.49902H8.69434C8.05632 1.49902 7.56413 1.65397 7.21777 1.96387C6.87598 2.27376 6.70508 2.71354 6.70508 3.2832V4.67773Z" fill="#38383D"/>
</svg>
