<svg viewBox="0 0 17 9" fill="none" xmlns="http://www.w3.org/2000/svg">
  <path d="M6.52246 7.79541C6.91797 7.79541 7.26514 7.75586 7.56396 7.67676C7.86279 7.60059 8.13086 7.50391 8.36816 7.38672C8.6084 7.26953 8.83252 7.15088 9.04053 7.03076C9.25146 6.91357 9.46094 6.8125 9.66895 6.72754C9.87988 6.64258 10.1099 6.5957 10.3589 6.58691C10.6694 6.56641 10.9463 6.51807 11.1895 6.44189C11.4326 6.36572 11.6567 6.27783 11.8618 6.17822C12.0698 6.07861 12.272 5.98047 12.4683 5.88379C12.6646 5.78711 12.8696 5.70801 13.0835 5.64648C13.2974 5.58203 13.5332 5.5498 13.791 5.5498C14.2363 5.5498 14.6274 5.49707 14.9644 5.3916C15.3042 5.28613 15.5693 5.13232 15.7598 4.93018C15.9502 4.7251 16.0454 4.47607 16.0454 4.18311C16.0454 3.58545 15.9429 3.07422 15.7378 2.64941C15.5327 2.22168 15.2544 1.89502 14.9028 1.66943C14.5513 1.44092 14.1572 1.32666 13.7207 1.32666C13.3076 1.32666 12.9487 1.4043 12.644 1.55957C12.3423 1.71484 12.0933 1.93311 11.897 2.21436C11.7036 2.49268 11.5615 2.8208 11.4707 3.19873C11.418 3.40674 11.3433 3.58252 11.2466 3.72607C11.1528 3.86963 11.0371 3.98535 10.8994 4.07324L10.7061 3.71729C10.3047 2.98193 9.90186 2.38721 9.49756 1.93311C9.09326 1.479 8.65381 1.14648 8.1792 0.935547C7.70459 0.724609 7.1626 0.619141 6.55322 0.619141C6.07861 0.619141 5.64941 0.679199 5.26562 0.799316C4.88184 0.916504 4.52295 1.10547 4.18896 1.36621C3.85498 1.62695 3.53125 1.97412 3.21777 2.40771C2.9043 2.83838 2.5791 3.36719 2.24219 3.99414C2.11035 4.24902 1.96973 4.4585 1.82031 4.62256C1.6709 4.78369 1.53027 4.92285 1.39844 5.04004C1.2666 5.15723 1.15967 5.27441 1.07764 5.3916C0.995605 5.50879 0.95459 5.64795 0.95459 5.80908C0.95459 6.04639 1.04541 6.23535 1.22705 6.37598C1.40869 6.5166 1.66504 6.58691 1.99609 6.58691C2.0752 6.58691 2.15723 6.58691 2.24219 6.58691C2.33008 6.58691 2.41797 6.58691 2.50586 6.58691C2.7959 6.58691 3.06396 6.62793 3.31006 6.70996C3.55908 6.78906 3.80078 6.88867 4.03516 7.00879C4.26953 7.12891 4.50977 7.24902 4.75586 7.36914C5.00195 7.49219 5.26855 7.59326 5.55566 7.67236C5.84277 7.75439 6.16504 7.79541 6.52246 7.79541ZM6.52246 6.77148C6.23242 6.77148 5.96143 6.73193 5.70947 6.65283C5.45752 6.5708 5.21582 6.47119 4.98438 6.354C4.75586 6.23389 4.52734 6.11377 4.29883 5.99365C4.07031 5.87354 3.83594 5.77393 3.5957 5.69482C3.35547 5.61279 3.09766 5.57178 2.82227 5.57178C2.74023 5.57178 2.6582 5.57324 2.57617 5.57617C2.49707 5.57617 2.40918 5.57764 2.3125 5.58057L2.29492 5.51025C2.38867 5.42529 2.48242 5.33594 2.57617 5.24219C2.67285 5.14844 2.7666 5.04004 2.85742 4.91699C2.94824 4.79395 3.03613 4.64746 3.12109 4.47754C3.39648 3.94141 3.66016 3.49316 3.91211 3.13281C4.16699 2.76953 4.4248 2.47803 4.68555 2.2583C4.94922 2.03857 5.23193 1.88037 5.53369 1.78369C5.83545 1.68701 6.17529 1.63867 6.55322 1.63867C6.95459 1.63867 7.31055 1.69727 7.62109 1.81445C7.93457 1.93164 8.21729 2.10303 8.46924 2.32861C8.72412 2.5542 8.96289 2.82959 9.18555 3.15479C9.41113 3.47705 9.63672 3.84473 9.8623 4.25781C9.96484 4.44531 10.063 4.61816 10.1567 4.77637C10.2534 4.93164 10.3501 5.0752 10.4468 5.20703C10.5464 5.33594 10.6533 5.45166 10.7676 5.5542C10.7002 5.5542 10.6284 5.55566 10.5522 5.55859C10.479 5.56152 10.4014 5.56738 10.3193 5.57617C10.0205 5.59375 9.74512 5.64648 9.49316 5.73438C9.24121 5.81934 8.99951 5.92041 8.76807 6.0376C8.53955 6.15479 8.30957 6.27051 8.07812 6.38477C7.84668 6.49609 7.60498 6.58838 7.35303 6.66162C7.10107 6.73486 6.82422 6.77148 6.52246 6.77148ZM11.8442 5.34766C11.771 5.2832 11.6978 5.2085 11.6245 5.12354C11.5542 5.03564 11.4897 4.94043 11.4312 4.83789C11.5894 4.78223 11.7271 4.70312 11.8442 4.60059C11.9644 4.49805 12.0654 4.36768 12.1475 4.20947C12.2324 4.05127 12.2998 3.85938 12.3496 3.63379C12.4111 3.34375 12.502 3.10059 12.6221 2.9043C12.7422 2.70801 12.8931 2.56006 13.0747 2.46045C13.2563 2.35791 13.4717 2.30664 13.7207 2.30664C13.9756 2.30664 14.207 2.38135 14.415 2.53076C14.623 2.68018 14.7886 2.88672 14.9116 3.15039C15.0376 3.41406 15.1006 3.71729 15.1006 4.06006C15.1006 4.15674 15.0449 4.24609 14.9336 4.32812C14.8223 4.40723 14.6772 4.47168 14.4985 4.52148C14.3228 4.56836 14.1382 4.5918 13.9448 4.5918C13.6782 4.5918 13.4438 4.61377 13.2417 4.65771C13.0396 4.69873 12.8579 4.75586 12.6968 4.8291C12.5356 4.89941 12.3862 4.97998 12.2485 5.0708C12.1108 5.15869 11.9761 5.25098 11.8442 5.34766ZM13.8394 3.79199C13.9536 3.79199 14.0518 3.75098 14.1338 3.66895C14.2188 3.58691 14.2612 3.4873 14.2612 3.37012C14.2612 3.25586 14.2188 3.15771 14.1338 3.07568C14.0518 2.99365 13.9536 2.95264 13.8394 2.95264C13.7222 2.95264 13.6226 2.99365 13.5405 3.07568C13.4585 3.15771 13.4175 3.25586 13.4175 3.37012C13.4175 3.4873 13.4585 3.58691 13.5405 3.66895C13.6226 3.75098 13.7222 3.79199 13.8394 3.79199ZM6.50928 4.35889C7.01025 4.35889 7.46729 4.29297 7.88037 4.16113C8.29346 4.02637 8.66113 3.85205 8.9834 3.63818C9.30859 3.42432 9.58691 3.19873 9.81836 2.96143L9.43604 2.28906C9.04932 2.70801 8.60693 3.03027 8.10889 3.25586C7.61377 3.47852 7.08057 3.58984 6.50928 3.58984C5.93213 3.58984 5.396 3.47852 4.90088 3.25586C4.40576 3.03027 3.96777 2.70801 3.58691 2.28906L3.20898 2.96582C3.43457 3.2002 3.70703 3.42432 4.02637 3.63818C4.34863 3.84912 4.71631 4.02197 5.12939 4.15674C5.54248 4.2915 6.00244 4.35889 6.50928 4.35889ZM4.61084 6.55176C4.74268 6.41699 4.86572 6.25146 4.97998 6.05518C5.09717 5.85889 5.20264 5.64941 5.29639 5.42676C5.39014 5.2041 5.46631 4.98145 5.5249 4.75879C5.58643 4.53613 5.62451 4.32812 5.63916 4.13477L4.9668 3.92822C4.95801 4.0835 4.92285 4.26807 4.86133 4.48193C4.80273 4.69287 4.7251 4.91113 4.62842 5.13672C4.53174 5.35938 4.42334 5.56885 4.30322 5.76514C4.18311 5.9585 4.05859 6.11963 3.92969 6.24854L4.61084 6.55176ZM8.48242 6.54736L9.17236 6.24414C9.0376 6.11523 8.91016 5.9541 8.79004 5.76074C8.66992 5.56445 8.56152 5.35645 8.46484 5.13672C8.37109 4.91406 8.29492 4.69727 8.23633 4.48633C8.17773 4.27539 8.14404 4.08936 8.13525 3.92822L7.4585 4.12158C7.46729 4.31494 7.49951 4.52441 7.55518 4.75C7.61377 4.97559 7.68994 5.19971 7.78369 5.42236C7.87744 5.64502 7.98291 5.85449 8.1001 6.05078C8.22021 6.24707 8.34766 6.4126 8.48242 6.54736ZM2.38281 8.34473C2.69922 8.34473 3.01416 8.29785 3.32764 8.2041C3.64111 8.11328 3.94141 7.97852 4.22852 7.7998C4.51562 7.62109 4.78076 7.40283 5.02393 7.14502L4.31201 6.74072C4.07471 6.9458 3.84766 7.11279 3.63086 7.2417C3.41406 7.37061 3.20605 7.46582 3.00684 7.52734C2.81055 7.5918 2.61865 7.62402 2.43115 7.62402C2.26416 7.62402 2.13672 7.59912 2.04883 7.54932C1.96094 7.49951 1.91699 7.43066 1.91699 7.34277C1.91699 7.27832 1.94482 7.22266 2.00049 7.17578C2.05615 7.13184 2.15137 7.09229 2.28613 7.05713C2.3418 7.04248 2.42822 7.01758 2.54541 6.98242C2.6626 6.94434 2.7915 6.90039 2.93213 6.85059C3.07568 6.80078 3.21484 6.74658 3.34961 6.68799C3.4873 6.62939 3.60156 6.5708 3.69238 6.51221L3.04639 6.25293C2.90283 6.31738 2.74316 6.37012 2.56738 6.41113C2.39453 6.45215 2.22754 6.49902 2.06641 6.55176C1.89648 6.60449 1.73682 6.66455 1.5874 6.73193C1.43799 6.79932 1.31787 6.89014 1.22705 7.00439C1.13623 7.12158 1.09082 7.27393 1.09082 7.46143C1.09082 7.73975 1.21094 7.95654 1.45117 8.11182C1.69434 8.26709 2.00488 8.34473 2.38281 8.34473ZM10.5918 8.34912C10.9727 8.34912 11.2832 8.27148 11.5234 8.11621C11.7666 7.96094 11.8882 7.74561 11.8882 7.47021C11.8882 7.26514 11.8354 7.10254 11.73 6.98242C11.6274 6.85938 11.4927 6.76416 11.3257 6.69678C11.1587 6.62646 10.98 6.56641 10.7896 6.5166C10.6401 6.47852 10.4907 6.44043 10.3413 6.40234C10.1919 6.36426 10.0542 6.31738 9.92822 6.26172L9.28223 6.5166C9.37305 6.57812 9.48584 6.63818 9.62061 6.69678C9.7583 6.75537 9.89746 6.80957 10.0381 6.85938C10.1816 6.90918 10.312 6.95166 10.4292 6.98682C10.5464 7.02197 10.6343 7.04834 10.6929 7.06592C10.8247 7.09814 10.9185 7.13623 10.9741 7.18018C11.0298 7.22705 11.0576 7.28271 11.0576 7.34717C11.0576 7.43506 11.0137 7.50391 10.9258 7.55371C10.8379 7.60352 10.7104 7.62842 10.5435 7.62842C10.3589 7.62842 10.167 7.59766 9.96777 7.53613C9.76855 7.47461 9.56055 7.37793 9.34375 7.24609C9.12988 7.11719 8.90283 6.95166 8.6626 6.74951L7.95068 7.14941C8.19385 7.40137 8.45898 7.6167 8.74609 7.79541C9.03613 7.97412 9.33643 8.11035 9.64697 8.2041C9.96045 8.30078 10.2754 8.34912 10.5918 8.34912Z" fill="currentColor"/>
</svg>
