<svg width="20" height="20" viewBox="0 0 20 20" fill="none" xmlns="http://www.w3.org/2000/svg">
<path d="M14.375 15.3555C14.7077 15.3555 15.029 15.3008 15.3389 15.1914C15.6488 15.082 15.9245 14.9248 16.166 14.7197C16.4121 14.5146 16.6081 14.2708 16.7539 13.9883H16.7881V14.5352C16.8063 14.804 16.8952 15.0091 17.0547 15.1504C17.2188 15.2917 17.4329 15.3623 17.6973 15.3623C17.9753 15.3623 18.1986 15.2826 18.3672 15.123C18.5358 14.9681 18.6201 14.738 18.6201 14.4326V10.0098C18.6201 9.49479 18.488 9.0459 18.2236 8.66309C17.9639 8.28027 17.5947 7.98405 17.1162 7.77441C16.6423 7.56022 16.0794 7.45312 15.4277 7.45312C14.6484 7.45312 13.9808 7.58984 13.4248 7.86328C12.8688 8.13216 12.4974 8.49902 12.3105 8.96387C12.2786 9.0459 12.2536 9.12565 12.2354 9.20312C12.2171 9.27604 12.208 9.35352 12.208 9.43555C12.208 9.64518 12.2786 9.81608 12.4199 9.94824C12.5658 10.0804 12.7594 10.1465 13.001 10.1465C13.165 10.1465 13.3086 10.1169 13.4316 10.0576C13.5592 9.99837 13.6732 9.90723 13.7734 9.78418C13.9876 9.44694 14.2178 9.20768 14.4639 9.06641C14.71 8.92057 15.0062 8.84766 15.3525 8.84766C15.7809 8.84766 16.1227 8.96159 16.3779 9.18945C16.6331 9.41276 16.7607 9.72721 16.7607 10.1328V10.6592L14.751 10.7686C13.7939 10.8232 13.0602 11.0488 12.5498 11.4453C12.0439 11.8372 11.791 12.3773 11.791 13.0654C11.791 13.5212 11.9004 13.9222 12.1191 14.2686C12.3424 14.6104 12.6478 14.877 13.0352 15.0684C13.4271 15.2598 13.8737 15.3555 14.375 15.3555ZM14.9424 14.0156C14.5687 14.0156 14.2633 13.9199 14.0264 13.7285C13.7939 13.5371 13.6777 13.2842 13.6777 12.9697C13.6777 12.6644 13.7939 12.4183 14.0264 12.2314C14.2588 12.04 14.5892 11.9307 15.0176 11.9033L16.7607 11.7871V12.4297C16.7607 12.7305 16.6787 13.0016 16.5146 13.2432C16.3551 13.4801 16.1364 13.6693 15.8584 13.8105C15.585 13.9473 15.2796 14.0156 14.9424 14.0156ZM2.45996 15.3281C2.77897 15.3281 3.02962 15.2552 3.21191 15.1094C3.39421 14.9635 3.52865 14.7243 3.61523 14.3916L4.16211 12.7783H7.83984L8.38672 14.3916C8.47786 14.7243 8.6123 14.9635 8.79004 15.1094C8.97233 15.2552 9.22298 15.3281 9.54199 15.3281C9.88379 15.3281 10.1572 15.2324 10.3623 15.041C10.5674 14.8542 10.6699 14.6035 10.6699 14.2891C10.6699 14.0566 10.6289 13.8197 10.5469 13.5781L7.83984 6.05859C7.68945 5.63021 7.46615 5.31348 7.16992 5.1084C6.8737 4.90332 6.48861 4.80078 6.01465 4.80078C5.13053 4.80078 4.54264 5.21777 4.25098 6.05176L1.50293 13.667C1.4209 13.904 1.37988 14.1204 1.37988 14.3164C1.37988 14.6309 1.47559 14.877 1.66699 15.0547C1.86296 15.237 2.12728 15.3281 2.45996 15.3281ZM4.6543 11.0967L6.00098 6.93359H6.04883L7.38867 11.0967H4.6543Z" fill="black"/>
</svg>
