<svg width="20" height="20" viewBox="0 0 20 20" fill="none" xmlns="http://www.w3.org/2000/svg">
<path d="M5.87793 16.6064H14.1221C14.9014 16.6064 15.4984 16.3991 15.9131 15.9844C16.3278 15.5742 16.5352 14.9818 16.5352 14.207V5.93555C16.5352 5.16081 16.3278 4.56836 15.9131 4.1582C15.4984 3.74349 14.9014 3.53613 14.1221 3.53613H5.87793C5.09863 3.53613 4.50163 3.74349 4.08691 4.1582C3.6722 4.56836 3.46484 5.16081 3.46484 5.93555V14.207C3.46484 14.9818 3.6722 15.5742 4.08691 15.9844C4.50163 16.3991 5.09863 16.6064 5.87793 16.6064ZM6.06934 14.8428C5.7959 14.8428 5.58626 14.7744 5.44043 14.6377C5.29915 14.501 5.22852 14.2868 5.22852 13.9951V6.14746C5.22852 5.85579 5.29915 5.6416 5.44043 5.50488C5.58626 5.36816 5.7959 5.2998 6.06934 5.2998H13.9307C14.2041 5.2998 14.4115 5.36816 14.5527 5.50488C14.6986 5.6416 14.7715 5.85579 14.7715 6.14746V13.9951C14.7715 14.2868 14.6986 14.501 14.5527 14.6377C14.4115 14.7744 14.2041 14.8428 13.9307 14.8428H6.06934Z" fill="black"/>
</svg>
