<svg width="20" height="20" viewBox="0 0 20 20" fill="none" xmlns="http://www.w3.org/2000/svg">
<path d="M9.99316 17.2832C10.9867 17.2832 11.9186 17.0941 12.7891 16.7158C13.6595 16.3421 14.4251 15.8226 15.0859 15.1572C15.7513 14.4964 16.2731 13.7308 16.6514 12.8604C17.0296 11.9899 17.2188 11.0579 17.2188 10.0645C17.2188 9.07552 17.0296 8.14583 16.6514 7.27539C16.2731 6.40495 15.7513 5.63704 15.0859 4.97168C14.4251 4.30632 13.6572 3.78678 12.7822 3.41309C11.9118 3.03483 10.9821 2.8457 9.99316 2.8457C9.00423 2.8457 8.07227 3.03483 7.19727 3.41309C6.32682 3.78678 5.55892 4.30632 4.89355 4.97168C4.23275 5.63704 3.71322 6.40495 3.33496 7.27539C2.96126 8.14583 2.77441 9.07552 2.77441 10.0645C2.77441 11.0579 2.96126 11.9899 3.33496 12.8604C3.71322 13.7308 4.23503 14.4964 4.90039 15.1572C5.56576 15.8226 6.33366 16.3421 7.2041 16.7158C8.07454 17.0941 9.00423 17.2832 9.99316 17.2832ZM9.99316 15.4854C9.24577 15.4854 8.54395 15.3441 7.8877 15.0615C7.23145 14.7835 6.65495 14.3984 6.1582 13.9062C5.66146 13.4095 5.27409 12.833 4.99609 12.1768C4.7181 11.5205 4.5791 10.8164 4.5791 10.0645C4.5791 9.3125 4.7181 8.61068 4.99609 7.95898C5.27409 7.30273 5.66146 6.72624 6.1582 6.22949C6.65495 5.73275 7.22917 5.34538 7.88086 5.06738C8.53711 4.78483 9.24121 4.64355 9.99316 4.64355C10.7451 4.64355 11.4469 4.78483 12.0986 5.06738C12.7549 5.34538 13.3314 5.73275 13.8281 6.22949C14.3249 6.72624 14.7145 7.30273 14.9971 7.95898C15.2796 8.61068 15.4209 9.3125 15.4209 10.0645C15.4209 10.8164 15.2796 11.5205 14.9971 12.1768C14.7191 12.833 14.3317 13.4095 13.835 13.9062C13.3382 14.3984 12.7617 14.7835 12.1055 15.0615C11.4492 15.3441 10.7451 15.4854 9.99316 15.4854Z" fill="black"/>
</svg>
