<svg width="20" height="20" viewBox="0 0 20 20" fill="none" xmlns="http://www.w3.org/2000/svg">
<path d="M4.00781 18.0469H15.9844C16.4635 18.0469 16.8802 17.9375 17.2344 17.7188C17.5938 17.5 17.8724 17.2083 18.0703 16.8438C18.2682 16.4844 18.3672 16.0885 18.3672 15.6562C18.3672 15.4583 18.3411 15.2604 18.2891 15.0625C18.237 14.8646 18.1589 14.6719 18.0547 14.4844L12.0547 4.00781C11.8255 3.60677 11.526 3.30729 11.1562 3.10938C10.7917 2.90625 10.4062 2.80469 10 2.80469C9.59375 2.80469 9.20312 2.90625 8.82812 3.10938C8.45833 3.3125 8.16146 3.61198 7.9375 4.00781L1.9375 14.4922C1.72917 14.8568 1.625 15.2448 1.625 15.6562C1.625 16.0885 1.72396 16.4844 1.92188 16.8438C2.11979 17.2083 2.39844 17.5 2.75781 17.7188C3.11719 17.9375 3.53385 18.0469 4.00781 18.0469ZM4.36719 16.1406C4.16927 16.1406 4.01042 16.0729 3.89062 15.9375C3.77604 15.7969 3.71875 15.638 3.71875 15.4609C3.71875 15.4089 3.72396 15.3542 3.73438 15.2969C3.74479 15.2344 3.76302 15.1745 3.78906 15.1172L9.42969 5.20312C9.49219 5.09896 9.57552 5.02344 9.67969 4.97656C9.78385 4.92448 9.89062 4.89844 10 4.89844C10.1094 4.89844 10.2135 4.92448 10.3125 4.97656C10.4167 5.02344 10.4974 5.10156 10.5547 5.21094L16.2031 15.1328C16.2552 15.237 16.2812 15.3464 16.2812 15.4609C16.2812 15.638 16.2214 15.7969 16.1016 15.9375C15.9818 16.0729 15.8229 16.1406 15.625 16.1406H4.36719ZM10.0156 12.3984C10.5417 12.3984 10.8151 12.1276 10.8359 11.5859L10.9609 8.36719C10.9766 8.09115 10.8932 7.86719 10.7109 7.69531C10.5339 7.51823 10.2969 7.42969 10 7.42969C9.70833 7.42969 9.47135 7.51823 9.28906 7.69531C9.11198 7.86719 9.03125 8.08854 9.04688 8.35938L9.16406 11.5938C9.1901 12.1302 9.47396 12.3984 10.0156 12.3984ZM10.0156 15.0781C10.3073 15.0781 10.5521 14.9922 10.75 14.8203C10.9479 14.6484 11.0469 14.4219 11.0469 14.1406C11.0469 13.8594 10.9479 13.6328 10.75 13.4609C10.5521 13.2891 10.3073 13.2031 10.0156 13.2031C9.71875 13.2031 9.46875 13.2891 9.26562 13.4609C9.06771 13.6328 8.96875 13.8594 8.96875 14.1406C8.96875 14.4219 9.06771 14.6484 9.26562 14.8203C9.46875 14.9922 9.71875 15.0781 10.0156 15.0781Z" fill="#38383D"/>
</svg>
