<svg width="18" height="18" viewBox="0 0 18 18" fill="none" xmlns="http://www.w3.org/2000/svg">
<path d="M18 7.99911H12.7365L17.2949 5.36732L16.2939 3.63294L11.7355 6.26473L14.3667 1.70668L12.6323 0.705033L10.0011 5.26307V0H7.99888V5.26357L5.36667 0.705033L3.63284 1.70618L6.26455 6.26423L1.70613 3.63294L0.705014 5.36681L5.26343 7.99861H0V10.0009H5.26293L0.705014 12.6327L1.70613 14.3671L6.26405 11.7358L3.63233 16.2938L5.36667 17.2949L7.99838 12.7364V18H10.0006V12.7369L12.6318 17.2949L14.3661 16.2938L11.7344 11.7353L16.2929 14.3671L17.294 12.6327L12.7361 10.0014H17.999V7.99911H18ZM9 11.7231C7.49027 11.7231 6.26656 10.4995 6.26656 8.98968C6.26656 7.4799 7.49027 6.25617 9 6.25617C10.5097 6.25617 11.7334 7.4799 11.7334 8.98968C11.7334 10.4995 10.5097 11.7231 9 11.7231Z" fill="white"/>
</svg>
