<svg width="630" height="430" viewBox="0 0 630 430" fill="none" xmlns="http://www.w3.org/2000/svg">
<path opacity="0.11" d="M86.8084 407.606C87.791 406.677 88.4813 407.155 89.597 407.208C93.0229 407.394 96.4224 407.393 99.8483 407.393C107.524 407.42 115.066 405.641 122.742 405.322C130.151 405.003 137.508 404.684 144.944 404.711C149.672 404.711 155.514 405.322 160.056 403.941C159.843 402.56 157.958 402.507 157.293 402.188C160.348 402.188 163.322 402.268 166.323 401.551C168.847 400.94 168.528 400.728 166.748 399.718C163.322 397.779 159.392 397.381 155.355 397.195C147.6 396.85 139.845 397.567 132.09 397.116C124.733 396.69 116.978 396.558 109.648 396.983C109.516 397.886 110.073 398.629 110.923 398.842C107.205 398.922 103.567 399.771 99.9546 400.594C96.4489 401.391 92.2794 401.338 89.0921 402.852C85.7195 404.445 81.8685 405.534 77.991 405.88C77.9112 406.092 77.8582 406.225 77.752 406.437C79.7172 408.748 86.1443 407.048 86.8084 407.606Z" fill="black"/>
<path d="M118.917 291.707C118.466 291.707 118.041 291.734 117.669 291.867C117.643 305.119 119.104 317.973 121.626 330.323C124.707 345.461 130.948 395.31 129.939 402.587C130.736 402.508 131.48 402.481 132.197 402.481C132.913 402.481 133.657 402.534 134.401 402.587C133.471 398.179 133.578 391.566 132.993 387.024C132.037 379.349 130.63 371.753 129.753 364.052C128.478 352.711 124.149 314.228 122.981 306.341C122.29 301.693 120.856 296.594 121.122 291.867C120.431 291.813 119.635 291.707 118.917 291.707Z" fill="#B3CAF8"/>
<path d="M120.139 294.681H121.122L121.069 293.459L119.688 293.698L120.139 294.681Z" fill="#353535"/>
<path opacity="0.53" d="M171.688 257.766C173.309 258.164 174.769 260.262 175.858 261.377C177.93 263.529 179.337 266.53 180.267 269.292C181.621 273.355 181.675 278.879 179.895 282.704C178.726 285.227 176.814 287.776 174.344 288.865" fill="#B3CAF8"/>
<path d="M140.774 384.288C145.767 384.342 150.76 384.474 155.674 384.713C169.563 385.404 182.338 385.51 196.122 384.421C203.956 383.81 212.694 383.784 220.608 384.235C228.204 384.66 234.604 387.236 242.306 387.263C245.812 387.263 249.212 386.546 252.664 386.865" stroke="#005B9D" stroke-width="0.796746" stroke-miterlimit="10" stroke-linecap="round"/>
<path d="M30.0005 381.127C37.8088 379.427 45.537 376.639 53.6373 376.639C58.0194 376.639 62.4548 377.94 66.757 378.551C73.6622 379.534 80.6471 379.905 87.6052 380.091" stroke="#005B9D" stroke-width="0.796746" stroke-miterlimit="10" stroke-linecap="round"/>
<path d="M107.02 364.343L128.399 362.404" stroke="#FFE458" stroke-width="0.952509" stroke-miterlimit="10" stroke-linecap="round"/>
<path d="M120.218 292.291C120.139 304.64 116.952 316.087 114.508 327.773C114.322 328.622 114.163 329.445 113.977 330.295C113.765 331.278 113.579 332.234 113.393 333.217C113.207 334.2 113.021 335.209 112.835 336.218C112.517 338.024 112.224 339.83 111.959 341.662C110.233 353.242 109.383 365.087 108.267 376.666C107.577 383.97 104.124 395.204 105.054 402.48C103.46 402.321 102.106 402.321 100.592 402.454C101.574 398.045 101.521 391.459 102.132 386.891C103.168 379.216 104.629 371.646 105.558 363.945C106.461 356.588 106.939 349.205 107.603 341.822C107.762 340.069 107.922 338.343 108.108 336.59C108.214 335.527 108.347 334.439 108.453 333.376C108.586 332.208 108.745 331.039 108.878 329.897C108.958 329.339 109.037 328.782 109.117 328.251C110.179 320.894 111.667 313.643 112.835 306.314C113.579 301.666 116.235 295.425 116.022 290.697C117.111 290.591 119.262 291.972 120.218 292.291Z" fill="#8FE4FF"/>
<path d="M133.922 289.9C131.904 290.005 129.806 290.139 127.787 289.979C126.061 289.846 114.083 291.174 112.33 291.227C110.498 291.28 108.586 291.891 106.78 291.705C106.461 289.607 105.744 287.403 105.399 285.199C105.053 282.915 105.532 278.984 104.682 277.311C108.002 276.886 121.573 273.46 124.866 272.53C126.406 272.079 128.983 270.512 131.213 269.795C131.32 271.521 131.718 273.433 131.851 274.814C132.063 277.55 132.143 280.285 132.86 282.941C133.019 283.499 133.152 284.03 133.285 284.561C133.577 286.341 133.816 288.094 133.922 289.9Z" fill="#4382FF" stroke="#FFE458" stroke-width="0.796746" stroke-miterlimit="10"/>
<path d="M170.52 289.608C166.085 290.034 151.159 291.494 146.272 291.6C144.44 291.653 135.543 293.592 134.693 292.45C134.613 291.521 134.507 290.618 134.374 289.741C134.109 287.989 133.737 286.262 133.285 284.536C133.153 284.005 133.02 283.473 132.861 282.916C132.144 280.26 132.064 277.524 131.851 274.789C131.745 273.408 131.347 271.469 131.214 269.77C131.214 269.69 131.214 269.61 131.187 269.504C131.134 268.627 131.187 267.778 131.373 267.14C134.613 265.653 138.863 265.494 142.289 264.484C144.759 263.767 156.205 261.377 158.728 260.74C161.304 260.102 163.615 259.518 166.218 259.279C166.749 259.226 166.829 258.934 167.253 258.615C168.608 260.952 168.316 265.361 168.555 268.149C168.874 271.947 169.113 275.745 169.298 279.569C169.458 282.491 169.511 286.953 170.52 289.608Z" fill="#4382FF" stroke="#FFE458" stroke-width="0.796746" stroke-miterlimit="10"/>
<path d="M106.621 289.581C105.691 289.661 100.778 290.219 99.0519 290.405C97.2459 290.59 88.1629 291.095 82.6122 291.493C80.6734 291.626 79.1863 291.786 78.5489 291.892C77.0883 292.157 75.415 293.246 74.1665 292.529C73.9543 292.423 73.7683 292.104 73.609 291.706C73.5825 291.653 73.5825 291.626 73.5825 291.626C73.1574 290.511 72.9982 288.784 73.662 288.492C77.4067 286.846 94.1914 283.526 97.8298 281.747C100.247 280.551 102.903 279.967 105.213 278.533C105.851 278.639 106.727 288.041 106.621 289.581Z" fill="#8FE4FF"/>
<path d="M113.553 271.388C113.367 277.125 113.978 288.385 115.598 293.856C116.527 293.83 122.529 293.989 121.52 292.927C121.547 285.517 120.538 277.895 120.192 270.512C118.333 270.91 115.518 271.308 113.553 271.388Z" fill="#8FE4FF"/>
<path opacity="0.2" d="M95.6489 242.236C95.7019 242.343 95.7817 242.502 95.888 242.688C95.8082 242.555 95.7284 242.422 95.6489 242.236Z" fill="#353535"/>
<path opacity="0.2" d="M133.285 284.536L124.972 286.501C124.122 286.687 123.246 286.342 122.794 285.598L121.121 273.807L120.377 274.072L121.466 290.405L133.922 289.927L133.285 284.536Z" fill="black"/>
<path opacity="0.2" d="M113.897 282.861L114.907 290.988L106.753 291.678L106.302 288.385C106.302 288.385 111.534 288.093 112.357 287.031C113.18 285.968 113.897 282.861 113.897 282.861Z" fill="black"/>
<path opacity="0.2" d="M164.331 259.545L163.455 281.562C163.216 282.996 162.1 284.085 160.667 284.271L133.949 287.803L134.692 292.451C134.692 292.451 141.863 292.69 153.204 291.176C164.544 289.662 170.52 289.609 170.52 289.609L168.82 270.726L164.331 259.545Z" fill="black"/>
<path d="M179.416 273.699C179.416 276.408 179.496 279.622 178.248 282.092" stroke="white" stroke-width="1.59349" stroke-miterlimit="10" stroke-linecap="round"/>
<path d="M115.81 293.857C115.81 293.857 119.767 293.91 120.219 293.697L120.112 296.008C120.006 296.831 117.377 296.858 115.465 295.822L115.81 293.857Z" fill="#353535"/>
<path d="M51.7251 163C46.7057 163 42.4829 166.453 41.3142 171.1H36.6931C33.0017 171.1 30.0005 174.101 30.0005 177.793C30.0005 181.484 33.0017 184.485 36.6931 184.485H61.7907C65.4821 184.485 68.4833 181.484 68.4833 177.793C68.4833 174.208 65.6682 171.286 62.136 171.1C60.9673 166.453 56.7444 163 51.7251 163Z" fill="#4382FF"/>
<path d="M175.353 291.016L170.891 291.653C169.855 291.812 168.873 291.069 168.713 290.033L164.198 258.509C164.039 257.473 164.783 256.49 165.818 256.331L170.28 255.693C171.316 255.534 172.299 256.278 172.458 257.313L176.973 288.812C177.105 289.9 176.389 290.856 175.353 291.016Z" fill="#8FE4FF"/>
<path d="M96.9774 191.086L97.8007 192.759L99.6862 193.051L98.3318 194.353L98.6506 196.212L96.9774 195.335L95.3041 196.212L95.623 194.353L94.2686 193.051L96.1275 192.759L96.9774 191.086Z" fill="#4382FF"/>
<path d="M164.359 301.479L165.182 303.178L167.041 303.444L165.687 304.772L166.005 306.631L164.359 305.754L162.685 306.631L163.004 304.772L161.65 303.444L163.509 303.178L164.359 301.479Z" fill="#4382FF"/>
<path d="M155.06 188.801L155.485 189.651L156.414 189.783L155.724 190.447L155.883 191.377L155.06 190.925L154.237 191.377L154.396 190.447L153.706 189.783L154.635 189.651L155.06 188.801Z" fill="#4382FF"/>
<path d="M50.58 239.316L51.0051 240.166L51.9348 240.299L51.2441 240.963L51.4034 241.892L50.58 241.441L49.7301 241.892L49.8897 240.963L49.2256 240.299L50.1552 240.166L50.58 239.316Z" fill="#4382FF"/>
<path d="M315.842 73.5977L316.419 74.7532L317.684 74.9337L316.78 75.8362L316.997 77.1002L315.842 76.5227L314.723 77.1002L314.939 75.8362L314 74.9337L315.264 74.7532L315.842 73.5977Z" fill="#4382FF"/>
<path d="M324.544 13.584L325.121 14.7034L326.385 14.92L325.483 15.7867L325.699 17.0505L324.544 16.4728L323.424 17.0505L323.641 15.7867L322.702 14.92L323.966 14.7034L324.544 13.584Z" fill="#4382FF"/>
<path d="M421.019 31L421.597 32.1194L422.861 32.3361L421.958 33.2027L422.175 34.4665L421.019 33.8888L419.9 34.4665L420.116 33.2027L419.178 32.3361L420.441 32.1194L421.019 31Z" fill="#4382FF"/>
<path d="M517.494 48.416L518.071 49.5354L519.335 49.7521L518.433 50.6187L518.649 51.8826L517.494 51.3048L516.374 51.8826L516.591 50.6187L515.652 49.7521L516.916 49.5354L517.494 48.416Z" fill="#4382FF"/>
<path d="M568.135 57.8164C562.466 57.8164 557.7 61.7164 556.364 66.9884C552.355 67.2049 549.178 70.4909 549.178 74.5714C549.178 78.7599 552.572 82.1544 556.761 82.1544H596.373C600.562 82.1544 603.956 78.7599 603.956 74.5714C603.956 70.3829 600.562 66.9884 596.373 66.9884H579.907C578.571 61.7164 573.841 57.8164 568.135 57.8164Z" fill="#4382FF"/>
<path d="M561.238 29L562.393 31.311L564.921 31.6721L563.079 33.4415L563.513 35.9691L561.238 34.7775L558.963 35.9691L559.396 33.4415L557.555 31.6721L560.119 31.311L561.238 29Z" fill="#4382FF"/>
</svg>
