<svg width="64" height="64" viewBox="0 0 64 64" fill="none" xmlns="http://www.w3.org/2000/svg">
<path fill-rule="evenodd" clip-rule="evenodd" d="M45.6778 25C45.8888 24.0335 46 23.0297 46 22C46 14.268 39.732 8 32 8C24.268 8 18 14.268 18 22C18 23.0297 18.1112 24.0335 18.3222 25H17C11.4772 25 7 29.4772 7 35C7 40.5228 11.4772 45 17 45H47C52.5228 45 57 40.5228 57 35C57 29.4772 52.5228 25 47 25H45.6778Z" fill="white"/>
<path d="M45.6778 25L43.7238 24.5734C43.5947 25.1648 43.7404 25.7829 44.1201 26.2544C44.4997 26.7258 45.0725 27 45.6778 27V25ZM18.3222 25V27C18.9275 27 19.5003 26.7258 19.8799 26.2544C20.2596 25.7829 20.4053 25.1648 20.2762 24.5734L18.3222 25ZM44 22C44 22.8854 43.9044 23.7462 43.7238 24.5734L47.6318 25.4266C47.8732 24.3209 48 23.1741 48 22H44ZM32 10C38.6274 10 44 15.3726 44 22H48C48 13.1634 40.8366 6 32 6V10ZM20 22C20 15.3726 25.3726 10 32 10V6C23.1634 6 16 13.1634 16 22H20ZM20.2762 24.5734C20.0955 23.7462 20 22.8854 20 22H16C16 23.1741 16.1268 24.3209 16.3682 25.4266L20.2762 24.5734ZM17 27H18.3222V23H17V27ZM9 35C9 30.5817 12.5817 27 17 27V23C10.3726 23 5 28.3726 5 35H9ZM17 43C12.5817 43 9 39.4183 9 35H5C5 41.6274 10.3726 47 17 47V43ZM47 43H17V47H47V43ZM55 35C55 39.4183 51.4183 43 47 43V47C53.6274 47 59 41.6274 59 35H55ZM47 27C51.4183 27 55 30.5817 55 35H59C59 28.3726 53.6274 23 47 23V27ZM45.6778 27H47V23H45.6778V27Z" fill="#081120"/>
<circle cx="19" cy="12" r="10" fill="#02070F" fill-opacity="0.15"/>
<path fill-rule="evenodd" clip-rule="evenodd" d="M38.1661 30.9564C38.7784 30.344 39.609 30 40.475 30L42.3878 30C43.8305 30 45 31.1695 45 32.6122L45 34.525C45 35.391 44.656 36.2216 44.0436 36.8339L42.6911 38.1865C42.0787 38.7988 41.2482 39.1429 40.3822 39.1429L39.1224 39.1429C38.7618 39.1429 38.4694 39.4352 38.4694 39.7959L38.4694 40.068C38.4694 41.7211 37.1293 43.0612 35.4762 43.0612C35.1456 43.0612 34.8776 43.3292 34.8776 43.6599L34.8776 45.6883C34.8776 46.5179 34.5618 47.3164 33.9944 47.9216L33.7054 48.2299C33.5456 48.4003 33.4906 48.6427 33.5504 48.8686C33.7772 49.7246 33.898 50.6237 33.898 51.551C33.898 57.3218 29.2198 62 23.449 62C17.6782 62 13 57.3218 13 51.551C13 45.7802 17.6782 41.102 23.449 41.102C24.6543 41.102 25.812 41.3061 26.8894 41.6817C27.1352 41.7674 27.4105 41.712 27.5946 41.5279L38.1661 30.9564ZM25 53C25 54.6569 23.6569 56 22 56C20.3431 56 19 54.6569 19 53C19 51.3431 20.3431 50 22 50C23.6569 50 25 51.3431 25 53Z" fill="#F02D5E"/>
</svg>
