<svg width="14" height="14" viewBox="0 0 14 14" fill="none" xmlns="http://www.w3.org/2000/svg">
<path d="M12.6 0H1.4C0.63 0 0.00699999 0.63 0.00699999 1.4L0 14L2.8 11.2H12.6C13.37 11.2 14 10.57 14 9.8V1.4C14 0.63 13.37 0 12.6 0ZM3.5 4.9H10.5C10.885 4.9 11.2 5.215 11.2 5.6C11.2 5.985 10.885 6.3 10.5 6.3H3.5C3.115 6.3 2.8 5.985 2.8 5.6C2.8 5.215 3.115 4.9 3.5 4.9ZM7.7 8.4H3.5C3.115 8.4 2.8 8.085 2.8 7.7C2.8 7.315 3.115 7 3.5 7H7.7C8.085 7 8.4 7.315 8.4 7.7C8.4 8.085 8.085 8.4 7.7 8.4ZM10.5 4.2H3.5C3.115 4.2 2.8 3.885 2.8 3.5C2.8 3.115 3.115 2.8 3.5 2.8H10.5C10.885 2.8 11.2 3.115 11.2 3.5C11.2 3.885 10.885 4.2 10.5 4.2Z" fill="white"/>
</svg>
