<svg width="16" height="16" viewBox="0 0 16 16" fill="none" xmlns="http://www.w3.org/2000/svg">
<path fill-rule="evenodd" clip-rule="evenodd" d="M9.24496 3.24857L9.24643 3.26016L9.23976 3.24683C9.24149 3.24741 9.24323 3.24799 9.24496 3.24857ZM9.03976 1.62683L9.24496 3.24857C9.56308 3.35501 9.86805 3.49444 10.1664 3.66683C10.4664 3.84016 10.7464 4.04016 10.9931 4.26016L10.9864 4.26683L12.4998 3.62683C12.6531 3.56016 12.8331 3.62016 12.9198 3.76683L13.9598 5.56683C14.0464 5.7135 14.0064 5.90016 13.8731 6.00016L12.5731 6.9935H12.5798C12.7131 7.64683 12.7131 8.3335 12.5731 9.00683L13.8864 10.0002C14.0198 10.1002 14.0598 10.2868 13.9731 10.4335L12.9331 12.2335C12.8464 12.3802 12.6664 12.4402 12.5131 12.3735L10.9931 11.7335C10.5331 12.1468 9.99976 12.4668 9.43976 12.6735C9.32643 12.7135 9.23976 12.8202 9.22643 12.9402L9.04642 14.3735C9.01976 14.5402 8.87976 14.6668 8.71309 14.6668H6.63308C6.46641 14.6668 6.31975 14.5402 6.31308 14.3735L6.10641 12.7402V12.7535C5.78641 12.6468 5.47975 12.5068 5.17975 12.3335C4.87975 12.1602 4.59975 11.9602 4.35308 11.7402L4.35975 11.7335L2.83975 12.3735C2.68641 12.4402 2.50641 12.3802 2.41974 12.2335L1.37974 10.4335C1.29308 10.2868 1.33308 10.1002 1.46641 10.0002L2.77974 9.00683H2.77308C2.63974 8.3535 2.63974 7.66683 2.77974 6.9935L1.46641 6.00016C1.33308 5.90016 1.29308 5.7135 1.37308 5.56683L2.41308 3.76683C2.49975 3.62016 2.67974 3.56016 2.83308 3.62683L4.35308 4.26683C4.81308 3.8535 5.34641 3.5335 5.90641 3.32683C6.01974 3.28683 6.10641 3.18016 6.11975 3.06016L6.29975 1.62683C6.31975 1.46016 6.46641 1.3335 6.63308 1.3335H8.70643C8.87976 1.3335 9.01976 1.46016 9.03976 1.62683ZM7.67447 4.8335C5.92558 4.8335 4.50781 6.25126 4.50781 8.00016C4.50781 9.74903 5.92557 11.1668 7.67447 11.1668C9.42335 11.1668 10.8411 9.74904 10.8411 8.00016C10.8411 6.25126 9.42335 4.8335 7.67447 4.8335ZM5.50781 8.00016C5.50781 6.80354 6.47786 5.8335 7.67447 5.8335C8.87107 5.8335 9.84114 6.80355 9.84114 8.00016C9.84114 9.19675 8.87106 10.1668 7.67447 10.1668C6.47787 10.1668 5.50781 9.19676 5.50781 8.00016Z" fill="#221B38"/>
</svg>
