<svg width="24" height="24" viewBox="0 0 24 24" fill="none" xmlns="http://www.w3.org/2000/svg">
<path d="M14 9.06756V1.93248C14 1.58764 13.5671 1.38196 13.2439 1.57324L7.2165 5.14079C6.92783 5.31168 6.92783 5.68834 7.2165 5.85923L13.2439 9.42677C13.5671 9.61804 14 9.41235 14 9.06756Z" fill="#4B5563" stroke="#4B5563"/>
<path fill-rule="evenodd" clip-rule="evenodd" d="M4.00098 12C4.00098 16.4184 7.58271 20 12.001 20C16.4193 20 20.001 16.4184 20.001 12C20.001 7.58173 16.4193 4 12.001 4C12.0007 4 12.0003 4 12 4V6C12.0003 6 12.0007 6 12.001 6C15.3148 6 18.001 8.68628 18.001 12C18.001 15.3138 15.3148 18 12.001 18C8.68726 18 6.00098 15.3138 6.00098 12H4.00098Z" fill="#4B5563"/>
</svg>
