<svg width="16" height="16" viewBox="0 0 24 24" fill="none" xmlns="http://www.w3.org/2000/svg" data-reactroot="">
<path stroke-linejoin="round" stroke-linecap="round" stroke-miterlimit="10" stroke-width="1" stroke="#221b38" fill="none" d="M7 15C4.24 15 2 17.24 2 20C2.01 20 12 20 12 20C12 17.24 9.76 15 7 15Z"></path>
<path stroke-linejoin="round" stroke-linecap="round" stroke-miterlimit="10" stroke-width="1" stroke="#221b38" fill="none" d="M7 15C8.38071 15 9.5 13.8807 9.5 12.5C9.5 11.1193 8.38071 10 7 10C5.61929 10 4.5 11.1193 4.5 12.5C4.5 13.8807 5.61929 15 7 15Z"></path>
<path stroke-linejoin="round" stroke-linecap="round" stroke-miterlimit="10" stroke-width="1" stroke="#221b38" fill="none" d="M17 9C14.24 9 12 11.24 12 14C12.01 14 22 14 22 14C22 11.24 19.76 9 17 9Z"></path>
<path stroke-linejoin="round" stroke-linecap="round" stroke-miterlimit="10" stroke-width="1" stroke="#221b38" fill="none" d="M17 9C18.3807 9 19.5 7.88071 19.5 6.5C19.5 5.11929 18.3807 4 17 4C15.6193 4 14.5 5.11929 14.5 6.5C14.5 7.88071 15.6193 9 17 9Z"></path>
</svg>
