<?xml version="1.0" encoding="UTF-8" standalone="no"?><!DOCTYPE svg PUBLIC "-//W3C//DTD SVG 1.1//EN" "http://www.w3.org/Graphics/SVG/1.1/DTD/svg11.dtd"><svg width="100%" height="100%" viewBox="0 0 546 546" version="1.1" xmlns="http://www.w3.org/2000/svg" xmlns:xlink="http://www.w3.org/1999/xlink" xml:space="preserve" xmlns:serif="http://www.serif.com/" style="fill-rule:evenodd;clip-rule:evenodd;stroke-linejoin:round;stroke-miterlimit:2;"><rect id="command_palette-default" x="2.414" y="0.209" width="541.825" height="541.612" style="fill:#e2eaef;"/><circle cx="273.327" cy="271.015" r="159.078" style="fill:#1fa942;"/><path d="M273.243,30.147c-132.816,0.045 -240.833,108.137 -240.787,240.954c0.046,132.816 108.137,240.829 240.954,240.783c132.817,-0.046 240.833,-108.133 240.788,-240.95c-0.046,-132.817 -108.138,-240.833 -240.955,-240.787m0.171,494.237c-139.708,0.048 -253.41,-113.571 -253.458,-253.279c-0.048,-139.713 113.575,-253.41 253.283,-253.458c139.708,-0.049 253.41,113.57 253.459,253.283c0.048,139.708 -113.575,253.406 -253.284,253.454" style="fill:#aeaeae;fill-rule:nonzero;"/><g transform="matrix(4.45723,-0.487141,0.487141,4.45723,-5683.6,1028.62)"><g transform="matrix(0.64687,-0.762601,0.762601,0.64687,497.795,976.987)"><text x="1303.82px" y="-49.011px" style="font-family:'Futura-Bold', 'Futura', sans-serif;font-weight:700;font-size:9.293px;fill:#aeaeae;">P</text></g><g transform="matrix(0.753609,-0.657323,0.657323,0.753609,357.651,846.418)"><text x="1307.86px" y="-53.862px" style="font-family:'Futura-Bold', 'Futura', sans-serif;font-weight:700;font-size:9.293px;fill:#aeaeae;">R</text></g><g transform="matrix(0.832711,-0.553708,0.553708,0.832711,251.847,717.201)"><text x="1312.85px" y="-58.191px" style="font-family:'Futura-Bold', 'Futura', sans-serif;font-weight:700;font-size:9.293px;fill:#aeaeae;">E</text></g><g transform="matrix(0.914524,-0.404532,0.404532,0.914524,137.382,527.598)"><text x="1317.17px" y="-61.294px" style="font-family:'Futura-Bold', 'Futura', sans-serif;font-weight:700;font-size:9.293px;fill:#aeaeae;">M</text></g><g transform="matrix(0.964808,-0.262955,0.262955,0.964808,63.7503,346.409)"><text x="1326.07px" y="-64.967px" style="font-family:'Futura-Bold', 'Futura', sans-serif;font-weight:700;font-size:9.293px;fill:#aeaeae;">I</text></g><g transform="matrix(0.990217,-0.139535,0.139535,0.990217,22.2078,184.826)"><text x="1329.21px" y="-65.965px" style="font-family:'Futura-Bold', 'Futura', sans-serif;font-weight:700;font-size:9.293px;fill:#aeaeae;">U</text></g><g transform="matrix(0.998396,0.0566253,-0.0566253,0.998396,-1.65591,-75.8005)"><text x="1336.73px" y="-67.12px" style="font-family:'Futura-Bold', 'Futura', sans-serif;font-weight:700;font-size:9.293px;fill:#aeaeae;">M</text></g><g transform="matrix(0.943883,0.33028,-0.33028,0.943883,53.9791,-449.401)"><text x="1349.48px" y="-65.852px" style="font-family:'Futura-Bold', 'Futura', sans-serif;font-weight:700;font-size:9.293px;fill:#aeaeae;">G</text></g><g transform="matrix(0.869794,0.493415,-0.493415,0.869794,145.576,-677.876)"><text x="1357.19px" y="-63.108px" style="font-family:'Futura-Bold', 'Futura', sans-serif;font-weight:700;font-size:9.293px;fill:#aeaeae;">R</text></g><g transform="matrix(0.784115,0.620615,-0.620615,0.784115,257.067,-858.807)"><text x="1362.96px" y="-59.901px" style="font-family:'Futura-Bold', 'Futura', sans-serif;font-weight:700;font-size:9.293px;fill:#aeaeae;">A</text></g><g transform="matrix(0.665704,0.746216,-0.746216,0.665704,416.353,-1039.92)"><text x="1368.83px" y="-55.266px" style="font-family:'Futura-Bold', 'Futura', sans-serif;font-weight:700;font-size:9.293px;fill:#aeaeae;">D</text></g><g transform="matrix(0.552457,0.833541,-0.833541,0.552457,573.282,-1167.27)"><text x="1373.65px" y="-49.772px" style="font-family:'Futura-Bold', 'Futura', sans-serif;font-weight:700;font-size:9.293px;fill:#aeaeae;">E</text></g><g transform="matrix(0.359917,0.932984,-0.932984,0.359917,842.393,-1313.05)"><text x="1378.14px" y="-42.588px" style="font-family:'Futura-Bold', 'Futura', sans-serif;font-weight:700;font-size:9.293px;fill:#aeaeae;">R</text></g><g transform="matrix(0.233891,0.972263,-0.972263,0.233891,1022.2,-1370.12)"><text x="1380.51px" y="-36.424px" style="font-family:'Futura-Bold', 'Futura', sans-serif;font-weight:700;font-size:9.293px;fill:#aeaeae;">E</text></g><g transform="matrix(0.0976278,0.995223,-0.995223,0.0976278,1215.77,-1403.43)"><text x="1381.8px" y="-31.28px" style="font-family:'Futura-Bold', 'Futura', sans-serif;font-weight:700;font-size:9.293px;fill:#aeaeae;">P</text></g><g transform="matrix(-0.0309085,0.999522,-0.999522,-0.0309085,1400.15,-1407.52)"><text x="1382.4px" y="-25px" style="font-family:'Futura-Bold', 'Futura', sans-serif;font-weight:700;font-size:9.293px;fill:#aeaeae;">L</text></g><g transform="matrix(-0.17333,0.984864,-0.984864,-0.17333,1602.48,-1384.58)"><text x="1382.33px" y="-19.752px" style="font-family:'Futura-Bold', 'Futura', sans-serif;font-weight:700;font-size:9.293px;fill:#aeaeae;">A</text></g><g transform="matrix(-0.31786,0.948138,-0.948138,-0.31786,1807.83,-1326.72)"><text x="1381.17px" y="-13.039px" style="font-family:'Futura-Bold', 'Futura', sans-serif;font-weight:700;font-size:9.293px;fill:#aeaeae;">Y</text></g><g transform="matrix(-0.41081,0.911721,-0.911721,-0.41081,1939.11,-1267.76)"><text x="1379.19px" y="-7.315px" style="font-family:'Futura-Bold', 'Futura', sans-serif;font-weight:700;font-size:9.293px;fill:#aeaeae;">.</text></g><g transform="matrix(-0.477543,0.878608,-0.878608,-0.477543,2032,-1217.19)"><text x="1377.9px" y="-4.441px" style="font-family:'Futura-Bold', 'Futura', sans-serif;font-weight:700;font-size:9.293px;fill:#aeaeae;">I</text></g><g transform="matrix(-0.593297,0.804984,-0.804984,-0.593297,2191.97,-1110.32)"><text x="1376.47px" y="-1.436px" style="font-family:'Futura-Bold', 'Futura', sans-serif;font-weight:700;font-size:9.293px;fill:#aeaeae;">O</text></g><g transform="matrix(-0.7597,0.650274,-0.650274,-0.7597,2414.12,-876.782)"><text x="1369.06px" y="7.662px" style="font-family:'Futura-Bold', 'Futura', sans-serif;font-weight:700;font-size:9.293px;fill:#aeaeae;">T</text></g><g transform="matrix(-0.81789,0.575374,-0.575374,-0.81789,2488.15,-765.791)"><text x="1365.26px" y="10.862px" style="font-family:'Futura-Bold', 'Futura', sans-serif;font-weight:700;font-size:9.293px;fill:#aeaeae;">I</text></g><g transform="matrix(-0.894395,0.447277,-0.447277,-0.894395,2587.24,-584.919)"><text x="1362.67px" y="12.971px" style="font-family:'Futura-Bold', 'Futura', sans-serif;font-weight:700;font-size:9.293px;fill:#aeaeae;">M</text></g><g transform="matrix(-0.958638,0.284629,-0.284629,-0.958638,2656.84,-351.874)"><text x="1353.99px" y="17.11px" style="font-family:'Futura-Bold', 'Futura', sans-serif;font-weight:700;font-size:9.293px;fill:#aeaeae;">E</text></g><g transform="matrix(-0.995184,0.0980209,-0.0980209,-0.995184,2687.01,-93.5781)"><text x="1345.81px" y="19.216px" style="font-family:'Futura-Bold', 'Futura', sans-serif;font-weight:700;font-size:9.293px;fill:#aeaeae;">T</text></g><g transform="matrix(-0.999118,-0.0419928,0.0419928,-0.999118,2679.68,95.8552)"><text x="1340.85px" y="19.783px" style="font-family:'Futura-Bold', 'Futura', sans-serif;font-weight:700;font-size:9.293px;fill:#aeaeae;">R</text></g><g transform="matrix(-0.980895,-0.19454,0.19454,-0.980895,2639.2,298.325)"><text x="1334.25px" y="19.567px" style="font-family:'Futura-Bold', 'Futura', sans-serif;font-weight:700;font-size:9.293px;fill:#aeaeae;">A</text></g><g transform="matrix(-0.937478,-0.348045,0.348045,-0.937478,2565.54,497.381)"><text x="1327.44px" y="18.256px" style="font-family:'Futura-Bold', 'Futura', sans-serif;font-weight:700;font-size:9.293px;fill:#aeaeae;">V</text></g><g transform="matrix(-0.8757,-0.482855,0.482855,-0.8757,2469.46,666.968)"><text x="1320.58px" y="15.632px" style="font-family:'Futura-Bold', 'Futura', sans-serif;font-weight:700;font-size:9.293px;fill:#aeaeae;">E</text></g><g transform="matrix(-0.81006,-0.586347,0.586347,-0.81006,2374.23,795.248)"><text x="1315.92px" y="13.073px" style="font-family:'Futura-Bold', 'Futura', sans-serif;font-weight:700;font-size:9.293px;fill:#aeaeae;">L</text></g><g transform="matrix(-0.671244,-0.741236,0.741236,-0.671244,2182.35,984.286)"><text x="1309.45px" y="8.181px" style="font-family:'Futura-Bold', 'Futura', sans-serif;font-weight:700;font-size:9.293px;fill:#aeaeae;">A</text></g><g transform="matrix(-0.541134,-0.840936,0.840936,-0.541134,2008.14,1101)"><text x="1304.45px" y="2.618px" style="font-family:'Futura-Bold', 'Futura', sans-serif;font-weight:700;font-size:9.293px;fill:#aeaeae;">P</text></g><g transform="matrix(-0.413245,-0.91062,0.91062,-0.413245,1841.08,1180.95)"><text x="1301.01px" y="-2.672px" style="font-family:'Futura-Bold', 'Futura', sans-serif;font-weight:700;font-size:9.293px;fill:#aeaeae;">P</text></g><g transform="matrix(-0.270451,-0.962734,0.962734,-0.270451,1657.57,1239.3)"><text x="1298.35px" y="-8.395px" style="font-family:'Futura-Bold', 'Futura', sans-serif;font-weight:700;font-size:9.293px;fill:#aeaeae;">R</text></g><g transform="matrix(-0.108626,-0.994083,0.994083,-0.108626,1451.83,1272.62)"><text x="1296.48px" y="-14.605px" style="font-family:'Futura-Bold', 'Futura', sans-serif;font-weight:700;font-size:9.293px;fill:#aeaeae;">O</text></g><g transform="matrix(0.0661058,-0.997813,0.997813,0.0661058,1232.77,1271.43)"><text x="1295.61px" y="-22.856px" style="font-family:'Futura-Bold', 'Futura', sans-serif;font-weight:700;font-size:9.293px;fill:#aeaeae;">V</text></g><g transform="matrix(0.212559,-0.977148,0.977148,0.212559,1050.15,1242.77)"><text x="1296.16px" y="-30.191px" style="font-family:'Futura-Bold', 'Futura', sans-serif;font-weight:700;font-size:9.293px;fill:#aeaeae;">E</text></g><g transform="matrix(0.35453,-0.935045,0.935045,0.35453,870.401,1190.1)"><text x="1297.2px" y="-35.395px" style="font-family:'Futura-Bold', 'Futura', sans-serif;font-weight:700;font-size:9.293px;fill:#aeaeae;">D</text></g></g><circle cx="273.327" cy="271.015" r="177.582" style="fill:#aeaeae;"/><g transform="matrix(1,-0.000345661,0.000345661,1,0.464505,-0.292558)"><text x="139.668px" y="294.109px" style="font-family:'Futura-Bold', 'Futura', sans-serif;font-weight:700;font-size:54.167px;fill:#e2eaef;">P<tspan x="181.392px 232.107px 268.198px 306.347px 342.545px 378.744px " y="294.109px 294.109px 294.109px 294.109px 294.109px 294.109px ">ALETTE</tspan></text></g></svg>