<?xml version="1.0" encoding="UTF-8" standalone="no"?><!DOCTYPE svg PUBLIC "-//W3C//DTD SVG 1.1//EN" "http://www.w3.org/Graphics/SVG/1.1/DTD/svg11.dtd"><svg width="100%" height="100%" viewBox="0 0 546 546" version="1.1" xmlns="http://www.w3.org/2000/svg" xmlns:xlink="http://www.w3.org/1999/xlink" xml:space="preserve" xmlns:serif="http://www.serif.com/" style="fill-rule:evenodd;clip-rule:evenodd;stroke-linejoin:round;stroke-miterlimit:2;"><rect id="jump_to_event-default" x="0.853" y="0.209" width="541.825" height="541.612" style="fill:none;"/><g transform="matrix(4.16666,-0.00674452,0.00674452,4.16666,-3789.82,-905.806)"><text x="951.784px" y="274.195px" style="font-family:'Phosphate-Solid', 'Phosphate';font-size:18px;fill:#aeaeae;">J</text><text x="959.815px" y="274.195px" style="font-family:'Phosphate-Solid', 'Phosphate';font-size:18px;fill:#aeaeae;">U</text><text x="972.85px" y="274.195px" style="font-family:'Phosphate-Solid', 'Phosphate';font-size:18px;fill:#aeaeae;">M<tspan x="987.901px " y="274.195px ">P</tspan></text><text x="963.505px" y="288.195px" style="font-family:'Phosphate-Solid', 'Phosphate';font-size:18px;fill:#aeaeae;">t<tspan x="973.102px " y="288.195px ">o</tspan></text><text x="948.452px" y="302.195px" style="font-family:'Phosphate-Solid', 'Phosphate';font-size:18px;fill:#aeaeae;">E<tspan x="957.941px 970.904px 980.393px 993.086px " y="302.195px 302.195px 302.195px 302.195px ">VENT</tspan></text></g><g><path d="M439.724,302.289l3.226,-41.942c0.367,-4.768 -1.964,-7.446 -6.826,-7.82l-21.969,-1.69c-4.862,-0.374 -7.575,1.916 -7.942,6.685l-3.226,41.941c-0.369,4.791 1.962,7.469 6.824,7.843l21.97,1.69c4.862,0.374 7.575,-1.916 7.943,-6.707Zm-4.432,-0.609c-0.159,2.063 -1.337,3.11 -3.563,2.939l-21.22,-1.632c-2.204,-0.17 -3.207,-1.385 -3.049,-3.447l3.186,-41.41c0.157,-2.04 1.336,-3.11 3.54,-2.94l21.219,1.632c2.227,0.171 3.229,1.409 3.072,3.449l-3.185,41.409Zm-18.9,-3.573l0.157,-2.04c0.05,-0.644 -0.306,-1.073 -0.965,-1.123l-2.09,-0.161c-0.659,-0.051 -1.099,0.317 -1.148,0.96l-0.157,2.041c-0.049,0.643 0.329,1.074 0.988,1.124l2.09,0.161c0.659,0.051 1.076,-0.319 1.125,-0.962Zm0.539,-7.009l0.157,-2.04c0.05,-0.643 -0.306,-1.072 -0.965,-1.123l-2.09,-0.161c-0.659,-0.05 -1.098,0.317 -1.148,0.961l-0.157,2.04c-0.049,0.643 0.331,1.052 0.989,1.102l2.091,0.161c0.658,0.051 1.074,-0.296 1.123,-0.94Zm0.541,-7.031l0.155,-2.018c0.05,-0.643 -0.306,-1.072 -0.965,-1.123l-2.09,-0.161c-0.659,-0.05 -1.098,0.318 -1.148,0.961l-0.155,2.018c-0.051,0.666 0.329,1.074 0.988,1.125l2.09,0.16c0.659,0.051 1.074,-0.296 1.125,-0.962Zm0.539,-7.008l0.157,-2.041c0.05,-0.643 -0.308,-1.05 -0.967,-1.101l-2.09,-0.16c-0.659,-0.051 -1.097,0.295 -1.146,0.938l-0.157,2.04c-0.049,0.644 0.329,1.074 0.988,1.125l2.09,0.161c0.659,0.05 1.076,-0.319 1.125,-0.962Zm0.543,-7.053l0.153,-1.997c0.05,-0.643 -0.308,-1.05 -0.966,-1.1l-2.091,-0.161c-0.658,-0.051 -1.096,0.295 -1.146,0.938l-0.153,1.996c-0.052,0.666 0.325,1.119 0.984,1.169l2.09,0.161c0.659,0.051 1.077,-0.341 1.129,-1.006Zm0.535,-6.965l0.157,-2.04c0.05,-0.644 -0.306,-1.073 -0.965,-1.123l-2.09,-0.161c-0.659,-0.051 -1.098,0.317 -1.148,0.96l-0.157,2.041c-0.049,0.643 0.329,1.074 0.988,1.124l2.09,0.161c0.659,0.051 1.076,-0.319 1.125,-0.962Zm4.551,35.624l0.157,-2.041c0.049,-0.643 -0.329,-1.074 -0.988,-1.124l-2.09,-0.161c-0.659,-0.051 -1.099,0.317 -1.148,0.96l-0.157,2.041c-0.05,0.643 0.329,1.073 0.987,1.124l2.091,0.161c0.658,0.051 1.098,-0.317 1.148,-0.96Zm0.539,-7.009l0.157,-2.041c0.049,-0.643 -0.329,-1.074 -0.988,-1.124l-2.09,-0.161c-0.659,-0.051 -1.099,0.317 -1.148,0.96l-0.157,2.041c-0.05,0.643 0.33,1.052 0.989,1.102l2.09,0.161c0.659,0.051 1.097,-0.295 1.147,-0.938Zm0.54,-7.031l0.156,-2.018c0.049,-0.644 -0.329,-1.074 -0.988,-1.125l-2.09,-0.161c-0.659,-0.05 -1.099,0.317 -1.148,0.961l-0.155,2.018c-0.051,0.665 0.328,1.074 0.987,1.124l2.09,0.161c0.659,0.051 1.097,-0.295 1.148,-0.96Zm0.54,-7.009l0.157,-2.04c0.049,-0.644 -0.331,-1.052 -0.99,-1.103l-2.09,-0.161c-0.659,-0.05 -1.097,0.295 -1.146,0.939l-0.157,2.04c-0.05,0.643 0.329,1.074 0.987,1.125l2.091,0.16c0.658,0.051 1.098,-0.317 1.148,-0.96Zm0.542,-7.053l0.154,-1.996c0.049,-0.643 -0.331,-1.052 -0.99,-1.103l-2.09,-0.16c-0.659,-0.051 -1.097,0.295 -1.146,0.938l-0.154,1.996c-0.051,0.665 0.326,1.118 0.985,1.169l2.09,0.161c0.659,0.05 1.1,-0.34 1.151,-1.005Zm0.536,-6.964l0.157,-2.041c0.049,-0.643 -0.329,-1.074 -0.988,-1.124l-2.09,-0.161c-0.659,-0.051 -1.099,0.317 -1.148,0.96l-0.157,2.041c-0.049,0.643 0.329,1.073 0.988,1.124l2.09,0.161c0.659,0.051 1.098,-0.317 1.148,-0.96Zm4.527,35.621l0.157,-2.04c0.05,-0.643 -0.329,-1.074 -0.987,-1.125l-2.091,-0.161c-0.658,-0.05 -1.098,0.318 -1.148,0.961l-0.157,2.04c-0.049,0.644 0.329,1.074 0.988,1.125l2.09,0.161c0.659,0.05 1.099,-0.317 1.148,-0.961Zm0.555,-7.208l1.745,-22.69c0.06,-0.776 -0.36,-1.255 -1.156,-1.316l-1.704,-0.131c-0.795,-0.061 -1.306,0.346 -1.366,1.122l-1.745,22.69c-0.06,0.776 0.383,1.257 1.178,1.318l1.704,0.131c0.796,0.061 1.284,-0.348 1.344,-1.124Zm2.143,-27.858l0.157,-2.04c0.049,-0.643 -0.329,-1.074 -0.988,-1.125l-2.09,-0.161c-0.659,-0.05 -1.099,0.318 -1.148,0.961l-0.157,2.04c-0.05,0.644 0.329,1.074 0.987,1.125l2.091,0.161c0.658,0.05 1.098,-0.317 1.148,-0.961Z" style="fill:#aeaeae;fill-rule:nonzero;"/><path d="M445.288,238.005c-0.313,-1.206 -1.06,-1.908 -2.697,-2.862l-14.232,-8.21c-0.16,-0.073 -0.255,-0.164 -0.277,-0.25c-0.028,-0.107 0.01,-0.232 0.115,-0.374l8.44,-14.097c0.966,-1.63 1.278,-2.607 0.964,-3.812c-0.419,-1.615 -1.961,-2.387 -3.725,-1.929c-0.927,0.241 -1.918,0.866 -2.92,1.54l-33.917,23.147c-1.944,1.309 -2.756,2.715 -2.37,4.201c0.38,1.464 1.773,2.297 4.108,2.495l40.894,3.724c1.203,0.101 2.374,0.165 3.3,-0.076c1.764,-0.458 2.742,-1.861 2.317,-3.497Z" style="fill:#aeaeae;fill-rule:nonzero;"/><path d="M413.481,207.641c7.536,-4.624 11.595,-12.909 11.302,-20.532c-0.087,-3.235 -4.564,-3.124 -4.516,0.265c0.174,6.209 -3.1,12.681 -9.159,16.4c-8.934,5.482 -20.382,2.902 -25.734,-5.82c-5.352,-8.721 -2.502,-20.153 6.432,-25.635c1.302,-0.799 1.466,-2.231 0.837,-3.254c-0.593,-0.967 -1.917,-1.382 -3.198,-0.595c-10.974,6.733 -14.618,21.184 -8.033,31.915c6.574,10.713 21.096,13.99 32.069,7.256Zm-4.898,-7.982c4.292,-2.634 6.509,-7.126 6.636,-10.883c0.122,-3.025 -3.997,-3.159 -4.236,-0.455c-0.173,3.029 -1.767,5.965 -4.622,7.717c-4.545,2.788 -10.352,1.472 -13.075,-2.965c-2.71,-4.418 -1.181,-10.028 3.182,-12.94c1.052,-0.724 1.321,-1.985 0.728,-2.952c-0.605,-0.986 -1.882,-1.325 -2.95,-0.669c-6.41,3.932 -8.567,12.485 -4.669,18.837c3.898,6.352 12.5,8.303 19.006,4.31Zm7.989,-19.961c0.886,-0.518 0.584,-1.663 -0.328,-1.887l-4.612,-0.98l6.097,-8.1c0.331,-0.464 0.315,-1.055 -0.139,-1.403l-1.994,-1.464c-0.474,-0.336 -1.056,-0.109 -1.348,0.331l-5.876,8.199l-2.56,-3.91c-0.519,-0.803 -1.611,-0.708 -1.891,0.273l-4.562,17.311c-0.246,0.907 0.596,1.539 1.424,1.057l15.789,-9.427Z" style="fill:#aeaeae;fill-rule:nonzero;"/><path d="M386.093,139.053l-34.712,-23.761c-3.947,-2.701 -7.432,-2.021 -10.186,2.002l-12.446,18.183c-2.755,4.024 -2.127,7.518 1.819,10.22l34.713,23.761c3.965,2.714 7.449,2.034 10.204,-1.99l12.446,-18.183c2.754,-4.024 2.127,-7.518 -1.838,-10.232Zm-2.743,3.535c1.707,1.168 2.025,2.712 0.764,4.554l-12.021,17.562c-1.249,1.824 -2.803,2.086 -4.51,0.918l-34.272,-23.46c-1.688,-1.156 -2.025,-2.712 -0.777,-4.535l12.022,-17.563c1.261,-1.842 2.833,-2.092 4.522,-0.936l34.272,23.46Zm-12.543,14.582l-1.688,-1.156c-0.533,-0.365 -1.082,-0.271 -1.455,0.274l-1.184,1.73c-0.374,0.545 -0.275,1.11 0.257,1.474l1.689,1.156c0.533,0.365 1.095,0.253 1.468,-0.293l1.184,-1.73c0.373,-0.545 0.262,-1.091 -0.271,-1.455Zm-5.8,-3.971l-1.689,-1.156c-0.532,-0.364 -1.082,-0.271 -1.455,0.275l-1.184,1.729c-0.373,0.546 -0.275,1.11 0.258,1.475l1.689,1.156c0.532,0.364 1.076,0.239 1.449,-0.306l1.184,-1.73c0.373,-0.545 0.28,-1.078 -0.252,-1.443Zm-5.819,-3.983l-1.671,-1.143c-0.532,-0.365 -1.081,-0.271 -1.455,0.274l-1.184,1.73c-0.373,0.545 -0.274,1.11 0.258,1.474l1.671,1.144c0.55,0.377 1.094,0.252 1.467,-0.294l1.184,-1.729c0.374,-0.546 0.28,-1.079 -0.27,-1.456Zm-5.801,-3.971l-1.689,-1.156c-0.532,-0.364 -1.063,-0.258 -1.436,0.287l-1.184,1.73c-0.374,0.546 -0.293,1.098 0.239,1.462l1.689,1.156c0.532,0.364 1.094,0.252 1.468,-0.293l1.184,-1.73c0.373,-0.545 0.261,-1.091 -0.271,-1.456Zm-5.837,-3.995l-1.653,-1.131c-0.532,-0.365 -1.063,-0.258 -1.436,0.287l-1.184,1.73c-0.373,0.545 -0.293,1.097 0.239,1.461l1.652,1.131c0.551,0.377 1.132,0.278 1.505,-0.268l1.184,-1.73c0.373,-0.545 0.243,-1.103 -0.307,-1.48Zm-5.764,-3.946l-1.689,-1.156c-0.533,-0.364 -1.082,-0.271 -1.455,0.275l-1.184,1.73c-0.373,0.545 -0.275,1.109 0.258,1.474l1.688,1.156c0.533,0.364 1.095,0.252 1.468,-0.293l1.184,-1.73c0.374,-0.546 0.262,-1.091 -0.27,-1.456Zm33.127,13.868l-1.689,-1.156c-0.532,-0.365 -1.094,-0.253 -1.467,0.293l-1.184,1.73c-0.374,0.545 -0.275,1.11 0.257,1.474l1.689,1.156c0.533,0.364 1.095,0.252 1.468,-0.293l1.184,-1.73c0.373,-0.545 0.275,-1.11 -0.258,-1.474Zm-5.801,-3.971l-1.688,-1.156c-0.533,-0.364 -1.095,-0.252 -1.468,0.293l-1.184,1.73c-0.373,0.545 -0.275,1.11 0.258,1.474l1.689,1.156c0.532,0.365 1.076,0.24 1.449,-0.305l1.184,-1.73c0.373,-0.546 0.293,-1.098 -0.24,-1.462Zm-5.819,-3.983l-1.67,-1.144c-0.532,-0.364 -1.094,-0.252 -1.468,0.294l-1.184,1.729c-0.373,0.546 -0.274,1.11 0.258,1.475l1.67,1.143c0.551,0.377 1.095,0.252 1.468,-0.293l1.184,-1.73c0.374,-0.545 0.293,-1.097 -0.258,-1.474Zm-5.8,-3.971l-1.689,-1.156c-0.532,-0.364 -1.076,-0.239 -1.449,0.306l-1.184,1.73c-0.374,0.545 -0.293,1.097 0.239,1.462l1.689,1.156c0.532,0.364 1.094,0.252 1.467,-0.294l1.185,-1.729c0.373,-0.546 0.274,-1.11 -0.258,-1.475Zm-5.838,-3.996l-1.652,-1.13c-0.532,-0.365 -1.076,-0.24 -1.449,0.305l-1.184,1.73c-0.373,0.546 -0.293,1.098 0.239,1.462l1.652,1.131c0.551,0.377 1.132,0.277 1.505,-0.268l1.184,-1.73c0.373,-0.545 0.256,-1.123 -0.295,-1.5Zm-5.764,-3.945l-1.688,-1.156c-0.533,-0.364 -1.095,-0.252 -1.468,0.293l-1.184,1.73c-0.373,0.545 -0.275,1.11 0.258,1.474l1.688,1.156c0.533,0.365 1.095,0.253 1.468,-0.293l1.184,-1.73c0.374,-0.545 0.275,-1.11 -0.258,-1.474Zm33.115,13.886l-1.689,-1.156c-0.532,-0.364 -1.094,-0.252 -1.467,0.293l-1.184,1.73c-0.374,0.546 -0.275,1.11 0.257,1.475l1.689,1.156c0.532,0.364 1.095,0.252 1.468,-0.294l1.184,-1.73c0.373,-0.545 0.274,-1.109 -0.258,-1.474Zm-5.966,-4.084l-18.779,-12.854c-0.642,-0.439 -1.267,-0.315 -1.717,0.343l-0.965,1.411c-0.451,0.658 -0.354,1.304 0.288,1.744l18.779,12.854c0.643,0.44 1.28,0.296 1.731,-0.362l0.965,-1.41c0.45,-0.658 0.341,-1.286 -0.302,-1.726Zm-23.056,-15.781l-1.688,-1.156c-0.533,-0.365 -1.095,-0.253 -1.468,0.293l-1.184,1.73c-0.373,0.545 -0.275,1.11 0.258,1.474l1.688,1.156c0.533,0.364 1.095,0.252 1.468,-0.293l1.184,-1.73c0.373,-0.545 0.275,-1.11 -0.258,-1.474Z" style="fill:#aeaeae;fill-rule:nonzero;"/><path d="M333.159,102.205c-1.203,-0.322 -2.183,-0.018 -3.82,0.935l-14.162,8.33c-0.143,0.103 -0.268,0.14 -0.354,0.117c-0.107,-0.028 -0.197,-0.123 -0.269,-0.284l-8.099,-14.296c-0.941,-1.644 -1.637,-2.397 -2.841,-2.719c-1.611,-0.432 -3.043,0.529 -3.515,2.29c-0.248,0.924 -0.193,2.095 -0.101,3.299l3.404,40.922c0.18,2.336 1.002,3.736 2.485,4.133c1.461,0.392 2.873,-0.409 4.198,-2.343l23.411,-33.735c0.682,-0.997 1.315,-1.983 1.562,-2.908c0.472,-1.761 -0.266,-3.303 -1.899,-3.741Z" style="fill:#aeaeae;fill-rule:nonzero;"/><path d="M290.995,114.939c-0.289,-8.837 -5.48,-16.464 -12.25,-19.981c-2.854,-1.525 -4.973,2.42 -2.004,4.055c5.482,2.921 9.486,8.969 9.719,16.074c0.343,10.476 -7.563,19.148 -17.791,19.483c-10.227,0.335 -18.751,-7.798 -19.094,-18.275c-0.05,-1.525 -1.213,-2.376 -2.414,-2.337c-1.134,0.037 -2.149,0.982 -2.099,2.485c0.421,12.868 11.175,23.185 23.759,22.773c12.562,-0.412 22.596,-11.41 22.174,-24.277Zm-9.36,0.306c-0.165,-5.033 -2.971,-9.182 -6.174,-11.151c-2.568,-1.603 -4.723,1.91 -2.491,3.456c2.547,1.649 4.309,4.487 4.419,7.834c0.174,5.329 -3.844,9.724 -9.046,9.895c-5.181,0.17 -9.299,-3.936 -9.671,-9.168c-0.108,-1.273 -1.071,-2.13 -2.205,-2.093c-1.156,0.038 -2.083,0.98 -2.041,2.233c0.246,7.515 6.611,13.622 14.059,13.378c7.448,-0.244 13.4,-6.754 13.15,-14.384Zm-13.393,-16.82c-0.011,-1.025 -1.157,-1.33 -1.802,-0.647l-3.134,3.522l-4.022,-9.307c-0.239,-0.516 -0.76,-0.796 -1.287,-0.573l-2.26,1.009c-0.526,0.245 -0.617,0.863 -0.379,1.334l4.218,9.164l-4.665,0.29c-0.955,0.054 -1.412,1.049 -0.698,1.778l12.785,12.531c0.667,0.662 1.633,0.243 1.624,-0.715l-0.38,-18.386Z" style="fill:#aeaeae;fill-rule:nonzero;"/><path d="M217.811,104.629l-37.966,18.114c-4.317,2.059 -5.476,5.415 -3.376,9.816l9.488,19.887c2.099,4.401 5.437,5.611 9.754,3.551l37.966,-18.113c4.336,-2.069 5.496,-5.425 3.396,-9.826l-9.488,-19.887c-2.099,-4.401 -5.437,-5.611 -9.774,-3.542Zm1.682,4.146c1.868,-0.891 3.362,-0.392 4.324,1.623l9.164,19.209c0.952,1.995 0.399,3.47 -1.468,4.361l-37.484,17.884c-1.848,0.881 -3.363,0.392 -4.314,-1.603l-9.164,-19.209c-0.962,-2.015 -0.389,-3.5 1.458,-4.382l37.484,-17.883Zm6.325,18.165l-1.847,0.881c-0.582,0.278 -0.777,0.8 -0.492,1.396l0.902,1.892c0.285,0.597 0.823,0.794 1.405,0.517l1.847,-0.882c0.583,-0.277 0.767,-0.82 0.483,-1.416l-0.903,-1.892c-0.284,-0.597 -0.813,-0.774 -1.395,-0.496Zm-6.344,3.027l-1.847,0.881c-0.583,0.278 -0.777,0.8 -0.493,1.396l0.903,1.892c0.285,0.597 0.823,0.794 1.405,0.516l1.847,-0.881c0.582,-0.278 0.747,-0.811 0.462,-1.407l-0.902,-1.892c-0.285,-0.596 -0.793,-0.783 -1.375,-0.505Zm-6.365,3.036l-1.827,0.872c-0.582,0.277 -0.777,0.799 -0.492,1.396l0.903,1.892c0.284,0.596 0.822,0.794 1.404,0.516l1.827,-0.871c0.603,-0.288 0.767,-0.821 0.483,-1.417l-0.903,-1.892c-0.284,-0.597 -0.792,-0.783 -1.395,-0.496Zm-6.344,3.027l-1.847,0.881c-0.583,0.278 -0.757,0.79 -0.473,1.387l0.903,1.892c0.285,0.596 0.803,0.804 1.385,0.526l1.847,-0.881c0.582,-0.278 0.767,-0.821 0.482,-1.417l-0.902,-1.892c-0.285,-0.597 -0.813,-0.774 -1.395,-0.496Zm-6.385,3.046l-1.807,0.862c-0.582,0.278 -0.756,0.79 -0.472,1.387l0.903,1.892c0.284,0.596 0.802,0.803 1.384,0.526l1.807,-0.862c0.603,-0.288 0.808,-0.84 0.523,-1.436l-0.903,-1.892c-0.284,-0.597 -0.832,-0.764 -1.435,-0.477Zm-6.304,3.008l-1.847,0.881c-0.582,0.278 -0.777,0.8 -0.492,1.396l0.902,1.892c0.285,0.597 0.823,0.794 1.405,0.517l1.847,-0.882c0.582,-0.277 0.767,-0.82 0.483,-1.416l-0.903,-1.893c-0.285,-0.596 -0.813,-0.773 -1.395,-0.495Zm28.612,-21.705l-1.847,0.881c-0.582,0.278 -0.767,0.821 -0.482,1.417l0.902,1.892c0.285,0.597 0.823,0.794 1.405,0.517l1.847,-0.882c0.582,-0.277 0.767,-0.82 0.483,-1.416l-0.903,-1.892c-0.285,-0.597 -0.823,-0.795 -1.405,-0.517Zm-6.344,3.027l-1.847,0.881c-0.583,0.278 -0.767,0.821 -0.483,1.417l0.903,1.892c0.284,0.597 0.822,0.794 1.405,0.517l1.847,-0.882c0.582,-0.277 0.747,-0.81 0.462,-1.407l-0.903,-1.892c-0.284,-0.596 -0.802,-0.804 -1.384,-0.526Zm-6.365,3.037l-1.827,0.871c-0.582,0.278 -0.767,0.821 -0.482,1.417l0.902,1.892c0.285,0.596 0.823,0.794 1.405,0.516l1.827,-0.871c0.603,-0.288 0.767,-0.821 0.483,-1.417l-0.903,-1.892c-0.285,-0.596 -0.802,-0.804 -1.405,-0.516Zm-6.344,3.026l-1.847,0.882c-0.583,0.277 -0.747,0.81 -0.463,1.407l0.903,1.892c0.285,0.596 0.802,0.804 1.385,0.526l1.847,-0.881c0.582,-0.278 0.767,-0.821 0.482,-1.417l-0.902,-1.892c-0.285,-0.597 -0.823,-0.794 -1.405,-0.517Zm-6.385,3.046l-1.807,0.863c-0.582,0.277 -0.747,0.81 -0.462,1.407l0.903,1.892c0.284,0.596 0.802,0.804 1.384,0.526l1.807,-0.862c0.603,-0.288 0.807,-0.84 0.523,-1.436l-0.903,-1.892c-0.284,-0.597 -0.842,-0.785 -1.445,-0.498Zm-6.304,3.008l-1.847,0.881c-0.582,0.278 -0.767,0.821 -0.483,1.417l0.903,1.892c0.285,0.597 0.823,0.794 1.405,0.517l1.847,-0.882c0.582,-0.277 0.767,-0.82 0.482,-1.416l-0.902,-1.892c-0.285,-0.597 -0.823,-0.795 -1.405,-0.517Zm28.622,-21.684l-1.847,0.882c-0.582,0.277 -0.767,0.82 -0.483,1.416l0.903,1.892c0.285,0.597 0.823,0.795 1.405,0.517l1.847,-0.881c0.582,-0.278 0.767,-0.821 0.482,-1.417l-0.902,-1.892c-0.285,-0.597 -0.823,-0.794 -1.405,-0.517Zm-6.525,3.113l-20.539,9.799c-0.703,0.336 -0.908,0.939 -0.565,1.658l0.736,1.543c0.344,0.72 0.951,0.96 1.654,0.625l20.539,-9.799c0.703,-0.336 0.898,-0.959 0.555,-1.679l-0.736,-1.542c-0.344,-0.72 -0.941,-0.94 -1.644,-0.605Zm-25.217,12.031l-1.847,0.881c-0.582,0.278 -0.767,0.821 -0.483,1.417l0.903,1.892c0.285,0.597 0.823,0.794 1.405,0.517l1.847,-0.882c0.582,-0.277 0.767,-0.82 0.482,-1.416l-0.902,-1.892c-0.285,-0.597 -0.823,-0.795 -1.405,-0.517Z" style="fill:#aeaeae;fill-rule:nonzero;"/><path d="M159.36,131.856c-0.889,0.872 -1.126,1.87 -1.137,3.764l-0.022,16.431c0.016,0.175 -0.015,0.302 -0.079,0.364c-0.079,0.078 -0.207,0.107 -0.382,0.088l-16.428,-0.291c-1.894,-0.024 -2.896,0.193 -3.785,1.065c-1.191,1.169 -1.091,2.89 0.185,4.192c0.671,0.683 1.707,1.23 2.79,1.763l36.974,17.864c2.104,1.033 3.728,1.036 4.823,-0.039c1.08,-1.06 1.108,-2.683 0.115,-4.806l-17.157,-37.307c-0.512,-1.094 -1.04,-2.14 -1.71,-2.823c-1.277,-1.301 -2.98,-1.449 -4.187,-0.265Z" style="fill:#aeaeae;fill-rule:nonzero;"/><path d="M148.819,174.686c-7.727,-4.296 -16.938,-3.768 -23.436,0.229c-2.776,1.664 -0.483,5.51 2.447,3.805c5.325,-3.199 12.57,-3.523 18.784,-0.068c9.16,5.094 12.531,16.335 7.558,25.278c-4.973,8.943 -16.333,12.07 -25.493,6.976c-1.335,-0.742 -2.663,-0.182 -3.246,0.867c-0.552,0.992 -0.263,2.349 1.051,3.079c11.252,6.257 25.631,2.341 31.75,-8.663c6.108,-10.984 1.837,-25.246 -9.415,-31.503Zm-4.551,8.185c-4.401,-2.447 -9.403,-2.174 -12.739,-0.44c-2.696,1.377 -0.791,5.032 1.682,3.913c2.724,-1.336 6.064,-1.387 8.992,0.24c4.66,2.592 6.362,8.298 3.833,12.847c-2.519,4.53 -8.159,5.951 -12.836,3.579c-1.148,-0.562 -2.379,-0.178 -2.93,0.814c-0.562,1.011 -0.23,2.29 0.865,2.899c6.572,3.654 15.083,1.336 18.704,-5.177c3.622,-6.512 1.1,-14.965 -5.571,-18.675Zm-21.313,2.835c-0.886,-0.518 -1.736,0.308 -1.483,1.212l1.409,4.5l-10.05,-1.338c-0.566,-0.06 -1.074,0.243 -1.154,0.809l-0.297,2.456c-0.06,0.578 0.424,0.974 0.95,1.012l10.028,1.097l-2.151,4.149c-0.445,0.847 0.173,1.751 1.166,1.513l17.322,-4.519c0.911,-0.232 1.048,-1.276 0.223,-1.76l-15.963,-9.131Z" style="fill:#aeaeae;fill-rule:nonzero;"/><path d="M102.368,232.119l-3.962,41.879c-0.45,4.761 1.833,7.48 6.688,7.939l21.936,2.075c4.855,0.46 7.607,-1.783 8.058,-6.544l3.962,-41.879c0.452,-4.783 -1.831,-7.502 -6.686,-7.961l-21.936,-2.075c-4.855,-0.46 -7.608,1.783 -8.06,6.566Zm4.421,0.687c0.195,-2.06 1.391,-3.087 3.614,-2.876l21.188,2.004c2.2,0.208 3.182,1.441 2.987,3.5l-3.911,41.348c-0.193,2.037 -1.391,3.086 -3.591,2.877l-21.188,-2.004c-2.223,-0.21 -3.203,-1.465 -3.011,-3.502l3.912,-41.347Zm18.834,3.904l-0.193,2.037c-0.061,0.643 0.287,1.078 0.945,1.14l2.087,0.197c0.658,0.063 1.104,-0.297 1.165,-0.94l0.193,-2.037c0.06,-0.642 -0.31,-1.079 -0.968,-1.142l-2.087,-0.197c-0.658,-0.062 -1.081,0.3 -1.142,0.942Zm-0.662,6.998l-0.193,2.038c-0.061,0.642 0.287,1.077 0.945,1.139l2.087,0.198c0.658,0.062 1.104,-0.298 1.165,-0.94l0.193,-2.038c0.06,-0.642 -0.312,-1.057 -0.97,-1.119l-2.087,-0.198c-0.658,-0.062 -1.079,0.278 -1.14,0.92Zm-0.664,7.021l-0.191,2.015c-0.061,0.642 0.287,1.077 0.945,1.139l2.087,0.198c0.658,0.062 1.104,-0.298 1.165,-0.94l0.19,-2.015c0.063,-0.665 -0.309,-1.08 -0.967,-1.142l-2.087,-0.198c-0.658,-0.062 -1.079,0.278 -1.142,0.943Zm-0.662,6.998l-0.193,2.037c-0.061,0.643 0.289,1.055 0.947,1.118l2.087,0.197c0.658,0.062 1.102,-0.275 1.163,-0.918l0.192,-2.037c0.061,-0.642 -0.309,-1.08 -0.967,-1.142l-2.087,-0.197c-0.658,-0.063 -1.082,0.3 -1.142,0.942Zm-0.667,7.042l-0.188,1.993c-0.061,0.643 0.289,1.056 0.947,1.118l2.087,0.197c0.658,0.063 1.102,-0.275 1.163,-0.917l0.188,-1.994c0.063,-0.664 -0.306,-1.123 -0.963,-1.186l-2.087,-0.197c-0.658,-0.062 -1.084,0.322 -1.147,0.986Zm-0.658,6.954l-0.192,2.038c-0.061,0.642 0.287,1.077 0.945,1.139l2.087,0.198c0.658,0.062 1.104,-0.298 1.164,-0.94l0.193,-2.038c0.061,-0.642 -0.31,-1.079 -0.967,-1.141l-2.088,-0.198c-0.657,-0.062 -1.081,0.3 -1.142,0.942Zm-3.924,-35.698l-0.192,2.038c-0.061,0.642 0.309,1.079 0.967,1.142l2.087,0.197c0.658,0.062 1.104,-0.298 1.165,-0.94l0.193,-2.037c0.061,-0.643 -0.31,-1.08 -0.968,-1.142l-2.087,-0.198c-0.658,-0.062 -1.104,0.298 -1.165,0.94Zm-0.662,6.999l-0.192,2.037c-0.061,0.642 0.309,1.08 0.967,1.142l2.087,0.197c0.658,0.062 1.104,-0.298 1.165,-0.94l0.193,-2.037c0.06,-0.642 -0.312,-1.058 -0.97,-1.12l-2.087,-0.197c-0.658,-0.062 -1.102,0.275 -1.163,0.918Zm-0.664,7.02l-0.191,2.015c-0.06,0.643 0.31,1.08 0.968,1.142l2.087,0.197c0.658,0.063 1.104,-0.297 1.165,-0.94l0.191,-2.015c0.062,-0.664 -0.31,-1.079 -0.968,-1.142l-2.087,-0.197c-0.658,-0.062 -1.102,0.276 -1.165,0.94Zm-0.662,6.998l-0.193,2.038c-0.06,0.642 0.312,1.057 0.97,1.119l2.087,0.198c0.658,0.062 1.102,-0.276 1.163,-0.918l0.192,-2.038c0.061,-0.642 -0.309,-1.079 -0.967,-1.141l-2.087,-0.198c-0.658,-0.062 -1.104,0.298 -1.165,0.94Zm-0.666,7.043l-0.189,1.993c-0.061,0.642 0.312,1.057 0.97,1.119l2.087,0.198c0.658,0.062 1.102,-0.276 1.163,-0.918l0.188,-1.993c0.063,-0.665 -0.305,-1.124 -0.963,-1.186l-2.087,-0.198c-0.658,-0.062 -1.106,0.32 -1.169,0.985Zm-0.658,6.954l-0.193,2.037c-0.061,0.642 0.31,1.08 0.968,1.142l2.087,0.197c0.658,0.063 1.104,-0.297 1.165,-0.94l0.192,-2.037c0.061,-0.642 -0.31,-1.08 -0.967,-1.142l-2.087,-0.197c-0.658,-0.063 -1.104,0.297 -1.165,0.94Zm-3.902,-35.696l-0.192,2.037c-0.061,0.643 0.31,1.08 0.967,1.142l2.087,0.198c0.658,0.062 1.104,-0.298 1.165,-0.94l0.193,-2.038c0.061,-0.642 -0.31,-1.079 -0.968,-1.142l-2.087,-0.197c-0.658,-0.062 -1.104,0.298 -1.165,0.94Zm-0.68,7.197l-2.144,22.656c-0.073,0.775 0.339,1.261 1.133,1.336l1.701,0.161c0.794,0.075 1.312,-0.323 1.386,-1.098l2.143,-22.655c0.073,-0.775 -0.361,-1.263 -1.155,-1.339l-1.702,-0.161c-0.794,-0.075 -1.289,0.325 -1.362,1.1Zm-2.632,27.816l-0.193,2.038c-0.06,0.642 0.31,1.079 0.968,1.141l2.087,0.198c0.658,0.062 1.104,-0.298 1.165,-0.94l0.192,-2.038c0.061,-0.642 -0.309,-1.079 -0.967,-1.141l-2.087,-0.198c-0.658,-0.062 -1.104,0.298 -1.165,0.94Z" style="fill:#aeaeae;fill-rule:nonzero;"/><path d="M95.668,296.24c0.292,1.211 1.026,1.927 2.646,2.91l14.082,8.465c0.158,0.076 0.251,0.168 0.272,0.255c0.026,0.108 -0.015,0.232 -0.122,0.372l-8.693,13.942c-0.995,1.612 -1.324,2.584 -1.032,3.795c0.39,1.622 1.918,2.422 3.69,1.995c0.931,-0.223 1.933,-0.831 2.947,-1.486l34.329,-22.533c1.967,-1.274 2.804,-2.665 2.445,-4.157c-0.354,-1.471 -1.732,-2.329 -4.063,-2.57l-40.82,-4.459c-1.201,-0.123 -2.37,-0.208 -3.301,0.016c-1.772,0.426 -2.775,1.811 -2.38,3.455Z" style="fill:#aeaeae;fill-rule:nonzero;"/><path d="M126.951,327.243c-7.617,4.489 -11.824,12.7 -11.666,20.327c0.029,3.236 4.507,3.206 4.519,-0.184c-0.063,-6.212 3.326,-12.624 9.451,-16.233c9.031,-5.322 20.431,-2.538 25.626,6.278c5.195,8.816 2.141,20.195 -6.89,25.517c-1.315,0.775 -1.505,2.204 -0.895,3.238c0.576,0.978 1.892,1.416 3.188,0.652c11.092,-6.536 14.994,-20.919 8.602,-31.766c-6.381,-10.829 -20.843,-14.365 -31.935,-7.829Zm4.755,8.069c-4.339,2.556 -6.635,7.008 -6.829,10.763c-0.177,3.022 3.94,3.23 4.227,0.53c0.227,-3.026 1.873,-5.932 4.759,-7.633c4.594,-2.707 10.377,-1.286 13.019,3.199c2.632,4.465 1.002,10.047 -3.412,12.88c-1.065,0.706 -1.357,1.962 -0.781,2.939c0.588,0.997 1.859,1.358 2.938,0.722c6.479,-3.818 8.788,-12.331 5.005,-18.751c-3.783,-6.42 -12.35,-8.525 -18.926,-4.649Zm-8.345,19.815c-0.894,0.502 -0.613,1.653 0.295,1.892l4.594,1.063l-6.242,7.99c-0.338,0.458 -0.334,1.049 0.114,1.405l1.968,1.499c0.467,0.345 1.054,0.128 1.353,-0.307l6.022,-8.092l2.49,3.955c0.505,0.812 1.598,0.737 1.895,-0.239l4.872,-17.227c0.261,-0.903 -0.569,-1.549 -1.405,-1.083l-15.956,9.144Z" style="fill:#aeaeae;fill-rule:nonzero;"/><path d="M153.082,396.278l34.28,24.38c3.897,2.772 7.393,2.155 10.219,-1.819l12.771,-17.956c2.826,-3.974 2.262,-7.479 -1.636,-10.251l-34.28,-24.38c-3.915,-2.785 -7.411,-2.168 -10.238,1.806l-12.77,17.956c-2.827,3.974 -2.262,7.479 1.654,10.264Zm2.806,-3.485c-1.686,-1.199 -1.977,-2.748 -0.683,-4.568l12.335,-17.343c1.281,-1.801 2.84,-2.035 4.525,-0.836l33.845,24.071c1.668,1.186 1.977,2.748 0.696,4.549l-12.335,17.343c-1.294,1.82 -2.871,2.041 -4.539,0.855l-33.844,-24.071Zm12.802,-14.355l1.668,1.187c0.525,0.373 1.076,0.29 1.459,-0.249l1.215,-1.708c0.383,-0.539 0.295,-1.105 -0.231,-1.479l-1.668,-1.186c-0.526,-0.374 -1.09,-0.272 -1.473,0.267l-1.215,1.708c-0.383,0.539 -0.281,1.087 0.245,1.46Zm5.728,4.075l1.668,1.186c0.526,0.374 1.077,0.29 1.46,-0.249l1.215,-1.708c0.383,-0.538 0.294,-1.105 -0.232,-1.479l-1.667,-1.186c-0.526,-0.374 -1.072,-0.259 -1.455,0.28l-1.215,1.708c-0.383,0.539 -0.299,1.074 0.226,1.448Zm5.747,4.087l1.65,1.173c0.525,0.374 1.076,0.29 1.459,-0.248l1.215,-1.709c0.383,-0.538 0.295,-1.105 -0.231,-1.479l-1.65,-1.173c-0.544,-0.387 -1.09,-0.271 -1.473,0.267l-1.215,1.708c-0.383,0.539 -0.299,1.074 0.245,1.461Zm5.728,4.074l1.668,1.186c0.526,0.374 1.059,0.277 1.442,-0.261l1.215,-1.709c0.383,-0.538 0.312,-1.092 -0.214,-1.466l-1.667,-1.186c-0.526,-0.374 -1.09,-0.271 -1.473,0.267l-1.215,1.709c-0.383,0.538 -0.281,1.086 0.244,1.46Zm5.765,4.1l1.632,1.16c0.525,0.374 1.058,0.277 1.441,-0.261l1.215,-1.709c0.383,-0.538 0.313,-1.091 -0.213,-1.465l-1.632,-1.161c-0.544,-0.387 -1.126,-0.297 -1.509,0.241l-1.215,1.709c-0.383,0.538 -0.263,1.099 0.281,1.486Zm5.692,4.048l1.668,1.186c0.526,0.374 1.077,0.29 1.46,-0.248l1.215,-1.709c0.383,-0.538 0.294,-1.104 -0.232,-1.478l-1.668,-1.186c-0.525,-0.374 -1.089,-0.272 -1.472,0.266l-1.215,1.709c-0.383,0.538 -0.281,1.086 0.244,1.46Zm-32.873,-14.46l1.668,1.186c0.526,0.374 1.09,0.272 1.473,-0.267l1.215,-1.708c0.383,-0.539 0.294,-1.105 -0.232,-1.479l-1.668,-1.186c-0.525,-0.374 -1.089,-0.272 -1.472,0.267l-1.215,1.708c-0.383,0.539 -0.295,1.105 0.231,1.479Zm5.729,4.074l1.667,1.186c0.526,0.374 1.09,0.272 1.473,-0.267l1.215,-1.708c0.383,-0.538 0.294,-1.105 -0.231,-1.479l-1.668,-1.186c-0.526,-0.374 -1.072,-0.259 -1.455,0.28l-1.215,1.708c-0.383,0.539 -0.312,1.092 0.214,1.466Zm5.746,4.087l1.65,1.173c0.525,0.374 1.089,0.272 1.472,-0.266l1.215,-1.709c0.383,-0.538 0.295,-1.105 -0.231,-1.479l-1.65,-1.173c-0.543,-0.387 -1.089,-0.272 -1.472,0.267l-1.215,1.708c-0.383,0.539 -0.313,1.092 0.231,1.479Zm5.729,4.074l1.667,1.186c0.526,0.374 1.072,0.259 1.455,-0.279l1.215,-1.709c0.383,-0.538 0.312,-1.092 -0.213,-1.466l-1.668,-1.186c-0.526,-0.374 -1.09,-0.271 -1.473,0.267l-1.215,1.708c-0.383,0.539 -0.294,1.105 0.232,1.479Zm5.764,4.1l1.632,1.16c0.525,0.374 1.071,0.259 1.454,-0.279l1.215,-1.709c0.383,-0.538 0.313,-1.092 -0.213,-1.465l-1.631,-1.161c-0.544,-0.387 -1.126,-0.297 -1.509,0.241l-1.215,1.709c-0.383,0.538 -0.277,1.117 0.267,1.504Zm5.692,4.048l1.668,1.187c0.526,0.373 1.09,0.271 1.473,-0.267l1.215,-1.709c0.383,-0.538 0.294,-1.104 -0.231,-1.478l-1.668,-1.186c-0.526,-0.374 -1.09,-0.272 -1.473,0.266l-1.215,1.709c-0.383,0.538 -0.294,1.105 0.231,1.478Zm-32.86,-14.478l1.668,1.186c0.526,0.374 1.09,0.272 1.473,-0.267l1.215,-1.708c0.383,-0.539 0.294,-1.105 -0.231,-1.479l-1.668,-1.186c-0.526,-0.374 -1.09,-0.272 -1.473,0.267l-1.215,1.708c-0.383,0.539 -0.294,1.105 0.231,1.479Zm5.892,4.19l18.545,13.189c0.634,0.452 1.261,0.338 1.723,-0.312l0.991,-1.393c0.462,-0.649 0.377,-1.297 -0.258,-1.748l-18.545,-13.19c-0.634,-0.451 -1.274,-0.319 -1.736,0.331l-0.991,1.393c-0.462,0.65 -0.363,1.279 0.271,1.73Zm22.769,16.193l1.667,1.187c0.526,0.373 1.09,0.271 1.473,-0.267l1.215,-1.709c0.383,-0.538 0.295,-1.104 -0.231,-1.478l-1.668,-1.186c-0.526,-0.374 -1.09,-0.272 -1.473,0.266l-1.215,1.709c-0.383,0.538 -0.294,1.104 0.232,1.478Z" style="fill:#aeaeae;fill-rule:nonzero;"/><path d="M205.402,434.1c1.198,0.343 2.182,0.057 3.836,-0.867l14.307,-8.079c0.145,-0.1 0.271,-0.135 0.356,-0.111c0.107,0.031 0.195,0.127 0.264,0.289l7.845,14.437c0.912,1.661 1.595,2.426 2.792,2.769c1.604,0.461 3.053,-0.475 3.556,-2.227c0.264,-0.92 0.229,-2.091 0.159,-3.297l-2.68,-40.975c-0.139,-2.34 -0.936,-3.754 -2.412,-4.177c-1.453,-0.418 -2.88,0.358 -4.238,2.268l-24.004,33.316c-0.699,0.985 -1.35,1.96 -1.614,2.88c-0.503,1.752 0.208,3.307 1.833,3.774Z" style="fill:#aeaeae;fill-rule:nonzero;"/><path d="M247.75,422.109c0.134,8.84 5.191,16.557 11.898,20.193c2.827,1.575 5.015,-2.333 2.075,-4.02c-5.43,-3.017 -9.328,-9.133 -9.436,-16.242c-0.159,-10.48 7.898,-19.012 18.13,-19.168c10.231,-0.155 18.611,8.126 18.771,18.607c0.023,1.526 1.171,2.398 2.372,2.38c1.134,-0.018 2.166,-0.945 2.143,-2.449c-0.196,-12.873 -10.768,-23.377 -23.357,-23.186c-12.567,0.192 -22.792,11.012 -22.596,23.885Zm9.364,-0.142c0.076,5.035 2.81,9.232 5.978,11.258c2.539,1.648 4.755,-1.827 2.551,-3.412c-2.518,-1.693 -4.23,-4.562 -4.281,-7.911c-0.081,-5.331 4.014,-9.655 9.218,-9.734c5.183,-0.079 9.229,4.098 9.509,9.335c0.086,1.275 1.033,2.15 2.168,2.132c1.156,-0.017 2.099,-0.943 2.08,-2.196c-0.114,-7.519 -6.372,-13.736 -13.823,-13.623c-7.451,0.113 -13.516,6.518 -13.4,14.151Zm13.096,17.052c-0.007,1.026 1.133,1.35 1.79,0.679l3.196,-3.467l3.858,9.376c0.23,0.521 0.746,0.809 1.277,0.596l2.277,-0.969c0.53,-0.236 0.632,-0.853 0.402,-1.328l-4.056,-9.236l4.669,-0.208c0.956,-0.037 1.43,-1.024 0.729,-1.766l-12.563,-12.753c-0.656,-0.673 -1.628,-0.271 -1.636,0.686l0.057,18.39Z" style="fill:#aeaeae;fill-rule:nonzero;"/><path d="M320.699,433.71l38.283,-17.435c4.352,-1.982 5.571,-5.316 3.55,-9.754l-9.133,-20.053c-2.021,-4.438 -5.336,-5.707 -9.689,-3.725l-38.282,17.435c-4.373,1.992 -5.592,5.326 -3.571,9.764l9.133,20.053c2.021,4.438 5.336,5.707 9.709,3.715Zm-1.608,-4.175c-1.883,0.858 -3.368,0.332 -4.294,-1.7l-8.821,-19.368c-0.916,-2.012 -0.337,-3.477 1.546,-4.335l37.796,-17.213c1.863,-0.849 3.369,-0.333 4.285,1.679l8.821,19.368c0.925,2.032 0.326,3.507 -1.537,4.355l-37.796,17.214Zm-6.001,-18.274l1.863,-0.848c0.587,-0.268 0.791,-0.786 0.517,-1.388l-0.869,-1.907c-0.274,-0.602 -0.808,-0.809 -1.395,-0.542l-1.863,0.848c-0.587,0.268 -0.781,0.807 -0.507,1.408l0.869,1.908c0.273,0.602 0.798,0.788 1.385,0.521Zm6.398,-2.914l1.862,-0.848c0.587,-0.267 0.791,-0.786 0.517,-1.387l-0.869,-1.908c-0.273,-0.601 -0.808,-0.809 -1.395,-0.541l-1.862,0.848c-0.588,0.267 -0.762,0.797 -0.488,1.399l0.869,1.908c0.274,0.601 0.779,0.797 1.366,0.529Zm6.417,-2.922l1.842,-0.839c0.588,-0.268 0.791,-0.786 0.518,-1.388l-0.869,-1.907c-0.274,-0.602 -0.809,-0.809 -1.396,-0.542l-1.842,0.839c-0.607,0.277 -0.781,0.807 -0.508,1.408l0.869,1.908c0.274,0.601 0.779,0.797 1.386,0.521Zm6.397,-2.914l1.863,-0.848c0.587,-0.268 0.771,-0.777 0.497,-1.378l-0.869,-1.908c-0.274,-0.601 -0.788,-0.818 -1.375,-0.551l-1.863,0.849c-0.587,0.267 -0.781,0.806 -0.507,1.408l0.869,1.908c0.273,0.601 0.798,0.787 1.385,0.52Zm6.438,-2.932l1.822,-0.83c0.587,-0.267 0.771,-0.776 0.497,-1.378l-0.869,-1.908c-0.274,-0.601 -0.788,-0.817 -1.375,-0.55l-1.822,0.83c-0.607,0.276 -0.822,0.825 -0.548,1.426l0.869,1.908c0.274,0.601 0.819,0.779 1.426,0.502Zm6.357,-2.895l1.862,-0.848c0.588,-0.268 0.791,-0.786 0.518,-1.387l-0.869,-1.908c-0.274,-0.602 -0.809,-0.809 -1.396,-0.542l-1.862,0.849c-0.587,0.267 -0.782,0.806 -0.508,1.408l0.869,1.907c0.274,0.602 0.799,0.788 1.386,0.521Zm-28.994,21.192l1.863,-0.848c0.587,-0.268 0.781,-0.807 0.507,-1.408l-0.869,-1.908c-0.273,-0.601 -0.808,-0.809 -1.395,-0.541l-1.862,0.848c-0.588,0.267 -0.782,0.806 -0.508,1.408l0.869,1.908c0.274,0.601 0.808,0.808 1.395,0.541Zm6.397,-2.914l1.863,-0.848c0.587,-0.267 0.781,-0.806 0.508,-1.408l-0.869,-1.908c-0.274,-0.601 -0.809,-0.808 -1.396,-0.541l-1.862,0.848c-0.587,0.268 -0.761,0.798 -0.488,1.399l0.869,1.908c0.274,0.601 0.788,0.818 1.375,0.55Zm6.418,-2.922l1.842,-0.839c0.587,-0.268 0.782,-0.807 0.508,-1.408l-0.869,-1.908c-0.274,-0.601 -0.808,-0.809 -1.395,-0.541l-1.843,0.839c-0.607,0.276 -0.781,0.806 -0.507,1.408l0.869,1.907c0.273,0.602 0.788,0.818 1.395,0.542Zm6.397,-2.914l1.863,-0.848c0.587,-0.267 0.761,-0.797 0.487,-1.399l-0.869,-1.908c-0.274,-0.601 -0.788,-0.818 -1.375,-0.55l-1.862,0.848c-0.588,0.267 -0.782,0.807 -0.508,1.408l0.869,1.908c0.274,0.601 0.808,0.809 1.395,0.541Zm6.438,-2.932l1.822,-0.83c0.587,-0.267 0.761,-0.797 0.487,-1.398l-0.869,-1.908c-0.273,-0.601 -0.788,-0.818 -1.375,-0.551l-1.822,0.83c-0.607,0.277 -0.822,0.825 -0.548,1.427l0.869,1.907c0.274,0.602 0.829,0.8 1.436,0.523Zm6.357,-2.895l1.862,-0.848c0.587,-0.267 0.782,-0.807 0.508,-1.408l-0.869,-1.908c-0.274,-0.601 -0.808,-0.809 -1.395,-0.541l-1.863,0.848c-0.587,0.267 -0.781,0.807 -0.508,1.408l0.869,1.908c0.274,0.601 0.809,0.809 1.396,0.541Zm-29.003,21.171l1.862,-0.848c0.587,-0.267 0.782,-0.806 0.508,-1.408l-0.869,-1.908c-0.274,-0.601 -0.809,-0.808 -1.396,-0.541l-1.862,0.848c-0.587,0.268 -0.782,0.807 -0.508,1.408l0.869,1.908c0.274,0.601 0.808,0.809 1.396,0.541Zm6.579,-2.996l20.71,-9.432c0.709,-0.323 0.925,-0.922 0.594,-1.648l-0.708,-1.555c-0.331,-0.726 -0.934,-0.977 -1.643,-0.654l-20.71,9.432c-0.708,0.322 -0.915,0.942 -0.584,1.668l0.708,1.555c0.331,0.726 0.924,0.957 1.633,0.634Zm25.427,-11.58l1.863,-0.849c0.587,-0.267 0.781,-0.806 0.507,-1.408l-0.869,-1.907c-0.274,-0.602 -0.808,-0.809 -1.395,-0.542l-1.863,0.848c-0.587,0.268 -0.781,0.807 -0.507,1.408l0.869,1.908c0.274,0.602 0.808,0.809 1.395,0.542Z" style="fill:#aeaeae;fill-rule:nonzero;"/><path d="M379.631,407.526c0.904,-0.857 1.158,-1.85 1.203,-3.744l0.311,-16.427c-0.013,-0.176 0.021,-0.302 0.085,-0.363c0.081,-0.077 0.209,-0.104 0.384,-0.081l16.42,0.579c1.893,0.058 2.899,-0.141 3.804,-0.998c1.211,-1.147 1.141,-2.87 -0.112,-4.194c-0.658,-0.695 -1.685,-1.261 -2.759,-1.812l-36.654,-18.512c-2.085,-1.069 -3.708,-1.101 -4.822,-0.046c-1.099,1.041 -1.155,2.663 -0.2,4.803l16.498,37.603c0.493,1.103 1.002,2.158 1.66,2.853c1.254,1.324 2.954,1.502 4.182,0.339Z" style="fill:#aeaeae;fill-rule:nonzero;"/><path d="M390.937,364.858c7.651,4.431 16.87,4.064 23.437,0.181c2.805,-1.614 0.579,-5.5 -2.38,-3.846c-5.38,3.105 -12.63,3.301 -18.782,-0.262c-9.07,-5.254 -12.243,-16.552 -7.114,-25.406c5.129,-8.855 16.541,-11.782 25.611,-6.529c1.321,0.766 2.659,0.229 3.261,-0.81c0.568,-0.982 0.304,-2.343 -0.998,-3.097c-11.14,-6.453 -25.586,-2.789 -31.897,8.106c-6.299,10.876 -2.278,25.21 8.862,31.663Zm4.694,-8.104c4.358,2.524 9.363,2.338 12.73,0.663c2.719,-1.33 0.879,-5.018 -1.614,-3.942c-2.747,1.288 -6.088,1.281 -8.986,-0.398c-4.614,-2.672 -6.216,-8.408 -3.607,-12.912c2.598,-4.485 8.261,-5.806 12.896,-3.353c1.138,0.582 2.375,0.219 2.944,-0.763c0.58,-1.001 0.27,-2.285 -0.814,-2.913c-6.507,-3.769 -15.057,-1.601 -18.792,4.848c-3.735,6.448 -1.362,14.944 5.243,18.77Zm21.36,-2.461c0.876,0.533 1.74,-0.278 1.503,-1.186l-1.33,-4.524l10.025,1.514c0.565,0.07 1.078,-0.224 1.168,-0.789l0.34,-2.451c0.071,-0.576 -0.406,-0.981 -0.931,-1.028l-10.008,-1.272l2.223,-4.111c0.46,-0.839 -0.142,-1.754 -1.139,-1.534l-17.398,4.216c-0.915,0.215 -1.071,1.257 -0.254,1.756l15.801,9.409Z" style="fill:#aeaeae;fill-rule:nonzero;"/></g><path d="M525.07,284.32c-0.939,18.059 -3.803,36.068 -8.576,53.557l-0.125,0.382l-0.288,0.894l-0.307,0.707c-0.056,0.2 -0.156,0.413 -0.262,0.619l-0.157,0.319l-0.531,0.945l-0.163,0.262c-0.238,0.363 -0.432,0.645 -0.638,0.92l-0.206,0.25l-0.682,0.826l-1.001,0.982c-1.001,0.869 -2.058,1.564 -3.134,2.052c-12.667,5.936 -25.521,10.571 -38.3,13.93l-0.007,0.019c-3.853,1.007 -7.7,1.901 -11.534,2.677c-3.653,7.4 -7.738,14.581 -12.248,21.505l-0.031,-0.025c-1.702,2.602 -3.459,5.167 -5.273,7.688c-8.357,0.663 -16.614,0.776 -24.683,0.407l-0.751,-3.259l-0.15,-0.914c-0.063,-0.25 -0.075,-0.362 -0.088,-0.513c-0.031,-0.193 -0.05,-0.431 -0.043,-0.638l-0.057,-0.525c0,-0.131 0,-0.263 0.013,-0.375l0.019,-0.763l0.068,-0.551l0.075,-0.532c0.201,-1.044 0.557,-2.07 1.095,-2.958c0.056,-0.107 0.125,-0.201 0.181,-0.282l0.382,-0.607c2.583,-3.396 5.035,-6.88 7.362,-10.446c4.829,-7.4 9.12,-15.137 12.823,-23.144c0.288,-0.632 0.689,-1.232 1.164,-1.839c0.269,-0.3 0.494,-0.563 0.757,-0.794l0.131,-0.125c0.238,-0.226 0.457,-0.42 0.695,-0.601l0.162,-0.119c0.3,-0.231 0.551,-0.381 0.788,-0.513l0.307,-0.181c0.244,-0.15 0.488,-0.288 0.757,-0.388l0.306,-0.144c0.282,-0.138 0.569,-0.238 0.845,-0.344l0.306,-0.094c0.369,-0.119 0.732,-0.225 1.12,-0.3c15.919,-3.534 31.951,-9.195 47.639,-17.033c2.947,-12.016 4.898,-24.276 5.855,-36.612c6.837,-5.379 13.486,-11.265 19.892,-17.627l2.627,2.665l0.175,0.181c0.182,0.188 0.35,0.369 0.488,0.576l0.413,0.482l0.381,0.575l0.363,0.532c0.125,0.206 0.25,0.388 0.325,0.575l0.319,0.601l0.226,0.513c0.018,0.043 0.25,0.619 0.325,0.763l0.131,0.438l0.263,0.875c0.056,0.188 0.094,0.401 0.125,0.601l0.163,0.788l0.075,0.557l0.069,0.832l0.037,0.669l-0.012,1.082Zm-22.944,90.732l-0.088,0.888c-0.019,0.2 -0.069,0.4 -0.119,0.607l-0.156,0.788l-0.144,0.569l-0.25,0.776l-0.226,0.631l-0.431,0.995c-7.819,16.351 -17.39,31.851 -28.493,46.145l-0.275,0.312l-0.613,0.72l-0.531,0.513c-0.151,0.181 -0.307,0.319 -0.482,0.475l-0.269,0.232l-0.851,0.669l-0.25,0.181c-0.363,0.238 -0.644,0.426 -0.945,0.601l-0.281,0.144l-0.951,0.506l-1.301,0.526c-1.263,0.406 -2.489,0.644 -3.672,0.681c-10.071,0.445 -19.972,0.232 -29.618,-0.581c-3.741,-0.319 -7.425,-0.713 -11.084,-1.214l-0.019,0.013c-3.941,-0.544 -7.832,-1.182 -11.678,-1.933c-6.199,5.448 -12.724,10.534 -19.523,15.213l-0.025,-0.032c-2.565,1.758 -5.16,3.459 -7.8,5.104c-7.982,-2.595 -15.638,-5.617 -22.95,-9.051l0.538,-3.303c-0,0 0.131,-0.656 0.2,-0.888c0.037,-0.256 0.081,-0.375 0.112,-0.506c0.05,-0.188 0.119,-0.419 0.207,-0.607l0.144,-0.507c0.05,-0.125 0.1,-0.244 0.156,-0.35l0.306,-0.688l0.288,-0.494l0.263,-0.451c0.582,-0.913 1.301,-1.689 2.146,-2.333c0.074,-0.063 0.175,-0.125 0.262,-0.175l0.582,-0.413c3.672,-2.164 7.268,-4.441 10.778,-6.856c7.281,-4.991 14.205,-10.521 20.698,-16.507c0.513,-0.475 1.113,-0.901 1.789,-1.282c0.369,-0.169 0.682,-0.319 1.02,-0.444l0.156,-0.069c0.3,-0.113 0.582,-0.207 0.876,-0.288l0.194,-0.044c0.369,-0.094 0.656,-0.137 0.932,-0.175l0.362,-0.063c0.269,-0.031 0.545,-0.068 0.826,-0.062l0.351,-0.019c0.306,-0.012 0.619,0.006 0.907,0.013l0.325,0.037l0.319,0.031c0.269,0.026 0.544,0.038 0.832,0.107c16.063,2.815 33.04,3.728 50.523,2.533c7.343,-9.964 13.868,-20.529 19.497,-31.564c8.37,-2.333 16.789,-5.216 25.146,-8.669l1.408,3.478l0.081,0.237c0.1,0.238 0.181,0.476 0.231,0.713l0.2,0.607l0.138,0.682l0.132,0.632c0.018,0.256 0.068,0.456 0.062,0.682l0.063,0.675l0.006,0.557l0.025,0.813l-0.056,0.482Zm-55.866,74.236l-0.012,0.244c-0,0.263 -0.012,0.507 -0.056,0.757l-0.057,0.632l-0.137,0.676l-0.113,0.631c-0.062,0.238 -0.106,0.457 -0.181,0.638l-0.194,0.657l-0.213,0.513c-0.019,0.044 -0.263,0.619 -0.306,0.769l-0.219,0.413l-0.432,0.807c-0.094,0.169 -0.219,0.344 -0.338,0.513l-0.45,0.663l-0.338,0.457l-0.538,0.638l-0.45,0.494l-0.776,0.757c-13.448,12.11 -28.192,22.788 -43.917,31.783l-0.357,0.175l-0.838,0.431l-0.713,0.282c-0.176,0.1 -0.401,0.181 -0.62,0.256l-0.337,0.107l-1.045,0.294l-0.306,0.075c-0.42,0.087 -0.751,0.15 -1.095,0.2l-0.319,0.025l-1.07,0.1l-1.401,-0.006c-1.32,-0.094 -2.558,-0.357 -3.666,-0.77c-13.154,-4.754 -25.514,-10.546 -36.943,-17.202l-0.018,0.007c-3.434,-2.008 -6.787,-4.104 -10.046,-6.255c-7.819,2.645 -15.782,4.847 -23.858,6.549l-0.006,-0.038c-3.04,0.632 -6.099,1.207 -9.164,1.708c-6.374,-5.461 -12.291,-11.203 -17.733,-17.183l1.776,-2.84l0.545,-0.738c0.131,-0.225 0.206,-0.313 0.3,-0.426c0.119,-0.162 0.269,-0.337 0.419,-0.487l0.331,-0.413c0.094,-0.094 0.182,-0.188 0.276,-0.257l0.556,-0.525l0.432,-0.338l0.438,-0.319c0.869,-0.619 1.858,-1.057 2.858,-1.32c0.113,-0.037 0.232,-0.056 0.326,-0.069l0.7,-0.156c4.216,-0.582 8.42,-1.301 12.58,-2.183c8.632,-1.808 17.126,-4.247 25.402,-7.294c0.65,-0.244 1.357,-0.387 2.12,-0.481c0.407,-0.019 0.751,-0.05 1.101,-0.019l0.175,-0.006c0.326,0.012 0.62,0.031 0.926,0.069l0.188,0.031c0.381,0.05 0.663,0.119 0.925,0.194l0.338,0.087c0.282,0.069 0.551,0.138 0.813,0.257l0.326,0.119c0.294,0.106 0.569,0.237 0.838,0.35l0.275,0.156c0.351,0.169 0.676,0.351 1.013,0.576c13.756,8.744 29.112,16.063 45.739,21.611c10.571,-6.417 20.635,-13.686 30.031,-21.73c8.638,1.044 17.495,1.576 26.54,1.607l-0.025,3.747Zm-81.48,53.251l-0.106,0.225c-0.1,0.238 -0.206,0.463 -0.338,0.676l-0.294,0.569l-0.381,0.575l-0.357,0.538c-0.163,0.2 -0.269,0.375 -0.431,0.526l-0.432,0.531l-0.388,0.394l-0.563,0.595l-0.375,0.3l-0.695,0.569c-0.15,0.119 -0.331,0.232 -0.512,0.344l-0.67,0.451l-0.5,0.294l-0.726,0.375l-0.606,0.281l-1.008,0.407c-17.095,6.049 -34.847,10.246 -52.818,12.492l-0.42,0.031l-0.944,0.075l-0.738,-0.019c-0.232,0.031 -0.438,0.013 -0.676,-0.006l-0.35,-0.025l-1.076,-0.132l-0.306,-0.05c-0.426,-0.081 -0.757,-0.15 -1.089,-0.244l-0.313,-0.087l-1.019,-0.319l-1.295,-0.551c-1.176,-0.594 -2.214,-1.307 -3.078,-2.114c-7.431,-6.812 -14.274,-13.974 -20.51,-21.361c-2.415,-2.871 -4.748,-5.761 -6.981,-8.701l-0.019,-0c-2.408,-3.165 -4.704,-6.387 -6.899,-9.621c-8.238,-0.531 -16.445,-1.532 -24.565,-3.034l0.013,-0.043c-3.059,-0.57 -6.099,-1.208 -9.126,-1.908c-3.81,-7.475 -7.081,-15.031 -9.815,-22.631l2.721,-1.946c0,0 0.557,-0.375 0.763,-0.488c0.207,-0.15 0.326,-0.2 0.438,-0.281c0.169,-0.1 0.376,-0.207 0.576,-0.282c0.237,-0.144 0.356,-0.2 0.462,-0.256c0.119,-0.056 0.245,-0.1 0.357,-0.138l0.707,-0.269l0.544,-0.144l0.507,-0.137c1.057,-0.232 2.114,-0.269 3.159,-0.132c0.1,0.007 0.219,0.038 0.312,0.063l0.707,0.119c4.116,1.069 8.27,2.002 12.454,2.771c8.67,1.614 17.459,2.602 26.303,2.946c0.695,0.031 1.427,0.156 2.171,0.363c0.382,0.137 0.713,0.25 1.045,0.406l0.15,0.063c0.294,0.131 0.563,0.263 0.826,0.413l0.168,0.106c0.332,0.194 0.563,0.369 0.782,0.532l0.301,0.213c0.212,0.168 0.437,0.337 0.638,0.544l0.25,0.231c0.237,0.213 0.438,0.444 0.638,0.651l0.206,0.25l0.207,0.256c0.168,0.207 0.356,0.413 0.513,0.663c9.389,13.355 20.729,26.016 33.934,37.538c12.241,-1.858 24.326,-4.717 36.105,-8.545c7.581,4.266 15.575,8.17 23.926,11.635l-1.464,3.453Zm-95.679,17.921l-0.188,0.163c-0.181,0.181 -0.363,0.356 -0.569,0.494l-0.488,0.413l-0.569,0.381l-0.532,0.363c-0.206,0.119 -0.394,0.244 -0.575,0.325l-0.601,0.319l-0.513,0.219c-0.044,0.019 -0.619,0.257 -0.763,0.332l-0.438,0.131l-0.882,0.263c-0.181,0.056 -0.394,0.094 -0.6,0.131l-0.782,0.157l-0.557,0.075l-0.838,0.068l-0.669,0.032l-1.076,-0.007c-18.065,-0.938 -36.068,-3.803 -53.563,-8.576l-0.376,-0.125l-0.894,-0.294l-0.707,-0.3c-0.2,-0.056 -0.413,-0.156 -0.619,-0.256l-0.319,-0.163l-0.945,-0.538l-0.269,-0.156c-0.356,-0.238 -0.638,-0.432 -0.913,-0.638l-0.25,-0.207l-0.826,-0.682l-0.988,-1c-0.864,-1.001 -1.558,-2.065 -2.046,-3.134c-5.942,-12.667 -10.571,-25.521 -13.936,-38.301l-0.019,-0.006c-1.001,-3.853 -1.895,-7.7 -2.671,-11.535c-7.4,-3.653 -14.587,-7.743 -21.505,-12.247l0.025,-0.032c-2.603,-1.701 -5.167,-3.459 -7.694,-5.273c-0.657,-8.357 -0.776,-16.62 -0.407,-24.683l3.265,-0.75l0.907,-0.15c0.251,-0.063 0.369,-0.075 0.513,-0.088c0.2,-0.031 0.432,-0.05 0.645,-0.044l0.525,-0.056c0.131,-0 0.256,-0 0.375,0.012l0.763,0.019l0.551,0.063l0.532,0.081c1.038,0.2 2.07,0.557 2.958,1.095c0.107,0.056 0.194,0.125 0.275,0.187l0.607,0.382c3.397,2.571 6.887,5.023 10.453,7.356c7.393,4.829 15.137,9.12 23.138,12.823c0.638,0.288 1.238,0.688 1.845,1.164c0.294,0.269 0.563,0.494 0.788,0.757l0.131,0.131c0.226,0.231 0.413,0.457 0.601,0.694l0.113,0.163c0.231,0.3 0.381,0.55 0.519,0.788l0.181,0.307c0.15,0.244 0.282,0.487 0.388,0.75l0.144,0.313c0.137,0.281 0.237,0.569 0.344,0.844l0.087,0.307c0.126,0.363 0.232,0.725 0.313,1.12c3.522,15.919 9.189,31.951 17.021,47.639c12.022,2.94 24.282,4.898 36.617,5.855c5.374,6.831 11.26,13.48 17.628,19.892l-2.665,2.633Zm-95.292,-19.967l-0.237,0.082c-0.238,0.1 -0.476,0.181 -0.72,0.237l-0.606,0.194l-0.676,0.132l-0.632,0.137c-0.263,0.019 -0.463,0.069 -0.682,0.063l-0.675,0.062l-0.557,0.007l-0.813,0.025l-0.482,-0.057l-0.894,-0.087c-0.194,-0.019 -0.401,-0.069 -0.607,-0.119l-0.788,-0.156l-0.569,-0.144l-0.77,-0.251l-0.632,-0.231l-0.994,-0.425c-16.351,-7.813 -31.852,-17.39 -46.145,-28.493l-0.312,-0.275l-0.72,-0.613l-0.519,-0.538c-0.181,-0.144 -0.313,-0.306 -0.469,-0.482l-0.232,-0.262l-0.669,-0.857l-0.181,-0.244c-0.244,-0.357 -0.426,-0.644 -0.601,-0.945l-0.15,-0.288l-0.5,-0.944l-0.532,-1.301c-0.4,-1.264 -0.644,-2.49 -0.682,-3.672c-0.444,-10.077 -0.231,-19.973 0.582,-29.618c0.325,-3.741 0.719,-7.425 1.22,-11.084l-0.013,-0.019c0.538,-3.941 1.182,-7.832 1.933,-11.679c-5.454,-6.199 -10.54,-12.723 -15.219,-19.522l0.038,-0.025c-1.758,-2.565 -3.459,-5.167 -5.105,-7.807c2.596,-7.981 5.618,-15.638 9.052,-22.95l3.302,0.544c0,0 0.657,0.125 0.882,0.2c0.257,0.032 0.382,0.082 0.507,0.113c0.194,0.044 0.419,0.119 0.613,0.206l0.507,0.144c0.119,0.05 0.244,0.094 0.344,0.157l0.694,0.306l0.488,0.282l0.457,0.262c0.907,0.588 1.689,1.308 2.333,2.146c0.062,0.075 0.119,0.181 0.175,0.269l0.413,0.582c2.158,3.671 4.441,7.268 6.855,10.784c4.998,7.274 10.515,14.199 16.508,20.692c0.475,0.513 0.901,1.113 1.276,1.789c0.175,0.369 0.325,0.682 0.45,1.026l0.063,0.15c0.113,0.306 0.213,0.581 0.294,0.875l0.044,0.194c0.094,0.369 0.137,0.657 0.169,0.932l0.062,0.357c0.038,0.275 0.069,0.544 0.069,0.838l0.012,0.338c0.013,0.319 -0.006,0.619 -0.006,0.913l-0.037,0.325l-0.032,0.319c-0.025,0.269 -0.043,0.545 -0.112,0.826c-2.809,16.07 -3.722,33.046 -2.527,50.53c9.964,7.343 20.529,13.867 31.557,19.491c2.34,8.382 5.223,16.795 8.676,25.152l-3.478,1.407Zm-80.316,-54.983l-0.251,-0.012c-0.263,-0 -0.5,-0.013 -0.75,-0.063l-0.632,-0.05l-0.676,-0.138l-0.638,-0.112c-0.231,-0.063 -0.45,-0.106 -0.631,-0.181l-0.658,-0.201l-0.512,-0.206c-0.05,-0.019 -0.619,-0.263 -0.776,-0.307l-0.406,-0.219l-0.808,-0.431c-0.175,-0.094 -0.344,-0.219 -0.518,-0.338l-0.663,-0.45l-0.451,-0.332l-0.638,-0.544l-0.494,-0.45l-0.757,-0.776c-12.117,-13.449 -22.788,-28.192 -31.783,-43.918l-0.175,-0.356l-0.431,-0.839l-0.282,-0.713c-0.106,-0.175 -0.181,-0.4 -0.256,-0.625l-0.113,-0.332l-0.288,-1.044l-0.075,-0.307c-0.094,-0.419 -0.15,-0.75 -0.2,-1.094l-0.025,-0.319l-0.1,-1.07l0.006,-1.407c0.094,-1.314 0.357,-2.553 0.763,-3.66c4.761,-13.161 10.547,-25.521 17.209,-36.943l-0.007,-0.019c2.002,-3.434 4.103,-6.787 6.255,-10.046c-2.652,-7.812 -4.847,-15.781 -6.549,-23.857l0.038,-0.006c-0.632,-3.046 -1.207,-6.099 -1.708,-9.164c5.461,-6.38 11.202,-12.291 17.176,-17.727l2.841,1.77l0.743,0.538c0.22,0.138 0.313,0.213 0.426,0.3c0.157,0.119 0.338,0.275 0.482,0.426l0.419,0.331c0.093,0.094 0.182,0.181 0.257,0.275l0.519,0.557l0.344,0.432l0.319,0.438c0.613,0.869 1.057,1.851 1.32,2.858c0.037,0.113 0.05,0.225 0.062,0.325l0.163,0.701c0.582,4.216 1.3,8.42 2.177,12.579c1.813,8.632 4.253,17.127 7.293,25.402c0.244,0.651 0.394,1.358 0.488,2.121c0.019,0.4 0.044,0.751 0.019,1.095l0.006,0.181c-0.012,0.325 -0.031,0.619 -0.069,0.92l-0.037,0.194c-0.044,0.381 -0.119,0.656 -0.188,0.919l-0.087,0.344c-0.069,0.282 -0.138,0.551 -0.257,0.813l-0.119,0.319c-0.106,0.3 -0.237,0.576 -0.356,0.838l-0.15,0.288c-0.176,0.344 -0.351,0.676 -0.576,1.007c-8.745,13.755 -16.064,29.112 -21.618,45.738c6.418,10.572 13.686,20.636 21.737,30.025c-1.045,8.645 -1.583,17.502 -1.608,26.553l-3.746,-0.031Zm-53.257,-81.48l-0.219,-0.106c-0.244,-0.1 -0.469,-0.207 -0.676,-0.338l-0.569,-0.294l-0.575,-0.382l-0.545,-0.356c-0.2,-0.163 -0.375,-0.269 -0.525,-0.432l-0.525,-0.431l-0.394,-0.394l-0.601,-0.557l-0.294,-0.382l-0.569,-0.694c-0.125,-0.144 -0.232,-0.325 -0.344,-0.507l-0.451,-0.669l-0.3,-0.5l-0.369,-0.726l-0.288,-0.613l-0.4,-1.001c-6.049,-17.095 -10.246,-34.848 -12.498,-52.819l-0.025,-0.419l-0.075,-0.938l0.019,-0.745c-0.031,-0.231 -0.013,-0.437 -0,-0.675l0.025,-0.35l0.131,-1.083l0.05,-0.3c0.088,-0.425 0.157,-0.757 0.244,-1.088l0.094,-0.313l0.319,-1.02l0.544,-1.294c0.595,-1.176 1.314,-2.221 2.121,-3.078c6.812,-7.431 13.974,-14.274 21.361,-20.511c2.871,-2.42 5.761,-4.747 8.701,-6.98l0,-0.019c3.165,-2.408 6.381,-4.71 9.621,-6.9c0.531,-8.238 1.532,-16.451 3.033,-24.564l0.044,0.006c0.563,-3.052 1.201,-6.092 1.902,-9.12c7.475,-3.803 15.031,-7.081 22.631,-9.814l1.952,2.715c-0,-0 0.374,0.556 0.488,0.769c0.15,0.206 0.199,0.325 0.275,0.438c0.106,0.169 0.212,0.375 0.281,0.575c0.15,0.238 0.201,0.357 0.256,0.463c0.057,0.119 0.107,0.244 0.139,0.351l0.275,0.706l0.144,0.551l0.131,0.507c0.237,1.05 0.275,2.114 0.137,3.158c-0.006,0.1 -0.038,0.219 -0.068,0.313l-0.12,0.707c-1.063,4.116 -1.995,8.269 -2.77,12.454c-1.608,8.67 -2.596,17.458 -2.94,26.297c-0.031,0.701 -0.15,1.432 -0.369,2.177c-0.138,0.381 -0.25,0.707 -0.4,1.044l-0.063,0.151c-0.131,0.293 -0.263,0.562 -0.413,0.825l-0.107,0.169c-0.193,0.332 -0.368,0.563 -0.537,0.782l-0.207,0.3c-0.169,0.219 -0.338,0.438 -0.544,0.638l-0.238,0.25c-0.206,0.232 -0.437,0.438 -0.651,0.645l-0.249,0.2l-0.25,0.206c-0.207,0.169 -0.413,0.357 -0.664,0.513c-13.354,9.389 -26.015,20.73 -37.537,33.935c1.858,12.235 4.71,24.326 8.538,36.105c-4.259,7.581 -8.163,15.575 -11.628,23.926l-3.459,-1.464Zm-17.915,-95.686l-0.163,-0.181c-0.187,-0.181 -0.356,-0.369 -0.494,-0.569l-0.413,-0.488l-0.381,-0.576l-0.369,-0.525c-0.119,-0.207 -0.238,-0.388 -0.326,-0.576l-0.319,-0.6l-0.212,-0.513c-0.019,-0.044 -0.257,-0.626 -0.332,-0.763l-0.137,-0.438l-0.263,-0.882c-0.056,-0.181 -0.088,-0.394 -0.125,-0.6l-0.157,-0.789l-0.081,-0.556l-0.062,-0.826l-0.038,-0.676l0.013,-1.075c0.938,-18.065 3.796,-36.074 8.575,-53.564l0.126,-0.375l0.287,-0.901l0.307,-0.7c0.056,-0.201 0.15,-0.413 0.256,-0.626l0.157,-0.313l0.538,-0.944l0.162,-0.269c0.238,-0.363 0.425,-0.638 0.638,-0.913l0.2,-0.251l0.688,-0.825l1.001,-0.989c0.995,-0.863 2.058,-1.557 3.134,-2.045c12.667,-5.942 25.515,-10.578 38.294,-13.937l0.012,-0.018c3.854,-1.001 7.695,-1.896 11.529,-2.671c3.653,-7.4 7.744,-14.587 12.248,-21.506l0.037,0.025c1.702,-2.608 3.453,-5.166 5.274,-7.694c8.357,-0.656 16.613,-0.775 24.683,-0.406l0.75,3.259l0.144,0.919c0.069,0.244 0.075,0.363 0.094,0.507c0.031,0.2 0.056,0.438 0.044,0.644l0.056,0.526c-0,0.125 -0,0.262 -0.012,0.375l-0.019,0.757l-0.063,0.557l-0.081,0.531c-0.2,1.039 -0.557,2.071 -1.095,2.959c-0.056,0.106 -0.125,0.194 -0.187,0.275l-0.382,0.613c-2.571,3.391 -5.023,6.881 -7.356,10.446c-4.829,7.394 -9.12,15.132 -12.823,23.138c-0.288,0.632 -0.695,1.239 -1.164,1.846c-0.269,0.3 -0.5,0.563 -0.763,0.788l-0.125,0.131c-0.238,0.219 -0.457,0.413 -0.694,0.601l-0.163,0.112c-0.306,0.238 -0.55,0.382 -0.788,0.519l-0.307,0.182c-0.244,0.144 -0.488,0.281 -0.756,0.388l-0.307,0.137c-0.288,0.144 -0.569,0.238 -0.844,0.351l-0.307,0.087c-0.369,0.125 -0.732,0.232 -1.126,0.307c-15.913,3.534 -31.951,9.195 -47.633,17.026c-2.946,12.023 -4.898,24.283 -5.855,36.612c-6.837,5.379 -13.48,11.266 -19.898,17.633l-2.627,-2.671Zm19.078,-101.365l0.088,-0.895c0.025,-0.193 0.075,-0.394 0.119,-0.606l0.156,-0.788l0.15,-0.563l0.25,-0.776l0.226,-0.632l0.431,-0.994c7.819,-16.352 17.383,-31.852 28.493,-46.145l0.274,-0.319l0.607,-0.719l0.545,-0.513c0.137,-0.175 0.3,-0.313 0.475,-0.469l0.269,-0.232l0.851,-0.669l0.25,-0.182c0.357,-0.244 0.644,-0.425 0.945,-0.6l0.287,-0.15l0.945,-0.501l1.295,-0.525c1.263,-0.407 2.489,-0.651 3.677,-0.688c10.078,-0.438 19.974,-0.232 29.613,0.582c3.74,0.325 7.431,0.719 11.09,1.219l0.013,-0.012c3.947,0.544 7.838,1.182 11.685,1.933c6.199,-5.455 12.723,-10.54 19.522,-15.219l0.025,0.037c2.565,-1.764 5.161,-3.459 7.8,-5.104c7.982,2.596 15.644,5.611 22.957,9.051l-0.544,3.297c-0,-0 -0.125,0.663 -0.201,0.888c-0.037,0.257 -0.087,0.382 -0.112,0.507c-0.05,0.194 -0.119,0.425 -0.207,0.613l-0.143,0.506c-0.05,0.119 -0.1,0.244 -0.157,0.345l-0.306,0.694l-0.288,0.488l-0.263,0.456c-0.581,0.907 -1.307,1.683 -2.139,2.327c-0.081,0.069 -0.181,0.125 -0.269,0.175l-0.588,0.42c-3.666,2.158 -7.269,4.441 -10.778,6.855c-7.281,4.992 -14.199,10.515 -20.692,16.508c-0.519,0.469 -1.12,0.9 -1.795,1.276c-0.363,0.175 -0.682,0.319 -1.02,0.45l-0.15,0.063c-0.306,0.112 -0.582,0.212 -0.876,0.294l-0.193,0.037c-0.37,0.1 -0.657,0.144 -0.932,0.175l-0.357,0.063c-0.275,0.037 -0.544,0.069 -0.838,0.062l-0.338,0.019c-0.319,0.013 -0.626,-0.006 -0.913,-0.006l-0.326,-0.038l-0.319,-0.031c-0.269,-0.031 -0.55,-0.044 -0.832,-0.106c-16.063,-2.815 -33.046,-3.728 -50.529,-2.534c-7.337,9.965 -13.868,20.53 -19.491,31.558c-8.376,2.339 -16.789,5.223 -25.146,8.676l-1.407,-3.484l-0.082,-0.232c-0.1,-0.237 -0.181,-0.475 -0.237,-0.719l-0.194,-0.607l-0.138,-0.682l-0.131,-0.631c-0.025,-0.257 -0.075,-0.451 -0.063,-0.676l-0.069,-0.676l0,-0.556l-0.025,-0.813l0.05,-0.482Zm55.872,-74.237l0.012,-0.25c0,-0.256 0.013,-0.5 0.057,-0.751l0.056,-0.631l0.131,-0.676l0.119,-0.638c0.063,-0.231 0.106,-0.45 0.175,-0.638l0.207,-0.65l0.206,-0.513c0.019,-0.044 0.263,-0.62 0.307,-0.776l0.212,-0.407l0.438,-0.813c0.094,-0.169 0.213,-0.338 0.338,-0.506l0.45,-0.67l0.332,-0.45l0.538,-0.638l0.456,-0.494l0.776,-0.757c13.442,-12.116 28.192,-22.788 43.918,-31.783l0.35,-0.175l0.844,-0.432l0.713,-0.287c0.176,-0.1 0.401,-0.175 0.626,-0.251l0.325,-0.112l1.051,-0.294l0.3,-0.069c0.426,-0.088 0.757,-0.15 1.095,-0.2l0.325,-0.031l1.07,-0.094l1.401,0.006c1.32,0.094 2.558,0.35 3.659,0.763c13.161,4.76 25.528,10.553 36.95,17.208l0.019,-0.006c3.434,2.002 6.786,4.097 10.046,6.255c7.812,-2.646 15.781,-4.848 23.857,-6.549l0.006,0.037c3.04,-0.638 6.099,-1.207 9.164,-1.707c6.374,5.461 12.285,11.197 17.727,17.177l-1.77,2.839l-0.544,0.745c-0.132,0.219 -0.207,0.313 -0.301,0.425c-0.118,0.157 -0.269,0.338 -0.425,0.482l-0.331,0.413c-0.088,0.094 -0.182,0.187 -0.276,0.262l-0.55,0.52l-0.438,0.344l-0.432,0.319c-0.869,0.613 -1.851,1.05 -2.858,1.319c-0.113,0.038 -0.225,0.051 -0.332,0.063l-0.7,0.163c-4.21,0.581 -8.414,1.294 -12.579,2.183c-8.626,1.801 -17.121,4.241 -25.397,7.293c-0.65,0.238 -1.357,0.388 -2.126,0.482c-0.394,0.019 -0.745,0.044 -1.089,0.019l-0.181,0.006c-0.325,-0.013 -0.619,-0.031 -0.92,-0.069l-0.194,-0.037c-0.381,-0.05 -0.663,-0.113 -0.925,-0.194l-0.344,-0.082c-0.276,-0.068 -0.545,-0.137 -0.807,-0.256l-0.319,-0.119c-0.301,-0.106 -0.576,-0.238 -0.845,-0.357l-0.281,-0.15c-0.344,-0.175 -0.676,-0.35 -1.007,-0.575c-13.756,-8.751 -29.112,-16.07 -45.738,-21.618c-10.578,6.418 -20.636,13.693 -30.032,21.73c-8.644,-1.038 -17.495,-1.57 -26.547,-1.601l0.032,-3.747Zm81.474,-53.256l0.112,-0.226c0.1,-0.237 0.207,-0.463 0.338,-0.669l0.294,-0.569l0.382,-0.576l0.356,-0.544c0.163,-0.194 0.269,-0.369 0.425,-0.525l0.438,-0.526l0.388,-0.394l0.563,-0.594l0.375,-0.3l0.695,-0.569c0.15,-0.126 0.331,-0.238 0.513,-0.345l0.663,-0.45l0.506,-0.3l0.726,-0.369l0.607,-0.288l1.007,-0.407c17.095,-6.042 34.848,-10.239 52.819,-12.491l0.413,-0.025l0.944,-0.075l0.744,0.019c0.226,-0.032 0.438,-0.013 0.67,-0l0.356,0.025l1.076,0.137l0.307,0.05c0.425,0.075 0.757,0.15 1.088,0.238l0.307,0.094l1.025,0.319l1.289,0.544c1.182,0.6 2.221,1.314 3.084,2.114c7.425,6.812 14.274,13.974 20.511,21.368c2.414,2.871 4.741,5.755 6.974,8.701l0.025,-0c2.402,3.159 4.704,6.38 6.9,9.62c8.238,0.532 16.445,1.533 24.564,3.034l-0.013,0.044c3.053,0.563 6.099,1.201 9.127,1.902c3.803,7.481 7.081,15.031 9.814,22.631l-2.715,1.951c-0.006,0 -0.563,0.376 -0.769,0.482c-0.207,0.156 -0.325,0.207 -0.438,0.282c-0.169,0.1 -0.382,0.212 -0.575,0.281c-0.244,0.15 -0.363,0.2 -0.463,0.257c-0.119,0.056 -0.238,0.106 -0.357,0.137l-0.707,0.275l-0.55,0.144l-0.501,0.132c-1.057,0.237 -2.114,0.269 -3.158,0.131c-0.107,-0.006 -0.219,-0.031 -0.313,-0.063l-0.707,-0.118c-4.116,-1.064 -8.269,-2.002 -12.454,-2.771c-8.67,-1.608 -17.465,-2.596 -26.303,-2.947c-0.701,-0.025 -1.426,-0.15 -2.177,-0.362c-0.375,-0.138 -0.707,-0.251 -1.038,-0.401l-0.15,-0.062c-0.295,-0.138 -0.564,-0.263 -0.826,-0.413l-0.169,-0.113c-0.332,-0.187 -0.563,-0.363 -0.782,-0.531l-0.3,-0.207c-0.219,-0.169 -0.438,-0.338 -0.638,-0.55l-0.251,-0.232c-0.231,-0.206 -0.437,-0.438 -0.644,-0.65l-0.206,-0.251l-0.2,-0.25c-0.169,-0.206 -0.363,-0.419 -0.513,-0.663c-9.389,-13.355 -20.73,-26.015 -33.935,-37.537c-12.235,1.858 -24.332,4.71 -36.105,8.538c-7.587,-4.26 -15.575,-8.163 -23.926,-11.628l1.458,-3.459Zm95.685,-17.915l0.188,-0.169c0.181,-0.182 0.363,-0.35 0.569,-0.494l0.482,-0.407l0.575,-0.382l0.532,-0.369c0.206,-0.118 0.394,-0.244 0.575,-0.319l0.601,-0.325l0.513,-0.219c0.044,-0.019 0.619,-0.25 0.763,-0.325l0.438,-0.138l0.876,-0.256c0.187,-0.063 0.394,-0.094 0.606,-0.131l0.789,-0.157l0.556,-0.081l0.826,-0.069l0.669,-0.031l1.082,0.012c18.065,0.939 36.068,3.797 53.564,8.57l0.369,0.131l0.9,0.288l0.707,0.3c0.2,0.056 0.413,0.163 0.626,0.263l0.306,0.163l0.951,0.531l0.269,0.163c0.363,0.238 0.638,0.425 0.913,0.638l0.251,0.206l0.825,0.682l0.988,1.001c0.864,0.995 1.552,2.058 2.046,3.128c5.942,12.673 10.571,25.527 13.937,38.3l0.012,0.006c1.007,3.86 1.902,7.701 2.677,11.541c7.394,3.647 14.587,7.738 21.506,12.242l-0.025,0.037c2.602,1.702 5.16,3.459 7.687,5.273c0.663,8.357 0.782,16.614 0.413,24.683l-3.265,0.751l-0.913,0.144c-0.244,0.062 -0.363,0.081 -0.513,0.094c-0.194,0.031 -0.432,0.05 -0.638,0.043l-0.526,0.057c-0.131,-0 -0.262,-0 -0.375,-0.013l-0.763,-0.025l-0.551,-0.062l-0.531,-0.082c-1.045,-0.194 -2.071,-0.55 -2.959,-1.088c-0.106,-0.056 -0.2,-0.125 -0.275,-0.188l-0.607,-0.381c-3.403,-2.577 -6.887,-5.029 -10.452,-7.356c-7.394,-4.829 -15.138,-9.121 -23.145,-12.824c-0.631,-0.287 -1.232,-0.694 -1.845,-1.163c-0.294,-0.269 -0.557,-0.494 -0.788,-0.763l-0.125,-0.125c-0.219,-0.238 -0.419,-0.457 -0.607,-0.695l-0.106,-0.162c-0.238,-0.307 -0.382,-0.551 -0.52,-0.788l-0.181,-0.307c-0.144,-0.244 -0.288,-0.488 -0.388,-0.757l-0.144,-0.313c-0.137,-0.275 -0.237,-0.569 -0.344,-0.838l-0.087,-0.306c-0.125,-0.369 -0.232,-0.732 -0.307,-1.126c-3.534,-15.913 -9.195,-31.945 -17.026,-47.633c-12.023,-2.947 -24.283,-4.898 -36.612,-5.855c-5.379,-6.837 -11.266,-13.487 -17.633,-19.898l2.664,-2.627Zm167.896,249.444c0.006,22.456 -4.372,44.681 -12.93,65.273c-8.519,20.592 -21.198,39.521 -37.024,55.334c-15.819,15.825 -34.741,28.505 -55.333,37.03c-20.599,8.551 -42.817,12.93 -65.273,12.924c-22.457,0.006 -44.681,-4.373 -65.273,-12.924c-20.592,-8.525 -39.521,-21.205 -55.334,-37.03c-15.825,-15.813 -28.505,-34.742 -37.031,-55.334c-8.55,-20.592 -12.929,-42.817 -12.923,-65.273c-0.006,-22.456 4.373,-44.681 12.923,-65.273c8.526,-20.592 21.206,-39.52 37.031,-55.333c15.813,-15.826 34.742,-28.505 55.334,-37.031c20.592,-8.557 42.816,-12.936 65.273,-12.929c22.456,-0.007 44.674,4.372 65.273,12.929c20.592,8.526 39.514,21.205 55.333,37.031c15.826,15.813 28.505,34.741 37.024,55.333c8.558,20.592 12.936,42.817 12.93,65.273Zm-72.604,-229.478l0.238,-0.081c0.237,-0.1 0.475,-0.188 0.713,-0.238l0.606,-0.194l0.682,-0.137l0.632,-0.132c0.263,-0.025 0.457,-0.068 0.682,-0.062l0.675,-0.063l0.551,-0.012l0.819,-0.019l0.482,0.05l0.894,0.094c0.194,0.019 0.395,0.069 0.601,0.112l0.788,0.163l0.569,0.144l0.776,0.25l0.632,0.225l0.994,0.426c16.351,7.819 31.852,17.389 46.145,28.498l0.313,0.269l0.719,0.613l0.513,0.538c0.181,0.144 0.319,0.307 0.475,0.482l0.226,0.263l0.675,0.857l0.181,0.25c0.244,0.356 0.426,0.644 0.595,0.944l0.156,0.288l0.5,0.938l0.526,1.302c0.406,1.263 0.651,2.489 0.688,3.671c0.438,10.077 0.225,19.979 -0.588,29.619c-0.325,3.74 -0.713,7.425 -1.213,11.09l0.012,0.013c-0.544,3.947 -1.182,7.837 -1.933,11.684c5.455,6.199 10.534,12.723 15.219,19.523l-0.038,0.025c1.758,2.564 3.46,5.16 5.105,7.8c-2.596,7.982 -5.611,15.638 -9.051,22.957l-3.303,-0.545c-0,0 -0.657,-0.131 -0.889,-0.2c-0.25,-0.037 -0.368,-0.087 -0.5,-0.112c-0.194,-0.05 -0.419,-0.119 -0.613,-0.207l-0.507,-0.144c-0.125,-0.05 -0.244,-0.1 -0.344,-0.156l-0.694,-0.313l-0.494,-0.281l-0.457,-0.263c-0.907,-0.582 -1.682,-1.307 -2.32,-2.146c-0.069,-0.075 -0.132,-0.175 -0.182,-0.262l-0.413,-0.588c-2.158,-3.666 -4.441,-7.263 -6.855,-10.778c-4.998,-7.275 -10.515,-14.199 -16.514,-20.692c-0.469,-0.519 -0.895,-1.114 -1.276,-1.795c-0.169,-0.363 -0.319,-0.682 -0.444,-1.02l-0.063,-0.15c-0.119,-0.307 -0.212,-0.582 -0.294,-0.876l-0.044,-0.194c-0.093,-0.369 -0.137,-0.657 -0.168,-0.932l-0.063,-0.363c-0.037,-0.269 -0.075,-0.544 -0.069,-0.832l-0.012,-0.337c-0.019,-0.319 -0,-0.626 0.006,-0.914l0.031,-0.325l0.038,-0.319c0.025,-0.269 0.037,-0.55 0.106,-0.832c2.815,-16.063 3.728,-33.046 2.527,-50.529c-9.958,-7.344 -20.523,-13.868 -31.551,-19.491c-2.346,-8.376 -5.223,-16.789 -8.676,-25.146l3.478,-1.408Zm80.317,54.983l0.244,0.007c0.262,-0 0.506,0.018 0.756,0.062l0.632,0.057l0.676,0.131l0.638,0.119c0.231,0.062 0.444,0.1 0.632,0.175l0.656,0.2l0.513,0.213c0.044,0.018 0.62,0.262 0.776,0.3l0.406,0.225l0.807,0.432c0.176,0.087 0.345,0.212 0.513,0.338l0.67,0.444l0.45,0.337l0.638,0.538l0.494,0.451l0.757,0.782c12.11,13.442 22.788,28.192 31.783,43.917l0.175,0.351l0.431,0.838l0.288,0.713c0.1,0.181 0.175,0.407 0.25,0.626l0.113,0.337l0.294,1.045l0.069,0.3c0.087,0.426 0.15,0.757 0.194,1.095l0.031,0.325l0.1,1.07l-0.006,1.401c-0.094,1.32 -0.35,2.558 -0.769,3.665c-4.761,13.155 -10.547,25.522 -17.202,36.937l0.006,0.019c-2.008,3.434 -4.103,6.793 -6.255,10.052c2.646,7.813 4.848,15.782 6.549,23.858l-0.044,0.006c0.644,3.04 1.207,6.099 1.714,9.164c-5.461,6.374 -11.203,12.291 -17.183,17.727l-2.834,-1.77l-0.744,-0.545c-0.219,-0.131 -0.313,-0.206 -0.425,-0.3c-0.157,-0.119 -0.338,-0.269 -0.488,-0.425l-0.413,-0.332c-0.094,-0.087 -0.188,-0.181 -0.256,-0.275l-0.526,-0.55l-0.338,-0.432l-0.319,-0.438c-0.613,-0.869 -1.057,-1.851 -1.326,-2.859c-0.031,-0.112 -0.05,-0.231 -0.062,-0.331l-0.157,-0.694c-0.582,-4.223 -1.301,-8.42 -2.183,-12.58c-1.808,-8.632 -4.247,-17.126 -7.293,-25.402c-0.244,-0.65 -0.388,-1.357 -0.482,-2.127c-0.019,-0.4 -0.05,-0.744 -0.019,-1.094l-0.006,-0.175c0.012,-0.326 0.031,-0.626 0.069,-0.926l0.037,-0.194c0.05,-0.375 0.113,-0.651 0.188,-0.92l0.088,-0.344c0.068,-0.275 0.137,-0.544 0.256,-0.807l0.119,-0.325c0.106,-0.294 0.238,-0.569 0.35,-0.838l0.156,-0.282c0.176,-0.344 0.351,-0.675 0.576,-1.007c8.751,-13.761 16.063,-29.111 21.618,-45.744c-6.418,-10.571 -13.693,-20.629 -21.737,-30.025c1.045,-8.645 1.576,-17.496 1.601,-26.547l3.754,0.031Zm53.256,81.474l0.219,0.113c0.244,0.094 0.463,0.2 0.676,0.338l0.569,0.287l0.576,0.388l0.537,0.351c0.201,0.168 0.376,0.275 0.526,0.437l0.525,0.432l0.401,0.388l0.594,0.557l0.3,0.381l0.569,0.694c0.119,0.151 0.232,0.326 0.351,0.507l0.444,0.669l0.294,0.507l0.369,0.726l0.288,0.606l0.406,1.008c6.049,17.095 10.246,34.847 12.492,52.818l0.031,0.413l0.069,0.945l-0.013,0.744c0.032,0.225 0.013,0.438 0,0.669l-0.031,0.351l-0.131,1.082l-0.05,0.306c-0.082,0.426 -0.15,0.757 -0.238,1.089l-0.094,0.306l-0.325,1.02l-0.538,1.295c-0.601,1.182 -1.314,2.22 -2.121,3.077c-6.812,7.431 -13.967,14.275 -21.361,20.517c-2.877,2.415 -5.761,4.742 -8.701,6.981l-0,0.019c-3.165,2.408 -6.38,4.704 -9.62,6.899c-0.532,8.238 -1.539,16.445 -3.034,24.558l-0.044,0c-0.569,3.053 -1.201,6.093 -1.908,9.12c-7.475,3.803 -15.025,7.081 -22.631,9.815l-1.945,-2.721c-0,-0 -0.376,-0.557 -0.488,-0.763c-0.151,-0.207 -0.201,-0.332 -0.276,-0.438c-0.1,-0.169 -0.212,-0.382 -0.287,-0.582c-0.151,-0.238 -0.201,-0.357 -0.257,-0.457c-0.05,-0.125 -0.1,-0.244 -0.137,-0.356l-0.269,-0.707l-0.144,-0.544l-0.138,-0.507c-0.231,-1.057 -0.269,-2.12 -0.125,-3.159c0.006,-0.106 0.031,-0.219 0.056,-0.313l0.125,-0.706c1.064,-4.116 1.996,-8.27 2.765,-12.454c1.614,-8.67 2.602,-17.459 2.946,-26.304c0.032,-0.694 0.151,-1.426 0.369,-2.17c0.138,-0.382 0.244,-0.713 0.401,-1.045l0.062,-0.15c0.132,-0.3 0.263,-0.563 0.413,-0.832l0.106,-0.162c0.194,-0.332 0.37,-0.563 0.532,-0.782l0.213,-0.307c0.169,-0.213 0.338,-0.431 0.55,-0.632l0.225,-0.256c0.213,-0.232 0.445,-0.432 0.651,-0.638l0.25,-0.2l0.257,-0.207c0.206,-0.175 0.412,-0.356 0.663,-0.513c13.348,-9.389 26.015,-20.729 37.537,-33.934c-1.851,-12.241 -4.71,-24.326 -8.538,-36.111c4.26,-7.575 8.163,-15.569 11.628,-23.92l3.459,1.457Zm32.39,59.894l-0.006,-0.219c-2.359,-18.847 -6.762,-37.469 -13.105,-55.402l-0.175,-0.426c-5.236,-14.731 -11.785,-28.986 -19.529,-42.541l-0.081,-0.175c-9.433,-16.495 -20.624,-31.958 -33.322,-46.051l-0.338,-0.35c-3.015,-3.334 -6.117,-6.6 -9.295,-9.777c-7.837,-7.832 -16.151,-15.182 -24.908,-21.981l-0.156,-0.15c-14.988,-11.647 -31.239,-21.681 -48.391,-29.881l-0.419,-0.182c-14.105,-6.718 -28.824,-12.179 -43.898,-16.307l-0.182,-0.069c-18.353,-5.01 -37.243,-8.006 -56.172,-8.988l-0.481,-0.007c-4.485,-0.225 -8.976,-0.338 -13.461,-0.338c-11.047,0.007 -22.125,0.676 -33.134,2.052l-0.213,0.006c-18.847,2.352 -37.475,6.762 -55.402,13.105l-0.426,0.175c-14.73,5.236 -28.98,11.785 -42.541,19.529l-0.175,0.075c-16.495,9.439 -31.958,20.623 -46.051,33.328l-0.351,0.337c-3.333,3.015 -6.593,6.112 -9.776,9.296c-7.825,7.837 -15.181,16.151 -21.981,24.902l-0.15,0.162c-11.647,14.988 -21.687,31.239 -29.881,48.39l-0.181,0.42c-6.725,14.105 -12.179,28.817 -16.308,43.898l-0.068,0.182c-5.011,18.346 -8.007,37.237 -8.989,56.165l-0.006,0.482c-0.226,4.491 -0.338,8.982 -0.338,13.467c0.006,11.047 0.675,22.125 2.051,33.128l0.007,0.219c2.358,18.847 6.755,37.468 13.104,55.402l0.176,0.425c5.241,14.731 11.784,28.981 19.528,42.542l0.075,0.175c9.439,16.495 20.63,31.958 33.327,46.051l0.338,0.35c3.016,3.334 6.112,6.593 9.296,9.777c7.838,7.825 16.151,15.181 24.902,21.981l0.163,0.15c14.987,11.641 31.238,21.68 48.383,29.881l0.426,0.175c14.105,6.724 28.824,12.185 43.899,16.307l0.181,0.075c18.347,5.005 37.237,8.007 56.172,8.989l0.475,0.006c4.491,0.219 8.983,0.338 13.468,0.338c11.046,-0.006 22.124,-0.682 33.127,-2.052l0.219,-0.006c18.847,-2.358 37.469,-6.762 55.402,-13.104l0.426,-0.176c14.724,-5.241 28.986,-11.784 42.541,-19.528l0.175,-0.082c16.495,-9.432 31.958,-20.623 46.051,-33.321l0.344,-0.338c3.34,-3.015 6.599,-6.117 9.783,-9.295c7.826,-7.838 15.182,-16.157 21.981,-24.908l0.15,-0.157c11.641,-14.987 21.681,-31.238 29.881,-48.39l0.182,-0.425c6.718,-14.099 12.178,-28.818 16.301,-43.893l0.075,-0.181c5.004,-18.353 8.006,-37.237 8.988,-56.172l0,-0.482c0.232,-4.484 0.344,-8.976 0.344,-13.461c-0.006,-11.053 -0.681,-22.124 -2.051,-33.127Z" style="fill:#aeaeae;fill-rule:nonzero;"/><path d="M425.158,381.676c0.456,-0.481 1.581,-1.761 0.997,-2.415c-1.474,-1.645 -4.03,5.603 -0.997,2.415Zm31.72,-100.74c0.774,-3.109 2.509,3.21 -0.283,2.645c0.861,-0.821 0.101,-1.913 0.283,-2.645Zm-341.823,-11.009c3.601,-1.038 -3.14,5.032 -2.254,2.07c0.288,-0.96 1.767,-1.93 2.254,-2.07Zm112.436,-149.074c0.324,0.923 -3.526,-4.696 -2.056,-3.968c1.066,0.527 1.589,2.63 2.056,3.968Zm-22.538,2.917c0.686,-0.673 -11.117,14.868 -9.722,12.486c1.194,-2.039 8.525,-11.309 9.722,-12.486Zm-17.258,7.071c0.545,-0.421 1.656,0.601 2.682,1.18c2.344,1.321 5.91,2.399 3.114,5.167c-3.041,3.008 -7.277,-5.205 -5.796,-6.347Zm-59.327,75.478c2.655,1.392 -5.244,0.396 -4.367,-1.072c0.37,-0.62 1.886,-1.314 2.739,-0.756c0.237,0.154 0.807,1.398 1.628,1.828Zm13.877,-27.955c1.944,1.356 -4.827,1.465 -3.566,-0.047c0.698,-0.836 2.331,-0.816 3.566,0.047Zm1.5,-18.359c0.772,0.581 -0.275,2.383 -1.024,3.014c-2.635,2.218 -0.674,-4.294 1.024,-3.014Zm28.603,244.965c3.082,0.501 7.756,1.947 9.932,5.169c0.289,0.424 1.043,3.047 1.057,3.05c0.119,0.013 0.945,-0.689 1.112,-0.735c2.763,-0.74 10.785,3.254 8.88,6.929c6.708,-2.024 15.533,6.494 22.829,7.388c-1.464,3.073 -6.836,-1.434 -8.387,0.676c-1.559,2.118 1.618,1.35 2.454,1.52c0.577,0.117 0.772,0.452 1.142,0.517c1.818,0.318 3.864,-2.07 5.733,-2.452c3.122,-0.638 8.35,2.53 11.843,4.35c1.488,0.776 4.939,1.348 3.313,3.206c1.504,-1.065 4.694,-2.361 5.022,0.277c-0.025,-0.196 -0.079,1.271 0.114,1.31c1.048,0.218 0.38,-2.679 1.795,-2.497c0.424,0.055 0.507,1.047 1.057,1.571c0.845,0.8 2.681,1.163 3.511,1.61c3.172,1.702 -0.968,-0.686 -0.2,-1.739c1.374,-1.879 6.294,5.321 6.307,0.769c0.56,0.193 0.665,1.433 1.284,1.598c0.771,0.209 1.706,-1.552 2.252,-1.696c1.023,-0.272 3.292,1.812 4.198,2.067c5.076,1.429 11.724,-1.096 16.692,2.293c0.035,-0.236 -0.126,-0.631 0.227,-0.711c0.766,0.667 1.054,1.424 1.399,2.172c-0.33,-0.453 -0.864,-0.868 -1.512,-1.26c-0.039,1.619 2.236,5.598 3.94,3.007c1.168,-1.776 -0.915,-4.225 -1.945,-5.618c6.121,0.882 12.863,0.024 18.888,-0.799c1.02,-0.141 5.362,-1.072 6.305,-0.343c0.8,0.62 0.195,2.059 0.916,2.709c0.91,0.823 1.614,0.597 2.052,0.266c0.319,-0.239 1.738,-2.984 0.999,-3.156c-0.751,-0.174 -1.595,2.429 -2.168,0.646c-0.332,-1.029 7.431,-0.067 9.015,0.608c-0.349,-0.892 2.429,-2.61 3.565,-1.807c-2.777,-2.489 3.687,-1.855 4.593,-2.23c-0.276,0.116 2.009,-1.42 2.111,-1.299c0.2,0.243 -1.531,2.593 -0.341,2.362c0.382,-0.076 1.061,-1.873 1.34,-2.187c2.215,-2.489 6.162,-1.629 8.986,-2.495c5.398,-1.655 11.443,-5.095 16.857,-8.327c3.977,-2.372 8.214,-5.032 12.38,-7.376c1.329,-0.749 3.238,-2.267 4.192,-2.373c0.773,-0.088 1.296,0.538 2.14,0.322c1.109,-0.283 2.306,-2.041 3.422,-2.148c0.152,-0.016 1.418,0.54 1.569,0.434c0.58,-0.408 -1.457,-1.734 -0.258,-2.024c0.442,-0.106 1.099,0.892 1.655,0.492c0.655,-0.467 -0.192,-2.049 0.284,-2.647c0.246,-0.307 1.632,-0.333 2.254,-0.587c5.938,-2.444 11.39,-12.571 17.513,-10.602c-1.064,-5.784 7.374,-10.746 10.688,-15.042c0.299,-0.386 0.763,-1.321 0.913,-1.363c0.601,-0.174 1.453,1.251 2.113,1.29c0.215,0.013 1.302,-0.524 1.197,-1.048c-0.196,-0.981 -2.321,-0.294 -2.398,-1.234c-0.05,-0.607 2.597,-2.166 3.252,-3.004c3.031,-3.892 4.21,-8.889 7.496,-11.756c0.656,-0.573 2.198,-1.188 2.31,-1.413c0.118,-0.237 -0.18,-1.275 -0.143,-1.453c0.79,-3.907 3.644,-9.317 6.183,-13.498c2.945,-4.852 6.516,-5.683 9.267,-9.213c-1.161,0.058 -2.376,0.873 -3.396,0.072c-1.873,-1.474 2.1,-6.608 3.589,-9.069c0.334,-0.548 1.79,-2.929 2.11,-3.52c1.37,-2.547 -0.214,-0.043 -0.885,-0.345c-0.509,-0.232 0.057,-1.867 0.083,-2.534c0.13,-3.229 -0.708,-9.432 3.818,-10.149c1.3,-0.207 -2.085,-1.994 -1.999,-2.571c0.036,-0.247 0.945,-0.453 1.454,-0.878c2.151,-1.79 1.108,-44.812 1.428,-44.923c0.675,-0.236 1.508,1.741 1.255,0.346c-0.557,-3.069 -3.409,-6.903 -0.92,-9.74c-0.694,0.088 -1.797,0.268 -1.968,-0.579c-0.032,-0.161 1.7,-2.092 1.794,-3.237c0.041,-0.483 -0.339,-2.526 -1.142,-2.369c-1.546,0.305 0.845,2.25 -0.197,2.705c-0.291,0.126 -0.725,-0.959 -0.486,-0.572c-0.911,-1.482 -2.317,-4.081 -2.601,-5.564c-0.135,-0.708 1.603,-4.932 1.11,-5.546c-0.649,-0.808 -1.776,-0.361 -2.112,-1.292c-0.662,-1.825 2.783,-2.921 3.42,-4.739c-0.581,0.134 -1.37,0.366 -1.968,0.16c-0.438,-0.148 -1.319,-1.047 -1.598,-0.945c-0.904,0.329 0.82,2.188 -0.142,2.619c-0.237,0.106 -0.489,-0.904 -0.314,-0.457c-2.621,-6.682 -6.53,-13.738 -5.776,-20.64c-0.425,0.586 -0.809,1.931 -1.568,1.418c-0.5,-0.337 0.077,-1.864 0.113,-2.392c0.135,-2.043 -0.395,-3.152 -1.002,-4.987c-0.162,-0.486 -0.576,-2.534 -0.858,-2.423c-0.941,0.365 0.046,2.076 -0.57,2.331c-0.918,0.382 -1.123,-3.849 0.54,-3.955c-4.509,0.53 -3.726,-4.717 -6.053,-6.888c3.886,1.815 0.715,-1.823 -1.258,-2.569c-0.405,-0.153 -1.331,0.03 -1.54,-0.292c-0.11,-0.17 0.281,-1.599 0.284,-1.906c0.012,-1.387 -0.045,-4.598 -1.086,-5.415c-0.932,-0.726 -2.485,0.137 -3.454,-0.585c-1.524,-1.132 0.024,-4.289 -1.573,-5.614c-0.606,-0.504 -1.486,-0.47 -2.141,-0.695c3.717,-0.379 -0.905,-6.01 -2.171,-4.906c-0.613,0.535 0.512,1.471 0.031,1.624c-2.149,-2.942 -6.054,-6.643 -7.453,-10.17c-0.138,-0.339 -0.315,-2.037 -0.516,-2.194c-0.282,-0.218 -1.536,0.042 -1.627,0.021c-3.258,-0.781 -6.705,-3.979 -9.335,-6.618c-1.751,-1.757 -4.474,-4.397 -4.226,-6.284c0.107,-0.812 1.078,-1.759 0.855,-2.387c-0.724,-2.027 -4.671,0.073 -5.68,-1.334c-0.391,-0.545 0.357,-1.508 0.199,-1.965c-0.178,-0.516 -1.555,-1.6 -2.456,-2.259c-2.198,-1.609 -4.269,-3.193 -5.851,-4.41c-4.994,-3.848 -11.071,-3.806 -16.071,-8.043c-1.609,-1.369 -1.361,-3.134 -2.741,-4.425c-3.077,-2.885 -7.472,0.674 -10.5,-1.357c-3.535,-2.371 -3.336,-9.142 -8.45,-8.493c-1.54,0.195 -3.409,2.508 -4.45,2.203c-2.79,-0.825 -1.035,-3.169 -1.885,-3.854c-0.271,-0.217 -2.97,0.061 -3.795,-0.073c-4.041,-0.66 -8.401,-2.665 -11.987,-3.213c0.377,-0.616 0.926,-1.267 0.828,-1.791c-4.196,4.697 -21.514,-2.293 -23.057,-3.346c-0.64,-0.438 -0.21,-1.12 -0.799,-1.399c-0.908,-0.432 -2.286,0.989 -3.223,1.296c-2.288,0.744 -6.099,0.385 -8.475,-0.494c-1.072,-0.397 -1.995,-1.28 -2.997,-0.896c-0.774,0.297 -0.881,0.924 -1.455,1.247c-0.873,0.493 -2.355,0.364 -3.138,-0.127c-0.303,-0.192 -0.519,-0.842 -0.943,-1.001c-0.909,-0.343 -1.904,1.024 -3.109,0.754c-1.54,-0.342 -2.89,-2.155 -4.223,-1.47c-0.989,0.508 -1.071,1.503 -1.768,1.531c-1.61,0.059 -3.514,-2.741 -5.023,-1.389c-0.254,0.226 -0.258,0.904 -0.713,1.249c-1.139,0.867 -2.832,-1.226 -4.509,-1.785c-2.708,-0.905 -6.252,5.021 -9.126,4.744c-1.769,-0.174 -2.385,-1.905 -4.054,-2.467c-1.715,-0.578 -1.756,1.394 -2.965,2.207c-0.633,0.424 -1.621,-0.418 -2.112,-0.179c-0.519,0.251 -0.88,1.469 -1.37,1.673c-1.327,0.555 -1.302,-1.354 -2.083,-1.888c-1.98,-1.354 -5.764,2.238 -7.503,1.02c-0.007,-0.004 -0.328,-1.476 -0.744,-1.483c-0.695,-0.012 -2.501,2.165 -2.309,2.523c0.206,0.385 2.191,-0.137 2.767,-0.243c0.779,-0.144 2.391,-0.534 2.882,-0.045c1.635,1.629 -3.046,2.803 -3.707,2.945c-1.551,0.335 -3.048,0.79 -4.024,0.637c0.15,-0.417 1.749,-3.45 0.4,-3.187c-0.087,0.017 -0.554,1.934 -0.742,2.218c-1.298,1.967 -3.646,1.57 -5.247,3.024c-0.153,0.138 -0.726,0.96 -0.771,0.964c-0.147,0.016 -1.237,-1.129 -1.428,-1.201c-2.255,-0.876 -4.9,3.764 -7.188,2.586c-0.334,-0.172 -0.791,-1.003 -1.169,-1.03c-1.449,-0.095 -0.457,3.159 -0.626,3.528c-0.318,0.695 -1.263,1.151 -1.599,1.275c-2.371,0.876 -7.309,-0.445 -9.099,2.295c-0.642,0.983 -0.295,2.283 -0.825,2.901c-0.401,0.465 -1.584,0.737 -1.912,0.446c-0.189,-0.169 -0.064,-3.146 -0.773,-3.107c-0.654,0.039 -1.186,2.157 -1.793,3.238c-1.165,2.067 -1.945,1.949 -3.48,2.606c-0.567,0.241 -1.943,1.254 -2.453,1.07c-0.559,-0.201 -0.668,-1.204 -0.856,-1.314c-0.943,-0.54 -2.255,0.197 -2.626,0.587c-2,2.103 0.681,4.641 -0.366,5.921c-0.659,0.8 -2.669,-0.07 -3.596,-0.556c-0.508,-0.267 -0.898,-0.775 -1.258,-0.718c-0.891,0.135 -1.91,2.726 -2.108,3.15c-0.318,0.686 -1.632,3.911 -0.169,2.848c-1.32,1.448 -2.403,0.917 -3.937,1.434c-2.97,1.002 -3.748,4.233 -5.504,6.183c-1.199,1.334 -3.399,-0.215 -4.22,0.751c0.008,-0.008 -0.658,1.845 0.427,1.768c0.916,-0.068 0.56,-1.668 1.398,-1.163c0.872,0.526 -1.721,2.786 -1.68,3.439c-0.642,-0.303 -0.144,-1.412 -1.229,-1.686c-0.984,-0.247 -3.306,4.214 -4.362,4.849c-0.472,0.283 -1.651,0.107 -1.769,0.42c-0.287,0.77 1.686,1.2 1.884,1.631c-8.171,-0.5 -7.959,16.391 -15.539,16.73c0.851,0.423 1.506,-0.128 2.397,0.497c-2.194,0.367 -3.327,5.057 -4.533,6.584c-1.677,2.128 -1.059,-1.91 0.483,-2.389c-5.08,-1.231 -0.15,4.937 -2.077,6.626c-1.093,0.957 -2.799,-0.799 -3.795,0.666c-1.577,2.319 1.693,5.116 -0.765,7.626c-0.465,-1.512 -1.646,-4.396 -3.481,-1.097c-0.714,1.282 -1.211,2.867 -1.625,4.835c-0.383,1.832 -0.8,5.189 1.203,4.503c-0.675,1.693 -2.021,3.797 -3.392,4.882c0.319,-0.623 0.932,-1.267 0.567,-1.592c-0.85,-0.758 -1.779,2.447 -1.709,3.667c0.03,0.496 0.318,1.399 -0.341,1.618c0.637,-1.226 -0.073,-1.277 -0.77,-0.885c-3.172,1.791 0.131,3.939 0.431,6.211c0.226,1.72 -1.696,4.879 -2.308,6.966c-1.363,4.65 -1.904,9.369 -2.586,13.683c-0.311,1.965 -0.592,5.515 -1.65,6.912c-0.495,0.654 -2.034,1.161 -2.424,1.954c-1.044,2.114 1.542,5.567 1.83,7.64c0.064,0.448 0.038,2.054 -0.712,2.36c-0.461,0.187 -1.372,-0.464 -1.797,-0.464c-2.789,-0.007 -1.17,4.298 -2.621,5.768c-0.771,0.781 -2.31,-0.123 -2.77,0.244c-0.288,0.23 -0.083,1.682 -0.14,1.88c-0.845,2.947 -4.585,2.862 -5.25,0.06c-0.666,-2.808 2.511,-7.568 4.216,-11.114c1.795,-3.731 2.406,-6.472 2.334,-9.783c-0.076,-3.399 -0.281,-6.17 0.622,-9.451c0.895,-3.256 2.679,-6.716 4.33,-10.175c1.626,-3.408 2.41,-6.204 2.705,-9.783c0.298,-3.636 1.166,-6.403 2.619,-9.84c3.071,-7.262 7.188,-15.22 11.797,-22.811c9.222,-15.191 19.823,-27.271 31.162,-37.477c5.946,-5.35 11.957,-9.922 17.965,-14.983c2.145,-1.806 4.054,-4.136 5.961,-5.383c1.258,-0.824 3.347,-0.766 4.85,-1.317c3.116,-1.143 6.016,-3.878 9.04,-5.912c1.171,-0.787 3.532,-2.688 4.592,-2.6c0.448,0.04 1.156,0.843 1.741,0.919c1.325,0.175 4.409,-2.714 5.618,-3.39c3.929,-2.205 7.656,-3.835 11.582,-5.076c2.051,-0.647 4.054,-0.782 6.048,-1.254c6.386,-1.514 11.38,-4.53 17.972,-4.618c2.044,-0.029 4.876,0.432 6.306,-0.345c1.396,-0.758 1.827,-1.907 3.535,-1.578c1.376,0.265 3.503,2.26 4.34,1.671c0.359,-0.252 0.561,-1.312 0.997,-1.676c1.101,-0.923 4.113,-0.193 5.621,-0.06c1.956,0.17 4.427,0.599 5.621,-0.059c0.685,-0.381 1.378,-1.534 1.91,-1.561c0.879,-0.042 1.793,1.262 2.768,1.608c1.789,0.632 4.122,-1.426 6.135,-1.569c3.656,-0.256 7.635,2.51 11.642,2.244c3.637,-0.24 7.447,-2.052 10.585,-0.437c2.025,1.042 2.279,0.629 3.768,0.671c3.309,0.095 7.267,1.421 10.928,2.383c3.822,1.003 7.731,2.503 11.273,3.721c7.93,2.737 14.811,5.414 22.832,8.872c11.897,5.131 24.257,11.645 34.735,20.908c3.23,2.854 6.085,6.062 9.594,8.64c5.059,3.718 7.737,6.178 10.392,10.412c1.894,3.019 3.965,7.431 7.395,9.513c1.387,0.841 3.774,0.971 4.881,2.155c0.58,0.624 0.411,1.912 0.83,2.653c0.92,1.631 2.451,3.025 3.512,4.572c5.331,7.776 8.483,15.67 13.709,23.607c0.969,1.472 1.281,3.029 2.231,4.821c0.78,1.478 2.613,3.595 2.655,4.739c0.02,0.501 -0.9,1.845 -0.484,2.391c0.775,1.01 3.923,0.227 5.252,1.417c0.974,0.87 0.022,1.252 -0.371,2.219c-0.236,0.587 0.043,1.633 0.545,1.967c0.381,0.253 0.845,-0.217 1.312,0.262c0.855,0.875 -1.617,2.887 -0.454,4.012c0.781,0.756 1.934,0.089 2.882,1.066c0.779,0.804 -0.295,3.436 -0.567,4.553c-0.874,3.605 0.856,5.677 1.346,8.917c0.19,1.251 0.108,4.474 1.031,5.131c0.384,0.275 0.975,-0.164 1.455,0.236c1.052,0.871 1.01,4.921 1.089,6.524c0.078,1.604 -0.463,5.451 0.605,6.693c0.382,0.447 1.376,0.781 1.853,1.489c0.858,1.271 0.505,3.756 0.375,5.184c-0.243,2.639 -0.886,7.181 2.886,4.397c0.755,1.756 -4.127,1.979 -3.567,3.658c0.124,0.367 1.701,0.19 1.942,0.434c0.704,0.716 -0.366,3.224 -0.824,4.383c-0.558,1.402 0.48,14.018 0.865,14.638c0.01,0.016 -0.495,1.251 -0.542,1.364c-0.947,2.234 -1.445,4.375 -0.567,6.035c0.129,0.244 1.112,1.182 0.885,1.455c-0.422,0.51 -1.267,-0.908 -1.684,-0.633c-0.324,0.213 0.129,0.794 0.029,0.511c0.645,1.834 0.165,2.414 -0.396,4.67c-0.064,0.259 -0.486,2.851 0.06,2.874c0.062,0.004 0.688,-0.745 0.796,-0.822c2.074,-1.424 1.988,4.537 1.574,5.246c-0.013,-0.452 -1.868,-3.086 -2.17,-1.945c0.004,-0.017 0.72,0.832 0.801,1.028c1.105,2.711 -3.779,7.016 -1.023,8.938c-2.264,0.585 -2.823,3.659 -0.112,4.241c-5.067,6.807 -7.472,14.327 -10.058,21.139c1.184,-1.684 1.946,-4.338 3.993,-2.26c-7.793,6.222 -8.682,16.529 -13.881,24.255c-2.273,3.38 -6.219,6.719 -8.038,10.158c-0.379,0.717 -0.636,1.662 -0.17,2.105c0.648,0.62 2.1,-0.016 2.684,0.439c0.85,0.667 -0.564,2.403 -1.285,3.583c-2.928,4.806 -7.72,11.931 -11.973,11.962c-0.888,0.007 -1.494,-0.414 -2.169,-0.094c-2.502,1.193 -4.614,5.15 -6.816,7.401c-2.571,2.631 -4.788,4.513 -7.043,6.263c-3.372,2.615 -7.108,6.353 -10.55,9.462c-1.032,0.933 -2.504,2.562 -3.566,2.917c-0.616,0.206 -1.392,-0.209 -1.997,0.02c-1.469,0.564 -2.909,2.2 -4.306,3.285c-4.32,3.349 -8.545,7.067 -13.462,8.254c-1.762,0.427 -3.304,0.53 -4.765,1.005c-1.567,0.51 -2.962,1.535 -4.534,2.514c-8.633,5.377 -18.731,8.322 -27.926,11.153c-2.952,0.908 -6.203,2.055 -9.442,2.806c-3.129,0.725 -7.178,-0.98 -10.071,0.04c-1.32,0.465 -2.881,1.932 -4.051,2.346c-2.174,0.772 -5.546,-1.492 -7.477,-0.687c-1.268,0.528 -1.581,1.881 -2.994,2.435c-1.335,0.523 -3.445,-1.545 -4.793,-1.729c-2.176,-0.295 -4.258,2.013 -6.392,2.136c-1.639,0.093 -3.478,-2.34 -5.052,-2.272c-1.052,0.048 -2.307,1.762 -3.793,1.777c-2.821,0.03 -5.082,-2.832 -7.448,-2.026c-0.578,0.198 -0.876,0.726 -1.511,0.962c-3.016,1.118 -6.287,-1.628 -9.53,-2.063c-1.285,-0.173 -2.618,0.237 -3.881,0.239c-1.33,0.002 -2.676,-0.265 -4.025,-0.474c-7.718,-1.186 -17.064,-2.525 -25.398,-8.737c-0.413,-0.308 -0.595,-0.595 -1.056,-0.832c-2.04,-1.045 -2.773,2.278 -4.564,1.632c-2.076,-0.748 -2.304,-4.134 -4.968,-4.807c-0.82,-0.204 -1.681,0.37 -2.711,0.161c-2.612,-0.536 -6.055,-3.467 -8.477,-4.935c-4.157,-2.518 -8.038,-2.131 -11.616,-3.951c-3.656,-1.86 -5.156,-5.819 -8.164,-8.18c-1.577,-1.236 -3.327,-1.419 -4.339,-2.41c-0.731,-0.716 -1.041,-2.125 -2.37,-2.944c-1.283,-0.79 -2.947,-0.9 -4.537,-1.927c-3.511,-2.27 -6.098,-6.322 -10.193,-9.412c-0.936,-0.707 -1.981,-1.208 -2.911,-1.949c-1.855,-1.478 -2.002,-3.454 -3.284,-4.911c-1.872,-2.127 -4.648,-2.41 -6.565,-3.902c-2.635,-2.051 -1.913,-4.346 -3.229,-6.478c-0.341,-0.553 -3.425,-2.8 -3.484,-3.317c-0.098,-0.899 1.246,-1.54 1.541,-1.561c1.161,-0.073 2.625,1.857 3.055,2.663c0.079,0.149 0.348,1.973 0.771,1.996c0.5,0.028 2.068,-2.759 1.74,-3.154c-0.156,-0.184 -0.893,0.411 -1.143,0.223c-0.093,-0.069 -0.388,-1.521 -0.515,-1.824c-0.235,-0.567 -0.372,-1.333 -0.942,-1.741c-2.262,-1.621 -5.131,1.603 -7.047,0.709c-1.492,-0.695 -1.139,-2.097 -1.742,-3.139c-0.898,-1.552 -2.663,-2.548 -4.082,-4.09c-1.12,-1.212 -1.979,-2.953 -2.8,-4.339c-3.502,-5.918 -6.597,-11.634 -10.34,-17.528c-1.707,-2.691 -4.171,-6.031 -4.542,-8.962c-0.119,-0.935 0.553,-2.363 0.34,-3.101c-0.258,-0.898 -1.824,-2.018 -2.142,-3.283c-0.354,-1.416 0.28,-3.193 -0.429,-4.359c-0.56,-0.918 -1.808,-1.497 -2.399,-2.345c-2.461,-3.529 -0.994,-8.779 -2.633,-12.368c-0.619,-1.355 -1.901,-2.32 -2.542,-3.799c-0.868,-1.999 -0.507,-5.337 -0.72,-8.005c-0.228,-2.92 -1.753,-5.498 -2.086,-7.811c-0.174,-1.213 0.351,-2.325 0.541,-3.585c0.362,-2.433 -2.811,-5.743 -2.174,-7.497c0.143,-0.397 0.87,-0.704 1.139,-1.334c0.699,-1.63 -0.098,-4.953 -0.089,-7.088c0.006,-1.718 -0.293,-6.067 1.393,-7.455c1.019,-0.842 5.336,-0.175 6.706,0.542c2.484,1.302 1.251,4.604 0.917,6.781c-0.634,4.121 -1.104,7.889 -1.876,12.063c-0.086,0.469 -0.66,2.223 -0.397,2.448c0.216,0.185 1.142,-0.775 1.398,-0.05c0.417,1.187 -2.252,1.369 -2.794,3.061c-0.095,0.296 0.191,1.629 0.77,1.627c1.269,-0.005 1.202,-3.42 2.568,-2.352c-0.53,0.882 -0.971,1.566 -0.885,2.246c0.129,0.988 1.092,0.96 1.713,1.886c0.789,1.178 -1.193,3.951 -0.11,5.352c0.186,0.24 0.91,0.481 1.198,0.803c0.944,1.054 0.788,3.993 0.831,5.613c0.054,1.925 -0.113,4.118 0.26,5.725c0.581,2.489 4.363,6.164 1.975,8.35c2.838,0.329 -0.331,3.556 0.831,4.873c0.567,0.639 1.958,0.696 2.685,1.178c2.462,1.638 0.947,4.915 2.028,7.156c0.73,1.512 3.849,3.594 2.485,4.994c-0.105,0.11 -0.977,0.156 -0.996,0.194c-0.629,1.275 5.333,4.173 2.913,6.022c2.399,-0.523 3.8,3.049 3.485,4.428c-0.68,-0.399 -1.256,-1.372 -1.828,-0.976c-0.847,0.583 2.99,4.38 2.142,5.136c0.293,-0.752 0.548,-1.985 1.368,-1.674c0.573,0.214 0.616,1.925 0.631,2.393c0.078,2.438 -0.859,5.435 -0.309,7.687c0.877,3.587 3.832,2.216 6.678,3.73c1.444,0.766 3.079,2.217 4.083,3.718c-0.19,-0.282 0.369,1.474 0.6,1.513c0.2,0.035 0.652,-0.897 1.027,-0.793c0.281,0.079 0.422,1.649 0.629,2.025c1.738,3.179 7.89,5.751 5.94,9.279c2.923,-0.593 3.807,3.209 2.828,5.223c0.07,-0.275 2.449,-2.939 2.68,-1.781c0.07,0.34 -1.018,1.21 -1.224,1.645c-1.451,3.063 5.988,-0.17 5.737,3.1c-3.068,-2.339 -4.605,3.129 -0.77,2.817c-1.81,-0.364 -1.392,-1.828 -0.373,-2.223c2.346,-0.908 5.854,2.744 6.823,4.812c0.166,0.356 0.273,1.454 0.629,1.656c0.959,0.547 2.201,-1.145 3.224,0.185c0.665,0.863 -2.534,4.814 -2.508,5.968c0.014,0.461 0.61,2.264 1.23,2.056c1.237,-0.418 0.449,-4.488 1.565,-5.489c0.274,-0.246 1.366,-0.397 2.027,0.124c1.856,1.458 -0.756,4.654 -1.081,6.429c1.864,-2.098 5.514,-3.738 7.161,-0.879c-0.7,-1.046 -2.171,0.379 -1.226,0.536Zm248.634,-35.583c-0.995,0.417 -2.462,1.449 -3.305,3.089c-0.18,0.347 -0.798,1.898 -0.084,2.162c1.391,0.517 2.969,-4.58 3.389,-5.251Zm-9.547,14.449c2.4,-1.886 -2.088,-1.395 -1.397,0.053c0.281,0.595 1.059,0.215 1.397,-0.053Zm-1.943,-2.655c-1.783,0.346 -2.38,3.112 -3.878,3.571c-0.321,0.099 -1.949,-0.176 -2.083,-0.039c-0.594,0.613 1.186,1.721 1.601,2.427c0.505,0.863 -0.028,1.74 -0.999,2.789c3.269,-0.896 4.838,-5.987 5.359,-8.748Zm5.418,-6.98c2.032,-1.736 -0.784,-3.599 -2.17,-2.317c1.339,-0.299 1.926,1.08 2.17,2.317Zm-13.173,17.082c-0.138,1.639 -2.301,1.235 -2.537,2.122c-0.01,0.042 0.476,0.971 0.571,1.001c0.706,0.217 3.07,-2.21 1.966,-3.123Zm23.346,-34.323c0.829,0.126 1.953,-1.874 1.683,-2.326c-0.685,-1.153 -1.901,1.673 -1.683,2.326Zm-13.568,20.271c1.721,-0.924 -2.184,-2.018 -1.938,-0.805c0.148,0.748 1.872,0.843 1.938,0.805Zm-10.034,13.141c0.937,-0.448 0.948,-2.218 0.228,-2.191c-0.837,0.027 -0.473,1.812 -0.228,2.191Zm35.914,-56.617c0.421,-0.134 2.275,0.252 2.111,-0.563c-0.074,-0.371 -1.833,0.135 -2.111,0.563Zm-43.154,66.692c0.427,-0.508 1.15,-3.021 -0.346,-3.19c-1.776,-0.201 -1.888,5.838 0.346,3.19Zm-6.874,4.895c0.448,-0.372 0.722,-1.537 0.284,-1.906c-1.538,-1.297 -1.902,3.25 -0.284,1.906Zm-21.875,15.451c1.159,0.308 2.669,0.067 2.739,-1.498c0.015,-0.31 -0.856,-2.277 -1.686,-2.114c-1.186,0.235 0.239,2.772 -1.053,3.612Zm74.777,-190.442c0.875,-0.676 -0.296,-1.96 -1.057,-1.569c-0.664,0.341 -0.168,2.52 1.057,1.569Zm-156.594,209.672c-0.5,0.429 -2.747,1.176 -2.396,2.096c0.31,0.81 2.107,-1.177 2.396,-2.096Zm-25.595,-0.112c0.695,0.54 3.094,0.255 2.598,-0.729c-0.435,-0.861 -2.088,0.171 -2.598,0.729Zm161.106,-249.57c0.818,-0.267 0.441,-2.607 -0.486,-2.422c-0.723,0.144 -0.724,2.815 0.486,2.422Zm-3.029,-8.071c1.113,-0.218 0.075,-3.229 -1.028,-2.17c-0.482,0.465 0.339,2.303 1.028,2.17Zm-2.426,-2.118c0.99,-1.09 0.715,-2.641 -0.003,-3.701c-0.506,-0.748 -0.929,0.793 -0.912,1.362c0.023,0.815 0.666,1.71 0.915,2.339Zm-185.185,254.42c0.617,-0.537 -1.824,-2.011 -2.255,-1.634c-0.876,0.768 1.748,2.075 2.255,1.634Zm-2.739,-1.465c0.705,-1.147 -3.244,-1.428 -1.825,0.133c0.385,0.427 1.64,0.166 1.825,-0.133Zm-67.044,-35.26c0.306,-0.184 1.117,-1.806 0.681,-2.131c-1.041,-0.78 -2.079,2.967 -0.681,2.131Zm-13.507,-16.686c-0.413,0.162 -0.761,0.639 -1.111,1.105c0.402,-0.204 0.755,-0.664 1.111,-1.105Zm-10.365,-11.379c1.903,-2.05 -2.644,-1.015 -1.57,0.307c0.372,0.458 1.042,0.261 1.57,-0.307Zm-10.481,-14.168c1.642,-1.487 -1.737,-1.299 -1.227,0.166c0.144,0.412 1.037,0.007 1.227,-0.166Zm-13.285,-27.021c0.792,-0.153 -0.078,-2.153 -0.799,-1.77c-0.623,0.332 0.125,1.899 0.799,1.77Zm-5.376,-20.497c0.384,-0.126 0.873,-1.109 0.684,-1.391c-0.79,-1.183 -2.06,1.842 -0.684,1.391Zm-8.533,-47.275c0.921,-0.305 -0.026,-2.162 -0.686,-1.939c-0.687,0.235 -0.257,2.256 0.686,1.939Zm39.174,-91.681c-1.06,-0.631 -3.984,4.827 -1.766,3.381c0.96,-0.625 0.945,-2.484 1.766,-3.381Zm12.383,-1.454c2.205,1.013 -3.38,1.954 -2.226,0.361c0.313,-0.435 1.517,-0.686 2.226,-0.361Z" style="fill:#aeaeae;"/></svg>