<?xml version="1.0" encoding="UTF-8" standalone="no"?><!DOCTYPE svg PUBLIC "-//W3C//DTD SVG 1.1//EN" "http://www.w3.org/Graphics/SVG/1.1/DTD/svg11.dtd"><svg width="100%" height="100%" viewBox="0 0 546 546" version="1.1" xmlns="http://www.w3.org/2000/svg" xmlns:xlink="http://www.w3.org/1999/xlink" xml:space="preserve" xmlns:serif="http://www.serif.com/" style="fill-rule:evenodd;clip-rule:evenodd;stroke-linejoin:round;stroke-miterlimit:2;"><rect id="jump_to_code-default" x="0.325" y="0.209" width="541.825" height="541.612" style="fill:none;"/><path d="M281.587,25.771c-132.816,-0.187 -241.022,107.715 -241.209,240.532c-0.187,132.816 107.715,241.018 240.531,241.205c132.813,0.187 241.019,-107.711 241.206,-240.527c0.187,-132.817 -107.715,-241.023 -240.528,-241.21m-0.695,494.237c-139.709,-0.196 -253.211,-114.015 -253.014,-253.723c0.196,-139.708 114.019,-253.21 253.727,-253.014c139.708,0.197 253.206,114.019 253.01,253.728c-0.197,139.708 -114.015,253.206 -253.723,253.009" style="fill:#aeaeae;fill-rule:nonzero;"/><g><path d="M132.302,283.488l0.01,-7.654c1.282,1.315 2.649,2.316 4.103,3.004c1.453,0.689 2.919,1.034 4.396,1.036c1.731,0.002 2.999,-0.428 3.806,-1.293c0.807,-0.864 1.212,-2.243 1.215,-4.138l0.023,-16.874l-8.079,-0.012l0.008,-5.818l14.681,0.02l-0.031,22.693c-0.006,4.073 -0.864,6.985 -2.575,8.736c-1.711,1.75 -4.528,2.623 -8.452,2.617c-1.418,-0.002 -2.898,-0.198 -4.442,-0.588c-1.543,-0.39 -3.098,-0.966 -4.663,-1.729Z" style="fill:#aeaeae;fill-rule:nonzero;"/><path d="M158.678,272.85l0.03,-21.082l6.602,0.009l-0.032,22.738c-0.003,1.671 0.421,2.981 1.27,3.929c0.849,0.949 2.027,1.424 3.534,1.427c1.507,0.002 2.686,-0.47 3.538,-1.417c0.851,-0.946 1.278,-2.254 1.281,-3.925l0.032,-22.738l6.602,0.009l-0.03,21.082c-0.006,4.535 -0.914,7.831 -2.722,9.888c-1.808,2.056 -4.711,3.081 -8.71,3.076c-3.983,-0.006 -6.88,-1.039 -8.69,-3.101c-1.81,-2.061 -2.711,-5.36 -2.705,-9.895Z" style="fill:#aeaeae;fill-rule:nonzero;"/><path d="M184.689,251.805l7.877,0.011l3.963,14.664l3.982,-14.653l7.922,0.011l-0.047,33.413l-5.684,-0.008l0.037,-26.766l-3.556,14.609l-5.259,-0.008l-3.56,-14.619l-0.038,26.766l-5.685,-0.008l0.048,-33.412Z" style="fill:#aeaeae;fill-rule:nonzero;"/><path d="M219.412,257.404l-0.014,9.802l2.708,0.004c2.163,0.003 3.682,-0.361 4.556,-1.09c0.874,-0.73 1.312,-1.998 1.314,-3.803c0.003,-1.805 -0.432,-3.074 -1.303,-3.806c-0.872,-0.733 -2.39,-1.1 -4.553,-1.103l-2.708,-0.004Zm-6.594,-5.56l9.064,0.013c4.61,0.007 7.924,0.832 9.944,2.476c2.019,1.644 3.026,4.308 3.021,7.994c-0.005,3.685 -1.02,6.346 -3.044,7.985c-2.024,1.638 -5.341,2.454 -9.951,2.448l-2.462,-0.004l-0.017,12.51l-6.602,-0.009l0.047,-33.413Z" style="fill:#aeaeae;fill-rule:nonzero;"/><path d="M279.1,285.35l-6.602,-0.009l0.039,-27.639l-8.482,-0.012l0.009,-5.774l23.565,0.034l-0.008,5.774l-8.482,-0.012l-0.039,27.638Z" style="fill:#aeaeae;fill-rule:nonzero;"/><path d="M302.256,257.297c-1.686,-0.003 -2.918,0.894 -3.696,2.691c-0.779,1.797 -1.171,4.702 -1.176,8.715c-0.006,3.999 0.378,6.897 1.151,8.696c0.774,1.799 2.003,2.7 3.689,2.702c1.701,0.003 2.94,-0.894 3.719,-2.691c0.778,-1.797 1.17,-4.695 1.176,-8.693c0.005,-4.013 -0.378,-6.92 -1.152,-8.719c-0.773,-1.798 -2.01,-2.699 -3.711,-2.701Zm-11.743,11.397c0.008,-5.715 1.003,-10.033 2.984,-12.954c1.981,-2.921 4.903,-4.379 8.767,-4.374c3.88,0.005 6.806,1.472 8.778,4.399c1.973,2.927 2.955,7.247 2.947,12.962c-0.008,5.699 -1.002,10.009 -2.983,12.931c-1.981,2.921 -4.911,4.379 -8.79,4.374c-3.865,-0.006 -6.783,-1.472 -8.756,-4.399c-1.972,-2.927 -2.955,-7.24 -2.947,-12.939Z" style="fill:#aeaeae;fill-rule:nonzero;"/><path d="M365.481,284.51c-1.045,0.535 -2.142,0.937 -3.291,1.203c-1.149,0.267 -2.358,0.4 -3.626,0.398c-4.506,-0.006 -7.943,-1.496 -10.311,-4.468c-2.368,-2.972 -3.548,-7.263 -3.54,-12.873c0.008,-5.625 1.2,-9.92 3.576,-12.886c2.377,-2.965 5.818,-4.445 10.324,-4.439c1.268,0.002 2.484,0.138 3.647,0.408c1.163,0.27 2.252,0.675 3.266,1.213l-0.011,7.341c-1.132,-1.046 -2.231,-1.812 -3.297,-2.299c-1.066,-0.486 -2.166,-0.73 -3.3,-0.732c-2.417,-0.003 -4.243,0.953 -5.476,2.868c-1.234,1.916 -1.853,4.761 -1.859,8.536c-0.005,3.759 0.607,6.599 1.835,8.518c1.228,1.918 3.051,2.88 5.468,2.883c1.133,0.002 2.234,-0.239 3.302,-0.723c1.067,-0.483 2.168,-1.246 3.304,-2.289l-0.011,7.341Z" style="fill:#aeaeae;fill-rule:nonzero;"/><path d="M381.542,257.408c-1.686,-0.002 -2.918,0.895 -3.697,2.692c-0.778,1.796 -1.17,4.701 -1.176,8.715c-0.005,3.998 0.378,6.897 1.152,8.696c0.773,1.799 2.003,2.7 3.689,2.702c1.7,0.002 2.94,-0.895 3.718,-2.692c0.779,-1.796 1.171,-4.694 1.176,-8.692c0.006,-4.014 -0.378,-6.92 -1.151,-8.719c-0.773,-1.799 -2.011,-2.699 -3.711,-2.702Zm-11.743,11.397c0.008,-5.714 1.002,-10.032 2.983,-12.953c1.981,-2.922 4.904,-4.38 8.768,-4.374c3.879,0.005 6.805,1.471 8.778,4.398c1.972,2.927 2.955,7.248 2.947,12.962c-0.008,5.7 -1.003,10.01 -2.984,12.931c-1.981,2.922 -4.911,4.38 -8.79,4.374c-3.864,-0.005 -6.783,-1.471 -8.755,-4.398c-1.973,-2.927 -2.955,-7.24 -2.947,-12.94Z" style="fill:#aeaeae;fill-rule:nonzero;"/><path d="M403.851,258.066l-0.03,21.507l1.79,0.002c2.597,0.004 4.448,-0.81 5.554,-2.442c1.106,-1.632 1.662,-4.41 1.668,-8.334c0.005,-3.894 -0.543,-6.655 -1.645,-8.283c-1.101,-1.628 -2.95,-2.444 -5.546,-2.447l-1.791,-0.003Zm-6.593,-5.962l7.072,0.01c5.46,0.008 9.39,1.315 11.788,3.922c2.399,2.607 3.594,6.864 3.585,12.772c-0.008,5.923 -1.215,10.192 -3.621,12.808c-2.406,2.615 -6.339,3.918 -11.799,3.911l-7.072,-0.01l0.047,-33.413Z" style="fill:#aeaeae;fill-rule:nonzero;"/><path d="M445.146,285.584l-20.813,-0.029l0.047,-33.413l20.813,0.029l-0.008,5.819l-14.211,-0.02l-0.01,7.206l12.868,0.018l-0.008,5.819l-12.868,-0.018l-0.013,8.75l14.211,0.02l-0.008,5.819Z" style="fill:#aeaeae;fill-rule:nonzero;"/></g><g><path d="M242.648,76.068l-14.14,3.508l-5.633,-22.7l14.141,-3.509l0.981,3.953l-9.655,2.396l1.214,4.896l8.743,-2.169l0.981,3.953l-8.743,2.169l1.475,5.945l9.655,-2.395l0.981,3.953Z" style="fill:#aeaeae;fill-rule:nonzero;"/><path d="M253.704,70.326l1.237,-19.927l4.603,-0.676l-2.102,23.949l-6.339,0.931l-8.903,-22.331l4.603,-0.677l6.901,18.731Z" style="fill:#aeaeae;fill-rule:nonzero;"/><path d="M281.039,71.934l-14.554,0.663l-1.065,-23.364l14.554,-0.664l0.186,4.069l-9.938,0.453l0.23,5.039l8.998,-0.41l0.186,4.069l-8.999,0.41l0.279,6.119l9.938,-0.453l0.185,4.069Z" style="fill:#aeaeae;fill-rule:nonzero;"/><path d="M286.246,48.566l4.959,0.259l5.623,17.313l0.885,-16.974l4.068,0.212l-1.219,23.358l-4.928,-0.257l-5.654,-17.316l-0.885,16.974l-4.067,-0.212l1.218,-23.357Z" style="fill:#aeaeae;fill-rule:nonzero;"/><path d="M314.28,74.631l-4.569,-0.694l2.905,-19.128l-5.87,-0.892l0.607,-3.996l16.309,2.478l-0.607,3.995l-5.87,-0.891l-2.905,19.128Z" style="fill:#aeaeae;fill-rule:nonzero;"/><path d="M331.884,67.771c-2.039,-1.434 -3.338,-2.726 -3.897,-3.876c-0.559,-1.149 -0.635,-2.524 -0.229,-4.123c0.522,-2.055 1.59,-3.502 3.205,-4.342c1.614,-0.84 3.57,-0.968 5.867,-0.384c1.043,0.265 2.055,0.649 3.038,1.152c0.982,0.502 1.925,1.117 2.829,1.842l-1.111,4.373c-0.79,-0.923 -1.635,-1.687 -2.537,-2.294c-0.902,-0.606 -1.839,-1.033 -2.811,-1.279c-1.083,-0.276 -1.968,-0.269 -2.656,0.02c-0.687,0.288 -1.134,0.838 -1.34,1.647c-0.159,0.628 -0.081,1.2 0.235,1.717c0.316,0.516 1.079,1.192 2.289,2.028l1.743,1.219c1.652,1.131 2.769,2.357 3.349,3.679c0.58,1.322 0.656,2.823 0.229,4.503c-0.581,2.288 -1.691,3.825 -3.329,4.61c-1.638,0.785 -3.823,0.83 -6.556,0.136c-1.124,-0.286 -2.216,-0.706 -3.276,-1.261c-1.061,-0.555 -2.051,-1.229 -2.97,-2.023l1.177,-4.631c0.978,1.154 1.974,2.08 2.987,2.78c1.013,0.699 2.066,1.187 3.16,1.465c1.103,0.28 2.022,0.247 2.756,-0.1c0.735,-0.346 1.217,-0.97 1.446,-1.871c0.172,-0.678 0.121,-1.324 -0.154,-1.938c-0.275,-0.614 -0.76,-1.166 -1.455,-1.655l-1.989,-1.394Z" style="fill:#aeaeae;fill-rule:nonzero;"/><path d="M374.069,94.449l-13.149,-6.274l10.073,-21.109l13.149,6.274l-1.754,3.676l-8.978,-4.284l-2.173,4.553l8.13,3.879l-1.754,3.676l-8.13,-3.879l-2.638,5.528l8.978,4.284l-1.754,3.676Z" style="fill:#aeaeae;fill-rule:nonzero;"/><path d="M386.224,97.025l13.617,-14.601l3.985,2.403l-16.842,17.156l-5.487,-3.309l7.317,-22.9l3.985,2.403l-6.575,18.848Z" style="fill:#aeaeae;fill-rule:nonzero;"/><path d="M406.28,115.617l-11.66,-8.736l14.024,-18.718l11.659,8.735l-2.442,3.26l-7.961,-5.965l-3.024,4.037l7.209,5.401l-2.443,3.26l-7.209,-5.401l-3.672,4.902l7.961,5.965l-2.442,3.26Z" style="fill:#aeaeae;fill-rule:nonzero;"/><path d="M425.145,100.877l3.666,3.35l-6.655,16.944l11.466,-12.548l3.007,2.747l-15.777,17.267l-3.643,-3.329l6.631,-16.965l-11.465,12.548l-3.007,-2.748l15.777,-17.266Z" style="fill:#aeaeae;fill-rule:nonzero;"/><path d="M430.285,138.857l-3.089,-3.438l14.393,-12.929l-3.967,-4.417l3.006,-2.701l11.024,12.272l-3.007,2.701l-3.968,-4.417l-14.392,12.929Z" style="fill:#aeaeae;fill-rule:nonzero;"/><path d="M448.205,144.695c-0.664,-2.403 -0.847,-4.225 -0.549,-5.468c0.299,-1.243 1.113,-2.354 2.442,-3.331c1.709,-1.255 3.453,-1.695 5.233,-1.318c1.781,0.377 3.373,1.52 4.777,3.431c0.636,0.867 1.175,1.806 1.614,2.818c0.439,1.012 0.777,2.086 1.015,3.22l-3.636,2.672c-0.023,-1.214 -0.191,-2.342 -0.502,-3.383c-0.312,-1.041 -0.765,-1.966 -1.358,-2.773c-0.662,-0.901 -1.35,-1.458 -2.065,-1.672c-0.714,-0.214 -1.408,-0.073 -2.081,0.422c-0.522,0.383 -0.825,0.875 -0.909,1.474c-0.084,0.6 0.076,1.607 0.48,3.021l0.572,2.048c0.558,1.923 0.641,3.58 0.249,4.969c-0.392,1.389 -1.286,2.598 -2.683,3.624c-1.902,1.398 -3.735,1.88 -5.499,1.446c-1.764,-0.434 -3.481,-1.787 -5.151,-4.06c-0.686,-0.934 -1.262,-1.952 -1.729,-3.054c-0.467,-1.102 -0.803,-2.252 -1.008,-3.449l3.85,-2.829c0.023,1.512 0.203,2.86 0.542,4.044c0.338,1.183 0.841,2.23 1.509,3.139c0.674,0.917 1.405,1.475 2.193,1.674c0.787,0.199 1.556,0.023 2.305,-0.528c0.564,-0.414 0.934,-0.946 1.112,-1.595c0.178,-0.649 0.153,-1.383 -0.073,-2.201l-0.65,-2.341Z" style="fill:#aeaeae;fill-rule:nonzero;"/><path d="M463.835,192.114l-6.171,-13.197l21.186,-9.908l6.172,13.197l-3.689,1.725l-4.214,-9.011l-4.57,2.137l3.816,8.16l-3.69,1.725l-3.815,-8.159l-5.549,2.594l4.214,9.011l-3.69,1.726Z" style="fill:#aeaeae;fill-rule:nonzero;"/><path d="M471.604,201.833l19.788,-2.651l1.556,4.385l-23.901,2.582l-2.144,-6.038l20.182,-13.064l1.556,4.385l-17.037,10.401Z" style="fill:#aeaeae;fill-rule:nonzero;"/><path d="M475.334,228.924l-3.487,-14.146l22.709,-5.598l3.487,14.146l-3.955,0.975l-2.381,-9.659l-4.897,1.208l2.156,8.746l-3.955,0.974l-2.156,-8.746l-5.947,1.467l2.381,9.658l-3.955,0.975Z" style="fill:#aeaeae;fill-rule:nonzero;"/><path d="M499.273,229.491l0.715,4.914l-15.883,8.895l16.82,-2.445l0.586,4.03l-23.145,3.365l-0.71,-4.883l15.878,-8.926l-16.82,2.446l-0.586,-4.031l23.145,-3.365Z" style="fill:#aeaeae;fill-rule:nonzero;"/><path d="M479.18,262.055l-0.21,-4.616l19.327,-0.881l-0.27,-5.931l4.037,-0.184l0.751,16.479l-4.037,0.184l-0.27,-5.931l-19.328,0.88Z" style="fill:#aeaeae;fill-rule:nonzero;"/><path d="M489.333,277.963c1.012,-2.278 2.027,-3.803 3.047,-4.574c1.019,-0.771 2.353,-1.112 4.001,-1.024c2.117,0.115 3.744,0.882 4.88,2.303c1.137,1.421 1.641,3.315 1.514,5.682c-0.058,1.075 -0.239,2.142 -0.542,3.203c-0.303,1.061 -0.722,2.105 -1.259,3.133l-4.505,-0.243c0.752,-0.953 1.338,-1.931 1.758,-2.933c0.42,-1.003 0.657,-2.004 0.711,-3.006c0.061,-1.115 -0.118,-1.983 -0.534,-2.601c-0.416,-0.619 -1.042,-0.951 -1.876,-0.996c-0.646,-0.035 -1.193,0.153 -1.638,0.563c-0.446,0.41 -0.961,1.29 -1.547,2.639l-0.858,1.946c-0.789,1.84 -1.776,3.172 -2.961,3.998c-1.184,0.825 -2.642,1.191 -4.373,1.097c-2.357,-0.127 -4.079,-0.918 -5.167,-2.373c-1.088,-1.455 -1.556,-3.59 -1.404,-6.406c0.062,-1.157 0.263,-2.31 0.602,-3.458c0.339,-1.148 0.809,-2.249 1.41,-3.305l4.771,0.257c-0.942,1.184 -1.658,2.34 -2.148,3.469c-0.49,1.13 -0.765,2.258 -0.826,3.384c-0.061,1.137 0.15,2.032 0.632,2.685c0.483,0.654 1.188,1.006 2.116,1.056c0.699,0.037 1.323,-0.138 1.872,-0.527c0.549,-0.389 0.996,-0.971 1.341,-1.747l0.983,-2.222Z" style="fill:#aeaeae;fill-rule:nonzero;"/><path d="M471.275,324.52l3.621,-14.112l22.655,5.814l-3.621,14.112l-3.946,-1.012l2.473,-9.636l-4.886,-1.254l-2.239,8.725l-3.945,-1.012l2.239,-8.725l-5.933,-1.523l-2.473,9.636l-3.945,-1.013Z" style="fill:#aeaeae;fill-rule:nonzero;"/><path d="M471.105,336.963l16.971,10.516l-1.582,4.376l-20.105,-13.182l2.178,-6.025l23.887,2.721l-1.582,4.375l-19.767,-2.781Z" style="fill:#aeaeae;fill-rule:nonzero;"/><path d="M456.785,360.258l6.29,-13.141l21.097,10.097l-6.29,13.142l-3.674,-1.759l4.295,-8.973l-4.55,-2.177l-3.889,8.125l-3.674,-1.759l3.889,-8.125l-5.525,-2.644l-4.295,8.973l-3.674,-1.759Z" style="fill:#aeaeae;fill-rule:nonzero;"/><path d="M474.913,375.904l-2.57,4.249l-17.917,-3.222l14.543,8.798l-2.108,3.485l-20.012,-12.106l2.554,-4.223l17.933,3.196l-14.543,-8.798l2.108,-3.485l20.012,12.106Z" style="fill:#aeaeae;fill-rule:nonzero;"/><path d="M438.661,388.344l2.772,-3.698l15.48,11.606l3.561,-4.75l3.234,2.425l-9.896,13.198l-3.233,-2.425l3.561,-4.75l-15.479,-11.606Z" style="fill:#aeaeae;fill-rule:nonzero;"/><path d="M436.421,407.041c2.229,-1.116 3.982,-1.649 5.259,-1.597c1.277,0.053 2.524,0.636 3.74,1.752c1.562,1.433 2.331,3.059 2.306,4.878c-0.025,1.82 -0.838,3.603 -2.441,5.35c-0.727,0.793 -1.544,1.503 -2.452,2.13c-0.908,0.626 -1.896,1.166 -2.963,1.619l-3.325,-3.05c1.186,-0.258 2.26,-0.641 3.221,-1.148c0.962,-0.507 1.781,-1.13 2.459,-1.869c0.755,-0.824 1.168,-1.606 1.24,-2.349c0.071,-0.742 -0.201,-1.395 -0.817,-1.96c-0.477,-0.438 -1.018,-0.64 -1.622,-0.606c-0.605,0.033 -1.562,0.385 -2.871,1.055l-1.899,0.958c-1.778,0.919 -3.387,1.321 -4.826,1.206c-1.439,-0.115 -2.798,-0.759 -4.075,-1.931c-1.74,-1.595 -2.567,-3.3 -2.483,-5.115c0.084,-1.814 1.079,-3.761 2.986,-5.839c0.783,-0.854 1.67,-1.617 2.662,-2.288c0.991,-0.671 2.053,-1.223 3.188,-1.657l3.521,3.23c-1.48,0.315 -2.767,0.753 -3.863,1.314c-1.095,0.562 -2.024,1.258 -2.787,2.089c-0.769,0.839 -1.175,1.664 -1.218,2.475c-0.043,0.811 0.279,1.531 0.964,2.159c0.515,0.473 1.109,0.734 1.78,0.783c0.671,0.048 1.386,-0.117 2.146,-0.498l2.17,-1.091Z" style="fill:#aeaeae;fill-rule:nonzero;"/><path d="M392.92,431.52l11.761,-8.599l13.805,18.881l-11.761,8.599l-2.404,-3.288l8.03,-5.872l-2.977,-4.072l-7.272,5.317l-2.404,-3.288l7.272,-5.317l-3.615,-4.944l-8.031,5.871l-2.404,-3.288Z" style="fill:#aeaeae;fill-rule:nonzero;"/><path d="M384.866,441.024l6.416,18.906l-4.003,2.372l-7.14,-22.956l5.512,-3.266l16.709,17.285l-4.003,2.372l-13.491,-14.713Z" style="fill:#aeaeae;fill-rule:nonzero;"/><path d="M358.989,449.921l13.206,-6.154l9.88,21.199l-13.206,6.155l-1.72,-3.692l9.016,-4.202l-2.13,-4.573l-8.165,3.806l-1.721,-3.692l8.165,-3.805l-2.588,-5.552l-9.016,4.202l-1.721,-3.692Z" style="fill:#aeaeae;fill-rule:nonzero;"/><path d="M363.133,473.491l-4.682,1.656l-11.811,-13.852l5.667,16.025l-3.84,1.358l-7.798,-22.051l4.653,-1.645l11.84,13.842l-5.667,-16.025l3.84,-1.358l7.798,22.05Z" style="fill:#aeaeae;fill-rule:nonzero;"/><path d="M327.246,460.128l4.487,-1.106l4.631,18.785l5.765,-1.421l0.967,3.924l-16.016,3.949l-0.968,-3.925l5.765,-1.421l-4.631,-18.785Z" style="fill:#aeaeae;fill-rule:nonzero;"/><path d="M313.651,473.187c2.431,0.547 4.125,1.245 5.081,2.094c0.955,0.849 1.551,2.09 1.785,3.724c0.302,2.098 -0.132,3.844 -1.304,5.236c-1.171,1.393 -2.93,2.257 -5.277,2.595c-1.065,0.153 -2.147,0.185 -3.247,0.095c-1.099,-0.09 -2.205,-0.297 -3.318,-0.623l-0.642,-4.465c1.082,0.551 2.155,0.935 3.22,1.151c1.065,0.216 2.094,0.253 3.086,0.11c1.106,-0.159 1.922,-0.503 2.447,-1.033c0.526,-0.529 0.729,-1.207 0.61,-2.034c-0.092,-0.641 -0.383,-1.14 -0.872,-1.497c-0.489,-0.357 -1.453,-0.691 -2.89,-1.001l-2.076,-0.461c-1.959,-0.414 -3.459,-1.122 -4.5,-2.122c-1.041,-1.001 -1.684,-2.359 -1.931,-4.075c-0.336,-2.336 0.103,-4.18 1.317,-5.531c1.215,-1.351 3.217,-2.227 6.008,-2.629c1.148,-0.165 2.317,-0.193 3.51,-0.085c1.192,0.108 2.364,0.353 3.516,0.736l0.68,4.73c-1.344,-0.693 -2.618,-1.169 -3.822,-1.429c-1.203,-0.259 -2.363,-0.309 -3.479,-0.148c-1.127,0.162 -1.964,0.543 -2.51,1.144c-0.547,0.601 -0.754,1.362 -0.622,2.282c0.1,0.692 0.394,1.27 0.883,1.732c0.488,0.463 1.147,0.788 1.976,0.974l2.371,0.53Z" style="fill:#aeaeae;fill-rule:nonzero;"/><path d="M264.449,464.541l14.546,0.822l-1.319,23.351l-14.545,-0.821l0.229,-4.067l9.932,0.561l0.285,-5.036l-8.994,-0.508l0.23,-4.067l8.993,0.508l0.346,-6.115l-9.932,-0.561l0.229,-4.067Z" style="fill:#aeaeae;fill-rule:nonzero;"/><path d="M252.164,466.758l-7.066,18.672l-4.598,-0.713l9.081,-22.26l6.332,0.982l1.91,23.965l-4.598,-0.713l-1.061,-19.933Z" style="fill:#aeaeae;fill-rule:nonzero;"/><path d="M226.555,457.181l14.107,3.641l-5.846,22.647l-14.106,-3.641l1.018,-3.944l9.632,2.486l1.26,-4.884l-8.722,-2.252l1.018,-3.943l8.722,2.251l1.531,-5.931l-9.632,-2.486l1.018,-3.944Z" style="fill:#aeaeae;fill-rule:nonzero;"/><path d="M214.753,478.009l-4.668,-1.694l-0.325,-18.201l-5.801,15.977l-3.828,-1.39l7.981,-21.985l4.639,1.684l0.355,18.211l5.8,-15.977l3.829,1.39l-7.982,21.985Z" style="fill:#aeaeae;fill-rule:nonzero;"/><path d="M195.5,444.883l4.168,1.997l-8.359,17.448l5.354,2.565l-1.746,3.645l-14.877,-7.127l1.747,-3.645l5.354,2.565l8.359,-17.448Z" style="fill:#aeaeae;fill-rule:nonzero;"/><path d="M176.736,446.344c1.53,1.968 2.394,3.583 2.592,4.846c0.199,1.263 -0.13,2.6 -0.987,4.01c-1.101,1.812 -2.546,2.883 -4.335,3.214c-1.789,0.331 -3.697,-0.119 -5.723,-1.35c-0.92,-0.558 -1.775,-1.222 -2.567,-1.99c-0.792,-0.768 -1.515,-1.631 -2.167,-2.589l2.342,-3.857c0.485,1.114 1.07,2.092 1.755,2.936c0.685,0.843 1.456,1.526 2.313,2.046c0.955,0.58 1.804,0.833 2.546,0.758c0.742,-0.075 1.329,-0.469 1.763,-1.183c0.336,-0.554 0.429,-1.124 0.278,-1.71c-0.151,-0.587 -0.683,-1.457 -1.595,-2.61l-1.31,-1.675c-1.249,-1.565 -1.958,-3.065 -2.125,-4.498c-0.168,-1.434 0.198,-2.892 1.098,-4.374c1.225,-2.017 2.736,-3.162 4.532,-3.433c1.796,-0.272 3.899,0.325 6.309,1.788c0.991,0.602 1.912,1.324 2.764,2.165c0.852,0.841 1.601,1.775 2.247,2.803l-2.48,4.084c-0.598,-1.39 -1.279,-2.567 -2.043,-3.532c-0.764,-0.965 -1.628,-1.74 -2.592,-2.326c-0.973,-0.591 -1.862,-0.828 -2.666,-0.711c-0.804,0.116 -1.447,0.572 -1.929,1.366c-0.364,0.598 -0.504,1.231 -0.42,1.899c0.083,0.667 0.385,1.337 0.906,2.008l1.494,1.915Z" style="fill:#aeaeae;fill-rule:nonzero;"/><path d="M144.26,408.42l10.712,9.875l-15.852,17.197l-10.712,-9.874l2.76,-2.995l7.315,6.742l3.418,-3.709l-6.623,-6.105l2.761,-2.995l6.623,6.105l4.152,-4.504l-7.315,-6.742l2.761,-2.995Z" style="fill:#aeaeae;fill-rule:nonzero;"/><path d="M133.401,402.376l-17.312,9.944l-3.1,-3.47l21.146,-11.437l4.269,4.778l-13.735,19.731l-3.1,-3.469l11.832,-16.077Z" style="fill:#aeaeae;fill-rule:nonzero;"/><path d="M119.677,378.691l8.583,11.772l-18.899,13.78l-8.583,-11.772l3.291,-2.4l5.861,8.038l4.076,-2.972l-5.307,-7.278l3.291,-2.4l5.307,7.278l4.949,-3.608l-5.861,-8.038l3.292,-2.4Z" style="fill:#aeaeae;fill-rule:nonzero;"/><path d="M97.317,387.252l-2.526,-4.275l11.318,-14.257l-14.633,8.646l-2.072,-3.506l20.136,-11.899l2.51,4.249l-11.302,14.284l14.633,-8.646l2.072,3.506l-20.136,11.898Z" style="fill:#aeaeae;fill-rule:nonzero;"/><path d="M103.506,349.449l1.951,4.189l-17.537,8.17l2.507,5.382l-3.664,1.706l-6.966,-14.953l3.664,-1.707l2.507,5.382l17.538,-8.169Z" style="fill:#aeaeae;fill-rule:nonzero;"/><path d="M88.073,338.66c-0.065,2.491 -0.422,4.288 -1.069,5.391c-0.648,1.102 -1.75,1.927 -3.307,2.474c-2,0.703 -3.797,0.615 -5.39,-0.264c-1.593,-0.879 -2.783,-2.437 -3.569,-4.674c-0.357,-1.015 -0.598,-2.07 -0.723,-3.166c-0.125,-1.096 -0.136,-2.222 -0.033,-3.376l4.257,-1.497c-0.331,1.169 -0.5,2.296 -0.505,3.383c-0.005,1.087 0.158,2.103 0.491,3.049c0.37,1.054 0.866,1.787 1.487,2.2c0.621,0.413 1.326,0.481 2.114,0.203c0.611,-0.214 1.044,-0.596 1.299,-1.145c0.256,-0.55 0.396,-1.559 0.422,-3.03l0.049,-2.126c0.027,-2.002 0.43,-3.611 1.21,-4.826c0.779,-1.215 1.987,-2.11 3.623,-2.684c2.226,-0.783 4.12,-0.71 5.681,0.219c1.561,0.929 2.809,2.724 3.744,5.384c0.385,1.094 0.64,2.236 0.765,3.426c0.125,1.191 0.111,2.388 -0.041,3.593l-4.508,1.585c0.419,-1.454 0.639,-2.796 0.661,-4.027c0.021,-1.231 -0.156,-2.378 -0.53,-3.442c-0.377,-1.074 -0.914,-1.821 -1.609,-2.241c-0.696,-0.419 -1.482,-0.475 -2.359,-0.167c-0.66,0.232 -1.169,0.633 -1.529,1.202c-0.359,0.569 -0.549,1.278 -0.572,2.127l-0.059,2.429Z" style="fill:#aeaeae;fill-rule:nonzero;"/><path d="M86.975,288.746l2.036,14.426l-23.16,3.268l-2.035,-14.426l4.033,-0.569l1.39,9.85l4.994,-0.705l-1.258,-8.92l4.033,-0.569l1.259,8.92l6.065,-0.856l-1.39,-9.85l4.033,-0.569Z" style="fill:#aeaeae;fill-rule:nonzero;"/><path d="M82.404,277.147l-19.692,-3.287l-0.198,-4.649l23.604,4.564l0.272,6.402l-23.132,6.549l-0.197,-4.649l19.343,-4.93Z" style="fill:#aeaeae;fill-rule:nonzero;"/><path d="M86.829,250.13l-0.845,14.544l-23.349,-1.355l0.844,-14.544l4.066,0.236l-0.576,9.931l5.036,0.292l0.522,-8.993l4.066,0.236l-0.522,8.993l6.115,0.355l0.576,-9.931l4.067,0.236Z" style="fill:#aeaeae;fill-rule:nonzero;"/><path d="M64.119,242.574l0.767,-4.906l17.8,-3.814l-16.793,-2.625l0.629,-4.024l23.108,3.612l-0.762,4.876l-17.805,3.844l16.793,2.625l-0.629,4.024l-23.108,-3.612Z" style="fill:#aeaeae;fill-rule:nonzero;"/><path d="M92.927,217.318l-1.155,4.474l-18.733,-4.839l-1.485,5.749l-3.913,-1.011l4.126,-15.972l3.913,1.011l-1.485,5.749l18.732,4.839Z" style="fill:#aeaeae;fill-rule:nonzero;"/><path d="M87.85,199.209c-1.632,1.884 -3.048,3.046 -4.248,3.487c-1.2,0.44 -2.575,0.377 -4.126,-0.188c-1.991,-0.727 -3.323,-1.936 -3.996,-3.626c-0.673,-1.691 -0.603,-3.65 0.209,-5.877c0.369,-1.011 0.853,-1.979 1.452,-2.905c0.6,-0.927 1.306,-1.803 2.119,-2.63l4.238,1.547c-0.997,0.692 -1.843,1.456 -2.537,2.293c-0.695,0.836 -1.214,1.725 -1.557,2.667c-0.383,1.049 -0.466,1.931 -0.248,2.644c0.218,0.713 0.719,1.213 1.504,1.499c0.609,0.222 1.186,0.202 1.732,-0.06c0.545,-0.262 1.295,-0.953 2.248,-2.073l1.389,-1.611c1.291,-1.53 2.624,-2.517 3.998,-2.96c1.374,-0.444 2.875,-0.369 4.503,0.225c2.218,0.809 3.634,2.068 4.25,3.777c0.617,1.709 0.441,3.888 -0.525,6.537c-0.397,1.089 -0.926,2.133 -1.585,3.132c-0.659,0.999 -1.43,1.916 -2.312,2.75l-4.489,-1.638c1.247,-0.857 2.269,-1.754 3.067,-2.691c0.798,-0.938 1.39,-1.936 1.776,-2.996c0.39,-1.069 0.45,-1.987 0.179,-2.753c-0.271,-0.765 -0.843,-1.308 -1.716,-1.626c-0.657,-0.24 -1.305,-0.254 -1.944,-0.042c-0.639,0.211 -1.236,0.638 -1.793,1.28l-1.588,1.838Z" style="fill:#aeaeae;fill-rule:nonzero;"/><path d="M118.711,159.945l-7.595,12.433l-19.959,-12.192l7.594,-12.433l3.476,2.123l-5.186,8.489l4.305,2.63l4.696,-7.687l3.476,2.123l-4.696,7.687l5.227,3.193l5.186,-8.489l3.476,2.123Z" style="fill:#aeaeae;fill-rule:nonzero;"/><path d="M122.542,148.098l-13.117,-15.051l2.801,-3.715l15.327,18.522l-3.857,5.116l-22.024,-9.641l2.801,-3.715l18.069,8.484Z" style="fill:#aeaeae;fill-rule:nonzero;"/><path d="M143.104,130.06l-9.888,10.699l-17.177,-15.875l9.889,-10.699l2.991,2.765l-6.752,7.305l3.705,3.424l6.114,-6.615l2.991,2.764l-6.114,6.615l4.498,4.158l6.752,-7.306l2.991,2.765Z" style="fill:#aeaeae;fill-rule:nonzero;"/><path d="M130.394,109.767l3.708,-3.303l16.172,8.357l-11.306,-12.692l3.042,-2.709l15.557,17.464l-3.684,3.282l-16.196,-8.335l11.306,12.691l-3.041,2.71l-15.558,-17.465Z" style="fill:#aeaeae;fill-rule:nonzero;"/><path d="M168.691,108.549l-3.735,2.721l-11.393,-15.637l-4.798,3.496l-2.38,-3.266l13.332,-9.714l2.38,3.267l-4.798,3.496l11.392,15.637Z" style="fill:#aeaeae;fill-rule:nonzero;"/><path d="M176.286,91.34c-2.458,0.417 -4.29,0.414 -5.496,-0.009c-1.207,-0.423 -2.228,-1.346 -3.065,-2.768c-1.076,-1.827 -1.336,-3.607 -0.78,-5.34c0.555,-1.733 1.855,-3.2 3.898,-4.403c0.927,-0.545 1.916,-0.985 2.968,-1.32c1.051,-0.334 2.153,-0.561 3.306,-0.682l2.289,3.888c-1.21,-0.1 -2.349,-0.048 -3.417,0.156c-1.067,0.205 -2.033,0.561 -2.897,1.07c-0.963,0.566 -1.587,1.194 -1.872,1.883c-0.285,0.689 -0.216,1.394 0.208,2.114c0.328,0.558 0.786,0.909 1.375,1.054c0.588,0.145 1.605,0.088 3.053,-0.171l2.096,-0.361c1.97,-0.359 3.626,-0.274 4.968,0.257c1.343,0.531 2.454,1.543 3.333,3.037c1.198,2.034 1.491,3.907 0.88,5.617c-0.611,1.711 -2.131,3.282 -4.561,4.712c-0.999,0.588 -2.071,1.058 -3.215,1.411c-1.144,0.352 -2.322,0.569 -3.533,0.652l-2.424,-4.117c1.507,0.131 2.867,0.088 4.078,-0.129c1.212,-0.216 2.304,-0.61 3.276,-1.182c0.981,-0.578 1.611,-1.248 1.888,-2.012c0.278,-0.763 0.181,-1.545 -0.29,-2.346c-0.355,-0.603 -0.846,-1.026 -1.474,-1.269c-0.628,-0.242 -1.36,-0.293 -2.198,-0.151l-2.394,0.409Z" style="fill:#aeaeae;fill-rule:nonzero;"/></g><g><path d="M110.411,231.601l343.78,-1.452c-0,0 0.042,0.186 -0,0c-18.731,-82.219 -89.016,-133.426 -165.251,-135.419c-74.017,-1.936 -153.935,42.725 -178.529,136.871Z" style="fill:#aeaeae;"/><clipPath id="_clip1"><path d="M110.411,231.601l343.78,-1.452c-0,0 0.042,0.186 -0,0c-18.731,-82.219 -89.016,-133.426 -165.251,-135.419c-74.017,-1.936 -153.935,42.725 -178.529,136.871Z"/></clipPath><g clip-path="url(#_clip1)"><g><g><g><path d="M2.538,87.475c-6.053,-0 -10.965,4.912 -10.965,10.965c0,6.053 4.912,10.965 10.965,10.965c6.053,-0 10.965,-4.912 10.965,-10.965c0,-6.053 -4.912,-10.965 -10.965,-10.965Zm1.097,16.447l-2.193,0l-0,-6.579l2.193,0l-0,6.579Zm-0,-8.772l-2.193,0l-0,-2.193l2.193,0l-0,2.193Z" style="fill:#e2eaef;fill-rule:nonzero;"/><path d="M42.674,87.47c-1.004,0 -1.826,0.823 -1.826,1.829l-0,18.282c-0,1.006 0.822,1.828 1.826,1.828c1.005,0 1.827,-0.822 1.827,-1.828l0,-18.282c0,-1.006 -0.822,-1.829 -1.827,-1.829Zm-6.685,12.469l-10.54,7.441c-1.206,0.859 -2.887,-0.018 -2.887,-1.499l0,-14.882c0,-1.481 1.663,-2.34 2.887,-1.499l10.54,7.441c1.041,0.731 1.041,2.267 -0,2.998Z" style="fill:#e2eaef;fill-rule:nonzero;"/><path d="M64.955,88.315c-0.409,-0.409 -0.958,-0.635 -1.528,-0.635l-7.715,0c-1.183,0 -2.152,0.969 -2.152,2.152l0,17.216c0,1.183 0.958,2.152 2.142,2.152l12.922,-0c1.184,-0 2.152,-0.969 2.152,-2.152l-0,-12.019c-0,-0.57 -0.226,-1.119 -0.635,-1.517l-5.186,-5.197Zm0.441,16.581l-6.456,-0c-0.592,-0 -1.076,-0.484 -1.076,-1.076c0,-0.592 0.484,-1.076 1.076,-1.076l6.456,-0c0.592,-0 1.076,0.484 1.076,1.076c0,0.592 -0.484,1.076 -1.076,1.076Zm0,-4.304l-6.456,-0c-0.592,-0 -1.076,-0.484 -1.076,-1.076c0,-0.592 0.484,-1.076 1.076,-1.076l6.456,-0c0.592,-0 1.076,0.484 1.076,1.076c0,0.592 -0.484,1.076 -1.076,1.076Zm-2.152,-6.456l0,-4.842l5.918,5.918l-4.842,-0c-0.592,-0 -1.076,-0.484 -1.076,-1.076Z" style="fill:#e2eaef;fill-rule:nonzero;"/></g><g><path d="M94.449,87.475c-6.053,-0 -10.965,4.912 -10.965,10.965c-0,6.053 4.912,10.965 10.965,10.965c6.052,-0 10.965,-4.912 10.965,-10.965c-0,-6.053 -4.913,-10.965 -10.965,-10.965Zm1.096,16.447l-2.193,0l0,-6.579l2.193,0l0,6.579Zm0,-8.772l-2.193,0l0,-2.193l2.193,0l0,2.193Z" style="fill:#e2eaef;fill-rule:nonzero;"/><path d="M134.585,87.47c-1.005,0 -1.827,0.823 -1.827,1.829l0,18.282c0,1.006 0.822,1.828 1.827,1.828c1.005,0 1.827,-0.822 1.827,-1.828l-0,-18.282c-0,-1.006 -0.822,-1.829 -1.827,-1.829Zm-6.686,12.469l-10.54,7.441c-1.206,0.859 -2.886,-0.018 -2.886,-1.499l-0,-14.882c-0,-1.481 1.662,-2.34 2.886,-1.499l10.54,7.441c1.041,0.731 1.041,2.267 0,2.998Z" style="fill:#e2eaef;fill-rule:nonzero;"/><path d="M156.865,88.315c-0.408,-0.409 -0.957,-0.635 -1.527,-0.635l-7.715,0c-1.184,0 -2.152,0.969 -2.152,2.152l-0,17.216c-0,1.183 0.957,2.152 2.141,2.152l12.922,-0c1.184,-0 2.152,-0.969 2.152,-2.152l0,-12.019c0,-0.57 -0.226,-1.119 -0.634,-1.517l-5.187,-5.197Zm0.442,16.581l-6.456,-0c-0.592,-0 -1.076,-0.484 -1.076,-1.076c-0,-0.592 0.484,-1.076 1.076,-1.076l6.456,-0c0.591,-0 1.076,0.484 1.076,1.076c-0,0.592 -0.485,1.076 -1.076,1.076Zm-0,-4.304l-6.456,-0c-0.592,-0 -1.076,-0.484 -1.076,-1.076c-0,-0.592 0.484,-1.076 1.076,-1.076l6.456,-0c0.591,-0 1.076,0.484 1.076,1.076c-0,0.592 -0.485,1.076 -1.076,1.076Zm-2.152,-6.456l-0,-4.842l5.917,5.918l-4.841,-0c-0.592,-0 -1.076,-0.484 -1.076,-1.076Z" style="fill:#e2eaef;fill-rule:nonzero;"/></g><g><path d="M186.359,87.475c-6.053,-0 -10.965,4.912 -10.965,10.965c0,6.053 4.912,10.965 10.965,10.965c6.053,-0 10.965,-4.912 10.965,-10.965c0,-6.053 -4.912,-10.965 -10.965,-10.965Zm1.097,16.447l-2.193,0l-0,-6.579l2.193,0l-0,6.579Zm-0,-8.772l-2.193,0l-0,-2.193l2.193,0l-0,2.193Z" style="fill:#e2eaef;fill-rule:nonzero;"/><path d="M226.495,87.47c-1.004,0 -1.826,0.823 -1.826,1.829l-0,18.282c-0,1.006 0.822,1.828 1.826,1.828c1.005,0 1.827,-0.822 1.827,-1.828l0,-18.282c0,-1.006 -0.822,-1.829 -1.827,-1.829Zm-6.685,12.469l-10.54,7.441c-1.206,0.859 -2.887,-0.018 -2.887,-1.499l0,-14.882c0,-1.481 1.663,-2.34 2.887,-1.499l10.54,7.441c1.041,0.731 1.041,2.267 -0,2.998Z" style="fill:#e2eaef;fill-rule:nonzero;"/><path d="M248.776,88.315c-0.409,-0.409 -0.958,-0.635 -1.528,-0.635l-7.715,0c-1.183,0 -2.152,0.969 -2.152,2.152l0,17.216c0,1.183 0.958,2.152 2.142,2.152l12.922,-0c1.184,-0 2.152,-0.969 2.152,-2.152l-0,-12.019c-0,-0.57 -0.226,-1.119 -0.635,-1.517l-5.186,-5.197Zm0.441,16.581l-6.456,-0c-0.592,-0 -1.076,-0.484 -1.076,-1.076c0,-0.592 0.484,-1.076 1.076,-1.076l6.456,-0c0.592,-0 1.076,0.484 1.076,1.076c0,0.592 -0.484,1.076 -1.076,1.076Zm0,-4.304l-6.456,-0c-0.592,-0 -1.076,-0.484 -1.076,-1.076c0,-0.592 0.484,-1.076 1.076,-1.076l6.456,-0c0.592,-0 1.076,0.484 1.076,1.076c0,0.592 -0.484,1.076 -1.076,1.076Zm-2.152,-6.456l0,-4.842l5.918,5.918l-4.842,-0c-0.592,-0 -1.076,-0.484 -1.076,-1.076Z" style="fill:#e2eaef;fill-rule:nonzero;"/></g><g><path d="M278.27,87.475c-6.053,-0 -10.965,4.912 -10.965,10.965c-0,6.053 4.912,10.965 10.965,10.965c6.052,-0 10.965,-4.912 10.965,-10.965c-0,-6.053 -4.913,-10.965 -10.965,-10.965Zm1.096,16.447l-2.193,0l0,-6.579l2.193,0l0,6.579Zm0,-8.772l-2.193,0l0,-2.193l2.193,0l0,2.193Z" style="fill:#e2eaef;fill-rule:nonzero;"/><path d="M318.406,87.47c-1.005,0 -1.827,0.823 -1.827,1.829l0,18.282c0,1.006 0.822,1.828 1.827,1.828c1.005,0 1.827,-0.822 1.827,-1.828l-0,-18.282c-0,-1.006 -0.822,-1.829 -1.827,-1.829Zm-6.686,12.469l-10.54,7.441c-1.206,0.859 -2.886,-0.018 -2.886,-1.499l-0,-14.882c-0,-1.481 1.662,-2.34 2.886,-1.499l10.54,7.441c1.041,0.731 1.041,2.267 0,2.998Z" style="fill:#e2eaef;fill-rule:nonzero;"/><path d="M340.686,88.315c-0.408,-0.409 -0.957,-0.635 -1.527,-0.635l-7.715,0c-1.184,0 -2.152,0.969 -2.152,2.152l-0,17.216c-0,1.183 0.957,2.152 2.141,2.152l12.922,-0c1.184,-0 2.152,-0.969 2.152,-2.152l0,-12.019c0,-0.57 -0.226,-1.119 -0.634,-1.517l-5.187,-5.197Zm0.442,16.581l-6.456,-0c-0.592,-0 -1.076,-0.484 -1.076,-1.076c-0,-0.592 0.484,-1.076 1.076,-1.076l6.456,-0c0.591,-0 1.076,0.484 1.076,1.076c-0,0.592 -0.485,1.076 -1.076,1.076Zm-0,-4.304l-6.456,-0c-0.592,-0 -1.076,-0.484 -1.076,-1.076c-0,-0.592 0.484,-1.076 1.076,-1.076l6.456,-0c0.591,-0 1.076,0.484 1.076,1.076c-0,0.592 -0.485,1.076 -1.076,1.076Zm-2.152,-6.456l-0,-4.842l5.917,5.918l-4.841,-0c-0.592,-0 -1.076,-0.484 -1.076,-1.076Z" style="fill:#e2eaef;fill-rule:nonzero;"/></g></g><g><g><path d="M33.848,117.443c-6.053,-0 -10.965,4.912 -10.965,10.965c-0,6.053 4.912,10.965 10.965,10.965c6.053,0 10.965,-4.912 10.965,-10.965c-0,-6.053 -4.912,-10.965 -10.965,-10.965Zm1.096,16.448l-2.193,-0l0,-6.579l2.193,-0l0,6.579Zm0,-8.772l-2.193,-0l0,-2.194l2.193,0l0,2.194Z" style="fill:#e2eaef;fill-rule:nonzero;"/><path d="M73.984,117.439c-1.005,-0 -1.826,0.822 -1.826,1.828l-0,18.282c-0,1.006 0.821,1.828 1.826,1.828c1.005,0 1.827,-0.822 1.827,-1.828l-0,-18.282c-0,-1.006 -0.822,-1.828 -1.827,-1.828Zm-6.686,12.468l-10.54,7.441c-1.205,0.859 -2.886,-0.018 -2.886,-1.499l0,-14.882c0,-1.481 1.662,-2.34 2.886,-1.499l10.54,7.441c1.042,0.731 1.042,2.267 0,2.998Z" style="fill:#e2eaef;fill-rule:nonzero;"/><path d="M96.265,118.283c-0.409,-0.409 -0.958,-0.635 -1.528,-0.635l-7.715,0c-1.184,0 -2.152,0.969 -2.152,2.152l0,17.216c0,1.183 0.958,2.152 2.141,2.152l12.923,-0c1.183,-0 2.152,-0.969 2.152,-2.152l-0,-12.019c-0,-0.57 -0.226,-1.119 -0.635,-1.517l-5.186,-5.197Zm0.441,16.581l-6.456,-0c-0.592,-0 -1.076,-0.484 -1.076,-1.076c0,-0.592 0.484,-1.076 1.076,-1.076l6.456,-0c0.592,-0 1.076,0.484 1.076,1.076c-0,0.592 -0.484,1.076 -1.076,1.076Zm-0,-4.304l-6.456,-0c-0.592,-0 -1.076,-0.484 -1.076,-1.076c0,-0.592 0.484,-1.076 1.076,-1.076l6.456,-0c0.592,-0 1.076,0.484 1.076,1.076c-0,0.592 -0.484,1.076 -1.076,1.076Zm-2.152,-6.456l-0,-4.842l5.918,5.918l-4.842,0c-0.592,0 -1.076,-0.484 -1.076,-1.076Z" style="fill:#e2eaef;fill-rule:nonzero;"/></g><g><path d="M125.758,117.443c-6.052,-0 -10.965,4.912 -10.965,10.965c0,6.053 4.913,10.965 10.965,10.965c6.053,0 10.965,-4.912 10.965,-10.965c0,-6.053 -4.912,-10.965 -10.965,-10.965Zm1.097,16.448l-2.193,-0l-0,-6.579l2.193,-0l-0,6.579Zm-0,-8.772l-2.193,-0l-0,-2.194l2.193,0l-0,2.194Z" style="fill:#e2eaef;fill-rule:nonzero;"/><path d="M165.895,117.439c-1.005,-0 -1.827,0.822 -1.827,1.828l0,18.282c0,1.006 0.822,1.828 1.827,1.828c1.004,0 1.826,-0.822 1.826,-1.828l0,-18.282c0,-1.006 -0.822,-1.828 -1.826,-1.828Zm-6.686,12.468l-10.54,7.441c-1.206,0.859 -2.886,-0.018 -2.886,-1.499l-0,-14.882c-0,-1.481 1.662,-2.34 2.886,-1.499l10.54,7.441c1.041,0.731 1.041,2.267 -0,2.998Z" style="fill:#e2eaef;fill-rule:nonzero;"/><path d="M188.175,118.283c-0.409,-0.409 -0.957,-0.635 -1.528,-0.635l-7.714,0c-1.184,0 -2.152,0.969 -2.152,2.152l-0,17.216c-0,1.183 0.957,2.152 2.141,2.152l12.922,-0c1.184,-0 2.152,-0.969 2.152,-2.152l0,-12.019c0,-0.57 -0.226,-1.119 -0.635,-1.517l-5.186,-5.197Zm0.441,16.581l-6.456,-0c-0.591,-0 -1.075,-0.484 -1.075,-1.076c-0,-0.592 0.484,-1.076 1.075,-1.076l6.456,-0c0.592,-0 1.076,0.484 1.076,1.076c0,0.592 -0.484,1.076 -1.076,1.076Zm0,-4.304l-6.456,-0c-0.591,-0 -1.075,-0.484 -1.075,-1.076c-0,-0.592 0.484,-1.076 1.075,-1.076l6.456,-0c0.592,-0 1.076,0.484 1.076,1.076c0,0.592 -0.484,1.076 -1.076,1.076Zm-2.152,-6.456l0,-4.842l5.918,5.918l-4.842,0c-0.591,0 -1.076,-0.484 -1.076,-1.076Z" style="fill:#e2eaef;fill-rule:nonzero;"/></g><g><path d="M217.669,117.443c-6.053,-0 -10.965,4.912 -10.965,10.965c-0,6.053 4.912,10.965 10.965,10.965c6.053,0 10.965,-4.912 10.965,-10.965c-0,-6.053 -4.912,-10.965 -10.965,-10.965Zm1.096,16.448l-2.193,-0l0,-6.579l2.193,-0l0,6.579Zm0,-8.772l-2.193,-0l0,-2.194l2.193,0l0,2.194Z" style="fill:#e2eaef;fill-rule:nonzero;"/><path d="M257.805,117.439c-1.004,-0 -1.826,0.822 -1.826,1.828l-0,18.282c-0,1.006 0.822,1.828 1.826,1.828c1.005,0 1.827,-0.822 1.827,-1.828l-0,-18.282c-0,-1.006 -0.822,-1.828 -1.827,-1.828Zm-6.686,12.468l-10.54,7.441c-1.205,0.859 -2.886,-0.018 -2.886,-1.499l0,-14.882c0,-1.481 1.662,-2.34 2.886,-1.499l10.54,7.441c1.042,0.731 1.042,2.267 0,2.998Z" style="fill:#e2eaef;fill-rule:nonzero;"/><path d="M280.086,118.283c-0.409,-0.409 -0.958,-0.635 -1.528,-0.635l-7.715,0c-1.184,0 -2.152,0.969 -2.152,2.152l0,17.216c0,1.183 0.958,2.152 2.141,2.152l12.923,-0c1.183,-0 2.152,-0.969 2.152,-2.152l-0,-12.019c-0,-0.57 -0.226,-1.119 -0.635,-1.517l-5.186,-5.197Zm0.441,16.581l-6.456,-0c-0.592,-0 -1.076,-0.484 -1.076,-1.076c0,-0.592 0.484,-1.076 1.076,-1.076l6.456,-0c0.592,-0 1.076,0.484 1.076,1.076c-0,0.592 -0.484,1.076 -1.076,1.076Zm-0,-4.304l-6.456,-0c-0.592,-0 -1.076,-0.484 -1.076,-1.076c0,-0.592 0.484,-1.076 1.076,-1.076l6.456,-0c0.592,-0 1.076,0.484 1.076,1.076c-0,0.592 -0.484,1.076 -1.076,1.076Zm-2.152,-6.456l-0,-4.842l5.918,5.918l-4.842,0c-0.592,0 -1.076,-0.484 -1.076,-1.076Z" style="fill:#e2eaef;fill-rule:nonzero;"/></g><g><path d="M309.579,117.443c-6.052,-0 -10.965,4.912 -10.965,10.965c0,6.053 4.913,10.965 10.965,10.965c6.053,0 10.965,-4.912 10.965,-10.965c0,-6.053 -4.912,-10.965 -10.965,-10.965Zm1.097,16.448l-2.193,-0l-0,-6.579l2.193,-0l-0,6.579Zm-0,-8.772l-2.193,-0l-0,-2.194l2.193,0l-0,2.194Z" style="fill:#e2eaef;fill-rule:nonzero;"/><path d="M349.716,117.439c-1.005,-0 -1.827,0.822 -1.827,1.828l0,18.282c0,1.006 0.822,1.828 1.827,1.828c1.004,0 1.826,-0.822 1.826,-1.828l0,-18.282c0,-1.006 -0.822,-1.828 -1.826,-1.828Zm-6.686,12.468l-10.54,7.441c-1.206,0.859 -2.886,-0.018 -2.886,-1.499l-0,-14.882c-0,-1.481 1.662,-2.34 2.886,-1.499l10.54,7.441c1.041,0.731 1.041,2.267 -0,2.998Z" style="fill:#e2eaef;fill-rule:nonzero;"/><path d="M371.996,118.283c-0.409,-0.409 -0.957,-0.635 -1.528,-0.635l-7.714,0c-1.184,0 -2.152,0.969 -2.152,2.152l-0,17.216c-0,1.183 0.957,2.152 2.141,2.152l12.922,-0c1.184,-0 2.152,-0.969 2.152,-2.152l0,-12.019c0,-0.57 -0.226,-1.119 -0.635,-1.517l-5.186,-5.197Zm0.441,16.581l-6.455,-0c-0.592,-0 -1.076,-0.484 -1.076,-1.076c-0,-0.592 0.484,-1.076 1.076,-1.076l6.455,-0c0.592,-0 1.076,0.484 1.076,1.076c0,0.592 -0.484,1.076 -1.076,1.076Zm0,-4.304l-6.455,-0c-0.592,-0 -1.076,-0.484 -1.076,-1.076c-0,-0.592 0.484,-1.076 1.076,-1.076l6.455,-0c0.592,-0 1.076,0.484 1.076,1.076c0,0.592 -0.484,1.076 -1.076,1.076Zm-2.152,-6.456l0,-4.842l5.918,5.918l-4.842,0c-0.591,0 -1.076,-0.484 -1.076,-1.076Z" style="fill:#e2eaef;fill-rule:nonzero;"/></g></g><g><g><path d="M63.012,147.411c-6.053,0 -10.965,4.912 -10.965,10.965c-0,6.053 4.912,10.965 10.965,10.965c6.053,0 10.965,-4.912 10.965,-10.965c0,-6.053 -4.912,-10.965 -10.965,-10.965Zm1.097,16.448l-2.194,-0l0,-6.579l2.194,-0l-0,6.579Zm-0,-8.772l-2.194,-0l0,-2.193l2.194,-0l-0,2.193Z" style="fill:#e2eaef;fill-rule:nonzero;"/><path d="M103.148,147.407c-1.004,-0 -1.826,0.822 -1.826,1.828l-0,18.282c-0,1.006 0.822,1.829 1.826,1.829c1.005,-0 1.827,-0.823 1.827,-1.829l0,-18.282c0,-1.006 -0.822,-1.828 -1.827,-1.828Zm-6.685,12.468l-10.541,7.441c-1.205,0.859 -2.886,-0.018 -2.886,-1.499l0,-14.882c0,-1.481 1.662,-2.34 2.886,-1.499l10.541,7.441c1.041,0.731 1.041,2.267 -0,2.998Z" style="fill:#e2eaef;fill-rule:nonzero;"/><path d="M125.429,148.251c-0.409,-0.409 -0.958,-0.635 -1.528,-0.635l-7.715,0c-1.183,0 -2.152,0.969 -2.152,2.152l0,17.216c0,1.184 0.958,2.152 2.141,2.152l12.923,-0c1.183,-0 2.152,-0.968 2.152,-2.152l-0,-12.019c-0,-0.57 -0.226,-1.119 -0.635,-1.517l-5.186,-5.197Zm0.441,16.581l-6.456,-0c-0.592,-0 -1.076,-0.484 -1.076,-1.076c0,-0.592 0.484,-1.076 1.076,-1.076l6.456,0c0.592,0 1.076,0.484 1.076,1.076c-0,0.592 -0.484,1.076 -1.076,1.076Zm-0,-4.304l-6.456,0c-0.592,0 -1.076,-0.484 -1.076,-1.076c0,-0.592 0.484,-1.076 1.076,-1.076l6.456,0c0.592,0 1.076,0.484 1.076,1.076c-0,0.592 -0.484,1.076 -1.076,1.076Zm-2.152,-6.456l-0,-4.842l5.918,5.918l-4.842,0c-0.592,0 -1.076,-0.484 -1.076,-1.076Z" style="fill:#e2eaef;fill-rule:nonzero;"/></g><g><path d="M154.922,147.411c-6.052,0 -10.965,4.912 -10.965,10.965c0,6.053 4.913,10.965 10.965,10.965c6.053,0 10.966,-4.912 10.966,-10.965c-0,-6.053 -4.913,-10.965 -10.966,-10.965Zm1.097,16.448l-2.193,-0l0,-6.579l2.193,-0l0,6.579Zm0,-8.772l-2.193,-0l0,-2.193l2.193,-0l0,2.193Z" style="fill:#e2eaef;fill-rule:nonzero;"/><path d="M195.059,147.407c-1.005,-0 -1.827,0.822 -1.827,1.828l0,18.282c0,1.006 0.822,1.829 1.827,1.829c1.005,-0 1.827,-0.823 1.827,-1.829l-0,-18.282c-0,-1.006 -0.822,-1.828 -1.827,-1.828Zm-6.686,12.468l-10.54,7.441c-1.206,0.859 -2.886,-0.018 -2.886,-1.499l-0,-14.882c-0,-1.481 1.662,-2.34 2.886,-1.499l10.54,7.441c1.041,0.731 1.041,2.267 0,2.998Z" style="fill:#e2eaef;fill-rule:nonzero;"/><path d="M217.339,148.251c-0.409,-0.409 -0.957,-0.635 -1.528,-0.635l-7.714,0c-1.184,0 -2.152,0.969 -2.152,2.152l-0,17.216c-0,1.184 0.957,2.152 2.141,2.152l12.922,-0c1.184,-0 2.152,-0.968 2.152,-2.152l0,-12.019c0,-0.57 -0.226,-1.119 -0.635,-1.517l-5.186,-5.197Zm0.441,16.581l-6.455,-0c-0.592,-0 -1.076,-0.484 -1.076,-1.076c-0,-0.592 0.484,-1.076 1.076,-1.076l6.455,0c0.592,0 1.076,0.484 1.076,1.076c0,0.592 -0.484,1.076 -1.076,1.076Zm0,-4.304l-6.455,0c-0.592,0 -1.076,-0.484 -1.076,-1.076c-0,-0.592 0.484,-1.076 1.076,-1.076l6.455,0c0.592,0 1.076,0.484 1.076,1.076c0,0.592 -0.484,1.076 -1.076,1.076Zm-2.152,-6.456l0,-4.842l5.918,5.918l-4.842,0c-0.591,0 -1.076,-0.484 -1.076,-1.076Z" style="fill:#e2eaef;fill-rule:nonzero;"/></g><g><path d="M246.833,147.411c-6.053,0 -10.965,4.912 -10.965,10.965c-0,6.053 4.912,10.965 10.965,10.965c6.053,0 10.965,-4.912 10.965,-10.965c0,-6.053 -4.912,-10.965 -10.965,-10.965Zm1.097,16.448l-2.193,-0l-0,-6.579l2.193,-0l-0,6.579Zm-0,-8.772l-2.193,-0l-0,-2.193l2.193,-0l-0,2.193Z" style="fill:#e2eaef;fill-rule:nonzero;"/><path d="M286.969,147.407c-1.004,-0 -1.826,0.822 -1.826,1.828l-0,18.282c-0,1.006 0.822,1.829 1.826,1.829c1.005,-0 1.827,-0.823 1.827,-1.829l0,-18.282c0,-1.006 -0.822,-1.828 -1.827,-1.828Zm-6.685,12.468l-10.541,7.441c-1.205,0.859 -2.886,-0.018 -2.886,-1.499l0,-14.882c0,-1.481 1.662,-2.34 2.886,-1.499l10.541,7.441c1.041,0.731 1.041,2.267 -0,2.998Z" style="fill:#e2eaef;fill-rule:nonzero;"/><path d="M309.25,148.251c-0.409,-0.409 -0.958,-0.635 -1.528,-0.635l-7.715,0c-1.183,0 -2.152,0.969 -2.152,2.152l0,17.216c0,1.184 0.958,2.152 2.141,2.152l12.923,-0c1.183,-0 2.152,-0.968 2.152,-2.152l-0,-12.019c-0,-0.57 -0.226,-1.119 -0.635,-1.517l-5.186,-5.197Zm0.441,16.581l-6.456,-0c-0.592,-0 -1.076,-0.484 -1.076,-1.076c0,-0.592 0.484,-1.076 1.076,-1.076l6.456,0c0.592,0 1.076,0.484 1.076,1.076c-0,0.592 -0.484,1.076 -1.076,1.076Zm-0,-4.304l-6.456,0c-0.592,0 -1.076,-0.484 -1.076,-1.076c0,-0.592 0.484,-1.076 1.076,-1.076l6.456,0c0.592,0 1.076,0.484 1.076,1.076c-0,0.592 -0.484,1.076 -1.076,1.076Zm-2.152,-6.456l0,-4.842l5.918,5.918l-4.842,0c-0.592,0 -1.076,-0.484 -1.076,-1.076Z" style="fill:#e2eaef;fill-rule:nonzero;"/></g><g><path d="M338.743,147.411c-6.052,0 -10.965,4.912 -10.965,10.965c0,6.053 4.913,10.965 10.965,10.965c6.053,0 10.966,-4.912 10.966,-10.965c-0,-6.053 -4.913,-10.965 -10.966,-10.965Zm1.097,16.448l-2.193,-0l0,-6.579l2.193,-0l0,6.579Zm0,-8.772l-2.193,-0l0,-2.193l2.193,-0l0,2.193Z" style="fill:#e2eaef;fill-rule:nonzero;"/><path d="M378.88,147.407c-1.005,-0 -1.827,0.822 -1.827,1.828l0,18.282c0,1.006 0.822,1.829 1.827,1.829c1.005,-0 1.827,-0.823 1.827,-1.829l-0,-18.282c-0,-1.006 -0.822,-1.828 -1.827,-1.828Zm-6.686,12.468l-10.54,7.441c-1.206,0.859 -2.886,-0.018 -2.886,-1.499l-0,-14.882c-0,-1.481 1.662,-2.34 2.886,-1.499l10.54,7.441c1.041,0.731 1.041,2.267 0,2.998Z" style="fill:#e2eaef;fill-rule:nonzero;"/><path d="M401.16,148.251c-0.409,-0.409 -0.957,-0.635 -1.528,-0.635l-7.714,0c-1.184,0 -2.152,0.969 -2.152,2.152l-0,17.216c-0,1.184 0.957,2.152 2.141,2.152l12.922,-0c1.184,-0 2.152,-0.968 2.152,-2.152l0,-12.019c0,-0.57 -0.226,-1.119 -0.635,-1.517l-5.186,-5.197Zm0.441,16.581l-6.455,-0c-0.592,-0 -1.076,-0.484 -1.076,-1.076c-0,-0.592 0.484,-1.076 1.076,-1.076l6.455,0c0.592,0 1.077,0.484 1.077,1.076c-0,0.592 -0.485,1.076 -1.077,1.076Zm0,-4.304l-6.455,0c-0.592,0 -1.076,-0.484 -1.076,-1.076c-0,-0.592 0.484,-1.076 1.076,-1.076l6.455,0c0.592,0 1.077,0.484 1.077,1.076c-0,0.592 -0.485,1.076 -1.077,1.076Zm-2.151,-6.456l-0,-4.842l5.917,5.918l-4.842,0c-0.591,0 -1.075,-0.484 -1.075,-1.076Z" style="fill:#e2eaef;fill-rule:nonzero;"/></g></g><g><g><path d="M91.845,177.625c-6.053,0 -10.965,4.912 -10.965,10.965c-0,6.053 4.912,10.965 10.965,10.965c6.053,0 10.965,-4.912 10.965,-10.965c-0,-6.053 -4.912,-10.965 -10.965,-10.965Zm1.096,16.448l-2.193,-0l0,-6.579l2.193,-0l0,6.579Zm0,-8.772l-2.193,-0l0,-2.193l2.193,-0l0,2.193Z" style="fill:#e2eaef;fill-rule:nonzero;"/><path d="M131.981,177.621c-1.005,-0 -1.827,0.822 -1.827,1.828l0,18.282c0,1.006 0.822,1.829 1.827,1.829c1.005,-0 1.827,-0.823 1.827,-1.829l-0,-18.282c-0,-1.006 -0.822,-1.828 -1.827,-1.828Zm-6.686,12.468l-10.54,7.441c-1.205,0.86 -2.886,-0.018 -2.886,-1.499l0,-14.882c0,-1.481 1.662,-2.34 2.886,-1.499l10.54,7.441c1.042,0.731 1.042,2.267 0,2.998Z" style="fill:#e2eaef;fill-rule:nonzero;"/><path d="M154.262,178.465c-0.409,-0.409 -0.958,-0.635 -1.528,-0.635l-7.715,0c-1.184,0 -2.152,0.969 -2.152,2.152l0,17.216c0,1.184 0.958,2.152 2.141,2.152l12.923,-0c1.183,-0 2.152,-0.968 2.152,-2.152l-0,-12.019c-0,-0.57 -0.226,-1.119 -0.635,-1.517l-5.186,-5.197Zm0.441,16.581l-6.456,-0c-0.592,-0 -1.076,-0.484 -1.076,-1.076c-0,-0.592 0.484,-1.076 1.076,-1.076l6.456,0c0.592,0 1.076,0.484 1.076,1.076c-0,0.592 -0.484,1.076 -1.076,1.076Zm-0,-4.304l-6.456,0c-0.592,0 -1.076,-0.484 -1.076,-1.076c-0,-0.592 0.484,-1.076 1.076,-1.076l6.456,0c0.592,0 1.076,0.484 1.076,1.076c-0,0.592 -0.484,1.076 -1.076,1.076Zm-2.152,-6.456l-0,-4.842l5.918,5.918l-4.842,0c-0.592,0 -1.076,-0.484 -1.076,-1.076Z" style="fill:#e2eaef;fill-rule:nonzero;"/></g><g><path d="M183.755,177.625c-6.052,0 -10.965,4.912 -10.965,10.965c0,6.053 4.913,10.965 10.965,10.965c6.053,0 10.965,-4.912 10.965,-10.965c0,-6.053 -4.912,-10.965 -10.965,-10.965Zm1.097,16.448l-2.193,-0l-0,-6.579l2.193,-0l-0,6.579Zm-0,-8.772l-2.193,-0l-0,-2.193l2.193,-0l-0,2.193Z" style="fill:#e2eaef;fill-rule:nonzero;"/><path d="M223.892,177.621c-1.005,-0 -1.827,0.822 -1.827,1.828l-0,18.282c-0,1.006 0.822,1.829 1.827,1.829c1.004,-0 1.826,-0.823 1.826,-1.829l0,-18.282c0,-1.006 -0.822,-1.828 -1.826,-1.828Zm-6.686,12.468l-10.54,7.441c-1.206,0.86 -2.886,-0.018 -2.886,-1.499l-0,-14.882c-0,-1.481 1.662,-2.34 2.886,-1.499l10.54,7.441c1.041,0.731 1.041,2.267 -0,2.998Z" style="fill:#e2eaef;fill-rule:nonzero;"/><path d="M246.172,178.465c-0.409,-0.409 -0.957,-0.635 -1.528,-0.635l-7.714,0c-1.184,0 -2.152,0.969 -2.152,2.152l-0,17.216c-0,1.184 0.957,2.152 2.141,2.152l12.922,-0c1.184,-0 2.152,-0.968 2.152,-2.152l0,-12.019c0,-0.57 -0.226,-1.119 -0.635,-1.517l-5.186,-5.197Zm0.441,16.581l-6.456,-0c-0.591,-0 -1.076,-0.484 -1.076,-1.076c0,-0.592 0.485,-1.076 1.076,-1.076l6.456,0c0.592,0 1.076,0.484 1.076,1.076c0,0.592 -0.484,1.076 -1.076,1.076Zm0,-4.304l-6.456,0c-0.591,0 -1.076,-0.484 -1.076,-1.076c0,-0.592 0.485,-1.076 1.076,-1.076l6.456,0c0.592,0 1.076,0.484 1.076,1.076c0,0.592 -0.484,1.076 -1.076,1.076Zm-2.152,-6.456l0,-4.842l5.918,5.918l-4.842,0c-0.591,0 -1.076,-0.484 -1.076,-1.076Z" style="fill:#e2eaef;fill-rule:nonzero;"/></g><g><path d="M275.666,177.625c-6.053,0 -10.965,4.912 -10.965,10.965c-0,6.053 4.912,10.965 10.965,10.965c6.053,0 10.965,-4.912 10.965,-10.965c-0,-6.053 -4.912,-10.965 -10.965,-10.965Zm1.096,16.448l-2.193,-0l0,-6.579l2.193,-0l0,6.579Zm0,-8.772l-2.193,-0l0,-2.193l2.193,-0l0,2.193Z" style="fill:#e2eaef;fill-rule:nonzero;"/><path d="M315.802,177.621c-1.005,-0 -1.827,0.822 -1.827,1.828l0,18.282c0,1.006 0.822,1.829 1.827,1.829c1.005,-0 1.827,-0.823 1.827,-1.829l-0,-18.282c-0,-1.006 -0.822,-1.828 -1.827,-1.828Zm-6.686,12.468l-10.54,7.441c-1.205,0.86 -2.886,-0.018 -2.886,-1.499l0,-14.882c0,-1.481 1.662,-2.34 2.886,-1.499l10.54,7.441c1.042,0.731 1.042,2.267 0,2.998Z" style="fill:#e2eaef;fill-rule:nonzero;"/><path d="M338.083,178.465c-0.409,-0.409 -0.958,-0.635 -1.528,-0.635l-7.715,0c-1.184,0 -2.152,0.969 -2.152,2.152l0,17.216c0,1.184 0.958,2.152 2.141,2.152l12.923,-0c1.183,-0 2.152,-0.968 2.152,-2.152l-0,-12.019c-0,-0.57 -0.226,-1.119 -0.635,-1.517l-5.186,-5.197Zm0.441,16.581l-6.456,-0c-0.592,-0 -1.076,-0.484 -1.076,-1.076c-0,-0.592 0.484,-1.076 1.076,-1.076l6.456,0c0.592,0 1.076,0.484 1.076,1.076c-0,0.592 -0.484,1.076 -1.076,1.076Zm-0,-4.304l-6.456,0c-0.592,0 -1.076,-0.484 -1.076,-1.076c-0,-0.592 0.484,-1.076 1.076,-1.076l6.456,0c0.592,0 1.076,0.484 1.076,1.076c-0,0.592 -0.484,1.076 -1.076,1.076Zm-2.152,-6.456l-0,-4.842l5.918,5.918l-4.842,0c-0.592,0 -1.076,-0.484 -1.076,-1.076Z" style="fill:#e2eaef;fill-rule:nonzero;"/></g><g><path d="M367.576,177.625c-6.052,0 -10.965,4.912 -10.965,10.965c0,6.053 4.913,10.965 10.965,10.965c6.053,0 10.965,-4.912 10.965,-10.965c0,-6.053 -4.912,-10.965 -10.965,-10.965Zm1.097,16.448l-2.193,-0l-0,-6.579l2.193,-0l-0,6.579Zm-0,-8.772l-2.193,-0l-0,-2.193l2.193,-0l-0,2.193Z" style="fill:#e2eaef;fill-rule:nonzero;"/><path d="M407.713,177.621c-1.005,-0 -1.827,0.822 -1.827,1.828l0,18.282c0,1.006 0.822,1.829 1.827,1.829c1.004,-0 1.826,-0.823 1.826,-1.829l0,-18.282c0,-1.006 -0.822,-1.828 -1.826,-1.828Zm-6.686,12.468l-10.54,7.441c-1.206,0.86 -2.886,-0.018 -2.886,-1.499l-0,-14.882c-0,-1.481 1.662,-2.34 2.886,-1.499l10.54,7.441c1.041,0.731 1.041,2.267 -0,2.998Z" style="fill:#e2eaef;fill-rule:nonzero;"/><path d="M429.993,178.465c-0.409,-0.409 -0.957,-0.635 -1.528,-0.635l-7.714,0c-1.184,0 -2.152,0.969 -2.152,2.152l-0,17.216c-0,1.184 0.957,2.152 2.141,2.152l12.922,-0c1.184,-0 2.152,-0.968 2.152,-2.152l0,-12.019c0,-0.57 -0.226,-1.119 -0.635,-1.517l-5.186,-5.197Zm0.441,16.581l-6.456,-0c-0.591,-0 -1.076,-0.484 -1.076,-1.076c0,-0.592 0.485,-1.076 1.076,-1.076l6.456,0c0.592,0 1.076,0.484 1.076,1.076c0,0.592 -0.484,1.076 -1.076,1.076Zm0,-4.304l-6.456,0c-0.591,0 -1.076,-0.484 -1.076,-1.076c0,-0.592 0.485,-1.076 1.076,-1.076l6.456,0c0.592,0 1.076,0.484 1.076,1.076c0,0.592 -0.484,1.076 -1.076,1.076Zm-2.152,-6.456l0,-4.842l5.918,5.918l-4.842,0c-0.591,0 -1.076,-0.484 -1.076,-1.076Z" style="fill:#e2eaef;fill-rule:nonzero;"/></g></g><g><g><path d="M123.155,207.593c-6.053,0 -10.965,4.913 -10.965,10.965c-0,6.053 4.912,10.965 10.965,10.965c6.052,0 10.965,-4.912 10.965,-10.965c-0,-6.052 -4.913,-10.965 -10.965,-10.965Zm1.096,16.448l-2.193,-0l0,-6.579l2.193,-0l0,6.579Zm0,-8.772l-2.193,-0l0,-2.193l2.193,-0l0,2.193Z" style="fill:#e2eaef;fill-rule:nonzero;"/><path d="M163.291,207.589c-1.005,-0 -1.827,0.823 -1.827,1.828l0,18.282c0,1.006 0.822,1.829 1.827,1.829c1.005,-0 1.827,-0.823 1.827,-1.829l-0,-18.282c-0,-1.005 -0.822,-1.828 -1.827,-1.828Zm-6.686,12.468l-10.54,7.441c-1.206,0.86 -2.886,-0.018 -2.886,-1.499l-0,-14.882c-0,-1.481 1.662,-2.34 2.886,-1.499l10.54,7.441c1.041,0.731 1.041,2.267 0,2.998Z" style="fill:#e2eaef;fill-rule:nonzero;"/><path d="M185.571,208.433c-0.408,-0.409 -0.957,-0.634 -1.527,-0.634l-7.715,-0c-1.184,-0 -2.152,0.968 -2.152,2.151l-0,17.216c-0,1.184 0.957,2.152 2.141,2.152l12.922,0c1.184,0 2.152,-0.968 2.152,-2.152l0,-12.019c0,-0.57 -0.226,-1.119 -0.634,-1.517l-5.187,-5.197Zm0.442,16.581l-6.456,0c-0.592,0 -1.076,-0.484 -1.076,-1.076c-0,-0.592 0.484,-1.076 1.076,-1.076l6.456,0c0.591,0 1.076,0.484 1.076,1.076c-0,0.592 -0.485,1.076 -1.076,1.076Zm-0,-4.304l-6.456,0c-0.592,0 -1.076,-0.484 -1.076,-1.076c-0,-0.592 0.484,-1.076 1.076,-1.076l6.456,0c0.591,0 1.076,0.484 1.076,1.076c-0,0.592 -0.485,1.076 -1.076,1.076Zm-2.152,-6.456l-0,-4.842l5.917,5.918l-4.841,0c-0.592,0 -1.076,-0.484 -1.076,-1.076Z" style="fill:#e2eaef;fill-rule:nonzero;"/></g><g><path d="M215.065,207.593c-6.053,0 -10.965,4.913 -10.965,10.965c0,6.053 4.912,10.965 10.965,10.965c6.053,0 10.965,-4.912 10.965,-10.965c0,-6.052 -4.912,-10.965 -10.965,-10.965Zm1.097,16.448l-2.193,-0l-0,-6.579l2.193,-0l-0,6.579Zm-0,-8.772l-2.193,-0l-0,-2.193l2.193,-0l-0,2.193Z" style="fill:#e2eaef;fill-rule:nonzero;"/><path d="M255.201,207.589c-1.004,-0 -1.826,0.823 -1.826,1.828l-0,18.282c-0,1.006 0.822,1.829 1.826,1.829c1.005,-0 1.827,-0.823 1.827,-1.829l0,-18.282c0,-1.005 -0.822,-1.828 -1.827,-1.828Zm-6.685,12.468l-10.54,7.441c-1.206,0.86 -2.887,-0.018 -2.887,-1.499l0,-14.882c0,-1.481 1.663,-2.34 2.887,-1.499l10.54,7.441c1.041,0.731 1.041,2.267 -0,2.998Z" style="fill:#e2eaef;fill-rule:nonzero;"/><path d="M277.482,208.433c-0.409,-0.409 -0.958,-0.634 -1.528,-0.634l-7.715,-0c-1.183,-0 -2.152,0.968 -2.152,2.151l0,17.216c0,1.184 0.958,2.152 2.142,2.152l12.922,0c1.184,0 2.152,-0.968 2.152,-2.152l-0,-12.019c-0,-0.57 -0.226,-1.119 -0.635,-1.517l-5.186,-5.197Zm0.441,16.581l-6.456,0c-0.592,0 -1.076,-0.484 -1.076,-1.076c0,-0.592 0.484,-1.076 1.076,-1.076l6.456,0c0.592,0 1.076,0.484 1.076,1.076c0,0.592 -0.484,1.076 -1.076,1.076Zm0,-4.304l-6.456,0c-0.592,0 -1.076,-0.484 -1.076,-1.076c0,-0.592 0.484,-1.076 1.076,-1.076l6.456,0c0.592,0 1.076,0.484 1.076,1.076c0,0.592 -0.484,1.076 -1.076,1.076Zm-2.152,-6.456l0,-4.842l5.918,5.918l-4.842,0c-0.592,0 -1.076,-0.484 -1.076,-1.076Z" style="fill:#e2eaef;fill-rule:nonzero;"/></g><g><path d="M306.976,207.593c-6.053,0 -10.965,4.913 -10.965,10.965c-0,6.053 4.912,10.965 10.965,10.965c6.052,0 10.965,-4.912 10.965,-10.965c-0,-6.052 -4.913,-10.965 -10.965,-10.965Zm1.096,16.448l-2.193,-0l0,-6.579l2.193,-0l0,6.579Zm0,-8.772l-2.193,-0l0,-2.193l2.193,-0l0,2.193Z" style="fill:#e2eaef;fill-rule:nonzero;"/><path d="M347.112,207.589c-1.005,-0 -1.827,0.823 -1.827,1.828l0,18.282c0,1.006 0.822,1.829 1.827,1.829c1.005,-0 1.827,-0.823 1.827,-1.829l-0,-18.282c-0,-1.005 -0.822,-1.828 -1.827,-1.828Zm-6.686,12.468l-10.54,7.441c-1.206,0.86 -2.886,-0.018 -2.886,-1.499l-0,-14.882c-0,-1.481 1.662,-2.34 2.886,-1.499l10.54,7.441c1.041,0.731 1.041,2.267 0,2.998Z" style="fill:#e2eaef;fill-rule:nonzero;"/><path d="M369.392,208.433c-0.408,-0.409 -0.957,-0.634 -1.527,-0.634l-7.715,-0c-1.184,-0 -2.152,0.968 -2.152,2.151l-0,17.216c-0,1.184 0.957,2.152 2.141,2.152l12.922,0c1.184,0 2.152,-0.968 2.152,-2.152l0,-12.019c0,-0.57 -0.226,-1.119 -0.634,-1.517l-5.187,-5.197Zm0.442,16.581l-6.456,0c-0.592,0 -1.076,-0.484 -1.076,-1.076c-0,-0.592 0.484,-1.076 1.076,-1.076l6.456,0c0.591,0 1.076,0.484 1.076,1.076c-0,0.592 -0.485,1.076 -1.076,1.076Zm-0,-4.304l-6.456,0c-0.592,0 -1.076,-0.484 -1.076,-1.076c-0,-0.592 0.484,-1.076 1.076,-1.076l6.456,0c0.591,0 1.076,0.484 1.076,1.076c-0,0.592 -0.485,1.076 -1.076,1.076Zm-2.152,-6.456l-0,-4.842l5.917,5.918l-4.841,0c-0.592,0 -1.076,-0.484 -1.076,-1.076Z" style="fill:#e2eaef;fill-rule:nonzero;"/></g><g><path d="M398.886,207.593c-6.053,0 -10.965,4.913 -10.965,10.965c0,6.053 4.912,10.965 10.965,10.965c6.053,0 10.965,-4.912 10.965,-10.965c0,-6.052 -4.912,-10.965 -10.965,-10.965Zm1.097,16.448l-2.193,-0l-0,-6.579l2.193,-0l-0,6.579Zm-0,-8.772l-2.193,-0l-0,-2.193l2.193,-0l-0,2.193Z" style="fill:#e2eaef;fill-rule:nonzero;"/><path d="M439.022,207.589c-1.004,-0 -1.826,0.823 -1.826,1.828l-0,18.282c-0,1.006 0.822,1.829 1.826,1.829c1.005,-0 1.827,-0.823 1.827,-1.829l0,-18.282c0,-1.005 -0.822,-1.828 -1.827,-1.828Zm-6.685,12.468l-10.54,7.441c-1.206,0.86 -2.887,-0.018 -2.887,-1.499l0,-14.882c0,-1.481 1.663,-2.34 2.887,-1.499l10.54,7.441c1.041,0.731 1.041,2.267 -0,2.998Z" style="fill:#e2eaef;fill-rule:nonzero;"/><path d="M461.303,208.433c-0.409,-0.409 -0.958,-0.634 -1.528,-0.634l-7.715,-0c-1.183,-0 -2.152,0.968 -2.152,2.151l0,17.216c0,1.184 0.958,2.152 2.142,2.152l12.922,0c1.184,0 2.152,-0.968 2.152,-2.152l-0,-12.019c-0,-0.57 -0.226,-1.119 -0.635,-1.517l-5.186,-5.197Zm0.441,16.581l-6.456,0c-0.592,0 -1.076,-0.484 -1.076,-1.076c0,-0.592 0.484,-1.076 1.076,-1.076l6.456,0c0.592,0 1.076,0.484 1.076,1.076c0,0.592 -0.484,1.076 -1.076,1.076Zm0,-4.304l-6.456,0c-0.592,0 -1.076,-0.484 -1.076,-1.076c0,-0.592 0.484,-1.076 1.076,-1.076l6.456,0c0.592,0 1.076,0.484 1.076,1.076c0,0.592 -0.484,1.076 -1.076,1.076Zm-2.152,-6.456l0,-4.842l5.918,5.918l-4.842,0c-0.592,0 -1.076,-0.484 -1.076,-1.076Z" style="fill:#e2eaef;fill-rule:nonzero;"/></g></g><g><g><path d="M152.319,237.561c-6.053,0 -10.965,4.913 -10.965,10.965c-0,6.053 4.912,10.965 10.965,10.965c6.052,0 10.965,-4.912 10.965,-10.965c-0,-6.052 -4.913,-10.965 -10.965,-10.965Zm1.096,16.448l-2.193,-0l0,-6.579l2.193,-0l0,6.579Zm0,-8.772l-2.193,-0l0,-2.193l2.193,-0l0,2.193Z" style="fill:#fff;fill-rule:nonzero;"/><path d="M192.455,237.557c-1.005,-0 -1.827,0.823 -1.827,1.828l0,18.283c0,1.005 0.822,1.828 1.827,1.828c1.005,-0 1.827,-0.823 1.827,-1.828l-0,-18.283c-0,-1.005 -0.822,-1.828 -1.827,-1.828Zm-6.686,12.469l-10.54,7.44c-1.206,0.86 -2.886,-0.018 -2.886,-1.499l-0,-14.882c-0,-1.48 1.662,-2.34 2.886,-1.499l10.54,7.441c1.041,0.732 1.041,2.267 0,2.999Z" style="fill:#fff;fill-rule:nonzero;"/><path d="M214.736,238.401c-0.409,-0.408 -0.958,-0.634 -1.528,-0.634l-7.715,-0c-1.184,-0 -2.152,0.968 -2.152,2.152l-0,17.215c-0,1.184 0.958,2.152 2.141,2.152l12.923,0c1.183,0 2.152,-0.968 2.152,-2.152l-0,-12.018c-0,-0.571 -0.226,-1.119 -0.635,-1.518l-5.186,-5.197Zm0.441,16.581l-6.456,0c-0.592,0 -1.076,-0.484 -1.076,-1.076c-0,-0.591 0.484,-1.076 1.076,-1.076l6.456,0c0.591,0 1.076,0.485 1.076,1.076c-0,0.592 -0.485,1.076 -1.076,1.076Zm-0,-4.304l-6.456,0c-0.592,0 -1.076,-0.484 -1.076,-1.076c-0,-0.591 0.484,-1.076 1.076,-1.076l6.456,0c0.591,0 1.076,0.485 1.076,1.076c-0,0.592 -0.485,1.076 -1.076,1.076Zm-2.152,-6.456l-0,-4.841l5.918,5.917l-4.842,0c-0.592,0 -1.076,-0.484 -1.076,-1.076Z" style="fill:#fff;fill-rule:nonzero;"/></g><g><path d="M244.229,237.561c-6.053,0 -10.965,4.913 -10.965,10.965c0,6.053 4.912,10.965 10.965,10.965c6.053,0 10.965,-4.912 10.965,-10.965c0,-6.052 -4.912,-10.965 -10.965,-10.965Zm1.097,16.448l-2.193,-0l-0,-6.579l2.193,-0l-0,6.579Zm-0,-8.772l-2.193,-0l-0,-2.193l2.193,-0l-0,2.193Z" style="fill:#fff;fill-rule:nonzero;"/><path d="M284.365,237.557c-1.004,-0 -1.826,0.823 -1.826,1.828l-0,18.283c-0,1.005 0.822,1.828 1.826,1.828c1.005,-0 1.827,-0.823 1.827,-1.828l0,-18.283c0,-1.005 -0.822,-1.828 -1.827,-1.828Zm-6.685,12.469l-10.54,7.44c-1.206,0.86 -2.887,-0.018 -2.887,-1.499l0,-14.882c0,-1.48 1.663,-2.34 2.887,-1.499l10.54,7.441c1.041,0.732 1.041,2.267 -0,2.999Z" style="fill:#fff;fill-rule:nonzero;"/><path d="M306.646,238.401c-0.409,-0.408 -0.958,-0.634 -1.528,-0.634l-7.715,-0c-1.183,-0 -2.152,0.968 -2.152,2.152l0,17.215c0,1.184 0.958,2.152 2.142,2.152l12.922,0c1.184,0 2.152,-0.968 2.152,-2.152l0,-12.018c0,-0.571 -0.226,-1.119 -0.635,-1.518l-5.186,-5.197Zm0.441,16.581l-6.456,0c-0.591,0 -1.076,-0.484 -1.076,-1.076c0,-0.591 0.485,-1.076 1.076,-1.076l6.456,0c0.592,0 1.076,0.485 1.076,1.076c0,0.592 -0.484,1.076 -1.076,1.076Zm0,-4.304l-6.456,0c-0.591,0 -1.076,-0.484 -1.076,-1.076c0,-0.591 0.485,-1.076 1.076,-1.076l6.456,0c0.592,0 1.076,0.485 1.076,1.076c0,0.592 -0.484,1.076 -1.076,1.076Zm-2.152,-6.456l0,-4.841l5.918,5.917l-4.842,0c-0.592,0 -1.076,-0.484 -1.076,-1.076Z" style="fill:#fff;fill-rule:nonzero;"/></g><g><path d="M336.14,237.561c-6.053,0 -10.965,4.913 -10.965,10.965c-0,6.053 4.912,10.965 10.965,10.965c6.052,0 10.965,-4.912 10.965,-10.965c-0,-6.052 -4.913,-10.965 -10.965,-10.965Zm1.096,16.448l-2.193,-0l0,-6.579l2.193,-0l0,6.579Zm0,-8.772l-2.193,-0l0,-2.193l2.193,-0l0,2.193Z" style="fill:#fff;fill-rule:nonzero;"/><path d="M376.276,237.557c-1.005,-0 -1.827,0.823 -1.827,1.828l0,18.283c0,1.005 0.822,1.828 1.827,1.828c1.005,-0 1.827,-0.823 1.827,-1.828l-0,-18.283c-0,-1.005 -0.822,-1.828 -1.827,-1.828Zm-6.686,12.469l-10.54,7.44c-1.206,0.86 -2.886,-0.018 -2.886,-1.499l-0,-14.882c-0,-1.48 1.662,-2.34 2.886,-1.499l10.54,7.441c1.042,0.732 1.042,2.267 0,2.999Z" style="fill:#fff;fill-rule:nonzero;"/><path d="M398.557,238.401c-0.409,-0.408 -0.958,-0.634 -1.528,-0.634l-7.715,-0c-1.184,-0 -2.152,0.968 -2.152,2.152l-0,17.215c-0,1.184 0.958,2.152 2.141,2.152l12.923,0c1.183,0 2.152,-0.968 2.152,-2.152l-0,-12.018c-0,-0.571 -0.226,-1.119 -0.635,-1.518l-5.186,-5.197Zm0.441,16.581l-6.456,0c-0.592,0 -1.076,-0.484 -1.076,-1.076c-0,-0.591 0.484,-1.076 1.076,-1.076l6.456,0c0.591,0 1.076,0.485 1.076,1.076c-0,0.592 -0.485,1.076 -1.076,1.076Zm-0,-4.304l-6.456,0c-0.592,0 -1.076,-0.484 -1.076,-1.076c-0,-0.591 0.484,-1.076 1.076,-1.076l6.456,0c0.591,0 1.076,0.485 1.076,1.076c-0,0.592 -0.485,1.076 -1.076,1.076Zm-2.152,-6.456l-0,-4.841l5.918,5.917l-4.842,0c-0.592,0 -1.076,-0.484 -1.076,-1.076Z" style="fill:#fff;fill-rule:nonzero;"/></g><g><path d="M428.05,237.561c-6.052,0 -10.965,4.913 -10.965,10.965c0,6.053 4.913,10.965 10.965,10.965c6.053,0 10.965,-4.912 10.965,-10.965c0,-6.052 -4.912,-10.965 -10.965,-10.965Zm1.097,16.448l-2.193,-0l-0,-6.579l2.193,-0l-0,6.579Zm-0,-8.772l-2.193,-0l-0,-2.193l2.193,-0l-0,2.193Z" style="fill:#fff;fill-rule:nonzero;"/><path d="M468.187,237.557c-1.005,-0 -1.827,0.823 -1.827,1.828l-0,18.283c-0,1.005 0.822,1.828 1.827,1.828c1.004,-0 1.826,-0.823 1.826,-1.828l0,-18.283c0,-1.005 -0.822,-1.828 -1.826,-1.828Zm-6.686,12.469l-10.54,7.44c-1.206,0.86 -2.887,-0.018 -2.887,-1.499l0,-14.882c0,-1.48 1.663,-2.34 2.887,-1.499l10.54,7.441c1.041,0.732 1.041,2.267 -0,2.999Z" style="fill:#fff;fill-rule:nonzero;"/><path d="M490.467,238.401c-0.409,-0.408 -0.958,-0.634 -1.528,-0.634l-7.715,-0c-1.183,-0 -2.152,0.968 -2.152,2.152l0,17.215c0,1.184 0.958,2.152 2.142,2.152l12.922,0c1.184,0 2.152,-0.968 2.152,-2.152l0,-12.018c0,-0.571 -0.226,-1.119 -0.635,-1.518l-5.186,-5.197Zm0.441,16.581l-6.456,0c-0.591,0 -1.076,-0.484 -1.076,-1.076c0,-0.591 0.485,-1.076 1.076,-1.076l6.456,0c0.592,0 1.076,0.485 1.076,1.076c0,0.592 -0.484,1.076 -1.076,1.076Zm0,-4.304l-6.456,0c-0.591,0 -1.076,-0.484 -1.076,-1.076c0,-0.591 0.485,-1.076 1.076,-1.076l6.456,0c0.592,0 1.076,0.485 1.076,1.076c0,0.592 -0.484,1.076 -1.076,1.076Zm-2.152,-6.456l0,-4.841l5.918,5.917l-4.842,0c-0.592,0 -1.076,-0.484 -1.076,-1.076Z" style="fill:#fff;fill-rule:nonzero;"/></g></g></g></g><path d="M455.677,307.116l-343.78,1.452c-0,-0 -0.042,-0.187 -0,-0c18.731,82.219 89.016,133.425 165.251,135.419c74.017,1.935 153.935,-42.725 178.529,-136.871Z" style="fill:#aeaeae;"/><clipPath id="_clip2"><path d="M455.677,307.116l-343.78,1.452c-0,-0 -0.042,-0.187 -0,-0c18.731,82.219 89.016,133.425 165.251,135.419c74.017,1.935 153.935,-42.725 178.529,-136.871Z"/></clipPath><g clip-path="url(#_clip2)"><g><g><g><path d="M59.398,271.795c-6.053,-0 -10.965,4.912 -10.965,10.965c-0,6.052 4.912,10.965 10.965,10.965c6.053,-0 10.965,-4.913 10.965,-10.965c0,-6.053 -4.912,-10.965 -10.965,-10.965Zm1.097,16.447l-2.194,0l0,-6.579l2.194,0l-0,6.579Zm-0,-8.772l-2.194,0l0,-2.193l2.194,0l-0,2.193Z" style="fill:#fff;fill-rule:nonzero;"/><path d="M99.534,271.79c-1.004,0 -1.826,0.823 -1.826,1.828l-0,18.283c-0,1.005 0.822,1.828 1.826,1.828c1.005,0 1.827,-0.823 1.827,-1.828l0,-18.283c0,-1.005 -0.822,-1.828 -1.827,-1.828Zm-6.685,12.469l-10.541,7.441c-1.205,0.859 -2.886,-0.019 -2.886,-1.499l0,-14.882c0,-1.481 1.662,-2.34 2.886,-1.499l10.541,7.441c1.041,0.731 1.041,2.267 -0,2.998Z" style="fill:#fff;fill-rule:nonzero;"/><path d="M121.815,272.635c-0.409,-0.409 -0.958,-0.635 -1.528,-0.635l-7.715,-0c-1.183,-0 -2.152,0.968 -2.152,2.152l0,17.215c0,1.184 0.958,2.152 2.141,2.152l12.923,0c1.183,0 2.152,-0.968 2.152,-2.152l-0,-12.018c-0,-0.57 -0.226,-1.119 -0.635,-1.517l-5.186,-5.197Zm0.441,16.58l-6.456,0c-0.592,0 -1.076,-0.484 -1.076,-1.076c0,-0.591 0.484,-1.075 1.076,-1.075l6.456,-0c0.592,-0 1.076,0.484 1.076,1.075c-0,0.592 -0.484,1.076 -1.076,1.076Zm-0,-4.303l-6.456,-0c-0.592,-0 -1.076,-0.485 -1.076,-1.076c0,-0.592 0.484,-1.076 1.076,-1.076l6.456,-0c0.592,-0 1.076,0.484 1.076,1.076c-0,0.591 -0.484,1.076 -1.076,1.076Zm-2.152,-6.456l-0,-4.842l5.918,5.918l-4.842,-0c-0.592,-0 -1.076,-0.484 -1.076,-1.076Z" style="fill:#fff;fill-rule:nonzero;"/></g><g><path d="M151.308,271.795c-6.052,-0 -10.965,4.912 -10.965,10.965c0,6.052 4.913,10.965 10.965,10.965c6.053,-0 10.966,-4.913 10.966,-10.965c-0,-6.053 -4.913,-10.965 -10.966,-10.965Zm1.097,16.447l-2.193,0l0,-6.579l2.193,0l0,6.579Zm0,-8.772l-2.193,0l0,-2.193l2.193,0l0,2.193Z" style="fill:#fff;fill-rule:nonzero;"/><path d="M191.445,271.79c-1.005,0 -1.827,0.823 -1.827,1.828l0,18.283c0,1.005 0.822,1.828 1.827,1.828c1.005,0 1.827,-0.823 1.827,-1.828l-0,-18.283c-0,-1.005 -0.822,-1.828 -1.827,-1.828Zm-6.686,12.469l-10.54,7.441c-1.206,0.859 -2.886,-0.019 -2.886,-1.499l-0,-14.882c-0,-1.481 1.662,-2.34 2.886,-1.499l10.54,7.441c1.041,0.731 1.041,2.267 0,2.998Z" style="fill:#fff;fill-rule:nonzero;"/><path d="M213.725,272.635c-0.409,-0.409 -0.957,-0.635 -1.528,-0.635l-7.714,-0c-1.184,-0 -2.152,0.968 -2.152,2.152l-0,17.215c-0,1.184 0.957,2.152 2.141,2.152l12.922,0c1.184,0 2.152,-0.968 2.152,-2.152l0,-12.018c0,-0.57 -0.226,-1.119 -0.635,-1.517l-5.186,-5.197Zm0.441,16.58l-6.455,0c-0.592,0 -1.076,-0.484 -1.076,-1.076c-0,-0.591 0.484,-1.075 1.076,-1.075l6.455,-0c0.592,-0 1.076,0.484 1.076,1.075c0,0.592 -0.484,1.076 -1.076,1.076Zm0,-4.303l-6.455,-0c-0.592,-0 -1.076,-0.485 -1.076,-1.076c-0,-0.592 0.484,-1.076 1.076,-1.076l6.455,-0c0.592,-0 1.076,0.484 1.076,1.076c0,0.591 -0.484,1.076 -1.076,1.076Zm-2.152,-6.456l0,-4.842l5.918,5.918l-4.842,-0c-0.591,-0 -1.076,-0.484 -1.076,-1.076Z" style="fill:#fff;fill-rule:nonzero;"/></g><g><path d="M243.219,271.795c-6.053,-0 -10.965,4.912 -10.965,10.965c-0,6.052 4.912,10.965 10.965,10.965c6.053,-0 10.965,-4.913 10.965,-10.965c0,-6.053 -4.912,-10.965 -10.965,-10.965Zm1.097,16.447l-2.193,0l-0,-6.579l2.193,0l-0,6.579Zm-0,-8.772l-2.193,0l-0,-2.193l2.193,0l-0,2.193Z" style="fill:#fff;fill-rule:nonzero;"/><path d="M283.355,271.79c-1.004,0 -1.826,0.823 -1.826,1.828l-0,18.283c-0,1.005 0.822,1.828 1.826,1.828c1.005,0 1.827,-0.823 1.827,-1.828l0,-18.283c0,-1.005 -0.822,-1.828 -1.827,-1.828Zm-6.685,12.469l-10.541,7.441c-1.205,0.859 -2.886,-0.019 -2.886,-1.499l0,-14.882c0,-1.481 1.662,-2.34 2.886,-1.499l10.541,7.441c1.041,0.731 1.041,2.267 -0,2.998Z" style="fill:#fff;fill-rule:nonzero;"/><path d="M305.636,272.635c-0.409,-0.409 -0.958,-0.635 -1.528,-0.635l-7.715,-0c-1.183,-0 -2.152,0.968 -2.152,2.152l0,17.215c0,1.184 0.958,2.152 2.141,2.152l12.923,0c1.183,0 2.152,-0.968 2.152,-2.152l-0,-12.018c-0,-0.57 -0.226,-1.119 -0.635,-1.517l-5.186,-5.197Zm0.441,16.58l-6.456,0c-0.592,0 -1.076,-0.484 -1.076,-1.076c0,-0.591 0.484,-1.075 1.076,-1.075l6.456,-0c0.592,-0 1.076,0.484 1.076,1.075c-0,0.592 -0.484,1.076 -1.076,1.076Zm-0,-4.303l-6.456,-0c-0.592,-0 -1.076,-0.485 -1.076,-1.076c0,-0.592 0.484,-1.076 1.076,-1.076l6.456,-0c0.592,-0 1.076,0.484 1.076,1.076c-0,0.591 -0.484,1.076 -1.076,1.076Zm-2.152,-6.456l0,-4.842l5.918,5.918l-4.842,-0c-0.592,-0 -1.076,-0.484 -1.076,-1.076Z" style="fill:#fff;fill-rule:nonzero;"/></g><g><path d="M335.13,271.795c-6.053,-0 -10.966,4.912 -10.966,10.965c0,6.052 4.913,10.965 10.966,10.965c6.052,-0 10.965,-4.913 10.965,-10.965c-0,-6.053 -4.913,-10.965 -10.965,-10.965Zm1.096,16.447l-2.193,0l0,-6.579l2.193,0l0,6.579Zm0,-8.772l-2.193,0l0,-2.193l2.193,0l0,2.193Z" style="fill:#fff;fill-rule:nonzero;"/><path d="M375.266,271.79c-1.005,0 -1.827,0.823 -1.827,1.828l0,18.283c0,1.005 0.822,1.828 1.827,1.828c1.005,0 1.827,-0.823 1.827,-1.828l-0,-18.283c-0,-1.005 -0.822,-1.828 -1.827,-1.828Zm-6.686,12.469l-10.54,7.441c-1.206,0.859 -2.886,-0.019 -2.886,-1.499l-0,-14.882c-0,-1.481 1.662,-2.34 2.886,-1.499l10.54,7.441c1.041,0.731 1.041,2.267 0,2.998Z" style="fill:#fff;fill-rule:nonzero;"/><path d="M397.546,272.635c-0.409,-0.409 -0.957,-0.635 -1.528,-0.635l-7.714,-0c-1.184,-0 -2.152,0.968 -2.152,2.152l-0,17.215c-0,1.184 0.957,2.152 2.141,2.152l12.922,0c1.184,0 2.152,-0.968 2.152,-2.152l0,-12.018c0,-0.57 -0.226,-1.119 -0.634,-1.517l-5.187,-5.197Zm0.441,16.58l-6.455,0c-0.592,0 -1.076,-0.484 -1.076,-1.076c-0,-0.591 0.484,-1.075 1.076,-1.075l6.455,-0c0.592,-0 1.077,0.484 1.077,1.075c-0,0.592 -0.485,1.076 -1.077,1.076Zm0,-4.303l-6.455,-0c-0.592,-0 -1.076,-0.485 -1.076,-1.076c-0,-0.592 0.484,-1.076 1.076,-1.076l6.455,-0c0.592,-0 1.077,0.484 1.077,1.076c-0,0.591 -0.485,1.076 -1.077,1.076Zm-2.151,-6.456l-0,-4.842l5.917,5.918l-4.842,-0c-0.591,-0 -1.075,-0.484 -1.075,-1.076Z" style="fill:#fff;fill-rule:nonzero;"/></g></g><g><g><path d="M90.708,301.763c-6.053,-0 -10.965,4.912 -10.965,10.965c-0,6.052 4.912,10.965 10.965,10.965c6.052,-0 10.965,-4.913 10.965,-10.965c-0,-6.053 -4.913,-10.965 -10.965,-10.965Zm1.096,16.447l-2.193,0l0,-6.579l2.193,0l0,6.579Zm0,-8.772l-2.193,0l0,-2.193l2.193,0l0,2.193Z" style="fill:#e2eaef;fill-rule:nonzero;"/><path d="M130.844,301.758c-1.005,0 -1.827,0.823 -1.827,1.829l0,18.282c0,1.005 0.822,1.828 1.827,1.828c1.005,0 1.827,-0.823 1.827,-1.828l-0,-18.282c-0,-1.006 -0.822,-1.829 -1.827,-1.829Zm-6.686,12.469l-10.54,7.441c-1.206,0.859 -2.886,-0.018 -2.886,-1.499l-0,-14.882c-0,-1.481 1.662,-2.34 2.886,-1.499l10.54,7.441c1.042,0.731 1.042,2.267 0,2.998Z" style="fill:#e2eaef;fill-rule:nonzero;"/><path d="M153.125,302.603c-0.409,-0.409 -0.958,-0.635 -1.528,-0.635l-7.715,0c-1.184,0 -2.152,0.968 -2.152,2.152l-0,17.216c-0,1.183 0.958,2.152 2.141,2.152l12.923,-0c1.183,-0 2.152,-0.969 2.152,-2.152l-0,-12.019c-0,-0.57 -0.226,-1.119 -0.635,-1.517l-5.186,-5.197Zm0.441,16.581l-6.456,-0c-0.592,-0 -1.076,-0.485 -1.076,-1.076c-0,-0.592 0.484,-1.076 1.076,-1.076l6.456,-0c0.591,-0 1.076,0.484 1.076,1.076c-0,0.591 -0.485,1.076 -1.076,1.076Zm-0,-4.304l-6.456,-0c-0.592,-0 -1.076,-0.484 -1.076,-1.076c-0,-0.592 0.484,-1.076 1.076,-1.076l6.456,-0c0.591,-0 1.076,0.484 1.076,1.076c-0,0.592 -0.485,1.076 -1.076,1.076Zm-2.152,-6.456l-0,-4.842l5.918,5.918l-4.842,-0c-0.592,-0 -1.076,-0.484 -1.076,-1.076Z" style="fill:#e2eaef;fill-rule:nonzero;"/></g><g><path d="M182.618,301.763c-6.052,-0 -10.965,4.912 -10.965,10.965c0,6.052 4.913,10.965 10.965,10.965c6.053,-0 10.965,-4.913 10.965,-10.965c0,-6.053 -4.912,-10.965 -10.965,-10.965Zm1.097,16.447l-2.193,0l-0,-6.579l2.193,0l-0,6.579Zm-0,-8.772l-2.193,0l-0,-2.193l2.193,0l-0,2.193Z" style="fill:#e2eaef;fill-rule:nonzero;"/><path d="M222.755,301.758c-1.005,0 -1.827,0.823 -1.827,1.829l-0,18.282c-0,1.005 0.822,1.828 1.827,1.828c1.004,0 1.826,-0.823 1.826,-1.828l0,-18.282c0,-1.006 -0.822,-1.829 -1.826,-1.829Zm-6.686,12.469l-10.54,7.441c-1.206,0.859 -2.887,-0.018 -2.887,-1.499l0,-14.882c0,-1.481 1.663,-2.34 2.887,-1.499l10.54,7.441c1.041,0.731 1.041,2.267 -0,2.998Z" style="fill:#e2eaef;fill-rule:nonzero;"/><path d="M245.035,302.603c-0.409,-0.409 -0.958,-0.635 -1.528,-0.635l-7.715,0c-1.183,0 -2.152,0.968 -2.152,2.152l0,17.216c0,1.183 0.958,2.152 2.142,2.152l12.922,-0c1.184,-0 2.152,-0.969 2.152,-2.152l0,-12.019c0,-0.57 -0.226,-1.119 -0.635,-1.517l-5.186,-5.197Zm0.441,16.581l-6.456,-0c-0.591,-0 -1.076,-0.485 -1.076,-1.076c0,-0.592 0.485,-1.076 1.076,-1.076l6.456,-0c0.592,-0 1.076,0.484 1.076,1.076c0,0.591 -0.484,1.076 -1.076,1.076Zm0,-4.304l-6.456,-0c-0.591,-0 -1.076,-0.484 -1.076,-1.076c0,-0.592 0.485,-1.076 1.076,-1.076l6.456,-0c0.592,-0 1.076,0.484 1.076,1.076c0,0.592 -0.484,1.076 -1.076,1.076Zm-2.152,-6.456l0,-4.842l5.918,5.918l-4.842,-0c-0.592,-0 -1.076,-0.484 -1.076,-1.076Z" style="fill:#e2eaef;fill-rule:nonzero;"/></g><g><path d="M274.529,301.763c-6.053,-0 -10.965,4.912 -10.965,10.965c-0,6.052 4.912,10.965 10.965,10.965c6.052,-0 10.965,-4.913 10.965,-10.965c-0,-6.053 -4.913,-10.965 -10.965,-10.965Zm1.096,16.447l-2.193,0l0,-6.579l2.193,0l0,6.579Zm0,-8.772l-2.193,0l0,-2.193l2.193,0l0,2.193Z" style="fill:#e2eaef;fill-rule:nonzero;"/><path d="M314.665,301.758c-1.005,0 -1.827,0.823 -1.827,1.829l0,18.282c0,1.005 0.822,1.828 1.827,1.828c1.005,0 1.827,-0.823 1.827,-1.828l-0,-18.282c-0,-1.006 -0.822,-1.829 -1.827,-1.829Zm-6.686,12.469l-10.54,7.441c-1.205,0.859 -2.886,-0.018 -2.886,-1.499l0,-14.882c0,-1.481 1.662,-2.34 2.886,-1.499l10.54,7.441c1.042,0.731 1.042,2.267 0,2.998Z" style="fill:#e2eaef;fill-rule:nonzero;"/><path d="M336.946,302.603c-0.409,-0.409 -0.958,-0.635 -1.528,-0.635l-7.715,0c-1.184,0 -2.152,0.968 -2.152,2.152l-0,17.216c-0,1.183 0.958,2.152 2.141,2.152l12.923,-0c1.183,-0 2.152,-0.969 2.152,-2.152l-0,-12.019c-0,-0.57 -0.226,-1.119 -0.635,-1.517l-5.186,-5.197Zm0.441,16.581l-6.456,-0c-0.592,-0 -1.076,-0.485 -1.076,-1.076c-0,-0.592 0.484,-1.076 1.076,-1.076l6.456,-0c0.592,-0 1.076,0.484 1.076,1.076c-0,0.591 -0.484,1.076 -1.076,1.076Zm-0,-4.304l-6.456,-0c-0.592,-0 -1.076,-0.484 -1.076,-1.076c-0,-0.592 0.484,-1.076 1.076,-1.076l6.456,-0c0.592,-0 1.076,0.484 1.076,1.076c-0,0.592 -0.484,1.076 -1.076,1.076Zm-2.152,-6.456l-0,-4.842l5.918,5.918l-4.842,-0c-0.592,-0 -1.076,-0.484 -1.076,-1.076Z" style="fill:#e2eaef;fill-rule:nonzero;"/></g><g><path d="M366.439,301.763c-6.052,-0 -10.965,4.912 -10.965,10.965c0,6.052 4.913,10.965 10.965,10.965c6.053,-0 10.965,-4.913 10.965,-10.965c0,-6.053 -4.912,-10.965 -10.965,-10.965Zm1.097,16.447l-2.193,0l-0,-6.579l2.193,0l-0,6.579Zm-0,-8.772l-2.193,0l-0,-2.193l2.193,0l-0,2.193Z" style="fill:#e2eaef;fill-rule:nonzero;"/><path d="M451.747,301.763c-6.053,-0 -10.965,4.912 -10.965,10.965c0,6.052 4.912,10.965 10.965,10.965c6.053,-0 10.965,-4.913 10.965,-10.965c0,-6.053 -4.912,-10.965 -10.965,-10.965Zm1.097,16.447l-2.193,0l-0,-6.579l2.193,0l-0,6.579Zm-0,-8.772l-2.193,0l-0,-2.193l2.193,0l-0,2.193Z" style="fill:#e2eaef;fill-rule:nonzero;"/><path d="M406.576,301.758c-1.005,0 -1.827,0.823 -1.827,1.829l-0,18.282c-0,1.005 0.822,1.828 1.827,1.828c1.004,0 1.826,-0.823 1.826,-1.828l0,-18.282c0,-1.006 -0.822,-1.829 -1.826,-1.829Zm-6.686,12.469l-10.54,7.441c-1.206,0.859 -2.886,-0.018 -2.886,-1.499l-0,-14.882c-0,-1.481 1.662,-2.34 2.886,-1.499l10.54,7.441c1.041,0.731 1.041,2.267 -0,2.998Z" style="fill:#e2eaef;fill-rule:nonzero;"/><path d="M428.856,302.603c-0.409,-0.409 -0.958,-0.635 -1.528,-0.635l-7.715,0c-1.183,0 -2.151,0.968 -2.151,2.152l-0,17.216c-0,1.183 0.957,2.152 2.141,2.152l12.922,-0c1.184,-0 2.152,-0.969 2.152,-2.152l0,-12.019c0,-0.57 -0.226,-1.119 -0.635,-1.517l-5.186,-5.197Zm0.441,16.581l-6.456,-0c-0.591,-0 -1.076,-0.485 -1.076,-1.076c0,-0.592 0.485,-1.076 1.076,-1.076l6.456,-0c0.592,-0 1.076,0.484 1.076,1.076c0,0.591 -0.484,1.076 -1.076,1.076Zm0,-4.304l-6.456,-0c-0.591,-0 -1.076,-0.484 -1.076,-1.076c0,-0.592 0.485,-1.076 1.076,-1.076l6.456,-0c0.592,-0 1.076,0.484 1.076,1.076c0,0.592 -0.484,1.076 -1.076,1.076Zm-2.152,-6.456l0,-4.842l5.918,5.918l-4.842,-0c-0.592,-0 -1.076,-0.484 -1.076,-1.076Z" style="fill:#e2eaef;fill-rule:nonzero;"/></g></g><g><g><path d="M119.872,331.731c-6.053,-0 -10.965,4.912 -10.965,10.965c-0,6.053 4.912,10.965 10.965,10.965c6.053,-0 10.965,-4.912 10.965,-10.965c-0,-6.053 -4.912,-10.965 -10.965,-10.965Zm1.096,16.447l-2.193,0l0,-6.579l2.193,0l0,6.579Zm0,-8.772l-2.193,0l0,-2.193l2.193,0l0,2.193Z" style="fill:#e2eaef;fill-rule:nonzero;"/><path d="M160.008,331.726c-1.005,0 -1.827,0.823 -1.827,1.829l0,18.282c0,1.006 0.822,1.828 1.827,1.828c1.005,0 1.827,-0.822 1.827,-1.828l-0,-18.282c-0,-1.006 -0.822,-1.829 -1.827,-1.829Zm-6.686,12.469l-10.54,7.441c-1.205,0.859 -2.886,-0.018 -2.886,-1.499l0,-14.882c0,-1.481 1.662,-2.34 2.886,-1.499l10.54,7.441c1.042,0.731 1.042,2.267 0,2.998Z" style="fill:#e2eaef;fill-rule:nonzero;"/><path d="M182.289,332.571c-0.409,-0.409 -0.958,-0.635 -1.528,-0.635l-7.715,0c-1.184,0 -2.152,0.968 -2.152,2.152l0,17.216c0,1.183 0.958,2.152 2.141,2.152l12.923,-0c1.183,-0 2.152,-0.969 2.152,-2.152l-0,-12.019c-0,-0.57 -0.226,-1.119 -0.635,-1.517l-5.186,-5.197Zm0.441,16.581l-6.456,-0c-0.592,-0 -1.076,-0.485 -1.076,-1.076c-0,-0.592 0.484,-1.076 1.076,-1.076l6.456,-0c0.592,-0 1.076,0.484 1.076,1.076c-0,0.591 -0.484,1.076 -1.076,1.076Zm-0,-4.304l-6.456,-0c-0.592,-0 -1.076,-0.484 -1.076,-1.076c-0,-0.592 0.484,-1.076 1.076,-1.076l6.456,-0c0.592,-0 1.076,0.484 1.076,1.076c-0,0.592 -0.484,1.076 -1.076,1.076Zm-2.152,-6.456l-0,-4.842l5.918,5.918l-4.842,-0c-0.592,-0 -1.076,-0.484 -1.076,-1.076Z" style="fill:#e2eaef;fill-rule:nonzero;"/></g><g><path d="M211.782,331.731c-6.052,-0 -10.965,4.912 -10.965,10.965c0,6.053 4.913,10.965 10.965,10.965c6.053,-0 10.965,-4.912 10.965,-10.965c0,-6.053 -4.912,-10.965 -10.965,-10.965Zm1.097,16.447l-2.193,0l-0,-6.579l2.193,0l-0,6.579Zm-0,-8.772l-2.193,0l-0,-2.193l2.193,0l-0,2.193Z" style="fill:#e2eaef;fill-rule:nonzero;"/><path d="M251.919,331.726c-1.005,0 -1.827,0.823 -1.827,1.829l-0,18.282c-0,1.006 0.822,1.828 1.827,1.828c1.004,0 1.826,-0.822 1.826,-1.828l0,-18.282c0,-1.006 -0.822,-1.829 -1.826,-1.829Zm-6.686,12.469l-10.54,7.441c-1.206,0.859 -2.886,-0.018 -2.886,-1.499l-0,-14.882c-0,-1.481 1.662,-2.34 2.886,-1.499l10.54,7.441c1.041,0.731 1.041,2.267 -0,2.998Z" style="fill:#e2eaef;fill-rule:nonzero;"/><path d="M274.199,332.571c-0.409,-0.409 -0.957,-0.635 -1.528,-0.635l-7.714,0c-1.184,0 -2.152,0.968 -2.152,2.152l-0,17.216c-0,1.183 0.957,2.152 2.141,2.152l12.922,-0c1.184,-0 2.152,-0.969 2.152,-2.152l0,-12.019c0,-0.57 -0.226,-1.119 -0.635,-1.517l-5.186,-5.197Zm0.441,16.581l-6.456,-0c-0.591,-0 -1.076,-0.485 -1.076,-1.076c0,-0.592 0.485,-1.076 1.076,-1.076l6.456,-0c0.592,-0 1.076,0.484 1.076,1.076c0,0.591 -0.484,1.076 -1.076,1.076Zm0,-4.304l-6.456,-0c-0.591,-0 -1.076,-0.484 -1.076,-1.076c0,-0.592 0.485,-1.076 1.076,-1.076l6.456,-0c0.592,-0 1.076,0.484 1.076,1.076c0,0.592 -0.484,1.076 -1.076,1.076Zm-2.152,-6.456l0,-4.842l5.918,5.918l-4.842,-0c-0.591,-0 -1.076,-0.484 -1.076,-1.076Z" style="fill:#e2eaef;fill-rule:nonzero;"/></g><g><path d="M303.693,331.731c-6.053,-0 -10.965,4.912 -10.965,10.965c-0,6.053 4.912,10.965 10.965,10.965c6.053,-0 10.965,-4.912 10.965,-10.965c-0,-6.053 -4.912,-10.965 -10.965,-10.965Zm1.096,16.447l-2.193,0l0,-6.579l2.193,0l0,6.579Zm0,-8.772l-2.193,0l0,-2.193l2.193,0l0,2.193Z" style="fill:#e2eaef;fill-rule:nonzero;"/><path d="M343.829,331.726c-1.005,0 -1.827,0.823 -1.827,1.829l0,18.282c0,1.006 0.822,1.828 1.827,1.828c1.005,0 1.827,-0.822 1.827,-1.828l-0,-18.282c-0,-1.006 -0.822,-1.829 -1.827,-1.829Zm-6.686,12.469l-10.54,7.441c-1.205,0.859 -2.886,-0.018 -2.886,-1.499l0,-14.882c0,-1.481 1.662,-2.34 2.886,-1.499l10.54,7.441c1.042,0.731 1.042,2.267 0,2.998Z" style="fill:#e2eaef;fill-rule:nonzero;"/><path d="M366.11,332.571c-0.409,-0.409 -0.958,-0.635 -1.528,-0.635l-7.715,0c-1.184,0 -2.152,0.968 -2.152,2.152l0,17.216c0,1.183 0.958,2.152 2.141,2.152l12.923,-0c1.183,-0 2.152,-0.969 2.152,-2.152l-0,-12.019c-0,-0.57 -0.226,-1.119 -0.635,-1.517l-5.186,-5.197Zm0.441,16.581l-6.456,-0c-0.592,-0 -1.076,-0.485 -1.076,-1.076c-0,-0.592 0.484,-1.076 1.076,-1.076l6.456,-0c0.592,-0 1.076,0.484 1.076,1.076c-0,0.591 -0.484,1.076 -1.076,1.076Zm-0,-4.304l-6.456,-0c-0.592,-0 -1.076,-0.484 -1.076,-1.076c-0,-0.592 0.484,-1.076 1.076,-1.076l6.456,-0c0.592,-0 1.076,0.484 1.076,1.076c-0,0.592 -0.484,1.076 -1.076,1.076Zm-2.152,-6.456l-0,-4.842l5.918,5.918l-4.842,-0c-0.592,-0 -1.076,-0.484 -1.076,-1.076Z" style="fill:#e2eaef;fill-rule:nonzero;"/></g><g><path d="M395.603,331.731c-6.052,-0 -10.965,4.912 -10.965,10.965c0,6.053 4.913,10.965 10.965,10.965c6.053,-0 10.965,-4.912 10.965,-10.965c0,-6.053 -4.912,-10.965 -10.965,-10.965Zm1.097,16.447l-2.193,0l-0,-6.579l2.193,0l-0,6.579Zm-0,-8.772l-2.193,0l-0,-2.193l2.193,0l-0,2.193Z" style="fill:#e2eaef;fill-rule:nonzero;"/><path d="M435.74,331.726c-1.005,0 -1.827,0.823 -1.827,1.829l0,18.282c0,1.006 0.822,1.828 1.827,1.828c1.004,0 1.826,-0.822 1.826,-1.828l0,-18.282c0,-1.006 -0.822,-1.829 -1.826,-1.829Zm-6.686,12.469l-10.54,7.441c-1.206,0.859 -2.886,-0.018 -2.886,-1.499l-0,-14.882c-0,-1.481 1.662,-2.34 2.886,-1.499l10.54,7.441c1.041,0.731 1.041,2.267 -0,2.998Z" style="fill:#e2eaef;fill-rule:nonzero;"/><path d="M458.02,332.571c-0.409,-0.409 -0.957,-0.635 -1.528,-0.635l-7.714,0c-1.184,0 -2.152,0.968 -2.152,2.152l-0,17.216c-0,1.183 0.957,2.152 2.141,2.152l12.922,-0c1.184,-0 2.152,-0.969 2.152,-2.152l0,-12.019c0,-0.57 -0.226,-1.119 -0.635,-1.517l-5.186,-5.197Zm0.441,16.581l-6.456,-0c-0.591,-0 -1.075,-0.485 -1.075,-1.076c-0,-0.592 0.484,-1.076 1.075,-1.076l6.456,-0c0.592,-0 1.076,0.484 1.076,1.076c0,0.591 -0.484,1.076 -1.076,1.076Zm0,-4.304l-6.456,-0c-0.591,-0 -1.075,-0.484 -1.075,-1.076c-0,-0.592 0.484,-1.076 1.075,-1.076l6.456,-0c0.592,-0 1.076,0.484 1.076,1.076c0,0.592 -0.484,1.076 -1.076,1.076Zm-2.152,-6.456l0,-4.842l5.918,5.918l-4.842,-0c-0.591,-0 -1.076,-0.484 -1.076,-1.076Z" style="fill:#e2eaef;fill-rule:nonzero;"/></g></g><g><g><path d="M148.705,361.945c-6.053,-0 -10.965,4.912 -10.965,10.965c-0,6.053 4.912,10.965 10.965,10.965c6.052,0 10.965,-4.912 10.965,-10.965c-0,-6.053 -4.913,-10.965 -10.965,-10.965Zm1.096,16.447l-2.193,0l0,-6.579l2.193,0l0,6.579Zm0,-8.772l-2.193,0l0,-2.193l2.193,0l0,2.193Z" style="fill:#e2e9f0;fill-rule:nonzero;"/><path d="M188.841,361.941c-1.005,-0 -1.827,0.822 -1.827,1.828l0,18.282c0,1.006 0.822,1.828 1.827,1.828c1.005,0 1.827,-0.822 1.827,-1.828l-0,-18.282c-0,-1.006 -0.822,-1.828 -1.827,-1.828Zm-6.686,12.468l-10.54,7.441c-1.206,0.859 -2.886,-0.018 -2.886,-1.499l-0,-14.882c-0,-1.481 1.662,-2.34 2.886,-1.499l10.54,7.441c1.041,0.731 1.041,2.267 0,2.998Z" style="fill:#e2e9f0;fill-rule:nonzero;"/><path d="M211.122,362.785c-0.409,-0.409 -0.958,-0.635 -1.528,-0.635l-7.715,0c-1.184,0 -2.152,0.969 -2.152,2.152l-0,17.216c-0,1.183 0.958,2.152 2.141,2.152l12.923,-0c1.183,-0 2.152,-0.969 2.152,-2.152l-0,-12.019c-0,-0.57 -0.226,-1.119 -0.635,-1.517l-5.186,-5.197Zm0.441,16.581l-6.456,-0c-0.592,-0 -1.076,-0.484 -1.076,-1.076c-0,-0.592 0.484,-1.076 1.076,-1.076l6.456,-0c0.591,-0 1.076,0.484 1.076,1.076c-0,0.592 -0.485,1.076 -1.076,1.076Zm-0,-4.304l-6.456,-0c-0.592,-0 -1.076,-0.484 -1.076,-1.076c-0,-0.592 0.484,-1.076 1.076,-1.076l6.456,-0c0.591,-0 1.076,0.484 1.076,1.076c-0,0.592 -0.485,1.076 -1.076,1.076Zm-2.152,-6.456l-0,-4.842l5.918,5.918l-4.842,-0c-0.592,-0 -1.076,-0.484 -1.076,-1.076Z" style="fill:#e2e9f0;fill-rule:nonzero;"/></g><g><path d="M240.615,361.945c-6.053,-0 -10.965,4.912 -10.965,10.965c0,6.053 4.912,10.965 10.965,10.965c6.053,0 10.965,-4.912 10.965,-10.965c0,-6.053 -4.912,-10.965 -10.965,-10.965Zm1.097,16.447l-2.193,0l-0,-6.579l2.193,0l-0,6.579Zm-0,-8.772l-2.193,0l-0,-2.193l2.193,0l-0,2.193Z" style="fill:#e2e9f0;fill-rule:nonzero;"/><path d="M280.751,361.941c-1.004,-0 -1.826,0.822 -1.826,1.828l-0,18.282c-0,1.006 0.822,1.828 1.826,1.828c1.005,0 1.827,-0.822 1.827,-1.828l0,-18.282c0,-1.006 -0.822,-1.828 -1.827,-1.828Zm-6.685,12.468l-10.54,7.441c-1.206,0.859 -2.887,-0.018 -2.887,-1.499l0,-14.882c0,-1.481 1.663,-2.34 2.887,-1.499l10.54,7.441c1.041,0.731 1.041,2.267 -0,2.998Z" style="fill:#e2e9f0;fill-rule:nonzero;"/><path d="M303.032,362.785c-0.409,-0.409 -0.958,-0.635 -1.528,-0.635l-7.715,0c-1.183,0 -2.152,0.969 -2.152,2.152l0,17.216c0,1.183 0.958,2.152 2.142,2.152l12.922,-0c1.184,-0 2.152,-0.969 2.152,-2.152l0,-12.019c0,-0.57 -0.226,-1.119 -0.635,-1.517l-5.186,-5.197Zm0.441,16.581l-6.456,-0c-0.591,-0 -1.076,-0.484 -1.076,-1.076c0,-0.592 0.485,-1.076 1.076,-1.076l6.456,-0c0.592,-0 1.076,0.484 1.076,1.076c0,0.592 -0.484,1.076 -1.076,1.076Zm0,-4.304l-6.456,-0c-0.591,-0 -1.076,-0.484 -1.076,-1.076c0,-0.592 0.485,-1.076 1.076,-1.076l6.456,-0c0.592,-0 1.076,0.484 1.076,1.076c0,0.592 -0.484,1.076 -1.076,1.076Zm-2.152,-6.456l0,-4.842l5.918,5.918l-4.842,-0c-0.592,-0 -1.076,-0.484 -1.076,-1.076Z" style="fill:#e2e9f0;fill-rule:nonzero;"/></g><g><path d="M332.526,361.945c-6.053,-0 -10.965,4.912 -10.965,10.965c-0,6.053 4.912,10.965 10.965,10.965c6.052,0 10.965,-4.912 10.965,-10.965c-0,-6.053 -4.913,-10.965 -10.965,-10.965Zm1.096,16.447l-2.193,0l0,-6.579l2.193,0l0,6.579Zm0,-8.772l-2.193,0l0,-2.193l2.193,0l0,2.193Z" style="fill:#e2e9f0;fill-rule:nonzero;"/><path d="M372.662,361.941c-1.005,-0 -1.827,0.822 -1.827,1.828l0,18.282c0,1.006 0.822,1.828 1.827,1.828c1.005,0 1.827,-0.822 1.827,-1.828l-0,-18.282c-0,-1.006 -0.822,-1.828 -1.827,-1.828Zm-6.686,12.468l-10.54,7.441c-1.206,0.859 -2.886,-0.018 -2.886,-1.499l-0,-14.882c-0,-1.481 1.662,-2.34 2.886,-1.499l10.54,7.441c1.042,0.731 1.042,2.267 0,2.998Z" style="fill:#e2e9f0;fill-rule:nonzero;"/><path d="M394.943,362.785c-0.409,-0.409 -0.958,-0.635 -1.528,-0.635l-7.715,0c-1.184,0 -2.152,0.969 -2.152,2.152l-0,17.216c-0,1.183 0.958,2.152 2.141,2.152l12.923,-0c1.183,-0 2.152,-0.969 2.152,-2.152l-0,-12.019c-0,-0.57 -0.226,-1.119 -0.635,-1.517l-5.186,-5.197Zm0.441,16.581l-6.456,-0c-0.592,-0 -1.076,-0.484 -1.076,-1.076c-0,-0.592 0.484,-1.076 1.076,-1.076l6.456,-0c0.591,-0 1.076,0.484 1.076,1.076c-0,0.592 -0.485,1.076 -1.076,1.076Zm-0,-4.304l-6.456,-0c-0.592,-0 -1.076,-0.484 -1.076,-1.076c-0,-0.592 0.484,-1.076 1.076,-1.076l6.456,-0c0.591,-0 1.076,0.484 1.076,1.076c-0,0.592 -0.485,1.076 -1.076,1.076Zm-2.152,-6.456l-0,-4.842l5.918,5.918l-4.842,-0c-0.592,-0 -1.076,-0.484 -1.076,-1.076Z" style="fill:#e2e9f0;fill-rule:nonzero;"/></g><g><path d="M424.436,361.945c-6.052,-0 -10.965,4.912 -10.965,10.965c0,6.053 4.913,10.965 10.965,10.965c6.053,0 10.965,-4.912 10.965,-10.965c0,-6.053 -4.912,-10.965 -10.965,-10.965Zm1.097,16.447l-2.193,0l-0,-6.579l2.193,0l-0,6.579Zm-0,-8.772l-2.193,0l-0,-2.193l2.193,0l-0,2.193Z" style="fill:#e2e9f0;fill-rule:nonzero;"/><path d="M464.573,361.941c-1.005,-0 -1.827,0.822 -1.827,1.828l-0,18.282c-0,1.006 0.822,1.828 1.827,1.828c1.004,0 1.826,-0.822 1.826,-1.828l0,-18.282c0,-1.006 -0.822,-1.828 -1.826,-1.828Zm-6.686,12.468l-10.54,7.441c-1.206,0.859 -2.887,-0.018 -2.887,-1.499l0,-14.882c0,-1.481 1.663,-2.34 2.887,-1.499l10.54,7.441c1.041,0.731 1.041,2.267 -0,2.998Z" style="fill:#e2e9f0;fill-rule:nonzero;"/><path d="M486.853,362.785c-0.409,-0.409 -0.958,-0.635 -1.528,-0.635l-7.715,0c-1.183,0 -2.152,0.969 -2.152,2.152l0,17.216c0,1.183 0.958,2.152 2.142,2.152l12.922,-0c1.184,-0 2.152,-0.969 2.152,-2.152l0,-12.019c0,-0.57 -0.226,-1.119 -0.635,-1.517l-5.186,-5.197Zm0.441,16.581l-6.456,-0c-0.591,-0 -1.076,-0.484 -1.076,-1.076c0,-0.592 0.485,-1.076 1.076,-1.076l6.456,-0c0.592,-0 1.076,0.484 1.076,1.076c0,0.592 -0.484,1.076 -1.076,1.076Zm0,-4.304l-6.456,-0c-0.591,-0 -1.076,-0.484 -1.076,-1.076c0,-0.592 0.485,-1.076 1.076,-1.076l6.456,-0c0.592,-0 1.076,0.484 1.076,1.076c0,0.592 -0.484,1.076 -1.076,1.076Zm-2.152,-6.456l0,-4.842l5.918,5.918l-4.842,-0c-0.592,-0 -1.076,-0.484 -1.076,-1.076Z" style="fill:#e2e9f0;fill-rule:nonzero;"/></g></g><g><g><path d="M180.014,391.913c-6.052,-0 -10.965,4.912 -10.965,10.965c0,6.053 4.913,10.965 10.965,10.965c6.053,0 10.966,-4.912 10.966,-10.965c-0,-6.053 -4.913,-10.965 -10.966,-10.965Zm1.097,16.448l-2.193,-0l-0,-6.579l2.193,-0l-0,6.579Zm-0,-8.772l-2.193,-0l-0,-2.193l2.193,-0l-0,2.193Z" style="fill:#e2eaf0;fill-rule:nonzero;"/><path d="M220.151,391.909c-1.005,-0 -1.827,0.822 -1.827,1.828l0,18.282c0,1.006 0.822,1.828 1.827,1.828c1.005,0 1.827,-0.822 1.827,-1.828l-0,-18.282c-0,-1.006 -0.822,-1.828 -1.827,-1.828Zm-6.686,12.468l-10.54,7.441c-1.206,0.859 -2.886,-0.018 -2.886,-1.499l-0,-14.882c-0,-1.481 1.662,-2.34 2.886,-1.499l10.54,7.441c1.041,0.731 1.041,2.267 0,2.998Z" style="fill:#e2eaf0;fill-rule:nonzero;"/><path d="M242.431,392.753c-0.409,-0.409 -0.957,-0.635 -1.528,-0.635l-7.714,0c-1.184,0 -2.152,0.969 -2.152,2.152l-0,17.216c-0,1.183 0.957,2.152 2.141,2.152l12.922,-0c1.184,-0 2.152,-0.969 2.152,-2.152l0,-12.019c0,-0.57 -0.226,-1.119 -0.635,-1.517l-5.186,-5.197Zm0.441,16.581l-6.455,-0c-0.592,-0 -1.076,-0.484 -1.076,-1.076c-0,-0.592 0.484,-1.076 1.076,-1.076l6.455,-0c0.592,-0 1.076,0.484 1.076,1.076c0,0.592 -0.484,1.076 -1.076,1.076Zm0,-4.304l-6.455,0c-0.592,0 -1.076,-0.484 -1.076,-1.076c-0,-0.592 0.484,-1.076 1.076,-1.076l6.455,0c0.592,0 1.076,0.484 1.076,1.076c0,0.592 -0.484,1.076 -1.076,1.076Zm-2.152,-6.456l0,-4.842l5.918,5.918l-4.842,0c-0.591,0 -1.076,-0.484 -1.076,-1.076Z" style="fill:#e2eaf0;fill-rule:nonzero;"/></g><g><path d="M271.925,391.913c-6.053,-0 -10.965,4.912 -10.965,10.965c-0,6.053 4.912,10.965 10.965,10.965c6.053,0 10.965,-4.912 10.965,-10.965c0,-6.053 -4.912,-10.965 -10.965,-10.965Zm1.097,16.448l-2.194,-0l0,-6.579l2.194,-0l-0,6.579Zm-0,-8.772l-2.194,-0l0,-2.193l2.194,-0l-0,2.193Z" style="fill:#e2eaf0;fill-rule:nonzero;"/><path d="M312.061,391.909c-1.004,-0 -1.826,0.822 -1.826,1.828l-0,18.282c-0,1.006 0.822,1.828 1.826,1.828c1.005,0 1.827,-0.822 1.827,-1.828l0,-18.282c0,-1.006 -0.822,-1.828 -1.827,-1.828Zm-6.685,12.468l-10.541,7.441c-1.205,0.859 -2.886,-0.018 -2.886,-1.499l0,-14.882c0,-1.481 1.662,-2.34 2.886,-1.499l10.541,7.441c1.041,0.731 1.041,2.267 -0,2.998Z" style="fill:#e2eaf0;fill-rule:nonzero;"/><path d="M334.342,392.753c-0.409,-0.409 -0.958,-0.635 -1.528,-0.635l-7.715,0c-1.183,0 -2.152,0.969 -2.152,2.152l0,17.216c0,1.183 0.958,2.152 2.141,2.152l12.923,-0c1.183,-0 2.152,-0.969 2.152,-2.152l-0,-12.019c-0,-0.57 -0.226,-1.119 -0.635,-1.517l-5.186,-5.197Zm0.441,16.581l-6.456,-0c-0.592,-0 -1.076,-0.484 -1.076,-1.076c0,-0.592 0.484,-1.076 1.076,-1.076l6.456,-0c0.592,-0 1.076,0.484 1.076,1.076c-0,0.592 -0.484,1.076 -1.076,1.076Zm-0,-4.304l-6.456,0c-0.592,0 -1.076,-0.484 -1.076,-1.076c0,-0.592 0.484,-1.076 1.076,-1.076l6.456,0c0.592,0 1.076,0.484 1.076,1.076c-0,0.592 -0.484,1.076 -1.076,1.076Zm-2.152,-6.456l-0,-4.842l5.918,5.918l-4.842,0c-0.592,0 -1.076,-0.484 -1.076,-1.076Z" style="fill:#e2eaf0;fill-rule:nonzero;"/></g><g><path d="M363.835,391.913c-6.052,-0 -10.965,4.912 -10.965,10.965c0,6.053 4.913,10.965 10.965,10.965c6.053,0 10.966,-4.912 10.966,-10.965c-0,-6.053 -4.913,-10.965 -10.966,-10.965Zm1.097,16.448l-2.193,-0l-0,-6.579l2.193,-0l0,6.579Zm0,-8.772l-2.193,-0l-0,-2.193l2.193,-0l0,2.193Z" style="fill:#e2eaf0;fill-rule:nonzero;"/><path d="M403.972,391.909c-1.005,-0 -1.827,0.822 -1.827,1.828l0,18.282c0,1.006 0.822,1.828 1.827,1.828c1.005,0 1.827,-0.822 1.827,-1.828l-0,-18.282c-0,-1.006 -0.822,-1.828 -1.827,-1.828Zm-6.686,12.468l-10.54,7.441c-1.206,0.859 -2.886,-0.018 -2.886,-1.499l-0,-14.882c-0,-1.481 1.662,-2.34 2.886,-1.499l10.54,7.441c1.041,0.731 1.041,2.267 0,2.998Z" style="fill:#e2eaf0;fill-rule:nonzero;"/><path d="M426.252,392.753c-0.409,-0.409 -0.957,-0.635 -1.528,-0.635l-7.714,0c-1.184,0 -2.152,0.969 -2.152,2.152l-0,17.216c-0,1.183 0.957,2.152 2.141,2.152l12.922,-0c1.184,-0 2.152,-0.969 2.152,-2.152l0,-12.019c0,-0.57 -0.226,-1.119 -0.635,-1.517l-5.186,-5.197Zm0.441,16.581l-6.455,-0c-0.592,-0 -1.076,-0.484 -1.076,-1.076c-0,-0.592 0.484,-1.076 1.076,-1.076l6.455,-0c0.592,-0 1.076,0.484 1.076,1.076c0,0.592 -0.484,1.076 -1.076,1.076Zm0,-4.304l-6.455,0c-0.592,0 -1.076,-0.484 -1.076,-1.076c-0,-0.592 0.484,-1.076 1.076,-1.076l6.455,0c0.592,0 1.076,0.484 1.076,1.076c0,0.592 -0.484,1.076 -1.076,1.076Zm-2.152,-6.456l0,-4.842l5.918,5.918l-4.842,0c-0.591,0 -1.076,-0.484 -1.076,-1.076Z" style="fill:#e2eaf0;fill-rule:nonzero;"/></g><g><path d="M455.746,391.913c-6.053,-0 -10.965,4.912 -10.965,10.965c-0,6.053 4.912,10.965 10.965,10.965c6.053,0 10.965,-4.912 10.965,-10.965c0,-6.053 -4.912,-10.965 -10.965,-10.965Zm1.097,16.448l-2.193,-0l-0,-6.579l2.193,-0l-0,6.579Zm-0,-8.772l-2.193,-0l-0,-2.193l2.193,-0l-0,2.193Z" style="fill:#e2eaf0;fill-rule:nonzero;"/><path d="M495.882,391.909c-1.004,-0 -1.826,0.822 -1.826,1.828l-0,18.282c-0,1.006 0.822,1.828 1.826,1.828c1.005,0 1.827,-0.822 1.827,-1.828l0,-18.282c0,-1.006 -0.822,-1.828 -1.827,-1.828Zm-6.685,12.468l-10.541,7.441c-1.205,0.859 -2.886,-0.018 -2.886,-1.499l0,-14.882c0,-1.481 1.662,-2.34 2.886,-1.499l10.541,7.441c1.041,0.731 1.041,2.267 -0,2.998Z" style="fill:#e2eaf0;fill-rule:nonzero;"/><path d="M518.163,392.753c-0.409,-0.409 -0.958,-0.635 -1.528,-0.635l-7.715,0c-1.183,0 -2.152,0.969 -2.152,2.152l0,17.216c0,1.183 0.958,2.152 2.141,2.152l12.923,-0c1.183,-0 2.152,-0.969 2.152,-2.152l-0,-12.019c-0,-0.57 -0.226,-1.119 -0.635,-1.517l-5.186,-5.197Zm0.441,16.581l-6.456,-0c-0.592,-0 -1.076,-0.484 -1.076,-1.076c0,-0.592 0.484,-1.076 1.076,-1.076l6.456,-0c0.592,-0 1.076,0.484 1.076,1.076c-0,0.592 -0.484,1.076 -1.076,1.076Zm-0,-4.304l-6.456,0c-0.592,0 -1.076,-0.484 -1.076,-1.076c0,-0.592 0.484,-1.076 1.076,-1.076l6.456,0c0.592,0 1.076,0.484 1.076,1.076c-0,0.592 -0.484,1.076 -1.076,1.076Zm-2.152,-6.456l-0,-4.842l5.918,5.918l-4.842,0c-0.592,0 -1.076,-0.484 -1.076,-1.076Z" style="fill:#e2eaf0;fill-rule:nonzero;"/></g></g><g><g><path d="M209.179,421.881c-6.053,0 -10.966,4.912 -10.966,10.965c0,6.053 4.913,10.965 10.966,10.965c6.052,0 10.965,-4.912 10.965,-10.965c-0,-6.053 -4.913,-10.965 -10.965,-10.965Zm1.096,16.448l-2.193,-0l0,-6.579l2.193,-0l0,6.579Zm0,-8.772l-2.193,-0l0,-2.193l2.193,-0l0,2.193Z" style="fill:#e2eaef;fill-rule:nonzero;"/><path d="M249.315,421.877c-1.005,-0 -1.827,0.822 -1.827,1.828l0,18.282c0,1.006 0.822,1.829 1.827,1.829c1.005,-0 1.827,-0.823 1.827,-1.829l-0,-18.282c-0,-1.006 -0.822,-1.828 -1.827,-1.828Zm-6.686,12.468l-10.54,7.441c-1.206,0.859 -2.886,-0.018 -2.886,-1.499l-0,-14.882c-0,-1.481 1.662,-2.34 2.886,-1.499l10.54,7.441c1.041,0.731 1.041,2.267 0,2.998Z" style="fill:#e2eaef;fill-rule:nonzero;"/><path d="M271.595,422.721c-0.408,-0.409 -0.957,-0.635 -1.528,-0.635l-7.714,0c-1.184,0 -2.152,0.969 -2.152,2.152l-0,17.216c-0,1.184 0.957,2.152 2.141,2.152l12.922,-0c1.184,-0 2.152,-0.968 2.152,-2.152l0,-12.019c0,-0.57 -0.226,-1.119 -0.634,-1.517l-5.187,-5.197Zm0.442,16.581l-6.456,-0c-0.592,-0 -1.076,-0.484 -1.076,-1.076c-0,-0.592 0.484,-1.076 1.076,-1.076l6.456,0c0.591,0 1.076,0.484 1.076,1.076c-0,0.592 -0.485,1.076 -1.076,1.076Zm-0,-4.304l-6.456,0c-0.592,0 -1.076,-0.484 -1.076,-1.076c-0,-0.592 0.484,-1.076 1.076,-1.076l6.456,0c0.591,0 1.076,0.484 1.076,1.076c-0,0.592 -0.485,1.076 -1.076,1.076Zm-2.152,-6.456l-0,-4.842l5.917,5.918l-4.841,0c-0.592,0 -1.076,-0.484 -1.076,-1.076Z" style="fill:#e2eaef;fill-rule:nonzero;"/></g><g><path d="M301.089,421.881c-6.053,0 -10.965,4.912 -10.965,10.965c-0,6.053 4.912,10.965 10.965,10.965c6.053,0 10.965,-4.912 10.965,-10.965c0,-6.053 -4.912,-10.965 -10.965,-10.965Zm1.097,16.448l-2.193,-0l-0,-6.579l2.193,-0l-0,6.579Zm-0,-8.772l-2.193,-0l-0,-2.193l2.193,-0l-0,2.193Z" style="fill:#e1eaf0;fill-rule:nonzero;"/><path d="M341.225,421.877c-1.004,-0 -1.826,0.822 -1.826,1.828l-0,18.282c-0,1.006 0.822,1.829 1.826,1.829c1.005,-0 1.827,-0.823 1.827,-1.829l0,-18.282c0,-1.006 -0.822,-1.828 -1.827,-1.828Zm-6.685,12.468l-10.54,7.441c-1.206,0.859 -2.887,-0.018 -2.887,-1.499l0,-14.882c0,-1.481 1.663,-2.34 2.887,-1.499l10.54,7.441c1.041,0.731 1.041,2.267 -0,2.998Z" style="fill:#e1eaf0;fill-rule:nonzero;"/><path d="M363.506,422.721c-0.409,-0.409 -0.958,-0.635 -1.528,-0.635l-7.715,0c-1.183,0 -2.152,0.969 -2.152,2.152l0,17.216c0,1.184 0.958,2.152 2.141,2.152l12.923,-0c1.184,-0 2.152,-0.968 2.152,-2.152l-0,-12.019c-0,-0.57 -0.226,-1.119 -0.635,-1.517l-5.186,-5.197Zm0.441,16.581l-6.456,-0c-0.592,-0 -1.076,-0.484 -1.076,-1.076c0,-0.592 0.484,-1.076 1.076,-1.076l6.456,0c0.592,0 1.076,0.484 1.076,1.076c0,0.592 -0.484,1.076 -1.076,1.076Zm0,-4.304l-6.456,0c-0.592,0 -1.076,-0.484 -1.076,-1.076c0,-0.592 0.484,-1.076 1.076,-1.076l6.456,0c0.592,0 1.076,0.484 1.076,1.076c0,0.592 -0.484,1.076 -1.076,1.076Zm-2.152,-6.456l0,-4.842l5.918,5.918l-4.842,0c-0.592,0 -1.076,-0.484 -1.076,-1.076Z" style="fill:#e1eaf0;fill-rule:nonzero;"/></g><g><path d="M393,421.881c-6.053,0 -10.965,4.912 -10.965,10.965c-0,6.053 4.912,10.965 10.965,10.965c6.052,0 10.965,-4.912 10.965,-10.965c-0,-6.053 -4.913,-10.965 -10.965,-10.965Zm1.096,16.448l-2.193,-0l0,-6.579l2.193,-0l0,6.579Zm0,-8.772l-2.193,-0l0,-2.193l2.193,-0l0,2.193Z" style="fill:#e2ebf0;fill-rule:nonzero;"/><path d="M433.136,421.877c-1.005,-0 -1.827,0.822 -1.827,1.828l0,18.282c0,1.006 0.822,1.829 1.827,1.829c1.005,-0 1.827,-0.823 1.827,-1.829l-0,-18.282c-0,-1.006 -0.822,-1.828 -1.827,-1.828Zm-6.686,12.468l-10.54,7.441c-1.206,0.859 -2.886,-0.018 -2.886,-1.499l-0,-14.882c-0,-1.481 1.662,-2.34 2.886,-1.499l10.54,7.441c1.041,0.731 1.041,2.267 0,2.998Z" style="fill:#e2ebf0;fill-rule:nonzero;"/><path d="M455.416,422.721c-0.408,-0.409 -0.957,-0.635 -1.527,-0.635l-7.715,0c-1.184,0 -2.152,0.969 -2.152,2.152l-0,17.216c-0,1.184 0.957,2.152 2.141,2.152l12.922,-0c1.184,-0 2.152,-0.968 2.152,-2.152l0,-12.019c0,-0.57 -0.226,-1.119 -0.634,-1.517l-5.187,-5.197Zm0.442,16.581l-6.456,-0c-0.592,-0 -1.076,-0.484 -1.076,-1.076c-0,-0.592 0.484,-1.076 1.076,-1.076l6.456,0c0.591,0 1.076,0.484 1.076,1.076c-0,0.592 -0.485,1.076 -1.076,1.076Zm-0,-4.304l-6.456,0c-0.592,0 -1.076,-0.484 -1.076,-1.076c-0,-0.592 0.484,-1.076 1.076,-1.076l6.456,0c0.591,0 1.076,0.484 1.076,1.076c-0,0.592 -0.485,1.076 -1.076,1.076Zm-2.152,-6.456l-0,-4.842l5.917,5.918l-4.841,0c-0.592,0 -1.076,-0.484 -1.076,-1.076Z" style="fill:#e2ebf0;fill-rule:nonzero;"/></g><g><path d="M484.91,421.881c-6.053,0 -10.965,4.912 -10.965,10.965c0,6.053 4.912,10.965 10.965,10.965c6.053,0 10.965,-4.912 10.965,-10.965c0,-6.053 -4.912,-10.965 -10.965,-10.965Zm1.097,16.448l-2.193,-0l-0,-6.579l2.193,-0l-0,6.579Zm-0,-8.772l-2.193,-0l-0,-2.193l2.193,-0l-0,2.193Z" style="fill:#fff;fill-rule:nonzero;"/><path d="M525.046,421.877c-1.004,-0 -1.826,0.822 -1.826,1.828l-0,18.282c-0,1.006 0.822,1.829 1.826,1.829c1.005,-0 1.827,-0.823 1.827,-1.829l0,-18.282c0,-1.006 -0.822,-1.828 -1.827,-1.828Zm-6.685,12.468l-10.54,7.441c-1.206,0.859 -2.887,-0.018 -2.887,-1.499l0,-14.882c0,-1.481 1.663,-2.34 2.887,-1.499l10.54,7.441c1.041,0.731 1.041,2.267 -0,2.998Z" style="fill:#fff;fill-rule:nonzero;"/><path d="M547.327,422.721c-0.409,-0.409 -0.958,-0.635 -1.528,-0.635l-7.715,0c-1.183,0 -2.152,0.969 -2.152,2.152l0,17.216c0,1.184 0.958,2.152 2.142,2.152l12.922,-0c1.184,-0 2.152,-0.968 2.152,-2.152l-0,-12.019c-0,-0.57 -0.226,-1.119 -0.635,-1.517l-5.186,-5.197Zm0.441,16.581l-6.456,-0c-0.592,-0 -1.076,-0.484 -1.076,-1.076c0,-0.592 0.484,-1.076 1.076,-1.076l6.456,0c0.592,0 1.076,0.484 1.076,1.076c0,0.592 -0.484,1.076 -1.076,1.076Zm0,-4.304l-6.456,0c-0.592,0 -1.076,-0.484 -1.076,-1.076c0,-0.592 0.484,-1.076 1.076,-1.076l6.456,0c0.592,0 1.076,0.484 1.076,1.076c0,0.592 -0.484,1.076 -1.076,1.076Zm-2.152,-6.456l0,-4.842l5.918,5.918l-4.842,0c-0.592,0 -1.076,-0.484 -1.076,-1.076Z" style="fill:#fff;fill-rule:nonzero;"/></g></g></g></g></g></svg>