<?xml version="1.0" encoding="UTF-8" standalone="no"?><!DOCTYPE svg PUBLIC "-//W3C//DTD SVG 1.1//EN" "http://www.w3.org/Graphics/SVG/1.1/DTD/svg11.dtd"><svg width="100%" height="100%" viewBox="0 0 546 546" version="1.1" xmlns="http://www.w3.org/2000/svg" xmlns:xlink="http://www.w3.org/1999/xlink" xml:space="preserve" xmlns:serif="http://www.serif.com/" style="fill-rule:evenodd;clip-rule:evenodd;stroke-linejoin:round;stroke-miterlimit:2;"><rect id="command_palette-complete" x="3.127" y="0.123" width="541.825" height="541.612" style="fill:none;"/><clipPath id="_clip1"><rect x="3.127" y="0.123" width="541.825" height="541.612"/></clipPath><g clip-path="url(#_clip1)"><circle cx="274.039" cy="270.929" r="159.078" style="fill:#1fa942;"/><path d="M273.956,30.061c-132.817,0.045 -240.834,108.137 -240.788,240.954c0.046,132.816 108.138,240.829 240.954,240.783c132.817,-0.046 240.834,-108.133 240.788,-240.95c-0.046,-132.817 -108.137,-240.833 -240.954,-240.787m0.171,494.237c-139.709,0.048 -253.41,-113.571 -253.459,-253.279c-0.048,-139.713 113.575,-253.41 253.284,-253.458c139.708,-0.049 253.41,113.57 253.458,253.283c0.048,139.708 -113.575,253.406 -253.283,253.454" style="fill:#1fa942;fill-rule:nonzero;"/><g transform="matrix(4.45723,-0.487141,0.487141,4.45723,-5682.89,1028.53)"><g transform="matrix(0.64687,-0.762601,0.762601,0.64687,497.795,976.987)"><text x="1303.82px" y="-49.011px" style="font-family:'Futura-Bold', 'Futura', sans-serif;font-weight:700;font-size:9.293px;fill:#1fa942;">P</text></g><g transform="matrix(0.753609,-0.657323,0.657323,0.753609,357.651,846.418)"><text x="1307.86px" y="-53.862px" style="font-family:'Futura-Bold', 'Futura', sans-serif;font-weight:700;font-size:9.293px;fill:#1fa942;">R</text></g><g transform="matrix(0.832711,-0.553708,0.553708,0.832711,251.847,717.201)"><text x="1312.85px" y="-58.191px" style="font-family:'Futura-Bold', 'Futura', sans-serif;font-weight:700;font-size:9.293px;fill:#1fa942;">E</text></g><g transform="matrix(0.914524,-0.404532,0.404532,0.914524,137.382,527.598)"><text x="1317.17px" y="-61.294px" style="font-family:'Futura-Bold', 'Futura', sans-serif;font-weight:700;font-size:9.293px;fill:#1fa942;">M</text></g><g transform="matrix(0.964808,-0.262955,0.262955,0.964808,63.7503,346.409)"><text x="1326.07px" y="-64.967px" style="font-family:'Futura-Bold', 'Futura', sans-serif;font-weight:700;font-size:9.293px;fill:#1fa942;">I</text></g><g transform="matrix(0.990217,-0.139535,0.139535,0.990217,22.2078,184.826)"><text x="1329.21px" y="-65.965px" style="font-family:'Futura-Bold', 'Futura', sans-serif;font-weight:700;font-size:9.293px;fill:#1fa942;">U</text></g><g transform="matrix(0.998396,0.0566253,-0.0566253,0.998396,-1.65591,-75.8005)"><text x="1336.73px" y="-67.12px" style="font-family:'Futura-Bold', 'Futura', sans-serif;font-weight:700;font-size:9.293px;fill:#1fa942;">M</text></g><g transform="matrix(0.943883,0.33028,-0.33028,0.943883,53.9791,-449.401)"><text x="1349.48px" y="-65.852px" style="font-family:'Futura-Bold', 'Futura', sans-serif;font-weight:700;font-size:9.293px;fill:#1fa942;">G</text></g><g transform="matrix(0.869794,0.493415,-0.493415,0.869794,145.576,-677.876)"><text x="1357.19px" y="-63.108px" style="font-family:'Futura-Bold', 'Futura', sans-serif;font-weight:700;font-size:9.293px;fill:#1fa942;">R</text></g><g transform="matrix(0.784115,0.620615,-0.620615,0.784115,257.067,-858.807)"><text x="1362.96px" y="-59.901px" style="font-family:'Futura-Bold', 'Futura', sans-serif;font-weight:700;font-size:9.293px;fill:#1fa942;">A</text></g><g transform="matrix(0.665704,0.746216,-0.746216,0.665704,416.353,-1039.92)"><text x="1368.83px" y="-55.266px" style="font-family:'Futura-Bold', 'Futura', sans-serif;font-weight:700;font-size:9.293px;fill:#1fa942;">D</text></g><g transform="matrix(0.552457,0.833541,-0.833541,0.552457,573.282,-1167.27)"><text x="1373.65px" y="-49.772px" style="font-family:'Futura-Bold', 'Futura', sans-serif;font-weight:700;font-size:9.293px;fill:#1fa942;">E</text></g><g transform="matrix(0.359917,0.932984,-0.932984,0.359917,842.393,-1313.05)"><text x="1378.14px" y="-42.588px" style="font-family:'Futura-Bold', 'Futura', sans-serif;font-weight:700;font-size:9.293px;fill:#1fa942;">R</text></g><g transform="matrix(0.233891,0.972263,-0.972263,0.233891,1022.2,-1370.12)"><text x="1380.51px" y="-36.424px" style="font-family:'Futura-Bold', 'Futura', sans-serif;font-weight:700;font-size:9.293px;fill:#1fa942;">E</text></g><g transform="matrix(0.0976278,0.995223,-0.995223,0.0976278,1215.77,-1403.43)"><text x="1381.8px" y="-31.28px" style="font-family:'Futura-Bold', 'Futura', sans-serif;font-weight:700;font-size:9.293px;fill:#1fa942;">P</text></g><g transform="matrix(-0.0309085,0.999522,-0.999522,-0.0309085,1400.15,-1407.52)"><text x="1382.4px" y="-25px" style="font-family:'Futura-Bold', 'Futura', sans-serif;font-weight:700;font-size:9.293px;fill:#1fa942;">L</text></g><g transform="matrix(-0.17333,0.984864,-0.984864,-0.17333,1602.48,-1384.58)"><text x="1382.33px" y="-19.752px" style="font-family:'Futura-Bold', 'Futura', sans-serif;font-weight:700;font-size:9.293px;fill:#1fa942;">A</text></g><g transform="matrix(-0.31786,0.948138,-0.948138,-0.31786,1807.83,-1326.72)"><text x="1381.17px" y="-13.039px" style="font-family:'Futura-Bold', 'Futura', sans-serif;font-weight:700;font-size:9.293px;fill:#1fa942;">Y</text></g><g transform="matrix(-0.41081,0.911721,-0.911721,-0.41081,1939.11,-1267.76)"><text x="1379.19px" y="-7.315px" style="font-family:'Futura-Bold', 'Futura', sans-serif;font-weight:700;font-size:9.293px;fill:#1fa942;">.</text></g><g transform="matrix(-0.477543,0.878608,-0.878608,-0.477543,2032,-1217.19)"><text x="1377.9px" y="-4.441px" style="font-family:'Futura-Bold', 'Futura', sans-serif;font-weight:700;font-size:9.293px;fill:#1fa942;">I</text></g><g transform="matrix(-0.593297,0.804984,-0.804984,-0.593297,2191.97,-1110.32)"><text x="1376.47px" y="-1.436px" style="font-family:'Futura-Bold', 'Futura', sans-serif;font-weight:700;font-size:9.293px;fill:#1fa942;">O</text></g><g transform="matrix(-0.7597,0.650274,-0.650274,-0.7597,2414.12,-876.782)"><text x="1369.06px" y="7.662px" style="font-family:'Futura-Bold', 'Futura', sans-serif;font-weight:700;font-size:9.293px;fill:#1fa942;">T</text></g><g transform="matrix(-0.81789,0.575374,-0.575374,-0.81789,2488.15,-765.791)"><text x="1365.26px" y="10.862px" style="font-family:'Futura-Bold', 'Futura', sans-serif;font-weight:700;font-size:9.293px;fill:#1fa942;">I</text></g><g transform="matrix(-0.894395,0.447277,-0.447277,-0.894395,2587.24,-584.919)"><text x="1362.67px" y="12.971px" style="font-family:'Futura-Bold', 'Futura', sans-serif;font-weight:700;font-size:9.293px;fill:#1fa942;">M</text></g><g transform="matrix(-0.958638,0.284629,-0.284629,-0.958638,2656.84,-351.874)"><text x="1353.99px" y="17.11px" style="font-family:'Futura-Bold', 'Futura', sans-serif;font-weight:700;font-size:9.293px;fill:#1fa942;">E</text></g><g transform="matrix(-0.995184,0.0980209,-0.0980209,-0.995184,2687.01,-93.5781)"><text x="1345.81px" y="19.216px" style="font-family:'Futura-Bold', 'Futura', sans-serif;font-weight:700;font-size:9.293px;fill:#1fa942;">T</text></g><g transform="matrix(-0.999118,-0.0419928,0.0419928,-0.999118,2679.68,95.8552)"><text x="1340.85px" y="19.783px" style="font-family:'Futura-Bold', 'Futura', sans-serif;font-weight:700;font-size:9.293px;fill:#1fa942;">R</text></g><g transform="matrix(-0.980895,-0.19454,0.19454,-0.980895,2639.2,298.325)"><text x="1334.25px" y="19.567px" style="font-family:'Futura-Bold', 'Futura', sans-serif;font-weight:700;font-size:9.293px;fill:#1fa942;">A</text></g><g transform="matrix(-0.937478,-0.348045,0.348045,-0.937478,2565.54,497.381)"><text x="1327.44px" y="18.256px" style="font-family:'Futura-Bold', 'Futura', sans-serif;font-weight:700;font-size:9.293px;fill:#1fa942;">V</text></g><g transform="matrix(-0.8757,-0.482855,0.482855,-0.8757,2469.46,666.968)"><text x="1320.58px" y="15.632px" style="font-family:'Futura-Bold', 'Futura', sans-serif;font-weight:700;font-size:9.293px;fill:#1fa942;">E</text></g><g transform="matrix(-0.81006,-0.586347,0.586347,-0.81006,2374.23,795.248)"><text x="1315.92px" y="13.073px" style="font-family:'Futura-Bold', 'Futura', sans-serif;font-weight:700;font-size:9.293px;fill:#1fa942;">L</text></g><g transform="matrix(-0.671244,-0.741236,0.741236,-0.671244,2182.35,984.286)"><text x="1309.45px" y="8.181px" style="font-family:'Futura-Bold', 'Futura', sans-serif;font-weight:700;font-size:9.293px;fill:#1fa942;">A</text></g><g transform="matrix(-0.541134,-0.840936,0.840936,-0.541134,2008.14,1101)"><text x="1304.45px" y="2.618px" style="font-family:'Futura-Bold', 'Futura', sans-serif;font-weight:700;font-size:9.293px;fill:#1fa942;">P</text></g><g transform="matrix(-0.413245,-0.91062,0.91062,-0.413245,1841.08,1180.95)"><text x="1301.01px" y="-2.672px" style="font-family:'Futura-Bold', 'Futura', sans-serif;font-weight:700;font-size:9.293px;fill:#1fa942;">P</text></g><g transform="matrix(-0.270451,-0.962734,0.962734,-0.270451,1657.57,1239.3)"><text x="1298.35px" y="-8.395px" style="font-family:'Futura-Bold', 'Futura', sans-serif;font-weight:700;font-size:9.293px;fill:#1fa942;">R</text></g><g transform="matrix(-0.108626,-0.994083,0.994083,-0.108626,1451.83,1272.62)"><text x="1296.48px" y="-14.605px" style="font-family:'Futura-Bold', 'Futura', sans-serif;font-weight:700;font-size:9.293px;fill:#1fa942;">O</text></g><g transform="matrix(0.0661058,-0.997813,0.997813,0.0661058,1232.77,1271.43)"><text x="1295.61px" y="-22.856px" style="font-family:'Futura-Bold', 'Futura', sans-serif;font-weight:700;font-size:9.293px;fill:#1fa942;">V</text></g><g transform="matrix(0.212559,-0.977148,0.977148,0.212559,1050.15,1242.77)"><text x="1296.16px" y="-30.191px" style="font-family:'Futura-Bold', 'Futura', sans-serif;font-weight:700;font-size:9.293px;fill:#1fa942;">E</text></g><g transform="matrix(0.35453,-0.935045,0.935045,0.35453,870.401,1190.1)"><text x="1297.2px" y="-35.395px" style="font-family:'Futura-Bold', 'Futura', sans-serif;font-weight:700;font-size:9.293px;fill:#1fa942;">D</text></g></g><circle cx="274.039" cy="270.929" r="177.582" style="fill:#1fa942;"/><path d="M1961.33,359.554c-6.25,120.292 -25.333,240.25 -57.125,356.75l-0.833,2.542l-1.917,5.958l-2.041,4.709c-0.376,1.333 -1.042,2.75 -1.75,4.125l-1.042,2.125l-3.542,6.291l-1.083,1.75c-1.584,2.417 -2.875,4.292 -4.25,6.125l-1.376,1.667l-4.541,5.5l-6.667,6.541c-6.666,5.792 -13.708,10.417 -20.875,13.667c-84.375,39.542 -170,70.417 -255.125,92.792l-0.041,0.125c-25.667,6.708 -51.292,12.666 -76.833,17.833c-24.334,49.292 -51.543,97.125 -81.584,143.25l-0.209,-0.166c-11.333,17.333 -23.04,34.416 -35.124,51.208c-55.666,4.417 -110.667,5.167 -164.417,2.708l-5,-21.708l-1,-6.083c-0.417,-1.667 -0.5,-2.417 -0.584,-3.417c-0.208,-1.292 -0.332,-2.875 -0.29,-4.25l-0.376,-3.5c0,-0.875 0,-1.75 0.084,-2.5l0.125,-5.083l0.457,-3.667l0.501,-3.542c1.334,-6.958 3.708,-13.791 7.292,-19.708c0.374,-0.708 0.833,-1.333 1.208,-1.875l2.541,-4.042c17.209,-22.625 33.542,-45.833 49.042,-69.583c32.167,-49.292 60.75,-100.833 85.417,-154.167c1.916,-4.208 4.583,-8.208 7.75,-12.25c1.791,-2 3.292,-3.75 5.042,-5.291l0.874,-0.834c1.583,-1.5 3.042,-2.791 4.626,-4l1.083,-0.791c2,-1.542 3.666,-2.542 5.249,-3.417l2.043,-1.208c1.624,-1 3.249,-1.917 5.041,-2.584l2.042,-0.958c1.875,-0.917 3.791,-1.584 5.624,-2.292l2.042,-0.625c2.459,-0.791 4.876,-1.5 7.459,-2c106.041,-23.541 212.833,-61.25 317.334,-113.458c19.624,-80.042 32.624,-161.709 38.999,-243.875c45.541,-35.833 89.834,-75.042 132.5,-117.417l17.5,17.75l1.167,1.209c1.208,1.25 2.333,2.458 3.25,3.833l2.75,3.208l2.542,3.833l2.416,3.542c0.834,1.375 1.667,2.583 2.166,3.834l2.125,3.999l1.501,3.417c0.125,0.292 1.666,4.125 2.167,5.084l0.874,2.916l1.75,5.833c0.375,1.251 0.626,2.667 0.834,4l1.083,5.25l0.5,3.709l0.459,5.542l0.249,4.458l-0.083,7.208Zm-152.833,604.375l-0.583,5.917c-0.125,1.333 -0.459,2.666 -0.793,4.042l-1.041,5.25l-0.959,3.791l-1.666,5.167l-1.5,4.208l-2.875,6.625c-52.083,108.917 -115.834,212.167 -189.792,307.375l-1.833,2.083l-4.083,4.792l-3.542,3.417c-1,1.208 -2.042,2.125 -3.208,3.167l-1.792,1.541l-5.666,4.458l-1.668,1.209c-2.416,1.583 -4.291,2.833 -6.291,4l-1.875,0.958l-6.333,3.375l-8.666,3.5c-8.417,2.709 -16.585,4.292 -24.459,4.542c-67.084,2.958 -133.042,1.541 -197.292,-3.875c-24.917,-2.125 -49.458,-4.75 -73.834,-8.084l-0.125,0.084c-26.249,-3.625 -52.166,-7.875 -77.791,-12.875c-41.291,36.291 -84.75,70.166 -130.041,101.333l-0.167,-0.208c-17.084,11.708 -34.375,23.041 -51.959,34c-53.166,-17.292 -104.166,-37.417 -152.874,-60.292l3.582,-22c0,-0 0.875,-4.375 1.334,-5.916c0.25,-1.709 0.541,-2.5 0.75,-3.376c0.333,-1.249 0.792,-2.791 1.375,-4.041l0.958,-3.375c0.334,-0.834 0.667,-1.625 1.042,-2.333l2.042,-4.584l1.916,-3.292l1.751,-2.999c3.875,-6.084 8.666,-11.251 14.291,-15.542c0.5,-0.417 1.167,-0.834 1.75,-1.167l3.875,-2.75c24.458,-14.416 48.417,-29.583 71.792,-45.666c48.5,-33.25 94.625,-70.084 137.875,-109.959c3.417,-3.167 7.416,-6 11.917,-8.542c2.457,-1.124 4.541,-2.125 6.791,-2.958l1.042,-0.458c1.999,-0.75 3.874,-1.375 5.833,-1.917l1.291,-0.292c2.459,-0.625 4.376,-0.916 6.209,-1.166l2.417,-0.417c1.791,-0.208 3.625,-0.458 5.5,-0.416l2.334,-0.126c2.041,-0.083 4.124,0.042 6.041,0.084l2.167,0.25l2.125,0.208c1.791,0.167 3.624,0.25 5.541,0.709c107,18.75 220.083,24.833 336.542,16.874c48.916,-66.374 92.375,-136.749 129.875,-210.25c55.75,-15.541 111.833,-34.749 167.5,-57.749l9.375,23.166l0.541,1.584c0.667,1.583 1.209,3.166 1.542,4.749l1.333,4.042l0.917,4.542l0.875,4.208c0.125,1.709 0.458,3.042 0.416,4.542l0.417,4.5l0.042,3.708l0.167,5.417l-0.375,3.208Zm-372.126,494.5l-0.083,1.625c-0,1.75 -0.082,3.375 -0.374,5.042l-0.376,4.208l-0.916,4.5l-0.75,4.209c-0.417,1.583 -0.709,3.041 -1.208,4.25l-1.292,4.374l-1.416,3.417c-0.126,0.292 -1.751,4.125 -2.043,5.125l-1.458,2.75l-2.875,5.375c-0.625,1.125 -1.458,2.292 -2.25,3.417l-3,4.416l-2.25,3.042l-3.584,4.25l-2.999,3.292l-5.167,5.041c-89.583,80.667 -187.792,151.792 -292.542,211.709l-2.375,1.166l-5.583,2.876l-4.75,1.874c-1.167,0.667 -2.666,1.209 -4.125,1.709l-2.25,0.708l-6.958,1.959l-2.042,0.5c-2.791,0.583 -5,1 -7.291,1.333l-2.126,0.166l-7.124,0.667l-9.334,-0.041c-8.792,-0.626 -17.042,-2.376 -24.417,-5.125c-87.625,-31.667 -169.958,-70.25 -246.083,-114.584l-0.124,0.042c-22.875,-13.375 -45.209,-27.334 -66.917,-41.667c-52.084,17.625 -105.125,32.292 -158.918,43.625l-0.041,-0.25c-20.25,4.208 -40.625,8.042 -61.042,11.375c-42.458,-36.375 -81.874,-74.625 -118.125,-114.458l11.834,-18.917l3.625,-4.916c0.875,-1.5 1.375,-2.084 2,-2.834c0.792,-1.083 1.792,-2.25 2.791,-3.25l2.209,-2.75c0.625,-0.625 1.208,-1.25 1.833,-1.708l3.709,-3.5l2.875,-2.25l2.916,-2.125c5.791,-4.125 12.375,-7.042 19.042,-8.792c0.75,-0.25 1.541,-0.375 2.167,-0.458l4.666,-1.042c28.083,-3.875 56.083,-8.666 83.792,-14.542c57.499,-12.041 114.083,-28.291 169.208,-48.583c4.333,-1.625 9.042,-2.583 14.125,-3.208c2.708,-0.125 5,-0.334 7.334,-0.125l1.167,-0.042c2.165,0.084 4.125,0.208 6.166,0.459l1.249,0.208c2.542,0.333 4.417,0.792 6.167,1.291l2.25,0.584c1.876,0.458 3.667,0.916 5.417,1.708l2.167,0.792c1.958,0.708 3.791,1.583 5.583,2.333l1.834,1.042c2.333,1.125 4.5,2.333 6.749,3.833c91.625,58.25 193.917,107 304.667,143.959c70.416,-42.75 137.458,-91.167 200.042,-144.75c57.542,6.958 116.541,10.5 176.791,10.708l-0.167,24.958Zm-542.75,354.708l-0.708,1.5c-0.666,1.584 -1.375,3.084 -2.25,4.501l-1.958,3.791l-2.541,3.833l-2.375,3.584c-1.084,1.333 -1.792,2.5 -2.875,3.5l-2.876,3.542l-2.583,2.625l-3.75,3.958l-2.5,2l-4.625,3.792c-1,0.791 -2.209,1.541 -3.416,2.291l-4.459,3l-3.333,1.958l-4.833,2.5l-4.042,1.876l-6.709,2.708c-113.875,40.291 -232.124,68.25 -351.833,83.208l-2.792,0.208l-6.292,0.5l-4.916,-0.124c-1.541,0.208 -2.917,0.083 -4.499,-0.042l-2.334,-0.167l-7.167,-0.875l-2.041,-0.333c-2.834,-0.542 -5.043,-1 -7.25,-1.625l-2.083,-0.583l-6.793,-2.125l-8.625,-3.667c-7.833,-3.959 -14.749,-8.709 -20.5,-14.083c-49.499,-45.375 -95.083,-93.084 -136.625,-142.292c-16.083,-19.125 -31.624,-38.375 -46.499,-57.959l-0.126,0c-16.042,-21.083 -31.333,-42.541 -45.958,-64.083c-54.875,-3.541 -109.542,-10.208 -163.625,-20.208l0.083,-0.292c-20.374,-3.791 -40.625,-8.041 -60.792,-12.708c-25.374,-49.792 -47.166,-100.125 -65.374,-150.75l18.125,-12.959c-0,0 3.708,-2.5 5.083,-3.249c1.375,-1.001 2.167,-1.334 2.917,-1.876c1.125,-0.666 2.5,-1.374 3.833,-1.874c1.584,-0.959 2.375,-1.334 3.083,-1.709c0.792,-0.375 1.626,-0.667 2.375,-0.916l4.709,-1.792l3.625,-0.959l3.375,-0.916c7.041,-1.542 14.083,-1.792 21.042,-0.875c0.666,0.041 1.457,0.25 2.083,0.417l4.708,0.791c27.417,7.125 55.083,13.334 82.959,18.459c57.749,10.749 116.291,17.333 175.207,19.624c4.626,0.209 9.5,1.042 14.46,2.417c2.541,0.917 4.749,1.667 6.958,2.708l1,0.417c1.958,0.875 3.749,1.75 5.5,2.75l1.125,0.709c2.207,1.291 3.75,2.458 5.208,3.541l2,1.417c1.416,1.125 2.917,2.25 4.25,3.625l1.667,1.541c1.582,1.417 2.916,2.959 4.25,4.334l1.375,1.667l1.374,1.708c1.125,1.375 2.376,2.75 3.417,4.416c62.542,88.959 138.083,173.292 226.042,250.042c81.542,-12.375 162.041,-31.417 240.5,-56.917c50.5,28.417 103.749,54.417 159.375,77.5l-9.751,23Zm-637.333,119.375l-1.25,1.084c-1.208,1.208 -2.416,2.375 -3.791,3.292l-3.25,2.749l-3.792,2.542l-3.542,2.417c-1.374,0.791 -2.624,1.625 -3.833,2.167l-4,2.125l-3.417,1.458c-0.292,0.125 -4.125,1.708 -5.083,2.208l-2.916,0.875l-5.876,1.75c-1.207,0.375 -2.624,0.625 -4,0.875l-5.208,1.042l-3.708,0.5l-5.584,0.458l-4.458,0.209l-7.167,-0.042c-120.333,-6.25 -240.249,-25.334 -356.791,-57.125l-2.5,-0.833l-5.958,-1.959l-4.709,-2c-1.333,-0.375 -2.75,-1.041 -4.125,-1.708l-2.125,-1.083l-6.292,-3.584l-1.791,-1.041c-2.376,-1.584 -4.251,-2.876 -6.084,-4.25l-1.666,-1.375l-5.5,-4.542l-6.584,-6.667c-5.749,-6.666 -10.375,-13.75 -13.625,-20.875c-39.583,-84.375 -70.416,-170 -92.833,-255.125l-0.124,-0.042c-6.668,-25.666 -12.626,-51.291 -17.792,-76.833c-49.292,-24.333 -97.167,-51.583 -143.251,-81.583l0.167,-0.208c-17.333,-11.334 -34.417,-23.042 -51.25,-35.126c-4.375,-55.666 -5.167,-110.708 -2.708,-164.416l21.75,-5l6.041,-1c1.668,-0.417 2.459,-0.5 3.417,-0.583c1.334,-0.209 2.875,-0.334 4.292,-0.292l3.499,-0.375c0.876,-0 1.709,-0 2.501,0.083l5.083,0.125l3.667,0.417l3.541,0.542c6.918,1.333 13.792,3.708 19.709,7.291c0.709,0.375 1.291,0.834 1.833,1.25l4.042,2.542c22.625,17.125 45.875,33.458 69.625,49c49.249,32.166 100.833,60.75 154.125,85.416c4.25,1.917 8.25,4.584 12.291,7.75c1.959,1.792 3.75,3.292 5.25,5.042l0.875,0.875c1.501,1.542 2.75,3.042 4,4.625l0.751,1.084c1.541,1.999 2.541,3.666 3.458,5.25l1.208,2.041c1,1.625 1.875,3.25 2.584,5l0.958,2.083c0.917,1.876 1.583,3.792 2.291,5.626l0.584,2.041c0.833,2.417 1.541,4.833 2.083,7.458c23.458,106.042 61.208,212.834 113.375,317.334c80.083,19.583 161.75,32.625 243.917,39c35.792,45.5 75,89.792 117.416,132.5l-17.75,17.541Zm-634.749,-133l-1.584,0.542c-1.583,0.667 -3.167,1.208 -4.791,1.583l-4.042,1.292l-4.5,0.875l-4.209,0.917c-1.749,0.125 -3.083,0.458 -4.542,0.417l-4.499,0.416l-3.709,0.042l-5.417,0.166l-3.208,-0.375l-5.958,-0.583c-1.292,-0.125 -2.666,-0.458 -4.042,-0.791l-5.25,-1.042l-3.791,-0.958l-5.125,-1.667l-4.208,-1.542l-6.626,-2.833c-108.916,-52.042 -212.166,-115.833 -307.375,-189.792l-2.083,-1.833l-4.791,-4.083l-3.459,-3.584c-1.208,-0.958 -2.083,-2.041 -3.125,-3.208l-1.541,-1.75l-4.459,-5.709l-1.208,-1.624c-1.625,-2.376 -2.833,-4.292 -4,-6.292l-1,-1.917l-3.334,-6.292l-3.542,-8.666c-2.666,-8.417 -4.29,-16.583 -4.541,-24.458c-2.958,-67.125 -1.542,-133.042 3.875,-197.292c2.167,-24.917 4.791,-49.458 8.125,-73.833l-0.084,-0.125c3.584,-26.251 7.876,-52.167 12.876,-77.792c-36.333,-41.292 -70.209,-84.75 -101.376,-130.042l0.251,-0.167c-11.709,-17.083 -23.042,-34.416 -34,-51.999c17.291,-53.167 37.417,-104.167 60.292,-152.876l22,3.626c-0,-0 4.374,0.833 5.874,1.333c1.708,0.208 2.542,0.542 3.376,0.75c1.292,0.292 2.791,0.792 4.083,1.375l3.375,0.958c0.792,0.333 1.625,0.625 2.291,1.042l4.625,2.041l3.251,1.876l3.041,1.749c6.042,3.917 11.25,8.709 15.542,14.292c0.417,0.5 0.791,1.208 1.167,1.792l2.749,3.875c14.375,24.458 29.584,48.417 45.667,71.833c33.291,48.459 70.042,94.583 109.959,137.833c3.166,3.417 5.999,7.417 8.5,11.917c1.166,2.459 2.166,4.542 3,6.833l0.416,1c0.75,2.042 1.417,3.876 1.959,5.834l0.291,1.292c0.625,2.458 0.916,4.374 1.125,6.208l0.417,2.375c0.25,1.833 0.458,3.625 0.458,5.583l0.083,2.25c0.084,2.125 -0.042,4.125 -0.042,6.083l-0.249,2.167l-0.208,2.125c-0.167,1.792 -0.292,3.625 -0.751,5.5c-18.708,107.042 -24.792,220.125 -16.833,336.583c66.375,48.917 136.75,92.375 210.209,129.834c15.583,55.833 34.791,111.875 57.791,167.541l-23.166,9.375Zm-535.001,-366.249l-1.666,-0.084c-1.755,0 -3.334,-0.083 -5,-0.416l-4.208,-0.334l-4.501,-0.916l-4.25,-0.751c-1.541,-0.416 -2.999,-0.708 -4.208,-1.208l-4.379,-1.333l-3.412,-1.375c-0.334,-0.125 -4.125,-1.75 -5.167,-2.042l-2.709,-1.458l-5.379,-2.875c-1.167,-0.625 -2.292,-1.458 -3.454,-2.25l-4.416,-3l-3,-2.208l-4.25,-3.625l-3.292,-3.001l-5.042,-5.166c-80.713,-89.584 -151.792,-187.792 -211.708,-292.542l-1.167,-2.375l-2.875,-5.583l-1.875,-4.75c-0.708,-1.167 -1.208,-2.667 -1.708,-4.167l-0.75,-2.208l-1.917,-6.958l-0.5,-2.042c-0.625,-2.792 -1,-5 -1.333,-7.292l-0.167,-2.125l-0.667,-7.125l0.042,-9.375c0.625,-8.75 2.375,-17 5.083,-24.375c31.709,-87.666 70.25,-170 114.626,-246.083l-0.042,-0.125c13.333,-22.875 27.329,-45.208 41.667,-66.917c-17.667,-52.042 -32.292,-105.125 -43.63,-158.916l0.254,-0.042c-4.208,-20.292 -8.041,-40.625 -11.375,-61.042c36.375,-42.5 74.621,-81.875 114.413,-118.083l18.921,11.792l4.954,3.583c1.462,0.916 2.083,1.416 2.838,2c1.041,0.792 2.245,1.833 3.208,2.833l2.792,2.209c0.62,0.624 1.208,1.208 1.708,1.833l3.458,3.708l2.292,2.875l2.125,2.917c4.083,5.792 7.042,12.333 8.791,19.041c0.25,0.751 0.334,1.5 0.417,2.167l1.084,4.667c3.874,28.083 8.662,56.083 14.5,83.791c12.078,57.501 28.333,114.084 48.583,169.209c1.625,4.333 2.625,9.041 3.25,14.125c0.125,2.666 0.292,5 0.125,7.291l0.041,1.209c-0.083,2.167 -0.208,4.125 -0.458,6.125l-0.25,1.292c-0.291,2.541 -0.792,4.374 -1.25,6.125l-0.584,2.291c-0.457,1.875 -0.916,3.667 -1.708,5.417l-0.791,2.125c-0.709,2 -1.584,3.833 -2.375,5.583l-1,1.917c-1.167,2.291 -2.334,4.5 -3.833,6.708c-58.25,91.625 -107.005,193.917 -144.001,304.667c42.751,70.417 91.163,137.458 144.792,200c-6.958,57.583 -10.542,116.583 -10.708,176.875l-24.959,-0.208Zm-354.749,-542.75l-1.459,-0.709c-1.625,-0.667 -3.125,-1.375 -4.5,-2.25l-3.792,-1.958l-3.833,-2.542l-3.625,-2.375c-1.333,-1.083 -2.5,-1.792 -3.5,-2.875l-3.5,-2.875l-2.625,-2.625l-4,-3.708l-1.958,-2.542l-3.792,-4.625c-0.833,-0.958 -1.541,-2.166 -2.292,-3.375l-3,-4.458l-1.999,-3.333l-2.459,-4.834l-1.917,-4.083l-2.666,-6.667c-40.292,-113.875 -68.25,-232.125 -83.25,-351.833l-0.167,-2.792l-0.5,-6.25l0.125,-4.958c-0.208,-1.542 -0.083,-2.917 0,-4.5l0.167,-2.334l0.875,-7.208l0.333,-2c0.583,-2.833 1.042,-5.041 1.625,-7.25l0.625,-2.083l2.125,-6.792l3.625,-8.625c3.959,-7.833 8.75,-14.792 14.125,-20.5c45.375,-49.5 93.083,-95.083 142.292,-136.625c19.125,-16.125 38.375,-31.625 57.958,-46.5l0,-0.125c21.083,-16.041 42.5,-31.375 64.084,-45.958c3.541,-54.875 10.208,-109.583 20.203,-163.625l0.296,0.041c3.746,-20.333 7.996,-40.583 12.667,-60.749c49.792,-25.334 100.125,-47.167 150.75,-65.376l13,18.084c0,0 2.496,3.708 3.25,5.125c1,1.375 1.329,2.167 1.834,2.916c0.708,1.126 1.412,2.5 1.874,3.834c1,1.583 1.334,2.375 1.704,3.083c0.38,0.792 0.713,1.625 0.922,2.333l1.833,4.709l0.958,3.666l0.875,3.376c1.579,6.999 1.833,14.083 0.917,21.041c-0.042,0.667 -0.255,1.459 -0.458,2.083l-0.797,4.709c-7.079,27.417 -13.287,55.083 -18.454,82.958c-10.712,57.75 -17.291,116.292 -19.583,175.167c-0.208,4.667 -1,9.542 -2.458,14.5c-0.917,2.541 -1.667,4.708 -2.667,6.958l-0.417,1c-0.875,1.959 -1.749,3.75 -2.749,5.5l-0.713,1.125c-1.287,2.209 -2.454,3.75 -3.579,5.209l-1.375,1.999c-1.13,1.459 -2.255,2.917 -3.625,4.251l-1.584,1.666c-1.374,1.542 -2.916,2.917 -4.337,4.292l-1.663,1.333l-1.666,1.375c-1.375,1.125 -2.75,2.375 -4.417,3.417c-88.958,62.542 -173.292,138.083 -250.041,226.042c12.374,81.499 31.375,162.041 56.875,240.5c-28.376,50.499 -54.376,103.75 -77.459,159.375l-23.041,-9.75Zm-119.334,-637.375l-1.083,-1.209c-1.25,-1.208 -2.375,-2.458 -3.292,-3.792l-2.75,-3.25l-2.542,-3.833l-2.458,-3.5c-0.792,-1.375 -1.583,-2.583 -2.167,-3.833l-2.125,-4l-1.416,-3.417c-0.125,-0.291 -1.709,-4.166 -2.209,-5.083l-0.916,-2.917l-1.75,-5.875c-0.375,-1.208 -0.584,-2.625 -0.833,-4l-1.042,-5.25l-0.542,-3.708l-0.416,-5.5l-0.251,-4.5l0.084,-7.167c6.25,-120.333 25.291,-240.291 57.125,-356.791l0.833,-2.501l1.917,-5.999l2.041,-4.667c0.375,-1.334 1,-2.75 1.709,-4.167l1.042,-2.083l3.583,-6.292l1.083,-1.792c1.584,-2.416 2.833,-4.249 4.25,-6.083l1.333,-1.667l4.584,-5.499l6.667,-6.584c6.625,-5.75 13.708,-10.375 20.874,-13.625c84.375,-39.583 169.959,-70.458 255.079,-92.833l0.084,-0.125c25.671,-6.667 51.254,-12.625 76.796,-17.792c24.333,-49.291 51.583,-97.166 81.583,-143.25l0.25,0.167c11.333,-17.375 23,-34.417 35.125,-51.25c55.667,-4.375 110.667,-5.167 164.416,-2.708l5.001,21.708l0.958,6.125c0.458,1.625 0.5,2.416 0.625,3.375c0.209,1.333 0.375,2.917 0.292,4.291l0.374,3.501c0,0.833 0,1.749 -0.082,2.5l-0.125,5.041l-0.417,3.708l-0.542,3.542c-1.333,6.917 -3.708,13.792 -7.291,19.708c-0.376,0.709 -0.834,1.292 -1.25,1.834l-2.542,4.083c-17.125,22.584 -33.459,45.833 -49.001,69.583c-32.166,49.251 -60.749,100.792 -85.416,154.126c-1.917,4.208 -4.625,8.25 -7.75,12.291c-1.792,2 -3.333,3.75 -5.083,5.25l-0.834,0.875c-1.583,1.458 -3.042,2.75 -4.624,4l-1.084,0.75c-2.041,1.584 -3.667,2.542 -5.25,3.458l-2.041,1.209c-1.626,0.958 -3.251,1.875 -5.042,2.583l-2.042,0.917c-1.916,0.958 -3.792,1.583 -5.625,2.333l-2.042,0.584c-2.458,0.833 -4.874,1.541 -7.5,2.041c-106,23.542 -212.832,61.25 -317.291,113.417c-19.625,80.083 -32.625,161.75 -39,243.875c-45.542,35.833 -89.792,75.042 -132.542,117.458l-17.5,-17.791Zm127.084,-675.209l0.583,-5.958c0.166,-1.292 0.5,-2.625 0.791,-4.042l1.042,-5.25l1,-3.75l1.667,-5.167l1.5,-4.208l2.875,-6.625c52.083,-108.917 115.791,-212.167 189.791,-307.375l1.829,-2.125l4.042,-4.791l3.63,-3.417c0.916,-1.167 1.999,-2.084 3.166,-3.125l1.792,-1.542l5.667,-4.458l1.666,-1.208c2.375,-1.626 4.292,-2.834 6.292,-4l1.916,-1l6.292,-3.334l8.625,-3.5c8.417,-2.708 16.583,-4.333 24.496,-4.583c67.129,-2.917 133.046,-1.542 197.254,3.875c24.917,2.167 49.501,4.792 73.875,8.125l0.083,-0.083c26.292,3.625 52.209,7.874 77.833,12.875c41.293,-36.334 84.751,-70.209 130.042,-101.375l0.167,0.25c17.084,-11.75 34.375,-23.042 51.958,-34.001c53.167,17.292 104.208,37.376 152.917,60.292l-3.625,21.958c-0,0 -0.833,4.417 -1.334,5.917c-0.249,1.709 -0.583,2.542 -0.749,3.375c-0.334,1.292 -0.792,2.833 -1.376,4.084l-0.958,3.374c-0.333,0.792 -0.666,1.625 -1.042,2.292l-2.041,4.625l-1.917,3.25l-1.749,3.042c-3.875,6.041 -8.709,11.208 -14.25,15.5c-0.542,0.458 -1.209,0.833 -1.792,1.167l-3.917,2.791c-24.417,14.375 -48.417,29.584 -71.791,45.667c-48.501,33.25 -94.584,70.041 -137.834,109.958c-3.458,3.125 -7.459,6 -11.958,8.5c-2.417,1.167 -4.542,2.125 -6.792,3l-1,0.417c-2.042,0.75 -3.875,1.416 -5.833,1.958l-1.292,0.25c-2.459,0.667 -4.375,0.959 -6.208,1.167l-2.376,0.417c-1.833,0.249 -3.624,0.458 -5.582,0.416l-2.25,0.125c-2.125,0.083 -4.167,-0.041 -6.084,-0.041l-2.166,-0.251l-2.125,-0.208c-1.793,-0.208 -3.668,-0.291 -5.542,-0.708c-107,-18.75 -220.126,-24.833 -336.584,-16.875c-48.875,66.375 -92.374,136.75 -129.833,210.208c-55.791,15.584 -111.833,34.792 -167.5,57.792l-9.375,-23.209l-0.542,-1.541c-0.666,-1.584 -1.208,-3.167 -1.583,-4.792l-1.291,-4.042l-0.917,-4.541l-0.875,-4.208c-0.167,-1.709 -0.5,-3 -0.417,-4.5l-0.458,-4.501l-0,-3.708l-0.167,-5.416l0.334,-3.209Zm372.166,-494.5l0.083,-1.666c0,-1.709 0.084,-3.334 0.376,-5.001l0.374,-4.208l0.875,-4.5l0.792,-4.25c0.417,-1.541 0.708,-3 1.167,-4.25l1.375,-4.333l1.375,-3.417c0.125,-0.291 1.75,-4.125 2.042,-5.166l1.417,-2.709l2.916,-5.416c0.625,-1.125 1.416,-2.25 2.25,-3.376l3,-4.458l2.208,-3l3.583,-4.25l3.042,-3.291l5.166,-5.042c89.542,-80.708 187.792,-151.792 292.542,-211.708l2.334,-1.167l5.625,-2.875l4.75,-1.917c1.166,-0.666 2.667,-1.166 4.166,-1.666l2.167,-0.751l7,-1.958l2.001,-0.458c2.833,-0.583 5.041,-1 7.291,-1.334l2.166,-0.208l7.126,-0.625l9.333,0.042c8.791,0.625 17.041,2.333 24.375,5.083c87.666,31.708 170.041,70.292 246.125,114.625l0.125,-0.042c22.875,13.334 45.208,27.292 66.917,41.667c52.041,-17.625 105.125,-32.292 158.916,-43.625l0.042,0.25c20.25,-4.25 40.625,-8.041 61.041,-11.375c42.459,36.375 81.834,74.584 118.084,114.417l-11.792,18.916l-3.625,4.959c-0.875,1.458 -1.375,2.083 -2,2.833c-0.791,1.042 -1.792,2.25 -2.834,3.208l-2.207,2.751c-0.584,0.625 -1.209,1.249 -1.834,1.749l-3.666,3.459l-2.917,2.291l-2.876,2.125c-5.791,4.084 -12.333,7.001 -19.041,8.792c-0.75,0.25 -1.5,0.334 -2.208,0.417l-4.667,1.083c-28.042,3.875 -56.042,8.625 -83.791,14.542c-57.459,12 -114.042,28.25 -169.167,48.583c-4.334,1.583 -9.042,2.583 -14.167,3.208c-2.625,0.126 -4.958,0.292 -7.25,0.126l-1.208,0.041c-2.167,-0.083 -4.125,-0.208 -6.125,-0.458l-1.292,-0.25c-2.542,-0.333 -4.417,-0.75 -6.166,-1.292l-2.292,-0.541c-1.833,-0.459 -3.625,-0.917 -5.376,-1.709l-2.125,-0.791c-1.999,-0.709 -3.833,-1.584 -5.624,-2.376l-1.875,-0.999c-2.292,-1.167 -4.5,-2.334 -6.709,-3.834c-91.624,-58.292 -193.916,-107.041 -304.667,-144c-70.458,42.75 -137.458,91.209 -200.041,144.75c-57.583,-6.917 -116.542,-10.458 -176.833,-10.667l0.208,-24.958Zm542.708,-354.75l0.75,-1.5c0.667,-1.583 1.375,-3.083 2.25,-4.458l1.958,-3.792l2.543,-3.833l2.375,-3.625c1.083,-1.292 1.791,-2.459 2.833,-3.5l2.916,-3.5l2.584,-2.625l3.75,-3.958l2.5,-2.001l4.625,-3.791c1,-0.834 2.208,-1.583 3.417,-2.292l4.416,-3l3.375,-2l4.834,-2.458l4.041,-1.917l6.708,-2.708c113.875,-40.25 232.126,-68.209 351.834,-83.209l2.75,-0.166l6.291,-0.5l4.959,0.125c1.5,-0.208 2.916,-0.084 4.458,-0l2.375,0.167l7.167,0.916l2.042,0.333c2.833,0.5 5.041,1 7.25,1.584l2.041,0.625l6.833,2.125l8.584,3.625c7.875,4 14.792,8.75 20.541,14.083c49.459,45.375 95.084,93.083 136.625,142.334c16.084,19.124 31.584,38.333 46.459,57.958l0.166,0c16,21.041 31.333,42.5 45.958,64.083c54.876,3.542 109.542,10.209 163.626,20.209l-0.084,0.291c20.334,3.75 40.625,8 60.792,12.667c25.334,49.833 47.167,100.125 65.375,150.75l-18.083,13c-0.042,-0 -3.75,2.5 -5.126,3.208c-1.374,1.042 -2.165,1.375 -2.916,1.875c-1.125,0.667 -2.541,1.417 -3.833,1.875c-1.625,1 -2.417,1.333 -3.083,1.709c-0.792,0.375 -1.584,0.708 -2.376,0.916l-4.708,1.833l-3.667,0.959l-3.333,0.875c-7.042,1.583 -14.083,1.792 -21.041,0.875c-0.709,-0.042 -1.459,-0.208 -2.084,-0.417l-4.708,-0.791c-27.417,-7.084 -55.084,-13.334 -82.958,-18.459c-57.751,-10.708 -116.334,-17.292 -175.209,-19.625c-4.667,-0.166 -9.5,-1 -14.5,-2.417c-2.5,-0.916 -4.709,-1.666 -6.916,-2.666l-1,-0.417c-1.959,-0.916 -3.751,-1.75 -5.5,-2.75l-1.125,-0.75c-2.209,-1.25 -3.751,-2.416 -5.209,-3.541l-2,-1.376c-1.458,-1.124 -2.916,-2.249 -4.25,-3.666l-1.667,-1.542c-1.541,-1.375 -2.917,-2.916 -4.291,-4.333l-1.375,-1.667l-1.334,-1.667c-1.125,-1.374 -2.416,-2.791 -3.417,-4.416c-62.54,-88.959 -138.083,-173.292 -226.041,-250.042c-81.5,12.375 -162.083,31.375 -240.5,56.875c-50.541,-28.375 -103.75,-54.375 -159.375,-77.458l9.708,-23.042Zm637.375,-119.333l1.25,-1.125c1.209,-1.209 2.417,-2.334 3.792,-3.292l3.208,-2.708l3.834,-2.542l3.541,-2.458c1.376,-0.792 2.626,-1.625 3.833,-2.125l4.001,-2.167l3.416,-1.458c0.292,-0.125 4.125,-1.667 5.083,-2.167l2.918,-0.916l5.833,-1.709c1.25,-0.416 2.625,-0.625 4.041,-0.875l5.25,-1.041l3.709,-0.542l5.499,-0.458l4.459,-0.209l7.208,0.084c120.334,6.25 240.25,25.291 356.792,57.083l2.458,0.875l6,1.917l4.709,1.999c1.333,0.375 2.749,1.084 4.166,1.751l2.042,1.083l6.334,3.542l1.791,1.083c2.417,1.583 4.25,2.833 6.083,4.25l1.667,1.375l5.5,4.541l6.583,6.667c5.751,6.625 10.334,13.708 13.625,20.834c39.584,84.416 70.417,170.041 92.834,255.125l0.083,0.041c6.708,25.708 12.667,51.292 17.834,76.875c49.249,24.292 97.166,51.542 143.249,81.542l-0.167,0.25c17.334,11.333 34.375,23.042 51.209,35.125c4.417,55.667 5.208,110.667 2.75,164.417l-21.75,4.999l-6.084,0.959c-1.624,0.417 -2.416,0.541 -3.416,0.625c-1.291,0.208 -2.875,0.333 -4.25,0.292l-3.5,0.375c-0.875,-0 -1.75,-0 -2.5,-0.084l-5.084,-0.167l-3.666,-0.416l-3.542,-0.542c-6.958,-1.291 -13.792,-3.667 -19.708,-7.25c-0.708,-0.375 -1.334,-0.833 -1.833,-1.25l-4.042,-2.542c-22.666,-17.166 -45.875,-33.499 -69.625,-48.999c-49.25,-32.167 -100.834,-60.751 -154.166,-85.417c-4.209,-1.917 -8.208,-4.625 -12.293,-7.75c-1.958,-1.792 -3.708,-3.292 -5.25,-5.084l-0.833,-0.833c-1.458,-1.583 -2.791,-3.041 -4.041,-4.625l-0.708,-1.083c-1.584,-2.042 -2.543,-3.667 -3.459,-5.25l-1.209,-2.042c-0.958,-1.625 -1.916,-3.25 -2.582,-5.042l-0.959,-2.083c-0.916,-1.833 -1.583,-3.791 -2.291,-5.583l-0.584,-2.042c-0.834,-2.458 -1.542,-4.875 -2.042,-7.5c-23.541,-106 -61.25,-212.791 -113.417,-317.291c-80.083,-19.626 -161.749,-32.626 -243.875,-39c-35.832,-45.542 -75.041,-89.834 -117.458,-132.542l17.75,-17.5Zm1118.38,1661.58c0.041,149.583 -29.126,297.625 -86.126,434.792c-56.749,137.166 -141.208,263.25 -246.625,368.583c-105.375,105.417 -231.416,189.875 -368.583,246.667c-137.208,56.958 -285.208,86.125 -434.792,86.083c-149.583,0.042 -297.624,-29.125 -434.791,-86.083c-137.167,-56.792 -263.251,-141.25 -368.584,-246.667c-105.416,-105.333 -189.874,-231.417 -246.666,-368.583c-56.958,-137.167 -86.125,-285.209 -86.083,-434.792c-0.042,-149.583 29.125,-297.625 86.083,-434.792c56.792,-137.166 141.25,-263.249 246.666,-368.583c105.333,-105.417 231.417,-189.875 368.584,-246.667c137.167,-56.999 285.208,-86.166 434.791,-86.124c149.584,-0.042 297.584,29.125 434.792,86.124c137.167,56.792 263.208,141.25 368.583,246.667c105.417,105.334 189.876,231.417 246.625,368.583c57,137.167 86.167,285.209 86.126,434.792Zm-483.625,-1528.58l1.582,-0.542c1.584,-0.666 3.167,-1.25 4.751,-1.583l4.042,-1.292l4.541,-0.916l4.208,-0.876c1.751,-0.166 3.043,-0.458 4.542,-0.416l4.5,-0.417l3.667,-0.083l5.458,-0.125l3.209,0.333l5.958,0.625c1.291,0.125 2.625,0.459 3.999,0.75l5.25,1.084l3.793,0.958l5.166,1.667l4.209,1.5l6.624,2.833c108.917,52.083 212.167,115.833 307.375,189.833l2.084,1.792l4.792,4.083l3.416,3.584c1.208,0.958 2.125,2.041 3.166,3.208l1.501,1.75l4.5,5.708l1.208,1.667c1.625,2.375 2.834,4.292 3.959,6.291l1.041,1.917l3.333,6.25l3.5,8.667c2.708,8.417 4.334,16.583 4.584,24.458c2.917,67.125 1.5,133.083 -3.917,197.292c-2.167,24.916 -4.75,49.458 -8.083,73.875l0.083,0.083c-3.624,26.292 -7.875,52.209 -12.875,77.834c36.334,41.291 70.167,84.75 101.375,130.041l-0.25,0.167c11.708,17.083 23.042,34.375 34,51.958c-17.292,53.167 -37.375,104.167 -60.291,152.917l-22,-3.625c-0,-0 -4.375,-0.875 -5.918,-1.333c-1.666,-0.251 -2.457,-0.584 -3.332,-0.751c-1.292,-0.333 -2.793,-0.791 -4.083,-1.374l-3.376,-0.959c-0.833,-0.333 -1.625,-0.666 -2.292,-1.041l-4.625,-2.084l-3.291,-1.875l-3.042,-1.75c-6.042,-3.875 -11.208,-8.708 -15.459,-14.292c-0.457,-0.499 -0.874,-1.166 -1.208,-1.75l-2.75,-3.916c-14.374,-24.417 -29.582,-48.375 -45.666,-71.792c-33.292,-48.458 -70.042,-94.583 -110,-137.833c-3.125,-3.459 -5.959,-7.417 -8.5,-11.959c-1.125,-2.416 -2.125,-4.541 -2.958,-6.791l-0.417,-1c-0.792,-2.042 -1.417,-3.875 -1.958,-5.833l-0.292,-1.292c-0.625,-2.458 -0.917,-4.375 -1.125,-6.208l-0.417,-2.417c-0.25,-1.792 -0.5,-3.625 -0.458,-5.542l-0.084,-2.25c-0.125,-2.125 0,-4.166 0.042,-6.083l0.209,-2.167l0.25,-2.125c0.166,-1.791 0.249,-3.666 0.708,-5.542c18.75,-106.999 24.833,-220.124 16.833,-336.583c-66.334,-48.917 -136.708,-92.375 -210.166,-129.833c-15.625,-55.792 -34.792,-111.834 -57.792,-167.5l23.167,-9.375Zm534.999,366.25l1.626,0.042c1.749,-0 3.374,0.125 5.041,0.416l4.209,0.375l4.499,0.875l4.25,0.792c1.542,0.416 2.959,0.667 4.208,1.167l4.376,1.333l3.417,1.417c0.292,0.124 4.125,1.749 5.166,2l2.708,1.5l5.375,2.874c1.167,0.584 2.292,1.417 3.417,2.25l4.459,2.959l3,2.25l4.25,3.583l3.291,3l5.042,5.209c80.666,89.541 151.792,187.791 211.708,292.541l1.167,2.333l2.874,5.584l1.918,4.75c0.666,1.208 1.167,2.708 1.666,4.167l0.75,2.249l1.958,6.959l0.459,2c0.583,2.833 1,5.041 1.292,7.292l0.208,2.166l0.667,7.125l-0.042,9.333c-0.625,8.792 -2.334,17.042 -5.125,24.417c-31.709,87.625 -70.251,170 -114.583,246.042l0.041,0.125c-13.375,22.875 -27.333,45.25 -41.666,66.958c17.625,52.042 32.291,105.125 43.624,158.917l-0.291,0.042c4.291,20.249 8.042,40.625 11.416,61.041c-36.375,42.458 -74.624,81.875 -114.458,118.084l-18.875,-11.792l-4.958,-3.625c-1.459,-0.875 -2.084,-1.375 -2.833,-2c-1.042,-0.792 -2.25,-1.792 -3.25,-2.833l-2.75,-2.209c-0.626,-0.583 -1.25,-1.208 -1.709,-1.833l-3.499,-3.667l-2.251,-2.875l-2.125,-2.916c-4.083,-5.792 -7.042,-12.334 -8.833,-19.042c-0.209,-0.75 -0.333,-1.542 -0.417,-2.208l-1.041,-4.625c-3.876,-28.125 -8.667,-56.084 -14.542,-83.792c-12.042,-57.5 -28.292,-114.084 -48.584,-169.209c-1.624,-4.333 -2.583,-9.041 -3.208,-14.166c-0.125,-2.667 -0.333,-4.958 -0.125,-7.292l-0.042,-1.166c0.083,-2.167 0.209,-4.167 0.459,-6.167l0.25,-1.292c0.333,-2.5 0.75,-4.333 1.25,-6.125l0.583,-2.292c0.459,-1.833 0.917,-3.625 1.708,-5.374l0.792,-2.167c0.709,-1.959 1.583,-3.792 2.333,-5.584l1.042,-1.874c1.167,-2.292 2.333,-4.5 3.834,-6.709c58.291,-91.666 106.999,-193.917 143.999,-304.708c-42.75,-70.417 -91.208,-137.417 -144.792,-200c6.959,-57.584 10.5,-116.542 10.667,-176.834l25,0.209Zm354.751,542.708l1.458,0.75c1.625,0.625 3.083,1.334 4.5,2.25l3.791,1.917l3.834,2.583l3.583,2.333c1.334,1.126 2.5,1.834 3.5,2.917l3.5,2.875l2.667,2.583l3.958,3.709l2,2.541l3.792,4.625c0.792,1 1.541,2.167 2.333,3.376l2.958,4.458l1.959,3.375l2.458,4.833l1.916,4.042l2.709,6.708c40.292,113.875 68.25,232.125 83.209,351.833l0.208,2.751l0.458,6.291l-0.084,4.958c0.209,1.5 0.084,2.917 0,4.459l-0.207,2.333l-0.876,7.208l-0.333,2.042c-0.542,2.833 -1,5.042 -1.583,7.25l-0.625,2.042l-2.167,6.792l-3.584,8.624c-3.999,7.876 -8.749,14.792 -14.124,20.501c-45.376,49.5 -93.042,95.083 -142.292,136.666c-19.166,16.083 -38.375,31.584 -57.958,46.5l-0,0.125c-21.084,16.042 -42.5,31.334 -64.083,45.959c-3.542,54.874 -10.251,109.541 -20.209,163.583l-0.292,0c-3.791,20.333 -8,40.583 -12.707,60.75c-49.793,25.333 -100.084,47.166 -150.751,65.375l-12.958,-18.125c0,-0 -2.5,-3.709 -3.25,-5.083c-1,-1.375 -1.334,-2.209 -1.833,-2.917c-0.667,-1.125 -1.417,-2.542 -1.918,-3.875c-1,-1.583 -1.332,-2.375 -1.708,-3.042c-0.333,-0.833 -0.666,-1.625 -0.916,-2.375l-1.792,-4.708l-0.958,-3.625l-0.917,-3.375c-1.541,-7.042 -1.792,-14.125 -0.833,-21.042c0.041,-0.708 0.208,-1.458 0.375,-2.083l0.833,-4.709c7.083,-27.416 13.291,-55.083 18.416,-82.958c10.751,-57.75 17.334,-116.291 19.626,-175.208c0.208,-4.625 1,-9.5 2.458,-14.458c0.916,-2.542 1.625,-4.75 2.667,-6.959l0.416,-1c0.875,-2 1.751,-3.75 2.751,-5.541l0.708,-1.084c1.292,-2.208 2.459,-3.75 3.542,-5.208l1.416,-2.042c1.125,-1.417 2.25,-2.875 3.667,-4.208l1.5,-1.708c1.417,-1.542 2.958,-2.875 4.333,-4.251l1.666,-1.333l1.709,-1.375c1.375,-1.166 2.75,-2.375 4.417,-3.416c88.916,-62.542 173.291,-138.084 250.042,-226.042c-12.334,-81.542 -31.375,-162.042 -56.876,-240.542c28.376,-50.458 54.376,-103.708 77.459,-159.333l23.042,9.708Zm215.75,398.959l-0.042,-1.459c-15.708,-125.541 -45.042,-249.583 -87.292,-369.042l-1.167,-2.833c-34.875,-98.125 -78.499,-193.083 -130.083,-283.375l-0.541,-1.167c-62.834,-109.875 -137.375,-212.874 -221.959,-306.75l-2.25,-2.333c-20.084,-22.208 -40.75,-43.958 -61.916,-65.125c-52.209,-52.166 -107.584,-101.125 -165.917,-146.416l-1.042,-1c-99.833,-77.584 -208.083,-144.417 -322.334,-199.042l-2.791,-1.209c-93.958,-44.75 -192,-81.124 -292.416,-108.624l-1.209,-0.459c-122.25,-33.375 -248.083,-53.333 -374.167,-59.875l-3.208,-0.041c-29.875,-1.5 -59.791,-2.25 -89.667,-2.25c-73.583,0.041 -147.374,4.499 -220.708,13.666l-1.417,0.042c-125.541,15.667 -249.625,45.041 -369.041,87.292l-2.834,1.166c-98.124,34.875 -193.041,78.5 -283.375,130.084l-1.166,0.499c-109.875,62.875 -212.875,137.375 -306.75,222.001l-2.338,2.25c-22.204,20.083 -43.917,40.708 -65.12,61.916c-52.125,52.208 -101.125,107.583 -146.417,165.875l-1,1.083c-77.583,99.834 -144.459,208.084 -199.042,322.334l-1.208,2.792c-44.792,93.958 -81.125,191.958 -108.625,292.416l-0.458,1.208c-33.375,122.209 -53.334,248.042 -59.875,374.126l-0.042,3.208c-1.5,29.916 -2.25,59.833 -2.25,89.708c0.041,73.583 4.5,147.375 13.667,220.667l0.041,1.458c15.709,125.542 45,249.584 87.292,369.042l1.167,2.833c34.916,98.125 78.499,193.042 130.083,283.375l0.5,1.167c62.875,109.875 137.416,212.875 221.995,306.75l2.25,2.333c20.088,22.208 40.713,43.917 61.922,65.125c52.208,52.125 107.583,101.125 165.875,146.417l1.083,1c99.833,77.541 208.083,144.417 322.291,199.042l2.833,1.166c93.959,44.792 192.001,81.167 292.418,108.625l1.208,0.5c122.208,33.333 248.041,53.333 374.166,59.875l3.167,0.042c29.917,1.458 59.834,2.25 89.708,2.25c73.584,-0.042 147.376,-4.542 220.667,-13.667l1.458,-0.042c125.542,-15.708 249.583,-45.041 369.042,-87.291l2.833,-1.167c98.084,-34.916 193.084,-78.5 283.376,-130.083l1.166,-0.542c109.875,-62.833 212.875,-137.375 306.75,-221.958l2.292,-2.25c22.25,-20.083 43.958,-40.75 65.167,-61.917c52.125,-52.208 101.124,-107.625 146.416,-165.916l1,-1.042c77.542,-99.834 144.416,-208.084 199.042,-322.333l1.208,-2.834c44.75,-93.917 81.125,-191.958 108.584,-292.375l0.499,-1.208c33.334,-122.25 53.334,-248.042 59.876,-374.167l-0,-3.208c1.541,-29.875 2.291,-59.792 2.291,-89.667c-0.042,-73.625 -4.541,-147.375 -13.666,-220.666Z" style="fill-rule:nonzero;"/><path d="M490.554,429.516c0.663,-0.701 2.301,-2.567 1.455,-3.515c-2.132,-2.387 -5.869,8.163 -1.455,3.515Zm46.401,-146.616c1.135,-4.523 3.629,4.659 -0.421,3.847c1.252,-1.197 0.154,-2.781 0.421,-3.847Zm-496.023,-14.76c5.229,-1.523 -4.575,7.328 -3.278,3.017c0.42,-1.397 2.57,-2.813 3.278,-3.017Zm163.714,-217.201c0.468,1.34 -5.098,-6.816 -2.968,-5.762c1.545,0.762 2.296,3.818 2.968,5.762Zm-32.718,4.325c0.998,-0.982 -16.188,21.661 -14.155,18.193c1.742,-2.97 12.414,-16.477 14.155,-18.193Zm-25.07,10.345c0.792,-0.614 2.4,0.868 3.887,1.707c3.397,1.911 8.568,3.467 4.5,7.502c-4.423,4.386 -10.541,-7.542 -8.387,-9.209Zm-86.373,109.981c3.847,2.014 -7.613,0.595 -6.334,-1.544c0.54,-0.902 2.742,-1.917 3.978,-1.11c0.343,0.224 1.165,2.031 2.356,2.654Zm20.24,-40.705c2.816,1.966 -7.01,2.149 -5.175,-0.055c1.017,-1.219 3.386,-1.195 5.175,0.055Zm2.244,-26.704c1.118,0.842 -0.408,3.466 -1.497,4.387c-3.833,3.236 -0.963,-6.241 1.497,-4.387Zm40.614,356.133c4.472,0.718 11.249,2.804 14.396,7.481c0.417,0.617 1.502,4.428 1.522,4.432c0.173,0.018 1.374,-1.006 1.617,-1.073c4.013,-1.086 15.639,4.693 12.861,10.045c9.742,-2.969 22.519,9.386 33.104,10.66c-2.137,4.475 -9.916,-2.061 -12.174,1.013c-2.27,3.086 2.342,1.957 3.556,2.202c0.837,0.168 1.118,0.654 1.654,0.748c2.638,0.456 5.616,-3.025 8.329,-3.587c4.534,-0.939 12.109,3.649 17.172,6.283c2.156,1.122 7.162,1.942 4.796,4.649c2.187,-1.553 6.82,-3.45 7.286,0.386c-0.035,-0.286 -0.119,1.848 0.162,1.903c1.52,0.315 0.56,-3.896 2.613,-3.637c0.615,0.078 0.732,1.521 1.529,2.281c1.224,1.159 3.886,1.681 5.09,2.328c4.596,2.464 -1.403,-0.994 -0.285,-2.528c2.001,-2.738 9.114,7.715 9.151,1.096c0.812,0.278 0.96,2.081 1.857,2.319c1.118,0.301 2.481,-2.264 3.274,-2.475c1.486,-0.4 4.771,2.623 6.085,2.99c7.362,2.06 17.018,-1.637 24.215,3.275c0.052,-0.345 -0.18,-0.918 0.333,-1.035c1.109,0.966 1.523,2.067 2.022,3.152c-0.478,-0.656 -1.251,-1.258 -2.191,-1.826c-0.062,2.354 3.226,8.133 5.707,4.358c1.703,-2.587 -1.311,-6.141 -2.8,-8.162c8.879,1.261 18.666,-0.012 27.413,-1.232c1.481,-0.207 7.785,-1.578 9.151,-0.521c1.159,0.899 0.275,2.994 1.32,3.936c1.317,1.193 2.339,0.863 2.977,0.379c0.463,-0.348 2.533,-4.346 1.461,-4.593c-1.09,-0.25 -2.324,3.539 -3.15,0.948c-0.477,-1.496 10.785,-0.125 13.081,0.851c-0.503,-1.296 3.535,-3.804 5.181,-2.641c-4.021,-3.609 5.357,-2.711 6.674,-3.259c-0.402,0.169 2.921,-2.074 3.068,-1.897c0.289,0.352 -2.232,3.775 -0.504,3.435c0.554,-0.112 1.547,-2.727 1.953,-3.184c3.223,-3.628 8.948,-2.392 13.049,-3.662c7.841,-2.427 16.626,-7.452 24.494,-12.17c5.781,-3.465 11.939,-7.348 17.993,-10.772c1.933,-1.095 4.707,-3.309 6.093,-3.467c1.122,-0.131 1.878,0.778 3.105,0.461c1.61,-0.416 3.353,-2.976 4.974,-3.136c0.22,-0.024 2.055,0.779 2.275,0.625c0.843,-0.596 -2.108,-2.516 -0.368,-2.942c0.643,-0.157 1.592,1.292 2.401,0.709c0.952,-0.682 -0.272,-2.979 0.421,-3.85c0.358,-0.448 2.371,-0.491 3.274,-0.862c8.626,-3.576 16.575,-18.323 25.453,-15.482c-1.522,-8.408 10.742,-15.655 15.567,-21.915c0.434,-0.561 1.112,-1.923 1.329,-1.985c0.873,-0.254 2.104,1.814 3.063,1.869c0.312,0.018 1.89,-0.767 1.739,-1.529c-0.28,-1.426 -3.366,-0.419 -3.475,-1.785c-0.07,-0.883 3.777,-3.159 4.731,-4.381c4.412,-5.671 6.142,-12.943 10.921,-17.123c0.955,-0.836 3.194,-1.736 3.358,-2.063c0.172,-0.345 -0.257,-1.854 -0.203,-2.113c1.161,-5.685 5.322,-13.563 9.022,-19.652c4.293,-7.066 9.477,-8.289 13.483,-13.431c-1.685,0.087 -3.451,1.277 -4.929,0.116c-2.713,-2.136 3.073,-9.617 5.242,-13.201c0.486,-0.799 2.609,-4.266 3.075,-5.127c1.997,-3.709 -0.311,-0.062 -1.283,-0.499c-0.738,-0.335 0.09,-2.714 0.13,-3.685c0.2,-4.695 -0.994,-13.714 5.578,-14.772c1.887,-0.306 -3.019,-2.893 -2.892,-3.732c0.053,-0.36 1.373,-0.662 2.113,-1.282c3.128,-2.612 1.771,-65.173 2.236,-65.335c0.98,-0.345 2.182,2.527 1.821,0.5c-0.798,-4.463 -4.923,-10.027 -1.3,-14.162c-1.007,0.13 -2.608,0.397 -2.854,-0.834c-0.046,-0.235 2.475,-3.049 2.615,-4.715c0.061,-0.702 -0.482,-3.671 -1.648,-3.44c-2.245,0.448 1.218,3.269 -0.296,3.934c-0.422,0.184 -1.049,-1.392 -0.703,-0.83c-1.317,-2.152 -3.348,-5.926 -3.755,-8.082c-0.192,-1.03 2.345,-7.178 1.632,-8.07c-0.939,-1.173 -2.576,-0.518 -3.061,-1.87c-0.954,-2.652 4.049,-4.258 4.981,-6.904c-0.844,0.196 -1.99,0.537 -2.857,0.239c-0.634,-0.214 -1.91,-1.518 -2.315,-1.368c-1.314,0.481 1.181,3.179 -0.216,3.809c-0.344,0.156 -0.707,-1.312 -0.454,-0.663c-3.779,-9.708 -9.427,-19.955 -8.307,-29.994c-0.619,0.852 -1.181,2.81 -2.281,2.067c-0.724,-0.488 0.119,-2.711 0.173,-3.479c0.203,-2.971 -0.562,-4.583 -1.436,-7.248c-0.233,-0.707 -0.826,-3.684 -1.237,-3.521c-1.366,0.534 0.06,3.018 -0.835,3.392c-1.333,0.559 -1.616,-5.594 0.798,-5.754c-6.545,0.788 -5.39,-6.845 -8.758,-9.995c5.631,2.626 1.043,-2.653 -1.817,-3.731c-0.587,-0.221 -1.931,0.049 -2.234,-0.419c-0.159,-0.246 0.413,-2.326 0.42,-2.772c0.022,-2.018 -0.049,-6.686 -1.557,-7.871c-1.35,-1.053 -3.607,0.208 -5.01,-0.839c-2.208,-1.64 0.05,-6.237 -2.262,-8.158c-0.879,-0.731 -2.155,-0.678 -3.105,-1.002c5.396,-0.566 -1.291,-8.737 -3.134,-7.128c-0.891,0.781 0.738,2.137 0.039,2.363c-3.107,-4.271 -8.76,-9.64 -10.778,-14.763c-0.199,-0.493 -0.449,-2.961 -0.741,-3.189c-0.408,-0.315 -2.229,0.067 -2.361,0.037c-4.725,-1.124 -9.716,-5.762 -13.522,-9.59c-2.536,-2.55 -6.478,-6.378 -6.111,-9.124c0.158,-1.18 1.572,-2.561 1.249,-3.474c-1.043,-2.944 -6.778,0.123 -8.237,-1.919c-0.566,-0.791 0.523,-2.195 0.296,-2.858c-0.257,-0.749 -2.252,-2.321 -3.557,-3.276c-3.184,-2.332 -6.184,-4.629 -8.474,-6.392c-7.234,-5.578 -16.053,-5.495 -23.294,-11.638c-2.33,-1.985 -1.963,-4.553 -3.961,-6.424c-4.455,-4.185 -10.847,1.006 -15.233,-1.936c-5.122,-3.435 -4.809,-13.282 -12.233,-12.321c-2.235,0.29 -4.955,3.661 -6.465,3.221c-4.047,-1.189 -1.491,-4.605 -2.722,-5.598c-0.393,-0.315 -4.31,0.1 -5.507,-0.092c-5.862,-0.945 -12.182,-3.844 -17.384,-4.629c0.549,-0.897 1.349,-1.846 1.208,-2.608c-6.107,6.847 -31.213,-3.256 -33.448,-4.782c-0.928,-0.633 -0.301,-1.627 -1.156,-2.03c-1.315,-0.625 -3.321,1.445 -4.682,1.895c-3.323,1.092 -8.852,0.583 -12.296,-0.686c-1.555,-0.574 -2.892,-1.854 -4.347,-1.292c-1.123,0.434 -1.281,1.346 -2.115,1.818c-1.269,0.72 -3.419,0.538 -4.554,-0.173c-0.44,-0.278 -0.751,-1.222 -1.365,-1.452c-1.317,-0.496 -2.767,1.496 -4.514,1.108c-2.235,-0.492 -4.187,-3.124 -6.124,-2.123c-1.437,0.743 -1.56,2.19 -2.571,2.233c-2.336,0.092 -5.089,-3.974 -7.285,-2.001c-0.369,0.329 -0.378,1.315 -1.039,1.819c-1.656,1.264 -4.106,-1.773 -6.537,-2.58c-3.926,-1.306 -9.091,7.325 -13.261,6.932c-2.567,-0.247 -3.454,-2.762 -5.874,-3.572c-2.487,-0.835 -2.554,2.034 -4.311,3.22c-0.92,0.619 -2.352,-0.602 -3.065,-0.252c-0.754,0.366 -1.283,2.139 -1.994,2.437c-1.928,0.813 -1.884,-1.964 -3.016,-2.738c-2.868,-1.962 -8.373,3.275 -10.893,1.511c-0.009,-0.006 -0.47,-2.146 -1.073,-2.154c-1.009,-0.014 -3.638,3.158 -3.36,3.678c0.297,0.559 3.179,-0.208 4.016,-0.364c1.131,-0.213 3.472,-0.785 4.183,-0.075c2.366,2.362 -4.431,4.086 -5.391,4.296c-2.252,0.492 -4.426,1.16 -5.842,0.941c0.22,-0.608 2.55,-5.024 0.592,-4.637c-0.127,0.026 -0.811,2.815 -1.084,3.228c-1.892,2.866 -5.298,2.298 -7.627,4.417c-0.222,0.201 -1.057,1.399 -1.122,1.404c-0.214,0.025 -1.791,-1.637 -2.068,-1.741c-3.27,-1.265 -7.125,5.492 -10.44,3.788c-0.485,-0.25 -1.145,-1.457 -1.694,-1.494c-2.102,-0.133 -0.674,4.595 -0.921,5.133c-0.464,1.012 -1.836,1.678 -2.325,1.86c-3.444,1.283 -10.606,-0.621 -13.213,3.371c-0.936,1.431 -0.437,3.321 -1.208,4.221c-0.584,0.678 -2.301,1.078 -2.777,0.656c-0.273,-0.245 -0.081,-4.575 -1.109,-4.515c-0.95,0.058 -1.729,3.14 -2.615,4.715c-1.697,3.01 -2.829,2.842 -5.06,3.802c-0.823,0.353 -2.823,1.831 -3.563,1.566c-0.811,-0.29 -0.966,-1.749 -1.238,-1.908c-1.366,-0.782 -3.273,0.295 -3.813,0.863c-2.911,3.066 0.971,6.747 -0.552,8.611c-0.959,1.167 -3.874,-0.091 -5.217,-0.795c-0.737,-0.386 -1.3,-1.123 -1.823,-1.039c-1.294,0.2 -2.782,3.972 -3.071,4.588c-0.465,0.999 -2.383,5.694 -0.255,4.143c-1.922,2.11 -3.491,1.342 -5.719,2.1c-4.315,1.468 -5.455,6.168 -8.01,9.012c-1.745,1.943 -4.932,-0.301 -6.127,1.106c0.011,-0.012 -0.961,2.685 0.613,2.57c1.33,-0.102 0.819,-2.428 2.033,-1.696c1.263,0.761 -2.508,4.057 -2.45,5.007c-0.932,-0.439 -0.205,-2.052 -1.778,-2.447c-1.428,-0.356 -4.814,6.14 -6.348,7.067c-0.685,0.414 -2.397,0.162 -2.569,0.618c-0.419,1.12 2.443,1.739 2.728,2.364c-11.856,-0.696 -11.61,23.866 -22.612,24.387c1.234,0.612 2.187,-0.192 3.477,0.713c-3.186,0.542 -4.847,7.367 -6.602,9.592c-2.442,3.1 -1.53,-2.774 0.709,-3.476c-7.367,-1.771 -0.236,7.18 -3.039,9.643c-1.589,1.396 -4.058,-1.151 -5.509,0.982c-2.297,3.379 2.439,7.434 -1.138,11.094c-0.668,-2.198 -2.372,-6.388 -5.047,-1.583c-1.042,1.867 -1.769,4.173 -2.376,7.037c-0.564,2.666 -1.181,7.549 1.729,6.544c-0.986,2.464 -2.947,5.53 -4.94,7.113c0.465,-0.908 1.356,-1.847 0.828,-2.317c-1.231,-1.1 -2.59,3.565 -2.494,5.337c0.042,0.722 0.457,2.034 -0.5,2.355c0.93,-1.785 -0.102,-1.857 -1.114,-1.284c-4.61,2.616 0.175,5.728 0.602,9.031c0.322,2.501 -2.479,7.101 -3.374,10.138c-1.995,6.767 -2.798,13.632 -3.804,19.908c-0.458,2.859 -0.878,8.023 -2.418,10.058c-0.722,0.952 -2.957,1.696 -3.526,2.851c-1.522,3.078 2.217,8.089 2.628,11.103c0.092,0.651 0.048,2.988 -1.042,3.434c-0.67,0.275 -1.989,-0.67 -2.606,-0.668c-4.048,0 -1.714,6.255 -3.825,8.397c-1.122,1.139 -3.351,-0.169 -4.02,0.365c-0.419,0.336 -0.127,2.447 -0.21,2.735c-1.238,4.289 -6.664,4.179 -7.62,0.107c-0.956,-4.081 3.672,-11.014 6.159,-16.178c2.619,-5.432 3.516,-9.421 3.423,-14.235c-0.098,-4.943 -0.385,-8.972 0.937,-13.746c1.311,-4.739 3.913,-9.777 6.321,-14.813c2.372,-4.962 3.521,-9.032 3.962,-14.236c0.445,-5.29 1.715,-9.317 3.836,-14.321c4.484,-10.572 10.487,-22.159 17.204,-33.216c13.439,-22.124 28.867,-39.73 45.36,-54.614c8.648,-7.801 17.389,-14.473 26.125,-21.854c3.121,-2.634 5.9,-6.03 8.671,-7.85c1.829,-1.203 4.86,-1.126 7.043,-1.933c4.526,-1.673 8.745,-5.661 13.141,-8.631c1.702,-1.148 5.136,-3.921 6.673,-3.797c0.65,0.056 1.675,1.222 2.523,1.329c1.923,0.251 6.409,-3.961 8.166,-4.95c5.711,-3.22 11.125,-5.605 16.828,-7.423c2.978,-0.949 5.885,-1.152 8.78,-1.846c9.274,-2.225 16.533,-6.629 26.099,-6.782c2.966,-0.05 7.075,0.61 9.153,-0.524c2.028,-1.108 2.658,-2.78 5.136,-2.308c1.995,0.38 5.074,3.274 6.292,2.413c0.522,-0.367 0.818,-1.909 1.452,-2.44c1.602,-1.346 5.97,-0.295 8.158,-0.107c2.838,0.24 6.423,0.854 8.158,-0.107c0.995,-0.557 2.006,-2.236 2.778,-2.276c1.275,-0.065 2.597,1.828 4.01,2.327c2.594,0.913 5.987,-2.088 8.909,-2.304c5.307,-0.385 11.071,3.622 16.887,3.221c5.279,-0.362 10.816,-3.011 15.363,-0.674c2.935,1.508 3.305,0.907 5.466,0.962c4.802,0.126 10.542,2.04 15.85,3.425c5.544,1.445 11.211,3.612 16.347,5.371c11.499,3.951 21.475,7.818 33.102,12.817c17.247,7.42 35.159,16.846 50.332,30.28c4.677,4.138 8.808,8.793 13.891,12.529c7.328,5.388 11.205,8.956 15.044,15.103c2.737,4.383 5.727,10.792 10.696,13.807c2.01,1.219 5.474,1.399 7.076,3.117c0.839,0.905 0.589,2.779 1.195,3.855c1.329,2.368 3.546,4.39 5.08,6.635c7.709,11.289 12.253,22.758 19.808,34.281c1.402,2.137 1.848,4.4 3.22,7.003c1.128,2.146 3.78,5.218 3.836,6.882c0.028,0.728 -1.312,2.687 -0.711,3.478c1.122,1.467 5.693,0.317 7.617,2.042c1.411,1.262 0.027,1.82 -0.547,3.228c-0.345,0.855 0.057,2.375 0.784,2.858c0.552,0.367 1.227,-0.319 1.903,0.377c1.238,1.269 -2.357,4.204 -0.673,5.837c1.13,1.096 2.806,0.122 4.178,1.539c1.128,1.167 -0.441,4.997 -0.839,6.623c-1.281,5.245 1.221,8.252 1.921,12.963c0.27,1.818 0.14,6.505 1.476,7.458c0.557,0.398 1.416,-0.242 2.111,0.337c1.524,1.263 1.448,7.153 1.557,9.484c0.108,2.332 -0.692,7.928 0.853,9.73c0.554,0.65 1.995,1.131 2.684,2.16c1.24,1.845 0.72,5.46 0.526,7.537c-0.362,3.838 -1.312,10.446 4.172,6.384c1.09,2.551 -5.997,2.892 -5.19,5.332c0.178,0.534 2.467,0.27 2.817,0.624c1.019,1.039 -0.543,4.69 -1.212,6.377c-0.816,2.041 0.645,20.383 1.202,21.285c0.014,0.022 -0.723,1.82 -0.791,1.985c-1.383,3.252 -2.114,6.367 -0.846,8.778c0.187,0.355 1.61,1.716 1.279,2.113c-0.614,0.743 -1.835,-1.316 -2.441,-0.914c-0.471,0.31 0.184,1.153 0.04,0.743c0.93,2.664 0.231,3.509 -0.592,6.792c-0.094,0.378 -0.716,4.149 0.076,4.18c0.091,0.006 1.003,-1.086 1.159,-1.198c3.015,-2.079 2.868,6.59 2.265,7.622c-0.018,-0.657 -2.699,-4.48 -3.143,-2.82c0.007,-0.025 1.043,1.207 1.16,1.492c1.593,3.939 -5.51,10.216 -1.518,13.002c-3.288,0.858 -4.11,5.331 -0.178,6.168c-7.378,9.918 -10.895,20.861 -14.674,30.777c1.726,-2.452 2.84,-6.315 5.803,-3.301c-11.332,9.077 -12.659,24.069 -20.232,35.324c-3.311,4.923 -9.051,9.793 -11.703,14.801c-0.552,1.044 -0.929,2.419 -0.254,3.062c0.938,0.899 3.048,-0.031 3.893,0.628c1.232,0.968 -0.827,3.498 -1.877,5.216c-4.267,6.999 -11.247,17.378 -17.42,17.44c-1.289,0.012 -2.167,-0.598 -3.148,-0.13c-3.634,1.745 -6.713,7.507 -9.917,10.788c-3.741,3.835 -6.966,6.58 -10.244,9.134c-4.903,3.815 -10.34,9.264 -15.346,13.798c-1.501,1.361 -3.643,3.735 -5.185,4.256c-0.895,0.302 -2.02,-0.299 -2.899,0.036c-2.133,0.825 -4.229,3.21 -6.261,4.793c-6.282,4.886 -12.426,10.308 -19.566,12.052c-2.559,0.628 -4.796,0.783 -6.918,1.479c-2.277,0.748 -4.305,2.243 -6.59,3.672c-12.547,7.851 -27.214,12.171 -40.567,16.322c-4.288,1.33 -9.01,3.011 -13.713,4.115c-4.544,1.065 -10.413,-1.399 -14.616,0.095c-1.917,0.681 -4.188,2.82 -5.887,3.426c-3.158,1.13 -8.044,-2.15 -10.849,-0.971c-1.842,0.773 -2.301,2.741 -4.354,3.551c-1.939,0.767 -4.993,-2.234 -6.95,-2.497c-3.156,-0.421 -6.186,2.944 -9.283,3.13c-2.379,0.141 -5.039,-3.39 -7.323,-3.285c-1.527,0.074 -3.354,2.571 -5.511,2.598c-4.094,0.054 -7.365,-4.1 -10.802,-2.92c-0.84,0.291 -1.274,1.06 -2.195,1.406c-4.382,1.636 -9.119,-2.345 -13.824,-2.967c-1.864,-0.246 -3.799,0.355 -5.632,0.363c-1.931,0.007 -3.884,-0.377 -5.84,-0.675c-11.196,-1.696 -24.755,-3.61 -36.826,-12.614c-0.599,-0.446 -0.862,-0.862 -1.53,-1.205c-2.957,-1.513 -4.032,3.322 -6.63,2.391c-3.009,-1.082 -3.328,-6.004 -7.191,-6.973c-1.19,-0.294 -2.442,0.544 -3.936,0.244c-3.788,-0.77 -8.773,-5.021 -12.283,-7.146c-6.024,-3.647 -11.658,-3.069 -16.843,-5.704c-5.3,-2.691 -7.462,-8.443 -11.818,-11.865c-2.285,-1.791 -4.824,-2.052 -6.289,-3.489c-1.057,-1.039 -1.502,-3.087 -3.428,-4.272c-1.859,-1.144 -4.274,-1.299 -6.577,-2.786c-5.088,-3.289 -8.827,-9.172 -14.758,-13.651c-1.356,-1.024 -2.871,-1.749 -4.217,-2.823c-2.688,-2.142 -2.894,-5.016 -4.749,-7.129c-2.708,-3.087 -6.737,-3.489 -9.512,-5.651c-3.817,-2.974 -2.761,-6.314 -4.663,-9.409c-0.493,-0.803 -4.96,-4.059 -5.043,-4.812c-0.141,-1.306 1.813,-2.244 2.242,-2.275c1.685,-0.11 3.802,2.692 4.422,3.862c0.115,0.216 0.498,2.868 1.112,2.899c0.726,0.039 3.011,-4.019 2.537,-4.592c-0.226,-0.268 -1.297,0.6 -1.659,0.328c-0.135,-0.1 -0.559,-2.211 -0.741,-2.651c-0.34,-0.824 -0.535,-1.936 -1.361,-2.528c-3.276,-2.349 -7.451,2.349 -10.229,1.057c-2.162,-1.006 -1.646,-3.046 -2.516,-4.559c-1.299,-2.253 -3.856,-3.696 -5.91,-5.933c-1.62,-1.758 -2.861,-4.287 -4.048,-6.3c-5.06,-8.592 -9.531,-16.894 -14.941,-25.451c-2.467,-3.907 -6.031,-8.756 -6.558,-13.018c-0.17,-1.358 0.81,-3.437 0.504,-4.51c-0.371,-1.305 -2.639,-2.928 -3.097,-4.767c-0.508,-2.058 0.418,-4.643 -0.606,-6.337c-0.81,-1.332 -2.618,-2.17 -3.473,-3.4c-3.558,-5.124 -1.41,-12.764 -3.776,-17.978c-0.893,-1.968 -2.75,-3.367 -3.675,-5.515c-1.252,-2.903 -0.717,-7.76 -1.016,-11.638c-0.32,-4.246 -2.523,-7.99 -2.999,-11.352c-0.248,-1.763 0.518,-3.383 0.798,-5.215c0.535,-3.54 -4.058,-8.342 -3.126,-10.895c0.207,-0.577 1.264,-1.027 1.657,-1.944c1.021,-2.372 -0.124,-7.203 -0.104,-10.307c0.016,-2.498 -0.402,-8.822 2.049,-10.847c1.483,-1.228 7.745,-0.274 9.73,0.764c3.6,1.884 1.799,6.691 1.306,9.858c-0.934,5.996 -1.631,11.476 -2.766,17.548c-0.127,0.684 -0.967,3.236 -0.585,3.563c0.313,0.268 1.661,-1.131 2.028,-0.078c0.602,1.725 -3.273,1.999 -4.065,4.461c-0.139,0.431 0.271,2.369 1.111,2.364c1.842,-0.012 1.757,-4.979 3.735,-3.431c-0.772,1.285 -1.414,2.282 -1.291,3.271c0.183,1.435 1.58,1.392 2.479,2.735c1.14,1.71 -1.746,5.751 -0.181,7.784c0.269,0.349 1.321,0.696 1.737,1.163c1.365,1.529 1.128,5.805 1.185,8.16c0.071,2.799 -0.178,5.99 0.356,8.324c0.835,3.619 6.309,8.949 2.837,12.137c4.117,0.468 -0.494,5.173 1.187,7.082c0.82,0.929 2.839,1.007 3.892,1.705c3.568,2.372 1.357,7.143 2.917,10.399c1.055,2.196 5.574,5.211 3.588,7.253c-0.153,0.16 -1.418,0.23 -1.446,0.286c-0.918,1.855 7.725,6.049 4.206,8.746c3.483,-0.769 5.503,4.42 5.041,6.427c-0.984,-0.577 -1.818,-1.991 -2.648,-1.412c-1.232,0.851 4.322,6.358 3.088,7.46c0.428,-1.094 0.803,-2.888 1.993,-2.439c0.83,0.31 0.885,2.797 0.906,3.478c0.104,3.544 -1.267,7.906 -0.477,11.18c1.26,5.212 5.553,3.209 9.678,5.399c2.093,1.109 4.46,3.213 5.912,5.393c-0.274,-0.41 0.53,2.141 0.866,2.197c0.289,0.051 0.949,-1.306 1.493,-1.156c0.407,0.114 0.606,2.396 0.905,2.943c2.51,4.616 11.429,8.334 8.587,13.471c4.244,-0.873 5.513,4.653 4.085,7.586c0.103,-0.401 3.564,-4.284 3.895,-2.6c0.1,0.494 -1.481,1.763 -1.783,2.397c-2.116,4.459 8.691,-0.269 8.315,4.486c-4.444,-3.389 -6.694,4.568 -1.128,4.1c-2.625,-0.522 -2.012,-2.653 -0.533,-3.231c3.408,-1.329 8.486,3.969 9.884,6.973c0.241,0.517 0.392,2.112 0.908,2.406c1.389,0.791 3.198,-1.674 4.677,0.256c0.963,1.254 -3.694,7.01 -3.661,8.689c0.018,0.67 0.877,3.289 1.777,2.985c1.798,-0.612 0.669,-6.527 2.292,-7.988c0.399,-0.359 1.983,-0.582 2.94,0.172c2.688,2.114 -1.113,6.771 -1.591,9.355c2.712,-3.059 8.015,-5.457 10.396,-1.306c-1.013,-1.517 -3.153,0.561 -1.783,0.784Zm360.956,-52.654c-1.446,0.61 -3.579,2.116 -4.808,4.505c-0.263,0.504 -1.165,2.762 -0.131,3.143c2.018,0.748 4.327,-6.671 4.939,-7.648Zm-13.908,21.048c3.489,-2.753 -3.025,-2.022 -2.028,0.081c0.406,0.865 1.536,0.309 2.028,-0.081Zm-2.81,-3.854c-2.59,0.509 -3.466,4.534 -5.641,5.207c-0.466,0.145 -2.827,-0.249 -3.023,-0.049c-0.864,0.893 1.714,2.499 2.315,3.523c0.73,1.253 -0.048,2.531 -1.46,4.059c4.747,-1.314 7.042,-8.723 7.809,-12.74Zm7.887,-10.171c2.956,-2.532 -1.123,-5.23 -3.139,-3.362c1.944,-0.439 2.791,1.564 3.139,3.362Zm-19.179,24.89c-0.205,2.384 -3.343,1.804 -3.689,3.096c-0.015,0.061 0.687,1.409 0.826,1.453c1.022,0.312 4.463,-3.225 2.863,-4.549Zm34.007,-49.999c1.202,0.179 2.84,-2.733 2.45,-3.39c-0.989,-1.673 -2.764,2.441 -2.45,3.39Zm-19.765,29.527c2.501,-1.349 -3.162,-2.926 -2.809,-1.163c0.212,1.088 2.713,1.219 2.809,1.163Zm-14.609,19.147c1.361,-0.654 1.383,-3.229 0.338,-3.187c-1.215,0.043 -0.693,2.638 -0.338,3.187Zm52.326,-82.465c0.611,-0.197 3.3,0.358 3.065,-0.826c-0.105,-0.54 -2.661,0.202 -3.065,0.826Zm-62.871,97.144c0.622,-0.741 1.68,-4.398 -0.489,-4.639c-2.577,-0.285 -2.762,8.497 0.489,4.639Zm-9.993,7.143c0.652,-0.543 1.054,-2.238 0.42,-2.772c-2.229,-1.881 -2.773,4.733 -0.42,2.772Zm-31.802,22.549c1.68,0.444 3.873,0.088 3.98,-2.187c0.023,-0.451 -1.234,-3.309 -2.438,-3.068c-1.722,0.345 0.336,4.03 -1.542,5.255Zm109.214,-277.221c1.273,-0.986 -0.422,-2.85 -1.528,-2.278c-0.965,0.498 -0.253,3.665 1.528,2.278Zm-228.019,305.486c-0.727,0.625 -3.991,1.72 -3.486,3.056c0.447,1.178 3.063,-1.718 3.486,-3.056Zm-37.144,-0.07c1.006,0.783 4.488,0.36 3.772,-1.069c-0.628,-1.25 -3.03,0.256 -3.772,1.069Zm234.713,-363.524c1.189,-0.39 0.649,-3.792 -0.697,-3.519c-1.049,0.211 -1.06,4.096 0.697,3.519Zm-4.366,-11.725c1.615,-0.322 0.12,-4.697 -1.485,-3.152c-0.7,0.678 0.485,3.348 1.485,3.152Zm-3.513,-3.071c1.44,-1.59 1.047,-3.843 0.009,-5.383c-0.731,-1.086 -1.351,1.157 -1.328,1.985c0.03,1.184 0.959,2.483 1.319,3.398Zm-269.675,370.664c0.897,-0.784 -2.639,-2.918 -3.266,-2.369c-1.275,1.121 2.528,3.012 3.266,2.369Zm-3.97,-2.12c1.028,-1.672 -4.702,-2.065 -2.649,0.2c0.557,0.62 2.38,0.235 2.649,-0.2Zm-97.167,-51.032c0.445,-0.269 1.628,-2.63 0.997,-3.101c-1.51,-1.131 -3.029,4.321 -0.997,3.101Zm-19.541,-24.216c-0.6,0.237 -1.107,0.932 -1.617,1.611c0.586,-0.298 1.099,-0.969 1.617,-1.611Zm-15,-16.51c2.769,-2.988 -3.834,-1.467 -2.279,0.452c0.537,0.664 1.511,0.376 2.279,-0.452Zm-15.159,-20.566c2.388,-2.168 -2.516,-1.882 -1.782,0.246c0.208,0.6 1.506,0.007 1.782,-0.246Zm-19.18,-39.246c1.149,-0.226 -0.105,-3.13 -1.154,-2.571c-0.905,0.486 0.174,2.761 1.154,2.571Zm-7.728,-29.789c0.557,-0.184 1.272,-1.614 0.999,-2.024c-1.142,-1.717 -2.998,2.686 -0.999,2.024Zm-12.21,-68.717c1.337,-0.447 -0.03,-3.145 -0.989,-2.817c-0.997,0.343 -0.381,3.281 0.989,2.817Zm57.185,-133.469c-1.536,-0.915 -5.8,7.033 -2.575,4.923c1.395,-0.913 1.38,-3.616 2.575,-4.923Zm17.975,-2.16c3.197,1.466 -4.911,2.854 -3.231,0.533c0.457,-0.634 2.204,-1.003 3.231,-0.533Z" style="fill:#1fa942;"/><g transform="matrix(1,-0.000345661,0.000345661,1,0.464535,-0.292312)"><text x="140.381px" y="294.023px" style="font-family:'Futura-Bold', 'Futura', sans-serif;font-weight:700;font-size:54.167px;fill:#e2eaef;">P<tspan x="182.104px 232.82px 268.91px 307.059px 343.258px 379.457px " y="294.023px 294.023px 294.023px 294.023px 294.023px 294.023px ">ALETTE</tspan></text></g></g></svg>