<?xml version="1.0" encoding="UTF-8" standalone="no"?><!DOCTYPE svg PUBLIC "-//W3C//DTD SVG 1.1//EN" "http://www.w3.org/Graphics/SVG/1.1/DTD/svg11.dtd"><svg width="100%" height="100%" viewBox="0 0 546 546" version="1.1" xmlns="http://www.w3.org/2000/svg" xmlns:xlink="http://www.w3.org/1999/xlink" xml:space="preserve" xmlns:serif="http://www.serif.com/" style="fill-rule:evenodd;clip-rule:evenodd;stroke-linejoin:round;stroke-miterlimit:2;"><rect id="record_a_replay-completed" x="0.721" y="0.123" width="541.825" height="541.612" style="fill:none;"/><path d="M84.039,125.612c3.271,-0.941 8.258,1.25 8.858,-1.017c0.492,-1.908 -3,-0.966 -3.746,-2.391c-0.729,-1.371 2,-4.117 -0.683,-4.763c-0.896,-0.22 -2.179,2.042 -3.408,2.384c-0.013,0.008 -0.017,-0 -0.025,0.008c-1.913,2.513 -3.767,5.067 -5.575,7.654c0.154,0.084 0.304,0.171 0.495,0.171c1.28,-0.025 3.109,-1.762 4.084,-2.046Zm365.916,241.325c-2.441,-2.962 2.867,-2.291 0,0Zm2.046,29.267c0.279,1.283 -1.529,1.2 -2.046,0.679c0.03,-0.871 1.134,-0.679 2.046,-0.679Zm6.454,10.887c3.7,-2.383 0.946,4.7 -1.02,2.725c-1.155,-1.158 0.883,-2.62 1.02,-2.725Zm8.513,-57.512c1.379,0.292 0.642,4.212 -2.042,3.746c-0.141,-1.863 1.225,-3.917 2.042,-3.746Zm-34.371,60.237c-3.2,4.559 -7.829,-0.579 -3.071,-3.408c0.775,-0.463 2.042,-0.062 2.392,-0.342c0.808,-0.675 0.175,-2.966 2.046,-2.379c-0.663,1.771 -0.079,4.288 -1.367,6.129Zm-4.425,27.921c0.058,-0.071 0.992,-0.708 1.354,-0.354c1.329,1.329 -3.175,2.171 -1.354,0.354Zm-9.55,-11.241c-0.85,-7.109 5.304,-0.946 0,-0Zm-3.396,-19.746c0.2,-1.121 1.292,-0.488 2.042,-0.342c-0.188,1.129 -1.283,0.508 -2.042,0.342Zm-2.716,-0.684c-0.038,-1.483 2.129,-0.391 2.375,0c-0.046,0.563 -2.329,0.563 -2.375,0Zm-0.684,30.634c-0.825,0.254 -1.6,-1.759 0,-2.029c0.996,-0.184 0.834,1.779 0,2.029Zm-2.721,-10.204c-0.504,-1.03 0.805,-2.705 2.38,-2.717c-0.717,0.971 -0.896,2.5 -2.38,2.717Zm-4.762,18.383c2.421,-3.138 3.483,2.2 -0,-0Zm-2.738,-12.263c0.021,-0.887 0.434,-1.658 2.738,-1.695c5.687,-0.075 -2.763,5.258 -2.738,1.695Zm-1.012,31.321c-1.358,-0.658 -0.85,-3.837 -0,-4.425c2.117,-1.466 2.667,5.721 -0,4.425Zm0.333,-10.9c2.4,3.404 -2.77,3.225 0,0Zm-9.871,10.559c-1.449,1.07 -9.929,2.512 -11.229,0.341c-0.716,-1.2 0.475,-2.746 1.367,-3.062c1.65,-0.571 3.654,2.1 5.108,2.054c5.234,-0.217 1.138,-6.521 5.784,-7.163c0.945,-0.125 2.841,0.33 2.383,3.063c-0,-0.054 -3.017,4.487 -3.413,4.767Zm-12.591,-13.271c-1.188,2.354 -5.742,-1.35 -8.167,-1.025c-0.892,0.121 -5.058,4.079 -5.775,2.05c-0.808,-2.217 5.871,-3.713 6.808,-4.43c-1.041,-1.679 -1.591,-4.291 1.359,-4.424c1.029,-0.059 1.271,0.883 2.383,1.029c2.063,0.237 4.533,-0.613 4.413,2.033c-2.396,-0.079 -7.65,-0.304 -7.134,1.7c0.109,0.479 7.829,-0.279 6.113,3.067Zm-3.392,-17.017c0.55,-0.554 1.496,-0.867 1.688,0.342c0.3,1.871 -2.967,0.904 -1.688,-0.342Zm-36.779,25.867c-0.242,1.662 1.592,3.333 -0.338,4.083c-0.6,0.254 -2.795,-0.462 -3.404,-1.7c-0.066,-0.187 0.7,-1.729 0.688,-2.046c-0.108,-1.929 -3.392,-2.796 -0,-4.075c1.029,-0.387 3.508,-0.254 4.083,1.688c0.879,2.975 -0.75,0.229 -1.029,2.05Zm-5.1,34.721c-1.704,-1.167 1.183,-4.267 4.087,-3.405c0.28,1.967 -3.125,4.046 -4.087,3.405Zm-6.454,-14.638c0.5,-3.683 4.466,0.267 -0,0Zm-4.434,-15.662c1.005,-0.496 1.588,-0.713 2.046,-0c2.146,3.395 -6.179,2.058 -2.046,-0Zm-41.529,28.258c0.975,-1.121 4.75,-2.371 5.45,-0.679c0.755,1.816 -4.375,3.146 -5.45,0.679Zm0.684,5.442c-0.767,-0.784 0.645,-1.617 1.362,-1.7c1.684,-0.188 -0.217,2.816 -1.362,1.7Zm-4.755,5.108c-0.262,-0.375 0.059,-3.033 0.671,-3.404c1.409,-0.854 3.779,3.371 4.767,3.054c-0.242,1.825 -5.05,0.942 -5.438,0.35Zm-2.045,-14.304c0.195,-1.113 1.283,-0.479 2.045,-0.33c-0.008,0.93 -1.612,0.805 -2.045,0.33Zm1.012,-27.909c1.271,-0.691 2.384,-0.7 2.725,0.684c0.963,3.87 -6.587,1.416 -2.725,-0.684Zm-7.483,5.109c-0.667,-0.304 -0.321,-0.988 -0,-1.363c1.375,-1.625 1.691,2.159 -0,1.363Zm-3.75,-3.404c-0.259,0.27 -2.829,-0.25 -1.013,-1.021c-0.095,0.033 2.059,-0.025 1.013,1.021Zm-7.488,29.279c0.213,-1.484 3.067,-1.784 4.425,-1.034c-0.579,1.25 -2.621,1.009 -4.425,1.034Zm0.346,-13.613c-1.396,4.234 -4.929,-0.966 0,0Zm-7.825,3.054c-1.075,-0.625 -0.167,-1.383 0.334,-1.687c1.537,-0.958 1.395,2.696 -0.334,1.687Zm-16.008,6.8c0.191,-0.045 0.8,-0.508 1.029,0c1,2.309 -4.063,1.013 -1.029,0Zm-24.834,-4.758c-0.97,-0.508 -0.12,-2.133 0.338,-2.383c1.604,-0.884 1.375,3.296 -0.338,2.383Zm-2.391,-19.4c-0.563,-0.979 0.55,-1.229 1.358,-1.362c2.304,-0.363 -0.25,3.258 -1.358,1.362Zm-2.038,-20.425c-0.475,0.538 -2.746,-1.271 -1.02,-2.046c0.049,-0.021 2.312,0.592 1.02,2.046Zm-1.366,2.388c-0.084,-0.246 0.516,-0.913 0.687,-1.025c2.113,-1.388 -0.033,2.804 -0.687,1.025Zm-2.717,12.595c-1.058,0.313 -2.079,-1.1 -0.683,-2.05c1.145,-0.77 1.57,1.792 0.683,2.05Zm-2.05,19.055c-2.579,0.816 -1.917,-3.046 -4.758,-2.717c3.545,-3.558 0.112,-9.979 -0.688,-14.304c1.533,-0.384 2.646,-1.213 2.725,-3.054c1.979,-0.621 1.2,2.045 1.704,4.42c0.234,1.096 1.184,2.496 1.359,3.746c0.237,1.633 -0.259,3.359 -0,5.108c0.429,2.826 2.341,5.959 -0.342,6.801Zm-8.167,-22.13c1.629,-0.375 1.438,1.067 3.071,0.696c0.771,-0.808 0.525,-2.65 2.375,-2.4c1.146,2.592 -6.008,5.45 -5.446,1.704Zm-17.358,8.517c-1.108,0.158 -0.225,-0.433 -1.021,-1.362c-1,-1.18 -3.592,-2.159 -0.35,-3.067c3.988,-1.125 3.283,4.146 1.371,4.429Zm-4.088,11.579c-1.762,1.171 -3.408,-2.383 -2.033,-3.746c1.621,-1.65 3.171,2.988 2.033,3.746Zm-13.27,-6.129c5.058,-2.412 2.354,3.929 -0,0Zm-1.03,-13.967c1.505,-0.466 4.471,1.167 2.738,3.404c-1.55,2.001 -7.15,-1.995 -2.738,-3.404Zm-5.1,-22.808c1.321,0.783 3.176,-0.383 4.092,0.354c1.479,1.171 1.021,4.696 -0.692,5.096c-2.912,0.692 -1.937,-3.313 -3.4,-5.45Zm-5.108,-12.917c0.65,-1.683 2.017,-0.058 3.408,-1.362c1.03,-0.979 0.2,-1.796 1.367,-2.388c1.084,-0.554 3.767,-0.441 4.425,0c1.108,0.75 1.875,3.942 1.692,4.43c-0.254,0.729 -5.429,3.379 -6.8,3.391c-0.442,0 -5.354,-0.779 -4.092,-4.071Zm-4.762,20.08c0.733,0.279 1.208,0.829 1.025,2.033c-0.659,-0.408 -1.863,-1.167 -1.025,-2.033Zm-2.375,-7.492c-1.738,-0.054 -0.95,-2.667 -2.734,-3.063c-1.196,-0.27 -4.862,0.067 -5.441,-1.025c-0.684,-1.283 0.7,-3.191 1.025,-3.408c0.6,-0.404 3.454,-0.537 4.758,1.029c0.196,0.234 -0.15,1.959 -0,2.379c0.237,0.659 5.842,4.213 2.392,4.088Zm-8.175,12.25c2.233,-3.563 -1.575,-4.504 -3.746,-2.383c-1.021,-3.634 4.146,-6.413 5.783,-4.417c0.738,0.887 -0.742,2.658 -0.333,3.733c0.546,1.442 2.692,0.808 2.725,2.046c0.037,2.179 -2.546,2.033 -4.429,1.021Zm-10.559,-12.933c-0.779,-5.455 6.896,-0.95 6.813,2.729c-3.021,0.825 -6.525,-0.784 -6.813,-2.729Zm0.68,-40.505c-0.609,3.58 -4.451,-0.262 -0,0Zm7.495,2.042c-0.029,2.483 -4.133,3.404 -4.425,2.046c-0.262,-1.238 2.688,-1.946 4.425,-2.046Zm1.355,17.358c-0.867,1.388 -5.13,-0.67 -3.059,-2.041c1.371,-0.909 4.1,0.429 3.059,2.041Zm2.395,-6.812c-0.925,1.671 -7.625,-0.329 -2.395,-1.358c0.916,-0.171 3.349,-0.355 2.395,1.358Zm-25.537,-5.108c-2.363,-2.509 -5.263,-4.488 -7.829,-6.796c0.946,-2.854 4.745,-0.934 6.466,-0.684c0.409,0.055 1.759,-0.52 2.046,-0.341c2.988,1.929 0.575,5.312 -0.683,7.821Zm-10.563,-12.917c-1.733,-1.763 3.738,-5.304 5.125,-4.429c0.588,2.487 -3.258,6.266 -5.125,4.429Zm-2.029,-6.133c0.654,-0.263 1.979,-0.263 2.029,1.02c0.209,3.934 -6.104,0.625 -2.029,-1.02Zm6.121,-11.225c0.696,-0.459 1.262,-0.809 1.704,-0c1.371,2.437 -4.342,1.708 -1.704,-0Zm308.154,34.17c0.617,-0.05 1.171,0.238 1.6,1.213c0.3,0.704 -0.783,2.308 -0.679,3.062c0.175,1.446 2.146,1.88 2.379,2.734c0.463,1.587 -0.971,0.27 -1.025,2.379c-0.033,1.262 1.113,1.862 1.025,2.383c-0.283,1.592 -2.879,2.417 -4.087,4.771c-0.771,1.488 -2.804,5.787 -4.434,6.121c-1.112,0.225 -4.979,-1.783 -5.1,-2.046c-0.162,-0.362 0.525,-3.162 1.029,-4.412c1.596,-4.021 5.43,-8.313 5.442,-10.559c0.013,-0.796 -0.329,-1.175 -0.808,-1.371c-3.088,2.755 -6.271,5.396 -9.529,7.934c0.462,0.837 1.454,1.721 1.495,2.279c0.08,2.187 -3.491,3.942 -1.712,6.479c-2.75,-0.358 -2.908,3.317 -4.758,3.058c-2.417,-0.329 -1.675,-3.671 -1.371,-7.079c-9.638,6.896 -19.933,12.913 -30.788,17.929c-0.241,0.221 -0.55,0.355 -0.879,0.388c-10.35,4.712 -21.2,8.517 -32.425,11.321c0.008,0.283 -0.033,0.587 -0.233,0.925c-0.704,1.237 -2.546,0.879 -3.717,0.025c-13.521,3.066 -27.579,4.7 -42.017,4.7c-5.079,-0 -10.104,-0.246 -15.083,-0.634c0.542,0.75 0.667,1.825 -0.112,2.375c-0.934,0.655 -3.78,-1.4 -2.38,-2.65c-32.879,-3.029 -63.329,-14.508 -89.224,-32.208c-0.021,2.263 -2.142,3.929 -2.68,3.888c-0.77,-0.071 -0.666,-1.105 -1.358,-2.038c-1.137,-1.554 -2.771,-1.154 -2.729,-2.396c0.037,-1.075 1.616,-1.779 3.091,-1.971c-24.704,-17.766 -44.979,-41.308 -58.854,-68.629c-0.362,0.213 -0.725,0.342 -1.079,0.154c-0.616,-0.316 -0.821,-1.12 -0.741,-2.029c-18.492,3.3 -34.813,7.05 -48.346,11.159c17.958,41.408 47.316,76.733 84.054,102.1c-0.325,-1.238 0.691,-2.088 1.454,-2.317c2.433,-0.738 1.746,2.791 0.442,3.637c12.266,8.284 25.333,15.492 39.075,21.421c0.108,-0.408 0.25,-0.771 0.312,-1.229c2.325,0.35 3.621,-0.487 5.438,0c1.733,0.471 2.145,2.138 3.408,2.379c0.95,0.179 1.392,-0.991 2.729,-1.016c0.933,-0.021 1.996,1.408 2.717,1.354c1.087,-0.059 1.942,-2.067 3.4,-1.354c-0.804,3.066 1.537,3.362 2.05,6.12c0.071,0.421 0.1,0.884 0.1,1.338c3.204,1.058 6.437,2.046 9.696,2.962c0.141,-0.075 0.27,-0.12 0.408,-0.2c2.05,-1.366 4.942,-6.029 6.808,-2.737c0.675,1.2 -0.708,2.667 -0.054,4.825l0.279,0.067c2.534,-2.075 1.092,-7.013 4.542,-7.946c0.675,-0.196 3.767,0.454 4.421,0.683c0.837,0.258 4.437,1.929 4.087,4.417c0.513,1.062 1.467,-0.992 2.038,-0c-0.175,5.175 7.458,2.541 10.558,4.437c-0.55,-1.533 -1.846,-4.791 0.675,-5.125c1.275,-0.158 2.017,2.954 4.088,2.734c-0.784,3.216 0.616,4.9 1.708,5.091c1.629,0.321 2.042,-2.166 3.729,-2.358c1.433,-0.183 5.488,1.992 5.796,3.392c0.096,0.479 -0.254,0.65 -0.617,1.066c5.338,0.35 10.717,0.567 16.154,0.567c49.638,-0 95.788,-15.196 134.055,-41.213c-1.159,-0.595 -3.605,0.096 -2.888,-1.608c2.196,-0.704 3.854,-0.508 5.433,-0.192c33.638,-23.491 60.95,-55.404 78.921,-92.645c-2.812,0.654 -5.054,0.254 -5.383,-0.417c-1.192,-2.454 2.667,-1.842 4.079,-2.383c0.821,-0.321 3.167,-2.184 3.409,-2.725c0.654,-1.5 -1.08,-2.567 0.666,-3.405c0.538,-0.258 0.946,-0.187 1.3,0.013c0.384,-0.879 0.783,-1.729 1.146,-2.604c-13.788,-3.971 -30.396,-7.584 -49.242,-10.663c-10.1,21.221 -24.05,40.271 -40.904,56.279Zm29.642,-219.433c0.408,-0.058 0.808,-0.138 1.216,-0.196c0,-0.025 0.013,-0.033 0.013,-0.058c-0.05,-0.654 -1.675,-2.004 -2.867,-2.675c0.525,0.987 1.121,1.942 1.638,2.929Zm-44.046,-62.933c0,0.008 -0.008,0.046 0,0.058c0.079,0.196 0.279,0.304 0.546,0.375c-0.179,-0.15 -0.367,-0.283 -0.546,-0.433Zm-3.063,4.487c-0.087,-1.183 1.359,-2.587 1.713,-4.429c0.05,-0.379 0.033,-0.75 0.008,-1.108c-1.379,-1.096 -2.762,-2.221 -4.179,-3.288c-0.862,0.334 -1.825,0.492 -2.646,0.309c-0.433,-0.092 -0.937,-1.455 -2.041,-1.35c-1.113,0.075 -2.171,1.874 -3.463,2.408c3.763,2.617 7.413,5.337 10.95,8.217c-0.187,-0.271 -0.321,-0.534 -0.342,-0.759Zm-33.004,306.329c0.792,-4.425 5.5,0.33 0,0Zm13.946,-10.9c0.058,4.996 -4.629,1.159 0,0Zm3.067,2.738c-1.5,-4.075 3.487,-1.738 -0,-0Zm8.504,-10.217c-0.175,1.621 -2.375,2.7 -3.746,2.042c0.071,-1.738 1.979,-3.113 3.746,-2.042Zm-243.025,-30.983c0.229,-0.046 0.425,-0.008 0.629,-0.008c-9.087,-10.655 -17.029,-22.292 -23.475,-34.846c-2.033,0.329 -4.054,0.658 -6.037,1c20.037,40.054 54.171,71.821 95.8,88.987c-0.471,-0.966 -0.359,-2.104 1.154,-2.704c1.8,-0.712 3.621,2.758 2.083,4.038c20.867,8.133 43.517,12.67 67.233,12.67c8.275,0 16.38,-0.62 24.371,-1.662c-0.008,-0.163 -0.083,-0.254 -0.083,-0.413c0.562,-0.17 0.892,0.013 1.1,0.288c10.083,-1.388 19.921,-3.592 29.433,-6.521c0.313,-2.042 0.717,-4.042 1.8,-4.325c1.359,-0.342 2.092,2.133 3.779,2.442c15.442,-5.338 29.975,-12.625 43.296,-21.621c-0.1,-0.304 -0.021,-0.679 0.234,-0.904c0.491,-0.4 0.77,-0.217 0.887,0.112c1.721,-1.167 3.458,-2.304 5.113,-3.521c-0.092,-2.116 0.458,-4.008 3.537,-3.733c-0.1,-2.112 2.1,-3.429 2.383,-6.121l1.017,0c0.763,1.838 0.271,3.159 -0.233,4.579c13.417,-10.87 25.321,-23.55 35.266,-37.683c-1.179,-0.554 -2.254,-1.771 -0.991,-2.633c1.017,-0.704 2.012,-0.304 2.587,0.421c5.184,-7.596 9.875,-15.555 13.9,-23.888c-1.991,-0.317 -4.062,-0.6 -6.1,-0.908c-1.808,3.666 -3.754,7.262 -5.8,10.775c5.238,2.533 0.584,8.533 -3.904,10.196c-0.425,-1.196 -0.154,-2.646 -0.079,-3.888c-13.838,21.583 -32.092,40.033 -53.575,54.033c0.4,1.93 -0.408,4.825 -2.512,3.292c-0.384,-0.283 -0.538,-0.762 -0.563,-1.308c-27.558,17.187 -60.054,27.158 -94.863,27.158c-49.191,0 -93.758,-19.904 -126.275,-52.021c-0.075,1.013 -0.212,2.092 -0.225,3.021c-2.587,0.067 -3.662,-4.288 -2.483,-5.783c-1.866,-1.925 -3.7,-3.867 -5.479,-5.867c-0.029,0.867 -0.425,1.704 -1.213,2.129c-3.07,1.563 -6.024,-3.804 -1.712,-4.783Zm262.758,-250.85c1.042,-0.625 2.096,-0.496 2.388,0.342c0.783,2.216 -4.783,1.125 -2.388,-0.342Zm-3.587,-5.925c-1.329,0.904 -3.1,1.558 -2.196,3.554c0.496,1.079 2.308,0.863 3.762,1.35c-0.4,1.125 -1.225,1.804 -2.262,2.296c11.842,10.808 22.229,23.171 30.854,36.758c0.158,-1.425 0.863,-4.192 1.004,-4.337c2.284,-1.929 7.267,7.212 1.709,7.154c-0.271,-0 -0.705,-0.158 -1.138,-0.388c1.017,1.65 1.946,3.338 2.904,5.021c1.017,-1 1.967,-1.829 2.304,-1.908c1.588,-0.354 2.725,1.046 3.417,1.021c0.158,-0.009 0.283,-0.042 0.421,-0.067c-4.683,-8.458 -9.937,-16.546 -15.833,-24.112c0.508,1.154 0.812,2.225 0.087,2.733c-2.562,1.804 -3.342,-3.063 -2.375,-4.767c-1.721,-0.241 -1.908,1.054 -3.733,0.692c-0.729,-3.104 -0.35,-4.154 0.516,-5.333c-5.987,-7.03 -12.47,-13.6 -19.441,-19.667Zm-20.171,-15.292c-0.108,1.396 0.179,2.554 2.762,1.863c-0.92,-0.625 -1.829,-1.263 -2.762,-1.863Zm-296.521,53.55c-0.079,2.271 -3.496,2.783 -5.112,2.396c-0.463,-2.804 3.816,-2.45 5.112,-2.396Zm1.696,-17.35c0.3,-0.958 -0.913,-1.937 -0.342,-3.062c0.263,-0.521 3.179,-2.609 4.434,-3.067c3.316,-1.204 7.641,0.288 8.508,-3.746c1.783,0.263 0.758,1.75 1.692,2.375c1.133,0.783 2.475,-0.225 3.754,0.692c2.121,1.533 -0.084,9.675 4.416,8.175c1.925,-0.646 -0.125,-3.871 2.046,-4.088c0.559,-0.066 3.25,2.921 3.409,4.417c0.183,1.85 -1.996,5.871 -2.729,6.129c-1.725,0.625 -6.746,-2.583 -6.813,-5.096c-0.725,2.225 -4.883,2.363 -4.412,-1.033c-1.976,-0.771 -2.251,1.342 -4.092,1.362c-1.092,0.026 -2.088,-1.195 -3.063,-1.025c-2.366,0.446 -3.6,3.013 -3.062,5.451c0.154,0.729 1.483,1.295 1.662,1.966c-0.179,-0.058 -0.983,5.188 -0.983,5.188c-0.75,1.058 -6.638,1.508 -7.146,-1.021c-0.587,-2.975 3.829,-1.904 4.417,-5.45c0.362,-2.133 -1.133,-5.413 -3.059,-5.792c-1.649,-0.304 -3.9,2.417 -3.745,-1.704c1.591,-0.021 4.404,1.579 5.108,-0.671Zm15.65,-22.133c0.425,-0.167 4.958,2.567 5.108,4.1c0.104,0.95 -0.937,2.292 -1.362,2.379c-1.509,0.288 -0.438,-1.292 -2.383,-2.379c-0.996,-0.583 -2.167,0.496 -2.721,-0.683c-0.725,-1.567 0.383,-2.996 1.358,-3.417Zm8.858,1.716c1.425,-0.604 2.938,-0.616 3.409,-0.354c2.912,1.725 -3.259,5.871 -3.742,5.788c-2.983,-0.454 -1.287,-4.758 0.333,-5.434Zm8.85,27.221c-0.191,0 2.238,-0.395 1.363,1.717c-0.988,2.371 -6.346,-1.808 -1.363,-1.717Zm-1.358,-18.037c0.067,-0.071 1,-0.704 1.358,-0.342c1.55,1.554 -3.291,2.263 -1.358,0.342Zm1.358,-8.508c0.663,-0.2 1.838,1.716 0.68,2.387c-1.242,0.7 -2.901,-1.729 -0.68,-2.387Zm-16.004,40.166c-0.896,1.058 -3.533,0.046 -5.1,1.017c-1.075,-1.229 4.233,-4.829 4.429,-4.758c1.317,0.45 1.567,2.679 0.671,3.741Zm31.317,-83.737c1.108,0.937 2.191,1.896 3.062,3.066c-1.912,0.009 -3.85,-1.466 -3.062,-3.066Zm4.767,13.271c-1.184,0.704 -3.105,-1.313 -1.705,-2.725c1.325,-1.3 2.713,2.145 1.705,2.725Zm1.362,1.02c3.754,-2.971 4.833,3.463 2.042,4.092c-2.271,0.508 -3.767,-2.725 -2.042,-4.092Zm12.596,-20.425c4.204,-0.212 -1.259,5.725 -2.717,2.388c-0.437,-0.975 1.7,-2.329 2.717,-2.388Zm3.746,25.879c-2.992,-1.033 -3.263,0.055 -5.446,1.017c0.225,-2.304 4.983,-3.821 5.446,-1.017Zm9.87,-24.175c5.909,-0.745 -0.908,6.617 -3.066,3.751c-1.492,-1.98 2.029,-3.617 3.066,-3.751Zm1.021,-9.862c-0.162,1.2 -0.858,1.858 -1.362,2.721c-1.717,-0.646 -0.025,-4.121 1.362,-2.721Zm5.78,-7.154c-0.842,1.929 -5.342,2.416 -6.121,-0c2.225,0.329 4.804,-0.508 6.121,-0Zm2.387,21.787c-1.125,2.613 -3.8,3.688 -4.433,6.813c-1.796,-0.979 -4.271,-1.879 -4.075,-3.75c0.241,-2.304 5.641,-3.729 8.508,-3.063Zm-0.688,-21.445c0.171,-0.446 1.909,-2.013 2.725,-2.046c0.525,-0.025 4.784,2.433 3.405,4.087c-3.817,-3.179 -2.555,3.579 -5.096,2.725c-0.396,-0.133 -1.238,-4.175 -1.034,-4.766Zm5.113,-11.23c0.408,-1.229 1.538,0.509 1.017,1.021c-0.571,0.579 -1.292,-0.196 -1.017,-1.021Zm3.063,27.225c0.658,-1.316 2.183,-3.396 3.408,-3.733c4.125,-1.171 2.429,2.483 0.666,4.412c-0.737,0.83 -2.912,2.43 -3.054,2.73c-0.862,1.787 0.592,3.308 -0.679,4.083c-0.725,0.442 -5.354,-0.429 -4.425,-3.404c0.308,-1 2.567,-0.871 3.063,-1.367c0.637,-0.608 0.758,-2.187 1.021,-2.721Zm3.408,-14.966c4.141,-1.984 1.271,5.341 -1.021,2.037c-0.4,-0.558 0.45,-1.771 1.021,-2.037Zm4.425,29.612c-4.142,0.192 -5.921,4.496 -10.559,3.067c0.196,-2.104 3.18,-1.908 5.113,-2.725c1.633,-0.704 4.337,-3.546 5.446,-0.342Zm-1.359,-9.875c1.38,-3.037 3.121,1.654 0,0Zm2.375,4.084c1.242,3.041 -2.491,2.158 0,-0Zm6.125,-17.021c1.442,-5.859 5.067,0.071 0,-0Zm1.705,-16.338c3.35,-2.321 3.212,4.313 -0,2.729c-1.188,-0.591 -0.988,-2.045 -0,-2.729Zm4.429,10.55c1.092,-1.087 1.121,1.329 0.333,1.367c-0.633,0.033 -0.925,-0.767 -0.333,-1.367Zm2.721,23.146c0.687,-0.692 1.633,-0.692 2.037,-0c1.042,1.767 -3.533,1.492 -2.037,-0Zm22.466,-26.883c0.05,-0.059 0.713,-0.659 1.013,-0.35c1.283,1.283 -2.771,2.104 -1.013,0.35Zm3.059,-24.167c1.591,0.338 3.179,0.667 3.062,2.725c-0.95,0.238 -3.592,-0.387 -3.062,-2.725Zm81.008,21.092c3.521,-1.455 3.167,3.041 1.017,3.416c-1.896,0.309 -3.413,-2.416 -1.017,-3.416Zm7.146,-6.117c-0.05,0.962 -0.596,1.45 -1.696,1.363c0.442,-0.588 0.696,-1.342 1.696,-1.363Zm2.716,-3.404c0.209,1.667 -0.433,2.504 -1.687,2.721c-0.046,-1.509 0.404,-2.542 1.687,-2.721Zm4.771,20.421c4.013,-0.509 0.975,4.666 -1.354,3.746c-2.15,-0.851 -0.387,-3.517 1.354,-3.746Zm4.425,-8.842c0.109,0.883 -0.471,1.113 -1.358,1.017c-0.096,-0.896 0.479,-1.117 1.358,-1.017Zm14.984,11.904c1.116,-0.154 3.566,-0.871 4.425,-1.362c0.604,-0.346 1.129,-1.746 2.045,-2.371c0.538,-0.388 2.388,-0.363 2.73,-1.034c0.791,-1.658 -2.088,-3.7 -0,-5.108c0.858,-0.587 2.57,0.446 3.729,0.342c1.766,-0.15 1.987,-1.475 3.741,-1.013c-2,3.863 3.192,4.121 3.417,0.33c0.033,-0.671 -1.179,-2.621 -1.025,-3.063c0.767,-2.1 5.783,-2.717 6.8,-1.692c0.996,0.996 -0.817,2.225 -0.675,4.425c0.125,2.146 2.225,1.025 1.017,3.063c-0.817,1.387 -2.35,0.696 -3.063,-1.017c-1.537,2.529 -5.758,2.404 -5.796,6.463c-1.362,-5.021 -2.92,-2.413 -5.433,-0.342c-0.362,0.292 -0.741,-0.433 -1.033,-0.342c-0.675,0.217 -1.192,1.963 -1.354,2.042c-1.1,0.512 -2.629,-0.046 -3.392,0.329c-1.5,0.763 -1.521,2.408 -2.725,2.738c-1.429,0.37 -1.533,-0.921 -2.388,-1.021c-2.075,-0.263 -4.899,1.85 -6.133,0.667c-2.841,-2.738 3.704,-1.85 5.113,-2.034Zm1.02,-20.421c0.167,-0.058 1.221,-0.104 1.367,0.679c0.458,2.567 -4.571,0.392 -1.367,-0.679Zm27.913,35.738c2.908,-1.554 2.146,4.1 -0.354,3.062c-1.458,-0.608 -0.459,-2.629 0.354,-3.062Zm1.704,-21.1c-0.117,-1.842 1.017,-5.817 2.375,-5.783c1.688,0.02 4.275,4.475 3.067,7.483c1.321,0.987 4.054,-2.929 5.441,-1.021c0.771,1.067 -1.429,3.521 -2.037,3.742c-1.279,0.479 -3.033,-0.675 -4.433,-0.338c-2.55,0.638 -2.396,4.109 -4.413,2.725c1.967,-1.812 0.121,-4.679 0,-6.808Zm11.571,17.358c0.621,-1.296 2.104,0.984 1.017,1.359c-0.721,0.245 -1.396,-0.58 -1.017,-1.359Zm-3.754,-4.429c-0.646,-1.204 0.85,-1.908 1.371,-2.046c2.479,-0.633 -0.213,4.167 -1.371,2.046Zm-18.038,2.379c2.259,-2.237 4.046,3.584 1.367,3.409c-1.529,-0.105 -1.942,-2.842 -1.367,-3.409Zm0.692,9.883c-1.058,-0.737 0.421,-3.749 1.358,-4.091c4.1,-1.508 0.959,5.7 -1.358,4.091Zm-13.279,-16.008c0.292,-0.946 1.371,-1.125 2.375,-1.366c0.075,1.304 -1.392,2.179 -2.375,1.366Zm36.758,27.575c3.267,0.571 -0.675,4.496 0,0Zm3.738,-26.2c0.308,1.925 -2.305,4.808 -3.392,3.05c-0.908,-1.441 1.754,-3.758 3.392,-3.05Zm3.745,-11.925c0.038,1.967 -3.612,3.713 -2.387,7.15c-3.704,-0.233 -0.117,-2.971 -0.342,-4.425c-0.241,-1.646 -2.846,-2.067 -2.721,-3.396c0.271,-2.475 5.392,-2.712 5.45,0.671Zm-1.695,12.6c-1.134,0.175 -2.425,-3.162 -1.034,-4.083c1.534,-1.013 3.1,3.767 1.034,4.083Zm9.533,17.009c1.754,-1.784 6.471,-2.713 6.808,-0.667c0.4,2.504 -5.67,4.321 -8.521,4.754c0.475,-0.5 0.542,-2.908 1.713,-4.087Zm5.104,-8.163c3.708,0.133 -0.846,7.412 -2.725,4.083c-1.142,-2.004 1.367,-4.141 2.725,-4.083Zm8.5,25.875c-1.25,3.171 -4.967,3.862 -8.842,4.421c1.288,-4.021 4.4,-7.179 8.842,-4.421Zm-1.683,-33.708c1.246,2.125 0.629,7.575 -1.709,6.471c-1.495,-0.717 -0.695,-6.096 1.709,-6.471Zm2.712,3.062c2.017,-1.371 2.984,2.75 0.679,2.729c-1.216,-0.012 -1.799,-1.954 -0.679,-2.729Zm2.709,49.354c-2.134,-0.191 -5.796,2.684 -6.8,0.692c-1.313,-2.65 2.654,-1.317 3.737,-1.371c1.188,-0.058 3.35,-2.308 3.063,0.679Zm5.796,-45.604c1.162,4.463 -3.375,5.221 -5.796,5.792c1.854,-1.821 2.483,-6.563 5.796,-5.792Zm-1.017,8.175c-2.117,5.483 -7.621,-2.246 -0,0Zm-17.017,38.121l0,-1.371c1.6,0 3.367,-0.183 3.396,1.371c-1.796,0.058 -1.729,0.217 -3.396,0Zm20.421,-40.504c0.587,-0.421 1.812,-0.571 2.05,-0.342c2.713,2.717 -5.817,2.983 -2.05,0.342Zm7.829,70.796c1.863,1.646 3.371,2.604 6.125,1.025c-0.817,2.441 -7.708,2.983 -6.125,-1.025Zm10.888,-57.188c-0.863,1.179 -1.146,2.933 -2.713,3.409c-0.617,-1.43 1.038,-3.175 2.713,-3.409Zm-0.342,58.884c-1.504,0.554 -1.692,-3.067 0.342,-3.055c1.045,0 0.912,2.596 -0.342,3.055Zm5.446,-28.93c0.187,-0.9 0.279,-4.625 2.725,-3.408c0.758,0.388 1.121,6.725 0.679,7.492c-0.233,0.45 -1.113,-0.1 -1.362,-0c-1.092,0.454 -2.359,2.746 -4.08,2.383c-0.991,-2.587 1.825,-5.333 2.038,-6.467Zm5.45,29.28c0.837,0.862 0.804,4.304 0.354,4.758c0.1,-0.121 -6.167,0.271 -7.163,-0.683c-1.658,-1.592 -0.029,-3.751 1.359,-4.425c1.4,-0.671 4.691,-0.446 5.45,0.35Zm3.062,-9.2c0.071,0.72 -2.058,1.837 -2.046,0.341c0.805,0.013 1.005,-0.591 2.046,-0.341Zm-0.679,-25.192c0.825,-0.35 3.063,0.887 2.379,2.396c-1.112,2.475 -5.021,-1.225 -2.379,-2.396Zm3.063,5.792c-0.188,0.066 1.845,0.212 0.683,1.362c-0.429,0.429 -2.4,-0.725 -0.683,-1.362Zm2.72,10.545c-1.008,1.509 -5.008,-1.2 -2.72,-2.708c1.2,-0.8 3.641,1.358 2.72,2.708Zm1.371,8.855c-0.846,1.85 -4.85,0.32 -5.116,-0.338c-0.525,-1.337 1.266,-3.125 2.045,-3.404c1.525,-0.533 4.217,1.212 3.071,3.742Zm8.504,1.037c-0.67,2.971 0.709,6.458 -0.683,9.171c-1.192,2.329 -2.925,1.5 -5.437,2.054c-2.713,0.583 -8.95,2.942 -6.475,-3.062c8.425,3.691 7.829,-6.101 12.595,-8.163Zm-75.575,-36.775c-1.566,-1.058 0.555,-3.267 1.709,-3.408c2.921,-0.317 0.375,4.804 -1.709,3.408Zm-337.645,57.183c0.433,-0.37 1.179,-0.37 1.366,0c0.242,0.513 0.029,0.834 -0.316,1.017c0.937,0.233 1.9,0.463 2.85,0.688c1.312,-2.009 1.404,-5.142 4.271,-5.788c2.191,-0.488 3.691,0.192 5.791,-1.362c1.992,4.233 -6.587,3.804 -6.812,7.491c-0.013,0.204 0.012,0.329 0.033,0.454c9.979,2.342 21.004,4.484 32.917,6.438c0.258,-0.533 0.533,-1.058 0.787,-1.592c-0.333,0.063 -0.654,0.117 -1.062,0.15c0.079,-3.529 1.679,-4.121 2.787,-3.612c5.183,-10.092 11.217,-19.65 18.042,-28.596c-0.05,-0.263 0.004,-0.534 0.275,-0.817c0.112,-0.116 0.304,-0.137 0.492,-0.162c13.816,-17.859 30.741,-33.171 49.941,-45.184c-0.704,-0.091 -1.079,-0.454 -0.742,-1.283c0.438,-1.033 2.846,-0.242 3.371,-0.338c0.263,-0.149 0.509,-0.316 0.763,-0.466c0.441,-0.533 0.487,-1.263 1.658,-1.238c0.179,0 0.288,0.021 0.434,0.046c27.904,-16.158 60.254,-25.433 94.749,-25.433c39.363,-0 75.913,12.137 106.242,32.742c0.113,-0.975 0.342,-1.875 1.446,-2.246c0.675,-0.25 1.787,1.087 1.354,1.021c1.704,0.27 3.821,-2.942 4.771,-1.021c1.046,2.145 -2.254,3.187 -4.646,4.245c2.446,1.738 4.854,3.542 7.238,5.392c0.391,-0.296 0.8,-0.617 1.154,-1.137c0.771,-1.13 0.375,-2.167 1.004,-2.721c0.821,-0.696 2.729,-0.15 3.421,-1.013c0.596,-0.771 -0,-2.608 0.325,-4.087c0.958,-4.246 4.912,-7.992 7.496,-5.788c1.195,1.021 0.508,6.963 -1.359,7.155c-1.512,0.041 0.575,-3.634 -1.029,-4.092c-2.237,-0.646 -0.737,3.487 -1.017,4.092c-0.291,0.599 -3.258,1.766 -4.091,3.391c-0.217,0.442 0.246,1.079 -0,2.054c-0.317,1.296 -1.892,2.909 -3.325,4.18c8.908,7.195 17.15,15.17 24.625,23.82c1.266,-1.875 2.808,0.659 2.862,3.417c1.525,1.863 3.059,3.725 4.513,5.642c0.254,-0.171 0.487,-0.288 0.608,-0.296c2.092,-0.375 1.842,1.125 0.896,2.362c0.658,0.9 1.312,1.784 1.958,2.675c0.534,-1.02 1.234,-1.975 1.567,-3.004c1.658,1.917 1.788,4.292 0.454,5.788c3.333,4.85 6.396,9.866 9.275,15.008c0.458,-0.621 0.996,-1.25 1.838,-1.733c-2.659,3.608 4.704,2.779 5.45,6.471c0.058,0.27 -0.467,1.975 -0.68,3.608c1.475,-0.271 2.95,-0.533 4.384,-0.804c0.308,-0.73 0.575,-1.4 0.716,-1.784c0.642,-1.725 0.134,-2.554 0.342,-2.72c0.85,-0.663 3.575,0.133 4.088,1.7c0.204,0.645 -0.071,1.191 -0.334,1.87c14.234,-2.791 27.025,-5.891 37.954,-9.204c-6.095,-14.071 -13.549,-27.416 -22.125,-39.941c-2.3,1.654 -7.791,-2.951 -4.595,-5.484c0.166,-0.154 0.375,-0.183 0.566,-0.262c-0.896,-1.213 -1.812,-2.417 -2.721,-3.625c-0.7,0.729 -1.395,1.579 -2.62,1.837c-1.138,0.233 -4.73,0.717 -5.105,0.342c-1.82,-1.838 1.755,-3.417 4.088,-4.079c0.575,-0.163 1.125,-0.438 1.65,-0.729c-3.392,-4.351 -6.925,-8.571 -10.6,-12.684c-1.708,0.192 -3.521,0.167 -3.638,-2.25c-0.024,-0.425 0.163,-0.825 0.417,-1.212c-9.012,-9.671 -18.804,-18.613 -29.312,-26.688c-0.663,0.425 -1.405,0.713 -1.742,0.675c-1.508,-0.154 -0.879,-1.542 -2.725,-2.733c-0.854,-0.534 -1.8,0.079 -2.038,-0.683c-0.304,-0.95 0.084,-1.28 0.646,-1.655c-2.246,-1.625 -4.529,-3.225 -6.845,-4.779c-1.088,0.1 -2.396,-0.558 -2.646,-1.696c-0.559,-0.37 -1.134,-0.733 -1.692,-1.087c-0.25,0.225 -0.571,0.375 -1.046,0.375c-0.079,-0.283 -0.1,-0.692 -0.087,-1.125c-22.392,-14.146 -47.279,-24.692 -73.834,-30.792c1.146,0.35 0.563,4.113 -0.958,3.671c-1.4,-0.408 -0.633,-2.929 0,-3.404c0.279,-0.208 0.508,-0.288 0.704,-0.317c-17.129,-3.912 -34.946,-5.987 -53.242,-5.987c-51.25,-0 -98.741,16.233 -137.712,43.787c0.183,0.059 0.325,0.125 0.325,0.296c0,0.704 -0.983,0.8 -1.554,0.579c-0.621,0.442 -1.246,0.867 -1.858,1.317c0.362,1.65 -1.909,4.679 -3.776,2.85c-14.108,10.741 -26.987,23.012 -38.391,36.567c1.079,0.229 2.054,0.362 3.021,0.208c1.5,-0.229 2.75,-1.363 4.087,-1.363c2.333,0.021 4.259,2.271 6.821,1.705c2.213,-0.492 1.021,-1.967 3.054,-3.055c1.85,-1 5.846,-0.75 5.1,1.35c-0.617,1.771 -5.1,1.259 -7.821,4.084c-0.621,0.65 -1.921,3.533 -2.387,3.75c-3.55,1.679 -8.759,-2.638 -9.867,2.041c-0.317,1.342 1.75,3.921 1.367,6.13c-0.354,1.999 -2.996,2.466 -2.063,6.125c-5.296,-0.163 -8.35,0.487 -11.9,-1.367c-0.958,-0.496 -1.583,-1.883 -2.379,-2.042c-0.166,-0.025 -0.337,-0.012 -0.496,-0.012c-9.579,13.783 -17.758,28.579 -24.308,44.229c2.796,0.812 5.725,1.592 8.742,2.379c0.025,-0.183 0.108,-0.379 0.4,-0.642Zm130.704,312.805c-0.463,-0.075 -2.392,-1.38 -3.063,-1.017c-0.55,0.292 -0.896,1.05 -1.108,1.958c1.742,0.671 3.492,1.321 5.258,1.942c1.425,-0.658 3.113,-1.225 3.004,-2.213c-0.179,-1.662 -2.312,-0.4 -4.091,-0.67Zm-74.383,-324.438c-4.484,6.8 -8.546,13.875 -12.121,21.254c1.983,0.317 4.058,0.592 6.091,0.896c3.588,-7.233 7.663,-14.171 12.159,-20.821c-0.159,0.146 -0.296,0.304 -0.5,0.429c-2.188,1.396 -4.863,-0.375 -5.629,-1.758Zm103.32,332.604c4.025,-0.521 0.196,-4.35 0,0Zm151.8,-382.571c-0.387,-0.625 -1.858,-1.895 -3.391,-1.712c-0.421,0.058 -0.904,0.429 -1.4,0.796c1.691,1.062 3.295,2.237 4.958,3.333c-0.242,-1.146 -0.25,-2.562 -0.167,-2.417Zm-1.554,-5.733c-28.512,-17.867 -62.196,-28.233 -98.292,-28.233c-25.725,-0 -50.195,5.345 -72.504,14.845c-0.029,0.788 -0.191,1.525 -0.558,1.751c-0.992,0.65 -2.183,0.387 -3.117,-0.213c-1.658,0.746 -3.279,1.575 -4.916,2.371c0.933,1.304 0.683,4.358 -0.813,4.316c-1.658,-0.037 -4.1,-0.287 -6.167,-0.795c-26.691,14.429 -49.474,35.17 -66.312,60.25c0.671,-0.046 1.508,-0.034 2.021,-0.225c1.583,-0.63 -0.167,-1.492 1.7,-1.705c1.754,-0.216 2.929,1.738 2.346,3.463c32.47,-47.192 86.825,-78.237 148.32,-78.237c28.63,-0 55.638,6.812 79.676,18.745c0.154,-0.033 0.274,-0.1 0.445,-0.137c0.013,0.137 0,0.25 0,0.362c4.059,2.034 8.038,4.192 11.921,6.521c-0.012,-0.021 -0.021,-0.046 -0.021,-0.071c2.005,1.046 4.309,-1.429 6.271,-3.008Zm142.325,206.754c0.146,-0.341 0.863,-1.183 1.533,-0.633c2.121,1.733 -2.533,3.05 -1.533,0.633Zm-1.275,7.734c-0.166,-0.084 0.183,-1.35 0.288,-1.48c1.441,-1.579 1.341,2.134 -0.288,1.48Zm-5.192,8.004c-0.279,0.283 -1.812,0.246 -2.091,0.404c-2.359,1.421 -2.629,5.317 -3.759,6.062c-0.437,0.3 -4.679,1.6 -5.295,1.305c-2.642,-1.225 -1.742,-8.463 -6.913,-4.755c-5.929,-7.8 8.25,-13.079 10.225,-5.608c2.833,-6.762 -5.162,-5.35 -6.883,-7.925c-1.188,-1.763 -1.4,-4.617 0.766,-5.7c3.338,-1.646 5.451,4.092 8.68,3.583c2.608,-0.412 2.196,-4.066 3.929,-5.683c1.425,-1.337 5.671,-2.35 6.787,-4.192c1.859,4.679 -5.871,5.409 -2.221,10.821c-5.52,1.942 -3.075,5.204 1.205,3.988c-1.609,1.296 -2.25,5.333 -4.43,7.7Zm-20.841,-24.125c2.579,-3.159 0.071,-5.871 -1.909,-9.996c0.546,-0.729 1.605,-1.238 2.363,-1.884c-1.846,-1.52 -0.629,-5.049 2,-4.883c1.875,0.129 1.008,3.125 2.238,5.371c1.379,2.508 5.07,5.746 5.55,5.779c1.199,0.071 2.995,-3.546 6.345,-3.087c2.321,0.295 6.379,3.404 6.446,3.587c0.738,1.917 -0.683,3.167 -2.329,4.134c-1.542,-3.43 -3.683,-5.567 -5.988,-4.705c-3.133,1.163 -1.112,5.705 -3.683,7.371c-0.95,0.634 -4.029,0.763 -4.687,0.604c-2.029,-0.466 -2.859,-4.008 -6.346,-2.291Zm-2.675,-15.063c0.208,-0.55 1.641,-0.141 1.246,0.825c-0.409,0.988 -1.834,0.575 -1.246,-0.825Zm-0.521,-24.371c0.217,-0.329 0.467,-0.558 0.796,-0.691c0.879,-0.375 1.754,0.183 2.341,0.571c0.096,0.054 0.184,0.12 0.271,0.154l0.921,0.446l-0.525,0.87c-0.208,0.33 -0.483,0.559 -0.775,0.684c-0.754,0.316 -1.425,-0.125 -1.858,-0.421c-0.142,-0.092 -0.321,-0.204 -0.396,-0.225l-1.767,0.112l0.992,-1.5Zm-2.458,43.13c-1.309,0.012 -1.388,-1.646 -0.946,-2.305c1.454,-2.108 3.837,2.288 0.946,2.305Zm-1.671,-53.988l-0.225,-0.292c-0.309,-0.429 -0.404,-0.958 -0.254,-1.466c0.196,-0.754 0.962,-1.338 1.75,-1.346l1.121,-0.013l-0.234,1.35c-0.096,0.613 -0.216,1.442 -1,1.763c-0.233,0.1 -0.512,0.125 -0.783,0.075l-0.375,-0.071Zm5.475,-1.212c-1.871,-2.167 3.417,-3.346 3.85,-3.005c1.037,0.884 -3.625,3.292 -3.85,3.005Zm-8.279,-20.059l-0.717,0.679l-0.617,-0.758c-2.296,-2.725 -4.766,-4.496 -7.579,-5.408l-0.933,-0.292l0.037,-0.125l-0.404,0.071c-0.517,0.079 -1.033,0.146 -1.566,0.221c-1.255,0.175 -2.446,0.329 -3.538,0.646l-1.275,0.4l0.083,-1.063c-1.987,-0.058 -4.025,0.008 -6.166,0.075l-2.963,0.092l-0.275,-0.384c-0.996,-1.341 -1.792,-1.591 -3.367,-2.075l-0.212,-0.062c0.067,0.237 0.092,0.517 0.067,0.85l-0.042,0.492l-0.429,0.237c-0.134,0.092 -0.263,0.217 -0.421,0.329c-0.333,0.309 -0.771,0.613 -1.213,0.638c-0.054,0.42 -0.066,0.837 -0.091,1.308c-0.017,0.621 -0.042,1.312 -0.15,2.167l-0.129,1.075l-1.03,-0.317c-0.395,-0.121 -0.724,-0.317 -0.987,-0.462c-0.396,-0.25 -0.571,-0.375 -1.004,-0.263l-0.754,-1.637c0.191,-0.138 0.429,-0.975 0.237,-1.717c-0.092,-0.329 -0.196,-0.425 -0.237,-0.438l-0.146,-1.783c0.6,-0.196 1.4,-0.571 2.191,-0.95c0.813,-0.387 1.634,-0.779 2.276,-0.992l0.491,-0.179l0.4,0.325c0.058,0.067 0.146,0.129 0.238,0.196c0.016,-0.862 0.495,-1.192 0.8,-1.317l0.291,-0.125l0.33,0.075c1.133,0.33 2.537,0.425 4.045,0.538c2.988,0.204 6.329,0.462 8.967,2.442c0.642,-0.646 1.808,-0.963 2.921,-1.184c0.575,-0.121 1.092,-0.229 1.521,-0.396c0.475,-0.208 0.608,-0.416 0.65,-0.62l0.237,-1.071l0.996,0.429c0.525,0.229 0.733,0.592 0.846,0.862c0.183,0.559 0.016,1.125 -0.25,1.675c1.796,-2.129 6.146,-2.204 8.991,-1.208l0,-0.533c0,-0.275 0,-0.546 0.03,-0.796l0.162,-2.529l1.483,2.054c0.838,1.15 2.459,1.212 4.313,1.308c1.879,0.075 3.996,0.171 5.762,1.459c0.234,-0.121 0.484,-0.225 0.713,-0.33c0.596,-0.245 2.142,-0.791 3.296,-0.358l0.683,0.25l-0.087,0.713c-0.088,0.891 -0.617,1.566 -1.459,1.92c-1.004,0.421 -2.291,0.292 -3.195,-0.066c-0.088,0.3 -0.171,0.629 -0.28,0.958c-0.183,0.729 -0.371,1.483 -0.679,2.15l-0.242,0.546l-0.6,-0c-2.545,-0.021 -5.787,0.1 -8.137,1.079c-0.763,0.317 -1.396,0.717 -1.883,1.179Zm-1.292,43.075c-1.483,-0.979 -0.033,-2.462 0.962,-3.1c3.546,-2.296 2.225,5.175 -0.962,3.1Zm-10.221,-21.875c-0.2,0.071 -0.433,0.134 -0.654,0.142l-0.854,0.05l-0.154,-1.125c-0.092,-0.717 -0.213,-1.592 0.154,-2.567l0.221,-0.633l0.691,0.054c0.971,0.033 1.709,0.704 1.875,1.65c0.175,1.029 -0.366,2.038 -1.279,2.429Zm-1.591,31.275c-0.409,-0.317 -0.259,-1.271 0.129,-1.854c1.791,-2.642 2.512,3.817 -0.129,1.854Zm-0.151,37.35c-0.933,0.504 -1.266,-0.591 -1.041,-1.362c0.558,-1.746 1.779,0.991 1.041,1.362Zm-2.77,-27.146c0.3,-0.737 1.225,-1.429 1.741,-1.179c3.017,1.475 -2.879,3.917 -1.741,1.179Zm-1.95,-64.925c-0.917,1.521 -1.692,0.205 -2.209,-0.329c-2.421,-2.462 3.784,-2.237 2.209,0.329Zm-9.225,81.28c-1.055,-2.638 2.258,-3.726 3.004,-5.75c0.516,-1.442 -1.884,-5.059 2.004,-4.892c1.554,4.692 1.196,10.196 -5.008,10.642Zm-0.825,-75.684c-0.009,0.029 0.366,0.225 0.558,0.35c1.542,-0.996 5.125,-4.029 5.892,-1.646c0.566,1.713 -6.621,5.905 -5.792,1.713c0,-0.013 -0.046,-0.033 -0.1,-0.067c-0.654,0.409 -0.958,0.479 -0.558,-0.35Zm-9.642,4.721c-0.238,-1.075 2.396,-1.921 2.787,0c0.384,1.942 -2.237,2.779 -2.787,0Zm-7.688,-9.579c-0.708,-0.3 -1.25,-0.7 -1.629,-1.204c-0.046,0.175 -0.116,0.304 -0.225,0.454l-0.2,0.283l-0.333,0.079c-1.442,0.375 -1.95,-0.85 -2.154,-1.295c-0.046,-0.125 -0.113,-0.292 -0.163,-0.338l-0.416,-0.408l0.204,-0.546c0.058,-0.217 0.179,-0.4 0.262,-0.534c-0.654,-0.17 -1.058,-0.624 -1.291,-0.92c-0.113,-0.113 -0.209,-0.242 -0.275,-0.292l-0.438,-0.292l0.025,-0.508c0.083,-1.271 1.8,-1.812 2.85,-0.904c0.625,0.533 0.871,1.387 0.658,2.237l-0.02,0.084c0.32,0.083 0.662,0.279 0.925,0.583l0.1,-0.717l0.808,0.013c0.596,-0 1.221,0.058 1.875,0.079c1.796,0.113 3.658,0.229 5.271,-0.217l1.008,-0.296l0.15,1.046c0.029,0.13 0.029,0.238 0.029,0.35c0.404,0.063 0.875,0.196 1.217,0.605l0.437,0.52l-0.383,0.584c-0.312,0.454 -0.867,0.854 -1.621,1.166c-1.779,0.738 -4.979,1.092 -6.671,0.388Zm-1.299,62.179c-0.238,0.021 -1.526,-4.487 -1.496,-4.733c-0.084,0.941 2.771,-5.367 3.416,-5.146c4.379,1.433 -1.416,9.775 -1.92,9.879Zm1.741,29.783c-6.225,0.984 -2.129,-8.966 0,0Zm-3.475,-11.583c0.013,-0.212 1.358,-1.612 2.142,-1.354c2.304,0.787 -2.509,4.85 -2.142,1.354Zm-2.55,-25.717c1.104,-0.725 -5.075,-1.487 -3.871,-5.366c2.292,-7.484 9.042,2.008 3.871,5.366Zm-5.592,-0.008c-0.22,1.258 -3.133,8.229 -6.012,3.463c-1.288,-2.171 2.083,-2.759 2.358,-7.746c0.159,-2.963 -1.191,-4.438 -0.646,-6.004c1.305,-3.884 0.221,-0.784 0.851,1.5c0.416,1.487 2.866,0.87 2.8,2.779c-0.146,4.612 -4.534,5.7 -3.005,7.3c2.379,2.512 3.955,-3.017 3.654,-1.292Zm-8.162,-21.233c-1.358,-0.213 -1.188,-2.417 -1.025,-3.95c-0.658,-0.171 -0.917,-0.646 -0.05,-1.421c0.283,-0.271 0.187,0.442 0.05,1.421c1.046,0.258 3.062,-0.204 3.804,-1.638c0.867,-1.654 -0.837,-2.258 -0.946,-3.546c-0.096,-0.07 -0.083,-0.266 0.084,-0.741c-0.096,0.279 -0.117,0.508 -0.084,0.741c0.442,0.28 3.942,-4.408 4.367,-1.604c0.054,0.217 -5.413,10.863 -6.2,10.738Zm-6.925,1.521l0.758,-1.205l-1.12,-0.266l1.412,-1.071c-2.562,0.292 -5.008,-1.054 -2.504,-4.567c-0.021,0.038 -0.609,-0.416 -0.654,-0.437c-0.792,0.108 6.454,-0.459 6.866,0.887c0.571,1.767 -0.533,3.038 -2.021,3.684c0.38,0.025 0.817,0.07 1.192,0.3c0.429,0.258 0.971,0.766 1.067,1.758l0.137,1.046l-5.133,-0.129Zm-5.538,8.791c0.263,-0.104 -2.908,-2.104 -3.204,-2.146c-1.871,-0.262 -4.575,0.43 -2.791,-2.795c0.054,-0.125 3.283,1.216 3.333,2.17c1.717,-2.571 5.108,-12.083 5.029,-4.962c0,0.475 -0.137,6.787 -2.367,7.733Zm-11.487,-10.037c-0.196,-0.5 -0.021,-1.146 0.692,-1.442c0.666,-0.275 1.7,-0.196 2.983,0.225l2.562,0.871l-2.562,0.867c-1.846,0.633 -3.333,0.42 -3.675,-0.521Zm12.979,-32.675c5.825,-5.68 0.85,14.066 -1.721,5.371c-0.025,-0.13 1.921,-0.059 2.138,-0.434c0.375,-0.612 -1.646,-3.721 -0.417,-4.937Zm-17.471,-2.088l-0.704,-0.229l-0.037,0.196l-1.013,-0.379c-0.317,-0.113 -0.733,-0.167 -1.154,-0.225c-0.154,-0.034 -0.317,-0.067 -0.471,-0.092c0.208,1.263 0.842,3.442 0.179,4.033c-0.908,0.792 -2.721,0.042 -2.95,-0.162c-0.4,-0.371 -0.937,-2.254 -0.275,-3.629c-0.916,-0.204 -2.1,-0.092 -3.271,0.029c-2.537,0.275 -6.037,0.65 -6.887,-3.346l-0.229,-1.087l-0.242,0.541c-0.283,0.625 -0.696,0.913 -1.008,1.034c-0.517,0.216 -1.134,0.145 -1.721,-0.205c-0.967,-0.57 -1.808,-1.85 -1.929,-2.908l-0.104,-1.042l1.041,0.034c1.346,0.033 2.142,0.779 2.792,1.404c0.221,0.183 0.412,0.375 0.646,0.546l0.479,0.35l-0.054,-0.246l1.533,0.508c0.992,0.342 2.196,0.254 3.45,0.175c1.842,-0.125 4.025,-0.275 5.534,1.213l-0.063,-0.192l0.833,-0.275c0.746,-0.237 1.905,-0.5 2.95,-0.346c0.488,-0.708 0.934,-0.971 1.179,0.209c0.025,0.083 0,0.129 0,0.191c0.109,0.063 0.234,0.096 0.305,0.163c0.437,0.387 0.862,1.087 0.7,2.35c1.041,-1.529 3.221,-1.713 4.962,-1.659c0.517,0.009 0.992,0.034 1.442,0c0.783,-0.066 1.458,-0.02 2.075,0.059c0.087,-0.1 0.133,-0.217 0.296,-0.271c0.762,-0.192 1.258,0.1 1.545,0.633c0.055,0.013 0.117,0.025 0.18,0.038c0.054,0.008 0.095,0.021 0.15,0.029c-0.096,-0.233 -0.142,-0.529 -0.121,-0.892l0.046,-0.716l0.691,-0.134c1.392,-0.246 2.129,0.521 2.617,1.017c0.217,0.217 0.392,0.408 0.554,0.479c0.388,0.033 0.992,-0.125 1.65,-0.308c0.317,-0.079 0.654,-0.171 1.029,-0.238c-1.729,-0.912 -3.2,-3.066 -3.241,-3.791c-0.213,-4.588 8.941,1.783 5.787,3.87c-0.046,0.021 -0.104,0.021 -0.154,0.055c0.175,0.045 0.346,0.116 0.496,0.17c0.304,0.13 0.833,0.317 1.025,0.3c-0.021,-0.025 0.054,-0.17 0.096,-0.525l0.4,-2.762l1.312,2.441c0.129,0.217 0.329,0.413 0.538,0.613c0.62,0.588 1.458,1.425 1.225,3.417l-0.125,0.971l-0.942,-0.184c-2.846,-0.512 -6.125,-0.387 -9.583,-0.262c-2.038,0.079 -4.084,0.133 -6.125,0.079c-0.092,0.833 0.425,1.921 1.458,2.567c-2.296,1.275 -4.892,-1.046 -4.95,-2.83c-1.325,-0.166 -2.604,-0.395 -3.842,-0.779Zm1.617,11.15c-4.267,1.7 -2.133,-5.375 0.854,-6.021c1.25,2.271 0.642,5.417 -0.854,6.021Zm-5.846,23.542c-0.191,0.25 -0.437,0.442 -0.729,0.571c-0.642,0.25 -1.342,0.183 -2,0.087c-0.396,-0.033 -0.796,-0.087 -1.033,-0.033l-1.896,0.362l0.304,0.375l-2.113,-0.112c-1.1,-0.067 -2.308,-0.204 -3.533,-0.383c-1.092,2.812 -2.117,4.72 -1.179,0.666c0.046,-0.258 -0,-0.546 -0.029,-0.85c-0.817,-0.158 -1.588,-0.341 -2.317,-0.533c2.029,2.25 -2.887,5.412 -2.15,1.804c-0.175,0.283 -0.154,0.104 0.396,-1.271c-0.196,0.513 -0.308,0.909 -0.396,1.271c0.284,-0.387 1.008,-1.625 1.508,-2.021c-0.583,-0.208 -1.166,-0.396 -1.599,-0.633c-0.284,0.358 -0.596,0.612 -0.926,0.746c-0.879,0.366 -1.587,-0.154 -2.091,-0.496c-0.575,-0.413 -0.863,-0.567 -1.338,-0.388l-2.504,0.875l1.417,-2.245c0.296,-0.446 0.671,-0.767 1.108,-0.959c1.358,-0.571 2.883,0.363 3.792,0.913l0.75,0.45l0.262,-0.696c0.721,0.162 1.646,0.137 2.625,0.129c0.692,-0.012 1.417,-0.012 2.154,0.046c2.771,-4.975 2.526,-2.883 1.567,0.179c1.204,0.275 2.333,0.813 3.242,1.871l0.842,1.029l1.208,-1.592c0.583,-0.77 1.733,-0.783 2.725,-0.658c0.387,0.042 0.783,0.092 1.016,0.042l2.4,-0.484l-1.483,1.938Zm-24.462,-40.938l-0.575,0.238c-0.729,0.308 -2.071,0.858 -3.396,-0.013l-0.642,-0.437l0.313,-0.708c0.387,-0.826 1.408,-1.567 2.25,-1.909c0.904,-0.387 1.729,-0.4 2.387,-0.058c0.4,0.208 0.888,0.662 1.063,1.567l0.175,0.862l-0.855,0.196c-0.241,0.071 -0.466,0.158 -0.72,0.262Zm-1.867,29.971c-1.458,-1.35 -0.663,-4.958 1.546,-4.212c1.887,0.637 0.683,6.266 -1.546,4.212Zm-4.75,11.888c-2.075,-1.292 -4.621,-1.213 -7.075,-1.138c-2.513,0.071 -5.108,0.163 -7.204,-1.271l-0.775,-0.508l0.525,-0.75c0.204,-0.308 0.45,-0.508 0.754,-0.637c0.837,-0.363 1.729,0.104 2.329,0.433c1.146,-0.763 2.534,-0.413 3.704,-0.071c0.588,0.183 1.138,0.342 1.667,0.375c0.55,0.038 1.279,-0.133 1.983,-0.279c1.413,-0.308 3.021,-0.65 4.2,0.221c0.754,0.558 1.167,1.466 1.292,2.775l0.171,1.825l-1.571,-0.975Zm-7.017,25.95c-3.646,-0.304 -2.466,-5.354 -2.654,-7.479c-0.042,-0.488 -1.125,-1.917 -0.992,-2.305c1.434,-4.1 6.13,-2.216 9.476,-1.437c-2.33,3.517 -3.825,7.521 -5.83,11.221Zm-7.125,-26.017c4.405,-0.283 0.954,5.354 0,0Zm0.642,31c-1.567,2.571 -7.342,-2.9 -6.687,-4.787c2.774,-1.409 8.366,2.066 6.687,4.787Zm-6.658,4.171c-0.509,-0.704 -0.88,-2.275 0.616,-2.713c4.6,-1.362 2.492,7.071 -0.616,2.713Zm-4.875,-37.5c-0.709,-0.271 -1.446,-0.542 -1.988,-0.513l-1.608,0.117l0.729,-1.442c0.379,-0.716 0.917,-1.229 1.596,-1.521c1.954,-0.808 4.55,0.546 5.792,1.78l0.595,0.604l-0.558,0.646c-0.3,0.329 -0.633,0.566 -1.008,0.729c-1.159,0.483 -2.425,0.008 -3.55,-0.4Zm-5.963,-17.913c-1.687,-3.433 3.188,-5.691 5.158,-3.4c2.738,3.184 -2.779,8.213 -5.158,3.4Zm0.008,-28.375c0.067,-0.125 0.088,-0.212 0.096,-0.258l0.246,-0.737l0.771,0.1c0.392,0.058 0.892,0.341 1.029,1.35c0.042,0.241 0.271,2.354 -0.825,2.804l-0.296,0.079c-0.654,-0.033 -1.066,-0.271 -1.308,-0.658c-0.504,-0.817 -0.012,-1.95 0.287,-2.68Zm-4.241,79.75c-0.729,-0.708 -1.283,-1.25 -0.492,-2.029c2.517,-2.321 3.288,4.659 0.492,2.029Zm-2.134,-71.829c-0.174,-0.083 -0.329,-0.166 -0.462,-0.304c-0.596,0.513 -1.829,0.55 -2.504,0.108c-0.175,-0.12 -0.329,-0.254 -0.438,-0.425c-0.512,1.084 -2.441,1.705 -3.516,1.084c-0.48,-0.288 -0.779,-0.767 -0.85,-1.346l-0.092,-0.646l0.587,-0.296c0.705,-0.304 1.196,-0.237 1.638,-0.212c0.396,0.033 0.762,0.033 1.183,-0.117l1.325,-0.471l-0.012,0.121c0.15,-0.171 0.312,-0.262 0.437,-0.317c0.563,-0.229 1.163,-0.045 1.659,0.263c0.991,-0.979 2.116,-0.433 2.708,-0.025c0.529,0.329 0.687,0.396 0.987,0.287l1.034,1.446c-0.313,0.379 -0.729,0.671 -1.213,0.863c-0.841,0.354 -1.741,0.341 -2.471,-0.013Zm-3.95,37.696c-0.275,0.5 -0.65,0.867 -1.1,1.071c-2.087,0.858 -4.779,-2.025 -5.066,-2.354l-1.154,-1.304l1.741,-0.217c1.746,-0.213 2.867,0.408 3.863,0.954c0.383,0.221 0.767,0.421 1.191,0.579l0.98,0.342l-0.455,0.929Zm-15.779,-42.142l3.288,0.967c0.642,0.179 1.379,0.271 2.15,0.358c2.008,0.255 4.292,0.538 5.275,2.709l0.654,1.429l-1.563,-0.142c-2.404,-0.212 -5.383,-0.733 -7.429,-2.841l-2.375,-2.48Zm-7.983,72.796c-1.421,-3.983 7.475,-2.575 6.846,0.067c-0.55,2.221 -6.142,1.9 -6.846,-0.067Zm-2.062,-32.233l0.904,-1.008c0.633,-0.705 1.883,-0.717 2.787,-0.067c0.713,0.521 1.071,1.317 1.004,2.179l-0.104,1.296l-1.192,-0.538c-0.479,-0.212 -0.862,-0.529 -1.204,-0.804c-0.316,-0.258 -0.595,-0.487 -0.904,-0.587l-1.291,-0.471Zm0.575,-39.129l0.012,-0.013c1.825,-0.75 3.867,-0.216 5.487,0.225l1.967,0.479l-0.604,1.067c-0.425,0.704 -1.154,1.304 -2.088,1.704c-1.345,0.554 -2.737,0.534 -3.749,-0.058c-0.609,-0.342 -1.346,-1.054 -1.521,-2.467l-0.1,-0.671l0.596,-0.266Zm-3.371,88.35c-1.905,-1.171 1.791,-2.305 1.596,-0.4c-0.042,0.679 -0.913,0.808 -1.596,0.4Zm-1.825,-86.563c-2.113,0.888 -3.771,0.321 -5.25,-0.179c-0.771,-0.258 -1.484,-0.496 -2.213,-0.521l-1.237,-0.008l0.375,-1.175c0.266,-0.875 0.754,-1.45 1.441,-1.746c1.259,-0.521 2.771,0.138 4.25,0.763c1.005,0.437 2.05,0.895 2.754,0.862l0.475,1.721c-0.204,0.104 -0.404,0.208 -0.595,0.283Zm-10.471,-1.096c-0.184,0.217 -0.429,0.396 -0.704,0.509c-1.155,0.479 -2.771,-0 -3.446,-0.284c-0.329,0.225 -0.688,0.434 -1.054,0.588c-1.405,0.583 -2.196,0.129 -2.55,-0.2l-0.488,-0.454l0.292,-0.617c0.562,-1.154 1.846,-1.383 2.696,-1.346c0.27,0.021 0.545,0.034 0.695,-0.025l0.246,0.309c1.142,-0.842 3.405,-0.196 4.013,0.087l1.108,0.525l-0.808,0.908Zm-2.058,7.046c-0.963,-0.304 -1.167,-1.971 -0.588,-2.416c1.779,-1.388 3.108,3.212 0.588,2.416Zm-6.842,-7.737c-0.125,0.975 -0.679,1.416 -1.15,1.6c-0.521,0.225 -1.1,0.2 -1.613,0.187c-0.187,-0.008 -0.396,-0.016 -0.587,-0.008l-1.929,0.117l1.133,-1.571c0.717,-0.984 1.867,-1.45 3.292,-1.35l0.966,0.054l-0.112,0.971Zm-0.629,41.096c-0.171,0.237 -0.413,0.425 -0.725,0.545c-0.375,0.159 -0.83,0.196 -1.255,0.159c-1.604,3.146 -5.441,-2.213 -2.154,-4.371c0.642,0.083 1.334,0.837 1.8,1.725c0.138,0.021 0.305,0.046 0.43,0.058c0.57,0.046 1.349,0.125 1.887,0.729l0.483,0.55l-0.466,0.605Zm-8.534,-40.509l0.159,1.067l-5.892,-0.15l2.35,-1.6c0.354,-0.246 0.537,-1.408 0.671,-2.246c0.191,-1.125 0.375,-2.271 0.975,-3.029l0.362,-0.467l0.571,0.15c1.2,0.296 1.067,1.725 0.896,3.688c-0.083,0.921 -0.179,1.95 -0.092,2.587Zm-6.858,38.6c-0.221,0.454 -0.521,0.775 -0.933,0.946c-0.921,0.383 -1.871,-0.229 -2.625,-0.708c-0.275,-0.192 -0.688,-0.467 -0.867,-0.488l-1.45,-0.246l0.871,-1.191c0.258,-0.354 0.579,-0.617 0.937,-0.767c1.275,-0.529 2.579,0.438 3.434,1.058l0.958,0.705l-0.325,0.691Zm-4.963,12.4c-1.574,0.2 -4.004,-4.187 -3.854,-7.179c2.596,0.613 7.179,-1.996 8.655,0.467c-4.717,-0.279 -2.238,6.371 -4.801,6.712Zm-0.329,5.629c-0.5,0.463 -1.587,-0.454 -2.621,-0.216c-2.012,0.446 -3.041,3.212 -4.362,3.179c-1.646,-0.046 -2.946,-3.158 -3.571,-4.254c3.738,0.291 8.213,0.612 10.467,-2.538c0.625,0.538 1.191,2.75 0.087,3.829Zm-5.733,34.667c-4.167,2.8 -3.392,-3.012 -0,0Zm-6.658,-49.833c-0.946,-0.284 -1.346,-1.079 -1.667,-1.713c-0.175,-0.375 -0.367,-0.716 -0.613,-0.941c-0.62,-0.584 -1.383,-0.83 -2.166,-1.105c-0.871,-0.295 -1.854,-0.625 -2.708,-1.42l-0.784,-0.725l0.842,-0.663c0.366,-0.304 0.762,-0.542 1.166,-0.713c2.263,-0.925 4.2,0.534 5.75,1.751c0.801,0.6 1.571,1.195 2.25,1.391c0.346,0.121 0.771,0.025 1.255,-0.05c1,-0.183 2.687,-0.471 3.495,1.75l0.509,1.346l-1.442,-0.121c-1.042,-0.083 -1.829,0.329 -2.521,0.671c-1.008,0.437 -2.021,0.963 -3.366,0.542Zm-6.4,23.975c-0.634,-1.521 3.841,-1.688 3.516,0.433c-0.154,0.975 -3.091,0.592 -3.516,-0.433Zm-4.367,-33.954c-0.987,0.525 -8.208,-0.913 -9.129,-2.467c-0.1,-0.167 -0.621,-0.221 -0.6,-0.713c0.054,-0.77 3.487,-4.462 6.487,-4.983c1.088,-0.196 2.675,1.283 3.709,1.238c1.529,-0.071 6.1,-4.067 7.754,-1.446c1.791,2.829 -1.738,1.129 -4.859,2.875c-2.67,1.487 -1.891,4.771 -3.362,5.496Zm-9.354,-12.842l-1.838,-0.375l1.625,-1.396c0.988,-0.867 2.534,-1.896 3.721,-1.487c-0.017,-0.546 -0.192,-1.271 -0.287,-1.68l-0.692,-3.166l2.067,1.758c1.591,1.363 1.483,3.646 1.179,5.679l-0.117,0.759l-0.767,0.02c-0.4,0.021 -0.687,0.317 -1.066,0.717c-0.367,0.388 -0.784,0.829 -1.396,1.079c-0.437,0.179 -0.921,0.25 -1.421,0.179l-1.521,-0.179l0.879,-1.25c0.134,-0.196 0.167,-0.329 0.146,-0.375c-0.029,-0.091 -0.262,-0.246 -0.512,-0.283Zm-9.013,-17.267c0.009,0.034 0.021,0.071 0.03,0.113c-0.017,0.171 -0.009,0.196 -0.03,-0.113Zm-3.795,35.479c-1.217,2.792 2.816,11.884 -1.426,13.567c-1.425,0.567 -4.241,0.021 -7.145,0.454c-1.967,0.296 -4.455,1.6 -5.655,1.371c-1.866,-0.371 -4.975,-4.517 -2.641,-7.479c1.533,1.012 8.746,6.287 12.35,1.704c0.529,-0.671 -0.971,-1.967 -0.775,-3.229c0.15,-0.896 1.891,-1.404 2.341,-2.688c1.25,-3.641 -0.433,-8.608 0.675,-9.558c1.334,-1.15 5.771,1 5.93,1.554c0.483,1.771 -3.113,3.017 -3.654,4.304Zm-19.955,28.713c-0.65,-2.238 -0.775,-4.133 1.45,-4.625c1.2,1.366 0.729,4.237 -1.45,4.625Zm-1.512,25.542c-0.717,-0.659 -1.304,-1.309 -0.479,-2.009c2.329,-1.996 3.425,4.713 0.479,2.009Zm-5.146,-10.705c-0.083,-0.012 -0.125,-0.716 -0.192,-0.804c-2.654,-3.637 4.029,1.371 0.192,0.804Zm4.321,-12.15c-2.238,0.638 -5.413,1.117 -5.954,3.592c-1.213,-2.242 4.058,-10.129 5.954,-3.592Zm-8.984,-21.287c2.776,-0.396 1.221,5.337 4.88,6.075c3.458,0.692 3.704,-3.225 6.758,-2.067c0.862,3.921 -4.271,6.45 -7.587,5.692c-0.509,-1.354 -0.384,-2.308 -0.376,-3.329c-4.662,3.133 -7.037,-5.879 -3.675,-6.371Zm-1.012,-37.738c1.604,-1.37 6.133,1.842 8.458,-0.341c1.159,-1.079 0.442,-1.675 1.046,-4.517c2.054,0.967 3.45,2.983 7.129,1.271c1.509,2.7 -1.966,5.6 -3.679,6.008c-1.375,0.325 -2.912,-1.412 -6.221,-1.058c-2.266,0.25 -5.304,3.133 -6.866,1.662c-1.184,-1.154 0.308,-3.17 0.133,-3.025Zm-1.758,58.038c-2.146,-0.079 -1.88,-4.05 -4.917,-2.658c-0.158,-0.667 -0.317,-1.35 -0.479,-2.017c3.408,-1.625 6.537,2.487 5.396,4.675Zm-3.454,3.392c5.195,1.275 -0.571,6.245 -0,-0Zm-1.584,23.425c-0.042,-0.225 1.958,-2.58 3.513,-1.267c2.366,1.958 -3.1,4.371 -3.513,1.267Zm-2.083,-80.992c-2.296,-1.942 1.837,-3.963 2.75,-2.804c1.146,1.496 -1.054,4.212 -2.75,2.804Zm0.275,66.496c-0.313,1.054 -1.592,1.079 -2.417,0.591c-2.929,-1.787 3.471,-4.112 2.417,-0.591Zm-9.309,7.366c-0.704,-1.704 -1.225,-2.429 0.93,-3.212c0.35,-0.121 6.408,2.046 6.525,2.271c2.137,3.983 -6.104,4.225 -7.455,0.941Zm2.467,-32.175c4.263,-0.145 2.496,5.35 3.763,8.48c-2.413,0.366 -3.721,-1.055 -5.838,-1.142c2.963,-1.104 3.242,-2.934 2.075,-7.338Zm-9.567,-25.42c-0.55,-1.58 -2.008,-4.201 -0.454,-5.434c2.467,-2.004 6.484,2.992 10.025,4.4c1.704,0.679 3.463,-0.158 4.421,0.638c0.754,0.621 2.621,5.083 2.267,5.85c-0.9,2.004 -3.842,-0.834 -6.434,-0.138c-1.754,0.463 -3.454,2.496 -3.237,2.484c-3.296,0.25 -5.679,-5.267 -6.588,-7.8Zm-7.72,61.604c1.595,0.308 5.62,1.212 6.291,4.879c-2.866,-0.363 -4.425,-2.871 -6.291,-4.879Zm1.566,-32.379c1.267,0.791 -0.479,2.67 -1.845,3.012c0.258,-1.242 1.233,-2.017 1.845,-3.012Zm-10.329,45.591c-4.304,0.717 -0.779,-5.066 0,0Zm-3.596,-41.379c1.821,-2.975 3.988,4.788 0.792,1.521c-0.062,-0.071 -1.121,-0.975 -0.792,-1.521Zm-6.4,19.471c3.105,-0.763 3.938,2.204 5.317,4.267c-2.288,-0.555 -4.242,-1.7 -5.317,-4.267Zm-6.696,21.675c-1.462,-3.763 2.9,-1.096 0,-0Zm-5.762,-9.696c-0.867,-3.375 2.042,-6.167 2.275,-8.246c0.071,0.354 3.913,4.179 4.283,5.367c0.342,1.096 -0.441,6.7 -1.258,7.146c-1.592,0.829 -4.825,-2.467 -5.3,-4.267Zm-6.208,-16.858c3.295,0.233 5.058,2.962 7.508,4.595c-2.138,2.509 -7.725,-1.387 -7.508,-4.595Zm-5.85,-10.109c2.87,-1.329 3.196,1.521 5.425,1.25c0.771,-1.67 -1.367,-3.35 -1.663,-5.145c3.821,-0.396 7.104,2.912 6.567,7.8c-5.325,1.77 -9.421,1.558 -10.329,-3.905Zm-0.942,-9.162c1.958,-3.217 4.062,4.575 0.804,1.521c-0.067,-0.071 -1.133,-0.988 -0.804,-1.521Zm-1.888,-78.483c-1.12,-1.784 2.83,-2.063 2.925,-0.275c0.084,1.545 -2.175,1.454 -2.925,0.275Zm3.396,67.029c0.509,1.4 5.075,2.85 5.684,4.171c0.529,1.083 0.083,5.479 -0.73,5.716c-1.583,0.492 -6.52,-8.083 -4.954,-9.887Zm6.317,-10.925c-1.4,0.846 -1.637,-0.259 -1.996,-1.213c-1.112,-2.954 4.742,-0.396 1.996,1.213Zm2.712,14.704c0.609,1.341 -1.07,1.804 -1.82,1.308c-0.159,-0.9 0.795,-1.112 1.82,-1.308Zm0.609,-52.204c0.783,0.108 0.587,2.425 -0.417,1.821c-1.079,-0.671 -0.454,-1.921 0.417,-1.821Zm43.825,4.791c-0.354,0.909 -1.538,1.113 -2.417,0.584c-2.271,-1.396 3.608,-3.704 2.417,-0.584Zm16.321,48.109c1.112,0.062 1.7,0.95 1.887,2.537c-1.812,1.084 -2.387,-1.562 -1.887,-2.537Zm20.546,-52.763c0.737,0.054 0.766,2.388 -0.321,2.225c-1.388,-0.225 -0.559,-2.266 0.321,-2.225Zm-8.142,49.342c-0.788,-0.533 -0.896,-1.671 -0.092,-2.108c2.229,-1.217 2.317,3.633 0.092,2.108Zm16.45,-18.479c3.712,1.654 -1.129,5.721 -0.104,9.216c-1.321,-2.212 -4.584,-3.237 -4.3,0.805c-5.225,1.212 -7.85,0.17 -13.284,-0.205c0.475,-2.304 5.105,-5.154 9.296,-5.666c0.571,-0.059 2.15,0.425 2.608,0.216c1.546,-0.637 3.638,-5.312 5.784,-4.366Zm-2.192,-28.488c-0.312,0.488 -1.421,0.509 -2.108,0.079c-3.171,-1.929 3.541,-2.441 2.108,-0.079Zm9.15,25.521c0.946,0.621 -0.046,1.992 -1.125,2.404c-0.5,-1.333 -0.425,-2.333 1.125,-2.404Zm17.767,-26.825c2.671,-1.612 6.075,-0.808 9.037,-0.096c0.925,0.233 1.821,0.438 2.671,0.571l1.608,0.263l-1.062,1.237c-0.533,0.654 -1.2,1.146 -1.963,1.454c-3.22,1.338 -7.52,-0.604 -10.079,-1.758l-1.587,-0.708l1.375,-0.963Zm25.646,8.663c-0.734,1.937 -3.809,0.633 -4.23,0.166c-3.32,-3.616 5.501,-3.55 4.23,-0.166Zm-7.6,-8.746c1.021,-1.154 3.629,-0.463 4.279,-0.154l0.425,0.212c0.558,-0.421 1.496,-0.387 2.6,-0.317c0.8,0.055 1.796,0.125 2.258,-0.083l0.204,-0.812l0.963,0.041c0.408,0.071 0.912,-0.029 1.45,-0.137c1.121,-0.213 2.662,-0.496 3.608,1l0.284,0.458l-0.246,0.463c-0.346,0.645 -0.9,1.137 -1.684,1.454c-2.212,0.916 -5.804,0.341 -7.946,-0c-0.487,-0.079 -0.895,-0.146 -1.149,-0.159l-0.863,-0.091l0.008,-0.25c-0.87,0.587 -2.112,0.296 -3.016,0.033c-0.238,-0.054 -0.442,-0.112 -0.613,-0.15l-1.65,-0.246l1.088,-1.262Zm50.187,-9.229c-2.775,0.812 -2.442,3.545 -4.862,4.587c-3.334,-3.704 2.683,-8.254 4.862,-4.587Zm56.717,15.737c1.096,4.004 -7.7,7.15 -7.059,2.567c0.296,-2.125 4.367,-1.934 7.059,-2.567Zm6.987,32.446c-1.4,0.683 -3.062,-2.608 -3.679,-4.658c2.954,-0.667 5.217,3.933 3.679,4.658Zm6.804,-8.888c-0.458,-1.025 -1.366,-3.85 0.95,-3.229c2.205,0.617 1.775,9.134 -0.95,3.229Zm1.417,-28.462l1.017,0.783l-1.088,0.7c-0.437,0.3 -0.887,0.538 -1.325,0.729c-3.075,1.284 -6.008,-0.033 -8.854,-1.295c-3.008,-1.342 -6.096,-2.7 -9.721,-1.496l-0.675,-1.704c6.055,-2.825 15.417,-1.784 20.646,2.283Zm19.417,-7.471c0.4,-1.042 2.821,-2.279 3.25,-2.237c0.633,0.087 3.783,3.708 4.058,4.837c0.096,0.354 0.413,4.458 -2.492,4.075c-1.483,-0.183 -0.416,-1.612 -1.762,-2.471c-0.971,-0.641 -1.488,0.192 -2.175,-0.629c-0.683,-0.771 -1.1,-2.967 -0.879,-3.575Zm23.383,5.392c-0.192,0.6 -0.566,1.725 -1.446,1.216c0.075,-0.637 0.442,-1.125 1.446,-1.216Zm16.488,-3.971c-1.075,0.892 -2.109,0.05 -2.484,-0.567c-1.521,-2.591 5.205,-1.775 2.484,0.567Zm2.112,6.162c0.188,-0.208 1.592,-2.637 1.713,-2.579c1.262,0.559 1.012,3.375 0.491,5.421c0.175,-0.025 0.384,-0.058 0.596,-0.083c1.313,-0.171 3.109,-0.329 4.346,0.637c-0.604,-2.366 -0.871,-4.658 0.354,-4.904c0.608,-0.125 1.354,1.179 2.025,2.833l2.575,0.046l0.079,0.788c0.117,0.887 0.771,1.158 2.209,1.462c0.458,0.092 0.845,0.167 1.187,0.329l1.054,0.534l-0.771,0.896c-0.462,0.537 -1.208,0.92 -1.766,1.158c-0.884,0.362 -1.913,0.604 -2.867,0.637c0.088,0.784 -0.029,0.963 -0.517,-0.033c-0.42,0 -0.845,-0.071 -1.22,-0.196c-0.125,1.096 -0.384,2.342 -0.467,4.625c-0.033,0.609 1.696,3.292 1.487,4.721c-0.137,1.238 -6.341,7.9 -4.95,8.208c-2.491,0.242 -0.32,-4.508 -0.616,-5.404c-0.321,-0.962 -2.713,-1.25 -3.229,-2.146c-0.984,-1.779 -1.6,-7.05 -1.505,-7.516c0.134,-0.579 3.83,-0.013 4.309,1.946c-0.021,-0.096 -0.954,2.65 -1.729,2.575c3.216,0.337 6.233,-5.159 6.233,-5.167c-0.013,0.008 -0.596,-1.363 -1.192,-3.121c-0.408,0.417 -0.983,0.783 -1.65,1.054c-1.391,0.579 -3.487,0.896 -4.8,-0.162c-0.221,-0.167 -0.404,-0.425 -0.591,-0.734c-0.388,0.567 -0.334,0.317 -0.117,-0.195c-0.238,-0.496 -0.35,-1.146 -0.196,-2.021l0.146,-0.825l0.846,0.066c0.021,0.021 0.087,0 0.125,0.009c-1.579,-1.938 -5.367,0.908 -1.592,-2.859Zm1.908,-15.45c0.267,-0.912 3.109,-3.212 4.096,0.863c0.175,0.717 -1.1,2.133 -1.454,3.075c0.954,0.35 5.525,6.858 2.309,6.787c-3.121,-0.079 -5.267,-9.591 -4.951,-10.725Zm12.692,40.971c-0.65,-0.237 0.05,-1.275 0.221,-1.725c1.996,-5.042 3.662,3.167 -0.221,1.725Zm-4.654,1.725c0.05,0.092 -0.108,0.209 -0.292,0.288l-0.212,0.062c-0.9,0.188 -1.513,-0.258 -1.867,-1.3l-0.016,-0.071l-0.713,0.05l0.037,-1.52c0,-0.959 0.025,-1.842 0.492,-2.446l0.617,-0.771l0.712,0.679c0.1,0.071 0.163,0.146 0.213,0.229l0.05,-0.754l1.108,0.354c0.5,0.138 0.7,0.254 0.996,0.434c0.154,0.079 0.325,0.191 0.629,0.341l1.179,0.588l-1.225,1.112c-0.458,0.413 -0.679,0.6 -0.516,1.704l0.22,1.467l-1.4,-0.446l0.263,-0.875l-0.275,0.875Zm11.967,20.809c4.687,2.287 0.375,8.662 -2.571,1.083c-0.188,-0.467 2.329,-1.204 2.571,-1.083Zm-4.059,-8.146c0.763,0.204 1.546,0.521 1.475,0.837c-0.021,0.217 -0.375,0.725 -0.808,1.338c0.142,0.15 0.317,0.275 0.433,0.421l0.655,0.8l-0.855,0.554c-0.137,0.087 -0.271,0.158 -0.391,0.212c-0.455,0.192 -0.925,0.204 -1.388,0.129c-0.267,0.371 -0.487,0.68 -0.596,0.875c0.109,0.042 0.117,0.092 -0.058,0.188c-0.075,0.071 -0.046,-0.033 0.058,-0.188c-0.462,-0.175 -2.958,0.155 -4.479,0.259c-0.2,0.862 -0.496,1.133 -1.137,-0.071c0.046,0.104 0.5,0.104 1.137,0.071c0.321,-1.329 0.429,-4.054 1.204,-4.996c0.563,-0.671 2.354,-0.908 2.95,-1.554c-1.454,-1.125 -3.262,-2.404 -3.6,-1.671c0.288,-0.633 4.067,-6.175 5.796,-1.717c0.413,1.059 -0.329,2.771 -1.004,3.729c0.275,0.338 0.5,0.609 0.608,0.784Zm2.092,-40.567c-1.204,2.004 -3.288,0.283 -3.65,-1.508c-0.721,-3.625 4.483,0.133 3.65,1.508Zm12.45,-10.312c3.262,-8.759 6.012,6.425 0.642,5.999c-1.825,-0.137 -1.346,-4.12 -0.642,-5.999Zm40.654,5.27l1.013,0.25c0.783,0.18 1.745,0.784 1.883,2.567l0.146,1.621l-1.459,-0.713l0.401,-0.829l-0.551,0.738c-0.604,-0.271 -1.716,-0.792 -1.545,-2.588l0.112,-1.046Zm3.925,-7.208c0,0 0.117,-0.179 0.117,-0.867l-0.021,-0.929l2.642,0.059l-0.059,0.954c-0.058,1.316 -0.687,1.85 -1.204,2.062c-0.208,0.084 -0.437,0.125 -0.671,0.15l-1.795,0.071l0.991,-1.5Zm2.167,-3.454c0.271,-1.063 1.041,-1.496 1.529,-1.792c0.321,-0.179 0.492,-0.287 0.571,-0.454l0.858,-1.487l0.788,1.52c0.22,0.463 0.262,0.988 0.075,1.48c-0.321,0.929 -1.321,1.425 -1.734,1.595c-0.383,0.159 -0.787,0.263 -1.154,0.288l-1.212,0.046l0.279,-1.196Zm7.979,-8.363c0.762,3.771 -3.617,2.213 -3.433,2.359c-1.68,-1.484 3.125,-3.905 3.433,-2.359Zm0.421,-11.82c1.441,0.487 -1.7,6.175 -1.096,5.8c-0.017,0.02 3.071,0.25 2.813,-0c3.254,2.904 -10.067,5.187 -2.813,-0c-2.267,1.408 -1.867,-6.792 1.096,-5.8Zm3.133,10.854l0.867,-0.05c0.379,-0.017 0.675,0.062 0.929,0.17c0.375,-1.508 1.979,-2.662 3.462,-2.629l0,-0.033c-0.012,-0.4 -0.054,-0.821 0.05,-1.192l0.471,-1.77l1.142,1.45c0.767,0.966 0.604,1.987 0.467,2.97c-0.08,0.538 -0.159,1.071 -0.138,1.675l0.058,0.838l-0.824,0.125c-1.051,0.158 -1.692,-0.067 -2.134,-0.225c-0.196,-0.079 -0.337,-0.129 -0.517,-0.129l-0.02,0.096c0.483,0.341 0.608,0.895 0.412,1.599l-0.35,1.171l-1.021,-0.637c-0.125,-0.092 -0.396,-0.15 -0.658,-0.196c-0.138,-0.033 -0.333,-0.075 -0.513,-0.125c0.013,0.229 0.021,0.475 0.013,0.763c-0,-0 -0,-0.013 0.008,-0.025c1.371,-0.567 2.371,0.775 3.238,1.966c0.462,0.634 0.987,1.354 1.45,1.613l0.792,0.466l-0.625,1.1c-0.23,0.455 -0.546,1.075 -1.225,1.359c-0.201,0.083 -0.417,0.129 -0.655,0.141l-0.304,0l-0.446,-0.316c-0.008,-0.013 -0.041,-0.025 -0.054,-0.038c0.546,0.704 1.158,1.546 0.929,1.975c-0.804,1.567 -3.995,2.067 -4.287,0.863c-0.329,-1.363 1.112,0.071 2.421,-3.45c-0.792,-0.434 -1.717,-0.721 -2.525,-0.217c-0.55,1.021 -1.242,1.621 -2.05,1.304c-0.167,-0.079 -0.167,-0.521 -0.096,-1.087c-0.475,-0.309 -1.025,-0.792 -0.875,-1.946l0.133,-1.063l1.025,0.309c-0.046,-0.025 0.067,-0.125 0.175,-0.209c0.038,-0.041 0.117,-0.1 0.188,-0.133c0.537,-2.033 1.17,-4.033 1.17,-4.021c0.092,-0.137 0.18,-0.204 0.255,-0.291c-0.213,-0.33 -0.363,-0.73 -0.363,-1.321l0.025,-0.85Zm13.371,18.55c1.25,1.012 2.033,3.112 1.204,5.329l-0.542,1.412l-1.004,-1.12c-0.629,-0.73 -1.033,-2.171 -1.341,-4.85l-0.021,-0.317l-0.85,-0.638c-0.454,-0.341 -0.909,-0.779 -1.038,-1.575c-1.637,-2.262 -3.204,-5.254 -3.041,-6.179c0.962,-5.15 7.112,4.592 6.633,7.938Zm-10.571,60.683l1.529,-0.642c0.763,0.709 1.205,2.209 2.05,2.746c0.817,-0.604 1.492,-1.275 2.9,-1.65c4.379,5.392 -7.675,4.834 -6.479,-0.454Zm-1.921,11.579c-0.958,-0.621 -0.704,-2.871 0.804,-3.475c0.538,1.488 0.5,2.734 -0.804,3.475Zm0.163,-21.187c-1.471,0.308 -2.621,-0.313 -2.854,-1.088l-0.259,-0.804l0.863,-0.488c0.367,-0.145 1.016,-0.254 2.537,0.705l1.946,1.212l-2.233,0.463Zm11.591,-39.663c-0.316,0.213 -0.691,0.359 -1.112,0.304c-0,0.08 -0.013,0.146 -0.013,0.225l-0.291,2.1l-1.321,-1.641c-1.388,-1.692 -3.438,-1.413 -5.821,-1.092c-2.679,0.363 -6.008,0.817 -7.575,-2.879l-0.537,-1.275l1.408,-0c1.433,0.012 2.846,0.121 4.208,0.237c2.209,0.159 4.296,0.317 6.246,0.025l0.783,-0.129l0.221,0.763c0.088,0.241 0.25,0.354 0.784,0.579c0.275,0.117 0.587,0.25 0.875,0.442c-0,-0.034 0.008,-0.067 0.008,-0.1l0.075,-0.73l0.742,-0.07c0.75,-0.071 1.22,0.195 1.496,0.437c0.458,0.396 0.674,1.033 0.716,1.858l0.038,1.071l-0.93,-0.125Zm-440.741,-29.916c0.137,0.216 -0.283,-2.225 1.408,-1.205c0.638,0.396 -0.171,3.042 -1.408,1.205Zm-0.467,121.716c-2.1,-1.271 0.059,-3.146 1.125,-2.383c1.034,0.712 0.375,3.3 -1.125,2.383Zm-7.916,9.604c-0.417,-0.645 -0.638,-2.337 -1.188,-3.133c-1.192,-1.683 -1.708,0.638 -2.5,-1.521c-1.017,-2.725 2.954,-5.371 5.758,-2.679c3.221,3.133 -0.8,9.308 -2.07,7.333Zm-4.988,-131.937c-0.758,2.162 -6.017,0.821 -5.917,-3.258c1.567,0.116 6.584,1.354 5.917,3.258Zm-4.546,140.217c0.058,0.22 -1.112,-2.546 1.625,-2.1c3.1,0.495 -0.292,8.037 -1.625,2.1Zm-2.475,-29.7c-2.354,-3.059 3.979,-0.946 1.9,0.812c-1.566,1.342 -1.287,-0.012 -1.9,-0.812Zm-4.179,19.787c-0.933,-0.558 -0.579,-3.229 0.929,-3.217c2.083,0.013 1.075,4.43 -0.929,3.217Zm-1.833,-35.833c-1.438,-3.05 0.212,-2.909 1.062,-6.234c0.467,-1.908 -0.237,-6.071 2.342,-4.404c1.112,0.725 0.212,2.25 0.979,4.029c1.125,2.671 4.583,3.804 4.075,6.28c-0.288,1.329 -4.113,3.087 -5.254,2.975c-1.775,-0.171 -2.388,-0.934 -3.204,-2.646Zm-3.417,-24.771c-0.683,-3.183 7.833,-1.554 5.412,1.237c-1.608,1.884 -5.145,0.092 -5.412,-1.237Zm-3.238,27.246c-0.67,-0.717 -0.675,-2.746 0.717,-2.317c1.283,0.387 1.079,4.212 -0.717,2.317Zm7.776,-42.004c0.149,1.337 -1.68,1.837 -2.821,0.679c-1.617,-1.613 2.687,-1.904 2.821,-0.679Zm4.937,23.987c-0.942,1.729 -2.742,-0.046 -3.121,-0.533c-1.6,-2.088 4.221,-1.475 3.121,0.533Zm11.963,-74.146c-0.555,1.363 -2.459,0.588 -3.013,-0.125c-2.633,-3.408 4.346,-3.25 3.013,0.125Zm2.57,-7.041c-4.425,7.279 -8.57,-2.971 0,-0Zm459.171,125.17c-4.508,-9.57 -7.796,-22.195 -9.546,-36.266c-0.229,-0.021 -0.45,-0.067 -0.729,-0.234c-1.492,-1.02 -0.612,-2.416 0.329,-3.158c-0.366,-3.437 -0.641,-6.933 -0.816,-10.504c-0.388,-0.013 -0.763,-0.108 -1.059,-0.271l-0.233,-0.133l-0.033,0.391l-1.421,-1.508c-0.075,-0.075 -0.138,-0.129 -0.396,-0.087l-1.05,0.183l-0.037,-1.079c-0,-0.488 0.129,-0.817 0.229,-1.034c0.062,-0.145 0.07,-0.183 0.062,-0.295l0.1,-0.009l-0.329,-0.167l-0,-0.562c-0.025,-1.071 -0,-1.992 0.467,-2.625l0.279,-0.383l1.716,0.046l0.259,0.429c0.4,0.65 0.496,1.529 0.25,2.271c-0.129,0.412 -0.358,0.729 -0.671,0.966c0.092,0.079 0.188,0.184 0.283,0.284l0.017,-0.15l0.717,-0c0.212,-0 0.487,-0.021 0.737,-0.046c-0.041,-1.475 -0.129,-2.925 -0.142,-4.413c-0.075,-12.787 1.117,-25.116 3.342,-36.083c-0.033,0.021 -0.067,0.054 -0.1,0.079c-0.971,0.729 -0.466,-0.237 -0.629,-0.417c-4.063,-4.541 -0.025,-3.975 1.25,-2.179c0.217,-0.975 0.412,-1.979 0.646,-2.941c-0.071,-0.071 -0.117,-0.134 -0.242,-0.242c-0.296,-0.258 -0.683,-0.588 -0.937,-1.142c-0.317,0.013 -0.659,-0.121 -0.905,-0.342c-0.554,-0.458 -0.737,-1.262 -0.516,-2.137l0.154,-0.646l0.671,-0.058c0.508,-0.033 0.862,0.217 1.046,0.354l0.4,-0.046l0.12,-1.508c-0.716,0.092 -1.399,-0.196 -1.862,-0.796c-0.237,-0.287 -0.388,-0.625 -0.496,-0.987c-0.483,0.25 -1.167,0.274 -1.75,-0.455c-0.467,-0.616 -0.817,-1.762 -0.521,-2.758c-0.929,-0.275 -1.962,-1.058 -2,-3.304l-0.004,-0.8l0.8,-0.121c0.696,-0.092 1.171,0.104 1.525,0.442c-0.033,-0.25 -0.058,-0.542 -0.058,-0.842l-0.021,-0.987l0.983,0.07c0.759,0.038 1.496,0.534 1.95,1.305c0.55,0.887 0.63,1.941 0.242,2.783l-0.333,0.737l-0.792,-0.262c-0.392,-0.133 -0.792,-0.375 -1.15,-0.792c-0,0.096 0.025,0.192 0.037,0.263l0.063,0.45c1.196,0.137 1.546,1.183 1.654,2.137l0.129,-0.071c0.446,-0.183 0.934,-0.112 1.371,0.171c0.729,0.534 1.246,1.763 1.192,2.904l-0.021,0.696l-0.429,0.1l0.825,1.775c0.887,-3.179 1.854,-6.2 2.95,-8.996c-0.063,-0.087 -0.146,-0.145 -0.179,-0.25c-1.492,-3.608 -0.175,-6.141 -2.167,-7.937c0.05,0.046 -4.463,-2.004 -4.879,-2.275c-0.242,0.096 -0.5,0.2 -0.771,0.316c-0.188,0.259 -0.321,0.621 -0.421,1.017c0.492,0.321 0.904,0.842 1.113,1.617c0.275,1.058 0.262,2.554 -0.409,3.379l-0.541,0.646l-0.7,-0.475c-1.192,-0.838 -1.25,-2.029 -1.15,-3.317c-0.28,-0.541 -0.196,-1.021 0.12,-1.458l0.071,-1.038c-0.225,-0.058 -0.45,-0.179 -0.633,-0.337c-0.558,-0.504 -0.783,-1.283 -0.571,-2.1l0.138,-0.513l0.037,-0.008c-0.425,-0.108 -1.029,-0.321 -1.325,-1.012l-0.062,-0.346c-0.025,-1.471 1.691,-2.121 2.733,-1.121c0.583,0.546 0.779,1.358 0.504,2.137l-0.087,0.259c0.362,0.158 0.62,0.446 0.775,0.625c0.062,0.066 0.137,0.15 0.162,0.175l0.446,0.304l-0.058,0.546c-0.105,0.962 -0.963,1.587 -1.825,1.45l0.55,0.2c0.345,-0.225 0.725,-0.438 1.133,-0.63c0.187,-0.229 0.413,-0.399 0.704,-0.387c-0.025,0 0.042,0.033 0.067,0.071c1.183,-0.504 2.296,-0.867 2.516,-1.154c0.109,-0.129 0.192,-0.304 0.259,-0.484l-0.025,-0.025c-0.029,-0.012 -0.042,-0.012 -0.071,-0.012c-1.225,-0.138 -3.088,-0.363 -3.554,-2.346l-0.154,-0.671l0.445,-0.262l-5.537,-5.459l0.042,0.609c-0.109,0.85 -0.571,1.179 -0.859,1.3c-0.375,0.146 -0.783,0.125 -1.158,-0.084l-0.013,0.817l-0.629,-0.138l-0.396,1.501l-1.412,-2.055c-0.683,-0.962 -1.467,-2.075 -1.754,-3.791l-0.271,-1.534c-20.017,6.38 -45.821,11.942 -75.688,16.3c0.013,0.013 0.013,0.025 0.013,0.038c0.629,0.883 3.029,1.262 2.346,3.429c-1.434,4.629 -5.134,1.783 -2.571,3.875c0.821,0.654 -0.667,4.763 2.804,2.779c0.317,-0.196 1.725,-1.691 1.921,-1.508c1.508,1.475 2.083,11.121 -0.421,9.025c-0.562,-0.479 0.85,-5.008 1.275,-4.746c-0.262,-0.163 -0.675,-1.104 -0.221,-1.071c-2.762,-0.258 -7.65,3.975 -8.146,3.875c-1.633,-0.329 1.125,-4.066 -1.083,-5.358c-0.042,-0.038 -2.787,1.054 -2.775,0.012c0.025,-1.991 6.958,-7.404 6.421,-9.679c-0.038,-0.212 -0.171,-0.375 -0.267,-0.554c-0.141,0.021 -0.291,0.046 -0.425,0.071c-0.1,0.142 -0.237,0.262 -0.437,0.342c-0.475,0.191 -0.867,-0 -1.046,-0.105l-0.175,-0.012c-4.013,0.567 -8.083,1.121 -12.238,1.658c-0.745,0.1 -1.529,0.167 -2.279,0.263c0.675,0.166 1.325,1.041 0.025,2.333c-1.083,-1.313 -0.996,-2.017 -0.596,-2.254c-0.175,0.021 -0.362,0.029 -0.541,0.054c0.704,1.871 1.404,5.017 1.467,4.888c-0.463,1.041 -2.05,0.2 -3.538,0.258c-0.533,0.954 -1.029,1.871 -0.963,2.7c0.113,1.271 2.263,1.217 1.28,2.883c-0.442,-0.071 -0.85,-0.046 -1.254,-0.033c-0,1.212 -0.521,1.929 -2.267,0.862c-0.396,0.363 -0.713,0.796 -0.879,1.405c-0.255,-0.93 -0.046,-1.438 0.166,-1.871c-0.096,-0.079 -0.179,-0.121 -0.266,-0.204c-0.463,-0.355 -0.088,-0.955 0.358,-1.546c-1.45,-2.225 -8.658,-0.409 -7.242,3.558c0.613,1.713 3.434,1.121 4.225,3.054c0.179,0.438 0.375,2.925 -0.925,3.404c-1.1,0.417 -1.3,-0.862 -2.312,-1.17c-0.071,-0.034 -0.167,-0.009 -0.246,-0.021c0.021,0.329 0.021,0.616 -0.071,0.666c-1.171,0.705 -1.979,0.321 -2.554,-0.437c-0.604,0.108 -1.192,0.212 -1.717,0.021c-0.587,-0.196 -1.137,-1.842 -1.7,-2.192c-1.387,-0.896 -2.491,0.158 -3.408,-0.929c-0.708,0.587 0.992,1.496 0.25,2.258c-1.692,0.746 -2.942,-1.408 -3.821,-1.387c-1.783,0.025 -2.362,2.371 -4.192,0.721c-0.341,-0.325 0.201,-0.971 -0.112,-1.717c-0.387,-0.946 -1.721,-0.9 -2.183,-1.808c-0.696,-1.384 0.495,-2.746 0.175,-5.267c-0.192,-1.558 -1.746,-2.875 -1.884,-4.192c-0.012,-0.112 0.055,-0.258 0.125,-0.396c-1.5,0.138 -3.021,0.259 -4.533,0.388c-0.608,1.05 -0.279,2.054 -1.163,2.229c-0.837,0.167 -1.662,-0.867 -2.125,-1.958c-29.62,2.395 -61.004,3.771 -92.787,3.987c-33.258,0.213 -66.088,-0.85 -96.913,-3.054c0.805,0.613 1.325,1.404 1.238,2.3c-0.054,0.492 -2.271,2.296 -2.833,2.392c-1.605,0.258 -3.85,-2.196 -4.1,-2.842c-0.4,-1.033 -0.354,-1.758 -0.025,-2.262c-12.013,-0.921 -23.725,-2.009 -34.98,-3.288c-15.7,-1.783 -30.395,-3.929 -44.008,-6.342c-0.271,0.921 -1.671,0.867 -2,1.58c-0.358,0.8 0.288,5.466 -2.946,3.716c-0.929,-0.512 -0.337,-2.525 -1.683,-3.454c-1.921,-1.329 -7.388,0.442 -8.429,-3.079c1.291,-1.063 2.741,-0.721 4.229,-0.779c-8.196,-1.625 -15.871,-3.363 -23.025,-5.188c0.096,0.838 0.3,1.7 0.921,2.609c-1.363,0.295 -2.654,-1.384 -3.217,-3.213c-4.583,-1.2 -9.017,-2.429 -13.108,-3.721l-19.538,19.813c7.184,14.396 11.534,36.466 11.68,59.9c0.083,10.783 -0.78,21.237 -2.359,30.833c0.363,0.429 0.4,1.021 -0.275,1.713c-1.867,10.604 -4.679,20.075 -8.262,27.508l19.8,19.55c23.529,-7.754 55.608,-14.338 93.012,-19.083c21.971,-2.792 45.667,-4.917 70.271,-6.359c0.471,-1.646 1.008,-3.566 3.221,-2.596c0.496,0.209 0.962,1.292 1.242,2.346c20.47,-1.121 41.52,-1.808 62.787,-1.946c48.467,-0.316 96.046,2.017 137.587,6.75c28.517,3.246 53.925,7.596 74.875,12.771c0.825,-0.804 1.68,-1.317 2.225,-1.091c0.538,0.216 1.021,1.02 1.442,2.029c5.179,1.346 10.154,2.716 14.729,4.158l11.988,-12.15c-0.529,-0.154 -0.892,-0.55 -0.729,-1.221c-1.296,2.95 -3.017,5.338 -4.171,2.813c0.162,0.354 4.616,-9.196 6.016,-8.992c0.288,0.038 -0.483,2.975 -1.62,5.667c0.637,-1.025 1.795,-0.842 2.4,-0.175l3.87,-3.925c-0.758,-0.792 -1.166,-1.759 -0.758,-2.463c0.021,-0.037 0.829,-0.454 1.875,-0.896Zm-492.254,24.079c-0.088,-0.058 -1.113,-0.991 -0.783,-1.512c1.387,-2.292 3.612,3.225 0.783,1.512Zm11.867,-164.924c-0.804,0.533 -2,-0.33 -2.459,-0.992c0.896,-0.317 1.854,0.275 2.459,0.992Zm37.575,7.47c0.995,2.18 -3.005,4.484 -4.646,1.971c-1.754,-2.687 3.741,-3.95 4.646,-1.971Zm-37.221,163.892c-0.096,-0.283 0.4,-1.238 1.121,-2.271c-0.788,0.263 -1.659,0.525 -2.43,0.784l-23.729,-23.421c7.525,-13.671 11.979,-36.354 11.829,-60.821c-0.162,-24.479 -4.929,-47.079 -12.637,-60.658l23.437,-23.725c4.73,1.541 9.917,3.016 15.371,4.445c0.121,-0.033 0.192,-0.12 0.342,-0.133c0.058,0.088 0.083,0.179 0.133,0.258c21.6,5.659 48.405,10.388 79.021,13.884c41.429,4.704 88.846,7.041 137.117,6.721c18.712,-0.121 37.287,-0.659 55.441,-1.555c-2.091,-0.008 -4.133,-0.329 -5.579,-1.271l-1.05,0.196c-0.621,0.121 -1.212,0.355 -1.825,0.6c-1.337,0.521 -2.804,1.1 -5,0.625l-1.696,-0.375l1.292,-1.191c0.538,-0.5 1.283,-0.863 1.825,-1.092c1.029,-0.429 2.946,-0.971 4.458,-0.737l-0.608,-0.692l2.525,0.387c1.533,0.225 3.554,0 5.717,-0.241c4.087,-0.454 8.708,-0.975 11.733,1.525l0.971,0.804l-1.071,0.671c-0.087,0.071 -0.212,0.121 -0.325,0.166c11.671,-0.679 23.117,-1.52 34.292,-2.516c-0.013,-0.079 -0.038,-0.163 -0,-0.254c0.425,-1.188 2.504,-1.334 2.354,-2.3c-0.825,-0.784 -3.392,-0.038 -3.288,-1.546c0.105,-1.496 2.55,-0.855 3.159,-1.338c0.079,-0.071 0.141,-0.146 0.196,-0.217c-31.875,2.926 -66.838,4.68 -103.559,4.917c-34.425,0.225 -67.291,-0.908 -97.562,-3.125c0.171,0.067 0.325,0.159 0.433,0.321c1.121,1.554 -0.887,4.071 -2.829,2.379c-1.417,-1.212 0.221,-2.571 1.579,-2.758c-7.529,-0.554 -14.954,-1.154 -22.146,-1.846c0.234,1.375 -0.187,1.896 -3.158,0.1c-3.038,-1.85 -4.017,4.996 -6.146,2.771c-1.292,-1.354 -0.825,-2.625 0.242,-3.817c-11.938,-1.271 -23.375,-2.687 -34.138,-4.3c0.792,1.646 -2.816,4.221 -5.804,2.767l-0.283,-1.2c1.304,0.362 2.225,-1.146 3.267,-2c-26.817,-4.146 -49.605,-9.321 -66.896,-15.271l-28.746,29.125c-0.021,0.037 -0.034,0.096 -0.05,0.146c8.183,11.546 13.875,34.658 14.037,61.396c0.188,26.75 -5.229,49.987 -13.275,61.612l29.221,28.842c2.692,-0.967 5.533,-1.908 8.479,-2.838c-0.079,-0.229 -0.179,-0.437 -0.337,-0.687c-1.304,-2.096 -4.542,1.25 -5.425,-1.246Zm478.566,-133.413c0.575,-1.47 1.413,-3.087 1.634,-5.325c-0.584,1.696 -1.104,3.501 -1.634,5.325Zm-19.17,-33.787c0.008,0 0.016,0.025 0.033,0.025c-0.033,-0.442 -0.083,-0.817 -0.104,-1.067c-0.4,0.134 -0.821,0.25 -1.217,0.375l1.288,0.667Zm0.829,0.479c0.325,0.192 0.667,0.396 1.054,0.558l0.712,0.305l-0.012,0.083l0.221,-0.083l0.033,0.341c0.692,0.013 1.092,0.421 1.325,0.646l0.342,0.125l-3.783,-3.737c-0.255,0.083 -0.542,0.162 -0.792,0.241c0.021,0.213 0.058,0.559 0.112,1.067c0.275,0.15 0.517,0.296 0.788,0.454Zm-106.921,88.079c-0.213,0.342 -0.387,0.567 -0.542,0.625c0.446,-0.162 0.559,-0.379 0.542,-0.625Zm19.783,-45.891c-0.062,-0.179 -0.112,-0.304 -0.175,-0.496c0.063,0.192 0.084,0.329 0.15,0.508c0.013,0 0.025,-0.012 0.025,-0.012Zm-4.483,-13.592c-0.046,-0.146 -0.013,-0.342 0.054,-0.554c-0.171,-0.067 -0.229,0.079 -0.054,0.554Zm-33.679,16.279c0.046,-0.016 0.091,-0.029 0.15,-0.029c-0.071,-0.033 -0.129,-0.046 -0.188,-0.071l0.038,0.1Zm50.192,-39.687l0.012,-0.025c-1.592,0.241 -3.113,0.5 -4.746,0.729c1.029,1.796 2.304,3.787 2.913,5.05c7.054,-1.042 13.85,-2.158 20.4,-3.325c-0.525,-0.521 -0.992,-1.146 -1.2,-2.004c-1.138,-4.705 3.366,-1.017 4.3,1.458c0.82,-0.146 1.579,-0.292 2.375,-0.454c-0.038,-0.317 0.054,-0.838 0.412,-1.858c2.046,-5.734 5.738,-2.817 4.5,0.212c-0.525,1.283 -1.546,-0.829 -1.862,-1.212c-0.013,0.337 -1.059,1.816 -1.938,2.645c18.483,-3.525 34.721,-7.55 48.192,-11.954c-0.267,-1.129 -0.671,-2.112 -1.388,-2.204l-0.771,-0.117l-0.024,-0.766c-0.021,-0.979 0.141,-1.471 0.341,-1.934c0.013,-0.045 0.029,-0.079 0.042,-0.125c-0.646,0.217 -1.275,0.434 -1.963,0.646l-0.029,1.413l-0.542,0.075c0.142,0.104 0.242,0.216 0.284,0.408c0.383,1.908 -5.809,3.95 -6.659,3.021c-0.937,-1.042 2.596,-3.142 4.863,-3.55c-0.175,-0.083 -0.371,-0.15 -0.513,-0.296c-0.07,-0.058 -0.091,-0.142 -0.137,-0.204c-17.888,5.458 -40.283,10.283 -66.025,14.221c-0.983,1.304 -1.904,2.412 -0.837,0.15Zm89.008,6.879c-0.1,0.383 0.217,0.592 0.662,0.65l-0.662,-0.65Zm-92.659,67.279c-0.112,-0.092 -0.25,-0.2 -0.408,-0.317c-0.087,0.092 -0.171,0.159 -0.254,0.205c0.183,0.033 0.421,0.054 0.662,0.112Zm-1.304,-1.008c0.325,0.233 0.617,0.479 0.896,0.691c0.088,-0.104 0.192,-0.212 0.296,-0.35c-0.342,-0.412 -0.758,-0.9 -1.354,-1.591c0.5,0.566 0.437,0.95 0.162,1.25Zm0.275,0.908c0.071,0.138 0.192,0.092 0.367,-0.012c-0.221,-0.025 -0.375,-0.025 -0.367,0.012Zm1.525,0.217c-0.166,-0.046 -0.321,-0.067 -0.496,-0.117c0.53,0.379 0.771,0.521 0.496,0.117Zm-94.121,-59.379c1.884,-0.105 3.763,-0.217 5.634,-0.317c-0.579,-0.125 -1.134,-0.308 -1.542,-0.533c-1.029,0.325 -2.504,0.654 -4.092,0.85Zm78.121,-12.23c0,0.092 -0.066,0.104 -0.22,0.038c-0.134,0.008 -0.255,0.021 -0.38,0.042l-0.208,0.5c0.408,-0.263 0.85,-0.476 1.25,-0.534c0.012,-0.046 0.033,-0.066 0.033,-0.112c-0.154,0.021 -0.308,0.058 -0.475,0.066Zm-322.441,4.125c-0.946,-0.17 -1.921,-0.341 -2.846,-0.512c0.375,0.692 0.704,1.171 1.5,1.275c0.337,0.017 0.816,-0.321 1.346,-0.763Zm329.129,-2.041c2.033,-0.9 3.054,-2.209 3.708,-3.488c-1.871,0.259 -3.767,0.521 -5.683,0.767l0.125,0.129l-0.196,0.554c-0.188,0.542 -0.492,0.921 -0.929,1.104c-0.513,0.217 -0.992,0.08 -1.346,-0.012c-0.162,-0.033 -0.371,-0.1 -0.438,-0.067l-0.516,0.409c-0.092,0.145 -0.188,0.295 -0.329,0.429c1.22,-1.329 4.275,0.771 5.604,0.175Zm-18.717,11.162c-0.025,0.096 -0.071,0.175 -0.137,0.234c-0.325,0.675 -0.338,1.591 -0.025,2.125c1.987,3.287 4.129,-1.992 2.208,-2.867c-0.979,-0.429 -1.658,-0.088 -2.046,0.508Zm100.592,140.946c-0.042,0 0.066,-1.512 0.383,-2.1c-2.321,-0.671 -4.746,-1.346 -7.221,-2.004c0.134,0.704 0.246,1.296 0.288,1.612c-1.529,-1.27 -6.892,-1.529 -7.442,-2.746c-0.079,-0.179 -0.087,-0.429 -0.046,-0.704c-20.504,-4.979 -45.212,-9.195 -73.071,-12.362c-41.42,-4.721 -88.816,-7.05 -137.087,-6.733c-48.271,0.316 -95.654,3.262 -137.021,8.529c-6.479,0.816 -12.737,1.725 -18.867,2.654c0.046,1.046 -0.241,1.942 -1.166,2.1c-0.438,-0.5 -0.438,-1.158 -0.354,-1.875c-24.305,3.737 -45.704,8.25 -63.205,13.366c1.305,0.338 2.38,0.788 2.6,1.113c0.475,0.729 0.388,2.225 -0.054,3.838c9.375,-2.717 19.842,-5.246 31.309,-7.596c-3.738,-1.375 0.762,-7.767 3.416,-0.671c15.788,-3.121 33.329,-5.858 52.304,-8.154c-0.058,-0.225 -0.125,-0.4 -0.158,-0.725c1.192,-0.296 1.617,0.066 1.688,0.546c6.408,-0.759 12.966,-1.484 19.679,-2.142c-0.171,-0.142 -0.35,-0.233 -0.525,-0.446c-0.775,-1.012 0.329,-4.062 2.646,-3.204c1.466,0.558 1.125,2.412 0.17,3.417c10.221,-0.984 20.78,-1.83 31.625,-2.55l-0.008,-0c0.446,-0.513 1.533,-0.559 2.429,-0.171c1.725,-0.113 3.484,-0.217 5.225,-0.321c0.388,-0.342 1.059,-0.342 1.771,-0.088c21.292,-1.25 43.538,-2.02 66.521,-2.171c1.408,-0.012 2.779,0.013 4.179,0c0.233,-0.054 0.454,-0.054 0.654,0c77.709,-0.224 147.404,6.338 195.871,17.038c2.075,-0.212 6.354,1.038 6.729,1.567c3.25,0.791 6.384,1.571 9.417,2.387c0.067,-0.237 0.154,-0.441 0.242,-0.554c2.308,-2.375 7.654,-0.967 7.079,-0.85Zm10.391,5.25l0.342,-0.337c-0.262,-0 -0.533,0.02 -0.741,-0.025c0.162,0.141 0.258,0.241 0.399,0.362Zm-4.12,-175.121l1.375,0.175l-0.829,1.346l-0,0.025l0.195,0.179l1.142,-0.075l-0.425,0.792l11.6,11.458c0.3,-1.079 0.975,-1.762 2.675,-1.354c1.033,0.25 1.1,3.85 2.512,6.471l2.425,2.4c0.55,0.221 1.192,0.362 1.93,0.354c0.704,0 1.216,0.154 1.62,0.438c-1,-2.688 -2.075,-5.367 -3.149,-8.042l-19.271,-19.025c-0.8,0.296 -1.73,0.583 -2.567,0.862c0.883,0.988 1.454,2.275 0.767,3.996Zm25.762,34.184c0.463,-1.155 0.946,-2.255 1.425,-3.325c-0.583,-1.759 -1.146,-3.538 -1.762,-5.3c0.07,2.758 -0.671,6.358 0.208,8.433c0.025,0.071 0.092,0.117 0.129,0.192Zm-134.117,-7.321c-0.137,0.025 -0.25,0.046 -0.375,0.058c0.034,0.192 0.034,0.429 -0.041,0.729c0.129,-0.304 0.266,-0.537 0.416,-0.787Zm130.771,16.146c-1.162,-3.713 -4.912,1.929 -4.516,2.583c-0.671,-1.096 -0.725,-2.05 -0.55,-2.992c-0.475,1.717 -0.875,3.517 -1.275,5.325c0.062,0.671 0.116,1.35 0.096,1.979c0.174,0.05 0.408,0.096 0.633,0.121c0.229,0.059 0.512,0.088 0.767,0.171c-0,-0.387 0.112,-0.842 0.495,-1.225l0.675,-0.658l0.642,0.7c0.362,0.387 0.554,0.375 1.554,-0.029c0.134,-0.059 0.296,-0.117 0.45,-0.175c0.125,-0.646 0.292,-1.271 0.442,-1.909c-0.429,-0.179 -0.758,-0.337 -0.917,-0.237c-0.262,0.179 0.096,2.929 -1.279,1.933c-3.958,-2.842 3.283,-3.937 2.783,-5.587Zm0.184,82.283c-1.109,1.75 -3.321,3.433 -4.817,2.912c1.546,5.538 3.4,10.463 5.471,14.759c0.237,0.012 0.425,0.066 0.55,0.171c0.362,0.308 0.462,0.962 0.4,1.7c0.25,0.466 0.466,1.012 0.725,1.454l-23.433,23.729c-2.088,-0.679 -4.326,-1.342 -6.563,-2c0.408,1.212 -1.367,3.133 -3.496,4.654c1.658,0.483 3.275,0.967 4.854,1.454c-0.575,-3.179 7.067,0.317 6.671,0.021c0.004,0.013 0.017,0.038 0.042,0.038c0.033,-0.317 0.387,-0.75 1.266,-1.342c0.234,-0.158 0.355,-0.263 0.492,-0.383c-0.237,-0.375 -0.479,-0.83 -0.737,-1.309c-1.496,-2.817 2.212,-0.716 3.358,0.671l3.379,-3.429c-0.246,-0.079 -0.504,-0.167 -0.779,-0.167c-1.921,-0.05 -3.746,2.438 -4.092,-0.104c1.579,-1.058 2.584,-0.412 4.004,-1.212c1.909,-1.105 1.4,-4.884 3.221,-6.292c1.45,-1.125 4.759,-0.975 5.605,-0.296l13.099,-13.271c-3.662,-5.154 -6.829,-12.658 -9.22,-21.758Zm-120.821,-98.017c0.133,0.771 -0.079,1.542 -0.4,2.279c0.204,0.15 0.387,0.238 0.633,0.23c0.258,-0.021 -0.279,-1.559 0.221,-1.73c-0.054,0.013 -0.254,-0.316 -0.454,-0.779Zm119.175,94.704c0.312,-0.008 0.571,0 0.821,0.034c-2.471,-10.571 -3.95,-23.042 -4.025,-36.421c-0.067,-11.35 0.862,-22.046 2.566,-31.513c-1.908,-0.108 -3.95,-1.058 -5.071,-2.283c-0.375,1.975 -0.716,4.008 -1.02,6.075c1.883,-1.696 4.516,-3.487 4.97,-0.262c0.163,1.216 -2.954,1.962 -5.308,2.666c-1.062,8.004 -1.629,16.554 -1.571,25.367c0.013,1.567 0.084,3.087 0.142,4.642c0.638,0.179 1.254,0.45 1.742,0.954l0.45,0.454l-0.271,0.579c-0.296,0.646 -0.721,1.088 -1.25,1.304c-0.2,0.084 -0.388,0.034 -0.579,0.059c0.591,12.137 2.295,23.591 4.916,33.433c0.854,-1.533 2.996,-5.054 3.488,-5.088Zm-129.154,-99.237c-0.313,-0.308 -0.634,-0.738 -0.959,-1.325c-2.545,-4.508 -1.096,-0.704 -3.825,-1.071c0.096,0.975 0.017,2.021 -0.066,2.921c1.616,-0.188 3.229,-0.342 4.85,-0.525Zm-16.738,13.737c-0.4,0.875 0.879,2.159 0.504,3.363c0.663,-0.729 1.717,-1.125 2.584,-1.546c-0.092,-0.125 -0.163,-0.237 -0.171,-0.354c-0.096,-0.792 0.208,-1.7 0.733,-2.45c-1.087,-0.579 -3.1,-0.154 -3.65,0.987Zm41.75,-19.166c-0.042,0.312 -0.125,1.591 0.342,2.225c0.571,-0.075 1.158,-0.146 1.733,-0.221c0.642,-1.342 -1.771,-4.396 -2.075,-2.004Zm-17.25,8.633c0.133,0.138 0.263,0.363 0.388,0.658c0.416,-0.037 0.862,-0.162 1.358,-0.533c0.083,0.146 0.121,0.283 0.196,0.408c-0.088,-0.25 -0.133,-0.504 -0.167,-0.75c-0.587,0.08 -1.192,0.146 -1.775,0.217Zm-0.658,0.067c-0.271,0.033 -0.513,0.071 -0.775,0.104c0.141,0.075 0.308,0.179 0.471,0.246c0.091,-0.113 0.187,-0.225 0.304,-0.35Zm9.196,-5.234c-1.405,-0.383 -2.892,0.35 -2.234,-2.37c0.084,-0.367 0.196,-0.617 0.375,-0.809c-0.55,0.588 -1.454,0.954 -2.179,0.717c0.283,3.746 -9.604,5.904 -4.642,-1.421c-0.529,0.783 3.538,-0.571 3.867,-0.204c0.1,0.112 0.158,0.237 0.233,0.354c0.08,-0.117 0.205,-0.204 0.288,-0.321l-0.7,-0.791c-2.742,0.333 -5.517,0.654 -8.308,0.987c-0.367,0.746 -0.713,1.363 -1.404,0.525c0.958,1.788 0.995,3.913 0.466,5.046c4.017,-0.454 8.029,-0.908 11.933,-1.404c0.784,-0.104 1.509,-0.205 2.305,-0.309Zm-94.963,195.913l3.946,12.204l3.979,-12.204l12.834,-0l-10.392,-7.529l3.958,-12.204l-10.379,7.537l-10.383,-7.537l3.979,12.204l-10.388,7.529l12.846,-0Zm-48.029,11.883l3.975,12.217l3.95,-12.217l12.842,0l-10.396,-7.537l3.979,-12.204l-10.375,7.55l-10.396,-7.55l3.967,12.204l-10.367,7.537l12.821,0Zm-48.025,-11.883l3.983,12.204l3.95,-12.204l12.83,-0l-10.388,-7.529l3.983,-12.204l-10.375,7.537l-10.387,-7.537l3.954,12.204l-10.371,7.529l12.821,-0Zm8.079,-258.925l-3.946,-12.213l-3.979,12.213l-12.833,-0l10.375,7.537l-3.954,12.196l10.391,-7.542l10.371,7.542l-3.971,-12.196l10.392,-7.537l-12.846,-0Zm96.058,-0l-3.979,-12.213l-3.958,12.213l-12.829,-0l10.375,7.537l-3.979,12.196l10.391,-7.542l10.371,7.542l-3.967,-12.196l10.388,-7.537l-12.813,-0Zm-48.033,-11.883l-3.966,-12.217l-3.955,12.217l-12.85,-0l10.396,7.537l-3.975,12.204l10.384,-7.542l10.383,7.542l-3.963,-12.204l10.379,-7.537l-12.833,-0Z" style="fill:#f63845;fill-rule:nonzero;"/><rect x="52.604" y="244.225" width="13.883" height="53.408" style="fill:#fff;fill-rule:nonzero;"/><path d="M115.646,268.096l2.621,-0c2.739,-0 4.84,-0.567 6.304,-1.7c1.464,-1.133 2.196,-2.763 2.196,-4.888c-0,-2.125 -0.732,-3.754 -2.196,-4.887c-1.464,-1.133 -3.565,-1.7 -6.304,-1.7l-2.621,-0l-0,13.175Zm30.529,29.537l-17.283,0l-13.246,-20.541l-0,20.541l-13.883,0l-0,-53.408l21.604,0c2.975,0 5.572,0.437 7.791,1.311c2.22,0.873 4.05,2.065 5.49,3.577c1.44,1.511 2.526,3.258 3.258,5.241c0.732,1.984 1.098,4.109 1.098,6.375c0,4.061 -0.98,7.355 -2.939,9.882c-1.96,2.526 -4.852,4.238 -8.677,5.135l16.787,21.887Z" style="fill:#fff;fill-rule:nonzero;"/><path d="M182.371,255.983l-16.504,0l-0,8.925l15.583,0l0,11.759l-15.583,-0l-0,9.208l16.504,0l-0,11.758l-30.388,0l0,-53.408l30.388,0l-0,11.758Z" style="fill:#fff;fill-rule:nonzero;"/><path d="M230.821,262.075c-3.211,-3.919 -7.178,-5.879 -11.9,-5.879c-2.078,-0 -4.002,0.378 -5.773,1.133c-1.771,0.756 -3.294,1.783 -4.569,3.082c-1.275,1.298 -2.278,2.845 -3.01,4.639c-0.732,1.795 -1.098,3.731 -1.098,5.808c-0,2.125 0.366,4.085 1.098,5.88c0.732,1.794 1.747,3.352 3.046,4.675c1.298,1.322 2.821,2.361 4.568,3.116c1.748,0.756 3.637,1.134 5.667,1.134c4.439,-0 8.429,-1.889 11.971,-5.667l-0,16.433l-1.417,0.496c-2.125,0.756 -4.108,1.311 -5.95,1.665c-1.841,0.354 -3.659,0.531 -5.454,0.531c-3.683,-0 -7.213,-0.697 -10.589,-2.09c-3.377,-1.393 -6.352,-3.352 -8.925,-5.879c-2.574,-2.526 -4.64,-5.525 -6.198,-8.996c-1.559,-3.47 -2.338,-7.26 -2.338,-11.368c0,-4.109 0.768,-7.875 2.302,-11.298c1.535,-3.424 3.589,-6.375 6.163,-8.854c2.573,-2.48 5.56,-4.416 8.96,-5.809c3.4,-1.393 6.965,-2.089 10.696,-2.089c2.125,-0 4.215,0.224 6.269,0.673c2.054,0.448 4.214,1.145 6.481,2.089l-0,16.575Z" style="fill:#fff;fill-rule:nonzero;"/><path d="M252.496,270.929c-0,2.125 0.401,4.085 1.204,5.879c0.803,1.795 1.889,3.353 3.258,4.675c1.37,1.323 2.964,2.35 4.782,3.082c1.818,0.732 3.742,1.098 5.773,1.098c2.03,-0 3.955,-0.366 5.773,-1.098c1.818,-0.732 3.423,-1.759 4.816,-3.082c1.393,-1.322 2.491,-2.88 3.294,-4.675c0.803,-1.794 1.204,-3.754 1.204,-5.879c0,-2.125 -0.401,-4.084 -1.204,-5.879c-0.803,-1.794 -1.901,-3.353 -3.294,-4.675c-1.393,-1.322 -2.998,-2.349 -4.816,-3.081c-1.818,-0.732 -3.743,-1.098 -5.773,-1.098c-2.031,-0 -3.955,0.366 -5.773,1.098c-1.818,0.732 -3.412,1.759 -4.782,3.081c-1.369,1.322 -2.455,2.881 -3.258,4.675c-0.803,1.795 -1.204,3.754 -1.204,5.879Zm-14.521,0c0,-3.966 0.732,-7.662 2.196,-11.085c1.464,-3.424 3.494,-6.411 6.092,-8.961c2.597,-2.55 5.702,-4.545 9.314,-5.985c3.613,-1.44 7.591,-2.16 11.936,-2.16c4.297,-0 8.264,0.72 11.9,2.16c3.636,1.44 6.764,3.435 9.385,5.985c2.621,2.55 4.663,5.537 6.127,8.961c1.464,3.423 2.196,7.119 2.196,11.085c-0,3.967 -0.732,7.662 -2.196,11.086c-1.464,3.423 -3.506,6.41 -6.127,8.96c-2.621,2.55 -5.749,4.545 -9.385,5.986c-3.636,1.44 -7.603,2.16 -11.9,2.16c-4.345,-0 -8.323,-0.72 -11.936,-2.16c-3.612,-1.441 -6.717,-3.436 -9.314,-5.986c-2.598,-2.55 -4.628,-5.537 -6.092,-8.96c-1.464,-3.424 -2.196,-7.119 -2.196,-11.086Z" style="fill:#fff;fill-rule:nonzero;"/><path d="M319.788,268.096l2.62,-0c2.739,-0 4.841,-0.567 6.305,-1.7c1.464,-1.133 2.195,-2.763 2.195,-4.888c0,-2.125 -0.731,-3.754 -2.195,-4.887c-1.464,-1.133 -3.566,-1.7 -6.305,-1.7l-2.62,-0l-0,13.175Zm30.529,29.537l-17.284,0l-13.245,-20.541l-0,20.541l-13.884,0l0,-53.408l21.604,0c2.975,0 5.573,0.437 7.792,1.311c2.22,0.873 4.049,2.065 5.49,3.577c1.44,1.511 2.526,3.258 3.258,5.241c0.732,1.984 1.098,4.109 1.098,6.375c-0,4.061 -0.98,7.355 -2.94,9.882c-1.959,2.526 -4.852,4.238 -8.677,5.135l16.788,21.887Z" style="fill:#fff;fill-rule:nonzero;"/><path d="M370.008,285.875l3.188,0c2.408,0 4.557,-0.378 6.446,-1.133c1.889,-0.756 3.482,-1.795 4.781,-3.117c1.299,-1.322 2.29,-2.892 2.975,-4.71c0.685,-1.818 1.027,-3.814 1.027,-5.986c0,-2.125 -0.354,-4.108 -1.062,-5.95c-0.709,-1.841 -1.712,-3.423 -3.011,-4.746c-1.298,-1.322 -2.892,-2.361 -4.781,-3.116c-1.889,-0.756 -4.014,-1.134 -6.375,-1.134l-3.188,0l0,29.892Zm-13.883,-41.65l20.542,0c3.636,0 7.048,0.732 10.235,2.196c3.188,1.464 5.974,3.412 8.359,5.844c2.384,2.432 4.261,5.265 5.631,8.5c1.369,3.234 2.054,6.623 2.054,10.164c-0,3.495 -0.673,6.859 -2.019,10.094c-1.346,3.235 -3.211,6.08 -5.596,8.535c-2.384,2.456 -5.17,4.416 -8.358,5.88c-3.187,1.463 -6.623,2.195 -10.306,2.195l-20.542,0l0,-53.408Z" style="fill:#fff;fill-rule:nonzero;"/><path d="M442.188,255.983l-16.505,0l0,8.925l15.584,0l-0,11.759l-15.584,-0l0,9.208l16.505,0l-0,11.758l-30.388,0l0,-53.408l30.388,0l-0,11.758Z" style="fill:#fff;fill-rule:nonzero;"/><path d="M466.058,285.875l3.188,0c2.408,0 4.557,-0.378 6.446,-1.133c1.889,-0.756 3.482,-1.795 4.781,-3.117c1.299,-1.322 2.29,-2.892 2.975,-4.71c0.685,-1.818 1.027,-3.814 1.027,-5.986c0,-2.125 -0.354,-4.108 -1.062,-5.95c-0.709,-1.841 -1.712,-3.423 -3.011,-4.746c-1.298,-1.322 -2.892,-2.361 -4.781,-3.116c-1.889,-0.756 -4.014,-1.134 -6.375,-1.134l-3.188,0l0,29.892Zm-13.883,-41.65l20.542,0c3.636,0 7.048,0.732 10.235,2.196c3.188,1.464 5.974,3.412 8.359,5.844c2.384,2.432 4.261,5.265 5.631,8.5c1.369,3.234 2.054,6.623 2.054,10.164c-0,3.495 -0.673,6.859 -2.019,10.094c-1.346,3.235 -3.211,6.08 -5.596,8.535c-2.384,2.456 -5.17,4.416 -8.358,5.88c-3.187,1.463 -6.623,2.195 -10.306,2.195l-20.542,0l0,-53.408Z" style="fill:#fff;fill-rule:nonzero;"/></svg>