<?xml version="1.0" encoding="UTF-8" standalone="no"?><!DOCTYPE svg PUBLIC "-//W3C//DTD SVG 1.1//EN" "http://www.w3.org/Graphics/SVG/1.1/DTD/svg11.dtd"><svg width="100%" height="100%" viewBox="0 0 546 546" version="1.1" xmlns="http://www.w3.org/2000/svg" xmlns:xlink="http://www.w3.org/1999/xlink" xml:space="preserve" xmlns:serif="http://www.serif.com/" style="fill-rule:evenodd;clip-rule:evenodd;stroke-linejoin:round;stroke-miterlimit:2;"><rect id="search_source_text-default" x="1.898" y="0.209" width="541.825" height="541.612" style="fill:none;"/><path d="M271.613,299.445c19.166,0 34.948,-15.782 34.948,-34.948c-0,-19.133 -15.816,-34.948 -34.982,-34.948c-19.133,-0 -34.915,15.815 -34.915,34.948c0,19.166 15.782,34.948 34.949,34.948Zm-3.519,-24.058c-7.974,-0 -14.575,-6.601 -14.575,-14.576c-0,-8.008 6.601,-14.643 14.575,-14.643c8.009,0 14.576,6.601 14.576,14.643c0,2.781 -0.804,5.361 -2.178,7.573l8.042,8.075c0.737,0.704 1.106,1.608 1.106,2.547c-0,2.111 -1.475,3.618 -3.519,3.618c-1.105,0 -1.977,-0.368 -2.781,-1.206l-8.075,-8.008c-2.111,1.24 -4.557,1.977 -7.171,1.977Zm0,-5.529c4.959,0 9.047,-4.088 9.047,-9.047c0,-5.026 -4.088,-9.08 -9.047,-9.08c-4.959,-0 -9.047,4.087 -9.047,9.08c0,4.959 4.088,9.047 9.047,9.047Z" style="fill:#aeaeae;fill-rule:nonzero;"/><g><path d="M121.598,273.528c0.336,17.477 15.031,31.447 32.637,30.992c17.606,-0.455 31.778,-15.172 31.441,-32.65c-0.336,-17.477 -15.06,-31.417 -32.666,-30.961c-17.606,0.455 -31.749,15.141 -31.412,32.619Zm9.294,-0.24c-0.24,-12.48 9.724,-22.827 22.296,-23.152c12.601,-0.326 22.924,9.496 23.164,21.976c0.24,12.479 -9.694,22.826 -22.295,23.152c-12.572,0.325 -22.924,-9.467 -23.165,-21.976Zm13.087,-3.002c0.037,1.952 0.55,3.803 1.416,5.437l-5.639,5.916c-0.76,0.789 -1.099,1.715 -1.079,2.75c0.04,2.099 1.649,3.626 3.794,3.57c0.953,-0.024 1.87,-0.403 2.63,-1.162l5.64,-5.857c1.746,0.902 3.752,1.383 5.897,1.327c6.792,-0.176 12.286,-5.88 12.156,-12.623c-0.13,-6.742 -5.868,-12.186 -12.63,-12.011c-6.822,0.176 -12.315,5.911 -12.185,12.653Zm5.511,-0.142c-0.073,-3.756 2.936,-6.941 6.779,-7.04c3.783,-0.098 6.911,2.928 6.984,6.684c0.072,3.755 -2.938,6.881 -6.721,6.979c-3.843,0.099 -6.97,-2.868 -7.042,-6.623Z" style="fill:#aeaeae;fill-rule:nonzero;"/><path d="M143.742,349.072c9.126,14.889 28.949,19.601 44.008,10.436c15.06,-9.165 19.928,-28.904 10.802,-43.793c-9.127,-14.889 -28.96,-19.56 -44.019,-10.395c-15.06,9.165 -19.918,28.864 -10.791,43.752Zm7.95,-4.838c-6.517,-10.631 -3.094,-24.51 7.659,-31.054c10.779,-6.56 24.708,-3.242 31.225,7.389c6.517,10.631 3.119,24.494 -7.659,31.054c-10.753,6.544 -24.693,3.267 -31.225,-7.389Zm9.847,-9.106c1.019,1.662 2.4,3.001 3.978,3.978l-1.906,7.905c-0.261,1.059 -0.088,2.026 0.452,2.907c1.097,1.789 3.266,2.302 5.1,1.186c0.816,-0.497 1.42,-1.28 1.697,-2.313l1.937,-7.855c1.972,-0.093 3.957,-0.679 5.792,-1.795c5.81,-3.536 7.697,-11.188 4.176,-16.931c-3.521,-5.744 -11.256,-7.575 -17.04,-4.054c-5.835,3.551 -7.707,11.228 -4.186,16.972Zm4.714,-2.869c-1.961,-3.2 -0.958,-7.442 2.329,-9.443c3.236,-1.969 7.482,-0.921 9.443,2.278c1.962,3.199 0.928,7.392 -2.308,9.361c-3.287,2.001 -7.503,1.003 -9.464,-2.196Z" style="fill:#aeaeae;fill-rule:nonzero;"/><path d="M201.254,403.099c15.471,8.244 35.055,2.382 43.465,-13.036c8.41,-15.418 2.616,-34.836 -12.855,-43.079c-15.471,-8.244 -35.043,-2.342 -43.453,13.076c-8.41,15.418 -2.628,34.796 12.843,43.039Zm4.44,-8.139c-11.047,-5.886 -15.121,-19.539 -9.116,-30.548c6.02,-11.035 19.785,-15.149 30.832,-9.263c11.047,5.886 15.135,19.513 9.116,30.548c-6.006,11.009 -19.759,15.163 -30.832,9.263Zm3.92,-12.76c1.728,0.92 3.604,1.381 5.469,1.432l2.358,7.755c0.311,1.041 0.951,1.786 1.868,2.275c1.858,0.99 4,0.346 5.024,-1.532c0.456,-0.835 0.583,-1.811 0.298,-2.838l-2.305,-7.727c1.663,-1.067 3.087,-2.563 4.112,-4.442c3.244,-5.948 0.998,-13.475 -4.97,-16.655c-5.969,-3.18 -13.606,-0.886 -16.836,5.036c-3.259,5.975 -0.987,13.515 4.982,16.696Zm2.632,-4.827c-3.324,-1.771 -4.607,-5.923 -2.771,-9.288c1.807,-3.313 6.021,-4.536 9.346,-2.765c3.324,1.772 4.555,5.896 2.748,9.209c-1.836,3.365 -5.998,4.616 -9.323,2.844Z" style="fill:#aeaeae;fill-rule:nonzero;"/><path d="M278.332,421.022c17.604,-0.579 31.672,-15.365 31.211,-32.839c-0.462,-17.474 -15.286,-31.338 -32.889,-30.759c-17.603,0.579 -31.641,15.393 -31.18,32.867c0.461,17.474 15.255,31.31 32.858,30.731Zm-0.243,-9.225c-12.569,0.414 -22.992,-9.334 -23.322,-21.812c-0.33,-12.506 9.562,-22.893 22.131,-23.307c12.57,-0.413 22.992,9.305 23.322,21.812c0.329,12.477 -9.532,22.893 -22.131,23.307Zm-3.025,-12.951c1.966,-0.064 3.83,-0.599 5.476,-1.482l5.959,5.515c0.795,0.744 1.727,1.068 2.77,1.034c2.115,-0.07 3.652,-1.689 3.596,-3.818c-0.025,-0.946 -0.407,-1.851 -1.172,-2.595l-5.899,-5.517c0.908,-1.746 1.392,-3.745 1.335,-5.874c-0.177,-6.741 -5.924,-12.115 -12.715,-11.892c-6.791,0.224 -12.273,5.997 -12.096,12.709c0.179,6.77 5.955,12.144 12.746,11.92Zm-0.144,-5.469c-3.783,0.124 -6.991,-2.818 -7.091,-6.633c-0.1,-3.755 2.947,-6.903 6.73,-7.027c3.783,-0.125 6.931,2.82 7.03,6.575c0.101,3.814 -2.886,6.96 -6.669,7.085Z" style="fill:#aeaeae;fill-rule:nonzero;"/><path d="M354.457,397.972c14.995,-9.269 19.74,-29.016 10.508,-43.84c-9.231,-14.825 -29.113,-19.383 -44.108,-10.114c-14.996,9.269 -19.7,29.025 -10.468,43.849c9.232,14.824 29.073,19.374 44.068,10.105Zm-4.874,-7.826c-10.707,6.618 -24.686,3.413 -31.278,-7.172c-6.607,-10.61 -3.266,-24.487 7.441,-31.105c10.707,-6.619 24.67,-3.439 31.278,7.171c6.592,10.586 3.292,24.471 -7.441,31.106Zm-9.172,-9.651c1.674,-1.035 3.023,-2.424 4.006,-4.005l7.963,1.783c1.066,0.244 2.04,0.059 2.928,-0.49c1.801,-1.113 2.318,-3.274 1.193,-5.08c-0.499,-0.803 -1.288,-1.392 -2.329,-1.652l-7.911,-1.814c-0.094,-1.957 -0.684,-3.92 -1.809,-5.726c-3.562,-5.719 -11.268,-7.486 -17.053,-3.91c-5.785,3.576 -7.628,11.281 -4.082,16.975c3.577,5.744 11.309,7.495 17.094,3.919Zm-2.89,-4.64c-3.222,1.992 -7.495,1.055 -9.51,-2.181c-1.984,-3.185 -0.929,-7.416 2.293,-9.407c3.223,-1.992 7.445,-1.024 9.429,2.162c2.015,3.235 1.01,7.434 -2.212,9.426Z" style="fill:#aeaeae;fill-rule:nonzero;"/><path d="M408.861,340.154c8.31,-15.471 2.415,-34.836 -13.11,-42.979c-15.525,-8.144 -35.085,-2.13 -43.395,13.341c-8.31,15.471 -2.375,34.824 13.151,42.968c15.525,8.143 35.044,2.142 43.354,-13.33Zm-8.196,-4.298c-5.933,11.047 -19.686,15.275 -30.771,9.46c-11.112,-5.828 -15.249,-19.44 -9.316,-30.487c5.934,-11.047 19.66,-15.289 30.772,-9.461c11.086,5.815 15.263,19.414 9.315,30.488Zm-12.85,-3.721c0.928,-1.728 1.393,-3.597 1.445,-5.449l7.812,-2.446c1.049,-0.322 1.8,-0.968 2.292,-1.884c0.998,-1.859 0.351,-3.977 -1.54,-4.969c-0.841,-0.441 -1.824,-0.554 -2.858,-0.257l-7.784,2.393c-1.074,-1.637 -2.581,-3.032 -4.472,-4.024c-5.99,-3.141 -13.572,-0.81 -16.777,5.158c-3.206,5.969 -0.899,13.521 5.064,16.649c6.016,3.155 13.612,0.798 16.818,-5.171Zm-4.86,-2.549c-1.786,3.325 -5.968,4.654 -9.356,2.877c-3.337,-1.75 -4.566,-5.918 -2.78,-9.243c1.785,-3.324 5.939,-4.602 9.276,-2.852c3.388,1.778 4.646,5.893 2.86,9.218Z" style="fill:#aeaeae;fill-rule:nonzero;"/><path d="M426.943,263.371c-0.58,-17.47 -15.47,-31.235 -33.069,-30.537c-17.6,0.697 -31.567,15.606 -30.986,33.076c0.58,17.469 15.499,31.203 33.098,30.506c17.6,-0.698 31.538,-15.576 30.957,-33.045Zm-9.291,0.368c0.415,12.474 -9.405,22.956 -21.972,23.454c-12.597,0.5 -23.057,-9.179 -23.471,-21.653c-0.415,-12.474 9.375,-22.955 21.972,-23.454c12.567,-0.498 23.056,9.149 23.471,21.653Zm-13.044,3.181c-0.065,-1.951 -0.603,-3.794 -1.492,-5.417l5.556,-5.992c0.748,-0.799 1.075,-1.729 1.041,-2.764c-0.07,-2.099 -1.7,-3.603 -3.844,-3.518c-0.953,0.038 -1.865,0.429 -2.614,1.199l-5.558,5.933c-1.759,-0.878 -3.772,-1.331 -5.916,-1.246c-6.789,0.269 -12.203,6.048 -11.979,12.788c0.224,6.74 6.038,12.103 12.797,11.835c6.82,-0.27 12.233,-6.079 12.009,-12.818Zm-5.509,0.218c0.124,3.754 -2.84,6.979 -6.681,7.132c-3.782,0.15 -6.953,-2.832 -7.077,-6.587c-0.125,-3.754 2.841,-6.92 6.623,-7.07c3.841,-0.152 7.01,2.771 7.135,6.525Z" style="fill:#aeaeae;fill-rule:nonzero;"/><path d="M403.727,188.101c-9.339,-14.757 -29.229,-19.19 -44.158,-9.816c-14.928,9.375 -19.516,29.179 -10.177,43.937c9.339,14.757 29.238,19.15 44.167,9.775c14.929,-9.375 19.507,-29.138 10.168,-43.896Zm-7.881,4.949c6.668,10.538 3.443,24.462 -7.217,31.156c-10.685,6.71 -24.662,3.588 -31.33,-6.949c-6.669,-10.538 -3.469,-24.446 7.216,-31.156c10.66,-6.694 24.647,-3.613 31.331,6.949Zm-9.718,9.243c-1.043,-1.648 -2.443,-2.967 -4.035,-3.921l1.794,-7.931c0.246,-1.062 0.059,-2.026 -0.494,-2.9c-1.122,-1.773 -3.298,-2.256 -5.117,-1.114c-0.808,0.508 -1.401,1.299 -1.663,2.336l-1.826,7.881c-1.97,0.121 -3.947,0.734 -5.766,1.876c-5.759,3.617 -7.538,11.293 -3.935,16.987c3.603,5.693 11.364,7.414 17.098,3.814c5.785,-3.633 7.547,-11.335 3.944,-17.028Zm-4.673,2.935c2.007,3.171 1.064,7.427 -2.194,9.473c-3.208,2.015 -7.469,1.027 -9.476,-2.145c-2.007,-3.171 -1.033,-7.377 2.175,-9.391c3.259,-2.047 7.488,-1.109 9.495,2.063Z" style="fill:#aeaeae;fill-rule:nonzero;"/><path d="M345.523,134.931c-15.582,-8.036 -35.087,-1.914 -43.288,13.614c-8.202,15.527 -2.145,34.864 13.437,42.9c15.583,8.035 35.075,1.874 43.277,-13.654c8.202,-15.527 2.157,-34.824 -13.426,-42.86Zm-4.329,8.197c11.126,5.738 15.385,19.334 9.528,30.421c-5.87,11.114 -19.579,15.41 -30.706,9.672c-11.126,-5.738 -15.399,-19.307 -9.529,-30.421c5.857,-11.087 19.554,-15.423 30.707,-9.672Zm-3.747,12.81c-1.741,-0.897 -3.624,-1.333 -5.489,-1.359l-2.463,-7.722c-0.325,-1.037 -0.975,-1.773 -1.898,-2.249c-1.872,-0.966 -4.005,-0.294 -5.004,1.598c-0.445,0.841 -0.558,1.818 -0.26,2.841l2.41,7.695c-1.648,1.089 -3.053,2.604 -4.052,4.496c-3.164,5.99 -0.816,13.486 5.195,16.586c6.012,3.1 13.618,0.704 16.768,-5.26c3.178,-6.016 0.804,-13.525 -5.207,-16.626Zm-2.568,4.861c3.349,1.727 4.688,5.861 2.897,9.25c-1.762,3.336 -5.96,4.615 -9.308,2.888c-3.349,-1.727 -4.635,-5.833 -2.873,-9.17c1.79,-3.389 5.936,-4.695 9.284,-2.968Z" style="fill:#aeaeae;fill-rule:nonzero;"/><path d="M268.045,118.051c-17.595,0.835 -31.445,15.822 -30.726,33.285c0.719,17.464 15.747,31.11 33.342,30.275c17.594,-0.835 31.413,-15.85 30.695,-33.314c-0.719,-17.463 -15.717,-31.081 -33.311,-30.246Zm0.379,9.219c12.563,-0.596 23.13,8.998 23.643,21.468c0.515,12.499 -9.224,23.028 -21.787,23.624c-12.563,0.596 -23.129,-8.969 -23.643,-21.468c-0.513,-12.47 9.194,-23.026 21.787,-23.624Zm3.216,12.904c-1.965,0.093 -3.821,0.655 -5.454,1.562l-6.04,-5.428c-0.806,-0.731 -1.743,-1.042 -2.785,-0.993c-2.114,0.1 -3.628,1.741 -3.54,3.869c0.039,0.946 0.434,1.845 1.21,2.578l5.98,5.43c-0.882,1.759 -1.336,3.764 -1.249,5.892c0.278,6.737 6.103,12.027 12.891,11.705c6.788,-0.323 12.185,-6.174 11.908,-12.882c-0.278,-6.767 -6.133,-12.055 -12.921,-11.733Zm0.225,5.467c3.781,-0.18 7.032,2.715 7.189,6.527c0.154,3.753 -2.846,6.945 -6.627,7.124c-3.781,0.18 -6.973,-2.718 -7.127,-6.471c-0.157,-3.812 2.784,-7.001 6.565,-7.18Z" style="fill:#aeaeae;fill-rule:nonzero;"/><path d="M192.317,142.155c-14.863,9.478 -19.327,29.288 -9.884,43.979c9.443,14.692 29.389,18.971 44.253,9.493c14.863,-9.477 19.286,-29.296 9.843,-43.987c-9.443,-14.692 -29.348,-18.962 -44.212,-9.485Zm4.985,7.756c10.614,-6.767 24.638,-3.758 31.38,6.732c6.759,10.515 3.616,24.436 -6.998,31.203c-10.613,6.768 -24.621,3.784 -31.379,-6.731c-6.743,-10.491 -3.641,-24.42 6.997,-31.204Zm9.31,9.52c-1.66,1.058 -2.989,2.466 -3.95,4.061l-7.987,-1.671c-1.07,-0.229 -2.041,-0.031 -2.921,0.531c-1.786,1.138 -2.272,3.306 -1.122,5.096c0.512,0.795 1.309,1.373 2.353,1.619l7.938,1.702c0.121,1.955 0.739,3.91 1.89,5.699c3.643,5.668 11.374,7.327 17.109,3.671c5.734,-3.657 7.467,-11.386 3.84,-17.029c-3.659,-5.693 -11.416,-7.335 -17.15,-3.679Zm2.956,4.599c3.194,-2.037 7.48,-1.16 9.541,2.047c2.03,3.157 1.035,7.401 -2.159,9.438c-3.194,2.037 -7.43,1.128 -9.46,-2.029c-2.061,-3.207 -1.116,-7.419 2.078,-9.456Z" style="fill:#aeaeae;fill-rule:nonzero;"/><path d="M138.774,200.647c-8.101,15.579 -1.944,34.862 13.691,42.797c15.635,7.935 35.114,1.662 43.215,-13.917c8.1,-15.579 1.904,-34.85 -13.732,-42.785c-15.635,-7.935 -35.074,-1.674 -43.174,13.905Zm8.254,4.189c5.784,-11.124 19.479,-15.535 30.644,-9.869c11.19,5.679 15.511,19.233 9.727,30.357c-5.784,11.124 -19.453,15.548 -30.644,9.869c-11.164,-5.666 -15.525,-19.207 -9.727,-30.357Zm12.9,3.548c-0.904,1.74 -1.345,3.616 -1.371,5.468l-7.779,2.549c-1.044,0.336 -1.787,0.992 -2.266,1.915c-0.974,1.871 -0.298,3.98 1.607,4.947c0.846,0.429 1.831,0.529 2.862,0.219l7.751,-2.496c1.096,1.622 2.622,2.996 4.526,3.963c6.032,3.061 13.583,0.63 16.708,-5.381c3.125,-6.01 0.715,-13.53 -5.29,-16.577c-6.058,-3.075 -13.623,-0.617 -16.748,5.393Zm4.895,2.484c1.74,-3.348 5.905,-4.733 9.317,-3.001c3.36,1.706 4.646,5.856 2.905,9.204c-1.741,3.348 -5.877,4.68 -9.237,2.975c-3.413,-1.732 -4.726,-5.83 -2.985,-9.178Z" style="fill:#aeaeae;fill-rule:nonzero;"/></g><g><path d="M180.062,242.486c-2.799,10.653 3.709,21.646 14.46,24.394c10.751,2.749 21.87,-3.738 24.668,-14.39c2.799,-10.653 -3.732,-21.632 -14.483,-24.381c-10.75,-2.748 -21.847,3.725 -24.645,14.377Zm5.675,1.451c1.999,-7.606 9.816,-12.167 17.493,-10.204c7.695,1.967 12.265,9.695 10.267,17.301c-1.999,7.607 -9.798,12.172 -17.493,10.204c-7.677,-1.962 -12.27,-9.676 -10.267,-17.301Zm8.449,0.429c-0.313,1.19 -0.32,2.4 -0.076,3.539l-4.434,2.617c-0.596,0.348 -0.961,0.851 -1.127,1.482c-0.336,1.28 0.377,2.481 1.687,2.816c0.582,0.149 1.202,0.077 1.794,-0.253l4.424,-2.581c0.904,0.847 2.038,1.483 3.347,1.818c4.148,1.06 8.458,-1.454 9.538,-5.564c1.079,-4.11 -1.464,-8.395 -5.593,-9.451c-4.166,-1.065 -8.481,1.467 -9.56,5.577Zm3.365,0.86c0.601,-2.289 2.972,-3.702 5.319,-3.102c2.31,0.59 3.686,2.962 3.085,5.251c-0.601,2.289 -2.963,3.667 -5.273,3.076c-2.347,-0.6 -3.732,-2.936 -3.131,-5.225Z" style="fill:#aeaeae;fill-rule:nonzero;"/><path d="M180.507,292.085c2.975,10.593 14.181,16.855 24.885,13.886c10.703,-2.968 17.046,-14.098 14.071,-24.691c-2.975,-10.593 -14.195,-16.833 -24.898,-13.864c-10.703,2.969 -17.033,14.075 -14.058,24.669Zm5.65,-1.568c-2.124,-7.564 2.336,-15.389 9.978,-17.509c7.661,-2.124 15.535,2.28 17.659,9.844c2.124,7.564 -2.317,15.384 -9.978,17.509c-7.642,2.12 -15.529,-2.262 -17.659,-9.844Zm7.534,-3.828c0.332,1.183 0.939,2.232 1.728,3.095l-2.514,4.465c-0.34,0.596 -0.401,1.212 -0.225,1.84c0.358,1.272 1.584,1.956 2.888,1.594c0.58,-0.16 1.081,-0.531 1.426,-1.11l2.524,-4.429c1.211,0.282 2.515,0.269 3.819,-0.093c4.13,-1.145 6.588,-5.46 5.44,-9.546c-1.147,-4.087 -5.521,-6.525 -9.633,-5.385c-4.147,1.15 -6.6,5.482 -5.453,9.569Zm3.351,-0.929c-0.64,-2.277 0.697,-4.676 3.034,-5.324c2.3,-0.638 4.694,0.727 5.333,3.003c0.639,2.276 -0.708,4.64 -3.008,5.278c-2.336,0.648 -4.72,-0.681 -5.359,-2.957Z" style="fill:#aeaeae;fill-rule:nonzero;"/><path d="M206.089,334.716c7.962,7.655 20.841,7.466 28.588,-0.436c7.747,-7.902 7.57,-20.668 -0.392,-28.323c-7.963,-7.654 -20.841,-7.439 -28.588,0.462c-7.746,7.902 -7.57,20.642 0.392,28.297Zm4.09,-4.172c-5.686,-5.466 -5.81,-14.441 -0.278,-20.083c5.545,-5.656 14.595,-5.785 20.281,-0.319c5.685,5.466 5.823,14.429 0.278,20.084c-5.532,5.642 -14.582,5.797 -20.281,0.318Zm4.568,-7.061c0.889,0.854 1.948,1.457 3.069,1.807l0.097,5.107c0.01,0.684 0.27,1.246 0.742,1.699c0.956,0.92 2.365,0.898 3.309,-0.065c0.419,-0.428 0.664,-0.998 0.668,-1.669l-0.07,-5.08c1.191,-0.361 2.312,-1.024 3.256,-1.986c2.988,-3.049 2.92,-7.997 -0.152,-10.95c-3.072,-2.954 -8.095,-2.875 -11.071,0.16c-3.002,3.062 -2.92,8.023 0.152,10.977Zm2.425,-2.474c-1.711,-1.645 -1.775,-4.382 -0.085,-6.107c1.665,-1.698 4.43,-1.715 6.141,-0.07c1.711,1.645 1.748,4.356 0.084,6.054c-1.691,1.725 -4.429,1.768 -6.14,0.123Z" style="fill:#aeaeae;fill-rule:nonzero;"/><path d="M249.734,358.822c10.77,2.673 21.839,-3.873 24.561,-14.545c2.722,-10.672 -3.882,-21.623 -14.653,-24.296c-10.77,-2.673 -21.825,3.895 -24.547,14.567c-2.722,10.672 3.869,21.601 14.639,24.274Zm1.437,-5.634c-7.69,-1.909 -12.334,-9.609 -10.39,-17.229c1.949,-7.638 9.729,-12.235 17.42,-10.326c7.69,1.908 12.338,9.59 10.39,17.228c-1.944,7.62 -9.711,12.24 -17.42,10.327Zm0.392,-8.37c1.202,0.298 2.424,0.294 3.574,0.042l2.664,4.367c0.354,0.587 0.864,0.944 1.502,1.102c1.294,0.321 2.504,-0.396 2.835,-1.696c0.148,-0.578 0.072,-1.192 -0.264,-1.775l-2.628,-4.358c0.85,-0.902 1.487,-2.031 1.819,-3.331c1.05,-4.117 -1.51,-8.362 -5.665,-9.393c-4.155,-1.031 -8.47,1.527 -9.516,5.626c-1.055,4.135 1.523,8.384 5.679,9.416Zm0.852,-3.341c-2.315,-0.574 -3.754,-2.909 -3.16,-5.238c0.585,-2.294 2.973,-3.679 5.288,-3.104c2.314,0.574 3.717,2.9 3.132,5.193c-0.594,2.329 -2.946,3.724 -5.26,3.149Z" style="fill:#aeaeae;fill-rule:nonzero;"/><path d="M299.84,357.927c10.682,-3.043 16.951,-14.198 13.902,-24.771c-3.05,-10.572 -14.319,-16.751 -25.001,-13.708c-10.683,3.043 -16.928,14.21 -13.879,24.783c3.05,10.572 14.296,16.738 24.978,13.696Zm-1.61,-5.582c-7.628,2.173 -15.551,-2.172 -17.728,-9.721c-2.183,-7.567 2.226,-15.404 9.854,-17.577c7.627,-2.173 15.545,2.154 17.728,9.721c2.178,7.549 -2.208,15.4 -9.854,17.577Zm-3.902,-7.425c1.193,-0.34 2.249,-0.951 3.116,-1.74l4.521,2.449c0.604,0.331 1.226,0.386 1.859,0.206c1.283,-0.366 1.968,-1.587 1.596,-2.875c-0.165,-0.572 -0.542,-1.065 -1.128,-1.401l-4.484,-2.459c0.279,-1.202 0.259,-2.494 -0.113,-3.782c-1.176,-4.078 -5.545,-6.473 -9.666,-5.3c-4.121,1.174 -6.562,5.528 -5.39,9.589c1.181,4.097 5.568,6.487 9.689,5.313Zm-0.955,-3.31c-2.295,0.654 -4.725,-0.648 -5.39,-2.955c-0.656,-2.272 0.711,-4.655 3.006,-5.309c2.296,-0.654 4.689,0.658 5.344,2.93c0.666,2.308 -0.664,4.68 -2.96,5.334Z" style="fill:#aeaeae;fill-rule:nonzero;"/><path d="M342.752,332.225c7.695,-7.951 7.448,-20.703 -0.564,-28.306c-8.012,-7.604 -20.902,-7.319 -28.597,0.632c-7.696,7.951 -7.422,20.702 0.59,28.306c8.012,7.603 20.876,7.319 28.571,-0.632Zm-4.23,-4.014c-5.495,5.677 -14.558,5.878 -20.279,0.448c-5.734,-5.442 -5.904,-14.404 -0.409,-20.081c5.495,-5.677 14.544,-5.891 20.279,-0.449c5.721,5.43 5.917,14.391 0.409,20.082Zm-7.15,-4.463c0.859,-0.888 1.462,-1.941 1.812,-3.055l5.155,-0.14c0.691,-0.016 1.258,-0.278 1.714,-0.749c0.924,-0.955 0.896,-2.35 -0.081,-3.277c-0.433,-0.411 -1.01,-0.649 -1.688,-0.647l-5.129,0.114c-0.37,-1.177 -1.044,-2.281 -2.02,-3.208c-3.091,-2.933 -8.088,-2.822 -11.056,0.245c-2.969,3.067 -2.868,8.042 0.21,10.962c3.104,2.946 8.114,2.822 11.083,-0.245Zm-2.508,-2.38c-1.654,1.708 -4.418,1.796 -6.166,0.136c-1.722,-1.634 -1.751,-4.372 -0.098,-6.08c1.654,-1.709 4.391,-1.769 6.113,-0.135c1.749,1.659 1.804,4.37 0.151,6.079Z" style="fill:#aeaeae;fill-rule:nonzero;"/><path d="M366.904,288.786c2.649,-10.69 -4.012,-21.592 -14.8,-24.193c-10.789,-2.6 -21.817,4.038 -24.466,14.727c-2.649,10.69 4.035,21.578 14.823,24.179c10.789,2.601 21.794,-4.024 24.443,-14.713Zm-5.695,-1.373c-1.892,7.632 -9.645,12.3 -17.349,10.443c-7.722,-1.862 -12.4,-9.526 -10.508,-17.158c1.892,-7.633 9.627,-12.305 17.349,-10.444c7.703,1.857 12.404,9.508 10.508,17.159Zm-8.454,-0.313c0.296,-1.194 0.286,-2.404 0.026,-3.54l4.397,-2.678c0.591,-0.356 0.949,-0.863 1.106,-1.496c0.319,-1.285 -0.411,-2.477 -1.726,-2.793c-0.584,-0.141 -1.203,-0.061 -1.79,0.277l-4.388,2.642c-0.916,-0.834 -2.058,-1.455 -3.373,-1.771c-4.162,-1.004 -8.436,1.569 -9.458,5.693c-1.022,4.124 1.581,8.374 5.724,9.373c4.181,1.008 8.46,-1.583 9.482,-5.707Zm-3.377,-0.814c-0.57,2.297 -2.92,3.743 -5.275,3.175c-2.319,-0.559 -3.728,-2.911 -3.159,-5.208c0.569,-2.297 2.911,-3.707 5.23,-3.148c2.355,0.567 3.773,2.884 3.204,5.181Z" style="fill:#aeaeae;fill-rule:nonzero;"/><path d="M365.761,239.17c-3.125,-10.551 -14.421,-16.655 -25.081,-13.537c-10.66,3.118 -16.843,14.335 -13.718,24.886c3.126,10.55 14.435,16.631 25.095,13.513c10.66,-3.118 16.83,-14.312 13.704,-24.862Zm-5.627,1.646c2.232,7.533 -2.116,15.42 -9.727,17.646c-7.63,2.232 -15.567,-2.061 -17.799,-9.595c-2.232,-7.533 2.097,-15.414 9.727,-17.646c7.612,-2.227 15.561,2.043 17.799,9.595Zm-7.479,3.933c-0.349,-1.178 -0.971,-2.218 -1.772,-3.07l2.45,-4.5c0.331,-0.601 0.384,-1.218 0.199,-1.842c-0.376,-1.268 -1.612,-1.934 -2.911,-1.554c-0.577,0.168 -1.073,0.546 -1.41,1.13l-2.46,4.463c-1.215,-0.265 -2.519,-0.233 -3.818,0.147c-4.112,1.203 -6.509,5.551 -5.303,9.621c1.206,4.07 5.614,6.447 9.709,5.249c4.131,-1.208 6.522,-5.574 5.316,-9.644Zm-3.337,0.976c0.672,2.267 -0.631,4.685 -2.958,5.366c-2.29,0.67 -4.704,-0.661 -5.375,-2.928c-0.672,-2.267 0.641,-4.649 2.932,-5.32c2.327,-0.68 4.729,0.615 5.401,2.882Z" style="fill:#aeaeae;fill-rule:nonzero;"/><path d="M339.613,196.939c-8.065,-7.548 -20.94,-7.188 -28.58,0.816c-7.639,8.003 -7.289,20.766 0.776,28.314c8.066,7.548 20.94,7.162 28.58,-0.842c7.639,-8.004 7.29,-20.74 -0.776,-28.288Zm-4.033,4.226c5.76,5.389 6.005,14.362 0.551,20.077c-5.468,5.729 -14.517,5.978 -20.276,0.588c-5.759,-5.389 -6.018,-14.349 -0.55,-20.078c5.455,-5.714 14.503,-5.99 20.275,-0.587Zm-4.472,7.121c-0.9,-0.843 -1.967,-1.431 -3.093,-1.767l-0.167,-5.104c-0.018,-0.684 -0.286,-1.243 -0.764,-1.69c-0.969,-0.906 -2.377,-0.865 -3.308,0.11c-0.414,0.433 -0.651,1.006 -0.646,1.677l0.14,5.079c-1.187,0.377 -2.298,1.054 -3.229,2.029c-2.947,3.088 -2.812,8.035 0.3,10.947c3.111,2.912 8.134,2.766 11.068,-0.308c2.96,-3.101 2.811,-8.061 -0.301,-10.973Zm-2.391,2.506c1.733,1.622 1.835,4.357 0.167,6.104c-1.641,1.72 -4.406,1.774 -6.139,0.152c-1.733,-1.622 -1.807,-4.332 -0.166,-6.052c1.668,-1.747 4.405,-1.827 6.138,-0.204Z" style="fill:#aeaeae;fill-rule:nonzero;"/><path d="M295.546,173.396c-10.809,-2.516 -21.779,4.189 -24.344,14.899c-2.564,10.71 4.202,21.564 15.011,24.08c10.809,2.517 21.766,-4.211 24.33,-14.921c2.564,-10.71 -4.188,-21.541 -14.997,-24.058Zm-1.353,5.654c7.718,1.797 12.475,9.428 10.644,17.076c-1.836,7.665 -9.548,12.374 -17.266,10.577c-7.718,-1.797 -12.479,-9.41 -10.644,-17.075c1.831,-7.648 9.529,-12.379 17.266,-10.578Zm-0.268,8.375c-1.207,-0.281 -2.429,-0.26 -3.574,0.009l-2.729,-4.327c-0.363,-0.582 -0.878,-0.932 -1.518,-1.081c-1.299,-0.302 -2.498,0.433 -2.81,1.737c-0.139,0.58 -0.054,1.193 0.29,1.771l2.693,4.319c-0.837,0.915 -1.457,2.052 -1.77,3.357c-0.989,4.132 1.634,8.339 5.804,9.31c4.17,0.971 8.446,-1.649 9.431,-5.763c0.994,-4.15 -1.647,-8.361 -5.817,-9.332Zm-0.803,3.352c2.323,0.541 3.797,2.855 3.237,5.192c-0.551,2.302 -2.919,3.721 -5.241,3.18c-2.323,-0.541 -3.76,-2.846 -3.209,-5.147c0.56,-2.338 2.891,-3.766 5.213,-3.225Z" style="fill:#aeaeae;fill-rule:nonzero;"/><path d="M245.5,174.999c-10.638,3.191 -16.747,14.433 -13.547,24.961c3.2,10.528 14.557,16.549 25.195,13.357c10.638,-3.192 16.724,-14.446 13.524,-24.974c-3.201,-10.528 -14.534,-16.536 -25.172,-13.344Zm1.69,5.558c7.596,-2.279 15.58,1.954 17.865,9.471c2.291,7.536 -2.006,15.434 -9.602,17.713c-7.596,2.279 -15.575,-1.936 -17.866,-9.471c-2.285,-7.518 1.989,-15.429 9.603,-17.713Zm4.008,7.37c-1.188,0.356 -2.236,0.981 -3.092,1.783l-4.555,-2.385c-0.609,-0.323 -1.232,-0.369 -1.862,-0.18c-1.278,0.383 -1.945,1.613 -1.555,2.896c0.173,0.57 0.557,1.058 1.148,1.386l4.519,2.396c-0.262,1.206 -0.223,2.496 0.167,3.779c1.234,4.062 5.636,6.395 9.74,5.164c4.104,-1.231 6.483,-5.619 5.254,-9.663c-1.24,-4.079 -5.66,-6.408 -9.764,-5.176Zm1.001,3.295c2.287,-0.686 4.734,0.582 5.433,2.88c0.687,2.263 -0.645,4.665 -2.931,5.351c-2.286,0.685 -4.698,-0.593 -5.385,-2.856c-0.699,-2.298 0.597,-4.689 2.883,-5.375Z" style="fill:#aeaeae;fill-rule:nonzero;"/><path d="M202.994,201.257c-7.587,8.052 -7.167,20.799 0.947,28.295c8.115,7.497 21.001,7.04 28.588,-1.012c7.587,-8.052 7.141,-20.798 -0.974,-28.295c-8.115,-7.496 -20.974,-7.04 -28.561,1.012Zm4.284,3.957c5.417,-5.749 14.477,-6.07 20.271,-0.718c5.809,5.366 6.099,14.324 0.682,20.074c-5.418,5.75 -14.464,6.083 -20.272,0.718c-5.794,-5.353 -6.111,-14.31 -0.681,-20.074Zm7.211,4.368c-0.848,0.899 -1.437,1.96 -1.771,3.078l-5.154,0.209c-0.69,0.025 -1.253,0.295 -1.702,0.772c-0.912,0.967 -0.864,2.361 0.124,3.275c0.439,0.406 1.019,0.635 1.697,0.624l5.128,-0.181c0.385,1.171 1.074,2.267 2.063,3.18c3.13,2.892 8.125,2.715 11.052,-0.392c2.927,-3.106 2.758,-8.078 -0.359,-10.958c-3.144,-2.904 -8.151,-2.714 -11.078,0.393Zm2.54,2.346c1.63,-1.73 4.392,-1.854 6.164,-0.218c1.743,1.611 1.81,4.348 0.179,6.078c-1.63,1.73 -4.367,1.827 -6.11,0.217c-1.772,-1.637 -1.864,-4.346 -0.233,-6.077Z" style="fill:#aeaeae;fill-rule:nonzero;"/></g><g><path d="M221.434,235c-3.427,5.779 -1.453,13.318 4.393,16.733c5.845,3.414 13.454,1.473 16.882,-4.306c3.427,-5.779 1.437,-13.314 -4.409,-16.729c-5.845,-3.414 -13.439,-1.477 -16.866,4.302Zm3.086,1.803c2.447,-4.127 7.797,-5.492 11.971,-3.054c4.184,2.444 5.569,7.743 3.122,11.87c-2.447,4.126 -7.788,5.497 -11.971,3.053c-4.174,-2.438 -5.575,-7.733 -3.122,-11.869Zm4.883,1.667c-0.382,0.646 -0.589,1.354 -0.637,2.064l-3.04,0.791c-0.408,0.104 -0.706,0.338 -0.909,0.681c-0.412,0.694 -0.195,1.518 0.517,1.934c0.317,0.185 0.693,0.247 1.095,0.153l3.028,-0.773c0.388,0.648 0.946,1.211 1.658,1.627c2.256,1.318 5.205,0.565 6.527,-1.664c1.323,-2.23 0.549,-5.17 -1.696,-6.481c-2.265,-1.323 -5.22,-0.561 -6.543,1.668Zm1.83,1.069c0.737,-1.242 2.364,-1.674 3.64,-0.928c1.256,0.733 1.666,2.355 0.93,3.597c-0.737,1.242 -2.353,1.654 -3.609,0.921c-1.276,-0.746 -1.697,-2.348 -0.961,-3.59Z" style="fill:#aeaeae;fill-rule:nonzero;"/><path d="M213.381,264.168c-0.031,6.712 5.493,12.264 12.269,12.317c6.776,0.052 12.362,-5.413 12.392,-12.125c0.031,-6.712 -5.504,-12.253 -12.28,-12.306c-6.776,-0.053 -12.35,5.401 -12.381,12.114Zm3.577,0.028c0.022,-4.793 3.949,-8.636 8.788,-8.598c4.85,0.038 8.73,3.941 8.708,8.734c-0.022,4.793 -3.938,8.635 -8.788,8.598c-4.838,-0.038 -8.73,-3.93 -8.708,-8.734Zm5.061,-0.983c-0.004,0.749 0.177,1.466 0.495,2.105l-2.223,2.197c-0.3,0.293 -0.439,0.644 -0.441,1.042c-0.003,0.806 0.601,1.413 1.427,1.419c0.367,0.003 0.723,-0.13 1.022,-0.412l2.223,-2.175c0.663,0.369 1.431,0.579 2.256,0.586c2.614,0.02 4.779,-2.098 4.791,-4.688c0.012,-2.589 -2.145,-4.753 -4.747,-4.773c-2.626,-0.021 -4.791,2.109 -4.803,4.699Zm2.121,0.016c0.007,-1.442 1.193,-2.625 2.672,-2.614c1.456,0.011 2.631,1.213 2.625,2.656c-0.007,1.442 -1.193,2.603 -2.649,2.591c-1.479,-0.011 -2.655,-1.19 -2.648,-2.633Z" style="fill:#aeaeae;fill-rule:nonzero;"/><path d="M221.24,293.462c3.388,5.825 10.973,7.873 16.842,4.537c5.869,-3.337 7.905,-10.854 4.518,-16.679c-3.387,-5.825 -10.977,-7.858 -16.846,-4.521c-5.869,3.336 -7.901,10.838 -4.514,16.663Zm3.098,-1.761c-2.418,-4.159 -0.986,-9.445 3.204,-11.827c4.2,-2.388 9.531,-0.947 11.95,3.213c2.418,4.159 0.996,9.439 -3.204,11.827c-4.19,2.382 -9.525,0.956 -11.95,-3.213Zm3.864,-3.377c0.378,0.651 0.898,1.181 1.497,1.575l-0.799,3.012c-0.109,0.403 -0.051,0.776 0.15,1.121c0.407,0.7 1.237,0.923 1.952,0.516c0.318,-0.18 0.557,-0.474 0.672,-0.867l0.81,-2.991c0.759,-0.012 1.528,-0.213 2.243,-0.62c2.264,-1.287 3.053,-4.201 1.746,-6.448c-1.306,-2.247 -4.266,-3.043 -6.52,-1.762c-2.274,1.293 -3.058,4.217 -1.751,6.464Zm1.837,-1.044c-0.728,-1.252 -0.307,-2.868 0.974,-3.596c1.261,-0.717 2.886,-0.264 3.614,0.988c0.727,1.252 0.295,2.848 -0.966,3.565c-1.281,0.728 -2.894,0.295 -3.622,-0.957Z" style="fill:#aeaeae;fill-rule:nonzero;"/><path d="M242.8,314.918c5.87,3.373 13.459,1.389 16.845,-4.414c3.386,-5.804 1.347,-13.334 -4.522,-16.708c-5.87,-3.373 -13.455,-1.373 -16.841,4.43c-3.385,5.803 -1.351,13.319 4.518,16.692Zm1.788,-3.064c-4.191,-2.408 -5.625,-7.703 -3.207,-11.847c2.423,-4.154 7.758,-5.546 11.949,-3.137c4.191,2.408 5.63,7.693 3.206,11.847c-2.417,4.144 -7.747,5.552 -11.948,3.137Zm1.632,-4.844c0.656,0.377 1.373,0.579 2.09,0.624l0.831,3.008c0.109,0.404 0.348,0.699 0.696,0.899c0.705,0.405 1.535,0.187 1.947,-0.52c0.183,-0.314 0.242,-0.687 0.143,-1.085l-0.812,-2.997c0.651,-0.387 1.213,-0.942 1.626,-1.649c1.306,-2.239 0.516,-5.158 -1.749,-6.459c-2.264,-1.302 -5.224,-0.525 -6.524,1.704c-1.312,2.249 -0.512,5.174 1.752,6.475Zm1.06,-1.816c-1.261,-0.725 -1.714,-2.336 -0.975,-3.603c0.728,-1.247 2.36,-1.659 3.622,-0.934c1.261,0.725 1.694,2.324 0.966,3.571c-0.739,1.267 -2.352,1.69 -3.613,0.966Z" style="fill:#aeaeae;fill-rule:nonzero;"/><path d="M272.341,322.792c6.776,0.006 12.323,-5.486 12.306,-12.199c-0.016,-6.712 -5.591,-12.226 -12.366,-12.232c-6.776,-0.006 -12.312,5.498 -12.296,12.211c0.017,6.712 5.58,12.214 12.356,12.22Zm-0.009,-3.543c-4.838,-0.005 -8.758,-3.881 -8.769,-8.674c-0.012,-4.805 3.888,-8.663 8.726,-8.659c4.839,0.005 8.758,3.87 8.77,8.674c0.011,4.793 -3.877,8.663 -8.727,8.659Zm-1.044,-5.01c0.756,0 1.478,-0.181 2.12,-0.498l2.241,2.194c0.299,0.296 0.654,0.432 1.056,0.432c0.814,0.001 1.42,-0.6 1.418,-1.418c-0.001,-0.363 -0.14,-0.716 -0.427,-1.011l-2.218,-2.194c0.365,-0.659 0.57,-1.42 0.568,-2.237c-0.007,-2.59 -2.167,-4.727 -4.782,-4.729c-2.614,-0.003 -4.775,2.142 -4.769,4.72c0.006,2.601 2.179,4.739 4.793,4.741Zm-0.005,-2.101c-1.456,-0.002 -2.663,-1.173 -2.667,-2.638c-0.003,-1.442 1.198,-2.611 2.654,-2.61c1.456,0.001 2.64,1.172 2.643,2.615c0.004,1.465 -1.174,2.634 -2.63,2.633Z" style="fill:#aeaeae;fill-rule:nonzero;"/><path d="M301.82,314.91c5.847,-3.374 7.839,-10.895 4.414,-16.698c-3.425,-5.803 -11.034,-7.797 -16.88,-4.423c-5.847,3.374 -7.824,10.899 -4.399,16.702c3.425,5.803 11.018,7.793 16.865,4.419Zm-1.808,-3.064c-4.175,2.409 -9.525,1.008 -11.97,-3.136c-2.452,-4.154 -1.049,-9.439 3.126,-11.848c4.175,-2.409 9.518,-1.017 11.97,3.137c2.446,4.143 1.058,9.432 -3.126,11.847Zm-3.446,-3.816c0.653,-0.377 1.183,-0.894 1.575,-1.488l3.047,0.782c0.408,0.106 0.785,0.047 1.131,-0.153c0.702,-0.405 0.919,-1.228 0.502,-1.935c-0.185,-0.314 -0.484,-0.55 -0.882,-0.662l-3.028,-0.794c-0.019,-0.752 -0.229,-1.513 -0.647,-2.22c-1.321,-2.238 -4.27,-3.011 -6.526,-1.71c-2.256,1.302 -3.03,4.237 -1.714,6.466c1.327,2.248 4.286,3.015 6.542,1.714Zm-1.073,-1.817c-1.256,0.725 -2.892,0.313 -3.639,-0.953c-0.736,-1.247 -0.294,-2.858 0.962,-3.583c1.256,-0.725 2.872,-0.302 3.608,0.945c0.748,1.267 0.326,2.866 -0.931,3.591Z" style="fill:#aeaeae;fill-rule:nonzero;"/><path d="M323.269,293.478c3.346,-5.826 1.266,-13.337 -4.626,-16.671c-5.893,-3.334 -13.474,-1.289 -16.82,4.537c-3.346,5.826 -1.25,13.333 4.642,16.667c5.892,3.334 13.458,1.293 16.804,-4.533Zm-3.111,-1.76c-2.389,4.16 -7.719,5.598 -11.927,3.218c-4.217,-2.387 -5.676,-7.666 -3.287,-11.826c2.389,-4.16 7.709,-5.604 11.927,-3.218c4.207,2.381 5.682,7.656 3.287,11.826Zm-4.906,-1.6c0.373,-0.651 0.571,-1.362 0.608,-2.072l3.029,-0.834c0.406,-0.109 0.701,-0.347 0.899,-0.692c0.402,-0.7 0.174,-1.522 -0.544,-1.928c-0.319,-0.18 -0.696,-0.237 -1.097,-0.137l-3.017,0.814c-0.397,-0.643 -0.963,-1.198 -1.681,-1.605c-2.273,-1.286 -5.212,-0.493 -6.502,1.755c-1.291,2.247 -0.477,5.177 1.786,6.457c2.284,1.292 5.228,0.489 6.519,-1.758Zm-1.845,-1.044c-0.719,1.252 -2.34,1.706 -3.626,0.978c-1.266,-0.716 -1.699,-2.332 -0.98,-3.584c0.719,-1.252 2.329,-1.686 3.595,-0.97c1.286,0.728 1.73,2.324 1.011,3.576Z" style="fill:#aeaeae;fill-rule:nonzero;"/><path d="M330.916,264.184c-0.065,-6.713 -5.668,-12.187 -12.443,-12.145c-6.776,0.042 -12.283,5.585 -12.218,12.298c0.065,6.712 5.678,12.175 12.454,12.133c6.776,-0.042 12.272,-5.574 12.207,-12.286Zm-3.577,0.022c0.046,4.793 -3.826,8.69 -8.664,8.72c-4.85,0.03 -8.785,-3.819 -8.832,-8.612c-0.046,-4.793 3.814,-8.69 8.664,-8.72c4.838,-0.03 8.785,3.807 8.832,8.612Zm-5.047,1.053c-0.007,-0.749 -0.197,-1.464 -0.524,-2.098l2.191,-2.228c0.295,-0.297 0.429,-0.65 0.425,-1.048c-0.007,-0.806 -0.621,-1.404 -1.446,-1.399c-0.367,0.002 -0.721,0.141 -1.017,0.426l-2.191,2.206c-0.668,-0.359 -1.439,-0.559 -2.264,-0.554c-2.614,0.016 -4.749,2.165 -4.724,4.755c0.025,2.589 2.213,4.722 4.816,4.706c2.625,-0.016 4.76,-2.176 4.734,-4.766Zm-2.12,0.014c0.013,1.442 -1.156,2.642 -2.635,2.651c-1.456,0.009 -2.648,-1.176 -2.662,-2.619c-0.014,-1.442 1.155,-2.619 2.611,-2.628c1.479,-0.009 2.672,1.153 2.686,2.596Z" style="fill:#aeaeae;fill-rule:nonzero;"/><path d="M322.657,235.029c-3.466,-5.779 -11.078,-7.726 -16.901,-4.312c-5.822,3.414 -7.757,10.959 -4.291,16.738c3.466,5.78 11.082,7.711 16.905,4.297c5.822,-3.414 7.753,-10.943 4.287,-16.723Zm-3.074,1.803c2.475,4.127 1.115,9.431 -3.043,11.869c-4.167,2.444 -9.517,1.073 -11.991,-3.054c-2.475,-4.127 -1.125,-9.426 3.043,-11.869c4.157,-2.438 9.511,-1.083 11.991,3.054Zm-3.817,3.427c-0.387,-0.645 -0.914,-1.169 -1.518,-1.555l0.758,-3.021c0.103,-0.405 0.04,-0.777 -0.165,-1.12c-0.417,-0.694 -1.25,-0.906 -1.959,-0.49c-0.315,0.185 -0.55,0.481 -0.66,0.876l-0.77,3.002c-0.759,0.022 -1.524,0.233 -2.234,0.649c-2.246,1.317 -2.996,4.242 -1.659,6.471c1.337,2.23 4.308,2.987 6.544,1.675c2.256,-1.323 3,-4.257 1.663,-6.487Zm-1.823,1.069c0.745,1.242 0.346,2.864 -0.925,3.609c-1.251,0.734 -2.882,0.302 -3.626,-0.94c-0.745,-1.242 -0.334,-2.844 0.917,-3.578c1.271,-0.745 2.89,-0.333 3.634,0.909Z" style="fill:#aeaeae;fill-rule:nonzero;"/><path d="M300.755,213.833c-5.918,-3.288 -13.477,-1.194 -16.777,4.658c-3.299,5.852 -1.15,13.353 4.769,16.641c5.918,3.288 13.473,1.178 16.772,-4.674c3.299,-5.852 1.155,-13.337 -4.764,-16.625Zm-1.742,3.089c4.226,2.348 5.737,7.622 3.382,11.8c-2.362,4.189 -7.675,5.659 -11.901,3.311c-4.226,-2.348 -5.743,-7.612 -3.381,-11.8c2.356,-4.179 7.664,-5.664 11.9,-3.311Zm-1.56,4.868c-0.661,-0.367 -1.382,-0.56 -2.099,-0.594l-0.875,-2.996c-0.115,-0.402 -0.359,-0.693 -0.709,-0.888c-0.711,-0.395 -1.538,-0.165 -1.94,0.548c-0.178,0.317 -0.231,0.691 -0.126,1.087l0.855,2.985c-0.644,0.396 -1.198,0.96 -1.6,1.672c-1.273,2.258 -0.44,5.166 1.843,6.434c2.283,1.269 5.231,0.449 6.499,-1.799c1.278,-2.268 0.435,-5.181 -1.848,-6.449Zm-1.033,1.832c1.272,0.706 1.748,2.31 1.028,3.588c-0.709,1.257 -2.336,1.693 -3.607,0.986c-1.272,-0.706 -1.729,-2.299 -1.02,-3.557c0.721,-1.277 2.327,-1.724 3.599,-1.017Z" style="fill:#aeaeae;fill-rule:nonzero;"/><path d="M271.131,206.384c-6.775,0.088 -12.243,5.658 -12.131,12.37c0.113,6.712 5.765,12.147 12.54,12.058c6.775,-0.089 12.231,-5.67 12.119,-12.382c-0.112,-6.711 -5.753,-12.135 -12.528,-12.046Zm0.059,3.543c4.838,-0.064 8.812,3.758 8.892,8.55c0.081,4.804 -3.764,8.717 -8.602,8.781c-4.837,0.063 -8.811,-3.747 -8.891,-8.551c-0.081,-4.793 3.752,-8.716 8.601,-8.78Zm1.116,4.995c-0.757,0.01 -1.476,0.201 -2.112,0.527l-2.273,-2.162c-0.303,-0.292 -0.66,-0.423 -1.061,-0.418c-0.814,0.011 -1.412,0.621 -1.398,1.438c0.006,0.364 0.149,0.714 0.441,1.006l2.249,2.162c-0.356,0.664 -0.549,1.428 -0.536,2.245c0.044,2.59 2.234,4.696 4.848,4.662c2.614,-0.034 4.745,-2.209 4.702,-4.787c-0.044,-2.601 -2.246,-4.708 -4.86,-4.673Zm0.035,2.101c1.456,-0.019 2.679,1.135 2.704,2.6c0.024,1.442 -1.16,2.628 -2.616,2.647c-1.456,0.019 -2.656,-1.135 -2.68,-2.578c-0.025,-1.465 1.136,-2.65 2.592,-2.669Z" style="fill:#aeaeae;fill-rule:nonzero;"/><path d="M241.797,214.66c-5.8,3.452 -7.691,10.999 -4.188,16.756c3.503,5.758 11.138,7.65 16.938,4.199c5.8,-3.452 7.675,-11.003 4.172,-16.76c-3.503,-5.757 -11.122,-7.646 -16.922,-4.195Zm1.849,3.04c4.142,-2.465 9.51,-1.134 12.011,2.977c2.507,4.121 1.176,9.424 -2.965,11.889c-4.142,2.464 -9.504,1.143 -12.011,-2.977c-2.502,-4.111 -1.186,-9.419 2.965,-11.889Zm3.497,3.77c-0.647,0.386 -1.171,0.91 -1.554,1.509l-3.058,-0.741c-0.409,-0.101 -0.785,-0.037 -1.128,0.167c-0.697,0.415 -0.903,1.241 -0.476,1.942c0.189,0.312 0.491,0.544 0.89,0.651l3.039,0.753c0.029,0.752 0.25,1.51 0.677,2.211c1.351,2.221 4.311,2.955 6.548,1.623c2.238,-1.331 2.972,-4.276 1.627,-6.488c-1.358,-2.23 -4.327,-2.958 -6.565,-1.627Zm1.097,1.803c1.246,-0.742 2.888,-0.352 3.652,0.905c0.753,1.237 0.333,2.853 -0.913,3.595c-1.247,0.742 -2.868,0.34 -3.621,-0.897c-0.765,-1.257 -0.364,-2.862 0.882,-3.603Z" style="fill:#aeaeae;fill-rule:nonzero;"/></g><g><path d="M38.811,207.267c-7.128,27.405 9.524,55.704 37,62.796c27.475,7.092 55.872,-9.578 63,-36.983c7.128,-27.406 -9.582,-55.67 -37.058,-62.762c-27.475,-7.093 -55.814,9.543 -62.942,36.949Zm14.505,3.744c5.09,-19.569 25.056,-31.29 44.674,-26.225c19.666,5.076 31.36,24.969 26.27,44.538c-5.09,19.568 -25.009,31.301 -44.674,26.225c-19.619,-5.065 -31.372,-24.923 -26.27,-44.538Zm21.588,1.119c-0.796,3.06 -0.812,6.173 -0.186,9.106l-11.324,6.727c-1.523,0.893 -2.455,2.187 -2.877,3.81c-0.856,3.292 0.969,6.386 4.316,7.25c1.488,0.384 3.074,0.2 4.584,-0.648l11.3,-6.633c2.311,2.18 5.208,3.818 8.556,4.682c10.6,2.736 21.607,-3.725 24.357,-14.298c2.75,-10.573 -3.757,-21.605 -14.311,-24.329c-10.646,-2.748 -21.665,3.76 -24.415,14.333Zm8.6,2.22c1.532,-5.89 7.587,-9.523 13.584,-7.974c5.904,1.524 9.427,7.629 7.895,13.518c-1.532,5.889 -7.563,9.429 -13.467,7.905c-5.997,-1.548 -9.543,-7.56 -8.012,-13.449Z" style="fill:#aeaeae;fill-rule:nonzero;"/><path d="M40.05,334.901c7.621,27.265 36.268,43.401 63.611,35.784c27.343,-7.616 43.527,-36.242 35.906,-63.506c-7.621,-27.265 -36.302,-43.342 -63.645,-35.725c-27.343,7.617 -43.494,36.183 -35.872,63.447Zm14.434,-4.021c-5.441,-19.468 5.938,-39.594 25.462,-45.033c19.57,-5.451 39.698,5.898 45.14,25.366c5.442,19.468 -5.891,39.581 -25.462,45.033c-19.524,5.439 -39.685,-5.852 -45.14,-25.366Zm19.243,-9.835c0.851,3.044 2.404,5.745 4.421,7.967l-6.414,11.483c-0.868,1.535 -1.023,3.12 -0.572,4.734c0.916,3.276 4.051,5.038 7.382,4.11c1.481,-0.413 2.76,-1.366 3.641,-2.854l6.44,-11.391c3.096,0.729 6.428,0.695 9.759,-0.233c10.549,-2.938 16.822,-14.034 13.882,-24.552c-2.94,-10.519 -14.121,-16.802 -24.624,-13.876c-10.595,2.951 -16.855,14.093 -13.915,24.612Zm8.559,-2.385c-1.638,-5.859 1.774,-12.03 7.742,-13.693c5.876,-1.636 11.995,1.88 13.633,7.739c1.637,5.859 -1.8,11.938 -7.675,13.575c-5.969,1.662 -12.062,-1.762 -13.7,-7.621Z" style="fill:#aeaeae;fill-rule:nonzero;"/><path d="M105.496,444.658c20.358,19.715 53.264,19.257 73.045,-1.058c19.78,-20.315 19.306,-53.165 -1.052,-72.88c-20.358,-19.714 -53.263,-19.189 -73.044,1.126c-19.78,20.315 -19.307,53.098 1.051,72.812Zm10.443,-10.724c-14.537,-14.078 -14.87,-37.174 -0.746,-51.68c14.157,-14.54 37.283,-14.852 51.82,-0.775c14.537,14.078 14.903,37.14 0.746,51.68c-14.124,14.506 -37.249,14.885 -51.82,0.775Zm11.659,-18.161c2.274,2.201 4.98,3.753 7.846,4.659l0.257,13.139c0.026,1.761 0.692,3.207 1.898,4.375c2.445,2.368 6.045,2.314 8.455,-0.161c1.071,-1.1 1.695,-2.565 1.704,-4.293l-0.189,-13.072c3.044,-0.927 5.906,-2.629 8.316,-5.104c7.631,-7.837 7.447,-20.571 -0.407,-28.177c-7.853,-7.605 -20.69,-7.414 -28.287,0.389c-7.665,7.872 -7.446,20.639 0.407,28.245Zm6.192,-6.36c-4.374,-4.236 -4.544,-11.279 -0.227,-15.713c4.251,-4.366 11.315,-4.404 15.69,-0.167c4.375,4.236 4.476,11.213 0.225,15.578c-4.318,4.434 -11.313,4.539 -15.688,0.302Z" style="fill:#aeaeae;fill-rule:nonzero;"/><path d="M217.056,506.782c27.524,6.901 55.793,-9.92 62.729,-37.374c6.936,-27.455 -9.959,-55.648 -37.484,-62.549c-27.525,-6.901 -55.758,9.977 -62.695,37.432c-6.936,27.454 9.925,55.589 37.45,62.491Zm3.661,-14.494c-19.653,-4.928 -31.533,-24.751 -26.58,-44.354c4.965,-19.65 24.837,-31.463 44.49,-26.535c19.654,4.928 31.545,24.704 26.581,44.354c-4.953,19.604 -24.79,31.474 -44.491,26.535Zm0.985,-21.537c3.074,0.77 6.195,0.763 9.132,0.116l6.817,11.243c0.905,1.511 2.208,2.43 3.838,2.839c3.307,0.829 6.398,-1.014 7.243,-4.359c0.375,-1.486 0.18,-3.066 -0.679,-4.566l-6.724,-11.219c2.172,-2.321 3.796,-5.223 4.641,-8.568c2.676,-10.592 -3.873,-21.52 -14.492,-24.183c-10.618,-2.662 -21.639,3.911 -24.303,14.456c-2.688,10.638 3.908,21.578 14.527,24.241Zm2.171,-8.594c-5.915,-1.483 -9.596,-7.494 -8.082,-13.487c1.49,-5.9 7.589,-9.458 13.504,-7.975c5.915,1.483 9.503,7.47 8.013,13.37c-1.514,5.993 -7.52,9.575 -13.435,8.092Z" style="fill:#aeaeae;fill-rule:nonzero;"/><path d="M345.072,504.58c27.289,-7.809 43.284,-36.501 35.47,-63.711c-7.814,-27.21 -36.62,-43.132 -63.909,-35.323c-27.288,7.809 -43.224,36.534 -35.41,63.744c7.814,27.21 36.561,43.099 63.849,35.29Zm-4.125,-14.365c-19.485,5.576 -39.739,-5.618 -45.318,-25.047c-5.593,-19.475 5.657,-39.635 25.142,-45.211c19.486,-5.576 39.726,5.572 45.319,25.048c5.579,19.429 -5.611,39.621 -25.143,45.21Zm-9.986,-19.114c3.048,-0.873 5.745,-2.442 7.96,-4.471l11.556,6.31c1.544,0.853 3.134,0.996 4.75,0.534c3.279,-0.939 5.025,-4.079 4.073,-7.394c-0.423,-1.473 -1.387,-2.742 -2.885,-3.609l-11.463,-6.335c0.711,-3.094 0.656,-6.416 -0.296,-9.731c-3.015,-10.497 -14.181,-16.669 -24.708,-13.656c-10.528,3.012 -16.756,14.211 -13.755,24.662c3.028,10.544 14.241,16.702 24.768,13.69Zm-2.446,-8.518c-5.864,1.678 -12.074,-1.677 -13.78,-7.616c-1.679,-5.847 1.808,-11.977 7.672,-13.655c5.864,-1.678 11.982,1.703 13.661,7.55c1.705,5.94 -1.689,12.043 -7.553,13.721Z" style="fill:#aeaeae;fill-rule:nonzero;"/><path d="M454.659,438.526c19.644,-20.445 18.986,-53.258 -1.503,-72.838c-20.489,-19.579 -53.425,-18.868 -73.07,1.577c-19.644,20.446 -18.918,53.257 1.571,72.836c20.489,19.58 53.357,18.87 73.002,-1.575Zm-10.817,-10.336c-14.027,14.599 -37.184,15.098 -51.814,1.118c-14.665,-14.014 -15.118,-37.075 -1.09,-51.674c14.027,-14.598 37.149,-15.131 51.814,-1.118c14.63,13.981 15.15,37.04 1.09,51.674Zm-18.281,-11.497c2.194,-2.283 3.734,-4.993 4.624,-7.858l13.173,-0.352c1.766,-0.038 3.212,-0.713 4.376,-1.923c2.36,-2.457 2.284,-6.046 -0.212,-8.431c-1.11,-1.06 -2.583,-1.672 -4.316,-1.669l-13.106,0.283c-0.947,-3.028 -2.671,-5.871 -5.168,-8.256c-7.904,-7.554 -20.671,-7.278 -28.25,0.61c-7.578,7.887 -7.308,20.687 0.562,28.207c7.939,7.587 20.739,7.277 28.317,-0.611Zm-6.413,-6.129c-4.222,4.394 -11.283,4.614 -15.755,0.34c-4.403,-4.207 -4.484,-11.252 -0.262,-15.645c4.221,-4.394 11.216,-4.545 15.619,-0.337c4.472,4.273 4.619,11.249 0.398,15.642Z" style="fill:#aeaeae;fill-rule:nonzero;"/><path d="M516.277,326.79c6.746,-27.501 -10.297,-55.567 -37.869,-62.279c-27.572,-6.712 -55.735,10.349 -62.481,37.851c-6.747,27.501 10.355,55.531 37.927,62.243c27.571,6.712 55.676,-10.314 62.423,-37.815Zm-14.556,-3.543c-4.817,19.637 -24.618,31.632 -44.306,26.839c-19.734,-4.803 -31.703,-24.533 -26.886,-44.17c4.817,-19.637 24.572,-31.644 44.306,-26.84c19.688,4.793 31.715,24.487 26.886,44.171Zm-21.601,-0.821c0.753,-3.071 0.726,-6.184 0.059,-9.108l11.23,-6.882c1.51,-0.915 2.424,-2.221 2.823,-3.85c0.811,-3.304 -1.057,-6.372 -4.416,-7.19c-1.493,-0.363 -3.076,-0.157 -4.574,0.711l-11.208,6.789c-2.34,-2.147 -5.26,-3.746 -8.619,-4.563c-10.637,-2.59 -21.554,4.023 -24.157,14.633c-2.603,10.61 4.057,21.551 14.648,24.129c10.683,2.601 21.611,-4.059 24.214,-14.669Zm-8.631,-2.101c-1.45,5.91 -7.453,9.626 -13.472,8.161c-5.925,-1.442 -9.531,-7.498 -8.081,-13.408c1.449,-5.909 7.43,-9.533 13.355,-8.09c6.018,1.465 9.648,7.427 8.198,13.337Z" style="fill:#aeaeae;fill-rule:nonzero;"/><path d="M513.256,199.108c-8.007,-27.154 -36.88,-42.884 -64.112,-34.883c-27.233,8.002 -43.01,36.853 -35.003,64.007c8.008,27.154 36.913,42.825 64.146,34.823c27.232,-8.002 42.977,-36.793 34.969,-63.947Zm-14.376,4.225c5.717,19.389 -5.375,39.673 -24.821,45.387c-19.491,5.727 -39.778,-5.337 -45.495,-24.726c-5.718,-19.389 5.329,-39.66 24.82,-45.388c19.446,-5.713 39.765,5.292 45.496,24.727Zm-19.101,10.106c-0.895,-3.033 -2.485,-5.711 -4.534,-7.905l6.251,-11.572c0.846,-1.547 0.979,-3.134 0.504,-4.742c-0.962,-3.262 -4.122,-4.979 -7.439,-4.005c-1.475,0.434 -2.741,1.405 -3.6,2.905l-6.278,11.481c-3.107,-0.685 -6.438,-0.605 -9.755,0.37c-10.506,3.087 -16.622,14.27 -13.533,24.746c3.089,10.476 14.359,16.6 24.819,13.527c10.552,-3.101 16.654,-14.33 13.565,-24.805Zm-8.525,2.504c1.721,5.836 -1.603,12.054 -7.547,13.801c-5.852,1.72 -12.021,-1.71 -13.741,-7.545c-1.721,-5.836 1.63,-11.962 7.482,-13.682c5.944,-1.747 12.085,1.591 13.806,7.426Z" style="fill:#aeaeae;fill-rule:nonzero;"/><path d="M446.365,90.382c-20.622,-19.441 -53.519,-18.542 -73.025,2.035c-19.505,20.578 -18.589,53.419 2.033,72.859c20.622,19.44 53.517,18.474 73.023,-2.103c19.505,-20.578 18.591,-53.351 -2.031,-72.791Zm-10.297,10.863c14.724,13.881 15.369,36.971 1.441,51.665c-13.961,14.728 -37.081,15.349 -51.806,1.468c-14.725,-13.881 -15.402,-36.937 -1.441,-51.665c13.928,-14.693 37.046,-15.382 51.806,-1.468Zm-11.415,18.315c-2.303,-2.171 -5.029,-3.686 -7.907,-4.553l-0.435,-13.134c-0.049,-1.761 -0.734,-3.198 -1.956,-4.35c-2.477,-2.335 -6.076,-2.233 -8.452,0.274c-1.056,1.114 -1.66,2.588 -1.646,4.316l0.364,13.068c-3.03,0.967 -5.87,2.708 -8.246,5.215c-7.525,7.938 -7.17,20.668 0.786,28.168c7.955,7.5 20.788,7.136 28.28,-0.767c7.558,-7.974 7.168,-20.737 -0.788,-28.237Zm-6.106,6.442c4.432,4.177 4.696,11.218 0.439,15.709c-4.192,4.422 -11.255,4.554 -15.687,0.377c-4.431,-4.178 -4.626,-11.152 -0.434,-15.574c4.258,-4.492 11.251,-4.69 15.682,-0.512Z" style="fill:#aeaeae;fill-rule:nonzero;"/><path d="M333.728,29.706c-27.623,-6.498 -55.642,10.733 -62.174,38.285c-6.533,27.553 10.775,55.496 38.398,61.995c27.624,6.498 55.607,-10.79 62.139,-38.343c6.533,-27.552 -10.74,-55.439 -38.363,-61.937Zm-3.448,14.546c19.724,4.64 31.893,24.287 27.228,43.96c-4.675,19.721 -24.372,31.822 -44.096,27.182c-19.724,-4.64 -31.904,-24.241 -27.229,-43.961c4.665,-19.674 24.326,-31.833 44.097,-27.181Zm-0.668,21.549c-3.085,-0.726 -6.207,-0.673 -9.134,0.017l-6.981,-11.142c-0.927,-1.498 -2.244,-2.398 -3.88,-2.783c-3.318,-0.781 -6.381,1.107 -7.177,4.464c-0.354,1.492 -0.136,3.069 0.746,4.556l6.887,11.12c-2.137,2.352 -3.719,5.277 -4.514,8.634c-2.521,10.629 4.188,21.461 14.845,23.968c10.657,2.507 21.58,-4.226 24.089,-14.809c2.531,-10.676 -4.225,-21.518 -14.881,-24.025Zm-2.045,8.624c5.936,1.397 9.705,7.353 8.279,13.367c-1.404,5.921 -7.45,9.568 -13.386,8.172c-5.936,-1.397 -9.612,-7.331 -8.208,-13.252c1.426,-6.014 7.379,-9.683 13.315,-8.287Z" style="fill:#aeaeae;fill-rule:nonzero;"/><path d="M205.865,33.728c-27.175,8.193 -42.762,37.107 -34.563,64.204c8.198,27.097 37.228,42.611 64.403,34.418c27.176,-8.192 42.703,-37.139 34.504,-64.236c-8.199,-27.097 -37.168,-42.579 -64.344,-34.386Zm4.329,14.305c19.404,-5.85 39.814,5.058 45.669,24.406c5.868,19.395 -5.095,39.71 -24.5,45.56c-19.404,5.85 -39.801,-5.011 -45.669,-24.406c-5.854,-19.348 5.049,-39.696 24.5,-45.56Zm10.256,18.972c-3.035,0.915 -5.71,2.522 -7.896,4.582l-11.644,-6.146c-1.557,-0.831 -3.149,-0.952 -4.758,-0.467c-3.265,0.985 -4.966,4.149 -3.968,7.451c0.444,1.467 1.426,2.722 2.936,3.567l11.552,6.174c-0.666,3.103 -0.565,6.424 0.434,9.725c3.163,10.454 14.416,16.467 24.9,13.307c10.484,-3.161 16.552,-14.446 13.403,-24.854c-3.177,-10.5 -14.475,-16.499 -24.959,-13.339Zm2.566,8.482c5.84,-1.76 12.097,1.507 13.887,7.421c1.761,5.823 -1.638,12.001 -7.478,13.762c-5.839,1.76 -12.004,-1.534 -13.766,-7.357c-1.79,-5.915 1.518,-12.065 7.357,-13.826Z" style="fill:#aeaeae;fill-rule:nonzero;"/><path d="M97.317,101.215c-19.368,20.707 -18.268,53.508 2.483,72.811c20.751,19.303 53.674,18.152 73.042,-2.555c19.368,-20.706 18.201,-53.505 -2.55,-72.808c-20.751,-19.303 -53.607,-18.154 -72.975,2.552Zm10.955,10.191c13.83,-14.786 36.978,-15.595 51.795,-1.812c14.852,13.816 15.615,36.869 1.785,51.654c-13.829,14.785 -36.942,15.628 -51.794,1.811c-14.817,-13.783 -15.648,-36.833 -1.786,-51.653Zm18.434,11.25c-2.163,2.313 -3.666,5.043 -4.518,7.919l-13.167,0.529c-1.765,0.061 -3.202,0.755 -4.349,1.982c-2.327,2.487 -2.203,6.075 0.325,8.427c1.124,1.045 2.605,1.637 4.338,1.611l13.101,-0.459c0.988,3.016 2.75,5.835 5.278,8.187c8.006,7.447 20.768,7 28.24,-0.988c7.472,-7.988 7.029,-20.783 -0.941,-28.198c-8.04,-7.479 -20.835,-6.998 -28.307,0.99Zm6.495,6.043c4.162,-4.45 11.22,-4.764 15.749,-0.551c4.46,4.148 4.635,11.191 0.473,15.641c-4.162,4.449 -11.154,4.694 -15.613,0.546c-4.529,-4.214 -4.771,-11.186 -0.609,-15.636Z" style="fill:#aeaeae;fill-rule:nonzero;"/></g></svg>