<?xml version="1.0" encoding="UTF-8" standalone="no"?><!DOCTYPE svg PUBLIC "-//W3C//DTD SVG 1.1//EN" "http://www.w3.org/Graphics/SVG/1.1/DTD/svg11.dtd"><svg width="100%" height="100%" viewBox="0 0 550 546" version="1.1" xmlns="http://www.w3.org/2000/svg" xmlns:xlink="http://www.w3.org/1999/xlink" xml:space="preserve" xmlns:serif="http://www.serif.com/" style="fill-rule:evenodd;clip-rule:evenodd;"><rect id="set_a_print_statement-complete" x="4.03" y="0.123" width="541.825" height="541.612" style="fill:none;"/><clipPath id="_clip1"><rect x="4.03" y="0.123" width="541.825" height="541.612"/></clipPath><g clip-path="url(#_clip1)"><path d="M282.072,30.641c-132.817,0.146 -240.752,108.319 -240.606,241.135c0.146,132.813 108.318,240.748 241.135,240.602c132.812,-0.145 240.748,-108.318 240.602,-241.131c-0.146,-132.816 -108.319,-240.752 -241.131,-240.606m0.543,494.237c-139.709,0.154 -253.496,-113.384 -253.649,-253.088c-0.154,-139.708 113.384,-253.495 253.092,-253.649c139.709,-0.153 253.492,113.384 253.645,253.093c0.153,139.704 -113.38,253.491 -253.088,253.644" style="fill:#01acfd;fill-rule:nonzero;"/><path d="M116.743,224.573l331.083,-0.364c-21.081,-73.847 -88.454,-124.903 -165.679,-124.818c-77.224,0.085 -144.485,51.288 -165.404,125.182m341.863,7.958l-352.625,0.387l1.299,-5.185c20.108,-80.38 92.013,-136.584 174.858,-136.675c82.846,-0.091 154.874,55.955 175.158,136.291l1.31,5.182Z" style="fill:#01acfd;fill-rule:nonzero;"/><path d="M116.164,316.24c20.221,75.361 87.886,127.475 166.361,127.388c78.475,-0.086 146.03,-52.348 166.081,-127.753l-332.442,0.365Zm166.37,135.722c-84.125,0.092 -156.404,-57.037 -175.773,-138.924l-1.21,-5.12l353.65,-0.388l-1.199,5.122c-19.189,81.93 -91.343,139.217 -175.468,139.31" style="fill:#01acfd;fill-rule:nonzero;"/><g transform="matrix(3.92581,-2.16614,2.16614,3.92581,-4925,3266.46)"><g transform="matrix(0.651406,-0.758729,0.758729,0.651406,491.696,972.146)"><text x="1303.81px" y="-49.026px" style="font-family:'NexaRustSans-Trial-Black2', 'Nexa Rust Sans-Trial';font-weight:900;font-size:9.721px;fill:#01acfd;">R</text></g><g transform="matrix(0.763324,-0.646016,0.646016,0.763324,344.999,832.483)"><text x="1308.64px" y="-54.601px" style="font-family:'NexaRustSans-Trial-Black2', 'Nexa Rust Sans-Trial';font-weight:900;font-size:9.721px;fill:#01acfd;">E</text></g><g transform="matrix(0.858204,-0.513309,0.513309,0.858204,216.582,666.044)"><text x="1313.85px" y="-58.998px" style="font-family:'NexaRustSans-Trial-Black2', 'Nexa Rust Sans-Trial';font-weight:900;font-size:9.721px;fill:#01acfd;">P</text></g><g transform="matrix(0.928205,-0.372069,0.372069,0.928205,118.092,486.66)"><text x="1320.08px" y="-62.67px" style="font-family:'NexaRustSans-Trial-Black2', 'Nexa Rust Sans-Trial';font-weight:900;font-size:9.721px;fill:#01acfd;">L</text></g><g transform="matrix(0.979022,-0.203754,0.203754,0.979022,41.104,268.86)"><text x="1326.24px" y="-65.188px" style="font-family:'NexaRustSans-Trial-Black2', 'Nexa Rust Sans-Trial';font-weight:900;font-size:9.721px;fill:#01acfd;">A</text></g><g transform="matrix(0.998396,-0.0566253,0.0566253,0.998396,5.91191,75.3661)"><text x="1332.85px" y="-66.637px" style="font-family:'NexaRustSans-Trial-Black2', 'Nexa Rust Sans-Trial';font-weight:900;font-size:9.721px;fill:#01acfd;">Y</text></g><g transform="matrix(0.999788,0.0206096,-0.0206096,0.999788,-1.09516,-27.604)"><text x="1338.69px" y="-66.935px" style="font-family:'NexaRustSans-Trial-Black2', 'Nexa Rust Sans-Trial';font-weight:900;font-size:9.721px;fill:#01acfd;">.</text></g><g transform="matrix(0.996034,0.088973,-0.088973,0.996034,-0.629106,-119.626)"><text x="1341.54px" y="-66.87px" style="font-family:'NexaRustSans-Trial-Black2', 'Nexa Rust Sans-Trial';font-weight:900;font-size:9.721px;fill:#01acfd;">I</text></g><g transform="matrix(0.974324,0.225148,-0.225148,0.974324,19.5117,-304.519)"><text x="1344.92px" y="-66.71px" style="font-family:'NexaRustSans-Trial-Black2', 'Nexa Rust Sans-Trial';font-weight:900;font-size:9.721px;fill:#01acfd;">O</text></g><g transform="matrix(0.890281,0.455412,-0.455412,0.890281,120.081,-624.818)"><text x="1356.76px" y="-63.198px" style="font-family:'SFProDisplay-Black', 'SF Pro Display';font-weight:900;font-size:9.721px;fill:#01acfd;">•</text></g><g transform="matrix(0.769312,0.638873,-0.638873,0.769312,276.754,-885.012)"><text x="1363.87px" y="-59.282px" style="font-family:'NexaRustSans-Trial-Black2', 'Nexa Rust Sans-Trial';font-weight:900;font-size:9.721px;fill:#01acfd;">R</text></g><g transform="matrix(0.658165,0.752874,-0.752874,0.658165,427.104,-1049.72)"><text x="1369.53px" y="-54.523px" style="font-family:'NexaRustSans-Trial-Black2', 'Nexa Rust Sans-Trial';font-weight:900;font-size:9.721px;fill:#01acfd;">E</text></g><g transform="matrix(0.527143,0.849777,-0.849777,0.527143,607.735,-1190.96)"><text x="1374.01px" y="-49.395px" style="font-family:'NexaRustSans-Trial-Black2', 'Nexa Rust Sans-Trial';font-weight:900;font-size:9.721px;fill:#01acfd;">P</text></g><g transform="matrix(0.387319,0.921946,-0.921946,0.387319,804.282,-1296.72)"><text x="1377.78px" y="-43.231px" style="font-family:'NexaRustSans-Trial-Black2', 'Nexa Rust Sans-Trial';font-weight:900;font-size:9.721px;fill:#01acfd;">L</text></g><g transform="matrix(0.219814,0.975542,-0.975542,0.219814,1040.77,-1375.59)"><text x="1380.4px" y="-37.108px" style="font-family:'NexaRustSans-Trial-Black2', 'Nexa Rust Sans-Trial';font-weight:900;font-size:9.721px;fill:#01acfd;">A</text></g><g transform="matrix(0.0728151,0.997345,-0.997345,0.0728151,1250.88,-1406.59)"><text x="1381.95px" y="-30.524px" style="font-family:'NexaRustSans-Trial-Black2', 'Nexa Rust Sans-Trial';font-weight:900;font-size:9.721px;fill:#01acfd;">Y</text></g><g transform="matrix(-0.00436053,0.99999,-0.99999,-0.00436053,1363.67,-1407.14)"><text x="1382.35px" y="-24.701px" style="font-family:'NexaRustSans-Trial-Black2', 'Nexa Rust Sans-Trial';font-weight:900;font-size:9.721px;fill:#01acfd;">.</text></g><g transform="matrix(-0.0728151,0.997345,-0.997345,-0.0728151,1461.21,-1402.08)"><text x="1382.33px" y="-21.834px" style="font-family:'NexaRustSans-Trial-Black2', 'Nexa Rust Sans-Trial';font-weight:900;font-size:9.721px;fill:#01acfd;">I</text></g><g transform="matrix(-0.209117,0.977891,-0.977891,-0.209117,1653.22,-1373.98)"><text x="1382.22px" y="-18.458px" style="font-family:'NexaRustSans-Trial-Black2', 'Nexa Rust Sans-Trial';font-weight:900;font-size:9.721px;fill:#01acfd;">O</text></g><g transform="matrix(-0.681665,0.731665,-0.731665,-0.681665,2311.64,-999.364)"><text x="1373.22px" y="3.195px" style="font-family:'NexaRustSans-Trial-Black2', 'Nexa Rust Sans-Trial';font-weight:900;font-size:9.721px;fill:#01acfd;">R</text></g><g transform="matrix(-0.789187,0.614153,-0.614153,-0.789187,2453.14,-824.897)"><text x="1368.15px" y="8.581px" style="font-family:'NexaRustSans-Trial-Black2', 'Nexa Rust Sans-Trial';font-weight:900;font-size:9.721px;fill:#01acfd;">E</text></g><g transform="matrix(-0.878608,0.477543,-0.477543,-0.878608,2566.21,-626.816)"><text x="1362.77px" y="12.758px" style="font-family:'NexaRustSans-Trial-Black2', 'Nexa Rust Sans-Trial';font-weight:900;font-size:9.721px;fill:#01acfd;">P</text></g><g transform="matrix(-0.94273,0.333555,-0.333555,-0.94273,2640.53,-421.033)"><text x="1356.41px" y="16.165px" style="font-family:'NexaRustSans-Trial-Black2', 'Nexa Rust Sans-Trial';font-weight:900;font-size:9.721px;fill:#01acfd;">L</text></g><g transform="matrix(-0.986647,0.162872,-0.162872,-0.986647,2685.22,-183.28)"><text x="1350.12px" y="18.432px" style="font-family:'NexaRustSans-Trial-Black2', 'Nexa Rust Sans-Trial';font-weight:900;font-size:9.721px;fill:#01acfd;">A</text></g><g transform="matrix(-0.999874,0.0158546,-0.0158546,-0.999874,2687.07,17.9063)"><text x="1343.46px" y="19.604px" style="font-family:'NexaRustSans-Trial-Black2', 'Nexa Rust Sans-Trial';font-weight:900;font-size:9.721px;fill:#01acfd;">Y</text></g><g transform="matrix(-0.998139,-0.0609717,0.0609717,-0.998139,2671.59,120.851)"><text x="1337.64px" y="19.665px" style="font-family:'NexaRustSans-Trial-Black2', 'Nexa Rust Sans-Trial';font-weight:900;font-size:9.721px;fill:#01acfd;">.</text></g><g transform="matrix(-0.991544,-0.129774,0.129774,-0.991544,2655.74,212.022)"><text x="1334.78px" y="19.483px" style="font-family:'NexaRustSans-Trial-Black2', 'Nexa Rust Sans-Trial';font-weight:900;font-size:9.721px;fill:#01acfd;">I</text></g><g transform="matrix(-0.964192,-0.265206,0.265206,-0.964192,2610.07,390.786)"><text x="1331.42px" y="19.186px" style="font-family:'NexaRustSans-Trial-Black2', 'Nexa Rust Sans-Trial';font-weight:900;font-size:9.721px;fill:#01acfd;">O</text></g><g transform="matrix(-0.870725,-0.491771,0.491771,-0.870725,2461.37,677.406)"><text x="1319.72px" y="15.184px" style="font-family:'SFProDisplay-Black', 'SF Pro Display';font-weight:900;font-size:9.721px;fill:#01acfd;">•</text></g><g transform="matrix(-0.742485,-0.669863,0.669863,-0.742485,2280.15,898.512)"><text x="1312.78px" y="10.977px" style="font-family:'NexaRustSans-Trial-Black2', 'Nexa Rust Sans-Trial';font-weight:900;font-size:9.721px;fill:#01acfd;">R</text></g><g transform="matrix(-0.627033,-0.778993,0.778993,-0.627033,2122.39,1028.16)"><text x="1307.33px" y="6.002px" style="font-family:'NexaRustSans-Trial-Black2', 'Nexa Rust Sans-Trial';font-weight:900;font-size:9.721px;fill:#01acfd;">E</text></g><g transform="matrix(-0.491771,-0.870725,0.870725,-0.491771,1943.26,1135.63)"><text x="1303.06px" y="0.688px" style="font-family:'NexaRustSans-Trial-Black2', 'Nexa Rust Sans-Trial';font-weight:900;font-size:9.721px;fill:#01acfd;">P</text></g><g transform="matrix(-0.348767,-0.93721,0.93721,-0.348767,1758.05,1210.35)"><text x="1299.54px" y="-5.628px" style="font-family:'NexaRustSans-Trial-Black2', 'Nexa Rust Sans-Trial';font-weight:900;font-size:9.721px;fill:#01acfd;">L</text></g><g transform="matrix(-0.179127,-0.983826,0.983826,-0.179127,1541.21,1262.22)"><text x="1297.18px" y="-11.858px" style="font-family:'NexaRustSans-Trial-Black2', 'Nexa Rust Sans-Trial';font-weight:900;font-size:9.721px;fill:#01acfd;">A</text></g><g transform="matrix(-0.0320965,-0.999485,0.999485,-0.0320965,1355.98,1276.14)"><text x="1295.9px" y="-18.496px" style="font-family:'NexaRustSans-Trial-Black2', 'Nexa Rust Sans-Trial';font-weight:900;font-size:9.721px;fill:#01acfd;">Y</text></g><g transform="matrix(0.0451581,-0.99898,0.99898,0.0451581,1261.55,1271.18)"><text x="1295.74px" y="-24.342px" style="font-family:'NexaRustSans-Trial-Black2', 'Nexa Rust Sans-Trial';font-weight:900;font-size:9.721px;fill:#01acfd;">.</text></g><g transform="matrix(0.113725,-0.993512,0.993512,0.113725,1175.53,1263.37)"><text x="1295.88px" y="-27.197px" style="font-family:'NexaRustSans-Trial-Black2', 'Nexa Rust Sans-Trial';font-weight:900;font-size:9.721px;fill:#01acfd;">I</text></g><g transform="matrix(0.249406,-0.968399,0.968399,0.249406,1002.45,1232.22)"><text x="1296.12px" y="-30.561px" style="font-family:'NexaRustSans-Trial-Black2', 'Nexa Rust Sans-Trial';font-weight:900;font-size:9.721px;fill:#01acfd;">O</text></g></g><g transform="matrix(0.999999,-0.00109808,0.00109808,0.999999,0.213838,-0.281157)"><text x="55.067px" y="293.324px" style="font-family:'Futura-Bold', 'Futura', sans-serif;font-weight:700;font-size:50px;fill:#f02d5e;">P<tspan x="87.362px 121.207px 137.302px 181.247px 206.342px 223.914px 254.859px 278.204px 315.049px 340.144px 367.039px 417.184px 444.079px 488.024px " y="293.324px 293.324px 293.324px 293.324px 293.324px 293.324px 293.324px 293.324px 293.324px 293.324px 293.324px 293.324px 293.324px 293.324px ">RINT STATEMENT</tspan></text></g><g><path d="M419.899,349.136c-0,-2.675 -2.171,-4.846 -4.846,-4.846l-260.294,0c-2.674,0 -4.845,2.171 -4.845,4.846c0,2.674 2.171,4.845 4.845,4.845l260.294,-0c2.675,-0 4.846,-2.171 4.846,-4.845Z" style="fill:#bbb;"/><path d="M335.141,349.136c0,-2.676 -2.169,-4.846 -4.845,-4.846l-175.537,0c-2.676,0 -4.845,2.17 -4.845,4.846c0,2.676 2.169,4.845 4.845,4.845l175.537,-0c2.676,-0 4.845,-2.169 4.845,-4.845Z" style="fill:#01acfd;fill-rule:nonzero;"/><circle cx="211.187" cy="349.136" r="9.691" style="fill:#01acfd;"/><circle cx="337.164" cy="349.136" r="9.691" style="fill:#f02d5e;"/></g><g><path d="M383.249,202.568c0,-16.098 -13.069,-29.167 -29.166,-29.167l-137.5,0c-16.098,0 -29.167,13.069 -29.167,29.167c0,16.097 13.069,29.166 29.167,29.166l137.5,0c16.097,0 29.166,-13.069 29.166,-29.166Z" style="fill:#01acfd;"/><rect x="365.898" y="199.311" width="17.308" height="33.097" style="fill:#01acfd;"/><rect x="187.401" y="199.311" width="17.308" height="33.097" style="fill:#01acfd;"/><path d="M229.961,215.068l0,-23.698l-0.244,-0l-10.318,3.727l-0,3.939l5.989,-2.149l0,18.181l4.573,-0Zm22.152,-8.806l0,-14.892l-4.589,-0l-9.961,15.722l0.178,2.832l9.848,0l-0,5.144l4.524,-0l0,-5.144l2.751,0l-0,-3.662l-2.751,0Zm-10.107,0l5.143,-8.024l0.44,-0.781l-0,8.805l-5.583,0Z" style="fill:#f02d5e;fill-rule:nonzero;"/><path d="M264.418,217.102l8.871,-25.732l-4.216,-0l-8.87,25.732l4.215,0Zm19.076,-15.869l-0,3.516l2.457,-0c0.619,-0 1.172,0.07 1.66,0.211c0.5,0.141 0.928,0.358 1.286,0.651c0.347,0.293 0.613,0.668 0.798,1.123c0.184,0.456 0.276,1.004 0.276,1.644c0,0.51 -0.081,0.971 -0.244,1.384c-0.152,0.412 -0.38,0.759 -0.683,1.041c-0.315,0.315 -0.705,0.554 -1.172,0.717c-0.467,0.162 -0.993,0.244 -1.579,0.244c-0.521,-0 -0.998,-0.076 -1.432,-0.228c-0.434,-0.163 -0.809,-0.385 -1.123,-0.668c-0.326,-0.271 -0.575,-0.596 -0.749,-0.976c-0.174,-0.391 -0.26,-0.814 -0.26,-1.27l-4.525,0c-0,1.151 0.222,2.149 0.667,2.995c0.456,0.847 1.058,1.546 1.807,2.1c0.748,0.564 1.6,0.987 2.555,1.269c0.966,0.272 1.953,0.407 2.962,0.407c1.172,0 2.263,-0.152 3.272,-0.456c1.02,-0.314 1.899,-0.77 2.637,-1.367c0.737,-0.586 1.318,-1.313 1.741,-2.181c0.423,-0.868 0.635,-1.855 0.635,-2.962c-0,-0.629 -0.076,-1.226 -0.228,-1.79c-0.152,-0.565 -0.385,-1.085 -0.7,-1.563c-0.315,-0.466 -0.716,-0.884 -1.204,-1.253c-0.478,-0.369 -1.047,-0.673 -1.709,-0.912c0.564,-0.271 1.063,-0.591 1.497,-0.96c0.434,-0.38 0.798,-0.792 1.09,-1.237c0.293,-0.445 0.516,-0.911 0.668,-1.4c0.152,-0.499 0.228,-1.003 0.228,-1.513c-0,-1.107 -0.196,-2.078 -0.586,-2.914c-0.38,-0.846 -0.917,-1.557 -1.612,-2.132c-0.694,-0.564 -1.53,-0.987 -2.506,-1.269c-0.977,-0.293 -2.051,-0.44 -3.223,-0.44c-1.085,0 -2.099,0.158 -3.043,0.472c-0.933,0.315 -1.747,0.754 -2.442,1.319c-0.694,0.575 -1.242,1.258 -1.644,2.05c-0.39,0.792 -0.585,1.671 -0.585,2.637l4.524,0c0,-0.434 0.087,-0.825 0.261,-1.172c0.173,-0.347 0.412,-0.645 0.716,-0.895c0.293,-0.239 0.634,-0.423 1.025,-0.553c0.402,-0.131 0.83,-0.196 1.286,-0.196c0.553,0 1.036,0.076 1.448,0.228c0.424,0.152 0.771,0.364 1.042,0.635c0.271,0.282 0.472,0.618 0.603,1.009c0.14,0.38 0.211,0.803 0.211,1.27c-0,0.477 -0.071,0.922 -0.211,1.334c-0.131,0.402 -0.332,0.744 -0.603,1.026c-0.293,0.325 -0.678,0.58 -1.155,0.765c-0.467,0.173 -1.026,0.26 -1.677,0.26l-2.457,0Zm26.546,13.835l-0,-23.698l-0.244,-0l-10.32,3.727l0,3.939l5.99,-2.149l0,18.181l4.574,-0Z" style="fill:#fff;fill-rule:nonzero;"/><path d="M330.556,197.329l12.5,12.5" style="fill:none;fill-rule:nonzero;stroke:#fff;stroke-width:4.17px;"/><path d="M352.61,197.329l-12.5,12.5" style="fill:none;fill-rule:nonzero;stroke:#fff;stroke-width:4.17px;"/></g><g><path d="M311.27,401.755c0,-16.098 -13.069,-29.167 -29.166,-29.167c-16.098,0 -29.167,13.069 -29.167,29.167c0,16.097 13.069,29.167 29.167,29.167c16.097,-0 29.166,-13.07 29.166,-29.167Z" style="fill:#01acfd;"/><path d="M290.854,395.922l-14.85,14.583l-5.567,-5.469" style="fill:none;fill-rule:nonzero;stroke:#fff;stroke-width:8.33px;stroke-linecap:round;stroke-linejoin:round;"/></g><path d="M545.468,223.187c0.282,0.922 0.919,3.322 -0.26,3.795c-2.972,1.19 -1.628,-9.921 0.26,-3.795Zm-23.632,151.956c-0.995,4.556 5.322,-2.559 1.334,-3.633c0.589,1.629 -1.099,2.56 -1.334,3.633Zm-450.853,-207.336c4.006,3.689 -0.84,-8.598 -1.594,-4.16c-0.245,1.438 1.051,3.663 1.594,4.16Zm50.061,267.343c1.015,-0.992 -7.597,3.838 -5.221,3.842c1.723,0.004 3.755,-2.399 5.221,-3.842Zm-27.382,-18.422c0.457,1.323 -4.868,-26.6 -4.59,-22.589c0.24,3.434 3.793,20.278 4.59,22.589Zm-17.856,-20.413c0.437,0.902 2.536,0.29 4.24,0.199c3.893,-0.201 9.217,0.704 7.367,-4.718c-2.012,-5.896 -12.795,2.068 -11.607,4.519Zm-28.462,-136.916c4.342,-0.094 -6.554,-3.918 -6.359,-1.434c0.082,1.048 1.603,2.937 3.069,2.763c0.407,-0.048 1.947,-1.301 3.29,-1.329Zm0.03,45.459c3.397,-0.508 -5.323,-5.042 -4.659,-2.252c0.368,1.544 2.501,2.576 4.659,2.252Zm-9.864,24.917c1.376,-0.257 1.176,-3.287 0.609,-4.596c-1.993,-4.602 -3.637,5.163 -0.609,4.596Zm194.733,-300.931c4.325,1.345 11.323,2.49 16.221,-0.3c0.648,-0.366 3.315,-3.298 3.334,-3.293c0.163,0.061 0.783,1.512 0.971,1.681c3.112,2.757 16.095,2.75 15.986,-3.279c7.407,6.991 24.344,1.606 34.391,5.171c0.076,-4.958 -9.797,-2.563 -10.453,-6.32c-0.661,-3.774 2.968,-0.712 4.164,-0.392c0.825,0.222 1.292,-0.089 1.814,0.066c2.566,0.765 3.686,5.206 5.866,6.917c3.643,2.856 12.468,2.115 18.174,2.007c2.43,-0.046 7.279,1.445 6.363,-2.032c1.268,2.364 4.575,6.123 6.698,2.895c-0.158,0.241 0.715,-1.709 0.991,-1.633c1.502,0.394 -1.231,3.739 0.724,4.42c0.585,0.203 1.331,-1.037 2.384,-1.364c1.611,-0.494 4.227,0.223 5.593,0.179c5.212,-0.164 -1.698,0.266 -1.379,2.137c0.575,3.342 11.595,-2.858 8.684,3.088c0.851,0.112 1.785,-1.438 2.695,-1.252c1.134,0.228 1.215,3.131 1.832,3.673c1.153,1.018 5.44,-0.228 6.779,0.027c7.51,1.429 14.516,9.033 23.146,7.834c-0.106,0.332 -0.569,0.742 -0.162,1.075c1.424,-0.372 2.284,-1.174 3.213,-1.924c-0.72,0.376 -1.68,0.571 -2.774,0.661c0.991,-2.135 6.505,-5.85 7.05,-1.366c0.374,3.075 -3.906,4.918 -6.138,6.066c8.513,2.819 16.714,8.31 24.006,13.292c1.234,0.845 6.271,4.876 7.965,4.537c1.437,-0.29 1.577,-2.56 2.932,-2.939c1.711,-0.483 2.479,0.267 2.835,0.984c0.261,0.518 0.337,5.019 -0.733,4.764c-1.088,-0.261 -0.508,-4.203 -2.4,-2.25c-1.092,1.128 9.605,4.908 12.095,5.054c-1.027,0.937 1.475,4.98 3.466,4.67c-5.206,1.444 3.593,4.81 4.529,5.886c-0.285,-0.329 1.694,3.156 1.904,3.064c0.416,-0.187 -0.32,-4.375 1.077,-3.301c0.447,0.346 0.172,3.13 0.333,3.721c1.273,4.682 6.952,6.12 10.06,9.082c5.944,5.659 11.579,14.067 16.528,21.792c3.637,5.674 7.426,11.89 11.327,17.649c1.243,1.84 2.745,5.056 3.916,5.814c0.946,0.616 2.028,0.139 2.985,0.968c1.258,1.088 1.68,4.157 3.061,5.02c0.187,0.12 2.187,0.216 2.316,0.452c0.49,0.909 -3.007,1.317 -1.638,2.472c0.506,0.426 2.001,-0.45 2.466,0.433c0.549,1.034 -1.568,2.547 -1.335,3.635c0.122,0.56 1.905,1.494 2.549,2.228c6.136,7.039 6.7,23.782 15.915,25.185c-5.102,6.854 2.66,18.798 4.199,26.551c0.139,0.696 0.141,2.217 0.307,2.369c0.669,0.616 2.692,-0.689 3.574,-0.312c0.288,0.123 1.353,1.527 0.879,2.143c-0.885,1.152 -3.201,-1.122 -3.907,0.053c-0.455,0.76 1.979,4.51 2.29,6.028c1.43,7.042 -0.253,14.324 2.168,20.194c0.484,1.173 2.089,2.974 2.091,3.34c0.001,0.386 -1.054,1.547 -1.122,1.803c-1.488,5.608 -1.263,14.514 -0.657,21.613c0.703,8.239 4.803,11.639 6.105,18.026c-1.471,-0.827 -2.524,-2.679 -4.364,-2.296c-3.379,0.708 -1.524,9.98 -1.174,14.156c0.08,0.932 0.44,4.98 0.475,5.959c0.139,4.21 -0.307,-0.082 -1.372,-0.124c-0.81,-0.027 -1.126,2.472 -1.522,3.359c-1.908,4.295 -6.987,11.842 -1.572,15.712c1.554,1.113 -3.99,1.249 -4.25,2.056c-0.112,0.346 0.936,1.204 1.322,2.088c1.642,3.731 -27.391,59.163 -27.047,59.515c0.724,0.745 3.077,-1.293 1.853,0.362c-2.699,3.643 -8.868,6.793 -7.461,12.107c-0.845,-0.564 -2.161,-1.515 -2.928,-0.522c-0.146,0.19 0.861,3.832 0.246,5.386c-0.257,0.656 -2.065,3.074 -3.006,2.349c-1.811,-1.4 2.544,-2.386 1.484,-3.656c-0.296,-0.352 -1.558,0.781 -0.998,0.431c-2.137,1.343 -5.634,3.82 -6.958,5.57c-0.63,0.836 -1.091,7.471 -2.126,7.953c-1.362,0.633 -2.538,-0.681 -3.574,0.315c-2.033,1.95 1.734,5.614 1.392,8.399c-0.669,-0.552 -1.543,-1.367 -2.452,-1.485c-0.664,-0.091 -2.386,0.51 -2.682,0.196c-0.963,-1.016 2.471,-2.323 1.5,-3.508c-0.239,-0.293 -1.217,0.861 -0.702,0.392c-7.701,7.016 -17.316,13.682 -20.777,23.172c-0.176,-1.039 0.192,-3.042 -1.124,-2.866c-0.865,0.115 -1.099,2.481 -1.392,3.193c-1.139,2.752 -2.541,3.855 -4.509,5.854c-0.523,0.53 -2.378,2.932 -2.674,2.604c-0.985,-1.086 1.396,-2.677 0.761,-3.409c-0.946,-1.094 -3.935,4.291 -1.843,5.508c-5.513,-3.617 -7.872,3.735 -12.29,5.058c6.212,0.152 -0.245,2.84 -3.286,2.534c-0.625,-0.063 -1.709,-0.903 -2.188,-0.618c-0.252,0.15 -0.664,2.267 -0.856,2.67c-0.878,1.816 -3.017,5.967 -4.895,6.357c-1.677,0.343 -3.138,-1.789 -4.86,-1.476c-2.707,0.487 -2.729,5.609 -5.654,6.301c-1.112,0.264 -2.231,-0.351 -3.226,-0.482c4.581,2.906 -5.042,7.251 -5.977,4.99c-0.451,-1.095 1.612,-1.586 1.086,-2.099c-4.683,2.444 -12.133,4.739 -16.219,8.431c-0.397,0.353 -1.719,2.453 -2.081,2.527c-0.506,0.101 -1.967,-1.051 -2.099,-1.083c-4.732,-1.094 -11.264,0.841 -16.376,2.577c-3.405,1.156 -8.638,2.832 -9.531,5.455c-0.383,1.128 0.27,2.993 -0.425,3.667c-2.244,2.174 -6.017,-3.124 -8.231,-1.943c-0.859,0.457 -0.508,2.198 -1.006,2.692c-0.563,0.556 -3.049,1.077 -4.643,1.352c-3.888,0.673 -7.597,1.396 -10.432,1.957c-8.96,1.78 -16.822,-2.216 -26.04,0.067c-2.97,0.742 -3.782,3.205 -6.404,3.993c-5.851,1.767 -9.268,-5.725 -14.505,-5.04c-6.115,0.8 -10.213,9.759 -16.435,5.597c-1.874,-1.254 -2.811,-5.483 -4.36,-5.76c-4.153,-0.734 -3.382,3.462 -4.927,3.804c-0.491,0.107 -3.815,-2.006 -4.973,-2.366c-5.671,-1.76 -12.621,-1.974 -17.629,-3.583c0.092,1.047 0.387,2.252 -0.078,2.872c-2.425,-8.848 -29.405,-10.962 -32.086,-10.59c-1.112,0.156 -0.993,1.324 -1.938,1.306c-1.456,-0.026 -2.331,-2.772 -3.35,-3.78c-2.492,-2.455 -7.67,-4.458 -11.32,-4.853c-1.647,-0.178 -3.414,0.375 -4.468,-0.776c-0.813,-0.888 -0.548,-1.775 -1.085,-2.569c-0.817,-1.209 -2.824,-2.002 -4.157,-1.87c-0.517,0.054 -1.215,0.761 -1.868,0.694c-1.4,-0.141 -1.814,-2.57 -3.55,-2.999c-2.221,-0.554 -5.14,0.936 -6.43,-0.822c-0.957,-1.305 -0.423,-2.656 -1.309,-3.144c-2.052,-1.121 -6.326,1.297 -7.415,-1.446c-0.184,-0.459 0.246,-1.346 -0.122,-2.092c-0.922,-1.868 -4.466,-0.237 -7.003,-0.595c-4.097,-0.576 -4.885,-10.604 -8.796,-12.106c-2.409,-0.92 -4.321,0.938 -6.849,0.588c-2.599,-0.358 -1.383,-2.958 -2.429,-4.802c-0.549,-0.963 -2.374,-0.506 -2.858,-1.136c-0.513,-0.664 -0.198,-2.487 -0.703,-3.07c-1.365,-1.585 -2.561,0.922 -3.918,1.112c-3.441,0.482 -6.044,-6.657 -9.085,-6.197c-0.011,0.001 -1.375,1.713 -1.919,1.452c-0.91,-0.436 -1.854,-4.447 -1.375,-4.789c0.515,-0.368 2.756,1.6 3.436,2.112c0.918,0.693 2.76,2.246 3.713,1.927c3.17,-1.063 -2.152,-5.63 -2.918,-6.245c-1.798,-1.442 -3.449,-3.007 -4.814,-3.441c-0.074,0.643 0.05,5.635 -1.532,4.417c-0.102,-0.079 0.525,-2.882 0.464,-3.374c-0.42,-3.408 -3.723,-4.413 -4.867,-7.347c-0.11,-0.279 -0.324,-1.723 -0.38,-1.757c-0.181,-0.117 -2.333,0.67 -2.628,0.64c-3.491,-0.321 -3.939,-8.087 -7.667,-8.035c-0.545,0.009 -1.673,0.796 -2.181,0.585c-1.942,-0.815 1.439,-4.415 1.458,-5.007c0.035,-1.113 -0.899,-2.32 -1.255,-2.7c-2.515,-2.68 -9.777,-4.16 -10.337,-8.894c-0.202,-1.698 1.085,-3.169 0.795,-4.318c-0.222,-0.868 -1.581,-1.989 -2.195,-1.823c-0.354,0.098 -2.107,4.063 -3.002,3.551c-0.824,-0.474 -0.152,-3.581 -0.245,-5.386c-0.182,-3.45 -1.271,-3.803 -2.842,-5.655c-0.58,-0.682 -1.715,-2.895 -2.495,-2.987c-0.855,-0.1 -1.643,1.137 -1.958,1.159c-1.571,0.093 -2.8,-1.72 -3.03,-2.469c-1.245,-4.04 3.869,-5.611 3.334,-7.959c-0.341,-1.471 -3.511,-1.64 -5.027,-1.607c-0.831,0.019 -1.664,0.428 -2.095,0.12c-1.07,-0.754 -0.725,-4.794 -0.711,-5.475c0.029,-1.101 0.398,-6.16 1.614,-3.824c-0.782,-2.745 -2.53,-2.754 -4.189,-4.424c-3.211,-3.233 -2.143,-7.951 -3.167,-11.633c-0.699,-2.517 -4.551,-1.924 -4.996,-3.716c0.005,0.015 0.333,-2.833 1.692,-2.029c1.145,0.683 -0.347,2.539 1.067,2.423c1.47,-0.12 -0.443,-4.75 0.031,-5.574c-1.029,-0.022 -1.096,1.747 -2.68,1.401c-1.437,-0.316 -1.582,-7.64 -2.544,-9.153c-0.429,-0.675 -2.074,-1.211 -2.026,-1.695c0.123,-1.189 2.962,-0.472 3.495,-0.905c-10.929,-4.648 0.213,-26.54 -9.41,-31.898c1.377,0 1.873,1.145 3.431,0.907c-2.612,-1.901 -1.066,-8.753 -1.648,-11.527c-0.809,-3.863 -2.604,1.805 -0.91,3.429c-7.387,-1.689 2.98,-6.536 1.565,-9.988c-0.802,-1.958 -4.147,-0.774 -4.497,-3.33c-0.556,-4.048 5.49,-5.574 3.913,-10.443c-1.576,1.671 -4.965,4.667 -5.224,-0.826c-0.104,-2.135 0.271,-4.525 1,-7.359c0.681,-2.639 2.299,-7.287 4.458,-5.093c0.213,-2.646 -0.18,-6.264 -1.262,-8.568c0.013,1.02 0.394,2.258 -0.288,2.444c-1.592,0.437 -0.735,-4.345 0.14,-5.89c0.358,-0.628 1.313,-1.618 0.599,-2.332c0.038,2.013 -0.917,1.618 -1.569,0.655c-2.966,-4.392 2.703,-5.052 4.555,-7.821c1.4,-2.097 0.937,-7.463 1.486,-10.581c1.222,-6.948 3.555,-13.454 5.445,-19.522c0.86,-2.766 2.78,-7.577 2.305,-10.085c-0.223,-1.174 -1.894,-2.834 -1.89,-4.122c0.005,-3.433 5.583,-6.259 7.291,-8.776c0.372,-0.543 1.371,-2.655 0.594,-3.54c-0.478,-0.543 -2.079,-0.284 -2.631,-0.56c-3.626,-1.8 1.246,-6.365 0.307,-9.222c-0.498,-1.519 -3.077,-1.339 -3.438,-2.115c-0.226,-0.487 0.974,-2.247 1.027,-2.542c0.799,-4.392 -4.11,-6.707 -6.777,-3.485c-2.671,3.231 -1.609,11.499 -1.677,17.23c-0.07,6.03 -1.04,10.002 -3.264,14.272c-2.285,4.384 -4.334,7.866 -5.273,12.729c-0.932,4.828 -0.842,10.498 -0.924,16.079c-0.082,5.499 -0.862,9.655 -2.782,14.513c-1.953,4.936 -2.606,9.108 -2.931,14.533c-0.685,11.463 -0.46,24.511 0.64,37.401c2.2,25.792 8.19,48.422 16.345,69.088c4.277,10.832 9.14,20.695 13.683,31.191c1.624,3.746 2.603,8.024 4.275,10.887c1.104,1.891 3.853,3.169 5.45,4.863c3.31,3.511 5.315,8.959 7.932,13.573c1.014,1.786 2.857,5.797 4.29,6.369c0.606,0.239 2.043,-0.35 2.85,-0.069c1.834,0.631 3.979,6.398 5.113,8.065c3.683,5.424 7.473,9.967 11.772,14.132c2.246,2.174 4.759,3.648 7.044,5.557c7.317,6.117 11.861,13.289 20.361,17.68c2.635,1.363 6.608,2.599 7.965,4.539c1.325,1.894 1.145,3.672 3.575,4.351c1.955,0.547 6.001,-0.676 6.709,0.636c0.304,0.561 -0.117,2.074 0.215,2.832c0.836,1.917 5.216,2.919 7.26,3.723c2.648,1.047 6.132,2.091 7.259,3.724c0.644,0.94 0.802,2.894 1.476,3.274c1.113,0.624 3.139,-0.484 4.627,-0.302c2.73,0.335 4.434,4.533 6.955,6.025c4.583,2.705 11.527,1.678 16.559,4.624c4.567,2.671 8.348,7.506 13.461,7.434c3.299,-0.045 3.363,0.658 5.323,1.569c4.358,2.022 10.349,2.861 15.72,3.98c5.608,1.171 11.647,1.75 17.03,2.458c12.056,1.574 22.711,2.546 35.348,3.238c18.748,1.024 38.984,0.545 58.547,-4.741c6.03,-1.627 11.8,-3.959 18.014,-5.046c8.96,-1.568 14.018,-3.039 20.19,-6.839c4.401,-2.708 9.928,-7.119 15.72,-7.61c2.342,-0.199 5.525,1.181 7.724,0.355c1.154,-0.438 1.764,-2.228 2.784,-2.923c2.243,-1.529 5.129,-2.355 7.501,-3.684c11.924,-6.684 21.094,-14.935 32.985,-21.897c2.206,-1.291 3.612,-3.12 5.998,-4.842c1.964,-1.42 5.706,-2.992 6.496,-4.458c0.349,-0.64 0.019,-2.99 0.91,-3.431c1.657,-0.815 5.24,2.247 7.73,1.557c1.825,-0.503 0.833,-1.618 0.946,-3.134c0.071,-0.919 1.107,-2.102 1.972,-2.212c0.658,-0.082 0.958,0.832 1.873,0.509c1.673,-0.586 -0.242,-4.813 1.992,-5.527c1.5,-0.48 2.568,1.139 4.427,0.479c1.529,-0.543 1.827,-4.672 2.193,-6.306c1.185,-5.267 4.763,-6.848 7.485,-10.757c1.051,-1.507 3.018,-5.763 4.639,-6.023c0.675,-0.109 1.16,0.846 2.04,0.637c1.927,-0.454 4.478,-5.763 5.611,-7.803c1.134,-2.04 2.906,-7.409 5.091,-8.336c0.785,-0.335 2.29,-0.126 3.364,-0.741c1.932,-1.101 3.073,-4.57 3.823,-6.517c1.382,-3.599 3.47,-9.94 6.576,-3.863c2.11,-1.8 -4.086,-5.257 -2.278,-7.083c0.397,-0.399 2.33,0.854 2.801,0.693c1.374,-0.478 1.599,-4.442 1.749,-6.251c0.177,-2.191 9.641,-17.971 10.541,-18.53c0.023,-0.014 0.162,-1.952 0.174,-2.13c0.208,-3.528 0.939,-6.643 3.146,-8.239c0.325,-0.235 2.204,-0.821 2.085,-1.324c-0.22,-0.938 -2.229,0.363 -2.593,-0.266c-0.283,-0.488 0.678,-0.952 0.367,-0.648c2.017,-1.973 1.767,-3.04 2.489,-6.347c0.084,-0.38 1.204,-4.034 1.927,-3.71c0.084,0.035 0.415,1.418 0.505,1.588c1.777,3.202 5.499,-4.627 5.418,-5.82c-0.307,0.581 -4.409,2.813 -4.068,1.129c-0.005,0.025 1.47,-0.618 1.701,-0.822c3.179,-2.818 -0.392,-11.6 4.422,-12.32c-2.563,-2.231 -1.31,-6.603 2.583,-5.604c-2.198,-12.164 -0.482,-23.53 0.542,-34.092c0.455,2.964 -0.264,6.919 3.731,5.537c-6.115,-13.168 -0.637,-27.187 -2.416,-40.636c-0.777,-5.882 -3.752,-12.796 -3.901,-18.461c-0.031,-1.18 0.244,-2.579 1.134,-2.855c1.239,-0.389 2.716,1.383 3.766,1.168c1.534,-0.319 0.814,-3.501 0.638,-5.507c-0.71,-8.166 -2.347,-20.566 -7.849,-23.366c-1.148,-0.584 -2.206,-0.428 -2.877,-1.283c-2.479,-3.179 -2.675,-9.71 -4.086,-14.073c-1.645,-5.099 -3.313,-8.991 -5.114,-12.736c-2.695,-5.598 -5.142,-12.896 -7.609,-19.183c-0.74,-1.887 -1.603,-4.966 -2.753,-6.117c-0.667,-0.669 -1.942,-0.631 -2.58,-1.322c-1.544,-1.687 -2.361,-4.756 -3.477,-7.077c-3.454,-7.17 -6.547,-14.758 -12.167,-19.496c-2.013,-1.699 -3.947,-2.833 -5.539,-4.4c-1.706,-1.682 -2.858,-3.923 -4.269,-6.219c-7.748,-12.611 -18.964,-23.002 -29.079,-32.658c-3.249,-3.098 -6.731,-6.704 -10.453,-9.784c-3.596,-2.974 -9.949,-3.377 -13.049,-6.584c-1.414,-1.462 -2.498,-4.387 -3.75,-5.686c-2.326,-2.416 -8.161,-1.651 -10.149,-3.954c-1.307,-1.511 -0.843,-3.478 -2.321,-5.117c-1.396,-1.548 -5.465,-0.219 -7.335,-0.853c-3.014,-1.027 -4.232,-5.388 -6.924,-6.931c-2.068,-1.185 -6.021,0.795 -8.019,-0.315c-1.335,-0.744 -1.862,-3.794 -3.782,-4.777c-3.643,-1.869 -8.419,0.397 -10.973,-2.188c-0.623,-0.633 -0.67,-1.515 -1.342,-2.235c-3.197,-3.414 -9.21,-1.954 -13.701,-3.49c-1.779,-0.608 -3.245,-2.007 -4.883,-2.829c-1.726,-0.865 -3.646,-1.389 -5.531,-1.992c-10.782,-3.459 -23.778,-7.774 -38.594,-5.076c-0.735,0.133 -1.155,0.388 -1.906,0.399c-3.321,0.04 -2.134,-4.769 -4.875,-5.089c-3.177,-0.37 -5.651,3.897 -9.542,3.047c-1.197,-0.265 -1.945,-1.572 -3.417,-1.968c-3.736,-0.995 -10.091,0.596 -14.18,0.939c-7.017,0.588 -11.806,-2.435 -17.622,-2.381c-5.944,0.055 -10.438,4.245 -15.862,5.373c-2.843,0.589 -5.232,-0.307 -7.184,0.33c-1.409,0.459 -2.718,2.096 -4.969,2.301c-2.175,0.198 -4.406,-0.737 -7.131,-0.429c-6.019,0.683 -11.985,4.291 -19.289,5.665c-1.67,0.315 -3.348,0.291 -5.032,0.653c-3.36,0.724 -4.822,3.206 -7.424,4.275c-3.797,1.56 -7.585,0.129 -11.032,0.832c-4.741,0.966 -5.281,4.428 -8.36,6.354c-0.799,0.5 -6.248,1.43 -6.657,2.067c-0.707,1.108 0.626,2.817 0.996,3.035c1.46,0.848 4.603,-0.72 5.679,-1.492c0.198,-0.143 1.721,-2.348 2.285,-2.103c0.667,0.288 0.91,4.939 0.23,5.242c-0.322,0.139 -0.895,-1.115 -1.34,-1.032c-0.165,0.029 -1.484,1.732 -1.842,2.045c-0.671,0.587 -1.34,1.496 -2.343,1.659c-3.979,0.647 -5.63,-5.418 -8.693,-5.495c-2.384,-0.06 -2.829,1.996 -4.281,2.964c-2.165,1.441 -5.097,1.596 -7.932,2.687c-2.233,0.855 -4.468,2.568 -6.426,3.843c-8.353,5.446 -16.049,10.894 -24.701,16.153c-3.946,2.403 -9.294,5.161 -11.662,8.744c-0.756,1.141 -0.802,3.439 -1.554,4.264c-0.912,1.004 -3.665,1.449 -4.893,2.893c-1.37,1.617 -1.69,4.344 -3.361,5.406c-1.317,0.834 -3.31,0.78 -4.623,1.502c-5.465,3.007 -6.938,10.805 -11.375,14.423c-1.675,1.366 -3.961,1.793 -5.744,3.307c-2.413,2.043 -4.093,6.631 -6.085,9.972c-2.175,3.661 -5.813,6.034 -7.734,8.834c-1.006,1.469 -1.04,3.261 -1.604,5.026c-1.095,3.409 -7.344,5.668 -7.645,8.369c-0.07,0.609 0.676,1.482 0.62,2.477c-0.14,2.58 -3.314,6.397 -4.676,9.187c-1.096,2.244 -4.283,7.723 -2.988,10.627c0.783,1.758 6.815,3.688 9.055,3.642c4.063,-0.087 4.587,-5.193 5.553,-8.249c1.83,-5.786 3.642,-11.005 5.326,-16.949c0.19,-0.668 0.573,-3.328 1.059,-3.451c0.4,-0.1 0.985,1.752 1.783,0.972c1.306,-1.278 -2.043,-3.246 -1.658,-5.803c0.067,-0.449 1.297,-2.002 2.046,-1.624c1.645,0.83 -0.639,5.241 1.821,4.734c-0.121,-1.494 -0.252,-2.672 0.297,-3.504c0.803,-1.204 2.034,-0.544 3.437,-1.348c1.782,-1.024 0.993,-5.927 3.3,-7.052c0.396,-0.193 1.491,-0.036 2.072,-0.269c1.903,-0.763 3.592,-4.698 4.69,-6.782c1.308,-2.476 2.503,-5.445 4.02,-7.298c2.357,-2.87 9.63,-5.21 7.938,-9.61c3.895,1.412 1.857,-4.853 4.212,-5.815c1.148,-0.467 2.991,0.361 4.244,0.204c4.251,-0.539 4.392,-5.796 7.237,-8.017c1.921,-1.499 7.309,-2.191 6.439,-4.902c-0.066,-0.211 -1.168,-0.837 -1.168,-0.899c0.003,-2.07 9.609,-1.984 7.656,-5.964c2.778,2.238 6.894,-1.512 7.373,-3.516c-1.138,0.08 -2.513,0.976 -3,0.088c-0.725,-1.31 6.699,-3.773 6.084,-5.309c-0.104,1.171 -0.566,2.944 0.7,3.071c0.881,0.092 2.037,-2.112 2.358,-2.713c1.669,-3.128 2.381,-7.644 4.544,-10.226c3.446,-4.108 6.401,-0.404 11.069,-0.532c2.368,-0.063 5.424,-0.894 7.693,-2.202c-0.427,0.246 1.428,-1.682 1.753,-1.583c0.282,0.083 0.269,1.592 0.823,1.699c0.415,0.08 1.609,-1.876 2.119,-2.233c4.301,-3.019 13.944,-2.383 13.682,-8.248c3.413,2.67 7.007,-1.716 7.032,-4.978c-0.086,0.405 1.287,5.422 2.333,4.061c0.309,-0.398 -0.543,-2.238 -0.531,-2.94c0.087,-4.935 7.664,4.105 9.442,-0.321c-5.487,1.06 -3.965,-7.068 0.813,-4.174c-2.584,-0.7 -2.982,1.481 -1.914,2.657c2.461,2.706 9.365,0.218 11.954,-1.85c0.445,-0.357 1.289,-1.719 1.882,-1.752c1.597,-0.091 2.12,2.921 4.303,1.85c1.42,-0.695 -0.191,-7.921 0.585,-9.41c0.314,-0.592 2.248,-2.557 2.919,-1.884c1.338,1.348 -2.304,6.144 -1.5,8.174c0.198,0.499 1.519,1.403 2.711,1.153c3.348,-0.698 2.014,-6.56 2.734,-9.086c1.069,3.945 4.753,8.451 8.731,5.792c-1.582,0.908 -2.574,-1.904 -1.248,-1.495Zm299.897,207.662c-1.024,-1.19 -2.264,-3.487 -2.304,-6.173c-0.011,-0.569 0.185,-2.993 1.281,-2.874c2.14,0.227 0.909,7.899 1.023,9.047Zm-3.098,-25.037c1.901,4.017 -3.609,0.465 -1.781,-0.975c0.749,-0.594 1.514,0.406 1.781,0.975Zm-4.231,2.203c-2.093,-1.608 -1.089,-5.603 -2.737,-7.173c-0.354,-0.337 -2.644,-1.034 -2.73,-1.3c-0.376,-1.184 2.647,-1.476 3.64,-2.126c1.211,-0.799 1.083,-2.289 0.498,-4.285c3.667,3.288 2.428,10.944 1.329,14.884Zm2.542,12.616c1.522,3.583 -3.332,4.186 -4.307,1.616c1.546,1.257 3.196,-0.16 4.307,-1.616Zm-6.111,-30.822c0.876,-2.226 -2.193,-3.102 -1.928,-4.413c0.013,-0.061 1.242,-0.956 1.386,-0.934c1.054,0.175 2.563,4.873 0.542,5.347Zm8.227,59.906c1.157,0.374 1.33,3.711 0.688,4.126c-1.63,1.059 -1.391,-3.416 -0.688,-4.126Zm-4.574,-35.237c1.64,2.321 -4.133,1.216 -3.033,-0.206c0.673,-0.881 2.972,0.114 3.033,0.206Zm-4.571,-23.645c0.928,1.191 -0.197,3.507 -1.115,3.004c-1.069,-0.578 0.552,-2.67 1.115,-3.004Zm10.2,97.131c0.46,0.448 3.115,1.146 2.378,2.103c-0.334,0.437 -2.293,-1.365 -2.378,-2.103Zm-13.119,-114.968c0.228,0.94 -0.45,4.687 -2.5,3.937c-2.435,-0.89 1.304,-8.838 2.5,-3.937Zm-5.774,-10.841c0.342,0.776 -0.051,2.472 -0.857,2.669c-2.832,0.694 -0.379,-5.472 0.857,-2.669Zm-18.458,-34.339c1.702,0.35 3.507,1.644 2.591,3.73c-0.179,0.414 -2.576,2.414 -3.548,1.663c-1.389,-1.074 2.093,-3.46 0.957,-5.393Zm-25.444,296.871c0.702,1.449 -1.645,2.365 -2.381,1.36c-0.643,-0.875 1.403,-3.395 2.381,-1.36Zm-68.403,-375.014c-0.373,-0.883 -2.81,-3.315 -1.763,-4.288c0.924,-0.856 1.979,2.902 1.763,4.288Zm-33.301,-16.453c1.249,-0.255 4.18,1.673 2.903,2.635c-1.118,0.84 -2.6,-1.577 -2.903,-2.635Zm48.592,429.975c0.891,0.878 -1.105,3.684 -2.189,2.842c-0.846,-0.656 0.872,-4.141 2.189,-2.842Zm-9.124,8.56c1.303,1.007 -1.981,4.261 -2.732,2.164c-0.325,-0.919 1.923,-2.784 2.732,-2.164Zm-4.512,1.189c0.583,2.064 -0.772,3.908 -2.385,4.826c-1.138,0.648 -0.696,-1.637 -0.308,-2.369c0.554,-1.047 1.964,-1.797 2.693,-2.457Zm-76.733,-451.916c0.455,1.101 -3.662,1.44 -3.979,0.669c-0.644,-1.571 3.604,-1.573 3.979,-0.669Zm-4.499,0.133c0.177,1.954 -5.129,-0.241 -2.284,-1.357c0.775,-0.307 2.237,0.847 2.284,1.357Zm-109.724,2.504c0.279,0.439 0.288,3.08 -0.486,3.222c-1.855,0.341 -0.792,-5.218 0.486,-3.222Zm-28.271,13.002c-0.432,-0.479 -0.577,-1.327 -0.732,-2.162c0.392,0.527 0.554,1.357 0.732,2.162Zm-20.776,8.118c1.151,3.908 -4.087,-0.39 -1.841,-1.418c0.777,-0.356 1.521,0.335 1.841,1.418Zm-22.723,11.681c1.175,3.003 -3.09,0.567 -1.487,-1.013c0.453,-0.444 1.352,0.664 1.487,1.013Zm-34.631,26.625c0.929,0.713 -1.486,2.756 -2.176,1.789c-0.595,-0.838 1.384,-2.395 2.176,-1.789Zm-20.167,23.245c0.417,0.412 0.421,2.012 -0.006,2.257c-1.786,1.031 -1.49,-3.739 0.006,-2.257Zm-41.491,56.121c0.998,0.995 -1.426,2.803 -2.139,2.083c-0.741,-0.751 1.118,-3.108 2.139,-2.083Zm-8.127,144.976c-1.782,0.136 -2.067,-8.879 -0.118,-5.555c0.844,1.439 -0.371,3.853 0.118,5.555Zm15.14,9.927c3.515,0.109 -3.13,-4.74 -2.657,-1.914c0.127,0.771 1.528,1.879 2.657,1.914Z" style="fill:#01acfd;"/></g></svg>