<?xml version="1.0" encoding="UTF-8" standalone="no"?><!DOCTYPE svg PUBLIC "-//W3C//DTD SVG 1.1//EN" "http://www.w3.org/Graphics/SVG/1.1/DTD/svg11.dtd"><svg width="100%" height="100%" viewBox="0 0 546 546" version="1.1" xmlns="http://www.w3.org/2000/svg" xmlns:xlink="http://www.w3.org/1999/xlink" xml:space="preserve" xmlns:serif="http://www.serif.com/" style="fill-rule:evenodd;clip-rule:evenodd;stroke-linecap:round;"><rect id="use_focus_mode-complete" x="2.826" y="0.123" width="541.825" height="541.612" style="fill:none;"/><g><path d="M32.918,275.757c2.663,132.79 112.862,238.656 245.652,235.993c132.79,-2.664 238.651,-112.863 235.988,-245.653c-2.663,-132.785 -112.858,-238.651 -245.648,-235.988c-132.79,2.663 -238.655,112.862 -235.992,245.648m494.138,-9.91c2.801,139.68 -108.555,255.599 -248.236,258.4c-139.684,2.801 -255.598,-108.559 -258.4,-248.239c-2.801,-139.681 108.555,-255.595 248.24,-258.397c139.68,-2.801 255.594,108.556 258.396,248.236" style="fill:#f3726d;fill-rule:nonzero;"/><path d="M86.272,274.496c-1.969,-103.465 80.434,-189.064 183.899,-191.033c103.465,-1.969 189.064,80.434 191.033,183.899c1.969,103.466 -80.434,189.065 -183.899,191.033c-103.465,1.969 -189.064,-80.434 -191.033,-183.899Z" style="fill:none;stroke:#5ea8b1;stroke-width:8.33px;stroke-dasharray:41.67,33.33,0,0;"/></g><g><path d="M128.582,278.236c5.493,-0.006 8.623,-3.264 8.617,-9.042l-0.013,-12.777l15.462,-0.016c4.395,-0.004 7.078,-2.367 7.074,-6.477c-0.005,-4.109 -2.774,-6.467 -7.087,-6.462l-15.462,0.016l-0.012,-11.231l17.212,-0.017c4.557,-0.005 7.607,-2.49 7.602,-6.885c-0.004,-4.394 -2.977,-6.873 -7.616,-6.869l-25.838,0.027c-5.493,0.006 -8.623,3.264 -8.617,9.042l0.043,41.667c0.006,5.778 3.142,9.03 8.635,9.024Z" style="fill:#5ea8b1;fill-rule:nonzero;"/><path d="M201.074,278.161c18.148,-0.018 29.57,-11.627 29.55,-30.385c-0.019,-18.758 -11.465,-30.383 -29.613,-30.365c-18.147,0.019 -29.569,11.668 -29.55,30.426c0.019,18.758 11.424,30.343 29.613,30.324Zm-0.014,-13.753c-7.243,0.008 -12.01,-6.457 -12.021,-16.589c-0.01,-10.173 4.784,-16.647 11.987,-16.655c7.202,-0.007 12.01,6.458 12.02,16.63c0.011,10.132 -4.743,16.607 -11.986,16.614Z" style="fill:#5ea8b1;fill-rule:nonzero;"/><path d="M271.124,278.089c11.434,-0.011 21.316,-5.677 24.725,-14.185c0.609,-1.506 0.933,-3.053 0.931,-4.518c-0.004,-4.598 -3.222,-7.605 -8.145,-7.6c-3.622,0.003 -5.696,1.43 -7.441,5.134c-2.477,5.211 -5.771,7.615 -10.491,7.62c-7.161,0.007 -11.603,-6.254 -11.614,-16.874c-0.01,-10.498 4.459,-16.769 11.539,-16.777c4.517,-0.004 7.774,2.312 10.384,7.314c1.875,3.619 4.155,5.082 7.899,5.078c4.516,-0.005 7.484,-2.856 7.479,-7.25c-0.002,-2.076 -0.614,-4.232 -1.797,-6.265c-4.647,-8.174 -12.952,-12.438 -24.182,-12.426c-17.741,0.018 -28.92,11.016 -28.9,30.384c0.02,19.369 10.977,30.385 29.613,30.365Z" style="fill:#5ea8b1;fill-rule:nonzero;"/><path d="M336.007,278.023c15.503,-0.016 25.87,-8.572 25.856,-21.959l-0.03,-29.785c-0.006,-5.778 -3.143,-9.03 -8.636,-9.024c-5.493,0.005 -8.623,3.264 -8.617,9.042l0.029,27.872c0.006,6.185 -3.042,9.566 -8.617,9.572c-5.574,0.005 -8.63,-3.369 -8.636,-9.554l-0.029,-27.872c-0.006,-5.778 -3.142,-9.03 -8.635,-9.025c-5.493,0.006 -8.623,3.264 -8.617,9.042l0.03,29.785c0.014,13.387 10.399,21.922 25.902,21.906Z" style="fill:#5ea8b1;fill-rule:nonzero;"/><path d="M399.303,277.958c16.194,-0.017 25.626,-7.717 25.614,-19.802c-0.01,-9.522 -5.956,-14.683 -18.572,-16.949l-5.901,-1.052c-5.861,-1.052 -8.385,-2.31 -8.387,-4.955c-0.003,-2.645 2.436,-4.763 7.237,-4.768c3.703,-0.004 6.431,1.092 8.346,4.019c2.078,3.131 4.399,4.39 8.061,4.387c4.313,-0.046 7.159,-2.693 7.155,-6.6c-0.001,-1.342 -0.247,-2.441 -0.736,-3.62c-3.06,-7.321 -11.405,-11.422 -23.043,-11.41c-13.956,0.014 -24.121,7.471 -24.109,19.271c0.009,9.114 6.404,15.008 18.084,17.071l5.901,1.052c6.593,1.173 8.873,2.351 8.876,5.118c0.003,2.889 -3.169,5.008 -8.337,5.013c-3.865,0.004 -7.284,-1.172 -9.322,-4.059c-2.322,-3.253 -4.521,-4.268 -7.776,-4.265c-4.272,0.005 -7.403,2.856 -7.398,7.007c0.001,1.342 0.287,2.726 0.899,4.068c2.529,5.734 10.183,10.487 23.408,10.474Z" style="fill:#5ea8b1;fill-rule:nonzero;"/><path d="M150.562,353.213c4.801,-0.005 7.525,-2.896 7.519,-7.983l-0.027,-27.058l0.325,-0.001l11.708,29.407c1.143,2.929 3.138,4.31 6.23,4.307c3.052,-0.003 4.922,-1.348 6.099,-4.32l11.648,-29.43l0.326,-0.001l0.028,27.059c0.005,5.086 2.734,7.973 7.535,7.968c4.802,-0.005 7.525,-2.897 7.52,-7.983l-0.043,-41.464c-0.007,-7.242 -3.999,-11.307 -11.201,-11.3c-6.063,0.006 -9.275,2.41 -11.71,8.801l-10.104,26.5l-0.326,0l-10.2,-26.479c-2.448,-6.385 -5.665,-8.783 -11.727,-8.777c-7.203,0.008 -11.186,4.081 -11.179,11.324l0.043,41.463c0.005,5.086 2.734,7.972 7.536,7.967Z" style="fill:#5ea8b1;fill-rule:nonzero;"/><path d="M251.374,353.11c18.148,-0.019 29.57,-11.627 29.55,-30.385c-0.019,-18.759 -11.465,-30.384 -29.613,-30.366c-18.147,0.019 -29.569,11.668 -29.55,30.426c0.019,18.759 11.424,30.343 29.613,30.325Zm-0.014,-13.753c-7.243,0.007 -12.01,-6.458 -12.021,-16.59c-0.01,-10.172 4.784,-16.647 11.987,-16.654c7.202,-0.008 12.01,6.457 12.02,16.63c0.011,10.131 -4.743,16.606 -11.986,16.614Z" style="fill:#5ea8b1;fill-rule:nonzero;"/><path d="M301.892,352.041l16.479,-0.017c17.782,-0.019 28.269,-11.016 28.249,-29.815c-0.019,-18.798 -10.487,-28.919 -28.309,-28.901l-16.479,0.017c-5.494,0.005 -8.623,3.264 -8.617,9.042l0.041,40.649c0.006,5.778 3.143,9.03 8.636,9.025Zm8.612,-13.722l-0.032,-31.29l5.412,-0.006c8.26,-0.009 13.148,5.317 13.158,15.205c0.011,10.823 -4.5,16.077 -13.126,16.086l-5.412,0.005Z" style="fill:#5ea8b1;fill-rule:nonzero;"/><path d="M367.588,351.973l26.001,-0.027c4.639,-0.004 7.607,-2.49 7.602,-6.884c-0.004,-4.395 -3.058,-6.874 -7.616,-6.869l-17.374,0.018l-0.01,-9.399l16.683,-0.018c4.191,-0.004 6.793,-2.245 6.789,-6.191c-0.004,-3.947 -2.692,-6.183 -6.802,-6.178l-16.683,0.017l-0.01,-9.44l17.375,-0.018c4.557,-0.005 7.607,-2.49 7.602,-6.885c-0.004,-4.394 -2.977,-6.873 -7.616,-6.868l-26.001,0.026c-5.493,0.006 -8.623,3.264 -8.617,9.042l0.042,40.65c0.006,5.778 3.142,9.03 8.635,9.024Z" style="fill:#5ea8b1;fill-rule:nonzero;"/></g><clipPath id="_clip1"><path d="M71.606,78.959l7.439,390.952l220.432,-4.195l-7.439,-390.951l-220.432,4.194Z"/></clipPath><g clip-path="url(#_clip1)"><g><path d="M86.374,274.225c-1.969,-103.466 80.434,-189.065 183.899,-191.033c103.466,-1.969 189.065,80.433 191.033,183.899c1.969,103.465 -80.434,189.064 -183.899,191.033c-103.465,1.968 -189.064,-80.434 -191.033,-183.899Z" style="fill:none;stroke:#5ea8b1;stroke-width:8.33px;stroke-dasharray:0,0.42,0,0;"/></g></g><path d="M385.017,21.795c-0.837,-0.518 -3.042,-1.77 -3.811,-0.744c-1.936,2.586 9.372,4.195 3.811,0.744Zm-155.998,-16.882c-4.75,-0.227 3.89,-4.519 3.927,-0.346c-1.456,-1.003 -2.807,0.399 -3.927,0.346Zm88.96,494.31c-2.613,-4.878 8.269,3.078 3.696,2.648c-1.482,-0.139 -3.344,-1.988 -3.696,-2.648Zm-250.953,-119.097c1.24,-0.728 -5.735,6.403 -5.129,4.084c0.437,-1.682 3.33,-3.032 5.129,-4.084Zm11.155,31.554c-1.188,-0.793 24.998,11.74 21.113,10.414c-3.328,-1.136 -19.037,-9.029 -21.113,-10.414Zm15.563,22.784c-0.777,-0.663 0.365,-2.55 0.892,-4.189c1.196,-3.745 1.668,-9.176 6.544,-5.947c5.301,3.513 -5.322,11.939 -7.436,10.136Zm127.798,63.748c1.206,-4.211 2.185,7.423 -0.216,6.58c-1.013,-0.355 -2.486,-2.336 -1.939,-3.72c0.151,-0.384 1.783,-1.557 2.155,-2.86Zm-44.848,-11.976c1.373,-3.18 3.61,6.517 1.028,5.137c-1.429,-0.765 -1.9,-3.117 -1.028,-5.137Zm-27.115,3.074c0.607,-1.275 3.545,-0.283 4.691,0.613c4.03,3.154 -6.027,2.192 -4.691,-0.613Zm346.872,-110.881c-0.218,-4.572 0.447,-11.699 4.456,-15.745c0.528,-0.535 4.104,-2.366 4.104,-2.387c-0.018,-0.174 -1.291,-1.161 -1.409,-1.388c-1.923,-3.76 1.414,-16.424 7.334,-14.734c-4.998,-9.062 4.659,-24.17 3.718,-34.908c4.911,1.229 0.016,10.231 3.555,11.859c3.554,1.636 1.464,-2.709 1.454,-3.96c-0.007,-0.863 0.42,-1.237 0.401,-1.787c-0.097,-2.703 -4.192,-4.963 -5.321,-7.54c-1.884,-4.305 1.111,-12.719 2.68,-18.257c0.669,-2.358 0.441,-7.48 3.637,-5.673c-2.007,-1.859 -4.868,-6.072 -1.138,-7.295c-0.279,0.091 1.869,-0.249 1.865,-0.538c-0.004,-1.568 -4.005,0.218 -4.175,-1.867c-0.051,-0.625 1.364,-1.027 1.956,-1.967c0.901,-1.442 0.865,-4.183 1.259,-5.504c1.498,-5.042 -0.699,1.587 -2.463,0.784c-3.15,-1.439 5.793,-10.56 -0.819,-9.283c0.107,-0.86 1.876,-1.364 1.925,-2.3c0.067,-1.167 -2.777,-2.009 -3.154,-2.752c-0.709,-1.393 1.62,-5.247 1.712,-6.621c0.517,-7.702 -5.191,-16.534 -1.794,-24.638c-0.355,0.016 -0.878,0.36 -1.102,-0.125c0.732,-1.291 1.743,-1.919 2.723,-2.628c-0.556,0.603 -0.995,1.489 -1.365,2.532c2.362,-0.406 7.441,-4.809 3.156,-6.518c-2.938,-1.174 -5.854,2.517 -7.559,4.393c-0.598,-9.046 -3.914,-18.489 -6.96,-26.912c-0.517,-1.426 -3.202,-7.399 -2.433,-8.962c0.655,-1.326 2.93,-0.866 3.652,-2.088c0.915,-1.542 0.372,-2.489 -0.244,-3.025c-0.444,-0.39 -4.866,-1.647 -4.889,-0.536c-0.022,1.13 4.017,1.6 1.604,2.932c-1.392,0.769 -2.379,-10.659 -1.885,-13.127c-1.188,0.756 -4.535,-2.748 -3.718,-4.609c-2.76,4.7 -3.825,-4.769 -4.647,-5.964c0.252,0.364 -2.68,-2.483 -2.534,-2.664c0.291,-0.356 4.234,1.463 3.533,-0.182c-0.228,-0.527 -3.045,-0.991 -3.586,-1.303c-4.294,-2.473 -4.257,-8.39 -6.382,-12.201c-4.06,-7.285 -10.91,-14.992 -17.264,-21.85c-4.665,-5.039 -9.827,-10.369 -14.509,-15.688c-1.497,-1.697 -4.286,-4.007 -4.733,-5.349c-0.365,-1.084 0.383,-2.014 -0.189,-3.166c-0.752,-1.513 -3.671,-2.732 -4.169,-4.305c-0.071,-0.214 0.348,-2.191 0.148,-2.378c-0.771,-0.717 -2.07,2.587 -2.859,0.948c-0.291,-0.606 0.956,-1.834 0.205,-2.519c-0.879,-0.808 -2.915,0.86 -3.929,0.346c-0.522,-0.266 -0.986,-2.251 -1.545,-3.072c-5.371,-7.836 -21.748,-12.786 -20.769,-22.144c-8.071,3.175 -17.866,-7.535 -25.121,-11.074c-0.651,-0.319 -2.151,-0.72 -2.259,-0.923c-0.436,-0.814 1.37,-2.444 1.225,-3.404c-0.048,-0.313 -1.16,-1.721 -1.889,-1.42c-1.364,0.56 0.286,3.417 -1.055,3.797c-0.867,0.244 -3.942,-3.116 -5.361,-3.819c-6.581,-3.245 -14.198,-3.517 -19.369,-7.422c-1.033,-0.779 -2.399,-2.819 -2.76,-2.917c-0.38,-0.102 -1.796,0.622 -2.066,0.621c-5.916,-0.023 -14.646,-2.582 -21.495,-5.04c-7.949,-2.851 -10.252,-7.744 -16.221,-10.692c0.44,1.652 1.996,3.165 1.147,4.86c-1.565,3.111 -10.239,-1.136 -14.269,-2.575c-0.899,-0.323 -4.802,-1.738 -5.758,-2.029c-4.119,-1.242 0.002,0.321 -0.23,1.37c-0.18,0.798 -2.727,0.45 -3.705,0.602c-4.726,0.734 -13.475,3.705 -15.906,-2.595c-0.699,-1.808 -2.255,3.565 -3.118,3.605c-0.371,0.019 -0.948,-1.229 -1.722,-1.838c-3.26,-2.582 -65.401,11.173 -65.66,10.744c-0.55,-0.902 2.065,-2.662 0.117,-1.902c-4.285,1.676 -8.976,6.866 -13.858,4.096c0.339,0.973 0.94,2.506 -0.237,2.993c-0.225,0.093 -3.559,-1.847 -5.251,-1.655c-0.713,0.079 -3.562,1.206 -3.088,2.315c0.917,2.135 3.007,-1.855 3.987,-0.486c0.272,0.381 -1.17,1.314 -0.681,0.86c-1.872,1.732 -5.213,4.492 -7.279,5.324c-0.988,0.394 -7.653,-0.9 -8.394,-0.017c-0.974,1.163 0.021,2.655 -1.227,3.404c-2.446,1.471 -5.094,-3.167 -7.93,-3.565c0.373,0.797 0.953,1.865 0.837,2.783c-0.081,0.671 -1.116,2.193 -0.882,2.564c0.755,1.207 2.926,-1.8 3.846,-0.541c0.227,0.31 -1.161,0.96 -0.567,0.581c-8.897,5.669 -17.941,13.297 -28.192,14.179c0.98,0.445 3.051,0.613 2.539,1.85c-0.335,0.814 -2.73,0.42 -3.507,0.519c-3.008,0.388 -4.456,1.466 -6.933,2.86c-0.656,0.371 -3.503,1.549 -3.255,1.924c0.819,1.247 3,-0.659 3.559,0.154c0.837,1.21 -5.243,2.711 -5.907,0.35c2.154,6.329 -5.704,6.698 -8.143,10.66c1.443,-6.1 -2.865,-0.507 -3.343,2.54c-0.098,0.625 0.453,1.904 0.049,2.296c-0.213,0.207 -2.408,0.052 -2.854,0.134c-2.018,0.379 -6.662,1.375 -7.528,3.104c-0.769,1.546 0.961,3.531 0.21,5.129c-1.175,2.513 -6.235,1.188 -7.668,3.86c-0.545,1.015 -0.225,2.269 -0.351,3.274c-1.692,-5.233 -8.448,3.013 -6.457,4.518c0.965,0.729 1.978,-1.155 2.35,-0.507c-3.613,3.926 -7.788,10.591 -12.479,13.607c-0.45,0.294 -2.86,1.031 -3.027,1.365c-0.229,0.467 0.533,2.195 0.531,2.332c-0.134,4.904 -3.719,10.769 -6.743,15.299c-2.014,3.017 -5.01,7.682 -7.826,7.863c-1.211,0.078 -2.885,-1.049 -3.728,-0.548c-2.72,1.617 1.54,6.69 -0.193,8.54c-0.671,0.718 -2.299,-0.082 -2.914,0.274c-0.694,0.403 -1.845,2.691 -2.525,4.174c-1.662,3.616 -3.326,7.044 -4.607,9.663c-4.054,8.272 -2.127,16.992 -6.744,25.384c-1.493,2.702 -4.132,2.848 -5.582,5.198c-3.244,5.244 3.272,10.546 1.253,15.475c-2.357,5.756 -12.248,7.398 -9.737,14.562c0.756,2.157 4.689,4.183 4.565,5.766c-0.34,4.245 -4.283,2.391 -5.017,3.807c-0.231,0.451 1.001,4.25 1.06,5.474c0.282,5.994 -1.289,12.831 -0.986,18.139c-1.009,-0.365 -2.123,-0.97 -2.854,-0.679c8.109,4.692 3.276,31.566 2.221,34.084c-0.439,1.044 -1.561,0.621 -1.785,1.547c-0.349,1.428 2.137,3.003 2.87,4.262c1.784,3.076 2.432,8.654 1.886,12.318c-0.248,1.654 -1.246,3.232 -0.381,4.562c0.668,1.027 1.611,1.002 2.257,1.735c0.983,1.114 1.251,3.281 0.779,4.546c-0.186,0.49 -1.063,0.986 -1.164,1.64c-0.219,1.404 2.071,2.445 2.049,4.252c-0.023,2.311 -2.242,4.767 -0.838,6.488c1.042,1.276 2.512,1.111 2.766,2.104c0.58,2.296 -2.901,5.829 -0.474,7.613c0.406,0.301 1.391,0.114 2.032,0.669c1.607,1.39 -0.911,4.419 -1.208,6.988c-0.482,4.148 9.21,7.552 9.689,11.762c0.291,2.592 -2.034,3.969 -2.336,6.527c-0.313,2.629 2.563,2.127 4.115,3.632c0.81,0.788 -0.11,2.449 0.388,3.086c0.524,0.675 2.403,0.847 2.849,1.493c1.214,1.748 -1.566,2.255 -2.102,3.53c-1.358,3.23 5.019,7.645 3.785,10.491c-0.004,0.01 -2.043,0.891 -1.925,1.491c0.197,1.002 3.912,2.977 4.373,2.599c0.495,-0.405 -0.873,-3.109 -1.204,-3.907c-0.448,-1.078 -1.508,-3.283 -0.949,-4.128c1.862,-2.813 5.004,3.578 5.414,4.488c0.962,2.133 2.083,4.154 2.16,5.6c-0.652,-0.096 -5.546,-1.529 -4.75,0.333c0.052,0.121 2.978,0.246 3.447,0.435c3.255,1.305 3.4,4.792 6.002,6.679c0.247,0.18 1.617,0.769 1.636,0.832c0.07,0.208 -1.259,2.1 -1.305,2.395c-0.579,3.49 6.969,5.968 5.962,9.591c-0.148,0.53 -1.215,1.423 -1.137,1.974c0.307,2.109 4.726,-0.243 5.315,-0.106c1.107,0.259 2.058,1.486 2.342,1.934c1.999,3.158 1.597,10.631 6.125,12.421c1.624,0.643 3.405,-0.225 4.464,0.36c0.8,0.444 1.558,2.065 1.236,2.62c-0.187,0.32 -4.549,0.988 -4.274,1.995c0.257,0.929 3.495,1.09 5.252,1.655c3.357,1.084 3.427,2.239 4.851,4.258c0.525,0.746 2.417,2.434 2.307,3.22c-0.12,0.86 -1.543,1.303 -1.645,1.604c-0.494,1.509 0.979,3.184 1.659,3.606c3.667,2.276 6.529,-2.3 8.708,-1.161c1.364,0.719 0.719,3.856 0.296,5.326c-0.231,0.806 -0.848,1.511 -0.655,2.012c0.47,1.242 4.544,1.968 5.22,2.132c1.094,0.262 6.18,1.231 4.187,-0.569c2.508,1.485 2.069,3.192 3.291,5.249c2.367,3.983 7.296,4.18 10.667,6.147c2.304,1.343 0.731,4.946 2.385,5.851c-0.014,-0.009 2.88,0.419 2.435,-1.118c-0.379,-1.296 -2.593,-0.329 -2.116,-1.677c0.495,-1.403 4.573,1.68 5.508,1.434c-0.243,1.01 -2.005,0.61 -2.071,2.247c-0.057,1.484 7.134,3.55 8.38,4.886c0.556,0.597 0.663,2.342 1.153,2.422c1.205,0.193 1.225,-2.765 1.789,-3.171c1.783,11.883 26.241,6.767 29.061,17.563c0.353,-1.344 -0.649,-2.128 -0.015,-3.586c1.206,3.048 8.364,3.34 10.951,4.638c3.604,1.803 -2.449,2.065 -3.617,-0.014c-0.228,7.65 7.213,-1.19 10.257,1.098c1.726,1.297 -0.3,4.249 2.132,5.263c3.852,1.605 6.908,-3.891 11.308,-1.073c-2.053,1.098 -5.878,3.616 -0.525,5.313c2.08,0.662 4.534,0.925 7.518,0.959c2.779,0.029 7.78,-0.329 6.169,-3.011c2.665,0.487 6.134,1.822 8.13,3.482c-1.003,-0.28 -2.127,-0.977 -2.485,-0.361c-0.84,1.438 4.098,1.859 5.847,1.412c0.711,-0.185 1.934,-0.856 2.455,0.029c-1.977,-0.567 -1.832,0.469 -1.049,1.358c3.574,4.047 5.679,-1.31 8.886,-2.388c2.427,-0.815 7.604,1.047 10.821,1.331c7.169,0.634 14.187,0.068 20.659,-0.181c2.949,-0.113 8.19,-0.721 10.542,0.401c1.102,0.526 2.311,2.593 3.582,2.927c3.39,0.898 7.609,-3.801 10.53,-4.805c0.631,-0.221 2.971,-0.641 3.645,0.35c0.414,0.609 -0.253,2.103 -0.122,2.714c0.846,4.01 6.6,0.457 9.178,2.124c1.371,0.885 0.532,3.353 1.205,3.91c0.422,0.348 2.468,-0.359 2.772,-0.334c4.539,0.375 5.564,5.772 1.7,7.527c-3.873,1.757 -11.758,-1.453 -17.43,-2.892c-5.968,-1.517 -10.136,-1.614 -14.92,-0.567c-4.911,1.077 -8.872,2.161 -13.912,1.798c-5.003,-0.359 -10.574,-1.937 -16.102,-3.323c-5.447,-1.366 -9.748,-1.697 -15.034,-1.101c-5.371,0.608 -9.655,0.149 -15.091,-0.96c-11.487,-2.344 -24.303,-5.992 -36.74,-10.454c-24.886,-8.924 -45.679,-20.715 -63.978,-34.102c-9.592,-7.019 -18.077,-14.354 -27.269,-21.545c-3.279,-2.569 -7.25,-4.648 -9.645,-7.032c-1.583,-1.574 -2.139,-4.591 -3.401,-6.594c-2.615,-4.152 -7.477,-7.54 -11.359,-11.305c-1.502,-1.459 -4.987,-4.311 -5.184,-5.859c-0.08,-0.654 0.869,-1.901 0.799,-2.763c-0.152,-1.954 -5.293,-5.562 -6.646,-7.107c-4.407,-5.018 -7.918,-9.909 -10.925,-15.197c-1.57,-2.763 -2.38,-5.602 -3.677,-8.332c-4.159,-8.746 -10.071,-15.064 -12.223,-24.509c-0.67,-2.929 -0.871,-7.13 -2.436,-8.964c-1.53,-1.79 -3.33,-2.082 -3.377,-4.63c-0.038,-2.052 2.206,-5.677 1.093,-6.712c-0.476,-0.444 -2.076,-0.432 -2.739,-0.955c-1.678,-1.319 -1.543,-5.855 -1.813,-8.06c-0.353,-2.859 -0.49,-6.532 -1.812,-8.061c-0.763,-0.874 -2.65,-1.543 -2.851,-2.3c-0.331,-1.25 1.282,-2.935 1.484,-4.434c0.369,-2.751 -3.336,-5.517 -4.162,-8.369c-1.493,-5.181 1.3,-11.686 -0.315,-17.368c-1.465,-5.158 -5.266,-10.117 -3.884,-15.086c0.89,-3.206 0.213,-3.453 -0.183,-5.605c-0.878,-4.782 -0.168,-10.847 0.104,-16.381c0.283,-5.778 1.261,-11.822 1.942,-17.259c1.539,-12.175 3.313,-22.825 5.87,-35.335c3.798,-18.557 9.46,-38.172 19.692,-55.868c3.153,-5.454 6.934,-10.47 9.599,-16.246c3.845,-8.329 6.594,-12.877 11.926,-17.899c3.801,-3.582 9.571,-7.814 11.541,-13.335c0.796,-2.233 0.252,-5.701 1.63,-7.628c0.728,-1.011 2.651,-1.136 3.598,-1.949c2.085,-1.786 3.639,-4.384 5.559,-6.349c9.653,-9.876 20.147,-16.653 30.065,-26.423c1.84,-1.812 4.004,-2.703 6.316,-4.579c1.905,-1.542 4.415,-4.779 6.064,-5.165c0.721,-0.172 2.956,0.767 3.62,0.014c1.229,-1.402 -0.874,-5.702 0.445,-7.95c0.965,-1.648 1.811,-0.388 3.336,-0.099c0.925,0.172 2.358,-0.527 2.688,-1.343c0.25,-0.62 -0.575,-1.153 -0.023,-1.96c1.008,-1.478 4.688,1.501 5.965,-0.492c0.858,-1.336 -0.465,-2.804 0.663,-4.444c0.928,-1.349 5.079,-0.554 6.784,-0.482c5.502,0.229 7.979,-2.847 12.534,-4.475c1.757,-0.628 6.461,-1.429 7.132,-2.942c0.282,-0.63 -0.537,-1.355 -0.105,-2.158c0.942,-1.76 6.835,-2.853 9.139,-3.423c2.304,-0.57 8.055,-0.887 9.531,-2.776c0.532,-0.677 0.711,-2.2 1.593,-3.087c1.582,-1.595 5.298,-1.796 7.411,-2.016c3.906,-0.402 10.698,-0.773 5.498,-5.399c2.318,-1.586 4.14,5.366 6.405,4.083c0.496,-0.282 -0.245,-2.498 0.035,-2.914c0.823,-1.216 4.792,-0.393 6.616,-0.064c2.207,0.403 20.205,-4.683 20.987,-5.413c0.02,-0.019 1.968,0.355 2.147,0.389c3.534,0.725 6.795,0.831 8.935,-0.903c0.316,-0.256 1.376,-1.935 1.842,-1.686c0.869,0.461 -0.93,2.079 -0.402,2.599c0.408,0.405 1.112,-0.41 0.733,-0.187c2.464,-1.449 3.453,-0.925 6.901,-0.76c0.396,0.018 4.289,-0.114 4.155,-0.905c-0.013,-0.091 -1.293,-0.778 -1.438,-0.91c-2.704,-2.575 5.976,-4.149 7.132,-3.756c-0.651,0.147 -3.906,3.562 -2.157,3.672c-0.026,-0.001 0.987,-1.272 1.247,-1.444c3.597,-2.36 11.345,3.431 13.291,-1.076c1.544,3.087 6.179,3.014 6.192,-1.047c11.438,5.342 23.093,6.655 33.777,8.431c-2.807,-1.223 -6.895,-1.56 -4.506,-5.094c11.425,9.426 26.663,7.766 39.476,13.036c5.605,2.304 11.664,7.023 17.216,8.657c1.156,0.341 2.607,0.44 3.108,-0.355c0.701,-1.108 -0.668,-3.014 -0.187,-3.982c0.708,-1.412 3.663,0.126 5.597,0.825c7.876,2.839 19.692,7.695 21.044,13.798c0.281,1.274 -0.144,2.265 0.528,3.144c2.501,3.254 8.894,5.161 12.838,7.685c4.609,2.945 8.022,5.594 11.255,8.335c4.832,4.101 11.406,8.406 16.977,12.465c1.671,1.217 4.488,2.869 5.33,4.293c0.488,0.827 0.124,2.06 0.642,2.864c1.269,1.95 4.087,3.553 6.091,5.252c6.189,5.254 12.884,10.265 16.117,16.993c1.16,2.41 1.783,4.595 2.921,6.559c1.222,2.107 3.138,3.82 5.042,5.8c10.457,10.873 17.833,24.545 24.767,36.95c2.223,3.984 4.888,8.328 6.972,12.768c2.013,4.29 0.781,10.593 3.15,14.46c1.08,1.764 3.689,3.59 4.65,5.153c1.787,2.904 -0.464,8.395 1.298,10.94c1.156,1.672 3.216,1.736 4.454,3.609c1.17,1.768 -1.185,5.389 -1.039,7.38c0.24,3.21 4.231,5.544 5.064,8.575c0.638,2.329 -2.329,5.665 -1.747,7.906c0.392,1.498 3.266,2.813 3.744,4.945c0.909,4.045 -2.551,8.108 -0.655,11.28c0.465,0.774 1.323,1.051 1.861,1.895c2.549,4.017 -0.434,9.499 -0.07,14.284c0.144,1.895 1.148,3.693 1.539,5.507c0.411,1.911 0.436,3.922 0.547,5.919c0.648,11.427 1.573,25.239 -4.888,38.983c-0.32,0.682 -0.68,1.025 -0.883,1.755c-0.892,3.23 4.158,3.335 3.771,6.094c-0.45,3.196 -5.295,4.488 -5.454,8.507c-0.045,1.238 1.053,2.311 1.066,3.85c0.024,3.906 -3.176,9.688 -4.563,13.586c-2.38,6.692 -0.625,12.158 -2.17,17.817c-1.578,5.784 -6.865,9.067 -9.369,14.062c-1.31,2.618 -1.039,5.185 -2.168,6.921c-0.815,1.254 -2.765,2.101 -3.545,4.244c-0.753,2.069 -0.403,4.491 -1.405,7.068c-2.218,5.693 -7.308,10.564 -10.537,17.328c-0.739,1.547 -1.146,3.191 -1.935,4.737c-1.576,3.088 -4.4,3.862 -6.121,6.119c-2.514,3.295 -2.073,7.366 -3.651,10.544c-2.169,4.372 -5.723,3.988 -8.413,6.486c-0.699,0.648 -3.014,5.719 -3.747,5.951c-1.274,0.398 -2.619,-1.352 -2.739,-1.77c-0.462,-1.647 1.89,-4.301 2.929,-5.147c0.191,-0.157 2.757,-1.063 2.66,-1.677c-0.113,-0.727 -4.639,-2.186 -5.113,-1.602c-0.22,0.277 0.87,1.165 0.675,1.579c-0.072,0.152 -2.09,0.991 -2.491,1.259c-0.751,0.5 -1.82,0.914 -2.238,1.85c-1.658,3.711 3.902,6.916 3.194,9.924c-0.553,2.341 -2.696,2.234 -4.024,3.397c-1.976,1.733 -2.882,4.553 -4.684,7.032c-1.417,1.953 -3.68,3.683 -5.441,5.259c-7.516,6.717 -14.865,12.793 -22.273,19.85c-3.383,3.219 -7.476,7.711 -11.618,9.079c-1.32,0.438 -3.599,-0.121 -4.606,0.395c-1.225,0.626 -2.369,3.196 -4.109,4.014c-1.947,0.912 -4.721,0.507 -6.196,1.858c-1.161,1.066 -1.619,3.024 -2.668,4.115c-4.368,4.541 -12.441,3.928 -17.149,7.306c-1.777,1.275 -2.785,3.393 -4.735,4.735c-2.635,1.816 -7.593,2.25 -11.401,3.314c-4.17,1.16 -7.445,4.086 -10.699,5.224c-1.709,0.596 -3.485,0.158 -5.371,0.244c-3.645,0.172 -7.476,5.674 -10.218,5.258c-0.62,-0.091 -1.289,-1.049 -2.286,-1.256c-2.581,-0.541 -7.162,1.551 -10.264,2.148c-2.496,0.479 -8.719,2.148 -11.251,0.121c-1.535,-1.225 -1.892,-7.617 -1.272,-9.79c1.128,-3.94 6.3,-3.11 9.563,-3.25c6.179,-0.263 11.793,-0.66 18.089,-0.74c0.709,-0.01 3.431,0.315 3.677,-0.127c0.202,-0.363 -1.476,-1.421 -0.501,-1.995c1.595,-0.938 2.679,2.847 5.3,3.143c0.46,0.053 2.308,-0.739 2.127,-1.569c-0.396,-1.823 -5.335,-0.754 -4.204,-3.021c1.444,0.511 2.572,0.949 3.534,0.631c1.394,-0.466 1.058,-1.841 2.211,-2.998c1.468,-1.469 6.104,0.588 7.805,-1.366c0.292,-0.335 0.418,-1.445 0.797,-1.951c1.241,-1.655 5.556,-2.269 7.895,-2.793c2.778,-0.625 6.014,-1.011 8.231,-2.003c3.436,-1.545 7.611,-8.026 11.518,-5.218c-0.394,-4.171 5.265,-0.537 6.819,-2.581c0.755,-0.997 0.41,-3.012 0.887,-4.194c1.621,-4.005 6.845,-2.761 9.766,-4.953c1.972,-1.48 4.036,-6.555 6.488,-4.992c0.192,0.119 0.526,1.359 0.588,1.375c2.043,0.541 4.421,-8.853 7.848,-5.901c-1.496,-3.299 3.26,-6.329 5.36,-6.269c-0.371,1.09 -1.607,2.195 -0.857,2.904c1.107,1.051 5.441,-5.544 6.799,-4.54c-1.181,-0.207 -3.05,-0.222 -2.85,-1.49c0.135,-0.884 2.606,-1.432 3.281,-1.588c3.515,-0.806 8.154,-0.313 11.255,-1.745c4.938,-2.282 2.041,-6.138 3.364,-10.658c0.67,-2.294 2.274,-5.056 4.146,-6.926c-0.352,0.352 2.025,-0.951 2.011,-1.294c-0.009,-0.298 -1.502,-0.681 -1.465,-1.25c0.028,-0.426 2.264,-1.076 2.747,-1.48c4.082,-3.403 5.927,-12.976 11.647,-11.18c-1.759,-4.031 3.49,-6.384 6.715,-5.551c-0.421,-0.022 -5.019,-2.681 -3.409,-3.343c0.473,-0.197 2.069,1.118 2.765,1.291c4.892,1.211 -2.085,-8.557 2.739,-9.127c-2.453,5.074 5.957,5.725 4.327,0.304c0.027,2.704 -2.227,2.52 -3.113,1.169c-2.039,-3.113 2.186,-9.194 4.891,-11.175c0.466,-0.341 2.026,-0.807 2.212,-1.377c0.498,-1.533 -2.339,-2.836 -0.723,-4.684c1.05,-1.202 7.768,2.269 9.435,1.903c0.665,-0.151 3.1,-1.521 2.608,-2.353c-0.987,-1.658 -6.653,0.633 -8.45,-0.685c-0.441,-0.324 -0.995,-1.849 -0.443,-2.947c1.548,-3.082 6.989,-0.24 9.667,-0.279c-3.619,-2.08 -7.12,-6.858 -3.476,-10.04c-1.302,1.305 1.219,3.012 1.155,1.61Zm-127.994,-347.132c0.912,1.311 2.86,3.125 5.5,3.869c0.559,0.16 3,0.606 3.165,-0.494c0.324,-2.147 -7.561,-2.963 -8.665,-3.375Zm23.91,9.602c-3.476,-2.91 -1.385,3.398 0.505,1.993c0.779,-0.574 -0.012,-1.583 -0.505,-1.993Zm-3.258,3.548c1.049,2.465 5.249,2.534 6.375,4.555c0.242,0.434 0.342,2.851 0.582,3.005c1.072,0.678 2.136,-2.194 3.032,-2.992c1.098,-0.972 2.536,-0.455 4.356,0.641c-2.304,-4.442 -10.177,-5.246 -14.345,-5.209Zm-11.797,-5.796c-3.146,-2.426 -4.985,2.151 -2.699,3.777c-0.845,-1.838 0.977,-3.075 2.699,-3.777Zm28.845,14.062c2.421,-0.269 2.498,2.954 3.859,3.041c0.065,0.003 1.263,-0.96 1.278,-1.106c0.098,-1.075 -4.151,-3.782 -5.137,-1.935Zm-57,-23.77c-0.072,-1.226 -3.321,-2.271 -3.894,-1.755c-1.464,1.313 3.013,2.255 3.894,1.755Zm33.595,13.723c-1.869,-2.21 -2.259,3.713 -0.574,3.013c1.042,-0.425 0.65,-2.929 0.574,-3.013Zm22.159,10.674c-0.937,-1.219 -3.511,-0.73 -3.25,0.298c0.296,1.194 2.777,0.163 3.25,-0.298Zm-93.224,-35.478c-0.324,-0.566 -0.333,-3.339 -1.465,-2.872c-0.518,0.211 0.758,2.595 1.465,2.872Zm110.075,43.013c-0.869,-0.47 -4.739,-0.792 -4.526,1.405c0.254,2.609 9.056,1.049 4.526,-1.405Zm9.217,8.482c-0.678,-0.538 -2.453,-0.6 -2.854,0.134c-1.411,2.581 5.302,1.808 2.854,-0.134Zm29.148,27.031c0.092,-1.752 -0.722,-3.854 -3.015,-3.508c-0.455,0.066 -3.043,1.878 -2.551,3.024c0.704,1.637 3.951,-1.133 5.566,0.484Zm-299.451,-53.2c-1.249,-1.065 -2.755,0.984 -1.953,1.966c0.699,0.858 3.71,-0.476 1.953,-1.966Zm352.489,165.287c0.776,0.596 2.551,3.612 3.779,2.847c1.082,-0.677 -2.355,-2.694 -3.779,-2.847Zm7.695,36.81c0.572,-1.152 -0.579,-4.518 -1.855,-3.525c-1.116,0.87 0.889,2.951 1.855,3.525Zm-411.8,-160.404c-0.638,-1.1 -3.919,0.109 -3.366,1.388c0.43,0.998 4.309,0.238 3.366,-1.388Zm-10.787,6.651c-0.659,-1.536 -4.712,0.813 -2.835,2.096c0.823,0.559 3.239,-1.144 2.835,-2.096Zm-2.33,4.089c-1.887,-1.111 -4.054,-0.274 -5.374,1.059c-0.93,0.94 1.437,1.109 2.259,0.922c1.175,-0.265 2.277,-1.443 3.115,-1.981Zm426.233,193.623c-0.969,-0.734 -2.359,3.193 -1.68,3.706c1.384,1.04 2.476,-3.102 1.68,-3.706Zm-1.285,4.354c-1.883,-0.687 -1.078,5.067 0.753,2.584c0.502,-0.675 -0.262,-2.404 -0.753,-2.584Zm-30.61,106.381c-0.361,-0.388 -2.965,-1.091 -3.303,-0.373c-0.812,1.72 4.945,2.144 3.303,0.373Zm-20.079,24.162c0.362,0.546 1.161,0.911 1.946,1.281c-0.42,-0.52 -1.197,-0.896 -1.946,-1.281Zm-13.338,18.134c-3.561,-2.15 -0.663,4.089 0.927,2.168c0.55,-0.664 0.06,-1.572 -0.927,-2.168Zm-17.353,19.096c-2.662,-1.935 -1.352,2.866 0.618,1.717c0.555,-0.325 -0.308,-1.493 -0.618,-1.717Zm-35.152,26.787c-0.465,-1.094 -3.101,0.725 -2.324,1.653c0.674,0.8 2.719,-0.721 2.324,-1.653Zm-28.108,13.565c-0.301,-0.516 -1.878,-0.94 -2.229,-0.588c-1.475,1.472 3.307,2.436 2.229,0.588Zm-66.016,25.726c-0.726,-1.235 -3.132,0.655 -2.605,1.539c0.551,0.92 3.354,-0.273 2.605,-1.539Zm-145.134,-30.173c-0.592,1.703 8.23,4.35 5.451,1.575c-1.203,-1.202 -3.898,-0.65 -5.451,-1.575Zm-5.913,-17.379c0.794,-3.457 3.875,4.3 1.208,3.096c-0.728,-0.327 -1.462,-1.985 -1.208,-3.096Z" style="fill:#f3726d;"/></svg>