<?xml version="1.0" encoding="UTF-8" standalone="no"?><!DOCTYPE svg PUBLIC "-//W3C//DTD SVG 1.1//EN" "http://www.w3.org/Graphics/SVG/1.1/DTD/svg11.dtd"><svg width="100%" height="100%" viewBox="0 0 546 546" version="1.1" xmlns="http://www.w3.org/2000/svg" xmlns:xlink="http://www.w3.org/1999/xlink" xml:space="preserve" xmlns:serif="http://www.serif.com/" style="fill-rule:evenodd;clip-rule:evenodd;stroke-linecap:round;"><rect id="use_focus_mode-default" x="3.459" y="0.209" width="541.825" height="541.612" style="fill:none;"/><g><path d="M33.551,275.843c2.663,132.79 112.862,238.656 245.652,235.993c132.79,-2.664 238.651,-112.863 235.988,-245.653c-2.663,-132.785 -112.858,-238.651 -245.648,-235.988c-132.79,2.663 -238.655,112.862 -235.992,245.648m494.138,-9.91c2.801,139.68 -108.555,255.599 -248.236,258.4c-139.684,2.801 -255.599,-108.559 -258.4,-248.239c-2.801,-139.681 108.555,-255.595 248.24,-258.397c139.68,-2.801 255.594,108.556 258.396,248.236" style="fill:#aeaeae;fill-rule:nonzero;"/><path d="M86.905,274.582c-1.969,-103.465 80.434,-189.064 183.899,-191.033c103.465,-1.969 189.064,80.434 191.033,183.899c1.969,103.466 -80.434,189.065 -183.899,191.033c-103.465,1.969 -189.064,-80.434 -191.033,-183.899Z" style="fill:none;stroke:#aeaeae;stroke-width:8.33px;stroke-dasharray:41.67,33.33,0,0;"/></g><g><path d="M129.215,278.322c5.493,-0.006 8.623,-3.264 8.617,-9.042l-0.013,-12.777l15.462,-0.016c4.395,-0.004 7.078,-2.367 7.074,-6.477c-0.005,-4.109 -2.774,-6.466 -7.087,-6.462l-15.462,0.016l-0.012,-11.231l17.212,-0.017c4.557,-0.005 7.607,-2.49 7.602,-6.885c-0.004,-4.394 -2.977,-6.873 -7.616,-6.869l-25.838,0.027c-5.493,0.006 -8.623,3.264 -8.617,9.042l0.043,41.667c0.005,5.778 3.142,9.03 8.635,9.024Z" style="fill:#aeaeae;fill-rule:nonzero;"/><path d="M201.707,278.248c18.148,-0.019 29.57,-11.628 29.55,-30.386c-0.019,-18.758 -11.465,-30.383 -29.613,-30.365c-18.147,0.019 -29.569,11.668 -29.55,30.426c0.019,18.758 11.424,30.343 29.613,30.325Zm-0.014,-13.754c-7.243,0.008 -12.011,-6.457 -12.021,-16.589c-0.01,-10.172 4.784,-16.647 11.987,-16.655c7.202,-0.007 12.01,6.458 12.02,16.63c0.011,10.132 -4.743,16.607 -11.986,16.614Z" style="fill:#aeaeae;fill-rule:nonzero;"/><path d="M271.757,278.176c11.434,-0.012 21.316,-5.678 24.725,-14.186c0.609,-1.506 0.933,-3.053 0.931,-4.518c-0.004,-4.598 -3.222,-7.605 -8.145,-7.6c-3.622,0.003 -5.696,1.43 -7.441,5.134c-2.477,5.211 -5.771,7.615 -10.491,7.62c-7.161,0.008 -11.603,-6.254 -11.614,-16.874c-0.011,-10.498 4.459,-16.769 11.539,-16.777c4.517,-0.004 7.774,2.312 10.384,7.314c1.875,3.62 4.155,5.082 7.899,5.078c4.516,-0.004 7.484,-2.856 7.479,-7.25c-0.002,-2.076 -0.615,-4.231 -1.797,-6.265c-4.647,-8.174 -12.952,-12.438 -24.182,-12.426c-17.741,0.018 -28.92,11.016 -28.9,30.384c0.02,19.369 10.977,30.385 29.613,30.366Z" style="fill:#aeaeae;fill-rule:nonzero;"/><path d="M336.64,278.109c15.503,-0.016 25.87,-8.572 25.856,-21.959l-0.03,-29.785c-0.006,-5.778 -3.143,-9.03 -8.636,-9.024c-5.493,0.005 -8.623,3.264 -8.617,9.042l0.029,27.873c0.006,6.184 -3.042,9.565 -8.617,9.571c-5.574,0.005 -8.63,-3.369 -8.636,-9.554l-0.029,-27.872c-0.006,-5.778 -3.142,-9.03 -8.635,-9.025c-5.493,0.006 -8.623,3.264 -8.617,9.042l0.03,29.785c0.014,13.388 10.399,21.922 25.902,21.906Z" style="fill:#aeaeae;fill-rule:nonzero;"/><path d="M399.936,278.044c16.194,-0.017 25.626,-7.717 25.614,-19.802c-0.01,-9.521 -5.956,-14.683 -18.572,-16.949l-5.901,-1.052c-5.861,-1.051 -8.385,-2.31 -8.388,-4.955c-0.002,-2.645 2.437,-4.763 7.238,-4.768c3.703,-0.004 6.431,1.092 8.346,4.019c2.078,3.131 4.399,4.39 8.061,4.387c4.313,-0.045 7.159,-2.693 7.155,-6.599c-0.002,-1.343 -0.247,-2.442 -0.736,-3.621c-3.06,-7.321 -11.405,-11.422 -23.043,-11.41c-13.956,0.014 -24.121,7.471 -24.109,19.271c0.009,9.114 6.404,15.008 18.084,17.071l5.901,1.052c6.593,1.173 8.873,2.351 8.876,5.118c0.003,2.889 -3.169,5.008 -8.337,5.013c-3.865,0.004 -7.284,-1.172 -9.322,-4.059c-2.322,-3.253 -4.521,-4.268 -7.776,-4.265c-4.272,0.005 -7.403,2.856 -7.398,7.007c0.001,1.342 0.287,2.726 0.899,4.068c2.529,5.734 10.183,10.487 23.408,10.474Z" style="fill:#aeaeae;fill-rule:nonzero;"/><path d="M151.195,353.299c4.801,-0.004 7.525,-2.896 7.519,-7.982l-0.028,-27.059l0.326,-0.001l11.708,29.407c1.143,2.929 3.138,4.31 6.23,4.307c3.052,-0.003 4.922,-1.348 6.099,-4.319l11.648,-29.431l0.326,-0.001l0.028,27.059c0.005,5.086 2.734,7.973 7.535,7.968c4.802,-0.005 7.525,-2.897 7.52,-7.983l-0.043,-41.464c-0.007,-7.242 -3.999,-11.307 -11.201,-11.3c-6.063,0.006 -9.275,2.41 -11.71,8.801l-10.104,26.5l-0.326,0l-10.2,-26.479c-2.448,-6.385 -5.665,-8.783 -11.728,-8.777c-7.202,0.008 -11.185,4.081 -11.178,11.324l0.043,41.463c0.005,5.086 2.734,7.972 7.536,7.967Z" style="fill:#aeaeae;fill-rule:nonzero;"/><path d="M252.007,353.196c18.148,-0.019 29.57,-11.627 29.55,-30.385c-0.019,-18.758 -11.465,-30.384 -29.613,-30.365c-18.147,0.018 -29.569,11.667 -29.55,30.425c0.019,18.759 11.424,30.344 29.613,30.325Zm-0.014,-13.753c-7.243,0.007 -12.011,-6.458 -12.021,-16.59c-0.01,-10.172 4.784,-16.647 11.987,-16.654c7.202,-0.008 12.01,6.457 12.02,16.63c0.011,10.132 -4.743,16.606 -11.986,16.614Z" style="fill:#aeaeae;fill-rule:nonzero;"/><path d="M302.525,352.127l16.479,-0.017c17.782,-0.019 28.269,-11.016 28.249,-29.814c-0.019,-18.799 -10.487,-28.92 -28.309,-28.902l-16.48,0.017c-5.493,0.006 -8.622,3.264 -8.617,9.042l0.042,40.649c0.006,5.778 3.143,9.03 8.636,9.025Zm8.612,-13.722l-0.032,-31.29l5.412,-0.006c8.26,-0.008 13.148,5.317 13.158,15.205c0.011,10.823 -4.5,16.077 -13.126,16.086l-5.412,0.005Z" style="fill:#aeaeae;fill-rule:nonzero;"/><path d="M368.221,352.059l26.001,-0.027c4.639,-0.004 7.607,-2.489 7.602,-6.884c-0.004,-4.395 -3.059,-6.874 -7.616,-6.869l-17.375,0.018l-0.009,-9.399l16.683,-0.018c4.191,-0.004 6.793,-2.244 6.789,-6.191c-0.004,-3.947 -2.692,-6.183 -6.802,-6.178l-16.683,0.017l-0.01,-9.44l17.375,-0.018c4.557,-0.005 7.607,-2.49 7.602,-6.885c-0.004,-4.394 -2.977,-6.873 -7.616,-6.868l-26.001,0.026c-5.493,0.006 -8.623,3.264 -8.617,9.042l0.042,40.65c0.006,5.778 3.142,9.03 8.635,9.024Z" style="fill:#aeaeae;fill-rule:nonzero;"/></g><clipPath id="_clip1"><path d="M72.239,79.045l7.439,390.952l220.431,-4.194l-7.438,-390.952l-220.432,4.194Z"/></clipPath><g clip-path="url(#_clip1)"><g><path d="M87.007,274.311c-1.969,-103.466 80.434,-189.065 183.899,-191.033c103.465,-1.969 189.064,80.434 191.033,183.899c1.969,103.465 -80.434,189.064 -183.899,191.033c-103.465,1.969 -189.064,-80.434 -191.033,-183.899Z" style="fill:none;stroke:#aeaeae;stroke-width:8.33px;stroke-dasharray:0,0.42,0,0;"/></g></g></svg>