<svg width="18" height="15" viewBox="0 0 18 15" fill="none" xmlns="http://www.w3.org/2000/svg">
<rect x="1" y="1" width="6" height="12" fill="#D8D7DB"/>
<path d="M2.72314 14.5601H15.2622C16.0581 14.5601 16.6587 14.3574 17.064 13.9521C17.4692 13.5518 17.6719 12.9609 17.6719 12.1797V3.26611C17.6719 2.47998 17.4692 1.88672 17.064 1.48633C16.6587 1.08594 16.0581 0.885742 15.2622 0.885742H2.72314C1.93213 0.885742 1.33398 1.08594 0.928711 1.48633C0.523438 1.88672 0.320801 2.47998 0.320801 3.26611V12.1797C0.320801 12.9609 0.523438 13.5518 0.928711 13.9521C1.33398 14.3574 1.93213 14.5601 2.72314 14.5601ZM2.81104 13.1172C2.46924 13.1172 2.20801 13.0293 2.02734 12.8535C1.85156 12.6777 1.76367 12.4116 1.76367 12.0552V3.3833C1.76367 3.03174 1.85156 2.76807 2.02734 2.59229C2.20801 2.4165 2.46924 2.32861 2.81104 2.32861H15.1816C15.5186 2.32861 15.7773 2.4165 15.958 2.59229C16.1387 2.76807 16.229 3.03174 16.229 3.3833V12.0552C16.229 12.4116 16.1387 12.6777 15.958 12.8535C15.7773 13.0293 15.5186 13.1172 15.1816 13.1172H2.81104ZM6.14355 13.3516H7.51318V2.07959H6.14355V13.3516ZM4.70801 5.00928C4.83984 5.00928 4.95215 4.96045 5.04492 4.86279C5.14258 4.76514 5.19141 4.65771 5.19141 4.54053C5.19141 4.41357 5.14258 4.30371 5.04492 4.21094C4.95215 4.11816 4.83984 4.07178 4.70801 4.07178H3.20654C3.07959 4.07178 2.96729 4.11816 2.86963 4.21094C2.77686 4.30371 2.73047 4.41357 2.73047 4.54053C2.73047 4.65771 2.77686 4.76514 2.86963 4.86279C2.96729 4.96045 3.07959 5.00928 3.20654 5.00928H4.70801ZM4.70801 6.97217C4.83984 6.97217 4.95215 6.92578 5.04492 6.83301C5.14258 6.73535 5.19141 6.62305 5.19141 6.49609C5.19141 6.37402 5.14258 6.2666 5.04492 6.17383C4.95215 6.08105 4.83984 6.03467 4.70801 6.03467H3.20654C3.07959 6.03467 2.96729 6.08105 2.86963 6.17383C2.77686 6.2666 2.73047 6.37402 2.73047 6.49609C2.73047 6.62305 2.77686 6.73535 2.86963 6.83301C2.96729 6.92578 3.07959 6.97217 3.20654 6.97217H4.70801ZM4.70801 8.92773C4.83984 8.92773 4.95215 8.88135 5.04492 8.78857C5.14258 8.6958 5.19141 8.58838 5.19141 8.46631C5.19141 8.33936 5.14258 8.22949 5.04492 8.13672C4.95215 8.04395 4.83984 7.99756 4.70801 7.99756H3.20654C3.07959 7.99756 2.96729 8.04395 2.86963 8.13672C2.77686 8.22949 2.73047 8.33936 2.73047 8.46631C2.73047 8.58838 2.77686 8.6958 2.86963 8.78857C2.96729 8.88135 3.07959 8.92773 3.20654 8.92773H4.70801Z" fill="black"/>
</svg>
