<svg width="64" height="64" viewBox="0 0 64 64" fill="none" xmlns="http://www.w3.org/2000/svg">
<rect x="23.2296" y="26.3734" width="15.5409" height="17.2533" fill="white"/>
<ellipse cx="31.9255" cy="23.249" rx="16.7651" ry="17.7721" fill="white"/>
<path d="M22.1686 48.3924H40.4547C41.0081 48.3924 41.4476 48.2297 41.7731 47.9042C42.1149 47.5624 42.2858 47.1229 42.2858 46.5858V42.9481C42.2858 41.7762 42.5788 40.6613 43.1647 39.6034C43.7506 38.5292 44.4749 37.4387 45.3375 36.3319C46.2002 35.2251 47.0628 34.0207 47.9254 32.7186C48.7881 31.4002 49.5123 29.911 50.0983 28.2508C50.6842 26.5744 50.9772 24.6376 50.9772 22.4403C50.9772 19.5594 50.5052 16.9308 49.5612 14.5545C48.6172 12.162 47.2744 10.1112 45.5329 8.4022C43.8076 6.69321 41.7405 5.37486 39.3317 4.44712C36.9228 3.50311 34.2454 3.03111 31.2995 3.03111C28.3698 3.03111 25.7005 3.50311 23.2916 4.44712C20.8828 5.37486 18.8076 6.69321 17.0661 8.4022C15.3408 10.1112 14.0062 12.162 13.0621 14.5545C12.1181 16.9308 11.6461 19.5594 11.6461 22.4403C11.6461 24.6376 11.9391 26.5744 12.525 28.2508C13.111 29.911 13.8353 31.4002 14.6979 32.7186C15.5768 34.0207 16.4394 35.2251 17.2858 36.3319C18.1484 37.4387 18.8727 38.5292 19.4586 39.6034C20.0446 40.6613 20.3375 41.7762 20.3375 42.9481V46.5858C20.3375 47.1229 20.5084 47.5624 20.8502 47.9042C21.192 48.2297 21.6315 48.3924 22.1686 48.3924ZM25.0006 46.9032C25.0006 46.3823 25.0006 45.9103 25.0006 45.4872C25.0006 45.0477 25.0006 44.6164 25.0006 44.1932C25.0006 43.77 25.0006 43.3062 25.0006 42.8016C25.0006 41.2879 24.7077 39.9045 24.1217 38.6512C23.5358 37.398 22.8115 36.1854 21.9489 35.0135C21.1025 33.8417 20.248 32.6372 19.3854 31.4002C18.5228 30.1633 17.7985 28.8286 17.2125 27.3963C16.6429 25.9478 16.358 24.3039 16.358 22.4647C16.358 19.5187 16.9765 16.939 18.2135 14.7254C19.4668 12.5119 21.2083 10.7948 23.4381 9.57407C25.6842 8.35337 28.3047 7.74302 31.2995 7.74302C34.3105 7.74302 36.931 8.35337 39.1608 9.57407C41.4069 10.7948 43.1566 12.5119 44.4098 14.7254C45.6631 16.939 46.2897 19.5187 46.2897 22.4647C46.2897 24.3039 45.9967 25.9478 45.4108 27.3963C44.8248 28.8286 44.1006 30.1633 43.2379 31.4002C42.3916 32.6372 41.5371 33.8417 40.6745 35.0135C39.8118 36.1854 39.0875 37.398 38.5016 38.6512C37.9319 39.9045 37.6471 41.2879 37.6471 42.8016C37.6471 43.5666 37.6471 44.2665 37.6471 44.9012C37.6471 45.536 37.6471 46.2033 37.6471 46.9032L40.4791 43.827H22.1442L25.0006 46.9032ZM31.3239 61.6249C33.1793 61.6249 34.7093 61.2261 35.9137 60.4286C37.1344 59.6473 37.8099 58.6056 37.9401 57.3036H24.7077C24.8379 58.6056 25.5052 59.6473 26.7096 60.4286C27.914 61.2261 29.4521 61.6249 31.3239 61.6249ZM22.7789 55.3504H39.8932C40.5768 55.3504 41.1546 55.1063 41.6266 54.618C42.1149 54.1297 42.359 53.5438 42.359 52.8602C42.359 52.1766 42.1149 51.5907 41.6266 51.1024C41.1546 50.6141 40.5768 50.37 39.8932 50.37H22.7789C22.0791 50.37 21.485 50.6141 20.9967 51.1024C20.5247 51.5907 20.2887 52.1766 20.2887 52.8602C20.2887 53.5438 20.5247 54.1297 20.9967 54.618C21.485 55.1063 22.0791 55.3504 22.7789 55.3504Z" fill="#3E4A5E"/>
<path d="M44.4243 3.18398C45.1377 2.08561 46.7456 2.08561 47.459 3.18398L48.3644 4.57792C48.8039 5.25477 49.6388 5.55858 50.4105 5.32268L52.0001 4.83682C53.2526 4.45399 54.4843 5.48751 54.3248 6.78747L54.1224 8.43725C54.024 9.23832 54.4682 10.0076 55.2111 10.323L56.7411 10.9726C57.9467 11.4844 58.2259 13.0678 57.268 13.9612L56.0525 15.0948C55.4622 15.6453 55.308 16.5202 55.6744 17.2393L56.4289 18.7203C57.0234 19.8873 56.2194 21.2798 54.9116 21.3484L53.2516 21.4356C52.4457 21.4778 51.7652 22.0488 51.5836 22.8352L51.2096 24.4547C50.9149 25.7308 49.404 26.2808 48.358 25.4926L47.0304 24.4925C46.3858 24.0067 45.4975 24.0067 44.8529 24.4925L43.5253 25.4926C42.4793 26.2808 40.9684 25.7308 40.6737 24.4547L40.2997 22.8352C40.1181 22.0488 39.4376 21.4778 38.6316 21.4356L36.9717 21.3484C35.6638 21.2798 34.8599 19.8873 35.4544 18.7203L36.2089 17.2393C36.5753 16.5202 36.421 15.6453 35.8308 15.0948L34.6153 13.9612C33.6574 13.0678 33.9366 11.4844 35.1422 10.9726L36.6722 10.323C37.4151 10.0076 37.8592 9.23832 37.7609 8.43725L37.5585 6.78747C37.399 5.48751 38.6306 4.45398 39.8832 4.83682L41.4728 5.32268C42.2445 5.55858 43.0793 5.25477 43.5189 4.57792L44.4243 3.18398Z" fill="#F02D5E"/>
</svg>
