<svg width="64" height="64" viewBox="0 0 64 64" fill="none" xmlns="http://www.w3.org/2000/svg">
<g clip-path="url(#clip0_13602_109213)">
<rect x="18.2296" y="26.3734" width="15.5409" height="17.2533" fill="white"/>
<circle cx="26" cy="20.1676" r="16.6906" fill="white"/>
<path d="M16.1686 46.3924H34.4547C35.0081 46.3924 35.4476 46.2297 35.7731 45.9042C36.1149 45.5624 36.2858 45.1229 36.2858 44.5858V40.9481C36.2858 39.7762 36.5788 38.6613 37.1647 37.6034C37.7506 36.5292 38.4749 35.4387 39.3375 34.3319C40.2002 33.2251 41.0628 32.0207 41.9254 30.7186C42.7881 29.4002 43.5123 27.911 44.0983 26.2508C44.6842 24.5744 44.9772 22.6376 44.9772 20.4403C44.9772 17.5594 44.5052 14.9308 43.5612 12.5545C42.6172 10.162 41.2744 8.11118 39.5329 6.4022C37.8076 4.69321 35.7405 3.37486 33.3317 2.44712C30.9228 1.50311 28.2454 1.03111 25.2995 1.03111C22.3698 1.03111 19.7005 1.50311 17.2916 2.44712C14.8828 3.37486 12.8076 4.69321 11.0661 6.4022C9.34079 8.11118 8.00616 10.162 7.06215 12.5545C6.11814 14.9308 5.64613 17.5594 5.64613 20.4403C5.64613 22.6376 5.9391 24.5744 6.52504 26.2508C7.11098 27.911 7.83526 29.4002 8.69789 30.7186C9.5768 32.0207 10.4394 33.2251 11.2858 34.3319C12.1484 35.4387 12.8727 36.5292 13.4586 37.6034C14.0446 38.6613 14.3375 39.7762 14.3375 40.9481V44.5858C14.3375 45.1229 14.5084 45.5624 14.8502 45.9042C15.192 46.2297 15.6315 46.3924 16.1686 46.3924ZM19.0006 44.9032C19.0006 44.3823 19.0006 43.9103 19.0006 43.4872C19.0006 43.0477 19.0006 42.6164 19.0006 42.1932C19.0006 41.77 19.0006 41.3062 19.0006 40.8016C19.0006 39.2879 18.7077 37.9045 18.1217 36.6512C17.5358 35.398 16.8115 34.1854 15.9489 33.0135C15.1025 31.8417 14.248 30.6372 13.3854 29.4002C12.5228 28.1633 11.7985 26.8286 11.2125 25.3963C10.6429 23.9478 10.358 22.3039 10.358 20.4647C10.358 17.5187 10.9765 14.939 12.2135 12.7254C13.4668 10.5119 15.2083 8.79478 17.4381 7.57407C19.6842 6.35337 22.3047 5.74302 25.2995 5.74302C28.3105 5.74302 30.931 6.35337 33.1608 7.57407C35.4069 8.79478 37.1566 10.5119 38.4098 12.7254C39.6631 14.939 40.2897 17.5187 40.2897 20.4647C40.2897 22.3039 39.9967 23.9478 39.4108 25.3963C38.8248 26.8286 38.1006 28.1633 37.2379 29.4002C36.3916 30.6372 35.5371 31.8417 34.6745 33.0135C33.8118 34.1854 33.0875 35.398 32.5016 36.6512C31.9319 37.9045 31.6471 39.2879 31.6471 40.8016C31.6471 41.5666 31.6471 42.2665 31.6471 42.9012C31.6471 43.536 31.6471 44.2033 31.6471 44.9032L34.4791 41.827H16.1442L19.0006 44.9032ZM25.3239 59.6249C27.1793 59.6249 28.7093 59.2261 29.9137 58.4286C31.1344 57.6473 31.8099 56.6056 31.9401 55.3036H18.7077C18.8379 56.6056 19.5052 57.6473 20.7096 58.4286C21.914 59.2261 23.4521 59.6249 25.3239 59.6249ZM16.7789 53.3504H33.8932C34.5768 53.3504 35.1546 53.1063 35.6266 52.618C36.1149 52.1297 36.359 51.5438 36.359 50.8602C36.359 50.1766 36.1149 49.5907 35.6266 49.1024C35.1546 48.6141 34.5768 48.37 33.8932 48.37H16.7789C16.0791 48.37 15.485 48.6141 14.9967 49.1024C14.5247 49.5907 14.2887 50.1766 14.2887 50.8602C14.2887 51.5438 14.5247 52.1297 14.9967 52.618C15.485 53.1063 16.0791 53.3504 16.7789 53.3504Z" fill="black"/>
<path d="M44.4243 3.18398C45.1377 2.08561 46.7456 2.08561 47.459 3.18398L48.3644 4.57792C48.8039 5.25477 49.6388 5.55858 50.4105 5.32268L52.0001 4.83682C53.2526 4.45399 54.4843 5.48751 54.3248 6.78747L54.1224 8.43725C54.024 9.23832 54.4682 10.0076 55.2111 10.323L56.7411 10.9726C57.9467 11.4844 58.2259 13.0678 57.268 13.9612L56.0525 15.0948C55.4622 15.6453 55.308 16.5202 55.6744 17.2393L56.4289 18.7203C57.0234 19.8873 56.2194 21.2798 54.9116 21.3484L53.2516 21.4356C52.4457 21.4778 51.7652 22.0488 51.5836 22.8352L51.2096 24.4547C50.9149 25.7308 49.404 26.2808 48.358 25.4926L47.0304 24.4925C46.3858 24.0067 45.4975 24.0067 44.8529 24.4925L43.5253 25.4926C42.4793 26.2808 40.9684 25.7308 40.6737 24.4547L40.2997 22.8352C40.1181 22.0488 39.4376 21.4778 38.6316 21.4356L36.9717 21.3484C35.6638 21.2798 34.8599 19.8873 35.4544 18.7203L36.2089 17.2393C36.5753 16.5202 36.421 15.6453 35.8308 15.0948L34.6153 13.9612C33.6574 13.0678 33.9366 11.4844 35.1422 10.9726L36.6722 10.323C37.4151 10.0076 37.8592 9.23832 37.7609 8.43725L37.5585 6.78747C37.399 5.48751 38.6306 4.45398 39.8832 4.83682L41.4728 5.32268C42.2445 5.55858 43.0793 5.25477 43.5189 4.57792L44.4243 3.18398Z" fill="#F02D5E"/>
</g>
<defs>
<clipPath id="clip0_13602_109213">
<rect width="64" height="64" fill="white"/>
</clipPath>
</defs>
</svg>
