<svg width="64" height="64" viewBox="0 0 64 64" fill="none" xmlns="http://www.w3.org/2000/svg">
<path fill-rule="evenodd" clip-rule="evenodd" d="M8 16V21.6005C8 23.9875 8.94821 26.2766 10.636 27.9645L18.5858 35.9142C19.3668 36.6953 20.6332 36.6953 21.4142 35.9142L28.4142 28.9142C28.7893 28.5391 29 28.0304 29 27.5V16C29 14.8954 28.1046 14 27 14C25.8954 14 25 14.8954 25 16V25.8431C25 26.3736 24.7893 26.8823 24.4142 27.2574L21.4142 30.2574C20.6332 31.0384 19.3668 31.0384 18.5858 30.2574L13.4645 25.136C12.5268 24.1984 12 22.9266 12 21.6005V16C12 14.8954 11.1046 14 10 14C8.89543 14 8 14.8954 8 16ZM39.9067 43.5783L36.0783 39.7498C35.7032 39.3748 35.1945 39.1641 34.6641 39.1641C32.8823 39.1641 31.9899 41.3183 33.2498 42.5783L38.2498 47.5783C38.6249 47.9534 39.1336 48.1641 39.6641 48.1641H51.1641C52.2686 48.1641 53.1641 47.2686 53.1641 46.1641C53.1641 45.0595 52.2686 44.1641 51.1641 44.1641H41.3209C40.7905 44.1641 40.2818 43.9533 39.9067 43.5783Z" fill="#02070F" fill-opacity="0.15"/>
<path fill-rule="evenodd" clip-rule="evenodd" d="M49.0711 8C47.745 8 46.4732 8.52678 45.5355 9.46447L29.3479 25.6521C29.066 25.934 28.6446 26.0188 28.2681 25.8875C26.6184 25.3125 24.8457 25 23 25C14.1634 25 7 32.1634 7 41C7 49.8366 14.1634 57 23 57C31.8366 57 39 49.8366 39 41C39 39.58 38.815 38.2033 38.4679 36.8925C38.3763 36.5467 38.4605 36.1755 38.7051 35.9145L39.1477 35.4425C40.0165 34.5157 40.5 33.2931 40.5 32.0228V28.9167C40.5 28.4104 40.9104 28 41.4167 28C43.948 28 46 25.948 46 23.4167V23C46 22.4477 46.4477 22 47 22H48.9289C50.255 22 51.5268 21.4732 52.4645 20.5355L54.5355 18.4645C55.4732 17.5268 56 16.255 56 14.9289V12C56 9.79086 54.2091 8 52 8H49.0711Z" fill="white"/>
<path d="M45.5355 9.46447L44.1213 8.05025L44.1213 8.05025L45.5355 9.46447ZM39.1477 35.4425L40.6068 36.8104L39.1477 35.4425ZM52.4645 20.5355L53.8787 21.9498L53.8787 21.9497L52.4645 20.5355ZM54.5355 18.4645L53.1213 17.0503L53.1213 17.0503L54.5355 18.4645ZM38.4679 36.8925L36.5345 37.4045L38.4679 36.8925ZM38.7051 35.9145L40.1642 37.2824L38.7051 35.9145ZM29.3479 25.6521L30.7621 27.0663L29.3479 25.6521ZM28.2681 25.8875L27.6098 27.7761L28.2681 25.8875ZM46.9497 10.8787C47.5124 10.3161 48.2754 10 49.0711 10V6C47.2146 6 45.4341 6.7375 44.1213 8.05025L46.9497 10.8787ZM30.7621 27.0663L46.9497 10.8787L44.1213 8.05025L27.9337 24.2379L30.7621 27.0663ZM23 27C24.6186 27 26.1689 27.2738 27.6098 27.7761L28.9264 23.999C27.068 23.3512 25.0729 23 23 23V27ZM9 41C9 33.268 15.268 27 23 27V23C13.0589 23 5 31.0589 5 41H9ZM23 55C15.268 55 9 48.732 9 41H5C5 50.9411 13.0589 59 23 59V55ZM37 41C37 48.732 30.732 55 23 55V59C32.9411 59 41 50.9411 41 41H37ZM36.5345 37.4045C36.8378 38.5497 37 39.7544 37 41H41C41 39.4057 40.7922 37.8568 40.4012 36.3804L36.5345 37.4045ZM37.6886 34.0746L37.2461 34.5466L40.1642 37.2824L40.6068 36.8104L37.6886 34.0746ZM38.5 32.0228C38.5 32.7849 38.2099 33.5185 37.6886 34.0746L40.6068 36.8104C41.8231 35.5129 42.5 33.8012 42.5 32.0228H38.5ZM38.5 28.9167V32.0228H42.5V28.9167H38.5ZM41.4167 26C39.8058 26 38.5 27.3058 38.5 28.9167H42.5C42.5 29.515 42.015 30 41.4167 30V26ZM44 23.4167C44 24.8434 42.8434 26 41.4167 26V30C45.0525 30 48 27.0525 48 23.4167H44ZM44 23V23.4167H48V23H44ZM47 20C45.3431 20 44 21.3431 44 23H48C48 23.5523 47.5523 24 47 24V20ZM48.9289 20H47V24H48.9289V20ZM51.0503 19.1213C50.4876 19.6839 49.7246 20 48.9289 20V24C50.7854 24 52.5659 23.2625 53.8787 21.9498L51.0503 19.1213ZM53.1213 17.0503L51.0503 19.1213L53.8787 21.9497L55.9497 19.8787L53.1213 17.0503ZM54 14.9289C54 15.7246 53.6839 16.4876 53.1213 17.0503L55.9497 19.8787C57.2625 18.5659 58 16.7854 58 14.9289H54ZM54 12V14.9289H58V12H54ZM52 10C53.1046 10 54 10.8954 54 12H58C58 8.68629 55.3137 6 52 6V10ZM49.0711 10H52V6H49.0711V10ZM40.4012 36.3804C40.4757 36.6618 40.4183 37.0114 40.1642 37.2824L37.2461 34.5466C36.5026 35.3396 36.2768 36.4316 36.5345 37.4045L40.4012 36.3804ZM27.9337 24.2379C28.2271 23.9445 28.6229 23.8932 28.9264 23.999L27.6098 27.7761C28.6663 28.1443 29.905 27.9234 30.7621 27.0663L27.9337 24.2379Z" fill="#081120"/>
<circle cx="10" cy="11" r="6" fill="#F02D5E"/>
<circle cx="27" cy="11" r="6" fill="#F02D5E"/>
<circle cx="53" cy="46" r="6" fill="#F02D5E"/>
<circle cx="20.5" cy="43.5" r="5.5" fill="#02070F" fill-opacity="0.15"/>
</svg>
