<svg width="64" height="64" viewBox="0 0 64 64" fill="none" xmlns="http://www.w3.org/2000/svg">
<path fill-rule="evenodd" clip-rule="evenodd" d="M16.6282 9.49834C15.6338 9.57483 14.8477 10.3723 14.7855 11.3677L13.711 28.5596C13.639 29.711 14.5535 30.6844 15.7071 30.6844H29.9993C31.1038 30.6844 31.9993 29.7889 31.9993 28.6844V10.4757C31.9993 9.31068 31.0075 8.39224 29.8459 8.4816L16.6282 9.49834ZM34.0001 30.6843C32.8955 30.6843 32.0001 31.5798 32.0001 32.6843V52.238C32.0001 53.7736 33.6591 54.7363 34.9924 53.9745L49.4134 45.7339C50.0366 45.3778 50.4212 44.7151 50.4212 43.9974V32.6843C50.4212 31.5798 49.5257 30.6843 48.4212 30.6843H34.0001Z" fill="#02070F" fill-opacity="0.15"/>
<path fill-rule="evenodd" clip-rule="evenodd" d="M32.0008 8.31592L49.1061 9.63171L50.4219 30.6843H32.0008V8.31592ZM13.579 30.6843H32V55.6843L13.579 45.158V30.6843Z" fill="white"/>
<path d="M12.2637 16.1164C12.2637 14.9992 12.6796 13.9278 13.4198 13.1378L18.0154 8.23376C18.7557 7.4438 19.7597 7 20.8066 7H43.1944C44.2413 7 45.2453 7.4438 45.9856 8.23376L50.5812 13.1378C51.3215 13.9278 51.7374 14.9992 51.7374 16.1164V33.6511C51.7374 35.5328 51.5023 37.4061 51.0383 39.2215C49.5954 44.8671 46.0272 49.6236 41.1807 52.3615L33.8273 56.5158C32.6846 57.1614 31.3164 57.1614 30.1737 56.5158L22.8203 52.3615C17.9739 49.6236 14.4056 44.8671 12.9627 39.2215C12.4988 37.4061 12.2637 35.5328 12.2637 33.6511V16.1164Z" stroke="#081120" stroke-width="4"/>
<path d="M47.3227 2.58236C48.1113 1.36822 49.8887 1.36822 50.6773 2.58236L51.6781 4.12322C52.164 4.87141 53.0868 5.20725 53.9399 4.94648L55.697 4.40941C57.0816 3.98623 58.4431 5.12868 58.2668 6.56566L58.043 8.38933C57.9343 9.27484 58.4253 10.1252 59.2465 10.4739L60.9377 11.1919C62.2704 11.7577 62.579 13.508 61.5202 14.4955L60.1766 15.7486C59.5241 16.3571 59.3536 17.3242 59.7586 18.1191L60.5926 19.7563C61.2498 21.0463 60.3611 22.5855 58.9154 22.6614L57.0805 22.7577C56.1896 22.8044 55.4374 23.4356 55.2366 24.3049L54.8232 26.0951C54.4974 27.5057 52.8273 28.1136 51.671 27.2424L50.2035 26.1368C49.491 25.5999 48.509 25.5999 47.7965 26.1368L46.329 27.2424C45.1727 28.1136 43.5026 27.5057 43.1768 26.0951L42.7634 24.3049C42.5626 23.4356 41.8104 22.8044 40.9195 22.7577L39.0846 22.6614C37.6389 22.5855 36.7502 21.0463 37.4074 19.7563L38.2414 18.1191C38.6464 17.3242 38.4759 16.3571 37.8234 15.7486L36.4798 14.4955C35.421 13.508 35.7296 11.7577 37.0623 11.1919L38.7535 10.4739C39.5747 10.1252 40.0657 9.27484 39.957 8.38933L39.7332 6.56566C39.5569 5.12868 40.9184 3.98622 42.303 4.40941L44.0601 4.94648C44.9132 5.20725 45.836 4.87141 46.3219 4.12322L47.3227 2.58236Z" fill="#F02D5E"/>
</svg>
