<svg width="16" height="16" viewBox="0 0 24 24" fill="none" xmlns="http://www.w3.org/2000/svg" data-reactroot="">
<path fill="#221b38" d="M14.6352 2.43058C16.5552 0.52314 19.6448 0.52314 21.5648 2.43058L21.5671 2.43289C22.5232 3.38904 23 4.64722 23 5.9C23 7.15278 22.5232 8.41096 21.5671 9.36711L18.4871 12.4471C18.0966 12.8376 17.4634 12.8376 17.0729 12.4471C16.6823 12.0566 16.6823 11.4234 17.0729 11.0329L20.1529 7.95289C20.7167 7.38904 21 6.64722 21 5.9C21 5.15329 20.7171 4.41197 20.154 3.84827C19.0144 2.71737 17.186 2.71724 16.0463 3.84788L10.9525 8.95173C10.3825 9.51428 10.1 10.2536 10.1 11C10.1 11.1344 10.1102 11.2699 10.1289 11.4169C10.14 11.4623 10.1456 11.4981 10.1487 11.5198C10.1504 11.5316 10.1518 11.5428 10.153 11.5536C10.1824 11.6899 10.2162 11.81 10.2583 11.9243C10.2619 11.9341 10.2654 11.9439 10.2687 11.9538C10.3992 12.3455 10.6247 12.718 10.9489 13.0348L10.9571 13.0428C11.1245 13.2103 11.3006 13.3482 11.4745 13.4525C11.9481 13.7367 12.1016 14.3509 11.8175 14.8245C11.5333 15.2981 10.9191 15.4516 10.4455 15.1675C10.1209 14.9728 9.81847 14.7321 9.54692 14.4612C8.99721 13.9227 8.60577 13.282 8.37622 12.6009C8.28732 12.3569 8.22615 12.1199 8.17939 11.8861C8.17773 11.8778 8.17617 11.8694 8.17472 11.8611C8.16876 11.8348 8.16386 11.8082 8.16003 11.7814C8.12562 11.5406 8.09998 11.2811 8.09998 11C8.09998 9.74748 8.57666 8.48785 9.54506 7.5307L14.6352 2.43058ZM8.15998 11.69C8.15998 11.6922 8.15998 11.6944 8.16 11.6967L8.15998 11.69Z" clip-rule="evenodd" fill-rule="evenodd" undefined="1"></path>
<path fill="#221b38" d="M12.1825 9.17551C12.4667 8.70192 13.0809 8.54836 13.5545 8.83251C13.8791 9.02724 14.1815 9.26791 14.4531 9.53885C15.0028 10.0774 15.3942 10.718 15.6238 11.3991C15.7127 11.6431 15.7738 11.8801 15.8206 12.1139C15.8222 12.1222 15.8238 12.1306 15.8253 12.1389C15.8312 12.1652 15.8361 12.1918 15.8399 12.2186C15.8744 12.4594 15.9 12.7189 15.9 13C15.9 14.2525 15.4233 15.5122 14.4549 16.4693L9.36479 21.5694C7.44481 23.4769 4.3552 23.4769 2.43522 21.5694L2.43289 21.5671C1.47674 20.611 1 19.3528 1 18.1C1 16.8472 1.47674 15.589 2.43289 14.6329L5.51289 11.5529C5.90342 11.1624 6.53658 11.1624 6.92711 11.5529C7.31763 11.9434 7.31763 12.5766 6.92711 12.9671L3.84711 16.0471C3.28326 16.611 3 17.3528 3 18.1C3 18.8467 3.28287 19.588 3.84595 20.1517C4.98554 21.2826 6.81395 21.2828 7.95368 20.1521C7.95419 20.1516 7.9547 20.1511 7.95522 20.1506L11.5319 16.5639L13.0475 15.0483C13.6175 14.4857 13.9 13.7464 13.9 13C13.9 12.8656 13.8897 12.7301 13.8711 12.5831C13.8599 12.5377 13.8544 12.5019 13.8513 12.4802C13.8496 12.4684 13.8482 12.4572 13.847 12.4464C13.8176 12.3101 13.7838 12.19 13.7417 12.0757C13.7381 12.0659 13.7346 12.0561 13.7313 12.0462C13.6007 11.6545 13.3752 11.282 13.0511 10.9652L13.0428 10.9572C12.8754 10.7897 12.6993 10.6518 12.5255 10.5475C12.0519 10.2633 11.8984 9.64909 12.1825 9.17551ZM15.84 12.31C15.84 12.3078 15.84 12.3056 15.84 12.3033L15.84 12.31Z" clip-rule="evenodd" fill-rule="evenodd" undefined="1"></path>
</svg>
