<svg width="16" height="16" viewBox="0 0 16 16" fill="none" xmlns="http://www.w3.org/2000/svg">
<path d="M9.00012 13.1307C8.99279 13.4164 9.32971 13.5116 9.51281 13.3285L10.6334 12.2079L11.8859 15.2987C11.9445 15.4379 12.0909 15.5038 12.2228 15.4525L12.9552 15.1595C13.0797 15.101 13.1383 14.9471 13.0651 14.808L11.754 11.7611L13.3361 11.7025C13.6071 11.6879 13.7462 11.4169 13.5485 11.2118L9.54211 7.09558C9.359 6.90515 9.07336 7.01502 9.06604 7.28601L9.00012 13.1307Z" fill="black"/>
<mask id="mask0" mask-type="alpha" maskUnits="userSpaceOnUse" x="0" y="0" width="16" height="16">
<path fill-rule="evenodd" clip-rule="evenodd" d="M15.8063 9.75763C15.9331 9.19205 16 8.60384 16 8C16 3.58172 12.4183 0 8 0C3.58172 0 0 3.58172 0 8C0 12.4182 3.58153 15.9998 7.99964 16C7.37195 15.1643 7 14.1256 7 13C7 10.2386 9.23858 8 12 8C13.5243 8 14.8892 8.68206 15.8063 9.75763Z" fill="#C4C4C4"/>
</mask>
<g mask="url(#mask0)">
<circle cx="8" cy="8" r="6.5" stroke="black"/>
</g>
</svg>
