<svg width="16" height="16" viewBox="0 0 16 16" fill="none" xmlns="http://www.w3.org/2000/svg">
<path d="M7.27736 10.6806L7.27734 10.6806C6.94503 10.9022 6.5 10.664 6.5 10.2647V6.00168C6.5 5.60234 6.94502 5.36413 7.27735 5.58566C7.27736 5.58566 7.27736 5.58566 7.27736 5.58567L10.4745 7.71708C10.7715 7.91506 10.7715 8.35124 10.4746 8.54923C10.4745 8.54924 10.4745 8.54924 10.4745 8.54925L7.27736 10.6806Z" fill="#4B5563" stroke="#4B5563" stroke-linecap="round" stroke-linejoin="round"/>
<path d="M15.5 8C15.5 12.1422 12.1422 15.5 8 15.5C3.85787 15.5 0.5 12.1422 0.5 8C0.5 3.85787 3.85787 0.5 8 0.5C12.1422 0.5 15.5 3.85787 15.5 8Z" stroke="#4B5563" stroke-linecap="round" stroke-linejoin="round"/>
</svg>
