<svg width="28" height="28" viewBox="0 0 28 28" fill="none" xmlns="http://www.w3.org/2000/svg">
<path d="M26 14C26 20.6276 20.6276 26 14 26C7.37259 26 2 20.6275 2 14C2 7.3726 7.3726 2 14 2C20.6275 2 26 7.37259 26 14Z" stroke="black" stroke-width="2" stroke-linecap="round" stroke-linejoin="round"/>
<path d="M16 12.1216V5.87842C16 5.57669 15.629 5.39671 15.3519 5.56408L10.1856 8.68569C9.93814 8.83522 9.93814 9.1648 10.1856 9.31432L15.3519 12.4359C15.629 12.6033 16 12.4233 16 12.1216Z" fill="black" stroke="black"/>
<path fill-rule="evenodd" clip-rule="evenodd" d="M19.0005 14.0004C19.0005 16.7619 16.762 19.0004 14.0005 19.0004C11.5816 19.0004 9.5638 17.2827 9.10054 15.0004H7.07141C7.55664 18.3927 10.4741 21.0004 14.0005 21.0004C17.8666 21.0004 21.0005 17.8665 21.0005 14.0004C21.0005 10.1344 17.8666 7.0004 14.0005 7.0004C13.9973 7.0004 13.9941 7.0004 13.9909 7.0004H13.9997V9.0004C14 9.0004 14.0003 9.0004 14.0005 9.0004C16.762 9.0004 19.0005 11.239 19.0005 14.0004Z" fill="black"/>
</svg>
