<svg width="28" height="28" viewBox="0 0 28 28" fill="none" xmlns="http://www.w3.org/2000/svg">
<path fill-rule="evenodd" clip-rule="evenodd" d="M26.9231 14C26.9231 21.1374 21.1374 26.9231 14 26.9231C6.86279 26.9231 1.07692 21.1373 1.07692 14C1.07692 6.8628 6.8628 1.07692 14 1.07692C21.1373 1.07692 26.9231 6.86279 26.9231 14Z" stroke="black" stroke-width="1.3" stroke-linecap="round" stroke-linejoin="round"/>
<path d="M15.7802 12.0353V6.27239C15.7802 5.99387 15.4378 5.82774 15.182 5.98223L10.4131 8.86372C10.1847 9.00175 10.1847 9.30597 10.4131 9.44399L15.182 12.3254C15.4378 12.48 15.7802 12.3138 15.7802 12.0353Z" fill="black"/>
<path fill-rule="evenodd" clip-rule="evenodd" d="M18.5499 14.3081C18.5499 16.8571 16.4836 18.9235 13.9345 18.9235C11.7017 18.9235 9.83913 17.3379 9.4115 15.2311H7.53846C7.98636 18.3625 10.6794 20.7696 13.9345 20.7696C17.5033 20.7696 20.3961 17.8768 20.3961 14.3081C20.3961 10.7395 17.5033 7.84653 13.9345 7.84653C13.9316 7.84653 13.9286 7.84653 13.9257 7.84653H13.9338V9.69268C13.9341 9.69268 13.9344 9.69268 13.9345 9.69268C16.4836 9.69268 18.5499 11.7591 18.5499 14.3081Z" fill="black"/>
</svg>
