<?xml version="1.0" encoding="UTF-8"?>
<svg width="26px" height="26px" viewBox="0 0 26 26" version="1.1" xmlns="http://www.w3.org/2000/svg" xmlns:xlink="http://www.w3.org/1999/xlink">
    <!-- Generator: Sketch 61 (89581) - https://sketch.com -->
    <title>replay-circle-28x28 copy</title>
    <desc>Created with Sketch.</desc>
    <g id="Page-1" stroke="none" stroke-width="1" fill="none" fill-rule="evenodd">
        <g id="replay-circle-28x28-copy" transform="translate(1.000000, 1.000000)">
            <path d="M24,12 C24,18.6276 18.6276,24 12,24 C5.37259,24 0,18.6275 0,12 C0,5.3726 5.3726,0 12,0 C18.6275,0 24,5.37259 24,12 Z" id="Path" stroke="#000000" stroke-width="1.3" stroke-linecap="round" stroke-linejoin="round"></path>
            <g id="Group" transform="translate(6.000000, 4.000000)" fill="#000000">
                <path d="M7.65307714,6.17565847 L7.65307714,0.82436133 C7.65307714,0.565735616 7.33507714,0.411467044 7.09756286,0.554927044 L2.66930571,3.23059276 C2.45719714,3.35876133 2.45719714,3.64125847 2.66930571,3.76941847 L7.09756286,6.44505847 C7.33507714,6.58854419 7.65307714,6.43425847 7.65307714,6.17565847 Z" id="Path" fill-rule="nonzero"></path>
                <path d="M10.2249343,8.28605847 C10.2249343,10.6530585 8.30622,12.5717728 5.93922,12.5717728 C3.86587714,12.5717728 2.13633429,11.0994585 1.73925429,9.14320133 L0,9.14320133 C0.415911429,12.050887 2.91659143,14.2860585 5.93922,14.2860585 C9.25302,14.2860585 11.93922,11.5998585 11.93922,8.28605847 C11.93922,4.97234419 9.25302,2.28605847 5.93922,2.28605847 C5.93647714,2.28605847 5.93373429,2.28605847 5.93099143,2.28605847 L5.93853429,2.28605847 L5.93853429,4.00034419 C5.93879143,4.00034419 5.93904857,4.00034419 5.93922,4.00034419 C8.30622,4.00034419 10.2249343,5.91914419 10.2249343,8.28605847 Z" id="Path"></path>
            </g>
        </g>
    </g>
</svg>