<svg width="16" height="16" viewBox="0 0 16 16" fill="none" xmlns="http://www.w3.org/2000/svg">
<g clip-path="url(#clip0_11452_96270)">
<path fill-rule="evenodd" clip-rule="evenodd" d="M8.01639 0C3.59811 0 0.0163879 3.58172 0.0163879 8C0.0163879 12.4183 3.59811 16 8.01639 16C12.4347 16 16.0164 12.4183 16.0164 8C16.0164 3.58172 12.4347 0 8.01639 0ZM7.0059 9.92986L4.67179 8.59333C4.57056 8.53537 4.4865 8.45201 4.42805 8.35162C4.36961 8.25123 4.33884 8.13734 4.33884 8.02142C4.33884 7.9055 4.36961 7.79161 4.42805 7.69122C4.4865 7.59083 4.57056 7.50747 4.67179 7.44951L7.0059 6.113L9.34004 4.77647C9.44127 4.71855 9.55609 4.68808 9.67296 4.6881C9.78983 4.68812 9.90463 4.71864 10.0058 4.7766C10.1071 4.83456 10.1911 4.9179 10.2496 5.01827C10.308 5.11864 10.3388 5.2325 10.3388 5.34841V10.6945C10.3388 10.8104 10.308 10.9242 10.2495 11.0246C10.1911 11.125 10.107 11.2083 10.0058 11.2663C9.90462 11.3242 9.78982 11.3547 9.67295 11.3548C9.55608 11.3548 9.44127 11.3243 9.34004 11.2664L7.0059 9.92986Z" fill="#CCCCD1"/>
</g>
<defs>
<clipPath id="clip0_11452_96270">
<rect width="16" height="16" fill="white" transform="translate(0.0163879)"/>
</clipPath>
</defs>
</svg>
