<svg width="16" height="16" viewBox="0 0 16 16" fill="none" xmlns="http://www.w3.org/2000/svg">
<g clip-path="url(#clip0_12086_77920)">
<path d="M8 13.4551C8.68034 13.4551 9.31999 13.3249 9.91895 13.0645C10.5212 12.804 11.0518 12.4443 11.5107 11.9854C11.9697 11.5264 12.3294 10.9974 12.5898 10.3984C12.8503 9.79622 12.9805 9.15495 12.9805 8.47461C12.9805 7.79427 12.8503 7.15462 12.5898 6.55566C12.3294 5.95345 11.9697 5.42285 11.5107 4.96387C11.0518 4.50488 10.5212 4.14518 9.91895 3.88477C9.31673 3.62435 8.67546 3.49414 7.99512 3.49414C7.31478 3.49414 6.6735 3.62435 6.07129 3.88477C5.47233 4.14518 4.94336 4.50488 4.48438 4.96387C4.02865 5.42285 3.67057 5.95345 3.41016 6.55566C3.14974 7.15462 3.01953 7.79427 3.01953 8.47461C3.01953 9.15495 3.14974 9.79622 3.41016 10.3984C3.67057 10.9974 4.03027 11.5264 4.48926 11.9854C4.94824 12.4443 5.47721 12.804 6.07617 13.0645C6.67839 13.3249 7.31966 13.4551 8 13.4551ZM8 12.625C7.42383 12.625 6.88509 12.5176 6.38379 12.3027C5.88249 12.0879 5.44141 11.7917 5.06055 11.4141C4.68294 11.0332 4.38672 10.5921 4.17188 10.0908C3.96029 9.58952 3.85449 9.05078 3.85449 8.47461C3.85449 7.89844 3.96029 7.3597 4.17188 6.8584C4.38672 6.3571 4.68294 5.91602 5.06055 5.53516C5.43815 5.1543 5.8776 4.85807 6.37891 4.64648C6.88021 4.43164 7.41895 4.32422 7.99512 4.32422C8.57129 4.32422 9.11003 4.43164 9.61133 4.64648C10.1126 4.85807 10.5537 5.1543 10.9346 5.53516C11.3154 5.91602 11.6133 6.3571 11.8281 6.8584C12.043 7.3597 12.1504 7.89844 12.1504 8.47461C12.1504 9.05078 12.043 9.58952 11.8281 10.0908C11.6165 10.5921 11.3203 11.0332 10.9395 11.4141C10.5618 11.7917 10.1208 12.0879 9.61621 12.3027C9.11491 12.5176 8.57617 12.625 8 12.625ZM6.54004 10.7109C6.62142 10.7109 6.68815 10.6947 6.74023 10.6621C6.79232 10.6296 6.84928 10.571 6.91113 10.4863L7.96582 8.98242H7.98535L9.04004 10.4863C9.10189 10.571 9.15885 10.6296 9.21094 10.6621C9.26302 10.6947 9.3265 10.7109 9.40137 10.7109C9.51204 10.7109 9.60319 10.6784 9.6748 10.6133C9.74967 10.5449 9.78711 10.4587 9.78711 10.3545C9.78711 10.2633 9.75618 10.1787 9.69434 10.1006L8.46875 8.42578L9.7041 6.74609C9.76595 6.66146 9.79688 6.5752 9.79688 6.4873C9.79688 6.3929 9.76107 6.31315 9.68945 6.24805C9.62109 6.17969 9.53483 6.14551 9.43066 6.14551C9.35254 6.14551 9.28581 6.16178 9.23047 6.19434C9.17839 6.22689 9.1263 6.28385 9.07422 6.36523L8.05371 7.86914H8.0293L6.98926 6.36035C6.93392 6.28223 6.87858 6.22689 6.82324 6.19434C6.7679 6.16178 6.69954 6.14551 6.61816 6.14551C6.514 6.14551 6.42448 6.18132 6.34961 6.25293C6.27474 6.32454 6.2373 6.40918 6.2373 6.50684C6.2373 6.60124 6.27148 6.69564 6.33984 6.79004L7.51172 8.40137L6.2666 10.1201C6.21126 10.2015 6.18359 10.2861 6.18359 10.374C6.18359 10.4684 6.21777 10.5482 6.28613 10.6133C6.35775 10.6784 6.44238 10.7109 6.54004 10.7109Z" fill="#C3C6C8"/>
</g>
<defs>
<clipPath id="clip0_12086_77920">
<rect width="16" height="16" fill="white"/>
</clipPath>
</defs>
</svg>
