<svg width="77" height="77" viewBox="0 0 77 77" fill="none" xmlns="http://www.w3.org/2000/svg">
<path d="M29.9401 54.2289C33.773 54.2289 36.8802 51.1217 36.8802 47.2888C36.8802 43.4558 33.773 40.3486 29.9401 40.3486C26.1072 40.3486 23 43.4558 23 47.2888C23 51.1217 26.1072 54.2289 29.9401 54.2289Z" fill="#73CC6D"/>
<path d="M47.2902 54.2289C51.1231 54.2289 54.2303 51.1217 54.2303 47.2888C54.2303 43.4558 51.1231 40.3486 47.2902 40.3486C43.4573 40.3486 40.3501 43.4558 40.3501 47.2888C40.3501 51.1217 43.4573 54.2289 47.2902 54.2289Z" fill="#C67EF5"/>
<path d="M29.9401 36.8802C33.773 36.8802 36.8802 33.773 36.8802 29.9401C36.8802 26.1072 33.773 23 29.9401 23C26.1072 23 23 26.1072 23 29.9401C23 33.773 26.1072 36.8802 29.9401 36.8802Z" fill="#EBA64D"/>
<path d="M47.2902 36.8802C51.1231 36.8802 54.2303 33.773 54.2303 29.9401C54.2303 26.1072 51.1231 23 47.2902 23C43.4573 23 40.3501 26.1072 40.3501 29.9401C40.3501 33.773 43.4573 36.8802 47.2902 36.8802Z" fill="#F0CF56"/>
</svg>
