<svg width="11" height="16" viewBox="0 0 11 16" fill="none" xmlns="http://www.w3.org/2000/svg">
<path d="M4.74631 5.95703C4.84827 6.03268 4.87022 6.20301 4.79233 6.26938C4.89172 6.25831 4.99801 6.15523 5.06471 6.0477C5.15333 6.23176 5.0346 6.38749 4.94035 6.40964C4.93476 6.40519 4.92873 6.40079 4.92228 6.39638C4.91237 6.38975 4.90205 6.38354 4.89217 6.37691L4.8685 6.36365C4.85043 6.35438 4.83195 6.34507 4.81301 6.33579C4.79539 6.32736 4.77731 6.31855 4.75879 6.31058C4.71575 6.29199 4.66973 6.27429 4.62109 6.25926C4.71362 6.18178 4.7601 6.07736 4.74631 5.95703ZM5.09914 6.58752C5.10216 6.59193 5.10474 6.59637 5.10731 6.60078C5.27255 6.53487 5.30996 6.33353 5.30739 6.26011C5.21531 6.37028 5.06989 6.44945 4.95027 6.41718C4.95716 6.42293 4.96361 6.42826 4.97006 6.43401C5.02644 6.48574 5.06732 6.5384 5.09914 6.58752Z" fill="black"/>
<path d="M3.61413 7C3.51127 7.2038 3.42104 7.46075 3.38115 7.58034C3.36719 7.6222 3.35938 7.64728 3.35938 7.64728C3.35938 7.64728 3.37316 7.65186 3.3971 7.65905C3.39744 7.65905 3.39751 7.65905 3.39751 7.65905C3.41126 7.6617 3.42721 7.66392 3.44484 7.66702C3.51539 7.6781 3.61653 7.69002 3.73828 7.70243C3.7985 7.70818 3.86606 7.71481 3.93363 7.72014C3.95794 7.7219 3.98308 7.7232 4.00826 7.72497C3.76283 7.59882 3.61488 7.30992 3.61413 7Z" fill="white"/>
<path d="M4.95397 6.61564C4.95225 6.61211 4.95054 6.60855 4.94883 6.6059C4.94828 6.60449 4.94759 6.60344 4.9469 6.60227C4.74339 6.32896 4.257 6.28682 3.92903 6.48766C3.82268 6.55283 3.67377 6.70049 3.6205 6.88602C3.61611 6.92425 3.61416 6.96245 3.61426 7.00032C3.61502 7.31024 3.76297 7.59914 4.00843 7.72525C4.00867 7.72525 4.00887 7.72529 4.00911 7.72529C4.01988 7.72617 4.03062 7.72663 4.04139 7.72751C4.0655 7.72705 4.08957 7.72793 4.11368 7.72885C4.12531 7.72885 4.13735 7.72927 4.14938 7.72973C4.18639 7.72797 4.22425 7.72709 4.26167 7.72487C4.29912 7.71954 4.33739 7.71824 4.3744 7.71115C4.44971 7.70053 4.52328 7.67972 4.59297 7.65186C4.66225 7.624 4.72508 7.58373 4.77927 7.53549C4.83263 7.48682 4.87821 7.42976 4.91093 7.36649C4.9432 7.30322 4.96728 7.23643 4.98237 7.17048C4.99657 7.10411 5.00387 7.03862 5.00603 6.97803C5.00775 6.91741 5.00603 6.86123 5.00044 6.81168C4.9944 6.76213 4.9871 6.71876 4.97763 6.68381C4.96947 6.65591 4.96217 6.632 4.95397 6.61564ZM4.43706 7.04775C4.34549 7.08327 4.24624 7.04377 4.21537 6.95959C4.1845 6.87541 4.23372 6.77836 4.32529 6.74284C4.41686 6.70733 4.51611 6.74683 4.54698 6.83101C4.57784 6.91522 4.52863 7.01228 4.43706 7.04775Z" fill="black"/>
<path d="M4.43728 7.04726C4.52886 7.01176 4.57807 6.91472 4.54719 6.83052C4.51632 6.74632 4.41706 6.70685 4.32548 6.74235C4.2339 6.77786 4.1847 6.8749 4.21557 6.95909C4.24644 7.04329 4.3457 7.08277 4.43728 7.04726Z" fill="white"/>
<path d="M8.68988 10.5224C8.48428 10.8111 8.22486 11.0653 7.91592 11.2714C6.93104 11.9285 5.73658 11.9568 4.6351 12.27C4.07532 12.4288 3.48584 12.6426 3.04568 13.047C2.67779 13.385 2.51904 13.8186 2.54225 14.2885C2.70146 13.6478 3.27413 13.3001 3.86275 13.1129C4.68243 12.8523 5.55804 12.801 6.40522 12.6926C7.21628 12.589 8.11813 12.4815 8.82247 12.0187C9.6004 11.5073 9.80694 10.4388 9.43043 9.59326C9.24626 9.88795 9.03202 10.1649 8.79836 10.4215C8.78673 10.4344 8.72877 10.4915 8.68988 10.5224Z" fill="#8AE28D"/>
<path d="M4.43209 12.1756C5.51293 11.8429 6.70262 11.8292 7.697 11.2359C8.65262 10.666 9.16381 9.65855 9.11562 8.52989C9.01925 6.29024 7.11441 4.02403 4.93164 3.73291C4.9906 3.98866 5.0048 4.25411 4.948 4.53285C6.05381 4.91514 7.02147 5.84913 7.5176 6.92471C8.01671 8.00559 7.94314 9.21656 7.22845 10.1776C6.94962 10.5528 6.62175 10.8731 6.21257 11.0877C5.87911 11.2625 5.52455 11.3925 5.17261 11.5208C4.41491 11.7973 3.57071 12.0442 2.95112 12.5964C2.67445 12.8428 2.46621 13.1574 2.39864 13.5317C2.3625 13.7335 2.36596 13.937 2.39648 14.1379C2.40811 13.7384 2.54492 13.3609 2.83578 13.049C3.25745 12.5973 3.86027 12.3517 4.43209 12.1756Z" fill="#FF87DD"/>
<path d="M3.43009 4.18457C3.39189 4.21046 3.35382 4.23669 3.31578 4.26283C3.31362 4.31897 3.30934 4.37808 3.2998 4.43993C3.29301 4.48529 3.28358 4.5323 3.27024 4.58008C3.20916 4.80222 3.07067 5.05148 2.75583 5.31087C2.74788 5.30163 2.7404 5.29242 2.73289 5.28276C2.68408 5.2221 2.64053 5.15799 2.60174 5.08954C2.49738 5.17485 2.38128 5.24503 2.25974 5.3017C1.82603 5.50391 1.34798 5.64106 1.18665 6.16445C1.0649 6.56 1.12039 7.11971 1.4676 7.37718C1.48825 7.29311 1.50677 7.20861 1.52395 7.12323C1.5231 7.12235 1.52265 7.12101 1.52224 7.11971C1.42285 6.83744 1.39661 6.52417 1.54158 6.25297C1.66981 6.01316 1.90214 5.85876 2.13147 5.73621C2.40512 5.59021 2.69341 5.44819 2.92704 5.25529C3.15679 5.06591 3.33321 4.82744 3.39086 4.48987C3.38955 4.48366 3.38955 4.47703 3.39041 4.46952C3.40211 4.37395 3.41545 4.27926 3.43009 4.18457Z" fill="#8AE28D"/>
<path d="M2.41484 4.43061C2.49022 4.3234 2.55819 4.21683 2.61962 4.11135C2.62531 4.10158 2.63066 4.09199 2.63625 4.08229C2.60604 4.07841 2.57586 4.07457 2.54561 4.07044C2.54413 4.07294 2.54276 4.07541 2.54129 4.07795C2.49005 4.16548 2.43397 4.25418 2.37269 4.34312C2.29538 4.24829 2.22491 4.14185 2.16719 4.02029C2.13478 4.01648 2.10237 4.01267 2.06999 4.00932C1.52311 3.95445 1.02485 4.13498 0.882868 4.7327C0.783478 5.15082 1.04852 5.6729 0.775315 6.04986C0.63333 6.24587 0.378613 6.28082 0.169922 6.19897C0.272776 6.5662 0.63892 6.77814 0.987436 6.5578C0.987436 6.50159 0.990454 6.44587 0.996456 6.39145C1.04766 5.90033 1.34971 5.5446 1.77998 5.34683C1.999 5.24597 2.23478 5.17738 2.43356 5.03536C2.468 5.01074 2.50202 4.98369 2.53518 4.95527C2.51855 4.91626 2.50308 4.87599 2.48923 4.83332C2.45201 4.71574 2.42657 4.58342 2.41484 4.43061Z" fill="#FF87DD"/>
<path d="M9.00787 12.0767C8.36804 12.5541 7.52257 12.6917 6.75884 12.8005C5.91076 12.9218 5.04637 12.9709 4.21164 13.1766C3.58217 13.3319 2.85715 13.6191 2.68587 14.3363C2.57143 14.8154 2.68114 15.3477 3.11272 15.615C3.29816 15.73 3.52019 15.8021 3.74219 15.8309C3.52575 15.6194 3.43627 15.3256 3.52061 14.9982C3.61053 14.65 3.8446 14.3571 4.16815 14.2177C4.57819 14.0408 5.0545 14.0208 5.49383 14.0164C6.08931 14.0102 6.67752 14.0027 7.26697 13.9023C8.30778 13.7244 9.42436 13.3222 10.1244 12.4701C11.1962 11.1644 10.9918 9.19288 10.0706 7.86377C10.0009 8.42478 9.80429 8.95307 9.5246 9.43664C9.96136 10.3153 9.8013 11.4843 9.00787 12.0767Z" fill="#FFE870"/>
<path d="M2.10009 3.85301C2.10149 3.85728 2.10317 3.86123 2.10458 3.8655C2.09306 3.86423 2.08153 3.86253 2.07001 3.8613C1.69481 3.82325 1.31317 3.86264 1.03478 4.14844C0.919893 4.26658 0.837308 4.40772 0.785247 4.56035C0.513314 4.51034 0.32959 4.25815 0.26117 3.99313C0.178997 3.67591 0.258598 3.36662 0.425105 3.09983C0.741794 3.52193 1.27791 3.44759 1.71806 3.26442C1.76193 3.24619 1.80518 3.22665 1.84808 3.20637C1.88677 3.28953 1.93056 3.36183 1.97789 3.41585C2.07625 3.27652 2.16106 3.13806 2.23456 3.00296C2.2703 2.983 2.306 2.96303 2.34174 2.94314C2.25408 3.11052 2.1494 3.2835 2.02416 3.45701C2.03348 3.60305 2.06068 3.73452 2.10009 3.85301ZM2.96503 3.36659C3.12314 3.55138 3.23943 3.7695 3.2905 3.97373C3.34047 3.97041 3.39047 3.96519 3.44044 3.95772C3.45077 3.95638 3.46068 3.95461 3.471 3.95285C3.57169 3.4259 3.73131 2.91796 3.97313 2.4388C3.62118 2.46359 3.27352 2.53261 2.93831 2.6547C2.90735 2.6662 2.87634 2.67815 2.84582 2.69099C2.8179 2.70242 2.79026 2.71434 2.76282 2.72661C2.8643 2.92262 2.9165 3.12656 2.89802 3.29556C2.83251 3.48896 2.74307 3.70691 2.62121 3.93557C2.65091 3.93963 2.68065 3.94333 2.71038 3.94703C2.81807 3.74291 2.9011 3.54669 2.96503 3.36659ZM8.07146 5.52534C8.7474 6.39341 9.23578 7.48095 9.26202 8.60605C9.27278 9.07284 9.19017 9.52146 9.02064 9.92854C9.6927 9.04586 10.0946 7.96985 9.90699 6.82701C9.56965 4.76919 7.67559 3.23303 5.82154 2.66891C5.34178 2.52334 4.83752 2.43397 4.33454 2.42822C4.54968 2.79943 4.77082 3.17862 4.89175 3.58079C4.89518 3.58037 4.89864 3.58079 4.90252 3.58122C6.16749 3.73917 7.28622 4.51701 8.07146 5.52534Z" fill="#01ACFD"/>
<path d="M3.54195 4.46939C3.5411 4.47736 3.53894 4.48356 3.53592 4.49019C3.53636 4.49065 3.53636 4.49107 3.53592 4.49153V4.49287C3.45934 5.02645 3.07769 5.39548 2.63366 5.64322C2.39787 5.77508 2.13969 5.87154 1.92284 6.03789C1.90003 6.05513 1.87894 6.07284 1.85874 6.0923C1.70643 6.77851 1.66685 7.48557 1.35575 8.12487C1.22193 8.40005 1.05069 8.65316 0.865253 8.89339C0.669492 9.14735 0.504253 9.37654 0.459086 9.7066C0.382057 10.276 0.670349 10.8778 1.21809 11.0631C1.66085 11.2127 2.22492 11.1114 2.36347 10.5923C2.38759 10.5016 2.52439 10.5402 2.50032 10.6313C2.44181 10.8503 2.31573 11.014 2.15094 11.1211C2.49301 11.0742 2.66555 10.7171 2.99685 10.5437C3.23651 10.4185 3.49555 10.4362 3.75541 10.4083C4.07251 10.3742 4.38619 10.3016 4.68394 10.1848C5.1525 10.0012 5.58192 9.70346 5.90248 9.30481C6.09653 9.06324 6.28714 8.75176 6.31252 8.43098C6.31983 8.33763 6.46185 8.33717 6.45451 8.43098C6.43129 8.72256 6.29274 9.00043 6.13096 9.23622C6.02427 9.39195 5.90293 9.53397 5.76955 9.6623C5.95156 10.1149 5.91713 10.6781 5.7549 11.1378C6.18045 10.9454 6.57629 10.702 6.90159 10.3375C7.34607 9.83973 7.65415 9.21587 7.69589 8.53495C7.73245 7.94117 7.5741 7.35272 7.30347 6.83152C6.79318 5.84886 5.88142 4.99626 4.8393 4.65912C4.79928 4.64628 4.77606 4.60513 4.78639 4.56312C4.98088 3.7685 4.53983 3.08314 4.15904 2.4292C4.15561 2.4292 4.15215 2.4292 4.14872 2.42966C3.81344 3.06417 3.62886 3.75218 3.54195 4.46939ZM0.689246 9.92514C0.687086 9.98531 0.447425 9.39953 0.983986 9.54197C0.983986 9.54201 0.70173 9.60704 0.689246 9.92514ZM4.79232 6.26923C4.89171 6.25816 4.99799 6.15508 5.0647 6.04755C5.15332 6.2316 5.03459 6.38734 4.94034 6.40949C4.94336 6.41171 4.94638 6.41389 4.94936 6.41658C4.94977 6.41658 4.94977 6.417 4.95022 6.417C5.06984 6.4493 5.21526 6.37009 5.30734 6.25992C5.30991 6.33338 5.2725 6.53468 5.10726 6.60059C5.1348 6.64485 5.15503 6.68597 5.16923 6.72184C5.18388 6.76077 5.19159 6.79308 5.19547 6.81519C5.19804 6.8373 5.19849 6.8488 5.19849 6.8488C5.19849 6.8488 5.19245 6.83864 5.18086 6.82094C5.16923 6.80366 5.14944 6.77978 5.12276 6.75235C5.09608 6.72491 5.06209 6.69394 5.0208 6.66252C5.00876 6.65279 4.99583 6.64351 4.98208 6.63374C4.98938 6.64482 4.99672 6.65762 5.00444 6.67226C5.03887 6.73951 5.07588 6.84347 5.08877 6.97445C5.09567 7.03994 5.09779 7.11206 5.08833 7.18859C5.07886 7.26469 5.06038 7.34566 5.02464 7.42396C4.98935 7.50182 4.93945 7.57881 4.8736 7.6412C4.8082 7.70446 4.7299 7.75401 4.64728 7.78854C4.5638 7.82084 4.47817 7.84383 4.39342 7.85269C4.35127 7.85977 4.30909 7.85889 4.2678 7.86154C4.2265 7.86154 4.18603 7.86023 4.14601 7.85889C4.10599 7.85537 4.06686 7.85226 4.02855 7.84782C3.99199 7.84119 3.95625 7.83544 3.92141 7.82923C3.8487 7.81686 3.78542 7.80092 3.72434 7.78543C3.60386 7.75578 3.50491 7.72259 3.43735 7.69519C3.40336 7.68193 3.37754 7.66909 3.36032 7.66024C3.35689 7.65848 3.35388 7.65671 3.3513 7.65537C3.35086 7.65625 3.35045 7.65759 3.35 7.65848C3.34396 7.67971 3.34053 7.6912 3.34053 7.6912C3.34053 7.6912 3.33625 7.68013 3.33021 7.6589C3.32592 7.63633 3.31903 7.60314 3.31687 7.56111C3.31385 7.51907 3.3143 7.46818 3.31817 7.41024C3.32246 7.35229 3.33066 7.28723 3.344 7.21733C3.35775 7.14743 3.37668 7.07221 3.40251 6.99388C3.41629 6.95495 3.43046 6.91468 3.44767 6.87398C3.45584 6.85409 3.46575 6.8337 3.47521 6.81293C3.48509 6.79347 3.495 6.77354 3.50533 6.75365C3.55094 6.67003 3.60427 6.58906 3.67269 6.51342C3.74067 6.43819 3.82198 6.3683 3.91623 6.31698C4.00958 6.26433 4.11415 6.23203 4.217 6.21877C4.31941 6.20639 4.41966 6.21302 4.51044 6.23072C4.54875 6.23823 4.58575 6.24797 4.62101 6.25904C4.71351 6.1816 4.75998 6.07721 4.74623 5.95684C4.84826 6.03253 4.87021 6.20286 4.79232 6.26923ZM4.72647 5.62108C4.72647 5.62108 4.68946 5.62284 4.62663 5.62284C4.59522 5.6215 4.55695 5.62637 4.51346 5.62725C4.49195 5.62725 4.46915 5.62947 4.44504 5.63257C4.42137 5.63479 4.39599 5.63698 4.36976 5.63966C4.3177 5.64763 4.26221 5.6556 4.20411 5.66932C4.17526 5.67461 4.14601 5.68346 4.11634 5.69189C4.08623 5.6994 4.05653 5.71002 4.02642 5.72021C3.96575 5.74102 3.90594 5.76845 3.84571 5.79762C3.81601 5.8131 3.78721 5.83034 3.75751 5.84674C3.72911 5.86533 3.69941 5.88169 3.67231 5.90292C3.44641 6.05735 3.267 6.27946 3.14481 6.45685C3.08458 6.54621 3.03725 6.62454 3.00539 6.6803C2.98989 6.70861 2.977 6.7303 2.96925 6.74579C2.96105 6.76127 2.95721 6.77012 2.95721 6.77012C2.95721 6.77012 2.95762 6.76084 2.96023 6.74314C2.9628 6.72544 2.96667 6.6998 2.97442 6.66749C2.98948 6.60335 3.01575 6.51218 3.06092 6.40822C3.10609 6.30425 3.16936 6.18611 3.25627 6.07241C3.29886 6.01489 3.34835 5.9596 3.40168 5.90606C3.45635 5.85387 3.51442 5.8034 3.5781 5.7596C3.60866 5.73661 3.64265 5.71844 3.67492 5.6981C3.7085 5.67909 3.74248 5.66181 3.77647 5.6459C3.8453 5.61494 3.91544 5.58969 3.98472 5.57332C4.01956 5.5649 4.05314 5.55608 4.08754 5.55209C4.12111 5.54769 4.1538 5.54148 4.18651 5.5406C4.21879 5.53926 4.2502 5.53527 4.28031 5.53707C4.31043 5.53795 4.33968 5.53929 4.36767 5.54017C4.42316 5.54638 4.47395 5.55079 4.51826 5.56098C4.56216 5.57071 4.60043 5.5778 4.63099 5.58884C4.69248 5.6082 4.72647 5.62108 4.72647 5.62108ZM4.23984 3.16549L4.28889 3.23849L4.33364 3.31459L4.37322 3.39334L4.40851 3.47431L4.43862 3.55663L4.46445 3.6407L4.48554 3.72608L4.5019 3.81238L4.51353 3.8991L4.52042 3.98624C4.52213 4.01544 4.52258 4.04422 4.52299 4.07342L4.52042 4.16014C4.5187 4.18934 4.51613 4.21811 4.51311 4.24686L4.50108 4.33224L4.483 4.41631C4.4757 4.44417 4.46795 4.47161 4.45934 4.49904C4.45848 4.47027 4.45889 4.44198 4.45848 4.41366L4.45546 4.32917L4.45028 4.24555C4.44727 4.21769 4.44469 4.19025 4.44212 4.16236L4.43135 4.0805C4.42617 4.05307 4.42189 4.02609 4.41801 3.99865L4.40165 3.91814L4.38231 3.83851L4.36036 3.76022L4.33584 3.68235L4.3083 3.60624L4.27774 3.53148L4.24461 3.45806L4.20805 3.38682L4.2016 3.37532C4.19042 3.40586 4.1788 3.43594 4.1659 3.46557C4.13449 3.54255 4.09748 3.61644 4.06349 3.69032L4.01184 3.80049L3.96407 3.91197C3.94901 3.94914 3.93523 3.98761 3.92103 4.02612C3.90813 4.06418 3.89606 4.10399 3.88361 4.14381C3.88275 4.10223 3.88402 4.06061 3.8879 4.01858C3.89133 3.97654 3.89781 3.93496 3.90553 3.89381C3.91328 3.85223 3.92315 3.81153 3.93392 3.77126C3.9451 3.73098 3.95628 3.69028 3.96963 3.65089L4.04751 3.41817C4.07248 3.34164 4.0957 3.26554 4.11463 3.18855L4.15294 3.03634L4.23984 3.16549Z" fill="#DFF4FF"/>
<path d="M0.983951 9.54197C0.983951 9.54197 0.701695 9.60701 0.689211 9.92514C0.68705 9.98527 0.44739 9.3995 0.983951 9.54197ZM2.34255 2.79015C2.30966 2.85973 2.27358 2.93076 2.23449 3.00267C2.27022 2.98271 2.30592 2.96275 2.34166 2.94286C2.36512 2.89807 2.38765 2.85356 2.40867 2.80969C2.42202 2.7819 2.43508 2.75446 2.44757 2.72713C2.43889 2.732 2.43011 2.73665 2.4215 2.74163C2.39722 2.75552 2.37143 2.77047 2.34502 2.78581L2.34255 2.79015ZM4.21745 2.22483C4.1886 2.1744 4.11548 2.1744 4.08664 2.22483C4.07501 2.24518 4.06383 2.26511 4.05307 2.28546C4.11802 2.28147 4.18257 2.27925 4.24797 2.27837C4.23765 2.26067 4.22777 2.2425 4.21745 2.22483ZM2.63619 4.08217C2.60598 4.07829 2.5758 4.07444 2.54555 4.07032C2.57065 4.02743 2.59435 3.98515 2.61713 3.94293C2.6185 3.94036 2.61973 3.93786 2.6211 3.93528C2.6508 3.93934 2.68054 3.94304 2.71027 3.94674C2.7053 3.95616 2.70057 3.9655 2.69549 3.97499C2.67684 4.01057 2.65681 4.04623 2.63619 4.08217ZM3.44037 3.95743C3.45069 3.95609 3.4606 3.95433 3.47092 3.95256C3.47868 3.95122 3.48598 3.94992 3.49373 3.94858C3.51482 3.94459 3.53331 3.94946 3.54751 3.95919C3.59312 3.97954 3.61548 4.05695 3.55999 4.095C3.52988 4.11535 3.50018 4.13616 3.47048 4.15651C3.45673 4.16582 3.44339 4.17509 3.43004 4.18394C3.39184 4.20983 3.35377 4.23653 3.31574 4.26266C3.31584 4.25948 3.31604 4.25624 3.31615 4.2531C3.3181 4.23395 3.3192 4.21434 3.31903 4.19421C3.31923 4.1759 3.31899 4.15756 3.31745 4.13873C3.31652 4.12184 3.31454 4.10459 3.3122 4.08721C3.31121 4.0797 3.31028 4.07226 3.30912 4.06467C3.30733 4.053 3.30558 4.04041 3.30294 4.0287C3.30075 4.01657 3.29814 4.0044 3.2955 3.99224C3.29406 3.98599 3.29197 3.97965 3.29039 3.97337C3.34039 3.97012 3.3904 3.96491 3.44037 3.95743ZM4.89212 6.37673L4.86845 6.36347C4.85038 6.35419 4.83189 6.34488 4.81296 6.33561C4.79533 6.32718 4.77726 6.31836 4.75874 6.31039C4.7157 6.29181 4.66967 6.2741 4.62104 6.25908C4.58575 6.248 4.54875 6.23827 4.51047 6.23076C4.41969 6.21306 4.31944 6.20643 4.21703 6.2188C4.11421 6.23206 4.00965 6.26437 3.91626 6.31702C3.82201 6.36833 3.7407 6.43827 3.67272 6.51345C3.6043 6.58913 3.55097 6.67007 3.50536 6.75369C3.49503 6.77358 3.48512 6.7935 3.47525 6.81297C3.46578 6.83378 3.45587 6.85412 3.44771 6.87401C3.43049 6.91471 3.41629 6.95499 3.40254 6.99392C3.37671 7.07225 3.35778 7.14743 3.34403 7.21737C3.33069 7.28726 3.32253 7.35233 3.3182 7.41027C3.31433 7.46822 3.31392 7.51911 3.3169 7.56114C3.31906 7.60318 3.32592 7.63636 3.33024 7.65894C3.33628 7.68017 3.34057 7.69124 3.34057 7.69124C3.34057 7.69124 3.344 7.67974 3.35003 7.65851L3.35133 7.65541C3.35391 7.65675 3.35693 7.65851 3.36035 7.66028C3.37757 7.66913 3.4034 7.68196 3.43738 7.69522C3.50495 7.72266 3.60389 7.75585 3.72437 7.78547C3.78545 7.80095 3.84873 7.81689 3.92144 7.82927C3.95628 7.83548 3.99198 7.84123 4.02858 7.84786C4.06689 7.85226 4.10602 7.85537 4.14604 7.85893C4.18606 7.86027 4.2265 7.86157 4.26783 7.86157C4.30912 7.85893 4.3513 7.85981 4.39345 7.85272C4.47823 7.84387 4.56384 7.82084 4.64731 7.78857C4.72993 7.75405 4.80823 7.7045 4.87363 7.64123C4.93945 7.57885 4.98938 7.50186 5.02467 7.42399C5.06037 7.34567 5.07889 7.26473 5.08836 7.18863C5.09782 7.1121 5.09566 7.03998 5.0888 6.97449C5.07591 6.84351 5.0389 6.73954 5.00447 6.67229C4.99672 6.65769 4.98941 6.64486 4.98211 6.63378C4.9959 6.64351 5.00879 6.65283 5.02083 6.66256C5.06216 6.69398 5.09614 6.72495 5.12279 6.75238C5.14944 6.77982 5.16926 6.80369 5.18089 6.82097C5.19251 6.83868 5.19852 6.84884 5.19852 6.84884C5.19852 6.84884 5.19807 6.83734 5.1955 6.81523C5.19162 6.79311 5.18387 6.76081 5.16926 6.72188C5.15506 6.68605 5.13483 6.64489 5.10729 6.60063C5.10472 6.59622 5.10215 6.59178 5.09913 6.58737C5.0673 6.53825 5.02642 6.48559 4.97004 6.43386C4.96359 6.42811 4.95714 6.42278 4.95025 6.41704C4.94723 6.41439 4.94335 6.41175 4.94037 6.40952C4.93478 6.40508 4.92875 6.40067 4.9223 6.39626C4.91232 6.38956 4.90199 6.38336 4.89212 6.37673ZM5.00053 6.81121C5.00612 6.86076 5.00783 6.91693 5.00612 6.97756C5.00396 7.03818 4.99665 7.10367 4.98245 7.17C4.9674 7.23592 4.94329 7.30275 4.91101 7.36601C4.87833 7.42928 4.83272 7.48634 4.77935 7.53501C4.72513 7.58325 4.6623 7.62349 4.59306 7.65139C4.52337 7.67925 4.44977 7.70006 4.37449 7.71067C4.33748 7.71776 4.29917 7.71906 4.26176 7.72439C4.22434 7.72661 4.18648 7.72749 4.14947 7.72926C4.13743 7.72883 4.12536 7.72837 4.11377 7.72837C4.08966 7.72749 4.06558 7.72661 4.04147 7.72703C4.0307 7.72615 4.01997 7.72569 4.0092 7.72481C3.98403 7.72305 3.9582 7.72171 3.93389 7.71995C3.86632 7.71466 3.79879 7.70799 3.73854 7.70224C3.61675 7.68986 3.51565 7.67791 3.4451 7.66683C3.42747 7.66373 3.41152 7.66155 3.39777 7.65886C3.38443 7.65664 3.37236 7.65442 3.36289 7.65223C3.35946 7.65135 3.356 7.65047 3.35301 7.64959C3.35946 7.63146 3.36934 7.60847 3.38138 7.58019C3.42126 7.4606 3.5115 7.20365 3.61435 6.99985C3.61425 6.96197 3.6162 6.92381 3.62059 6.88555C3.67385 6.70001 3.8228 6.55235 3.92912 6.48718C4.25706 6.2863 4.74348 6.32848 4.94699 6.6018L4.94891 6.60543C4.95063 6.60807 4.95234 6.61163 4.95406 6.61516C4.96225 6.63152 4.96956 6.65543 4.97772 6.6833C4.98719 6.71828 4.99449 6.76166 5.00053 6.81121ZM4.51819 5.56084C4.56209 5.57058 4.60036 5.57766 4.63092 5.5887C4.69245 5.60817 4.72643 5.62101 4.72643 5.62101C4.72643 5.62101 4.68943 5.62277 4.6266 5.62277C4.59518 5.62143 4.55691 5.6263 4.51342 5.62718C4.49192 5.62718 4.46911 5.6294 4.445 5.6325C4.42134 5.63472 4.39596 5.63691 4.36972 5.63959C4.31766 5.64756 4.26217 5.65553 4.20407 5.66925C4.17523 5.67454 4.14597 5.68339 4.11631 5.69182C4.0862 5.69933 4.05649 5.70995 4.02638 5.72014C3.96571 5.74095 3.9059 5.76838 3.84568 5.79755C3.81598 5.81303 3.78717 5.83028 3.75747 5.84667C3.72907 5.86526 3.69937 5.88162 3.67228 5.90285C3.44637 6.05728 3.26697 6.27939 3.14477 6.45678C3.08455 6.54615 3.03722 6.62447 3.00536 6.68023C2.98985 6.70855 2.97696 6.73023 2.96921 6.74572C2.96101 6.7612 2.95717 6.77005 2.95717 6.77005C2.95717 6.77005 2.95758 6.76078 2.96019 6.74307C2.96276 6.72537 2.96664 6.69973 2.97439 6.66743C2.98944 6.60328 3.01571 6.51211 3.06088 6.40815C3.10605 6.30418 3.16933 6.18604 3.25623 6.07234C3.29883 6.01482 3.34832 5.95953 3.40165 5.90599C3.45631 5.8538 3.51438 5.80333 3.57807 5.75953C3.60862 5.73654 3.64261 5.71838 3.67488 5.69803C3.70846 5.67902 3.74245 5.66174 3.77643 5.64583C3.84527 5.61487 3.9154 5.58962 3.98468 5.57326C4.01952 5.56483 4.0531 5.55601 4.0875 5.55203C4.12107 5.54762 4.15376 5.54141 4.18648 5.54053C4.21875 5.53919 4.25016 5.5352 4.28028 5.537C4.31039 5.53788 4.33964 5.53922 4.36763 5.54011C4.42312 5.54624 4.47388 5.55069 4.51819 5.56084ZM3.54192 4.46935C3.54106 4.47732 3.5389 4.48353 3.53588 4.49016C3.54192 4.43751 3.49932 4.40256 3.45971 4.40034C3.43046 4.39811 3.40247 4.4136 3.39688 4.45345C3.39516 4.46583 3.39345 4.47778 3.39084 4.48974C3.38954 4.48353 3.38954 4.4769 3.3904 4.46939C3.40202 4.37382 3.41543 4.2786 3.43004 4.18394C3.44339 4.17509 3.45673 4.16582 3.47048 4.15651C3.50018 4.13616 3.52988 4.11535 3.55999 4.095C3.61548 4.05695 3.59312 3.97954 3.54751 3.95919C3.53331 3.94946 3.51482 3.94459 3.49373 3.94858C3.48598 3.94992 3.47868 3.95122 3.47092 3.95256C3.57162 3.42561 3.73116 2.91775 3.97298 2.43858C4.03108 2.43417 4.09004 2.43107 4.14855 2.42973C3.8134 3.06414 3.62882 3.75214 3.54192 4.46935ZM5.70143 11.2746C5.72037 11.2303 5.73799 11.1847 5.7548 11.1378C5.91702 10.6781 5.95142 10.1149 5.76944 9.6623C5.90282 9.534 6.02416 9.39195 6.13085 9.23622C6.29263 9.00039 6.43118 8.72253 6.4544 8.43098C6.46171 8.33717 6.31972 8.33763 6.31242 8.43098C6.28704 8.75176 6.09642 9.06324 5.90237 9.30481C5.58181 9.70346 5.15242 10.0012 4.68384 10.1848C4.38608 10.3016 4.07241 10.3742 3.75531 10.4083C3.49541 10.4361 3.23641 10.4185 2.99675 10.5437C2.66545 10.7171 2.49291 11.0742 2.15084 11.1211C2.31563 11.014 2.4417 10.8503 2.50021 10.6313C2.52432 10.5401 2.38748 10.5016 2.36337 10.5923C2.22481 11.1113 1.66075 11.2126 1.21799 11.0631C0.670245 10.8777 0.381953 10.276 0.458982 9.7066C0.50415 9.37654 0.669388 9.14735 0.865149 8.89339C1.05059 8.65316 1.22183 8.40005 1.35565 8.12487C1.66675 7.48553 1.70633 6.77851 1.85864 6.0923C1.87887 6.07284 1.89993 6.05513 1.92273 6.03789C2.13959 5.87154 2.39777 5.77508 2.63355 5.64322C3.07758 5.39544 3.45923 5.02645 3.53581 4.49288V4.49154L3.53588 4.49016C3.54192 4.43751 3.49932 4.40256 3.45971 4.40034C3.43046 4.39811 3.40247 4.4136 3.39688 4.45345C3.39516 4.46583 3.39345 4.47778 3.39084 4.48974C3.33319 4.82734 3.15671 5.06585 2.92696 5.25519C2.69333 5.4481 2.40504 5.59011 2.13139 5.73612C1.90205 5.85867 1.6697 6.0131 1.5415 6.25287C1.3965 6.5241 1.42273 6.83734 1.52216 7.11961L1.52387 7.12314C1.50666 7.20855 1.48817 7.29305 1.46752 7.37709C1.12028 7.11957 1.06479 6.5599 1.18657 6.16435C1.34793 5.64093 1.82595 5.50378 2.25966 5.3016C2.3812 5.24493 2.49726 5.17475 2.60166 5.08944C2.58245 5.05558 2.56404 5.02095 2.54744 4.98456C2.54308 4.97504 2.53927 4.96491 2.53512 4.95514C2.50196 4.98357 2.46794 5.01062 2.43351 5.03523C2.23473 5.17725 1.99894 5.24584 1.77993 5.34671C1.34965 5.54448 1.0476 5.90021 0.9964 6.39133C0.990364 6.44574 0.98738 6.5015 0.98738 6.55768C0.638864 6.77802 0.272686 6.56607 0.169867 6.19884C0.378558 6.2807 0.633274 6.24575 0.77526 6.04974C1.0485 5.67278 0.783422 5.1507 0.882812 4.73258C1.0248 4.13485 1.52305 3.95433 2.06993 4.0092C2.10234 4.01251 2.13475 4.01636 2.16713 4.02017C2.166 4.01777 2.16469 4.01562 2.1636 4.01322C2.14151 3.96617 2.12196 3.91694 2.1045 3.86517C2.09298 3.8639 2.08146 3.86221 2.06993 3.86098C1.69474 3.82292 1.31309 3.86232 1.03471 4.14811C0.919817 4.26625 0.837232 4.40739 0.785171 4.56002C0.513238 4.51002 0.329515 4.25783 0.261094 3.9928C0.178921 3.67558 0.258522 3.3663 0.425029 3.09951C0.741718 3.52161 1.27783 3.44727 1.71799 3.26409C1.76185 3.24586 1.8051 3.22632 1.848 3.20605C1.82976 3.16683 1.81271 3.12518 1.79701 3.08177C1.31782 3.30444 0.775637 3.42787 0.487859 2.93139C0.457747 2.87962 0.394917 2.88805 0.363502 2.93139C0.111804 3.27827 0.00335957 3.72072 0.154811 4.13616C0.256361 4.4149 0.463749 4.63789 0.745148 4.69982C0.712018 4.8467 0.703855 5.00067 0.717162 5.152C0.737397 5.38342 0.78644 5.60947 0.715447 5.83779C0.635846 6.09484 0.327765 6.17225 0.123396 6.00901C0.0803541 5.97448 -0.00610613 5.99 0.000341517 6.0612C0.0485274 6.58991 0.527848 6.96334 0.995543 6.72265C1.02737 7.04298 1.15817 7.35491 1.42798 7.52789C1.3742 7.71769 1.30709 7.90397 1.21716 8.08361C1.06959 8.37918 0.878971 8.64773 0.674601 8.90433C0.529597 9.08708 0.412579 9.2773 0.353179 9.50738C0.130289 10.3679 0.702141 11.2617 1.58934 11.2732C1.68314 11.2745 1.77523 11.2648 1.86213 11.2435L1.86429 11.2444C2.23476 11.3391 2.47054 11.1997 2.72999 10.9408C2.87541 10.7957 3.02515 10.6643 3.22523 10.609C3.48296 10.5374 3.76779 10.5617 4.03283 10.5157C4.62358 10.4135 5.19845 10.163 5.65623 9.76616C5.81972 10.2082 5.75562 10.7829 5.57708 11.1997C5.5756 11.2029 5.57282 11.2105 5.57042 11.2175C5.5686 11.223 5.56699 11.2281 5.56662 11.2306C5.55118 11.3091 5.66659 11.356 5.70143 11.2746ZM1.65903 6.36523C1.63581 6.49265 1.61472 6.62098 1.59233 6.7484C1.58547 6.61343 1.60656 6.48379 1.65903 6.36523ZM4.11459 3.18845L4.1529 3.03624L4.23981 3.16542L4.28885 3.23842L4.33361 3.31453L4.37318 3.39327L4.40847 3.47425L4.43859 3.55656L4.46441 3.64063L4.4855 3.72601L4.50186 3.81231L4.51349 3.89903L4.52038 3.98617C4.5221 4.01537 4.52254 4.04415 4.52295 4.07335L4.52038 4.16007C4.51867 4.18927 4.5161 4.21805 4.51308 4.24679L4.50104 4.33217L4.48297 4.41624C4.47566 4.4441 4.46791 4.47154 4.4593 4.49898C4.45844 4.4702 4.45886 4.44192 4.45844 4.4136L4.45543 4.3291L4.45025 4.24548C4.44723 4.21762 4.44466 4.19019 4.44208 4.16229L4.43132 4.08044C4.42614 4.053 4.42185 4.02602 4.41797 3.99858L4.40162 3.91807L4.38227 3.83844L4.36032 3.76015L4.3358 3.68228L4.30826 3.60618L4.2777 3.53141L4.24457 3.45799L4.20801 3.38675L4.20157 3.37525C4.19039 3.40579 4.17876 3.43588 4.16586 3.4655C4.13445 3.54249 4.09744 3.61637 4.06346 3.69025L4.01181 3.80042L3.96403 3.9119C3.94898 3.94907 3.93519 3.98755 3.92099 4.02606C3.9081 4.06411 3.89602 4.10392 3.88357 4.14374C3.88272 4.10216 3.88399 4.06055 3.88786 4.01851C3.89129 3.97647 3.89777 3.93489 3.90549 3.89374C3.91324 3.85216 3.92312 3.81146 3.93389 3.77119C3.94507 3.73091 3.95625 3.69022 3.96959 3.65082L4.04747 3.4181C4.07244 3.34154 4.09566 3.26543 4.11459 3.18845ZM10.4026 12.351C9.84538 13.1616 8.95558 13.6191 8.04598 13.8832C7.50341 14.0407 6.94147 14.123 6.37912 14.1553C5.89377 14.1832 5.40628 14.15 4.92223 14.2009C4.50142 14.2451 4.04535 14.3372 3.80137 14.7278C3.54449 15.1393 3.59569 15.6078 4.03156 15.8543C4.09868 15.8928 4.06641 15.9981 3.99325 15.9994C3.65722 16.0061 3.28717 15.9162 3.00405 15.7282C2.77664 15.5774 2.63225 15.3644 2.55766 15.1232C2.54709 15.1036 2.5331 15.0731 2.52947 15.0649C2.15427 14.2106 2.05659 13.2513 2.76913 12.5563C3.53547 11.8085 4.61257 11.6135 5.57042 11.2175C5.5686 11.223 5.56699 11.2281 5.56662 11.2306C5.55118 11.3091 5.66659 11.356 5.70143 11.2746C5.72037 11.2303 5.73799 11.1847 5.7548 11.1378C6.18034 10.9454 6.57619 10.702 6.90148 10.3374C7.34596 9.83969 7.65404 9.21583 7.69578 8.53491C7.73234 7.94114 7.57399 7.35268 7.30337 6.83148C6.79308 5.84883 5.88132 4.99623 4.8392 4.65909C4.79917 4.64625 4.77596 4.60509 4.78628 4.56309C4.98077 3.76847 4.53973 3.08311 4.15894 2.42917C4.21745 2.4274 4.27596 2.42695 4.3345 2.42783C4.54964 2.79904 4.77078 3.17822 4.89171 3.5804C4.8108 3.58128 4.81512 3.71801 4.90247 3.72862C4.91235 3.72996 4.92182 3.73127 4.93173 3.73261C4.99068 3.98836 5.00488 4.25381 4.94809 4.53255C6.05389 4.91484 7.02156 5.84883 7.51768 6.92441C8.01679 8.00528 7.94323 9.21626 7.22853 10.1773C6.9497 10.5525 6.62184 10.8728 6.21265 11.0874C5.87919 11.2622 5.52464 11.3922 5.17269 11.5205C4.41499 11.797 3.57079 12.0439 2.9512 12.5961C2.67454 12.8425 2.46629 13.1571 2.39873 13.5314C2.36258 13.7332 2.36604 13.9367 2.39657 14.1376C2.39098 14.3265 2.41334 14.5199 2.46111 14.7137C2.4667 14.7367 2.4796 14.7517 2.49555 14.7597C2.49297 14.6955 2.49424 14.6309 2.49898 14.5664C2.50326 14.5084 2.51016 14.45 2.52007 14.392C2.5261 14.3566 2.53341 14.3221 2.54243 14.2885C2.70163 13.6478 3.27431 13.2997 3.86293 13.1125C4.6826 12.8519 5.55821 12.8006 6.40539 12.6922C7.21646 12.5886 8.11831 12.4811 8.82264 12.0183C9.60058 11.5069 9.80711 10.4384 9.43061 9.59286C9.46288 9.54155 9.4943 9.48932 9.52441 9.43625C9.96113 10.3149 9.80108 11.4839 9.00764 12.0763C8.36781 12.5537 7.52235 12.6913 6.75861 12.8001C5.91054 12.9214 5.04614 12.9705 4.21141 13.1762C3.58194 13.3315 2.85692 13.6187 2.68565 14.3359C2.5712 14.815 2.68092 15.3473 3.1125 15.6146C3.29794 15.7296 3.51997 15.8017 3.74197 15.8305C3.52552 15.619 3.43605 15.3252 3.52038 14.9978C3.6103 14.6496 3.84437 14.3567 4.16792 14.2173C4.57796 14.0404 5.05427 14.0204 5.4936 14.016C6.08908 14.0098 6.67729 14.0023 7.26674 13.9019C8.30755 13.724 9.42413 13.3218 10.1242 12.4697C11.196 11.164 10.9916 9.19249 10.0704 7.86337C10.0799 7.79037 10.0868 7.71649 10.091 7.64215C10.0913 7.63862 10.0914 7.6351 10.0916 7.63157C10.1007 7.64356 10.1106 7.65823 10.1147 7.66384C10.6457 8.3735 10.9585 9.25311 10.9963 10.1482C11.0291 10.9233 10.8415 11.7135 10.4026 12.351ZM2.73246 2.67035C2.71964 2.64771 2.70606 2.62539 2.69196 2.60321C2.716 2.59224 2.74015 2.58152 2.76439 2.57125C3.07333 2.43939 3.39818 2.35624 3.73638 2.31374C3.8418 2.30048 3.94719 2.29121 4.05307 2.28546C4.11802 2.28147 4.18257 2.27925 4.24797 2.27837C6.08308 2.25227 7.97155 3.27605 9.09801 4.72196C9.69393 5.4865 10.0988 6.42405 10.0984 7.41602C10.0984 7.48853 10.0958 7.56026 10.0916 7.63157C10.0914 7.6351 10.0913 7.63862 10.091 7.64215C10.0868 7.71649 10.0799 7.79037 10.0704 7.86337C10.0007 8.42439 9.80409 8.95268 9.52441 9.43625C9.4943 9.48932 9.46288 9.54155 9.43061 9.59286C9.24644 9.88755 9.03219 10.1645 8.79853 10.4211C8.78687 10.434 8.72891 10.4911 8.69002 10.522C8.48442 10.8107 8.225 11.0649 7.91606 11.271C6.93119 11.9281 5.73672 11.9564 4.63524 12.2696C4.07546 12.4285 3.48598 12.6422 3.04583 13.0466C2.67793 13.3846 2.51921 13.8186 2.54243 14.2885C2.53341 14.3221 2.5261 14.3566 2.52007 14.392C2.51016 14.45 2.50326 14.5084 2.49898 14.5664C2.49424 14.6309 2.49297 14.6955 2.49555 14.7597C2.4796 14.7517 2.4667 14.7367 2.46111 14.7137C2.41334 14.5199 2.39098 14.3265 2.39657 14.1376C2.40819 13.7381 2.54497 13.3607 2.83583 13.0488C3.2575 12.5971 3.86032 12.3515 4.43214 12.1754C5.51298 11.8427 6.70267 11.829 7.69705 11.2356C8.65267 10.6658 9.16386 9.65832 9.11567 8.52966C9.0193 6.29001 7.1145 4.02373 4.93173 3.73261C4.92182 3.73127 4.91235 3.72996 4.90247 3.72862C4.81512 3.71801 4.8108 3.58128 4.89171 3.5804C4.89513 3.57997 4.89856 3.58047 4.90244 3.58089C6.16745 3.73885 7.28615 4.51664 8.07139 5.52498C8.74733 6.39305 9.2357 7.48059 9.26194 8.60569C9.27271 9.07248 9.19009 9.5211 9.02057 9.92817C9.69263 9.0455 10.0945 7.96949 9.90691 6.82665C9.56958 4.76883 7.67551 3.23267 5.82147 2.66855C5.3417 2.52298 4.83748 2.43358 4.3345 2.42783C4.27596 2.42695 4.21745 2.4274 4.15894 2.42917C4.15551 2.42917 4.15197 2.42927 4.14855 2.42973C4.09004 2.43107 4.03108 2.43417 3.97298 2.43858C3.62104 2.46338 3.27341 2.53232 2.93821 2.65441C2.90724 2.66591 2.87623 2.67786 2.84571 2.6907C2.81779 2.70213 2.79015 2.71405 2.76271 2.72632C2.75304 2.70759 2.74303 2.6889 2.73246 2.67035Z" fill="black"/>
<path d="M1.9777 3.41569C2.07606 3.27635 2.16088 3.1379 2.23438 3.00279C2.27351 2.93088 2.30959 2.85989 2.34244 2.79028H2.34289C2.34357 2.7888 2.34419 2.78739 2.34488 2.7859C2.37595 2.71936 2.40455 2.65478 2.43055 2.59145C2.46087 2.51838 2.48762 2.44784 2.51125 2.37985C2.50988 2.10227 2.35156 1.82663 2.16904 1.61133C2.06019 1.88355 1.90637 2.18768 1.68896 2.49443C1.68931 2.63655 1.71225 2.79155 1.75118 2.93642C1.76311 2.9811 1.77642 3.02448 1.79106 3.06613C1.79295 3.07149 1.79497 3.0766 1.79689 3.08189C1.8126 3.12531 1.82965 3.16696 1.84789 3.20617C1.88654 3.2894 1.93037 3.36166 1.9777 3.41569Z" fill="#FFE870"/>
<path d="M2.40852 2.80995C2.38746 2.85382 2.36497 2.89829 2.34151 2.94312C2.25385 3.11049 2.14917 3.28347 2.02393 3.45698C2.03325 3.60302 2.06049 3.73449 2.09989 3.85298C2.1013 3.85725 2.10298 3.8612 2.10438 3.86547C2.12184 3.91724 2.14139 3.96644 2.16348 4.01352C2.16461 4.01591 2.16588 4.0181 2.16701 4.02046C2.22473 4.14203 2.29521 4.24846 2.37251 4.34329C2.4338 4.25435 2.48984 4.16566 2.54111 4.07812C2.54258 4.07562 2.54396 4.07315 2.54543 4.07061C2.57054 4.02773 2.59423 3.98544 2.61701 3.94323C2.61838 3.94066 2.61961 3.93815 2.62098 3.93558C2.74284 3.70691 2.83228 3.48897 2.89779 3.29557C2.91627 3.12653 2.86411 2.92263 2.76259 2.72662C2.75289 2.70789 2.74291 2.6892 2.73231 2.67065C2.71948 2.64801 2.7059 2.62568 2.69181 2.6035C2.67977 2.58456 2.66735 2.56577 2.65439 2.54715C2.62747 2.50818 2.59876 2.47051 2.56831 2.43408C2.54721 2.49139 2.52389 2.55088 2.49834 2.61165V2.61211C2.48226 2.65005 2.46514 2.6886 2.44745 2.72739C2.43496 2.75476 2.42234 2.7822 2.409 2.80995H2.40852Z" fill="#FFE870"/>
<path d="M2.75559 5.31117C3.07043 5.05175 3.20892 4.80249 3.27 4.58039C3.28337 4.5326 3.2928 4.48559 3.29956 4.44024C3.3091 4.37838 3.31338 4.31927 3.31554 4.26313C3.31565 4.25996 3.31585 4.25671 3.31595 4.25357C3.31791 4.23442 3.31901 4.21482 3.31884 4.19468C3.31904 4.17638 3.3188 4.15804 3.31726 4.13921C3.31633 4.12231 3.31434 4.10507 3.31201 4.08768C3.31102 4.08017 3.31009 4.07273 3.30892 4.06515V4.06469C3.30714 4.05301 3.30539 4.04088 3.30275 4.02918C3.30056 4.01704 3.29795 4.00488 3.29531 3.99271C3.29387 3.98647 3.29178 3.98012 3.2902 3.97384C3.23913 3.76962 3.12283 3.55149 2.96473 3.3667C2.9008 3.54677 2.8178 3.74302 2.71008 3.94718C2.70511 3.9566 2.70037 3.96594 2.6953 3.97543C2.67661 4.01101 2.65661 4.04667 2.63597 4.0826C2.63041 4.0923 2.62503 4.10189 2.61933 4.11166C2.55791 4.21714 2.48993 4.32372 2.41455 4.43093C2.42628 4.58374 2.45173 4.71605 2.48897 4.8336C2.50279 4.8763 2.51826 4.91654 2.53493 4.95555C2.53908 4.96528 2.54289 4.9754 2.54724 4.98496C2.56384 5.02135 2.58226 5.05599 2.60146 5.08984C2.64025 5.15829 2.68381 5.22237 2.73261 5.28306C2.74012 5.29273 2.74763 5.30193 2.75559 5.31117Z" fill="#FFE870"/>
<path d="M1.68096 0.764447C1.528 0.241802 1.22043 -0.0199085 1.1634 0.00118065C1.0899 0.0283709 1.05663 0.654275 1.35093 1.37656C1.48821 1.16578 1.59618 0.958411 1.68096 0.764447Z" fill="#FFE870"/>
<path d="M1.64872 2.45769C1.86177 2.14893 2.01048 1.84434 2.11392 1.57498C2.08089 1.2434 1.93259 1.03646 1.73412 0.816895C1.64423 1.01636 1.53016 1.2287 1.38574 1.44375C1.41565 1.79151 1.46383 2.12799 1.64872 2.45769Z" fill="#FFE870"/>
</svg>
