<svg width="16" height="16" viewBox="0 0 16 16" fill="none" xmlns="http://www.w3.org/2000/svg">
<g clip-path="url(#clip0_12022_76216)">
<rect width="16" height="16" fill="white"/>
<rect x="1" y="10" width="1" height="1" fill="#FCF1FE"/>
<rect x="1.99622" y="10" width="1" height="1" fill="#FCF1FE"/>
<rect x="3" y="10" width="1" height="1" fill="#FCF1FE"/>
<rect x="1" y="11" width="1" height="1" fill="#FCF1FE"/>
<rect x="1.99622" y="11" width="1" height="1" fill="#FCF1FE"/>
<rect x="3" y="11" width="1" height="1" fill="#FCF1FE"/>
<rect x="1" y="12" width="1" height="1" fill="#FCF1FE"/>
<rect x="1.99622" y="12" width="1" height="1" fill="#FCF1FE"/>
<rect x="3" y="12" width="1" height="1" fill="#FCF1FE"/>
<rect x="4" y="10" width="1" height="1" fill="#FCF1FE"/>
<rect x="1.99622" y="9" width="1" height="1" fill="#FCF1FE"/>
<rect x="3" y="9" width="1" height="1" fill="#EACEF2"/>
<rect x="4" y="9" width="1" height="1" fill="#EACEF2"/>
<rect x="4" y="11" width="1" height="1" fill="#FCF1FE"/>
<rect x="4" y="12" width="1" height="1" fill="#FCF1FE"/>
<rect x="5" y="10" width="1" height="1" fill="#FCF1FE"/>
<rect x="5" y="8" width="1" height="1" fill="#EACEF2"/>
<rect x="6" y="8" width="1" height="1" fill="#EACEF2"/>
<rect x="7" y="8" width="1" height="1" fill="#EACEF2"/>
<rect x="5" y="11" width="1" height="1" fill="#FCF1FE"/>
<rect x="5" y="9" width="1" height="1" fill="#FCF1FE"/>
<rect x="5" y="12" width="1" height="1" fill="#FCF1FE"/>
<rect x="1.99622" y="13" width="1" height="1" fill="#FCF1FE"/>
<rect x="6" y="13" width="1" height="1" fill="#FCF1FE"/>
<rect x="6" y="12" width="1" height="1" fill="#FCF1FE"/>
<rect x="6" y="11" width="1" height="1" fill="#FCF1FE"/>
<rect x="3" y="13" width="1" height="1" fill="#FCF1FE"/>
<rect x="7" y="13" width="1" height="1" fill="#FCF1FE"/>
<rect x="7" y="12" width="1" height="1" fill="#FCF1FE"/>
<rect x="7" y="11" width="1" height="1" fill="#FCF1FE"/>
<rect x="7" y="10" width="1" height="1" fill="#FCF1FE"/>
<rect x="7" y="9" width="1" height="1" fill="#FCF1FE"/>
<rect x="4" y="13" width="1" height="1" fill="#FCF1FE"/>
<rect x="8" y="13" width="1" height="1" fill="#FCF1FE"/>
<rect x="10" y="15" width="1" height="1" fill="#EACEF2"/>
<rect x="10" y="14" width="1" height="1" fill="#EACEF2"/>
<rect x="8" y="12" width="1" height="1" fill="#FCF1FE"/>
<rect x="8" y="15" width="1" height="1" fill="#FCF1FE"/>
<rect x="7" y="15" width="1" height="1" fill="#EACEF2"/>
<rect x="8" y="11" width="1" height="1" fill="#FCF1FE"/>
<rect x="8" y="14" width="1" height="1" fill="#EACEF2"/>
<rect x="8" y="10" width="1" height="1" fill="#FCF1FE"/>
<rect x="8" y="9" width="1" height="1" fill="#EACEF2"/>
<rect x="5" y="13" width="1" height="1" fill="#FCF1FE"/>
<rect x="9" y="13" width="1" height="1" fill="#FCF1FE"/>
<rect x="9" y="12" width="1" height="1" fill="#FCF1FE"/>
<rect x="9" y="15" width="1" height="1" fill="#FCF1FE"/>
<rect x="9" y="11" width="1" height="1" fill="#EACEF2"/>
<rect x="9" y="14" width="1" height="1" fill="#FCF1FE"/>
<rect x="6" y="6" width="1" height="1" fill="#F5F5F5"/>
<rect x="9" y="6" width="1" height="1" fill="#F5F5F5"/>
<rect x="9" y="7" width="1" height="1" fill="#F5F5F5"/>
<rect x="9" y="8" width="1" height="1" fill="#F5F5F5"/>
<rect x="7" y="6" width="1" height="1" fill="#F5F5F5"/>
<rect x="10" y="6" width="1" height="1" fill="#F5F5F5"/>
<rect x="10" y="7" width="1" height="1" fill="#F5F5F5"/>
<rect x="10" y="8" width="1" height="1" fill="#F5F5F5"/>
<rect x="10" y="5" width="1" height="1" fill="#F5F5F5"/>
<rect x="8" y="6" width="1" height="1" fill="#F5F5F5"/>
<rect x="8" y="7" width="1" height="1" fill="#F5F5F5"/>
<rect x="11" y="6" width="1" height="1" fill="#F5F5F5"/>
<rect x="11" y="5" width="1" height="1" fill="#F5F5F5"/>
<rect x="3" y="2" width="1" height="1" fill="#EBC85B"/>
<rect x="2" y="2" width="1" height="1" fill="#F2A642"/>
<rect x="2" y="1" width="1" height="1" fill="#EBC85B"/>
<rect x="3" y="3" width="1" height="1" fill="#F2A642"/>
<rect x="4" y="3" width="1" height="1" fill="#EBC85B"/>
<rect x="4" y="4" width="1" height="1" fill="#F2A642"/>
<rect x="5" y="4" width="1" height="1" fill="#EBC85B"/>
<rect x="4" y="5" width="1" height="1" fill="#F2A642"/>
<rect x="5" y="5" width="1" height="1" fill="#F2A642"/>
<rect x="6" y="5" width="1" height="1" fill="#C811A0"/>
<rect x="4" y="6" width="1" height="1" fill="#C811A0"/>
<rect x="5" y="6" width="1" height="1" fill="#C811A0"/>
<rect x="6" y="6" width="1" height="1" fill="#F5F5F5"/>
<rect x="9" y="6" width="1" height="1" fill="#F5F5F5"/>
<rect x="9" y="7" width="1" height="1" fill="#F5F5F5"/>
<rect x="9" y="8" width="1" height="1" fill="#F5F5F5"/>
<rect x="7" y="6" width="1" height="1" fill="#F5F5F5"/>
<rect x="10" y="6" width="1" height="1" fill="#F5F5F5"/>
<rect x="10" y="7" width="1" height="1" fill="#F5F5F5"/>
<rect x="10" y="8" width="1" height="1" fill="#F5F5F5"/>
<rect x="11" y="8" width="1" height="1" fill="#F5F5F5"/>
<rect x="11" y="11" width="1" height="1" fill="#F5F5F5"/>
<rect x="12" y="11" width="1" height="1" fill="#F5F5F5"/>
<rect x="13" y="11" width="1" height="1" fill="#F5F5F5"/>
<rect x="14" y="11" width="1" height="1" fill="#F5F5F5"/>
<rect x="10" y="9" width="1" height="1" fill="#F5F5F5"/>
<rect x="11" y="9" width="1" height="1" fill="#F5F5F5"/>
<rect x="12" y="9" width="1" height="1" fill="#F5F5F5"/>
<rect x="11" y="12" width="1" height="1" fill="#F5F5F5"/>
<rect x="12" y="12" width="1" height="1" fill="#F5F5F5"/>
<rect x="13" y="12" width="1" height="1" fill="#F5F5F5"/>
<rect x="14" y="12" width="1" height="1" fill="#F5F5F5"/>
<rect x="15" y="12" width="1" height="1" fill="#F5F5F5"/>
<rect x="10" y="10" width="1" height="1" fill="#F5F5F5"/>
<rect x="11" y="10" width="1" height="1" fill="#F5F5F5"/>
<rect x="12" y="10" width="1" height="1" fill="#F5F5F5"/>
<rect x="13" y="10" width="1" height="1" fill="#F5F5F5"/>
<rect x="11" y="13" width="1" height="1" fill="#F5F5F5"/>
<rect x="12" y="13" width="1" height="1" fill="#F5F5F5"/>
<rect x="12" y="14" width="1" height="1" fill="#F5F5F5"/>
<rect x="12" y="15" width="1" height="1" fill="#F5F5F5"/>
<rect x="13" y="13" width="1" height="1" fill="#F5F5F5"/>
<rect x="13" y="14" width="1" height="1" fill="#F5F5F5"/>
<rect x="13" y="15" width="1" height="1" fill="#F5F5F5"/>
<rect x="14" y="13" width="1" height="1" fill="#F5F5F5"/>
<rect x="14" y="14" width="1" height="1" fill="#F5F5F5"/>
<rect x="14" y="15" width="1" height="1" fill="#F5F5F5"/>
<rect x="15" y="13" width="1" height="1" fill="#F5F5F5"/>
<rect x="15" y="14" width="1" height="1" fill="#F5F5F5"/>
<rect x="10" y="5" width="1" height="1" fill="#F5F5F5"/>
<rect x="8" y="6" width="1" height="1" fill="#F5F5F5"/>
<rect x="8" y="7" width="1" height="1" fill="#F5F5F5"/>
<rect x="11" y="6" width="1" height="1" fill="#F5F5F5"/>
<rect x="11" y="5" width="1" height="1" fill="#F5F5F5"/>
<rect x="6" y="6" width="1" height="1" fill="#F02D5E"/>
<rect x="9" y="6" width="1" height="1" fill="#EACEF2"/>
<rect x="9" y="7" width="1" height="1" fill="#D33824"/>
<rect x="9" y="8" width="1" height="1" fill="#D33824"/>
<rect x="7" y="6" width="1" height="1" fill="#F02D5E"/>
<rect x="10" y="6" width="1" height="1" fill="#FCF1FE"/>
<rect x="10" y="7" width="1" height="1" fill="#EACEF2"/>
<rect x="10" y="8" width="1" height="1" fill="#D33824"/>
<rect x="11" y="8" width="1" height="1" fill="#DE5230"/>
<rect x="11" y="11" width="1" height="1" fill="#EB8A36"/>
<rect x="12" y="11" width="1" height="1" fill="#EDBD46"/>
<rect x="13" y="11" width="1" height="1" fill="#EDBD46"/>
<rect x="14" y="11" width="1" height="1" fill="#B8E34D"/>
<rect x="10" y="9" width="1" height="1" fill="#DE5230"/>
<rect x="11" y="9" width="1" height="1" fill="#DE5230"/>
<rect x="12" y="9" width="1" height="1" fill="#EB8A36"/>
<rect x="11" y="12" width="1" height="1" fill="#EDBD46"/>
<rect x="12" y="12" width="1" height="1" fill="#EDBD46"/>
<rect x="13" y="12" width="1" height="1" fill="#B8E34D"/>
<rect x="14" y="12" width="1" height="1" fill="#B8E34D"/>
<rect x="15" y="12" width="1" height="1" fill="#5CA939"/>
<rect x="10" y="10" width="1" height="1" fill="#DE5230"/>
<rect x="11" y="10" width="1" height="1" fill="#EB8A36"/>
<rect x="12" y="10" width="1" height="1" fill="#EB8A36"/>
<rect x="13" y="10" width="1" height="1" fill="#EDBD46"/>
<rect x="11" y="13" width="1" height="1" fill="#EDBD46"/>
<rect x="12" y="13" width="1" height="1" fill="#B8E34D"/>
<rect x="12" y="14" width="1" height="1" fill="#B8E34D"/>
<rect x="12" y="15" width="1" height="1" fill="#B8E34D"/>
<rect x="13" y="13" width="1" height="1" fill="#B8E34D"/>
<rect x="13" y="14" width="1" height="1" fill="#5CA939"/>
<rect x="13" y="15" width="1" height="1" fill="#5CA939"/>
<rect x="14" y="13" width="1" height="1" fill="#5CA939"/>
<rect x="14" y="14" width="1" height="1" fill="#5CA939"/>
<rect x="14" y="15" width="1" height="1" fill="#01ACFD"/>
<rect x="15" y="13" width="1" height="1" fill="#5CA939"/>
<rect x="15" y="14" width="1" height="1" fill="#01ACFD"/>
<rect x="10" y="5" width="1" height="1" fill="#FCF1FE"/>
<rect x="8" y="6" width="1" height="1" fill="#F02D5E"/>
<rect x="8" y="7" width="1" height="1" fill="#D33824"/>
<rect x="11" y="6" width="1" height="1" fill="#EACEF2"/>
<rect x="11" y="5" width="1" height="1" fill="#FCF1FE"/>
<rect x="3" y="6" width="1" height="1" fill="#C811A0"/>
<rect x="2" y="6" width="1" height="1" fill="#F02D5E"/>
<rect x="4" y="7" width="1" height="1" fill="#F02D5E"/>
<rect x="3" y="7" width="1" height="1" fill="#F02D5E"/>
<rect x="2" y="7" width="1" height="1" fill="#F02D5E"/>
<rect y="10" width="1" height="1" fill="#3D4552"/>
<rect y="11" width="1" height="1" fill="#3D4552"/>
<rect x="6" y="9" width="1" height="1" fill="#3D4552"/>
<rect x="6" y="10" width="1" height="1" fill="#3D4552"/>
<rect x="1" y="13" width="1" height="1" fill="#3D4552"/>
<rect x="2" y="14" width="1" height="1" fill="#3D4552"/>
<rect x="3" y="14" width="1" height="1" fill="#3D4552"/>
<rect x="2" y="8" width="1" height="1" fill="#3D4552"/>
<rect x="3" y="8" width="1" height="1" fill="#3D4552"/>
<rect x="4" y="8" width="1" height="1" fill="#3D4552"/>
<rect x="8" y="8" width="1" height="1" fill="#3D4552"/>
<rect x="9" y="9" width="1" height="1" fill="#3D4552"/>
<rect x="9" y="10" width="1" height="1" fill="#3D4552"/>
<rect x="10" y="11" width="1" height="1" fill="#3D4552"/>
<rect x="10" y="12" width="1" height="1" fill="#3D4552"/>
<rect x="10" y="13" width="1" height="1" fill="#3D4552"/>
<rect x="11" y="14" width="1" height="1" fill="#3D4552"/>
<rect x="11" y="15" width="1" height="1" fill="#3D4552"/>
<rect x="15" y="11" width="1" height="1" fill="#3D4552"/>
<rect x="14" y="10" width="1" height="1" fill="#3D4552"/>
<rect x="13" y="9" width="1" height="1" fill="#3D4552"/>
<rect x="12" y="8" width="1" height="1" fill="#3D4552"/>
<rect x="11" y="7" width="1" height="1" fill="#3D4552"/>
<rect x="12" y="6" width="1" height="1" fill="#3D4552"/>
<rect x="12" y="5" width="1" height="1" fill="#3D4552"/>
<rect x="11" y="4" width="1" height="1" fill="#3D4552"/>
<rect x="10" y="4" width="1" height="1" fill="#3D4552"/>
<rect x="9" y="5" width="1" height="1" fill="#3D4552"/>
<rect x="8" y="5" width="1" height="1" fill="#3D4552"/>
<rect x="7" y="5" width="1" height="1" fill="#3D4552"/>
<rect x="6" y="4" width="1" height="1" fill="#3D4552"/>
<rect x="5" y="3" width="1" height="1" fill="#3D4552"/>
<rect x="4" y="2" width="1" height="1" fill="#3D4552"/>
<rect x="3" y="1" width="1" height="1" fill="#3D4552"/>
<rect x="2" width="1" height="1" fill="#3D4552"/>
<rect x="2" y="3" width="1" height="1" fill="#3D4552"/>
<rect x="1" y="2" width="1" height="1" fill="#3D4552"/>
<rect x="1" y="1" width="1" height="1" fill="#3D4552"/>
<rect x="1" width="1" height="1" fill="#3D4552"/>
<rect x="3" y="4" width="1" height="1" fill="#3D4552"/>
<rect x="3" y="5" width="1" height="1" fill="#3D4552"/>
<rect x="2" y="5" width="1" height="1" fill="#3D4552"/>
<rect x="1" y="5" width="1" height="1" fill="#3D4552"/>
<rect x="1" y="6" width="1" height="1" fill="#3D4552"/>
<rect x="1" y="7" width="1" height="1" fill="#3D4552"/>
<rect x="15" y="15" width="1" height="1" fill="#3D4552"/>
<rect x="5" y="7" width="1" height="1" fill="#3D4552"/>
<rect x="6" y="7" width="1" height="1" fill="#3D4552"/>
<rect x="7" y="7" width="1" height="1" fill="#3D4552"/>
<rect x="4" y="14" width="1" height="1" fill="#3D4552"/>
<rect x="5" y="14" width="1" height="1" fill="#3D4552"/>
<rect x="6" y="14" width="1" height="1" fill="#3D4552"/>
<rect x="6" y="15" width="1" height="1" fill="#3D4552"/>
<rect x="7" y="14" width="1" height="1" fill="#3D4552"/>
<rect x="1" y="9" width="1" height="1" fill="#3D4552"/>
<rect y="12" width="1" height="1" fill="#3D4552"/>
</g>
<defs>
<clipPath id="clip0_12022_76216">
<rect width="16" height="16" fill="white"/>
</clipPath>
</defs>
</svg>
