<svg width="200" height="150" viewBox="0 0 800 600" fill="none" xmlns="http://www.w3.org/2000/svg" data-reactroot="">
<path fill-rule="evenodd" clip-rule="evenodd" d="M547.464 253.713V187.415H548.486V254.734H430.098V253.713H547.464Z" fill="#9fa9c3"></path>
<path opacity="0.3" d="M711.737 76.4248H656.151V478.357H711.737V76.4248Z" fill="#9fa9c3"></path>
<path opacity="0.3" d="M646.647 76.4248H591.061V478.357H646.647V76.4248Z" fill="#9fa9c3"></path>
<path fill-rule="evenodd" clip-rule="evenodd" d="M319.569 140.709H398.159V243.5H430.098V244.521H397.138V141.73H319.569V140.709Z" fill="#9fa9c3"></path>
<path fill-rule="evenodd" clip-rule="evenodd" d="M547.464 177.203V126.859H548.485V177.203H547.464Z" fill="#9fa9c3"></path>
<path opacity="0.1" d="M184.097 521.035C184.097 521.035 275.174 407.955 265.372 369.771C233.397 370.403 198.907 408.499 198.907 408.499C198.907 408.499 274.523 240.969 245.365 155.579C185.213 199.437 184.097 322.287 184.097 322.287C184.097 322.287 214.345 139.259 150.123 88.3048C131.135 108.66 131.135 174.438 131.135 174.438C131.135 174.438 118.376 105.229 54.2986 75.2378C35.0291 189.34 111.728 303.772 111.728 303.772C111.728 303.772 79.8404 245.335 36.5756 235.724C27.6924 308.573 82.3725 408.499 82.3725 408.499C82.3725 408.499 61.2448 351.66 14.2264 347.903C-4.94639 415.669 47.3295 522.218 47.3295 522.218L184.097 521.035Z" fill="#9fa9c3"></path>
<path opacity="0.1" d="M298.583 521.709C306.655 521.571 340.826 521.699 360.335 521.701C414.946 521.709 419.527 430.632 412.235 413.475C400.779 422.186 382.732 452.896 382.732 452.896C382.732 452.896 409.233 386.022 397.707 333.694C376.061 348.275 361.38 374.763 362.907 374.583C373.238 373.366 368.004 280.079 358.173 280.982C327.057 310.757 308.804 348.341 315.938 401.335C315.938 401.335 303.316 362.673 278.268 373.435C281.749 445.404 237.769 522.747 298.583 521.709Z" fill="#9fa9c3"></path>
<path opacity="0.23" d="M319.569 164.254H136.281V521.708H319.569V164.254Z" fill="#9fa9c3"></path>
<path d="M288.053 227.286H82.3723V254.654H288.053V227.286Z" fill="#61cdff"></path>
<path d="M124.332 521.708H414.946" stroke="#005B9D" stroke-width="0.812065" stroke-miterlimit="10" stroke-linecap="round"></path>
<path d="M52.5154 521.708H107.165" stroke="#005B9D" stroke-width="0.812065" stroke-miterlimit="10" stroke-linecap="round"></path>
<path d="M52.9304 294.879H253.221" stroke="#005B9D" stroke-miterlimit="10"></path>
<path d="M748.845 515.58C753.646 509.917 751.556 497.165 749.07 497.165C744.984 497.165 741.485 511.875 741.485 511.875C741.485 511.875 736.44 492.34 726.227 483.148C726.227 483.148 724.079 500.299 726.122 509.491C726.122 509.491 719.908 495.154 711.737 498.218C711.737 498.218 718.083 521.214 719.527 522.219" stroke="#005B9D" stroke-width="0.812065" stroke-miterlimit="10" stroke-linecap="round"></path>
<path d="M97.6079 521.821C97.6079 521.821 91.2319 502.186 93.5774 487.229C101.969 492.158 105.566 497.752 105.566 497.752C105.566 497.752 106.432 492.34 116.645 483.148C116.645 483.148 118.793 500.299 116.75 509.491C120.523 504.294 124.927 499.985 131.135 498.218C131.135 498.218 127.177 521.369 117.317 521.708" stroke="#005B9D" stroke-width="0.812065" stroke-miterlimit="10" stroke-linecap="round"></path>
<path fill-rule="evenodd" clip-rule="evenodd" d="M547.974 91.09C533.229 91.09 521.275 103.044 521.275 117.789C521.275 132.534 533.229 144.488 547.974 144.488C562.72 144.488 574.673 132.534 574.673 117.789C574.673 103.044 562.72 91.09 547.974 91.09ZM520.254 117.789C520.254 102.479 532.665 90.0687 547.974 90.0687C563.284 90.0687 575.695 102.479 575.695 117.789C575.695 133.098 563.284 145.509 547.974 145.509C532.665 145.509 520.254 133.098 520.254 117.789Z" fill="#9fa9c3"></path>
<path d="M547.974 125.843C552.422 125.843 556.028 122.237 556.028 117.789C556.028 113.341 552.422 109.735 547.974 109.735C543.526 109.735 539.92 113.341 539.92 117.789C539.92 122.237 543.526 125.843 547.974 125.843Z" fill="#61cdff"></path>
<path fill-rule="evenodd" clip-rule="evenodd" d="M362.042 185.071C357.876 185.071 354.499 188.449 354.499 192.615C354.499 196.781 357.876 200.158 362.042 200.158C366.209 200.158 369.586 196.781 369.586 192.615C369.586 188.449 366.209 185.071 362.042 185.071ZM353.478 192.615C353.478 187.884 357.312 184.05 362.042 184.05C366.773 184.05 370.607 187.884 370.607 192.615C370.607 197.345 366.773 201.179 362.042 201.179C357.312 201.179 353.478 197.345 353.478 192.615Z" fill="#9fa9c3"></path>
<path fill-rule="evenodd" clip-rule="evenodd" d="M417.034 120.779H372.708V119.758H418.055V192.614H417.034V120.779Z" fill="#9fa9c3"></path>
<path d="M492.249 336.747L487.231 340.959L455.397 191.038L462.768 190.474C465.297 190.28 467.571 192.01 468.059 194.499L494.62 330.031C495.111 332.535 494.202 335.107 492.249 336.747Z" fill="#61cdff"></path>
<path d="M547.974 344.778C547.974 344.778 532.368 332.054 527.71 332.388C523.052 332.722 506.701 349.532 508.437 354.826C510.174 360.119 516.519 360.119 516.519 360.119C519.687 360.119 522.628 358.409 524.132 355.621C525.914 352.319 528.418 348.591 530.176 349.71C533.19 351.628 530.653 360.119 532.744 360.119C534.834 360.119 547.974 356.011 547.974 356.011V344.778Z" fill="#B08566"></path>
<path d="M656.151 295.072L638.546 338.701C636.856 343.77 629.967 353.687 624.675 352.944L560.868 347.135" stroke="#CCCCCC" stroke-width="32" stroke-miterlimit="10" stroke-linecap="round"></path>
<path d="M646.705 271.536C647.257 266.868 647.543 262.732 647.134 261.098C646.276 257.646 638.269 258.228 634.174 258.759C632.734 258.943 631.774 259.127 631.774 259.127L633.479 256.175V256.165L633.49 256.155L648.064 230.97L673.341 227.477L665.609 243.368C663.393 254.603 675.577 272.036 675.577 272.036L643.805 290.542C643.805 290.542 645.694 280.125 646.705 271.536Z" fill="#C79775"></path>
<path d="M658.951 250.743C658.951 250.743 656.081 270.046 646.705 271.537C647.257 266.87 647.543 262.733 647.134 261.099C646.276 257.647 638.269 258.23 634.174 258.761L633.479 256.177V256.166L633.49 256.156L647.471 248.527L658.951 250.743Z" fill="#7D4921"></path>
<path d="M618.855 228.203C618.298 228.203 617.761 227.898 617.49 227.369C617.104 226.616 617.402 225.693 618.155 225.307L622.77 222.945C623.522 222.558 624.446 222.856 624.832 223.61C625.218 224.363 624.919 225.286 624.166 225.671L619.552 228.034C619.328 228.149 619.09 228.203 618.855 228.203Z" fill="#383838"></path>
<path d="M622.463 239.316C619.49 239.316 617.013 235.157 616.662 229.499C616.502 226.913 616.837 224.436 617.607 222.523C618.476 220.363 619.823 219.119 621.4 219.022C624.452 218.829 627.037 223.049 627.398 228.832C627.757 234.615 625.721 239.12 622.661 239.31C622.595 239.314 622.529 239.316 622.463 239.316ZM621.593 221.058C621.57 221.058 621.548 221.059 621.526 221.06C620.801 221.105 620.044 221.937 619.502 223.286C618.843 224.922 618.558 227.084 618.701 229.373C618.989 234.013 620.934 237.386 622.535 237.271C624.106 237.174 625.648 233.598 625.359 228.959C625.074 224.386 623.153 221.058 621.593 221.058Z" fill="#91826C"></path>
<path d="M629.138 201.294C629.138 201.294 626.326 215.239 631.854 217.226C637.382 219.212 664.973 207.476 664.973 207.476L636.932 198.903L629.138 201.294Z" fill="#91826C"></path>
<path d="M631.523 211.885C631.523 211.885 619.695 234.38 629.063 258.322C629.62 259.747 631.016 260.666 632.546 260.626C637.793 260.487 652.736 257.293 660.607 251.428L662.555 243.727L674.043 225.933C674.043 225.933 677.884 210.167 664.974 207.476C652.063 204.785 634.752 201.835 631.523 211.885Z" fill="#C79775"></path>
<path d="M627.637 249.144C631.806 250.016 633.483 246.06 633.483 246.06" stroke="#383838" stroke-miterlimit="10"></path>
<path d="M679.482 229.484C682.382 238.329 665 249.43 661.476 241.025C661.292 240.586 661.813 238.952 662.487 236.838C664.152 225.154 653.959 226.4 653.561 230.148C653.459 231.098 650.855 238.37 647.954 236.644C646.106 235.551 647.117 232.732 646.698 225.491C643.665 223.132 642.01 218.679 641.111 214.686C634.708 213.909 628.56 212.602 626.711 211.326C624.056 209.497 617.836 200.827 624.424 188.969C630.051 178.848 674.283 193.8 674.978 205.004C685.037 204.381 678.379 225.123 679.175 228.504C679.277 228.831 679.379 229.157 679.482 229.484Z" fill="#61cdff"></path>
<path d="M627.249 227.479C627.249 227.479 618.92 239.878 619.314 241.578C619.707 243.278 627.637 242.112 627.637 242.112" fill="#C79775"></path>
<path d="M654.111 233.523C654.111 233.523 658.273 226.433 660.493 231.824C662.263 236.121 658.487 243.879 655.906 242.804C653.382 241.752 657.07 236.619 657.07 236.619" stroke="#383838" stroke-miterlimit="10"></path>
<path d="M640.048 229.612C639.813 229.612 639.575 229.558 639.351 229.443L633.639 226.519C632.886 226.133 632.588 225.21 632.974 224.457C633.36 223.704 634.284 223.406 635.036 223.792L640.747 226.716C641.5 227.102 641.799 228.025 641.413 228.778C641.141 229.307 640.605 229.612 640.048 229.612Z" fill="#383838"></path>
<path d="M634.695 243.266C630.983 243.266 627.848 238.918 627.49 233.182C627.321 230.448 627.83 227.825 628.922 225.794C630.087 223.631 631.777 222.374 633.685 222.255C637.52 222.025 640.818 226.443 641.184 232.33C641.55 238.218 638.829 243.017 634.992 243.257C634.892 243.263 634.793 243.266 634.695 243.266ZM633.97 223.965C633.91 223.965 633.851 223.967 633.791 223.971C632.499 224.051 631.307 224.988 630.436 226.608C629.492 228.36 629.055 230.657 629.206 233.075C629.502 237.837 632.104 241.727 634.885 241.541C637.666 241.368 639.765 237.199 639.469 232.437C639.18 227.778 636.683 223.965 633.97 223.965Z" fill="#91826C"></path>
<path d="M633.915 234.067C634.771 234.067 635.466 233.373 635.466 232.516C635.466 231.66 634.771 230.966 633.915 230.966C633.059 230.966 632.364 231.66 632.364 232.516C632.364 233.373 633.059 234.067 633.915 234.067Z" fill="#383838"></path>
<path d="M622.03 232.063C622.761 232.063 623.353 231.47 623.353 230.739C623.353 230.008 622.761 229.416 622.03 229.416C621.299 229.416 620.706 230.008 620.706 230.739C620.706 231.47 621.299 232.063 622.03 232.063Z" fill="#383838"></path>
<path d="M656.151 233.872C656.151 233.872 656.918 232.86 657.955 233.308" stroke="#383838" stroke-miterlimit="10"></path>
<path d="M469.662 359.064H464.556L454.523 291.92L472.068 279.459V282.491L459.63 294.035L469.662 359.064Z" fill="#3487ff"></path>
<path d="M601.845 483.148L614.083 520.581C614.083 520.581 555.909 521.999 554.978 519.827C554.047 517.655 581.796 506.217 598.562 507.428L591.379 491.425L601.845 483.148Z" fill="#61cdff"></path>
<path fill-rule="evenodd" clip-rule="evenodd" d="M536.519 394.289C529.38 377.965 544.377 360.663 561.55 365.413L663.961 393.735C672.115 395.99 676.898 404.429 674.643 412.584C672.387 420.738 663.949 425.521 655.794 423.266L573.197 400.423L608.815 476.664C612.396 484.329 609.085 493.447 601.419 497.028C593.754 500.609 584.637 497.298 581.056 489.632L536.595 394.463L536.519 394.289Z" fill="#3487ff"></path>
<path fill-rule="evenodd" clip-rule="evenodd" d="M536.519 394.289C529.38 377.965 544.377 360.663 561.55 365.413L663.961 393.735C672.115 395.99 676.898 404.429 674.643 412.584C672.387 420.738 663.949 425.521 655.794 423.266L573.197 400.423L608.815 476.664C612.396 484.329 609.085 493.447 601.419 497.028C593.754 500.609 584.637 497.298 581.056 489.632L536.595 394.463L536.519 394.289Z" fill="black" fill-opacity="0.15"></path>
<path d="M496.455 500.108L470.115 518.644C470.115 518.644 466.183 514.038 460.628 507.44C458.462 504.877 456.052 502.007 453.53 498.984C440.263 483.123 423.963 463.239 424.484 461.932C425.24 460.042 454.929 479.345 468.726 492.203C471.014 494.327 472.852 496.278 474.068 497.922L486.119 488.638L490.306 485.411L491.46 488.179L493.483 492.999L496.455 500.108Z" fill="#61cdff"></path>
<path opacity="0.2" d="M494.084 494.433C494.084 494.433 471.392 502.764 467.278 505.264C463.164 507.765 461.665 508.676 461.665 508.676C459.5 506.112 457.255 503.44 454.733 500.417C458.995 496.696 463.681 494.009 468.727 492.203C471.014 494.327 472.853 496.278 474.068 497.922L486.119 488.638L491.461 488.179L494.084 494.433Z" fill="black"></path>
<path d="M665.243 379.957L697.633 376.669C697.633 376.669 707.569 317.539 697.633 297.25C687.019 281.806 679.803 274.423 675.519 269.194C674.575 268.041 672.985 267.655 671.622 268.258L642.913 280.957C642.913 280.957 628.888 296.932 630.881 316.623C632.873 336.313 630.89 387.03 630.89 387.03L665.243 379.957Z" fill="#E6E6E6"></path>
<path d="M631.257 382.817C631.258 382.817 631.258 382.817 631.258 382.816L631.257 382.817ZM631.39 382.758C631.435 382.741 631.492 382.722 631.563 382.701C631.929 382.594 632.515 382.479 633.311 382.359C634.894 382.12 637.222 381.874 640.078 381.617C643.995 381.263 648.88 380.891 654.154 380.489C656.567 380.305 659.061 380.115 661.581 379.918C669.603 379.289 677.882 378.589 684.599 377.784C687.957 377.382 690.933 376.953 693.294 376.492C695.281 376.105 696.886 375.686 697.917 375.219C697.92 375.235 697.923 375.251 697.926 375.267C697.984 375.577 698.025 376.023 698.042 376.6C698.077 377.75 698.016 379.357 697.85 381.294C697.519 385.165 696.773 390.315 695.559 395.697C694.344 401.081 692.665 406.68 690.474 411.457C688.286 416.225 685.616 420.11 682.446 422.18C678.1 423.837 672.752 423.633 667.119 422.342C661.473 421.049 655.599 418.677 650.267 416.081C644.937 413.487 640.164 410.675 636.722 408.512C635.002 407.43 633.615 406.512 632.659 405.864C632.181 405.54 631.811 405.283 631.561 405.108C631.496 405.063 631.439 405.023 631.39 404.989V382.758ZM697.819 374.902C697.819 374.902 697.82 374.903 697.821 374.905C697.82 374.903 697.819 374.902 697.819 374.902Z" fill="#3487ff" stroke="#005B9D"></path>
<path d="M675.441 521.708H631.526C629.833 521.708 628.462 520.336 628.462 518.644C628.462 516.952 629.833 515.58 631.526 515.58H677.241L675.441 521.708Z" fill="#3487ff"></path>
<path fill-rule="evenodd" clip-rule="evenodd" d="M559.458 400.752C565.229 394.617 573.278 391.138 581.701 391.138H672.448C682.037 391.138 689.81 398.911 689.81 408.5C689.81 418.089 682.037 425.862 672.448 425.862H583.511L512.345 501.525C505.776 508.509 494.788 508.846 487.803 502.276C480.819 495.707 480.482 484.719 487.052 477.734L559.458 400.752L559.458 400.752Z" fill="#3487ff"></path>
<path fill-rule="evenodd" clip-rule="evenodd" d="M559.458 400.752C565.229 394.617 573.278 391.138 581.701 391.138H672.448C682.037 391.138 689.81 398.911 689.81 408.5C689.81 418.089 682.037 425.862 672.448 425.862H583.511L512.345 501.525C505.776 508.509 494.788 508.846 487.803 502.276C480.819 495.707 480.482 484.719 487.052 477.734L559.458 400.752L559.458 400.752Z" fill="#3487ff"></path>
<path d="M689.915 426.48H597.998C596.306 426.48 594.935 427.852 594.935 429.544C594.935 431.236 596.306 432.608 597.998 432.608H689.915V426.48Z" fill="#3487ff"></path>
<path d="M675.951 521.778L725.236 284.891C725.578 283.246 724.532 281.633 722.891 281.274C721.226 280.91 719.584 281.975 719.237 283.643L669.965 520.469L675.951 521.778Z" fill="#3487ff"></path>
<path d="M700.078 382.572H619.549C616.171 382.572 613.434 385.31 613.434 388.688C613.434 392.065 616.171 394.803 619.549 394.803H700.078V382.572Z" fill="#3487ff"></path>
<path fill-rule="evenodd" clip-rule="evenodd" d="M675.951 521.778L677.239 515.585L677.241 515.58H677.24L725.236 284.891C725.578 283.247 724.532 281.633 722.891 281.274C721.226 280.91 719.584 281.975 719.237 283.643L698.655 382.573H619.549C616.171 382.573 613.433 385.311 613.433 388.688C613.433 392.065 616.171 394.803 619.549 394.803H696.11L689.519 426.48H597.998C596.306 426.48 594.934 427.852 594.934 429.544C594.934 431.236 596.306 432.608 597.998 432.608H688.244L670.982 515.58H631.525C629.833 515.58 628.462 516.952 628.462 518.644C628.462 520.336 629.833 521.708 631.525 521.708H675.441L675.453 521.669L675.951 521.778Z" fill="white" fill-opacity="0.21"></path>
<path d="M505.318 363.407H444.895V355.017C444.895 353.757 446.026 352.8 447.268 353.007L503.617 361.403C504.599 361.567 505.318 362.417 505.318 363.412V363.407Z" fill="#3487ff"></path>
<path d="M484.998 342.077H484.998C482.453 342.576 479.986 340.917 479.487 338.373L451.693 196.547C451.194 194.002 452.852 191.535 455.397 191.036V191.036C457.942 190.537 460.409 192.196 460.908 194.741L488.703 336.566C489.202 339.111 487.543 341.579 484.998 342.077Z" fill="#3487ff"></path>
<path d="M552.167 360.12H509.026V363.027H552.167V360.12Z" fill="#3487ff"></path>
<path d="M560.868 341.335C560.868 341.335 545.262 328.611 540.604 328.945C535.946 329.279 514.928 352.901 516.665 358.195C518.401 363.489 525.319 360.12 525.319 360.12C528.487 360.12 534.245 358.616 535.749 355.828C537.531 352.526 545.884 360.12 547.974 360.12C552.168 360.12 560.868 352.569 560.868 352.569V341.335Z" fill="#C79775"></path>
<path d="M672.448 303.773L656.296 352.228C654.606 357.297 647.717 367.214 642.426 366.471L569.774 349.243" stroke="#F2F2F2" stroke-width="32" stroke-miterlimit="10" stroke-linecap="round"></path>
<path d="M548.187 522.229C548.187 523.638 547.043 524.772 545.634 524.772C500.942 524.639 468.005 524.241 461.704 523.761C458.977 523.546 456.842 522.74 455.178 521.289C451.235 517.848 450.939 511.822 451.338 509.126C452.42 501.732 461.234 498.627 470.579 495.338C475.164 493.714 479.903 492.05 484.162 489.813C504.394 479.202 520.204 453.373 516.68 436.665C513.861 423.286 498.409 415.32 483.468 407.619C468.301 399.796 444.485 392.412 446.19 379.533C446.65 376.112 447.886 372.762 449.908 369.535H472.713C469.69 372.415 466.606 375.785 465.646 379.962C464.104 386.672 471.702 395.803 485.806 403.084C501.065 410.948 518.355 419.864 521.674 435.613C523.686 445.152 520.755 456.866 513.412 468.601C506.518 479.61 496.724 488.986 486.532 494.337C481.946 496.737 477.033 498.474 472.274 500.148C464.431 502.916 457.026 505.52 456.393 509.861C456.148 511.515 456.352 515.539 458.528 517.439C459.345 518.144 460.509 518.542 462.102 518.665C468.281 519.145 501.075 519.533 545.644 519.665C547.053 519.665 548.197 520.82 548.187 522.229Z" fill="#61cdff"></path>
<path opacity="0.71" d="M589.652 363.407H423.181V369.535H589.652V363.407Z" fill="#9fa9c3"></path>
<path fill-rule="evenodd" clip-rule="evenodd" d="M713.783 238.879L706.302 269.234L694.427 266.308L708.104 210.813C708.912 207.534 712.225 205.53 715.504 206.339V206.339C718.784 207.147 720.787 210.46 719.979 213.739L714.275 236.884L724.349 238.254L711.748 295.292C711.626 295.843 711.081 296.191 710.53 296.069C709.979 295.947 709.631 295.402 709.753 294.851L721.876 239.979L713.783 238.879Z" fill="#3487ff"></path>
<path fill-rule="evenodd" clip-rule="evenodd" d="M713.783 238.879L706.302 269.234L694.427 266.308L708.104 210.813C708.912 207.534 712.225 205.53 715.504 206.339V206.339C718.784 207.147 720.787 210.46 719.979 213.739L714.275 236.884L724.349 238.254L711.748 295.292C711.626 295.843 711.081 296.191 710.53 296.069C709.979 295.947 709.631 295.402 709.753 294.851L721.876 239.979L713.783 238.879Z" fill="white" fill-opacity="0.21"></path>
<path d="M670.742 442.607H680.911L668.549 498.563" stroke="#005B9D" stroke-width="0.812065" stroke-miterlimit="10" stroke-linecap="round"></path>
<path d="M734.574 521.036H790" stroke="#005B9D" stroke-width="0.812065" stroke-miterlimit="10" stroke-linecap="round"></path>
<path d="M628.462 521.036H715.002" stroke="#005B9D" stroke-width="0.812065" stroke-miterlimit="10" stroke-linecap="round"></path>
<path fill-rule="evenodd" clip-rule="evenodd" d="M362.043 193.126H227.925V192.105H362.043V193.126Z" fill="#9fa9c3"></path>
<path d="M478.921 75.228H258.082V87.0035H478.921V75.228Z" fill="#61cdff"></path>
<path d="M623.468 117.789H734.574" stroke="#78D2EE" stroke-miterlimit="10"></path>
<path d="M623.468 109.735H734.574" stroke="#78D2EE" stroke-miterlimit="10"></path>
<path d="M136.281 184.561V164.254H157.633" stroke="#005B9D" stroke-miterlimit="10"></path>
<path d="M319.569 377.532V438.725" stroke="#005B9D" stroke-miterlimit="10"></path>
<path d="M368.501 394.816H162.82V422.185H368.501V394.816Z" fill="#61cdff"></path>
<path d="M436.968 522.219C436.968 522.219 419.096 502.683 423.181 502.683C427.266 502.683 438.5 511.875 438.5 511.875C438.5 511.875 443.546 492.34 453.759 483.148C453.759 483.148 455.906 500.299 453.864 509.491C453.864 509.491 460.078 495.154 468.248 498.218C468.248 498.218 461.902 521.214 460.458 522.219" stroke="#005B9D" stroke-width="0.812065" stroke-miterlimit="10" stroke-linecap="round"></path>
</svg>