<svg width="24" height="24" viewBox="0 0 24 24" fill="none" xmlns="http://www.w3.org/2000/svg">
<path d="M20.6043 18.4616C20.0848 18.0528 20.2869 17.1498 19.7477 16.7043C20.2699 13.6198 18.8061 10.9009 17.0607 9.15833C15.5959 7.69625 16.0681 6.27358 16.0681 5.0425C16.0681 3.07533 15.2361 1 12.7153 1C10.0208 1 9.28228 3.18167 9.25583 4.4265C9.19161 7.41667 9.87822 8.194 8.07528 10.3702C5.95406 12.9304 5.64144 15.4842 6.12028 16.8391C5.89644 17.0921 5.59422 17.3726 5.02944 17.6045C3.46922 18.2645 4.61294 19.3691 4.18133 20.1528C4.05856 20.3756 4 20.6084 4 20.8312C4 21.5187 4.56289 22.1136 5.58572 22.0247C6.96556 21.9055 8.23867 22.8543 9.06222 22.8543C9.78944 22.8543 10.3863 22.4527 10.664 21.9C11.9645 21.5892 13.5701 21.6287 14.8696 21.9541C15.1029 22.5875 15.7357 23 16.4393 23C17.9797 23 18.2762 21.3051 20.0433 20.7313C20.6798 20.525 21 19.9255 21 19.3673C21 19.0098 20.8687 18.6697 20.6043 18.4616ZM11.9654 8.86867C11.6642 8.86867 11.4148 8.63217 11.021 8.348C10.5223 7.98867 10.0152 7.7815 10.0208 7.40383C10.0208 7.14442 10.3788 7.06467 10.8416 6.77958C11.3383 6.47433 11.5319 6.1645 12.0212 6.1645C12.5217 6.1645 12.6728 6.41017 13.3528 6.69525C14.0215 6.97667 14.4871 7.08667 14.4871 7.40383C14.4871 7.72925 13.7873 7.96208 13.3934 8.1995C12.8145 8.546 12.517 8.86867 11.9654 8.86867V8.86867ZM13.5379 4.08825C14.3709 4.2175 14.4644 5.63833 14.0659 6.33775L13.7306 6.20483C13.9044 5.70708 13.9016 4.88758 13.3198 4.83533C12.9505 4.80233 12.7125 5.27533 12.6615 5.6805C12.517 5.62183 12.3593 5.57967 12.1676 5.56408C12.2261 4.718 12.789 3.97183 13.5379 4.08825V4.08825ZM10.324 4.39167C10.9624 4.23767 11.3393 4.95817 11.3421 5.70708L11.0493 5.88125C11.0097 5.56683 10.8652 5.059 10.5025 5.16717C10.1143 5.2845 10.1776 6.15992 10.3939 6.33958L10.1049 6.49542C9.70822 5.84733 9.70917 4.54017 10.324 4.39167V4.39167ZM8.3265 22.0311C6.47256 21.2125 5.84261 21.3986 5.48844 21.3986C4.75461 21.3986 4.51472 20.8678 4.7905 20.3655C5.02472 19.9392 4.952 19.4928 4.89439 19.1344C4.80561 18.5853 4.78956 18.4066 5.34583 18.1701C6.11556 17.8529 6.45744 17.445 6.71244 17.1398C7.42833 16.2808 8.15083 17.632 8.743 18.8356C9.12739 19.6157 9.88389 20.0107 10.1172 20.8752C10.3316 21.6736 9.44661 22.5261 8.3265 22.0311V22.0311ZM14.9253 20.3133C13.6182 20.9302 11.9532 21.2134 10.7074 20.5873C10.5233 20.0713 10.2286 19.7376 9.91128 19.4021C10.4203 19.2719 10.7981 18.6559 10.3457 18.0372C9.86311 17.3763 8.87711 16.9152 7.88072 16.1672C6.94856 15.4677 6.65389 13.7435 7.92322 11.8167C7.30461 13.5235 7.66633 15.0965 7.97706 15.5466C8.04128 14.6409 8.11494 13.1284 9.38994 11.3162C10.0331 10.4013 10.0426 9.19317 10.0567 8.43783L10.6423 8.8265C11.0729 9.13542 11.4337 9.4755 11.9513 9.4755C12.7163 9.4755 13.1394 9.04833 13.7287 8.69358C13.9592 8.55608 14.3077 8.41675 14.6004 8.22333C15.0916 10.493 17.1259 13.2228 17.2402 14.7775C17.7133 13.8315 17.1061 11.5563 17.1061 11.5563C17.9013 12.7343 17.9646 13.716 17.9995 14.9205C18.5558 15.1414 19.1527 15.7171 19.2074 16.4752L18.9761 16.4495C18.8571 15.6071 16.5139 14.3696 16.3033 15.9554C15.1794 16.1213 15.5883 17.8493 15.3617 18.9694C15.2578 19.4818 15.0651 19.887 14.9253 20.3133V20.3133ZM19.5021 20.2757C18.5718 20.624 17.9438 21.3638 17.5122 21.823C16.6811 22.7085 15.5817 22.2841 15.4646 21.4554C15.3409 20.5699 15.8046 20.0868 16.0048 19.0959C16.1871 18.1912 15.9831 16.7988 16.4119 16.6503C16.6905 18.2572 18.3631 17.5816 18.7447 17.1434C19.3652 17.1434 19.4171 17.3469 19.5559 17.9107C19.6428 18.2636 19.7628 18.5606 20.1018 18.9098C20.4966 19.3196 20.3757 19.9484 19.5021 20.2757ZM11.9466 8.3535C11.3317 8.3535 10.8718 7.95658 10.4978 7.64858C10.3061 7.49183 10.545 7.20217 10.7367 7.35983C11.1022 7.6605 11.4706 7.97858 11.9466 7.97858C12.5198 7.97858 13.0251 7.50283 13.7098 7.24067C13.9431 7.15175 14.0763 7.50192 13.8449 7.59083C13.18 7.84475 12.6464 8.3535 11.9466 8.3535V8.3535Z" fill="white"/>
</svg>
