<svg width="24" height="24" viewBox="0 0 24 24" fill="none" xmlns="http://www.w3.org/2000/svg">
<path d="M22.0925 17.4878C21.5408 18.7102 21.2776 19.2583 20.5672 20.3364C19.5793 21.8472 18.1802 23.7294 16.4495 23.7402C14.9134 23.7547 14.5168 22.7378 12.429 22.7559C10.3413 22.7631 9.90498 23.7583 8.36532 23.7438C6.63816 23.7294 5.31484 22.0311 4.32325 20.5275C1.55042 16.3051 1.25835 11.3544 2.97109 8.72221C4.18263 6.85442 6.1009 5.75826 7.90378 5.75826C9.73551 5.75826 10.8894 6.76427 12.4074 6.76427C13.8785 6.76427 14.7728 5.75466 16.8966 5.75466C18.4975 5.75466 20.1958 6.62725 21.4074 8.13807C17.441 10.3087 18.0865 15.9734 22.0925 17.4878ZM15.2848 4.06716C16.0564 3.07918 16.6406 1.68014 16.4314 0.255859C15.1694 0.342398 13.6983 1.14648 12.8365 2.18495C12.0576 3.13326 11.4122 4.54312 11.6646 5.9061C13.0384 5.94937 14.4591 5.13086 15.2848 4.06716Z" fill="white"/>
</svg>
