<svg width="21" height="17" viewBox="0 0 21 17" fill="none" xmlns="http://www.w3.org/2000/svg">
<path fill-rule="evenodd" clip-rule="evenodd" d="M13.2222 1.89834L19.3974 8.37283L13.2222 14.8473V1.89834ZM20.6474 7.5101C21.1081 7.99304 21.1081 8.75263 20.6474 9.23557L13.8767 16.3344C13.0982 17.1506 11.7222 16.5996 11.7222 15.4717V1.274C11.7222 0.146055 13.0982 -0.404947 13.8767 0.411267L20.6474 7.5101ZM7.77465 14.8512L1.59939 8.37671L7.77465 1.90222V14.8512ZM0.349367 9.23945C-0.111248 8.75651 -0.111247 7.99692 0.349367 7.51398L7.12011 0.415146C7.8986 -0.401068 9.27465 0.149939 9.27465 1.27788V15.4756C9.27465 16.6035 7.8986 17.1545 7.12011 16.3383L0.349367 9.23945Z" fill="url(#paint0_linear)"/>
<defs>
<linearGradient id="paint0_linear" x1="4.05688" y1="-3.94832" x2="11.915" y2="21.2254" gradientUnits="userSpaceOnUse">
<stop stop-color="#307CEE"/>
<stop offset="1" stop-color="#61AFFE"/>
</linearGradient>
</defs>
</svg>
