<svg width="298" height="81" viewBox="0 0 298 81" fill="none" xmlns="http://www.w3.org/2000/svg">
<path d="M31.5542 16.1985L18.5579 8.63348L5.56155 1.06898C4.9979 0.74101 4.35851 0.568386 3.70771 0.568436C3.05691 0.568486 2.41759 0.741205 1.85398 1.06926C1.29038 1.39731 0.822337 1.86914 0.496899 2.43732C0.17146 3.00549 0.000117454 3.65 2.29001e-05 4.30611V34.5661C-2.92443e-05 35.2222 0.171259 35.8668 0.496663 36.4351C0.822067 37.0034 1.29009 37.4753 1.85375 37.8033C2.4174 38.1314 3.0568 38.3041 3.70765 38.3041C4.35851 38.3041 4.99792 38.1313 5.56155 37.8032L18.5579 30.2387L31.5542 22.6737C32.1182 22.3457 32.5864 21.8739 32.912 21.3055C33.2376 20.7372 33.4091 20.0924 33.4091 19.4361C33.4091 18.7798 33.2376 18.135 32.912 17.5667C32.5864 16.9983 32.1182 16.5264 31.5542 16.1985V16.1985Z" fill="#F02D5E"/>
<path d="M31.5542 58.3262L18.5578 50.7617L5.561 43.1972C4.99744 42.8691 4.35813 42.6963 3.70734 42.6962C3.05654 42.6962 2.41717 42.8688 1.85355 43.1969C1.28993 43.5249 0.82196 43.9968 0.496581 44.565C0.171203 45.1332 -6.5241e-05 45.7778 1.86429e-08 46.4339V76.6938C-3.21475e-06 77.3499 0.171261 77.9945 0.49664 78.5626C0.822019 79.1308 1.29003 79.6027 1.85361 79.9307C2.41719 80.2588 3.05649 80.4315 3.70728 80.4316C4.35806 80.4316 4.99738 80.259 5.561 79.931L18.5578 72.3665L31.5542 64.802C32.1181 64.4739 32.5864 64.002 32.912 63.4336C33.2376 62.8652 33.409 62.2204 33.409 61.5641C33.409 60.9077 33.2376 60.2629 32.912 59.6946C32.5864 59.1262 32.1181 58.6543 31.5542 58.3262Z" fill="#F02D5E"/>
<path d="M68.6197 37.2627L55.6234 29.6978L42.627 22.1333C42.0634 21.8051 41.424 21.6324 40.7732 21.6324C40.1223 21.6323 39.4829 21.805 38.9193 22.1331C38.3556 22.4612 37.8875 22.9331 37.5621 23.5014C37.2367 24.0696 37.0655 24.7142 37.0655 25.3704V55.6303C37.0656 56.2864 37.237 56.931 37.5624 57.4991C37.8879 58.0673 38.3559 58.5391 38.9195 58.8672C39.4831 59.1953 40.1225 59.368 40.7733 59.368C41.424 59.3681 42.0634 59.1955 42.627 58.8675L55.6234 51.3025L68.6197 43.738C69.1836 43.41 69.652 42.9381 69.9776 42.3698C70.3032 41.8015 70.4746 41.1567 70.4746 40.5004C70.4746 39.844 70.3032 39.1993 69.9776 38.6309C69.652 38.0626 69.1836 37.5907 68.6197 37.2627V37.2627Z" fill="#F02D5E"/>
<path d="M110.146 59.1439V15.2888H128.845C138.454 15.2888 144.492 20.0674 144.492 28.3802C144.492 35.6455 140.077 40.0309 132.415 40.4236V40.9473C135.597 41.9949 137.48 43.9584 139.103 46.969L145.595 59.1439H137.48L131.31 47.8199C129.297 44.024 127.479 42.2565 122.285 42.2565H117.159V59.1444L110.146 59.1439ZM117.158 36.4304H129.689C135.339 36.4304 137.48 34.3359 137.48 29.0341C137.48 23.8633 135.337 21.6377 129.689 21.6377H117.159L117.158 36.4304Z" fill="#081120"/>
<path d="M147.348 42.8446C147.348 32.7653 153.322 25.9567 162.93 25.9567C171.631 25.9567 177.731 31.1934 177.731 40.0956C177.732 41.5879 177.601 43.0773 177.342 44.5465H153.904C154.164 50.5031 156.304 53.5142 163.058 53.5142C168.447 53.5142 170.524 51.6812 170.524 48.7357V48.2124H177.472V48.8012C177.472 55.4772 171.693 59.798 162.993 59.798C152.347 59.7985 147.348 52.9889 147.348 42.8446ZM153.971 39.8345H171.046C171.306 34.2701 168.319 31.9143 162.801 31.9143C156.697 31.9168 154.362 34.7944 153.971 39.8345Z" fill="#081120"/>
<path d="M183.056 70.4678V26.6122H189.419V31.9796H189.743C191.237 28.1831 194.938 25.9574 200.521 25.9574C209.611 25.9574 214.61 32.5694 214.61 42.9103C214.61 53.1872 209.741 59.7982 200.976 59.7982C195.197 59.7982 191.625 57.1138 190.198 54.1017H190.003V70.4658L183.056 70.4678ZM198.833 53.7765C205.001 53.7765 207.598 50.896 207.598 42.9103C207.598 34.8601 205.066 31.9796 198.833 31.9796C193.12 31.9796 190.003 34.5319 190.003 39.9657V45.7908C190.003 51.2247 193.12 53.7765 198.833 53.7765Z" fill="#081120"/>
<path d="M220.192 59.1439V15.2888H227.204V59.1439H220.192Z" fill="#081120"/>
<path d="M232.333 51.0924C232.333 45.7251 236.229 42.9101 243.111 41.9291L254.409 40.2272V38.4593C254.409 33.6162 252.201 32.176 247.137 32.176C242.008 32.176 239.995 33.8123 239.995 38.1326V39.1141H233.244V38.4588C233.244 31.1934 238.894 25.9567 247.528 25.9567C256.552 25.9567 261.097 31.4556 261.097 39.3753V59.1431H254.605V54.038H254.28C252.397 57.1131 248.696 59.7985 242.593 59.7985C236.813 59.7985 232.333 56.7874 232.333 51.0924ZM244.864 54.1675C249.409 54.1675 254.409 52.3356 254.409 45.7896V45.2008L244.15 46.7711C240.45 47.2954 239.149 48.1464 239.149 50.5681C239.151 53.1215 240.774 54.1685 244.864 54.1685V54.1675Z" fill="#081120"/>
<path d="M266.613 69.682V63.9225H271.028C273.819 63.9225 274.793 63.4638 275.832 61.042L277.066 58.2925L263.365 26.6124H271.091L277.584 42.3872L280.505 49.4569H281.025L283.687 42.3872L289.595 26.6124H297.323L282.065 63.006C279.665 68.7656 276.547 70.2713 271.483 70.2713C269.842 70.2774 268.206 70.0795 266.613 69.682V69.682Z" fill="#081120"/>
</svg>
