<svg width="124" height="14" viewBox="0 0 124 14" fill="none" xmlns="http://www.w3.org/2000/svg">
<path fill-rule="evenodd" clip-rule="evenodd" d="M19.9634 0H16.2462L13.915 7.42492L11.9156 13.9274H15.6669L19.9634 0" fill="#FFFFFE"/>
<path fill-rule="evenodd" clip-rule="evenodd" d="M11.6212 0.0666504H8.56394L6.50556 7.65996L4.12783 0.0666504H0.411011L4.68745 13.9944H8.04442L10.0824 6.84077L11.3999 11.4203L13.1597 5.72947L11.6212 0.0666504" fill="#FFFFFE"/>
<path fill-rule="evenodd" clip-rule="evenodd" d="M24.9095 8.51584H31.5587V5.39837H24.9095V3.48037H31.5409V0.0632324H21.1128V13.991H31.5432V10.634H24.9095V8.51584" fill="#FFFFFE"/>
<path fill-rule="evenodd" clip-rule="evenodd" d="M39.6359 10.8731H37.2778V8.21497H39.6158C40.4755 8.21497 41.0548 8.77497 41.0548 9.51433C41.0548 10.2934 40.4551 10.8731 39.6359 10.8731ZM37.2778 3.13952H39.1164C39.7759 3.13952 40.2954 3.65903 40.2954 4.35828C40.2954 5.09763 39.8156 5.61714 39.1164 5.61714H37.2778V3.13952ZM41.9139 6.41735C43.0331 5.958 43.6926 4.95908 43.6926 3.61999C43.6926 2.60064 43.3328 1.74172 42.6135 1.08259C41.8942 0.403017 41.0148 0.0632324 39.9561 0.0632324H33.4813V13.991H40.4757C41.694 13.991 42.6933 13.6115 43.4925 12.8316C44.312 12.0525 44.7116 11.0536 44.7116 9.8746C44.7116 8.09622 43.7324 6.79724 41.9139 6.41735V6.41735Z" fill="#FFFFFE"/>
<path fill-rule="evenodd" clip-rule="evenodd" d="M54.6044 6.77081H57.2758C58.6414 6.77081 59.5856 5.82667 59.5856 4.48098C59.5856 3.19503 58.6818 2.27135 57.4766 2.27135H54.6044V6.77081ZM52.0935 14V0H57.5371C58.802 0 59.8667 0.422013 60.7506 1.2854C61.6344 2.12942 62.0764 3.17367 62.0764 4.43916C62.0764 6.26715 61.052 7.77378 59.5255 8.41648L62.9198 14H60.088L57.0952 9.01881H54.6046V14H52.0935V14Z" fill="#FFFFFE"/>
<path fill-rule="evenodd" clip-rule="evenodd" d="M65.3366 14V0H73.9044V2.26991H67.7489V5.60454H73.5186V7.87389H67.7489V11.7306H74.0393V14H65.3366" fill="#FFFFFE"/>
<path fill-rule="evenodd" clip-rule="evenodd" d="M79.5511 6.83109H82.2629C83.3879 6.83109 84.4526 6.00698 84.4526 4.56118C84.4526 3.09492 83.3879 2.27135 82.2629 2.27135H79.5511V6.83109ZM77.0402 14V0H82.3831C83.5684 0 84.6331 0.422013 85.5574 1.26549C86.481 2.10896 86.9429 3.21405 86.9429 4.55973C86.9429 5.86504 86.481 6.94967 85.5574 7.81361C84.6536 8.67699 83.5889 9.099 82.3831 9.099H79.5513V14H77.0402V14Z" fill="#FFFFFE"/>
<path fill-rule="evenodd" clip-rule="evenodd" d="M89.5529 14V0H92.0239V11.7306H97.4988V14H89.5529" fill="#FFFFFE"/>
<path fill-rule="evenodd" clip-rule="evenodd" d="M103.274 9.13811H107.934L105.604 3.43346L103.274 9.13811ZM98.6939 14L104.539 0H106.668L112.513 14H109.862L108.717 11.2085H102.49L101.345 14H98.6939V14Z" fill="#FFFFFE"/>
<path fill-rule="evenodd" clip-rule="evenodd" d="M116.505 14V8.57688L111.499 0H114.192L117.762 6.16648L121.313 0H123.985L118.979 8.57688V14H116.505" fill="#FFFFFE"/>
</svg>