<svg width="24" height="24" viewBox="0 0 24 24" fill="none" xmlns="http://www.w3.org/2000/svg">
<circle cx="12" cy="12" r="12" fill="#01ACFD"/>
<path d="M17.0167 11.1099L13.5155 9.10513L10.0143 7.10033C9.86246 7.01346 9.69024 6.96774 9.51494 6.96777C9.33964 6.96781 9.16744 7.01359 9.01562 7.10051C8.86381 7.18744 8.73773 7.31246 8.65005 7.46301C8.56237 7.61356 8.51618 7.78434 8.51611 7.95819V15.9773C8.51617 16.1512 8.56236 16.322 8.65004 16.4725C8.73771 16.6231 8.86379 16.7481 9.0156 16.835C9.16742 16.922 9.33963 16.9677 9.51493 16.9678C9.69024 16.9678 9.86246 16.9221 10.0143 16.8352L13.5155 14.8304L17.0167 12.8257C17.1685 12.7387 17.2946 12.6137 17.3823 12.4631C17.47 12.3125 17.5161 12.1417 17.5161 11.9678C17.5161 11.7939 17.47 11.6231 17.3823 11.4725C17.2946 11.3219 17.1685 11.1969 17.0167 11.1099V11.1099Z" fill="white"/>
</svg>
