<svg width="24" height="24" viewBox="0 0 24 24" fill="none" xmlns="http://www.w3.org/2000/svg">
	<circle cx="12" cy="12" r="11.2258" fill="white" stroke="black" stroke-width="1.54839"/>
	<path d="M17.0167 11.1099L13.5156 9.10507L10.0143 7.10027C9.8625 7.0134 9.69027 6.96768 9.51497 6.96771C9.33967 6.96775 9.16747 7.01353 9.01565 7.10045C8.86384 7.18738 8.73776 7.3124 8.65008 7.46295C8.5624 7.6135 8.51621 7.78427 8.51614 7.95813V15.9773C8.5162 16.1511 8.56239 16.3219 8.65007 16.4725C8.73774 16.623 8.86382 16.748 9.01563 16.835C9.16745 16.9219 9.33966 16.9677 9.51496 16.9677C9.69027 16.9677 9.86249 16.922 10.0143 16.8352L13.5156 14.8304L17.0167 12.8256C17.1686 12.7387 17.2947 12.6136 17.3823 12.463C17.47 12.3124 17.5161 12.1416 17.5161 11.9677C17.5161 11.7938 17.47 11.623 17.3823 11.4724C17.2947 11.3218 17.1686 11.1968 17.0167 11.1099V11.1099Z" fill="black"/>
	</svg>
	