<svg width="24" height="24" viewBox="0 0 24 24" fill="none" xmlns="http://www.w3.org/2000/svg">
<circle cx="12" cy="12" r="12" fill="#01ACFD"/>
<path d="M16.9425 7.05625C15.6729 5.7875 13.9306 5 11.9956 5C8.1257 5 5 8.1325 5 12C5 15.8675 8.1257 19 11.9956 19C14.8467 19 17.2841 17.2994 18.3756 14.8589C18.6188 14.3152 18.1831 13.75 17.5875 13.75V13.75C17.201 13.75 16.8635 13.9978 16.6911 14.3437C15.8322 16.0665 14.0522 17.25 11.9956 17.25C9.09756 17.25 6.74234 14.8963 6.74234 12C6.74234 9.10375 9.09756 6.75 11.9956 6.75C13.449 6.75 14.7448 7.35375 15.6904 8.3075L13.2128 10.7835C13.0868 10.9095 13.176 11.125 13.3542 11.125H18.8C18.9105 11.125 19 11.0355 19 10.925V5.48263C19 5.30448 18.7846 5.21523 18.6586 5.34116L16.9425 7.05625Z" fill="white"/>
</svg>
