<svg width="184" height="207" viewBox="0 0 184 207" fill="none" xmlns="http://www.w3.org/2000/svg">
<path d="M173.724 85.5121L102.172 44.1243L30.6183 2.73651C27.5151 0.943097 23.9954 -0.000675924 20.4129 3.63204e-07C16.8303 0.000676651 13.3109 0.945773 10.2083 2.74036C7.10574 4.53495 4.52914 7.11584 2.73727 10.2238C0.945405 13.3318 0.00135087 16.8574 0 20.4466V185.996C0.0012047 189.585 0.945159 193.111 2.73697 196.219C4.52878 199.327 7.10536 201.908 10.208 203.703C13.3106 205.498 16.83 206.443 20.4126 206.444C23.9953 206.444 27.515 205.501 30.6183 203.707L102.172 162.319L173.724 120.932C176.827 119.138 179.404 116.556 181.196 113.447C182.988 110.339 183.931 106.812 183.931 103.222C183.931 99.6325 182.988 96.106 181.196 92.9972C179.404 89.8884 176.827 87.3069 173.724 85.5121V85.5121Z" fill="#38383D"/>
</svg>
