<svg width="24" height="24" viewBox="0 0 24 24" fill="none" xmlns="http://www.w3.org/2000/svg">
<path d="M19 9.00004L20.25 6.25003L23 5.00002L20.25 3.75001L19 1L17.75 3.75001L15 5.00002L17.75 6.25003L19 9.00004Z" fill="white"/>
<path d="M19 15L17.75 17.75L15 19L17.75 20.25L19 23L20.25 20.25L23 19L20.25 17.75L19 15Z" fill="white"/>
<path d="M11.5001 9.50003L9.00004 4L6.50003 9.50003L1 12L6.50003 14.5001L9.00004 20.0001L11.5001 14.5001L17.0001 12L11.5001 9.50003ZM9.99005 12.99L9.00004 15.1701L8.01004 12.99L5.83003 12L8.01004 11.01L9.00004 8.83003L9.99005 11.01L12.1701 12L9.99005 12.99Z" fill="white"/>
</svg>
