<svg width="24" height="28" viewBox="0 0 24 28" fill="none" xmlns="http://www.w3.org/2000/svg">
<path d="M12 26.125C12.527 26.125 13.0711 25.9234 13.5528 25.6805C14.0579 25.4258 14.6023 25.0697 15.1578 24.6459C16.2704 23.7972 17.498 22.6228 18.6402 21.282C19.7826 19.9408 20.8614 18.4075 21.6592 16.8326C22.4516 15.2682 23 13.5972 23 12C23 5.92487 18.0751 1 12 1C5.92487 1 1 5.92487 1 12C1 13.5972 1.54841 15.2682 2.34082 16.8326C3.13855 18.4075 4.21737 19.9408 5.35985 21.282C6.502 22.6228 7.72961 23.7972 8.8422 24.6459C9.39769 25.0697 9.94211 25.4258 10.4472 25.6805C10.9289 25.9234 11.473 26.125 12 26.125Z" fill="black" stroke="white" stroke-width="2"/>
</svg>
