<svg width="20" height="20" viewBox="0 0 20 20" fill="none" xmlns="http://www.w3.org/2000/svg">
<g id="input">
<path id="Vector" d="M3.31326 4.27485C3.70696 3.90838 4.32376 3.90838 4.70433 4.27485L10.1505 9.34421C10.3348 9.51599 10.4384 9.74885 10.4384 9.99163C10.4384 10.2344 10.3348 10.4673 10.1505 10.639L4.70433 15.7084C4.61423 15.7984 4.50557 15.8706 4.38483 15.9207C4.2641 15.9708 4.13377 15.9977 4.00161 15.9999C3.86946 16.002 3.73818 15.9794 3.61563 15.9333C3.49307 15.8872 3.38174 15.8187 3.28828 15.7317C3.19482 15.6447 3.12114 15.541 3.07163 15.427C3.02213 15.3129 2.99782 15.1907 3.00015 15.0677C3.00248 14.9447 3.03141 14.8234 3.08521 14.711C3.139 14.5986 3.21656 14.4975 3.31326 14.4136L8.0639 9.99163L3.31326 5.56967C3.12895 5.39789 3.02542 5.16504 3.02542 4.92226C3.02542 4.67948 3.12895 4.44662 3.31326 4.27485ZM9.87491 4.27485C10.2686 3.90838 10.8854 3.90838 11.266 4.27485L16.7122 9.34421C16.8965 9.51599 17 9.74885 17 9.99163C17 10.2344 16.8965 10.4673 16.7122 10.639L11.266 15.7084C11.1759 15.7984 11.0672 15.8706 10.9465 15.9207C10.8257 15.9708 10.6954 15.9977 10.5633 15.9999C10.4311 16.002 10.2998 15.9794 10.1773 15.9333C10.0547 15.8872 9.94339 15.8187 9.84993 15.7317C9.75647 15.6447 9.68279 15.541 9.63328 15.427C9.58378 15.3129 9.55947 15.1907 9.5618 15.0677C9.56414 14.9447 9.59306 14.8234 9.64686 14.711C9.70065 14.5986 9.77821 14.4975 9.87491 14.4136L14.6255 9.99163L9.87491 5.56967C9.6906 5.39789 9.58707 5.16504 9.58707 4.92226C9.58707 4.67948 9.6906 4.44662 9.87491 4.27485Z" fill="#38383D"/>
</g>
</svg>
