<svg width="20" height="20" viewBox="0 0 20 20" fill="none" xmlns="http://www.w3.org/2000/svg">
<g id="jump-to-definition">
<path id="Vector (Stroke)" fill-rule="evenodd" clip-rule="evenodd" d="M6.43306 3.93306C6.67713 3.68898 7.07286 3.68898 7.31694 3.93306L10.2589 6.875L7.31694 9.81694C7.07286 10.061 6.67713 10.061 6.43306 9.81694C6.18898 9.57286 6.18898 9.17714 6.43306 8.93306L7.86611 7.5H5.0075C4.58124 7.5 4.10979 7.71981 3.72912 8.10646C3.34851 8.49304 3.12559 8.97917 3.11867 9.41493M3.11745 9.44524C3.11721 9.45582 3.11693 9.47321 3.11666 9.49874C3.1161 9.55089 3.11562 9.62895 3.11523 9.73379C3.11445 9.94304 3.11406 10.2542 3.11406 10.6677C3.11406 11.4944 3.11562 12.7277 3.11875 14.3676C3.1194 14.7127 2.84012 14.9931 2.49494 14.9937C2.14976 14.9944 1.86941 14.7151 1.86875 14.3699C1.86562 12.7298 1.86406 11.4956 1.86406 10.6677C1.86406 10.2538 1.86445 9.94079 1.86524 9.72914C1.86563 9.62354 1.86612 9.54195 1.86673 9.48528C1.86703 9.45728 1.86738 9.43326 1.86782 9.41472C1.86803 9.40586 1.86833 9.39506 1.86881 9.3844C1.86881 9.3844 1.86902 9.3799 1.86918 9.3769C1.88782 8.56063 2.28745 7.78906 2.83838 7.22948C3.39333 6.66582 4.16876 6.25 5.0075 6.25H7.86611L6.43306 4.81694C6.18898 4.57286 6.18898 4.17714 6.43306 3.93306M11.25 4.375C11.25 4.02982 11.5298 3.75 11.875 3.75H18.125C18.4702 3.75 18.75 4.02982 18.75 4.375C18.75 4.72018 18.4702 5 18.125 5H11.875C11.5298 5 11.25 4.72018 11.25 4.375ZM12.5 6.875C12.5 6.52982 12.7798 6.25 13.125 6.25H18.125C18.4702 6.25 18.75 6.52982 18.75 6.875C18.75 7.22018 18.4702 7.5 18.125 7.5H13.125C12.7798 7.5 12.5 7.22018 12.5 6.875ZM11.25 9.375C11.25 9.02982 11.5298 8.75 11.875 8.75H18.125C18.4702 8.75 18.75 9.02982 18.75 9.375C18.75 9.72018 18.4702 10 18.125 10H11.875C11.5298 10 11.25 9.72018 11.25 9.375Z" fill="#38383D"/>
</g>
</svg>
