<svg width="20" height="20" viewBox="0 0 20 20" fill="none" xmlns="http://www.w3.org/2000/svg">
<g id="return">
<path id="Vector" d="M9.68272 4.27485C10.052 4.64131 10.052 5.21543 9.68272 5.56967L6.15017 9.07548H14.0769C14.3217 9.07548 14.5565 9.172 14.7296 9.34381C14.9027 9.51562 15 9.74865 15 9.99163C15 10.2346 14.9027 10.4676 14.7296 10.6394C14.5565 10.8113 14.3217 10.9078 14.0769 10.9078H6.15017L9.68272 14.4136C9.77341 14.4975 9.84616 14.5986 9.89662 14.711C9.94707 14.8234 9.9742 14.9447 9.97639 15.0677C9.97857 15.1907 9.95577 15.3129 9.90934 15.427C9.86292 15.541 9.79381 15.6447 9.70615 15.7317C9.61849 15.8187 9.51407 15.8872 9.39913 15.9333C9.28418 15.9794 9.16106 16.002 9.03711 15.9999C8.91316 15.9977 8.79092 15.9708 8.67768 15.9207C8.56444 15.8706 8.46253 15.7984 8.37801 15.7084L3.26998 10.639C3.0971 10.4673 3 10.2344 3 9.99163C3 9.74885 3.0971 9.51599 3.26998 9.34421L8.37801 4.27485C8.74727 3.90838 9.32577 3.90838 9.68272 4.27485Z" fill="#38383D"/>
</g>
</svg>
